<?xml version="1.0" standalone="no"?>
<!DOCTYPE svg PUBLIC "-//W3C//DTD SVG 20010904//EN"
 "http://www.w3.org/TR/2001/REC-SVG-20010904/DTD/svg10.dtd">
<svg version="1.0" xmlns="http://www.w3.org/2000/svg"
 width="130.000000pt" height="100.000000pt" viewBox="0 0 130.000000 100.000000"
 preserveAspectRatio="xMidYMid meet">
<metadata>
Created by potrace 1.16, written by Peter Selinger 2001-2019
</metadata>
<g transform="translate(0.000000,100.000000) scale(0.100000,-0.100000)"
fill="#000000" stroke="none">
<path d="M0 500 l0 -500 143 0 144 0 11 38 c11 36 75 122 91 122 4 0 17 -13
29 -29 18 -25 20 -34 11 -60 -12 -35 -16 -36 -43 -16 -11 8 -29 15 -40 15 -19
0 -19 -2 4 -13 17 -9 24 -20 23 -35 -3 -20 1 -22 57 -22 53 0 60 2 60 20 0 29
63 28 83 -1 13 -17 23 -20 78 -17 49 2 63 6 61 17 -3 12 0 12 12 1 9 -7 16 -9
16 -4 0 5 4 3 8 -4 6 -9 35 -12 108 -10 l99 3 -52 28 c-29 15 -77 36 -108 48
-47 17 -55 24 -55 46 0 23 3 24 33 18 60 -13 155 -63 200 -104 l44 -41 142 0
141 0 0 500 0 500 -650 0 -650 0 0 -500z m490 240 c38 -19 90 -81 90 -107 0
-7 12 -15 28 -18 15 -3 41 -10 57 -14 17 -5 46 -12 66 -15 45 -8 56 -21 68
-77 5 -24 22 -89 36 -144 l27 -100 -31 -27 c-17 -16 -35 -28 -40 -28 -5 0 -18
35 -30 78 -11 42 -19 62 -16 43 l5 -34 -21 27 c-12 15 -27 47 -35 72 -12 41
-12 44 6 44 10 0 21 -8 23 -17 3 -12 5 -8 6 9 1 22 -4 27 -26 30 -23 2 -30 10
-37 40 -7 27 -15 37 -33 41 -12 2 -23 0 -23 -5 0 -5 -4 -7 -9 -4 -5 4 -7 -2
-4 -13 5 -21 -14 -38 -28 -24 -5 5 -19 37 -32 72 -16 47 -33 72 -61 95 -36 29
-43 31 -121 31 -67 0 -87 -4 -104 -19 -30 -28 -26 -41 5 -17 38 30 47 26 15
-7 -32 -31 -46 -97 -31 -138 13 -33 6 -43 -10 -14 -11 21 -13 65 -6 138 3 37
46 88 91 108 45 20 129 17 175 -6z m198 -92 c15 -15 16 -48 1 -48 -5 0 -8 4
-5 9 9 15 -5 41 -22 41 -8 0 -24 -7 -34 -17 -22 -20 -24 -11 -2 11 18 19 45
21 62 4z m-482 -82 c-1 -30 -4 -52 -8 -49 -15 8 -8 103 7 103 0 0 1 -24 1 -54z
m284 -10 c0 -19 -4 -37 -9 -41 -13 -7 -24 30 -16 55 10 32 25 23 25 -14z m54
-117 c-15 -16 -53 -38 -83 -50 -49 -19 -63 -20 -110 -10 -53 10 -121 59 -121
85 0 6 7 0 16 -13 21 -29 89 -60 132 -61 71 0 152 62 152 118 0 27 0 27 21 -7
l20 -34 -27 -28z m-269 11 c10 -11 16 -20 13 -20 -3 0 -13 9 -23 20 -10 11
-16 20 -13 20 3 0 13 -9 23 -20z m320 -18 c-53 -11 -94 -75 -81 -125 5 -21 4
-20 -14 3 l-20 25 16 -53 c8 -29 12 -57 9 -62 -7 -11 -82 -11 -129 -1 -24 5
-33 15 -46 53 -9 26 -19 51 -23 55 -4 3 -7 17 -7 30 0 30 20 20 21 -10 1 -14
3 -16 6 -6 3 12 19 15 77 15 l73 -1 51 47 c37 35 56 46 69 41 17 -7 17 -8 -2
-11z m46 -33 c20 -20 38 -57 53 -106 6 -18 3 -23 -11 -23 -17 -1 -17 -1 0 -11
21 -12 22 -31 1 -71 -16 -30 -16 -30 -30 -9 -8 12 -20 21 -27 21 -8 0 -8 -3 1
-12 16 -16 15 -28 -3 -28 -9 0 -12 -6 -9 -15 4 -8 -1 -26 -10 -40 -18 -28 -21
-39 -6 -30 6 3 10 1 10 -4 0 -6 0 -14 0 -18 0 -5 -8 -8 -17 -8 -10 1 -17 6
-16 13 2 7 -4 12 -13 12 -8 0 -12 5 -8 11 3 6 -6 3 -22 -7 -27 -19 -28 -19
-21 0 7 17 6 17 -10 5 -15 -13 -16 -12 -11 8 4 15 2 23 -6 23 -6 0 -27 14 -46
30 l-35 30 37 -20 36 -21 41 28 c22 15 40 34 41 41 0 6 4 12 8 12 5 0 14 10
19 23 9 18 5 28 -18 55 -34 39 -37 70 -8 106 25 31 52 33 80 5z m-356 -39 c8
-47 -2 -83 -20 -76 -18 6 -25 -15 -12 -36 8 -12 6 -23 -7 -44 -16 -23 -20 -25
-28 -11 -5 9 -19 22 -31 29 -21 11 -21 10 -7 -7 14 -17 13 -18 -8 -13 -19 5
-21 4 -11 -8 14 -17 -4 -44 -31 -44 -10 0 -21 -10 -25 -23 -4 -15 -8 -18 -12
-9 -3 8 3 26 13 40 11 15 26 40 34 55 8 16 25 40 39 53 26 26 40 49 65 102 20
43 33 40 41 -8z m125 -170 c0 -5 -4 -10 -9 -10 -6 0 -13 5 -16 10 -3 6 1 10 9
10 9 0 16 -4 16 -10z m130 6 c0 -2 -7 -7 -16 -10 -8 -3 -12 -2 -9 4 6 10 25
14 25 6z m-413 -88 c-3 -8 -6 -5 -6 6 -1 11 2 17 5 13 3 -3 4 -12 1 -19z m593
-38 c14 -25 8 -25 -15 0 -10 11 -13 20 -7 20 6 0 16 -9 22 -20z"/>
<path d="M750 496 c0 -9 7 -16 16 -16 17 0 14 22 -4 28 -7 2 -12 -3 -12 -12z"/>
<path d="M731 384 c0 -11 3 -14 6 -6 3 7 2 16 -1 19 -3 4 -6 -2 -5 -13z"/>
</g>
</svg>
