<?xml version="1.0" standalone="no"?>
<!DOCTYPE svg PUBLIC "-//W3C//DTD SVG 20010904//EN"
 "http://www.w3.org/TR/2001/REC-SVG-20010904/DTD/svg10.dtd">
<svg version="1.0" xmlns="http://www.w3.org/2000/svg"
 width="40.000000pt" height="45.000000pt" viewBox="0 0 40.000000 45.000000"
 preserveAspectRatio="xMidYMid meet">
<metadata>
Created by potrace 1.16, written by Peter Selinger 2001-2019
</metadata>
<g transform="translate(0.000000,45.000000) scale(0.100000,-0.100000)"
fill="#000000" stroke="none">
<path d="M1 228 l-1 -228 200 0 200 0 0 190 c0 153 -3 188 -13 184 -9 -3 -18
9 -26 36 -11 38 -34 59 -24 22 2 -10 -5 -29 -15 -42 -17 -21 -24 -23 -48 -15
-23 8 -30 17 -32 43 -3 28 -7 33 -25 30 -17 -2 -23 -11 -25 -40 -4 -51 -22
-49 -22 2 0 29 -4 40 -15 40 -8 0 -14 -3 -14 -7 1 -5 1 -21 0 -38 -1 -28 -4
-30 -44 -32 -46 -3 -80 20 -90 62 -3 11 -5 -82 -6 -207z m49 -48 c0 -40 -4
-70 -10 -70 -6 0 -10 30 -10 70 0 40 4 70 10 70 6 0 10 -30 10 -70z"/>
<path d="M40 430 c0 -27 34 -44 60 -30 11 6 20 15 20 20 0 6 -9 10 -20 10 -11
0 -20 5 -20 10 0 6 -9 10 -20 10 -13 0 -20 -7 -20 -20z"/>
<path d="M267 443 c-13 -12 -7 -41 9 -47 22 -9 34 1 34 30 0 17 -6 24 -18 24
-10 0 -22 -3 -25 -7z"/>
<path d="M380 430 c0 -11 2 -20 4 -20 2 0 6 9 9 20 3 11 1 20 -4 20 -5 0 -9
-9 -9 -20z"/>
</g>
</svg>
