<?xml version="1.0" standalone="no"?>
<!DOCTYPE svg PUBLIC "-//W3C//DTD SVG 20010904//EN"
 "http://www.w3.org/TR/2001/REC-SVG-20010904/DTD/svg10.dtd">
<svg version="1.0" xmlns="http://www.w3.org/2000/svg"
 width="125.000000pt" height="80.000000pt" viewBox="0 0 125.000000 80.000000"
 preserveAspectRatio="xMidYMid meet">
<metadata>
Created by potrace 1.16, written by Peter Selinger 2001-2019
</metadata>
<g transform="translate(0.000000,80.000000) scale(0.100000,-0.100000)"
fill="#000000" stroke="none">
<path d="M0 711 c0 -83 1 -89 23 -95 12 -3 108 -6 212 -7 105 -1 174 -5 155
-8 -34 -6 -34 -7 -10 -15 28 -9 29 -9 88 -25 33 -9 47 -9 58 0 11 9 17 9 29
-1 13 -11 22 -9 50 6 20 11 33 24 30 31 -3 9 9 13 43 13 29 0 42 -3 34 -9 -11
-7 -11 -9 2 -14 9 -4 13 -13 10 -22 -7 -17 -1 -18 44 -6 l32 10 2 -105 c1 -57
2 -112 2 -121 1 -18 -3 -18 -46 -6 -13 4 -18 0 -18 -14 0 -10 -6 -25 -12 -32
-11 -10 -10 -11 4 -6 12 5 16 2 14 -12 -2 -12 -11 -17 -25 -16 -11 2 -21 -1
-21 -6 0 -13 -51 -30 -85 -29 -16 1 -54 -4 -84 -10 -49 -11 -57 -10 -88 9 -25
15 -43 20 -66 15 -61 -11 -70 -11 -74 2 -3 6 3 12 12 12 26 0 8 17 -25 23 -17
4 -44 16 -60 28 -25 19 -33 21 -55 11 -14 -7 -36 -12 -48 -12 -13 0 -27 -4
-32 -9 -6 -6 -21 -12 -35 -15 -46 -8 -60 -18 -60 -42 0 -22 2 -23 20 -12 11 7
20 16 20 20 0 5 4 8 9 8 5 0 7 -10 3 -23 -5 -19 -4 -20 11 -9 20 17 37 8 37
-19 0 -17 -6 -19 -50 -16 l-50 3 0 -93 0 -93 276 0 c255 0 274 1 259 16 -13
14 -29 16 -84 11 -37 -3 -74 -1 -82 4 -11 7 -10 9 6 10 11 1 28 1 38 1 10 -1
31 5 47 13 16 8 39 14 52 14 13 -1 28 0 33 1 8 3 122 -28 134 -37 2 -1 -2 -9
-9 -18 -11 -13 20 -15 284 -15 l296 0 0 29 c0 16 -6 31 -15 35 -8 3 -15 11
-14 18 0 10 2 10 6 1 17 -45 22 28 23 352 l0 365 -625 0 -625 0 0 -89z m1060
-191 c12 -7 8 -10 -15 -10 -33 -1 -55 -14 -74 -45 -11 -20 -12 -20 -9 0 2 10
18 30 37 42 38 26 40 26 61 13z m-10 -48 c0 -15 -28 -47 -35 -40 -8 8 13 48
25 48 6 0 10 -4 10 -8z m7 -118 c-3 -3 -12 -4 -19 -1 -8 3 -5 6 6 6 11 1 17
-2 13 -5z m-901 -99 c45 -2 69 -14 47 -22 -7 -3 -13 -16 -13 -29 0 -13 -4 -24
-10 -24 -5 0 -10 10 -10 23 -1 22 -1 22 -14 -3 l-14 -24 -4 24 -5 25 -11 -25
-11 -25 0 28 c-1 21 4 27 22 28 22 2 22 2 0 6 -12 2 -27 12 -35 21 -11 13 -11
14 1 8 7 -5 33 -10 57 -11z m814 -35 c0 -20 5 -30 15 -30 8 0 15 7 15 15 0 8
5 15 11 15 5 0 8 -4 4 -9 -3 -5 -1 -12 4 -15 5 -4 12 2 14 11 4 15 5 14 6 -3
1 -19 -5 -22 -44 -22 -45 -1 -45 -1 -45 33 0 19 5 35 10 35 6 0 10 -13 10 -30z
m150 -30 c5 0 11 10 13 23 4 19 4 18 6 -5 1 -22 -4 -28 -19 -28 -15 0 -20 6
-19 28 2 23 2 24 6 5 2 -13 8 -23 13 -23z m73 28 c4 -10 8 -9 16 2 14 19 14 0
1 -34 -12 -33 -29 -34 -23 -2 6 32 -15 43 -26 14 -9 -22 -10 -22 -10 -2 -1 11
2 24 6 27 11 11 31 8 36 -5z m-103 -16 c0 -10 -8 -18 -18 -19 -11 -1 -18 5
-18 18 0 12 7 19 18 19 11 0 18 -7 18 -18z m-955 -140 c-3 -3 -14 -1 -25 6
-12 7 -21 8 -25 2 -10 -16 -35 -11 -35 6 0 12 7 15 30 12 19 -3 35 1 43 10 10
13 12 12 15 -7 2 -13 1 -26 -3 -29z m231 13 c-6 -17 -53 -20 -58 -4 -2 7 -12
7 -31 0 -21 -8 -27 -8 -27 3 0 10 14 13 52 13 37 -1 53 3 56 13 4 11 6 12 10
2 2 -7 1 -19 -2 -27z m314 -1 c0 -17 -9 -17 -35 -1 -33 20 -30 38 5 25 17 -5
30 -16 30 -24z m-446 2 c-6 -16 -24 -13 -24 5 0 6 5 7 10 4 6 -3 10 -1 10 6 0
7 2 10 5 7 3 -3 3 -13 -1 -22z m723 2 c-3 -8 -6 -5 -6 6 -1 11 2 17 5 13 3 -3
4 -12 1 -19z m-757 4 c0 -4 -9 -8 -20 -8 -11 0 -20 4 -20 8 0 4 9 8 20 8 11 0
20 -4 20 -8z m813 1 c-7 -2 -19 -2 -25 0 -7 3 -2 5 12 5 14 0 19 -2 13 -5z
m87 -4 c0 -4 -7 -9 -15 -13 -9 -3 -15 0 -15 8 0 7 7 13 15 13 8 0 15 -4 15 -8z
m-49 -22 c-10 -9 -11 -8 -5 6 3 10 9 15 12 12 3 -3 0 -11 -7 -18z m-306 -37
c3 -5 2 -10 -4 -10 -5 0 -13 5 -16 10 -3 6 -2 10 4 10 5 0 13 -4 16 -10z"/>
<path d="M614 545 c-10 -8 -14 -15 -8 -15 5 0 19 7 30 15 10 8 14 15 8 15 -5
0 -19 -7 -30 -15z"/>
<path d="M26 211 c-4 -7 -5 -15 -2 -18 9 -9 19 4 14 18 -4 11 -6 11 -12 0z"/>
</g>
</svg>
