<svg fill="none" height="100%" width="100%" viewBox="0 0 1080 1080" xmlns:xlink="http://www.w3.org/1999/xlink" xmlns="http://www.w3.org/2000/svg"><g transform="matrix(1,0,0,1,540,540)" id="i0"><g id="i1"><path fill="#ffffff" d="M540,540C540,540,-540,540,-540,540C-540,540,-540,-540,-540,-540C-540,-540,540,-540,540,-540C540,-540,540,540,540,540Z" /></g></g><g id="i2"><g transform="translate(539.997,509.681)"><g transform="rotate(0)"><animateTransform repeatCount="indefinite" type="rotate" attributeName="transform" dur="4.233s" begin="0s" calcMode="spline" values="0; 662; 662" keyTimes="0; 0.944882; 1" keySplines="0.401 0 0.583 1; 0 0 1 1" fill="freeze" /><g transform="scale(1,1)"><animateTransform repeatCount="indefinite" type="scale" attributeName="transform" dur="4.233s" begin="0s" calcMode="spline" values="1 1; 1.15 1.15; 1 1; 1 1" keyTimes="0; 0.472441; 0.944882; 1" keySplines="0.333 0 0.667 1; 0.333 0 0.667 1; 0 0 1 1" fill="freeze" /><g transform="translate(-539.997,-509.681)"><g id="i3" transform="matrix(1,0,0,1,656.602,287.186)"><path stroke-miterlimit="10" stroke-width="15" stroke="#ffffff" fill="#21e8e8" d="M-116.605,-107.315C-116.605,-107.315,-116.605,60.555,-116.605,60.555C-103.075,60.484,-81.435,62.045,-56.978,71.489C-29.788,81.989,-11.451,97.469,-1.425,107.315C37.918,67.972,77.262,28.628,116.605,-10.715C56.925,-70.405,-25.525,-107.315,-116.605,-107.315Z" /></g><g id="i4" transform="matrix(1,0,0,1,762.492,393.076)"><path stroke-miterlimit="10" stroke-width="15" stroke="#ffffff" fill="#88db05" d="M81.395,-11.775C64.715,-51.235,40.555,-86.765,10.715,-116.605C10.715,-116.605,-107.315,1.425,-107.315,1.425C-97.354,11.185,-81.634,29.08,-70.61,55.851C-60.335,80.803,-58.45,102.996,-58.335,116.605C-3.118,116.605,52.098,116.605,107.315,116.605C107.315,71.065,98.085,27.685,81.395,-11.775Z" /></g><g id="i5" transform="matrix(1,0,0,1,317.132,626.286)"><path stroke-miterlimit="10" stroke-width="15" stroke="#ffffff" fill="#e348f9" d="M60.205,-116.605C60.205,-116.605,-106.945,-116.605,-106.945,-116.605C-106.945,-71.065,-97.715,-27.685,-81.025,11.765C-64.335,51.225,-40.185,86.755,-10.345,116.605C-10.345,116.605,106.945,-0.685,106.945,-0.685C97.121,-10.688,81.628,-29.028,71.123,-56.243C61.537,-81.076,60.069,-103.027,60.205,-116.605Z" /></g><g id="i6" transform="matrix(1,0,0,1,763.237,626.286)"><path stroke-miterlimit="10" stroke-width="15" stroke="#ffffff" fill="#e8bb00" d="M-59.08,-116.605C-58.954,-103.014,-60.437,-81.416,-69.727,-56.998C-80.42,-28.892,-96.504,-10.068,-106.57,0.065C-67.723,38.912,-28.877,77.758,9.97,116.605C69.66,56.915,106.57,-25.535,106.57,-116.605C106.57,-116.605,-59.08,-116.605,-59.08,-116.605Z" /></g><g id="i7" transform="matrix(1,0,0,1,656.602,732.921)"><path stroke-miterlimit="10" stroke-width="15" stroke="#ffffff" fill="#ff5f06" d="M0.065,-106.57C-9.949,-96.488,-28.56,-80.362,-56.436,-69.485C-81.117,-59.855,-102.983,-58.271,-116.605,-58.34C-116.605,-3.37,-116.605,51.6,-116.605,106.57C-25.525,106.57,56.925,69.65,116.605,9.97C116.605,9.97,0.065,-106.57,0.065,-106.57Z" /></g><g id="i8" transform="matrix(1,0,0,1,423.392,732.546)"><path stroke-miterlimit="10" stroke-width="15" stroke="#ffffff" fill="#ef0000" d="M0.685,-106.945C0.685,-106.945,-116.605,10.345,-116.605,10.345C-56.915,70.025,25.535,106.945,116.605,106.945C116.605,106.945,116.605,-57.965,116.605,-57.965C102.698,-58.021,78.977,-59.888,52.421,-71.383C27.245,-82.28,10.244,-97.189,0.685,-106.945Z" /></g><g id="i9" transform="matrix(1,0,0,1,317.872,393.076)"><path stroke-miterlimit="10" stroke-width="15" stroke="#ffffff" fill="#aa48ff" d="M-11.085,-116.605C-70.765,-56.925,-107.685,25.525,-107.685,116.605C-107.685,116.605,59.465,116.605,59.465,116.605C59.594,102.274,61.681,77.686,74.07,50.435C84.493,27.508,98.143,11.637,107.685,2.165C68.095,-37.425,28.505,-77.015,-11.085,-116.605Z" /></g><g id="i10" transform="matrix(1,0,0,1,540.742,511.162)"><path stroke-miterlimit="10" stroke-width="15" stroke="#ffffff" d="M163.42,0C163.42,90.254,90.254,163.42,0,163.42C-90.254,163.42,-163.42,90.254,-163.42,0C-163.42,-90.254,-90.254,-163.42,0,-163.42C90.254,-163.42,163.42,-90.254,163.42,0Z" /></g><g id="i1" transform="matrix(1,0,0,1,423.392,286.322)"><g id="i1" transform="matrix(1,0,0,1.028,0,0)"><path stroke-miterlimit="10" stroke-width="15" stroke="#ffffff" fill="#2f8bf7" d="M116.605,-106.451C25.535,-106.451,-56.915,-69.541,-116.605,-9.851C-77.838,28.916,-39.07,67.684,-0.303,106.451C10.742,97.173,27.387,85.292,49.788,75.996C76.726,64.818,100.84,62.004,116.605,61.419C116.605,5.462,116.605,-50.494,116.605,-106.451Z" /></g></g></g></g></g></g></g><g transform="matrix(1,0,0,1,540.742,511.162)" id="i11"><g><g id="i1" transform="scale(0,0)"><animateTransform repeatCount="indefinite" type="scale" attributeName="transform" dur="4.233s" begin="0s" calcMode="spline" values="0 0; 1.25 1.25; 0.97 0.97; 0.97 0.97" keyTimes="0; 0.480315; 0.944882; 1" keySplines="0.333 0 0.667 1; 0.333 0 0.667 1; 0 0 1 1" fill="freeze" /><path fill="#e8bb00" d="M136.103,0C136.103,75.168,75.168,136.103,0,136.103C-75.168,136.103,-136.103,75.168,-136.103,0C-136.103,-75.168,-75.168,-136.103,0,-136.103C75.168,-136.103,136.103,-75.168,136.103,0Z"><animate repeatCount="indefinite" attributeName="fill" dur="4.233s" begin="0s" fill="freeze" values="#e8bb00; #f60808; #f8c619; #19f8e6; #fb43f9; #88db05; #2f8bf7; #d8e821; #5dd2f9; #5dd2f9" keyTimes="0; 0.125984; 0.244094; 0.354331; 0.472441; 0.598425; 0.716535; 0.826772; 0.944882; 1" keySplines="0.333 0 0.667 1; 0.333 0 0.667 1; 0.333 0 0.667 1; 0.333 0 0.667 1; 0.333 0 0.667 1; 0.333 0 0.667 1; 0.333 0 0.667 1; 0.333 0 0.667 1; 0 0 1 1" calcMode="spline" /></path></g></g></g><g transform="matrix(1,0,0,1,-21,-60)" id="i12"><g><g transform="translate(374.322,799.681)"><g id="i9" transform="scale(0,0)"><animateTransform repeatCount="indefinite" type="scale" attributeName="transform" dur="4.233s" begin="0s" calcMode="spline" values="0 0; 1.47 1.47; 0 0; 1.47 1.47; 0 0; 1.47 1.47; 0 0; 0.95 0.95; 0.95 0.95" keyTimes="0; 0.11811; 0.23622; 0.362205; 0.472441; 0.590551; 0.708662; 0.826772; 1" keySplines="0.333 0 0.667 1; 0.333 0 0.667 1; 0.333 0 0.667 1; 0.333 0 0.667 1; 0.333 0 0.667 1; 0.333 0 0.667 1; 0.333 0 0.667 1; 0 0 1 1" fill="freeze" /><path fill="#ffffff" d="M0,-93.339C0,11.82,-2.934,2.791,23.168,-22.034C-2.934,2.791,-12.429,2.791,98.142,-22.034C-12.429,2.791,-4.747,-2.791,37.487,22.034C-4.747,-2.791,-7.681,-11.82,60.655,93.339C-7.681,-11.82,0,-6.24,0,49.27C0,-6.24,7.681,-11.82,-60.655,93.339C7.681,-11.82,4.747,-2.791,-37.487,22.034C4.747,-2.791,12.429,2.791,-98.142,-22.034C12.429,2.791,2.934,2.791,-23.168,-22.034C2.934,2.791,0,11.82,0,-93.339Z" /></g></g></g><g><g transform="translate(564.322,523.681)"><g id="i8" transform="scale(0,0)"><animateTransform repeatCount="indefinite" type="scale" attributeName="transform" dur="4.233s" begin="0s" calcMode="spline" values="0 0; 1.47 1.47; 0 0; 1.47 1.47; 0 0; 1.47 1.47; 0 0; 1.47 1.47; 0 0; 0 0" keyTimes="0; 0.11811; 0.23622; 0.362204; 0.472441; 0.590551; 0.708661; 0.826772; 0.944882; 1" keySplines="0.333 0 0.667 1; 0.333 0 0.667 1; 0.333 0 0.667 1; 0.333 0 0.667 1; 0.333 0 0.667 1; 0.333 0 0.667 1; 0.333 0 0.667 1; 0.333 0 0.667 1; 0 0 1 1" fill="freeze" /><path fill="#ffffff" d="M0,-93.339C0,11.82,-2.934,2.791,23.168,-22.034C-2.934,2.791,-12.429,2.791,98.142,-22.034C-12.429,2.791,-4.747,-2.791,37.487,22.034C-4.747,-2.791,-7.681,-11.82,60.655,93.339C-7.681,-11.82,0,-6.24,0,49.27C0,-6.24,7.681,-11.82,-60.655,93.339C7.681,-11.82,4.747,-2.791,-37.487,22.034C4.747,-2.791,12.429,2.791,-98.142,-22.034C12.429,2.791,2.934,2.791,-23.168,-22.034C2.934,2.791,0,11.82,0,-93.339Z" /></g></g></g><g><g transform="translate(919.379,514.677)"><g id="i10" transform="scale(1.2,1.2)"><animateTransform repeatCount="indefinite" type="scale" attributeName="transform" dur="4.233s" begin="0s" calcMode="spline" values="1.2 1.2; 0 0; 1.21 1.21; 0 0; 1.29 1.29; 0 0; 1.18 1.18; 0 0; 1 1; 1 1" keyTimes="0; 0.125984; 0.23622; 0.362204; 0.472441; 0.598425; 0.716535; 0.826772; 0.944882; 1" keySplines="0.333 0 0.667 1; 0.333 0 0.667 1; 0.333 0 0.667 1; 0.333 0 0.667 1; 0.333 0 0.667 1; 0.333 0 0.667 1; 0.333 0 0.667 1; 0.333 0 0.667 1; 0 0 1 1" fill="freeze" /><path fill="#93fbfc" d="M0,-93.339C0,11.82,-2.934,2.791,23.168,-22.034C-2.934,2.791,-12.429,2.791,98.142,-22.034C-12.429,2.791,-4.747,-2.791,37.487,22.034C-4.747,-2.791,-7.681,-11.82,60.655,93.339C-7.681,-11.82,0,-6.24,0,49.27C0,-6.24,7.681,-11.82,-60.655,93.339C7.681,-11.82,4.747,-2.791,-37.487,22.034C4.747,-2.791,12.429,2.791,-98.142,-22.034C12.429,2.791,2.934,2.791,-23.168,-22.034C2.934,2.791,0,11.82,0,-93.339Z" /></g></g></g><g><g transform="translate(338.997,346.28)"><g id="i1" transform="scale(0,0)"><animateTransform repeatCount="indefinite" type="scale" attributeName="transform" dur="4.233s" begin="0s" calcMode="spline" values="0 0; 0.95 0.95; 0 0; 0 0; 0.97 0.97; 0 0; 0.93 0.93; 0 0; 0.77 0.77; 0.77 0.77" keyTimes="0; 0.11811; 0.23622; 0.354331; 0.472441; 0.590551; 0.708661; 0.826772; 0.944882; 1" keySplines="0.333 0 0.667 1; 0.333 0 0.667 1; 0.333 0 0.667 1; 0.333 0 0.667 1; 0.333 0 0.667 1; 0.333 0 0.667 1; 0.333 0 0.667 1; 0.333 0 0.667 1; 0 0 1 1" fill="freeze" /><path fill="#fcee15" d="M0,-86.536C0,-1.766,0.439,-0.417,21.48,-20.428C0.439,-0.417,1.857,-0.417,90.989,-20.428C1.857,-0.417,0.71,0.417,34.755,20.428C0.71,0.417,1.147,1.766,56.234,86.536C1.147,1.766,0,0.932,0,45.679C0,0.932,-1.147,1.766,-56.234,86.536C-1.147,1.766,-0.71,0.417,-34.755,20.428C-0.71,0.417,-1.857,-0.417,-90.989,-20.428C-1.857,-0.417,-0.439,-0.417,-21.48,-20.428C-0.439,-0.417,0,-1.766,0,-86.536Z" /></g></g></g></g></svg>