<svg fill="none" height="100%" width="100%" viewBox="0 0 1080 1080" xmlns:xlink="http://www.w3.org/1999/xlink" xmlns="http://www.w3.org/2000/svg"><defs><clipPath id="i0"><rect height="1080" width="1080" y="0" x="0" /></clipPath><filter id="i1"><feColorMatrix values="0 0 0 0 1 0 0 0 0 1 0 0 0 0 1 0 0 0 1 0" type="matrix" /></filter><mask height="20000" width="20000" y="-10000" x="-10000" maskContentUnits="userSpaceOnUse" maskUnits="userSpaceOnUse" style="mask-type: alpha" mask-type="alpha" id="i2"><g filter="url(#i1)"><g transform="translate(570,532.006)"><animateTransform repeatCount="indefinite" type="translate" attributeName="transform" dur="2.067s" begin="0s" calcMode="spline" values="570 532.006; 570 498.006; 570 534.006; 570 496.006; 570 532.006; 570 498.006; 570 534.006; 570 496.006; 570 532.006" keyTimes="0; 0.16129; 0.258065; 0.370968; 0.5; 0.66129; 0.758065; 0.870968; 1" keySplines="0.333 0 0.667 1; 0.333 0 0.667 1; 0.333 0 0.667 1; 0.333 0 0.667 1; 0.333 0 0.667 1; 0.333 0 0.667 1; 0.333 0 0.667 1; 0.333 0 0.667 1" fill="freeze" /><g transform="scale(1,1) translate(-113.75,-92.121)"><g transform="matrix(1,0,0,1,20.25,-79.007)" id="i3"><g id="i4" transform="matrix(1,0,0,1,177.5,169)"><path d="M-40,-31.5C-40,-31.5,5,-19.5,40,31.5" stroke-miterlimit="10" stroke-width="55" stroke="#b8a48d"><animate repeatCount="indefinite" attributeName="d" dur="2.067s" begin="0s" calcMode="spline" values="M-40,-31.5C-40,-31.5,5,-19.5,40,31.5; M-40,-31.5C-40,-31.5,-1,-16.045,33,39; M-40,-31.5C-40,-31.5,0,-17.377,32.038,39; M-40,-31.5C-40,-31.5,1.5,-23.877,38.5,32.5; M-40,-31.5C-40,-31.5,0,-24.377,41,32; M-40,-31.5C-40,-31.5,6,-15.377,36,46; M-40,-31.5C-40,-31.5,2.5,-18.877,34.385,43.077; M-40,-31.5C-40,-31.5,1.5,-22.877,41,38; M-40,-31.5C-40,-31.5,5,-19.5,40,31.5" keyTimes="0; 0.16129; 0.258065; 0.370968; 0.5; 0.66129; 0.758065; 0.870968; 1" keySplines="0.333 0 0.667 1; 0.333 0 0.667 1; 0.333 0 0.667 1; 0.333 0 0.667 1; 0.333 0 0.667 1; 0.333 0 0.667 1; 0.333 0 0.667 1; 0.333 0 0.667 1" fill="freeze" /></path></g></g></g></g></g></mask><filter id="i5"><feColorMatrix values="0 0 0 0 1 0 0 0 0 1 0 0 0 0 1 0 0 0 1 0" type="matrix" /></filter><mask height="20000" width="20000" y="-10000" x="-10000" maskContentUnits="userSpaceOnUse" maskUnits="userSpaceOnUse" style="mask-type: alpha" mask-type="alpha" id="i6"><g filter="url(#i5)"><g transform="translate(570,532.006)"><animateTransform repeatCount="indefinite" type="translate" attributeName="transform" dur="2.067s" begin="0s" calcMode="spline" values="570 532.006; 570 498.006; 570 534.006; 570 496.006; 570 532.006; 570 498.006; 570 534.006; 570 496.006; 570 532.006" keyTimes="0; 0.16129; 0.258065; 0.370968; 0.5; 0.66129; 0.758065; 0.870968; 1" keySplines="0.333 0 0.667 1; 0.333 0 0.667 1; 0.333 0 0.667 1; 0.333 0 0.667 1; 0.333 0 0.667 1; 0.333 0 0.667 1; 0.333 0 0.667 1; 0.333 0 0.667 1" fill="freeze" /><g transform="scale(1,1) translate(-113.75,-92.121)"><g transform="matrix(1,0,0,1,-198.75,-86.507)" id="i7"><g id="i4" transform="matrix(1,0,0,1,197.75,161.75)"><path d="M60.25,-24.25C60.25,-24.25,-13.75,-20.25,-60.25,24.25" stroke-miterlimit="10" stroke-width="55" stroke="#cebc9e"><animate repeatCount="indefinite" attributeName="d" dur="2.067s" begin="0s" calcMode="spline" values="M60.25,-24.25C60.25,-24.25,-13.75,-20.25,-60.25,24.25; M60.25,-24.25C60.25,-24.25,-12.25,-24.127,-57.25,30.25; M60.25,-24.25C60.25,-24.25,-2.25,-21.127,-47.25,37.25; M60.25,-24.25C60.25,-24.25,-15.25,-18.627,-62.75,38.75; M60.25,-24.25C60.25,-24.25,-19.25,-26.627,-66.75,30.75; M60.25,-24.25C60.25,-24.25,-3.25,-21.627,-52.25,37.75; M60.25,-24.25C60.25,-24.25,-0.25,-26.127,-48.75,38.25; M60.25,-24.25C60.25,-24.25,-9.25,-23.627,-60.75,34.25; M60.25,-24.25C60.25,-24.25,-13.75,-20.25,-60.25,24.25" keyTimes="0; 0.16129; 0.258065; 0.370968; 0.5; 0.66129; 0.758065; 0.870968; 1" keySplines="0.333 0 0.667 1; 0.333 0 0.667 1; 0.333 0 0.667 1; 0.333 0 0.667 1; 0.333 0 0.667 1; 0.333 0 0.667 1; 0.333 0 0.667 1; 0.333 0 0.667 1" fill="freeze" /></path></g></g></g></g></g></mask><g id="i8"><g id="i9"><g transform="translate(544.5,798)"><g transform="scale(1,1)"><animateTransform repeatCount="indefinite" type="scale" attributeName="transform" dur="2.067s" begin="0s" calcMode="spline" values="1 1; 0.88 1; 1.12 1; 0.88 1; 1 1; 0.88 1; 1.12 1; 0.88 1; 1 1" keyTimes="0; 0.16129; 0.258065; 0.370968; 0.5; 0.66129; 0.758065; 0.870968; 1" keySplines="0.333 0 0.667 1; 0.333 0 0.667 1; 0.333 0 0.667 1; 0.333 0 0.667 1; 0.333 0 0.667 1; 0.333 0 0.667 1; 0.333 0 0.667 1; 0.333 0 0.667 1" fill="freeze" /><g transform="translate(-202.5,-8)"><g id="i4"><path stroke-miterlimit="10" stroke-linecap="round" stroke-width="16" stroke="#bababa" d="M8,8C8,8,397,8,397,8" /></g></g></g></g></g><g id="i10"><g transform="translate(570,532.006)"><animateTransform repeatCount="indefinite" type="translate" attributeName="transform" dur="2.067s" begin="0s" calcMode="spline" values="570 532.006; 570 498.006; 570 534.006; 570 496.006; 570 532.006; 570 498.006; 570 534.006; 570 496.006; 570 532.006" keyTimes="0; 0.16129; 0.258065; 0.370968; 0.5; 0.66129; 0.758065; 0.870968; 1" keySplines="0.333 0 0.667 1; 0.333 0 0.667 1; 0.333 0 0.667 1; 0.333 0 0.667 1; 0.333 0 0.667 1; 0.333 0 0.667 1; 0.333 0 0.667 1; 0.333 0 0.667 1" fill="freeze" /><g transform="scale(1,1) translate(-113.75,-92.121)"><g transform="matrix(1,0,0,1,33.5,156.243)" id="i11"><g transform="matrix(1,0,0,1,-82.75,1.25)" id="i12"><g id="i4" transform="matrix(1,0,0,1,120.5,124)"><path d="M16.5,-64C16.5,-64,60.5,26,-60.5,64" stroke-miterlimit="10" stroke-linecap="round" stroke-width="24" stroke="#564d3b"><animate repeatCount="indefinite" attributeName="d" dur="2.067s" begin="0s" calcMode="spline" values="M16.5,-64C16.5,-64,60.5,26,-60.5,64; M16.5,-64C16.5,-64,102,-3,16.5,32; M16.5,-64C16.5,-64,119,-42.5,81,62; M16.5,-64C16.5,-64,49,-13,13,99; M16.5,-64C16.5,-64,60.5,26,-60.5,64; M16.5,-64C16.5,-64,102,-3,16.5,32; M16.5,-64C16.5,-64,119,-42.5,81,62; M16.5,-64C16.5,-64,49,-13,13,99; M16.5,-64C16.5,-64,60.5,26,-60.5,64" keyTimes="0; 0.16129; 0.258065; 0.370968; 0.5; 0.66129; 0.758065; 0.870968; 1" keySplines="0.333 0 0.667 1; 0.333 0 0.667 1; 0.333 0 0.667 1; 0.333 0 0.667 1; 0.333 0 0.667 1; 0.333 0 0.667 1; 0.333 0 0.667 1; 0.333 0 0.667 1" fill="freeze" /></path></g></g></g></g></g></g><g id="i10"><g transform="translate(570,532.006)"><animateTransform repeatCount="indefinite" type="translate" attributeName="transform" dur="2.067s" begin="0s" calcMode="spline" values="570 532.006; 570 498.006; 570 534.006; 570 496.006; 570 532.006; 570 498.006; 570 534.006; 570 496.006; 570 532.006" keyTimes="0; 0.16129; 0.258065; 0.370968; 0.5; 0.66129; 0.758065; 0.870968; 1" keySplines="0.333 0 0.667 1; 0.333 0 0.667 1; 0.333 0 0.667 1; 0.333 0 0.667 1; 0.333 0 0.667 1; 0.333 0 0.667 1; 0.333 0 0.667 1; 0.333 0 0.667 1" fill="freeze" /><g transform="scale(1,1) translate(-113.75,-92.121)"><g transform="matrix(1,0,0,1,33.5,156.243)" id="i11"><g id="i13" transform="matrix(1,0,0,1,79.757,36.496)"><path fill="#2a2b30" d="M6.432,16.8C6.432,17.904,5.536,18.8,4.432,18.8C4.432,18.8,-4.432,18.8,-4.432,18.8C-5.537,18.8,-6.432,17.904,-6.432,16.8C-6.432,16.8,-6.432,-16.8,-6.432,-16.8C-6.432,-17.905,-5.537,-18.8,-4.432,-18.8C-4.432,-18.8,4.432,-18.8,4.432,-18.8C5.536,-18.8,6.432,-17.905,6.432,-16.8C6.432,-16.8,6.432,16.8,6.432,16.8Z" /></g><g id="i14" transform="matrix(1,0,0,1,79.853,29.675)"><path fill="#7b7b7b" d="M3.457,8.598C3.457,9.703,2.561,10.598,1.457,10.598C1.457,10.598,-1.457,10.598,-1.457,10.598C-2.561,10.598,-3.457,9.703,-3.457,8.598C-3.457,8.598,-3.457,-8.598,-3.457,-8.598C-3.457,-9.702,-2.561,-10.598,-1.457,-10.598C-1.457,-10.598,1.457,-10.598,1.457,-10.598C2.561,-10.598,3.457,-9.702,3.457,-8.598C3.457,-8.598,3.457,8.598,3.457,8.598Z" /></g><g id="i15" transform="matrix(1,0,0,1,41.75,43.75)"><path fill="#564d3b" d="M-0.571,43.5C-0.571,43.5,-0.571,43.5,-0.571,43.5C-22.623,43.5,-40.5,25.623,-40.5,3.572C-40.5,3.572,-40.5,-24.5,-40.5,-24.5C-40.5,-24.5,-38.5,-43.5,-38.5,-43.5C-38.5,-43.5,40.5,-24.5,40.5,-24.5C40.5,-24.5,40.5,2.429,40.5,2.429C40.5,25.112,22.112,43.5,-0.571,43.5Z" /></g><g id="i16" transform="matrix(1,0,0,1,41.25,29.25)"><path fill="#2a2b30" d="M-38,-28C-38,-28,-41,-19,-40,-8C-40,-8,-1,28,41,5C41,5,41,-9,41,-9C41,-9,11,14,-38,-28Z" /></g><g id="i17" transform="matrix(1,0,0,1,59.918,32.846)"><path fill="#bcbcbc" d="M-13.809,-8.083C-13.809,-8.083,-14.177,9.226,-14.177,9.226C-14.177,9.226,5.758,10.69,14.177,5.325C14.177,5.325,13.368,-10.689,13.368,-10.689C13.368,-10.689,2.536,-3.968,-13.809,-8.083Z" /></g><g id="i18" transform="matrix(1,0,0,1,10.25,17.25)"><path fill="#564d3b" d="M-1,-12C-1,-12,6,-8,6,-8C6,-8,2,0,1,12C1,12,-6,8,-6,8C-6,8,-1,-12,-1,-12Z" /></g><g id="i19" transform="matrix(1,0,0,1,41.653,32.134)"><path fill="#564d3b" d="M-2.403,-12.884C-2.403,-12.884,4.597,-11.884,4.597,-11.884C4.597,-11.884,2.471,0.847,2.801,12.884C2.801,12.884,-4.597,9.681,-4.597,9.681C-4.597,9.681,-2.403,-12.884,-2.403,-12.884Z" /></g><g id="i20" transform="matrix(1,0,0,1,77.344,30.25)"><path fill="#564d3b" d="M-3.906,-8.645C-3.906,-8.645,2.906,-10,2.906,-10C2.906,-10,3.906,-5,3.906,10C3.906,10,-2.094,10,-2.094,10C-2.094,10,-3.906,-8.645,-3.906,-8.645Z" /></g></g></g></g></g><g id="i10"><g transform="translate(570,532.006)"><animateTransform repeatCount="indefinite" type="translate" attributeName="transform" dur="2.067s" begin="0s" calcMode="spline" values="570 532.006; 570 498.006; 570 534.006; 570 496.006; 570 532.006; 570 498.006; 570 534.006; 570 496.006; 570 532.006" keyTimes="0; 0.16129; 0.258065; 0.370968; 0.5; 0.66129; 0.758065; 0.870968; 1" keySplines="0.333 0 0.667 1; 0.333 0 0.667 1; 0.333 0 0.667 1; 0.333 0 0.667 1; 0.333 0 0.667 1; 0.333 0 0.667 1; 0.333 0 0.667 1; 0.333 0 0.667 1" fill="freeze" /><g transform="scale(1,1) translate(-113.75,-92.121)"><g transform="matrix(1,0,0,1,33.5,156.243)" id="i11"><g transform="matrix(1,0,0,1,-26.75,3.25)" id="i21"><g id="i4" transform="matrix(1,0,0,1,91,124)"><path d="M-31,-64C-31,-64,31,-44,22,64" stroke-miterlimit="10" stroke-linecap="round" stroke-width="24" stroke="#564d3b"><animate repeatCount="indefinite" attributeName="d" dur="2.067s" begin="0s" calcMode="spline" values="M-31,-64C-31,-64,31,-44,22,64; M-43,-66C-43,-66,-23,-9.5,-50,97; M-47.5,-65.5C-47.5,-65.5,-6,34,-115.5,60; M-35,-67C-35,-67,47.5,19,-46,30; M-31,-64C-31,-64,31,-44,22,64; M-43,-66C-43,-66,-23,-9.5,-50,97; M-47.5,-65.5C-47.5,-65.5,-6,34,-115.5,60; M-35,-67C-35,-67,47.5,19,-46,30; M-31,-64C-31,-64,31,-44,22,64" keyTimes="0; 0.16129; 0.258065; 0.370968; 0.5; 0.66129; 0.758065; 0.870968; 1" keySplines="0.333 0 0.667 1; 0.333 0 0.667 1; 0.333 0 0.667 1; 0.333 0 0.667 1; 0.333 0 0.667 1; 0.333 0 0.667 1; 0.333 0 0.667 1; 0.333 0 0.667 1" fill="freeze" /></path></g></g></g></g></g></g><g id="i10"><g transform="translate(570,532.006)"><animateTransform repeatCount="indefinite" type="translate" attributeName="transform" dur="2.067s" begin="0s" calcMode="spline" values="570 532.006; 570 498.006; 570 534.006; 570 496.006; 570 532.006; 570 498.006; 570 534.006; 570 496.006; 570 532.006" keyTimes="0; 0.16129; 0.258065; 0.370968; 0.5; 0.66129; 0.758065; 0.870968; 1" keySplines="0.333 0 0.667 1; 0.333 0 0.667 1; 0.333 0 0.667 1; 0.333 0 0.667 1; 0.333 0 0.667 1; 0.333 0 0.667 1; 0.333 0 0.667 1; 0.333 0 0.667 1" fill="freeze" /><g transform="scale(1,1) translate(-113.75,-92.121)"><g transform="matrix(1,0,0,1,32.75,-66.507)" id="i22"><g id="i4" transform="matrix(1,0,0,1,189.5,213)"><path d="M-62.438,-85.812C-62.438,-85.812,66.562,-39.812,32.562,90.188" stroke-miterlimit="10" stroke-linecap="round" stroke-width="50" stroke="#f2c4a5"><animate repeatCount="indefinite" attributeName="d" dur="2.067s" begin="0s" calcMode="spline" values="M-62.438,-85.812C-62.438,-85.812,66.562,-39.812,32.562,90.188; M-62.5,-85.812C-62.5,-85.812,56.5,-36.812,9,95.688; M-62.688,-85.75C-62.688,-85.75,58.812,-33.75,5.812,97.75; M-62.5,-85.688C-62.5,-85.688,65.5,-37.688,25.5,91.312; M-62.312,-85.812C-62.312,-85.812,66.688,-39.812,32.688,90.188; M-62.25,-85.75C-62.25,-85.75,56.75,-36.75,9.25,95.75; M-62.25,-86C-62.25,-86,59.25,-34,6.25,97.5; M-62.312,-85.875C-62.312,-85.875,65.688,-37.875,25.688,91.125; M-62.438,-85.812C-62.438,-85.812,66.562,-39.812,32.562,90.188" keyTimes="0; 0.16129; 0.258065; 0.370968; 0.5; 0.66129; 0.758065; 0.870968; 1" keySplines="0.333 0 0.667 1; 0.333 0 0.667 1; 0.333 0 0.667 1; 0.333 0 0.667 1; 0.333 0 0.667 1; 0.333 0 0.667 1; 0.333 0 0.667 1; 0.333 0 0.667 1" fill="freeze" /></path></g></g></g></g></g><g id="i10"><g transform="translate(570,532.006)"><animateTransform repeatCount="indefinite" type="translate" attributeName="transform" dur="2.067s" begin="0s" calcMode="spline" values="570 532.006; 570 498.006; 570 534.006; 570 496.006; 570 532.006; 570 498.006; 570 534.006; 570 496.006; 570 532.006" keyTimes="0; 0.16129; 0.258065; 0.370968; 0.5; 0.66129; 0.758065; 0.870968; 1" keySplines="0.333 0 0.667 1; 0.333 0 0.667 1; 0.333 0 0.667 1; 0.333 0 0.667 1; 0.333 0 0.667 1; 0.333 0 0.667 1; 0.333 0 0.667 1; 0.333 0 0.667 1" fill="freeze" /><g transform="scale(1,1) translate(-113.75,-92.121)"><g transform="matrix(1,0,0,1,20.25,-79.007)" id="i23"><g id="i4" transform="matrix(1,0,0,1,177.5,169)"><path d="M-40,-31.5C-40,-31.5,5,-19.5,40,31.5" stroke-miterlimit="10" stroke-width="55" stroke="#b8a48d"><animate repeatCount="indefinite" attributeName="d" dur="2.067s" begin="0s" calcMode="spline" values="M-40,-31.5C-40,-31.5,5,-19.5,40,31.5; M-40,-31.5C-40,-31.5,-1,-16.045,33,39; M-40,-31.5C-40,-31.5,0,-17.377,32.038,39; M-40,-31.5C-40,-31.5,1.5,-23.877,38.5,32.5; M-40,-31.5C-40,-31.5,0,-24.377,41,32; M-40,-31.5C-40,-31.5,6,-15.377,36,46; M-40,-31.5C-40,-31.5,2.5,-18.877,34.385,43.077; M-40,-31.5C-40,-31.5,1.5,-22.877,41,38; M-40,-31.5C-40,-31.5,5,-19.5,40,31.5" keyTimes="0; 0.16129; 0.258065; 0.370968; 0.5; 0.66129; 0.758065; 0.870968; 1" keySplines="0.333 0 0.667 1; 0.333 0 0.667 1; 0.333 0 0.667 1; 0.333 0 0.667 1; 0.333 0 0.667 1; 0.333 0 0.667 1; 0.333 0 0.667 1; 0.333 0 0.667 1" fill="freeze" /></path></g></g></g></g></g><g mask="url(#i2)" id="i10"><g transform="translate(570,532.006)"><animateTransform repeatCount="indefinite" type="translate" attributeName="transform" dur="2.067s" begin="0s" calcMode="spline" values="570 532.006; 570 498.006; 570 534.006; 570 496.006; 570 532.006; 570 498.006; 570 534.006; 570 496.006; 570 532.006" keyTimes="0; 0.16129; 0.258065; 0.370968; 0.5; 0.66129; 0.758065; 0.870968; 1" keySplines="0.333 0 0.667 1; 0.333 0 0.667 1; 0.333 0 0.667 1; 0.333 0 0.667 1; 0.333 0 0.667 1; 0.333 0 0.667 1; 0.333 0 0.667 1; 0.333 0 0.667 1" fill="freeze" /><g transform="scale(1,1) translate(-113.75,-92.121)"><g transform="matrix(1,0,0,1,20.25,-79.007)" id="i23"><g transform="matrix(1,0,0,1,179.25,130.448)" id="i24"><g id="i25" transform="matrix(1,0,0,1,22.732,21.762)"><path fill="#564d3b" d="M10.447,-11.527C19.677,-3.162,22.483,8.78,16.714,15.146C10.947,21.512,-1.214,19.892,-10.445,11.528C-19.676,3.162,-22.482,-8.78,-16.714,-15.145C-10.946,-21.512,1.214,-19.892,10.447,-11.527Z" /></g><g id="i4" transform="matrix(1,0,0,1,22.733,21.762)"><path fill="#f3d247" d="M8.651,-9.546C16.296,-2.619,18.62,7.271,13.843,12.544C9.066,17.815,-1.005,16.475,-8.65,9.547C-16.296,2.619,-18.62,-7.272,-13.843,-12.544C-9.066,-17.816,1.005,-16.476,8.651,-9.546Z" /></g></g></g></g></g></g><g display="none" id="i10"><g transform="translate(570,532.006)"><animateTransform repeatCount="indefinite" type="translate" attributeName="transform" dur="2.067s" begin="0s" calcMode="spline" values="570 532.006; 570 498.006; 570 534.006; 570 496.006; 570 532.006; 570 498.006; 570 534.006; 570 496.006; 570 532.006" keyTimes="0; 0.16129; 0.258065; 0.370968; 0.5; 0.66129; 0.758065; 0.870968; 1" keySplines="0.333 0 0.667 1; 0.333 0 0.667 1; 0.333 0 0.667 1; 0.333 0 0.667 1; 0.333 0 0.667 1; 0.333 0 0.667 1; 0.333 0 0.667 1; 0.333 0 0.667 1" fill="freeze" /><g transform="scale(1,1) translate(-113.75,-92.121)"><g transform="matrix(1,0,0,1,20.25,-79.007)" id="i3"><g id="i4" transform="matrix(1,0,0,1,177.5,169)"><path d="M-40,-31.5C-40,-31.5,5,-19.5,40,31.5" stroke-miterlimit="10" stroke-width="55" stroke="#b8a48d"><animate repeatCount="indefinite" attributeName="d" dur="2.067s" begin="0s" calcMode="spline" values="M-40,-31.5C-40,-31.5,5,-19.5,40,31.5; M-40,-31.5C-40,-31.5,-1,-16.045,33,39; M-40,-31.5C-40,-31.5,0,-17.377,32.038,39; M-40,-31.5C-40,-31.5,1.5,-23.877,38.5,32.5; M-40,-31.5C-40,-31.5,0,-24.377,41,32; M-40,-31.5C-40,-31.5,6,-15.377,36,46; M-40,-31.5C-40,-31.5,2.5,-18.877,34.385,43.077; M-40,-31.5C-40,-31.5,1.5,-22.877,41,38; M-40,-31.5C-40,-31.5,5,-19.5,40,31.5" keyTimes="0; 0.16129; 0.258065; 0.370968; 0.5; 0.66129; 0.758065; 0.870968; 1" keySplines="0.333 0 0.667 1; 0.333 0 0.667 1; 0.333 0 0.667 1; 0.333 0 0.667 1; 0.333 0 0.667 1; 0.333 0 0.667 1; 0.333 0 0.667 1; 0.333 0 0.667 1" fill="freeze" /></path></g></g></g></g></g><g id="i10"><g transform="translate(570,532.006)"><animateTransform repeatCount="indefinite" type="translate" attributeName="transform" dur="2.067s" begin="0s" calcMode="spline" values="570 532.006; 570 498.006; 570 534.006; 570 496.006; 570 532.006; 570 498.006; 570 534.006; 570 496.006; 570 532.006" keyTimes="0; 0.16129; 0.258065; 0.370968; 0.5; 0.66129; 0.758065; 0.870968; 1" keySplines="0.333 0 0.667 1; 0.333 0 0.667 1; 0.333 0 0.667 1; 0.333 0 0.667 1; 0.333 0 0.667 1; 0.333 0 0.667 1; 0.333 0 0.667 1; 0.333 0 0.667 1" fill="freeze" /><g transform="scale(1,1) translate(-113.75,-92.121)"><g transform="matrix(1,0,0,1,-249.25,-74.007)" id="i26"><g id="i4" transform="matrix(1,0,0,1,216.75,210.75)"><path d="M93.75,-87.75C93.75,-87.75,-89.75,-78.25,-59.75,83.75" stroke-miterlimit="10" stroke-linecap="round" stroke-width="50" stroke="#f2c4a5"><animate repeatCount="indefinite" attributeName="d" dur="2.067s" begin="0s" calcMode="spline" values="M93.75,-87.75C93.75,-87.75,-89.75,-78.25,-59.75,83.75; M93.5,-87.375C93.5,-87.375,-89.75,-74.75,-37.75,92.75; M93.5,-87.5C93.5,-87.5,-81,-66,-22,104.5; M93.75,-87.625C93.75,-87.625,-89.25,-71.125,-44.75,91.875; M93.375,-87.312C93.375,-87.312,-90.125,-77.812,-60.125,84.188; M93.5,-87.25C93.5,-87.25,-83,-67.25,-31,100.25; M93.562,-87.562C93.562,-87.562,-80.938,-66.062,-21.938,104.438; M93.625,-87.25C93.625,-87.25,-89.375,-70.75,-44.875,92.25; M93.75,-87.75C93.75,-87.75,-89.75,-78.25,-59.75,83.75" keyTimes="0; 0.16129; 0.258065; 0.370968; 0.5; 0.66129; 0.758065; 0.870968; 1" keySplines="0.333 0 0.667 1; 0.333 0 0.667 1; 0.333 0 0.667 1; 0.333 0 0.667 1; 0.333 0 0.667 1; 0.333 0 0.667 1; 0.333 0 0.667 1; 0.333 0 0.667 1" fill="freeze" /></path></g></g></g></g></g><g id="i10"><g transform="translate(570,532.006)"><animateTransform repeatCount="indefinite" type="translate" attributeName="transform" dur="2.067s" begin="0s" calcMode="spline" values="570 532.006; 570 498.006; 570 534.006; 570 496.006; 570 532.006; 570 498.006; 570 534.006; 570 496.006; 570 532.006" keyTimes="0; 0.16129; 0.258065; 0.370968; 0.5; 0.66129; 0.758065; 0.870968; 1" keySplines="0.333 0 0.667 1; 0.333 0 0.667 1; 0.333 0 0.667 1; 0.333 0 0.667 1; 0.333 0 0.667 1; 0.333 0 0.667 1; 0.333 0 0.667 1; 0.333 0 0.667 1" fill="freeze" /><g transform="scale(1,1) translate(-113.75,-92.121)"><g transform="matrix(1,0,0,1,-198.75,-86.507)" id="i27"><g id="i4" transform="matrix(1,0,0,1,197.75,161.75)"><path d="M60.25,-24.25C60.25,-24.25,-13.75,-20.25,-60.25,24.25" stroke-miterlimit="10" stroke-width="55" stroke="#cebc9e"><animate repeatCount="indefinite" attributeName="d" dur="2.067s" begin="0s" calcMode="spline" values="M60.25,-24.25C60.25,-24.25,-13.75,-20.25,-60.25,24.25; M60.25,-24.25C60.25,-24.25,-12.25,-24.127,-57.25,30.25; M60.25,-24.25C60.25,-24.25,-2.25,-21.127,-47.25,37.25; M60.25,-24.25C60.25,-24.25,-15.25,-18.627,-62.75,38.75; M60.25,-24.25C60.25,-24.25,-19.25,-26.627,-66.75,30.75; M60.25,-24.25C60.25,-24.25,-3.25,-21.627,-52.25,37.75; M60.25,-24.25C60.25,-24.25,-0.25,-26.127,-48.75,38.25; M60.25,-24.25C60.25,-24.25,-9.25,-23.627,-60.75,34.25; M60.25,-24.25C60.25,-24.25,-13.75,-20.25,-60.25,24.25" keyTimes="0; 0.16129; 0.258065; 0.370968; 0.5; 0.66129; 0.758065; 0.870968; 1" keySplines="0.333 0 0.667 1; 0.333 0 0.667 1; 0.333 0 0.667 1; 0.333 0 0.667 1; 0.333 0 0.667 1; 0.333 0 0.667 1; 0.333 0 0.667 1; 0.333 0 0.667 1" fill="freeze" /></path></g></g></g></g></g><g mask="url(#i6)" id="i10"><g transform="translate(570,532.006)"><animateTransform repeatCount="indefinite" type="translate" attributeName="transform" dur="2.067s" begin="0s" calcMode="spline" values="570 532.006; 570 498.006; 570 534.006; 570 496.006; 570 532.006; 570 498.006; 570 534.006; 570 496.006; 570 532.006" keyTimes="0; 0.16129; 0.258065; 0.370968; 0.5; 0.66129; 0.758065; 0.870968; 1" keySplines="0.333 0 0.667 1; 0.333 0 0.667 1; 0.333 0 0.667 1; 0.333 0 0.667 1; 0.333 0 0.667 1; 0.333 0 0.667 1; 0.333 0 0.667 1; 0.333 0 0.667 1" fill="freeze" /><g transform="scale(1,1) translate(-113.75,-92.121)"><g transform="matrix(1,0,0,1,-198.75,-86.507)" id="i27"><g transform="matrix(1,0,0,1,142.327,124.533)" id="i28"><g id="i25" transform="matrix(1,0,0,1,22.549,20.794)"><path fill="#564d3b" d="M9.714,14.102C0.362,20.544,-11.571,19.452,-16.935,11.664C-22.3,3.877,-19.066,-7.659,-9.714,-14.101C-0.361,-20.544,11.57,-19.454,16.934,-11.666C22.299,-3.878,19.067,7.659,9.714,14.102Z" /></g><g id="i4" transform="matrix(1,0,0,1,22.55,20.794)"><path fill="#f3d247" d="M8.045,11.679C0.299,17.014,-9.582,16.111,-14.025,9.66C-18.468,3.211,-15.791,-6.343,-8.046,-11.678C-0.299,-17.014,9.582,-16.111,14.025,-9.661C18.468,-3.211,15.792,6.343,8.045,11.679Z" /></g></g></g></g></g></g><g display="none" id="i10"><g transform="translate(570,532.006)"><animateTransform repeatCount="indefinite" type="translate" attributeName="transform" dur="2.067s" begin="0s" calcMode="spline" values="570 532.006; 570 498.006; 570 534.006; 570 496.006; 570 532.006; 570 498.006; 570 534.006; 570 496.006; 570 532.006" keyTimes="0; 0.16129; 0.258065; 0.370968; 0.5; 0.66129; 0.758065; 0.870968; 1" keySplines="0.333 0 0.667 1; 0.333 0 0.667 1; 0.333 0 0.667 1; 0.333 0 0.667 1; 0.333 0 0.667 1; 0.333 0 0.667 1; 0.333 0 0.667 1; 0.333 0 0.667 1" fill="freeze" /><g transform="scale(1,1) translate(-113.75,-92.121)"><g transform="matrix(1,0,0,1,-198.75,-86.507)" id="i7"><g id="i4" transform="matrix(1,0,0,1,197.75,161.75)"><path d="M60.25,-24.25C60.25,-24.25,-13.75,-20.25,-60.25,24.25" stroke-miterlimit="10" stroke-width="55" stroke="#cebc9e"><animate repeatCount="indefinite" attributeName="d" dur="2.067s" begin="0s" calcMode="spline" values="M60.25,-24.25C60.25,-24.25,-13.75,-20.25,-60.25,24.25; M60.25,-24.25C60.25,-24.25,-12.25,-24.127,-57.25,30.25; M60.25,-24.25C60.25,-24.25,-2.25,-21.127,-47.25,37.25; M60.25,-24.25C60.25,-24.25,-15.25,-18.627,-62.75,38.75; M60.25,-24.25C60.25,-24.25,-19.25,-26.627,-66.75,30.75; M60.25,-24.25C60.25,-24.25,-3.25,-21.627,-52.25,37.75; M60.25,-24.25C60.25,-24.25,-0.25,-26.127,-48.75,38.25; M60.25,-24.25C60.25,-24.25,-9.25,-23.627,-60.75,34.25; M60.25,-24.25C60.25,-24.25,-13.75,-20.25,-60.25,24.25" keyTimes="0; 0.16129; 0.258065; 0.370968; 0.5; 0.66129; 0.758065; 0.870968; 1" keySplines="0.333 0 0.667 1; 0.333 0 0.667 1; 0.333 0 0.667 1; 0.333 0 0.667 1; 0.333 0 0.667 1; 0.333 0 0.667 1; 0.333 0 0.667 1; 0.333 0 0.667 1" fill="freeze" /></path></g></g></g></g></g><g id="i10"><g transform="translate(570,532.006)"><animateTransform repeatCount="indefinite" type="translate" attributeName="transform" dur="2.067s" begin="0s" calcMode="spline" values="570 532.006; 570 498.006; 570 534.006; 570 496.006; 570 532.006; 570 498.006; 570 534.006; 570 496.006; 570 532.006" keyTimes="0; 0.16129; 0.258065; 0.370968; 0.5; 0.66129; 0.758065; 0.870968; 1" keySplines="0.333 0 0.667 1; 0.333 0 0.667 1; 0.333 0 0.667 1; 0.333 0 0.667 1; 0.333 0 0.667 1; 0.333 0 0.667 1; 0.333 0 0.667 1; 0.333 0 0.667 1" fill="freeze" /><g transform="scale(1,1) translate(-113.75,-92.121)"><g id="i16" transform="matrix(1,0,0,1,113.75,95.998)"><path fill="#cebc9e" d="M71.5,8.994C68.5,14.994,64.5,25.994,51.5,34.994C42.56,41.184,37.155,52.94,25.5,62.994C19.799,67.911,13.194,72.732,7.5,76.994C-2.856,84.747,-9.706,87.994,-20.5,87.994C-33.5,87.994,-45.674,83.884,-56.5,76.994C-78.5,62.994,-113.5,31.994,-113.5,3.994C-113.5,-43.226,-113.5,-83.006,-22.5,-85.006C113.5,-87.995,71.5,8.994,71.5,8.994Z" /></g><g id="i17" transform="matrix(1,0,0,1,155.188,97.499)"><path fill="#d0e9f4" d="M-0.55,11.293C-0.55,11.293,-1.035,7.801,-6.622,6.267C-13.595,4.353,-1.971,-3.962,-8.25,-8.306C-5.968,-10.709,-5.339,-11.293,-5.339,-11.293C-2.719,-7.511,0.983,-8.008,3.474,-10.137C5.509,-6.922,7.042,-5.492,10.174,-8.767C11.528,-7.852,12.787,-6.211,13.596,-4.877C10.718,-3.535,9.141,-2.758,8.487,0.35C7.96,2.492,9.029,5.58,7.81,7.384C5.98,10.092,2.787,8.2,0.633,9.638C-0.702,10.444,-0.55,11.293,-0.55,11.293Z" /></g><g id="i18" transform="matrix(1,0,0,1,83.3,85.96)"><path fill="#564d3b" d="M13.557,5.628C13.557,5.628,-14.673,-0.415,-14.673,-0.415C-14.673,-0.415,-13.557,-5.628,-13.557,-5.628C-13.557,-5.628,14.673,0.416,14.673,0.416C14.673,0.416,13.557,5.628,13.557,5.628Z" /></g><g id="i19" transform="matrix(1,0,0,1,116.403,121.132)"><path fill="#a0907b" d="M-16.402,62.04C-14.716,59.877,-12.776,57.926,-10.97,55.875C-4.218,48.675,-5.045,41.953,-6.516,32.958C-7.523,27.398,-5.998,21.783,-3.394,16.885C-0.785,12.095,1.615,7.218,2.316,1.738C3.636,-6.324,2.912,-14.716,4.463,-22.81C6.082,-30.912,10.042,-38.334,12.684,-46.091C14.582,-51.23,15.683,-56.619,16.402,-62.04C15.897,-56.578,14.903,-51.141,13.148,-45.934C10.62,-38.136,6.89,-30.705,5.312,-22.652C3.812,-14.538,4.6,-6.291,3.302,1.898C2.566,7.431,0.089,12.474,-2.583,17.293C-5.163,22.092,-6.623,27.426,-5.755,32.871C-3.285,48.951,-5.752,50.818,-16.402,62.04Z" /></g><g id="i20" transform="matrix(1,0,0,1,135.985,66.105)"><path fill="#a0907b" d="M1.469,0.489C1.036,1.788,0.028,2.623,-0.783,2.353C-1.594,2.083,-1.902,0.811,-1.469,-0.488C-1.036,-1.788,-0.027,-2.624,0.784,-2.353C1.595,-2.083,1.902,-0.811,1.469,0.489Z" /></g><g id="i29" transform="matrix(1,0,0,1,124.535,113.799)"><path fill="#a0907b" d="M1.469,0.489C1.036,1.788,0.028,2.623,-0.783,2.353C-1.594,2.083,-1.902,0.811,-1.469,-0.488C-1.036,-1.788,-0.027,-2.624,0.784,-2.353C1.595,-2.083,1.902,-0.811,1.469,0.489Z" /></g><g id="i25" transform="matrix(1,0,0,1,113.294,172.401)"><path fill="#a0907b" d="M1.469,0.489C1.036,1.788,0.028,2.624,-0.783,2.354C-1.594,2.084,-1.902,0.81,-1.469,-0.489C-1.036,-1.789,-0.027,-2.623,0.784,-2.352C1.595,-2.082,1.902,-0.811,1.469,0.489Z" /></g><g id="i4" transform="matrix(1,0,0,1,125.71,31.814)"><path fill="#b8a48d" d="M6.285,31.564C-0.139,26.536,-9.357,25.421,-16.898,21.789C-13.827,19.555,-10.474,15.642,-8.519,13.129C-4.889,8.1,-11.034,8.381,-14.664,8.381C-23.604,8.381,-33.1,9.497,-42.039,8.939C-39.804,1.116,-37.011,-7.263,-35.613,-15.642C-35.056,-18.156,-36.173,-24.302,-34.217,-25.978C-32.543,-27.654,-25.559,-27.933,-23.324,-28.492C-8.798,-31.564,4.609,-28.492,18.856,-26.257C22.207,-25.698,25.839,-25.699,29.19,-24.861C30.586,-24.303,32.822,-23.744,34.22,-22.905C36.455,-21.229,36.174,-21.229,36.174,-18.156C36.454,-9.218,38.967,-1.676,42.039,6.704C34.777,7.262,27.236,4.75,20.252,6.146C19.414,9.219,28.352,15.643,30.867,16.202C30.867,16.202,6.285,31.564,6.285,31.564Z" /></g><g id="i13" transform="matrix(1,0,0,1,57.655,181.655)"><path fill="#2a2b30" d="M4.916,11.574C4.631,12.641,3.535,13.275,2.468,12.99C2.468,12.99,-8.618,10.028,-8.618,10.028C-9.685,9.743,-10.319,8.647,-10.034,7.58C-10.034,7.58,-4.917,-11.575,-4.917,-11.575C-4.632,-12.642,-3.535,-13.275,-2.468,-12.99C-2.468,-12.99,8.618,-10.029,8.618,-10.029C9.685,-9.744,10.319,-8.647,10.034,-7.58C10.034,-7.58,4.916,11.574,4.916,11.574Z" /></g><g id="i14" transform="matrix(1,0,0,1,59.495,174.764)"><path fill="#4a4c50" d="M6.449,5.839C6.335,6.267,5.376,6.383,4.309,6.098C4.309,6.098,-6.776,3.137,-6.776,3.137C-7.843,2.852,-8.616,2.274,-8.501,1.846C-8.501,1.846,-6.448,-5.839,-6.448,-5.839C-6.334,-6.267,-5.377,-6.383,-4.31,-6.098C-4.31,-6.098,6.776,-3.136,6.776,-3.136C7.843,-2.851,8.616,-2.274,8.501,-1.846C8.501,-1.846,6.449,5.839,6.449,5.839Z" /></g><g id="i15" transform="matrix(1,0,0,1,58.261,179.381)"><path fill="#bcbcbc" d="M-1.929,-0.516C-1.644,-1.582,-0.55,-2.214,0.516,-1.929C1.581,-1.645,2.214,-0.55,1.93,0.515C1.645,1.581,0.55,2.214,-0.516,1.93C-1.581,1.645,-2.214,0.55,-1.929,-0.516Z" /></g></g></g></g><g id="i10"><g transform="translate(570,532.006)"><animateTransform repeatCount="indefinite" type="translate" attributeName="transform" dur="2.067s" begin="0s" calcMode="spline" values="570 532.006; 570 498.006; 570 534.006; 570 496.006; 570 532.006; 570 498.006; 570 534.006; 570 496.006; 570 532.006" keyTimes="0; 0.16129; 0.258065; 0.370968; 0.5; 0.66129; 0.758065; 0.870968; 1" keySplines="0.333 0 0.667 1; 0.333 0 0.667 1; 0.333 0 0.667 1; 0.333 0 0.667 1; 0.333 0 0.667 1; 0.333 0 0.667 1; 0.333 0 0.667 1; 0.333 0 0.667 1" fill="freeze" /><g transform="scale(1,1) translate(-113.75,-92.121)"><g transform="matrix(1,0,0,1,102.543,-3.239)" id="i30"><g id="i25" transform="matrix(1,0,0,1,26.023,21.167)"><path fill="#f2c4a5" d="M-25.677,8.477C-25.735,9.655,-25.773,10.896,-25.008,11.971C-24.051,13.315,-22.054,14.101,-20.134,14.682C-8.443,18.222,4.459,17.431,16.749,16.578C17.785,16.506,18.878,16.42,19.683,15.968C20.596,15.455,20.949,14.583,21.242,13.762C23.41,7.678,24.844,1.429,25.524,-4.893C25.668,-6.226,25.773,-7.596,25.244,-8.906C23.601,-12.978,16.919,-14.715,11.207,-15.57C2.986,-16.799,-5.328,-17.584,-13.641,-17.917C-21.238,-18.221,-24.715,-16.643,-24.796,-11.383C-24.898,-4.756,-25.354,1.861,-25.677,8.477Z" /></g><g id="i4" transform="matrix(1,0,0,1,26.537,18.218)"><path fill="#dda58e" d="M-25.608,-6.301C-25.574,-5.494,-25.539,-4.676,-25.258,-3.901C-24.455,-1.685,-21.898,-0.326,-19.533,0.805C-6.229,7.163,7.465,12.896,21.464,17.968C23.136,11.305,24.543,4.587,25.683,-2.17C25.826,-3.023,25.96,-3.92,25.596,-4.733C25.285,-5.428,24.645,-5.977,24.001,-6.48C15.352,-13.231,3.328,-15.509,-8.144,-16.709C-12.976,-17.215,-18.798,-17.968,-23.517,-16.762C-25.96,-16.137,-25.841,-15,-25.876,-12.802C-25.911,-10.646,-25.697,-8.459,-25.608,-6.301Z" /></g></g></g></g></g><g id="i10"><g transform="translate(570,532.006)"><animateTransform repeatCount="indefinite" type="translate" attributeName="transform" dur="2.067s" begin="0s" calcMode="spline" values="570 532.006; 570 498.006; 570 534.006; 570 496.006; 570 532.006; 570 498.006; 570 534.006; 570 496.006; 570 532.006" keyTimes="0; 0.16129; 0.258065; 0.370968; 0.5; 0.66129; 0.758065; 0.870968; 1" keySplines="0.333 0 0.667 1; 0.333 0 0.667 1; 0.333 0 0.667 1; 0.333 0 0.667 1; 0.333 0 0.667 1; 0.333 0 0.667 1; 0.333 0 0.667 1; 0.333 0 0.667 1" fill="freeze" /><g transform="scale(1,1) translate(-113.75,-92.121)"><g transform="matrix(1,0,0,1,102.543,-3.239)" id="i30"><g transform="matrix(1,0,0,1,-17.531,12.963)" id="i31"><g id="i25" transform="matrix(1,0,0,1,24.966,23.505)"><path fill="#b8a48d" d="M24.169,0.383C24.469,0.353,24.716,0.601,24.665,0.899C23.57,7.377,20.6,23.255,15.591,23.007C15.323,22.993,19.937,13.454,9.772,8.264C8.094,7.407,8.415,7.177,6.772,6.264C0.883,2.99,-18.335,4.528,-21.228,1.264C-24.717,-2.673,-18.135,-9.12,-20.228,-13.736C-20.327,-13.955,-19.435,-14.615,-19.228,-14.736C-15.978,-16.653,-21.608,-17.028,-18.228,-19.736C-17.234,-20.533,-18.211,-23.255,-16.891,-23.08C-15.931,-22.952,-13.649,-20.439,-13.146,-19.538C-8.227,-10.736,-1.011,-6.476,7.772,-3.736C9.247,-3.276,20.385,0.761,24.169,0.383Z" /></g><g id="i4" transform="matrix(1,0,0,1,63.094,28.858)"><path fill="#b8a48d" d="M-5.655,15.255C-5.444,15.643,-4.962,15.785,-4.556,15.612C-2.193,14.604,0.207,12.511,2.502,10.062C2.645,9.911,-10.293,0.696,-8.355,-1.089C-6.173,-3.101,9.498,-0.399,14.431,-0.093C15.039,-0.055,15.486,-0.65,15.303,-1.232C12.902,-8.88,10.605,-8.323,7.495,-15.095C7.198,-15.742,6.299,-15.785,5.949,-15.165C4.679,-12.915,2.129,-9.574,1.645,-9.089C-0.31,-7.135,-3.219,-5.181,-12.681,-5.093C-13.076,-5.089,-13.427,-4.827,-13.524,-4.444C-14.038,-2.397,-15.486,3.989,-14.355,6.911C-12.938,10.573,-7.503,11.857,-5.655,15.255Z" /></g></g></g></g></g></g><g id="i10"><g transform="translate(570,532.006)"><animateTransform repeatCount="indefinite" type="translate" attributeName="transform" dur="2.067s" begin="0s" calcMode="spline" values="570 532.006; 570 498.006; 570 534.006; 570 496.006; 570 532.006; 570 498.006; 570 534.006; 570 496.006; 570 532.006" keyTimes="0; 0.16129; 0.258065; 0.370968; 0.5; 0.66129; 0.758065; 0.870968; 1" keySplines="0.333 0 0.667 1; 0.333 0 0.667 1; 0.333 0 0.667 1; 0.333 0 0.667 1; 0.333 0 0.667 1; 0.333 0 0.667 1; 0.333 0 0.667 1; 0.333 0 0.667 1" fill="freeze" /><g transform="scale(1,1) translate(-113.75,-92.121)"><g transform="matrix(1,0,0,1,124.75,24.052)" id="i32"><g id="i16" transform="matrix(1,0,0,1,22.594,93.262)"><path d="M-20.094,51.678C1.906,47.678,12.243,24.32,14.906,5.678C15.906,-1.322,20.095,-9.189,14.906,-40.322C13.906,-46.322,14.268,-46.589,15.964,-51.678" stroke-linejoin="round" stroke-linecap="round" stroke-width="1" stroke="#2a2b30"><animate repeatCount="indefinite" attributeName="d" dur="2.067s" begin="0s" calcMode="spline" values="M-20.094,51.678C1.906,47.678,12.243,24.32,14.906,5.678C15.906,-1.322,20.095,-9.189,14.906,-40.322C13.906,-46.322,14.268,-46.589,15.964,-51.678; M-20.094,51.678C1.906,47.678,16.305,34.946,18.968,16.304C19.968,9.304,20.095,-9.189,14.906,-40.322C13.906,-46.322,14.268,-46.589,15.964,-51.678; M-20.094,51.678C1.906,47.678,15.743,39.321,18.406,20.679C19.406,13.679,20.095,-9.189,14.906,-40.322C13.906,-46.322,14.268,-46.589,15.964,-51.678; M-20.094,51.678C1.906,47.678,12.109,32.321,14.772,13.679C15.772,6.679,20.095,-9.189,14.906,-40.322C13.906,-46.322,14.268,-46.589,15.964,-51.678; M-20.094,51.678C1.906,47.678,12.243,24.32,14.906,5.678C15.906,-1.322,20.095,-9.189,14.906,-40.322C13.906,-46.322,14.268,-46.589,15.964,-51.678; M-20.094,51.678C1.906,47.678,16.305,34.946,18.968,16.304C19.968,9.304,20.095,-9.189,14.906,-40.322C13.906,-46.322,14.268,-46.589,15.964,-51.678; M-20.094,51.678C1.906,47.678,15.743,39.321,18.406,20.679C19.406,13.679,20.095,-9.189,14.906,-40.322C13.906,-46.322,14.268,-46.589,15.964,-51.678; M-20.094,51.678C1.906,47.678,12.109,32.321,14.772,13.679C15.772,6.679,20.095,-9.189,14.906,-40.322C13.906,-46.322,14.268,-46.589,15.964,-51.678; M-20.094,51.678C1.906,47.678,12.243,24.32,14.906,5.678C15.906,-1.322,20.095,-9.189,14.906,-40.322C13.906,-46.322,14.268,-46.589,15.964,-51.678" keyTimes="0; 0.16129; 0.258065; 0.370968; 0.5; 0.66129; 0.758065; 0.870968; 1" keySplines="0.333 0 0.667 1; 0.333 0 0.667 1; 0.333 0 0.667 1; 0.333 0 0.667 1; 0.333 0 0.667 1; 0.333 0 0.667 1; 0.333 0 0.667 1; 0.333 0 0.667 1" fill="freeze" /></path></g><g id="i17" transform="matrix(1,0,0,1,40.614,23.593)"><path fill="#2a2b30" d="M8.801,18.847C8.208,21.594,5.501,23.342,2.755,22.75C2.755,22.75,-11.878,19.597,-11.878,19.597C-14.625,19.006,-16.372,16.299,-15.779,13.551C-15.779,13.551,-8.8,-18.848,-8.8,-18.848C-8.208,-21.595,-5.502,-23.343,-2.755,-22.752C-2.755,-22.752,11.878,-19.599,11.878,-19.599C14.625,-19.007,16.372,-16.3,15.779,-13.553C15.779,-13.553,8.801,18.847,8.801,18.847Z" /></g><g id="i18" transform="matrix(1,0,0,1,39.758,27.566)"><path fill="#4a4c50" d="M9.455,15.808C8.974,18.039,6.357,19.368,3.61,18.777C3.61,18.777,-11.022,15.624,-11.022,15.624C-13.769,15.033,-15.606,12.743,-15.125,10.512C-15.125,10.512,-9.455,-15.809,-9.455,-15.809C-8.975,-18.039,-6.357,-19.369,-3.61,-18.777C-3.61,-18.777,11.022,-15.625,11.022,-15.625C13.768,-15.034,15.606,-12.744,15.125,-10.513C15.125,-10.513,9.455,15.808,9.455,15.808Z" /></g><g id="i19" transform="matrix(1,0,0,1,34.631,27.207)"><path stroke-linejoin="round" stroke-linecap="round" stroke-width="0.6" stroke="#2a2b30" d="M1.426,-6.618C1.426,-6.618,-1.426,6.618,-1.426,6.618" /></g><g id="i20" transform="matrix(1,0,0,1,37.118,27.742)"><path stroke-linejoin="round" stroke-linecap="round" stroke-width="0.6" stroke="#2a2b30" d="M1.426,-6.618C1.426,-6.618,-1.426,6.618,-1.426,6.618" /></g><g id="i29" transform="matrix(1,0,0,1,39.605,28.278)"><path stroke-linejoin="round" stroke-linecap="round" stroke-width="0.6" stroke="#2a2b30" d="M1.426,-6.617C1.426,-6.617,-1.426,6.617,-1.426,6.617" /></g><g id="i25" transform="matrix(1,0,0,1,42.092,28.814)"><path stroke-linejoin="round" stroke-linecap="round" stroke-width="0.6" stroke="#2a2b30" d="M1.426,-6.618C1.426,-6.618,-1.426,6.618,-1.426,6.618" /></g><g id="i4" transform="matrix(1,0,0,1,44.579,29.35)"><path stroke-linejoin="round" stroke-linecap="round" stroke-width="0.6" stroke="#2a2b30" d="M1.426,-6.618C1.426,-6.618,-1.426,6.618,-1.426,6.618" /></g></g></g></g></g><g id="i10"><g transform="translate(570,532.006)"><animateTransform repeatCount="indefinite" type="translate" attributeName="transform" dur="2.067s" begin="0s" calcMode="spline" values="570 532.006; 570 498.006; 570 534.006; 570 496.006; 570 532.006; 570 498.006; 570 534.006; 570 496.006; 570 532.006" keyTimes="0; 0.16129; 0.258065; 0.370968; 0.5; 0.66129; 0.758065; 0.870968; 1" keySplines="0.333 0 0.667 1; 0.333 0 0.667 1; 0.333 0 0.667 1; 0.333 0 0.667 1; 0.333 0 0.667 1; 0.333 0 0.667 1; 0.333 0 0.667 1; 0.333 0 0.667 1" fill="freeze" /><g transform="scale(1,1) translate(-113.75,-92.121)"><g transform="matrix(1,0,0,1,33.5,156.243)" id="i11"><g id="i33"><g transform="translate(20.278,19.257)"><g transform="rotate(0)"><animateTransform repeatCount="indefinite" type="rotate" attributeName="transform" dur="2.067s" begin="0s" calcMode="spline" values="0; -11; 17; -11; 0; -11; 17; -11; 0" keyTimes="0; 0.16129; 0.258065; 0.370968; 0.5; 0.66129; 0.758065; 0.870968; 1" keySplines="0.333 0 0.667 1; 0.333 0 0.667 1; 0.333 0 0.667 1; 0.333 0 0.667 1; 0.333 0 0.667 1; 0.333 0 0.667 1; 0.333 0 0.667 1; 0.333 0 0.667 1" fill="freeze" /><g transform="scale(1,1) translate(-35.683,-26.484)"><g id="i20" transform="matrix(1,0,0,1,25.683,42.984)"><path fill="#33333d" d="M17.715,-38.671C3.974,-14.295,-9.767,10.082,-23.507,34.458C-24.456,36.142,-25.433,38.12,-24.733,39.922C-23.867,42.152,-20.753,42.735,-18.599,41.695C-16.445,40.654,-15.055,38.53,-13.817,36.483C-3.852,20.02,3.448,2.074,13.113,-14.566C15.998,-19.533,19.091,-24.378,22.382,-29.086C23.739,-31.027,25.183,-33.095,25.278,-35.461C25.433,-39.33,20.006,-42.735,17.715,-38.671Z" /></g><g id="i29" transform="matrix(1,0,0,1,23.502,24.094)"><path fill="#33333d" d="M-8.144,-5.051C-8.925,-5.68,-9.726,-6.334,-10.197,-7.219C-10.669,-8.104,-10.728,-9.287,-10.067,-10.042C-9.463,-10.732,-8.411,-10.884,-7.527,-10.637C-6.643,-10.39,-5.892,-9.815,-5.186,-9.229C-1.57,-6.229,1.683,-2.481,5.422,-0.243C6.622,0.474,7.899,1.094,8.93,2.038C9.961,2.981,10.728,4.357,10.512,5.738C9.706,10.884,4.094,4.814,2.554,3.572C-1.012,0.698,-4.578,-2.177,-8.144,-5.051Z" /></g><g id="i25" transform="matrix(1,0,0,1,12.016,65.42)"><path fill="#ffffff" fill-opacity="0.5" d="M-10.032,14.924C-10.059,13.585,-9.214,12.406,-8.42,11.328C-3.41,4.522,1.044,-2.693,4.882,-10.223C6.005,-12.426,7.079,-14.662,8.439,-16.728C8.719,-17.154,9.213,-17.627,9.658,-17.379C9.95,-17.217,10.017,-16.831,10.029,-16.497C10.132,-13.554,8.545,-10.849,7.012,-8.335C5.152,-5.286,3.292,-2.236,1.431,0.813C-0.46,3.914,-2.391,7.122,-2.936,10.713C-3.166,12.232,-3.149,13.82,-3.761,15.23C-4.884,17.812,-9.956,18.653,-10.032,14.924Z" /></g><g id="i4" transform="matrix(1,0,0,1,24.143,43.58)"><path fill="#ffffff" fill-opacity="0.5" d="M-1.447,0.684C-1.498,1.037,-1.645,1.37,-1.698,1.723C-1.75,2.076,-1.685,2.482,-1.401,2.697C-1.105,2.921,-0.675,2.859,-0.348,2.683C0.344,2.311,0.72,1.544,0.986,0.804C1.351,-0.212,1.593,-1.273,1.704,-2.347C1.718,-2.474,1.726,-2.613,1.654,-2.718C1.473,-2.98,1.066,-2.773,0.841,-2.548C-0.078,-1.626,-0.87,-0.578,-1.506,0.557C-1.506,0.557,-1.447,0.684,-1.447,0.684Z" /></g></g></g></g></g></g></g></g></g><g id="i10"><g transform="translate(570,532.006)"><animateTransform repeatCount="indefinite" type="translate" attributeName="transform" dur="2.067s" begin="0s" calcMode="spline" values="570 532.006; 570 498.006; 570 534.006; 570 496.006; 570 532.006; 570 498.006; 570 534.006; 570 496.006; 570 532.006" keyTimes="0; 0.16129; 0.258065; 0.370968; 0.5; 0.66129; 0.758065; 0.870968; 1" keySplines="0.333 0 0.667 1; 0.333 0 0.667 1; 0.333 0 0.667 1; 0.333 0 0.667 1; 0.333 0 0.667 1; 0.333 0 0.667 1; 0.333 0 0.667 1; 0.333 0 0.667 1" fill="freeze" /><g transform="scale(1,1) translate(-113.75,-92.121)"><g transform="matrix(1,0,0,1,102.543,-3.239)" id="i30"><g id="i34"><g transform="translate(28.699,17.587)"><g transform="rotate(0)"><animateTransform repeatCount="indefinite" type="rotate" attributeName="transform" dur="2.067s" begin="0s" calcMode="spline" values="0; 2; 0; 2; 0; 2; 0; 2; 0" keyTimes="0; 0.16129; 0.258065; 0.370968; 0.5; 0.66129; 0.758065; 0.870968; 1" keySplines="0.333 0 0.667 1; 0.333 0 0.667 1; 0.333 0 0.667 1; 0.333 0 0.667 1; 0.333 0 0.667 1; 0.333 0 0.667 1; 0.333 0 0.667 1; 0.333 0 0.667 1" fill="freeze" /><g transform="scale(1,1) translate(-56.777,-115.162)"><g id="i35" transform="matrix(1,0,0,1,15.594,73.079)"><path fill="#f2c4a5" d="M-1.913,-13.852C-3.535,-13.441,-5.151,-12.816,-6.38,-11.681C-9.272,-9.01,-9.19,-4.337,-7.797,-0.655C-5.262,6.043,0.548,10.904,6.393,15.043C6.926,15.42,7.722,15.772,8.158,15.285C8.344,15.076,8.383,14.778,8.411,14.499C9.272,6.086,8.777,-2.464,6.953,-10.722C5.837,-15.773,2.211,-14.897,-1.913,-13.852Z" /></g><g id="i36" transform="matrix(1,0,0,1,58.885,65.229)"><path fill="#f2c4a5" d="M-35.638,-39.65C-39.601,-31.615,-40.2,-22.395,-40.73,-13.452C-41.022,-8.511,-41.314,-3.57,-41.607,1.371C-42.075,9.285,-38.9,36.944,-27.284,45.452C-20.857,50.159,-16.727,53.512,-8.872,54.839C-2.634,55.891,3.69,56.425,10.016,56.433C15.881,56.44,22.062,55.891,26.904,52.583C29.818,50.592,32.038,47.725,33.802,44.667C39.592,34.626,40.717,22.634,41.313,11.058C41.897,-0.302,42.075,-11.873,39.06,-22.841C36.045,-33.809,29.415,-44.246,19.32,-49.489C15.044,-51.709,10.317,-52.928,5.573,-53.771C-9.458,-56.44,-28.102,-54.928,-35.638,-39.65Z" /></g><g id="i37" transform="matrix(1,0,0,1,55.657,20.334)"><path fill="#cebc9e" d="M53.33,-7.275C54,-10.419,55.341,-17.319,35.992,-18.982C26.804,-19.771,14.973,-20.084,5.847,-18.758C-14.985,-15.732,-33.597,-9.807,-51.722,0.898C-53.43,1.907,-55.303,3.305,-55.326,5.289C-55.341,6.587,-54.535,7.733,-53.76,8.774C-51.261,12.137,-49.518,16.359,-45.706,18.096C-41.341,20.084,-35.351,18.695,-30.604,18.005C-14.257,15.627,2.088,13.25,18.435,10.873C24.265,10.025,31.56,10.151,37.093,7.995C40.402,6.705,51.834,-0.261,53.33,-7.275Z" /></g><g id="i13" transform="matrix(1,0,0,1,52.532,26.705)"><path fill="#b8a48d" d="M52.283,-6.873C49.853,-8.821,46.468,-9.732,43.297,-10.226C23.498,-13.309,3.536,-7.464,-16.418,-5.63C-21.2,-5.191,-26.021,-4.982,-30.801,-5.436C-33.049,-5.649,-35.378,-6.046,-37.204,-7.373C-38.253,-8.136,-39.063,-9.199,-39.573,-10.39C-42.622,-8.866,-45.651,-7.23,-48.664,-5.45C-50.372,-4.441,-52.245,-3.043,-52.268,-1.06C-52.283,0.239,-51.475,1.384,-50.701,2.426C-48.202,5.789,-46.461,10.01,-42.648,11.747C-39.217,13.309,-34.785,12.785,-30.739,12.155C-30.675,12.122,-30.612,12.086,-30.549,12.054C-18.744,6.081,-5.52,3.351,7.672,2.346C17.98,1.56,28.326,1.793,38.664,2.154C39.17,1.999,39.67,1.834,40.151,1.646C42.363,0.784,48.206,-2.617,52.283,-6.873Z" /></g><g id="i14" transform="matrix(1,0,0,1,74.859,44.029)"><path fill="#b8a48d" d="M-17.974,6.973C-13.592,8.917,-8.91,10.108,-4.192,10.957C6.573,12.895,17.649,13.08,28.476,11.521C30.333,11.254,32.352,10.842,33.539,9.388C34.827,7.81,34.687,5.43,33.745,3.624C32.804,1.818,31.21,0.456,29.654,-0.859C25.976,-3.969,22.185,-7.145,17.634,-8.72C14.839,-9.687,11.868,-10.009,8.927,-10.324C-4.308,-11.742,-18.169,-13.081,-30.524,-8.125C-31.821,-7.605,-34.827,-6.324,-34.683,-4.522C-34.553,-2.89,-31.038,-1.099,-29.821,-0.202C-26.1,2.539,-22.21,5.094,-17.974,6.973Z" /></g><g id="i15" transform="matrix(1,0,0,1,53.676,35.505)"><path fill="#cebc9e" d="M17.904,-0.559C26.779,-1.444,36.158,-1.407,44.077,2.695C43.473,-0.984,44.291,-5.992,43.687,-9.672C14.851,-16.751,-17.93,-11.682,-44.291,1.984C-41.572,6.495,-38.852,11.008,-36.131,15.523C-35.892,15.92,-35.837,16.373,-36.013,16.752C-32.632,10.889,-16.795,7.172,-10.496,5.216C-1.254,2.347,8.274,0.402,17.904,-0.559Z" /></g><g id="i16" transform="matrix(1,0,0,1,25.334,40.864)"><path fill="#b8a48d" d="M-7.43,14.125C-6.763,12.854,-5.55,11.977,-4.361,11.172C2.16,6.756,9.205,3.115,16.579,0.348C10.017,-1.759,4.558,-7.041,2.236,-13.53C2.023,-14.125,-11.215,-7.458,-12.363,-6.779C-13.521,-6.095,-14.69,-5.402,-15.794,-4.633C-16.428,-4.192,-16.579,-4.073,-16.242,-3.37C-15.957,-2.775,-15.526,-2.218,-15.185,-1.652C-13.759,0.718,-12.429,3.144,-11.197,5.62C-9.815,8.397,-8.557,11.235,-7.43,14.125Z" /></g><g id="i17" transform="matrix(1,0,0,1,72.05,77.134)"><path fill="#dda58e" d="M8.675,12.083C3.527,14.159,-1.761,15.89,-7.14,17.26C-7.651,15.045,-8.164,12.829,-8.675,10.614C-5.588,10.982,-2.451,10.927,0.621,10.452C-0.76,1.409,-0.821,-7.835,0.441,-16.896C0.491,-17.26,3.252,-17.16,3.551,-16.85C4.052,-16.329,3.765,-13.653,3.819,-12.904C4.026,-10.048,4.349,-7.2,4.785,-4.369C5.644,1.206,6.945,6.713,8.675,12.083Z" /></g><g id="i18" transform="matrix(1,0,0,1,46.91,71.278)"><path fill="#000000" d="M12.604,-14.023C16.264,-14.076,20.564,-13.508,22.374,-9.967C23.536,-7.693,23.25,-4.75,22.176,-2.401C21.102,-0.052,19.345,1.812,17.553,3.531C13.587,7.334,9.178,10.733,4.182,12.404C-0.813,14.076,-6.484,13.841,-10.871,10.757C-16.23,6.991,-23.536,-4.525,-15.43,-9.154C-7.666,-13.586,4.101,-13.898,12.604,-14.023Z" /></g><g id="i19" transform="matrix(1,0,0,1,94.437,72.208)"><path fill="#000000" d="M-10.837,-13.597C-13.847,-13.511,-17.343,-12.781,-18.613,-9.178C-19.428,-6.864,-19.014,-3.938,-17.988,-1.635C-16.962,0.669,-15.405,2.461,-13.827,4.108C-10.337,7.753,-6.507,10.976,-2.302,12.454C1.904,13.932,6.547,13.482,9.962,10.238C14.133,6.275,19.428,-5.494,12.486,-9.804C5.837,-13.932,-3.845,-13.797,-10.837,-13.597Z" /></g><g id="i20" transform="matrix(1,0,0,1,72.459,61.405)"><path fill="#000000" d="M9.195,-2.494C10.412,-2.299,9.44,-1.265,10.34,-0.424C11.24,0.417,11.46,2.092,10.451,2.799C8.053,0.587,4.625,-0.278,1.368,-0.062C-1.888,0.155,-5.004,1.356,-7.911,2.839C-8.744,3.264,-9.76,3.713,-10.559,3.229C-11.253,2.809,-11.419,1.885,-11.439,1.075C-11.459,0.295,-11.402,-0.51,-11.066,-1.213C-9.873,-3.713,-5.305,-3.004,-3.095,-2.906C0.272,-2.755,5.872,-3.026,9.195,-2.494Z" /></g><g id="i29" transform="matrix(1,0,0,1,17.313,69.356)"><path fill="#dda58e" d="M-3.041,-5.092C-4.533,-4.344,-5.369,-2.484,-4.937,-0.872C-4.666,0.144,-3.976,0.988,-3.305,1.797C-1.229,4.301,0.846,6.804,2.921,9.307C0.976,6.961,5.369,-9.308,-3.041,-5.092Z" /></g><g id="i25" transform="matrix(1,0,0,1,38.045,67.595)"><path fill="#ffffff" d="M-4.125,-3.051C-5.334,-1.717,-5.956,0.129,-5.8,1.922C-5.694,3.138,-5.19,4.385,-4.183,5.073C-3.175,5.761,-1.614,5.681,-0.896,4.695C-0.271,3.837,-0.436,2.667,-0.314,1.613C-0.102,-0.22,1.129,-1.901,2.812,-2.656C3.973,-3.177,5.533,-3.502,5.816,-4.742C6.042,-5.735,1.363,-5.543,0.74,-5.43C-1.048,-5.105,-2.883,-4.421,-4.125,-3.051Z" /></g><g id="i4" transform="matrix(1,0,0,1,87.183,65.842)"><path fill="#ffffff" d="M-6.287,-2.916C-8.041,-0.875,-8.141,2.525,-6.233,4.422C-5.617,5.034,-4.727,5.488,-3.892,5.251C-2.971,4.988,-2.459,3.997,-2.259,3.06C-2.059,2.123,-2.055,1.13,-1.649,0.262C-0.974,-1.183,0.649,-1.932,2.209,-2.262C3.769,-2.591,5.402,-2.625,6.89,-3.197C7.344,-3.372,7.854,-3.887,7.534,-4.254C7.42,-4.385,7.237,-4.427,7.066,-4.462C3.097,-5.264,-3.258,-6.44,-6.287,-2.916Z" /></g></g></g></g></g></g></g></g></g><g id="i10"><g transform="translate(570,532.006)"><animateTransform repeatCount="indefinite" type="translate" attributeName="transform" dur="2.067s" begin="0s" calcMode="spline" values="570 532.006; 570 498.006; 570 534.006; 570 496.006; 570 532.006; 570 498.006; 570 534.006; 570 496.006; 570 532.006" keyTimes="0; 0.16129; 0.258065; 0.370968; 0.5; 0.66129; 0.758065; 0.870968; 1" keySplines="0.333 0 0.667 1; 0.333 0 0.667 1; 0.333 0 0.667 1; 0.333 0 0.667 1; 0.333 0 0.667 1; 0.333 0 0.667 1; 0.333 0 0.667 1; 0.333 0 0.667 1" fill="freeze" /><g transform="scale(1,1) translate(-113.75,-92.121)"><g transform="matrix(1,0,0,1,102.543,-3.239)" id="i30"><g id="i34"><g transform="translate(28.699,17.587)"><g transform="rotate(0)"><animateTransform repeatCount="indefinite" type="rotate" attributeName="transform" dur="2.067s" begin="0s" calcMode="spline" values="0; 2; 0; 2; 0; 2; 0; 2; 0" keyTimes="0; 0.16129; 0.258065; 0.370968; 0.5; 0.66129; 0.758065; 0.870968; 1" keySplines="0.333 0 0.667 1; 0.333 0 0.667 1; 0.333 0 0.667 1; 0.333 0 0.667 1; 0.333 0 0.667 1; 0.333 0 0.667 1; 0.333 0 0.667 1; 0.333 0 0.667 1" fill="freeze" /><g transform="scale(1,1) translate(-56.777,-115.162)"><g transform="matrix(1,0,0,1,48.329,99.506)" id="i38"><g id="i25" transform="matrix(1,0,0,1,17.312,6.795)"><path fill="#dda58e" d="M-14.812,-4.295C-8.306,-1.62,9.63,4.295,14.812,-3.368" /></g><g id="i4" transform="matrix(1,0,0,1,17.312,6.795)"><path stroke-miterlimit="10" stroke-width="1" stroke="#dda58e" d="M-14.812,-4.295C-8.306,-1.62,9.63,4.295,14.812,-3.368" /></g></g></g></g></g></g></g></g></g></g></g></defs><g transform="matrix(1.8,0,0,1.8,-432,-466)" id="i39"><g clip-path="url(#i0)"><g><g transform="translate(544.5,798)"><g transform="scale(1,1)"><animateTransform repeatCount="indefinite" type="scale" attributeName="transform" dur="2.067s" begin="0s" calcMode="spline" values="1 1; 0.88 1; 1.12 1; 0.88 1; 1 1; 0.88 1; 1.12 1; 0.88 1; 1 1" keyTimes="0; 0.16129; 0.258065; 0.370968; 0.5; 0.66129; 0.758065; 0.870968; 1" keySplines="0.333 0 0.667 1; 0.333 0 0.667 1; 0.333 0 0.667 1; 0.333 0 0.667 1; 0.333 0 0.667 1; 0.333 0 0.667 1; 0.333 0 0.667 1; 0.333 0 0.667 1" fill="freeze" /><g transform="translate(-202.5,-8)"><g><path stroke-miterlimit="10" stroke-linecap="round" stroke-width="16" stroke="#bababa" d="M8,8C8,8,397,8,397,8" /></g></g></g></g></g><g><g transform="translate(570,532.006)"><animateTransform repeatCount="indefinite" type="translate" attributeName="transform" dur="2.067s" begin="0s" calcMode="spline" values="570 532.006; 570 498.006; 570 534.006; 570 496.006; 570 532.006; 570 498.006; 570 534.006; 570 496.006; 570 532.006" keyTimes="0; 0.16129; 0.258065; 0.370968; 0.5; 0.66129; 0.758065; 0.870968; 1" keySplines="0.333 0 0.667 1; 0.333 0 0.667 1; 0.333 0 0.667 1; 0.333 0 0.667 1; 0.333 0 0.667 1; 0.333 0 0.667 1; 0.333 0 0.667 1; 0.333 0 0.667 1" fill="freeze" /><g transform="scale(1,1) translate(-113.75,-92.121)"><g transform="matrix(1,0,0,1,33.5,156.243)"><g transform="matrix(1,0,0,1,-82.75,1.25)"><g transform="matrix(1,0,0,1,120.5,124)"><path d="M16.5,-64C16.5,-64,60.5,26,-60.5,64" stroke-miterlimit="10" stroke-linecap="round" stroke-width="24" stroke="#564d3b"><animate repeatCount="indefinite" attributeName="d" dur="2.067s" begin="0s" calcMode="spline" values="M16.5,-64C16.5,-64,60.5,26,-60.5,64; M16.5,-64C16.5,-64,102,-3,16.5,32; M16.5,-64C16.5,-64,119,-42.5,81,62; M16.5,-64C16.5,-64,49,-13,13,99; M16.5,-64C16.5,-64,60.5,26,-60.5,64; M16.5,-64C16.5,-64,102,-3,16.5,32; M16.5,-64C16.5,-64,119,-42.5,81,62; M16.5,-64C16.5,-64,49,-13,13,99; M16.5,-64C16.5,-64,60.5,26,-60.5,64" keyTimes="0; 0.16129; 0.258065; 0.370968; 0.5; 0.66129; 0.758065; 0.870968; 1" keySplines="0.333 0 0.667 1; 0.333 0 0.667 1; 0.333 0 0.667 1; 0.333 0 0.667 1; 0.333 0 0.667 1; 0.333 0 0.667 1; 0.333 0 0.667 1; 0.333 0 0.667 1" fill="freeze" /></path></g></g></g></g></g></g><g><g transform="translate(570,532.006)"><animateTransform repeatCount="indefinite" type="translate" attributeName="transform" dur="2.067s" begin="0s" calcMode="spline" values="570 532.006; 570 498.006; 570 534.006; 570 496.006; 570 532.006; 570 498.006; 570 534.006; 570 496.006; 570 532.006" keyTimes="0; 0.16129; 0.258065; 0.370968; 0.5; 0.66129; 0.758065; 0.870968; 1" keySplines="0.333 0 0.667 1; 0.333 0 0.667 1; 0.333 0 0.667 1; 0.333 0 0.667 1; 0.333 0 0.667 1; 0.333 0 0.667 1; 0.333 0 0.667 1; 0.333 0 0.667 1" fill="freeze" /><g transform="scale(1,1) translate(-113.75,-92.121)"><g transform="matrix(1,0,0,1,33.5,156.243)"><g transform="matrix(1,0,0,1,79.757,36.496)"><path fill="#2a2b30" d="M6.432,16.8C6.432,17.904,5.536,18.8,4.432,18.8C4.432,18.8,-4.432,18.8,-4.432,18.8C-5.537,18.8,-6.432,17.904,-6.432,16.8C-6.432,16.8,-6.432,-16.8,-6.432,-16.8C-6.432,-17.905,-5.537,-18.8,-4.432,-18.8C-4.432,-18.8,4.432,-18.8,4.432,-18.8C5.536,-18.8,6.432,-17.905,6.432,-16.8C6.432,-16.8,6.432,16.8,6.432,16.8Z" /></g><g transform="matrix(1,0,0,1,79.853,29.675)"><path fill="#7b7b7b" d="M3.457,8.598C3.457,9.703,2.561,10.598,1.457,10.598C1.457,10.598,-1.457,10.598,-1.457,10.598C-2.561,10.598,-3.457,9.703,-3.457,8.598C-3.457,8.598,-3.457,-8.598,-3.457,-8.598C-3.457,-9.702,-2.561,-10.598,-1.457,-10.598C-1.457,-10.598,1.457,-10.598,1.457,-10.598C2.561,-10.598,3.457,-9.702,3.457,-8.598C3.457,-8.598,3.457,8.598,3.457,8.598Z" /></g><g transform="matrix(1,0,0,1,41.75,43.75)"><path fill="#564d3b" d="M-0.571,43.5C-0.571,43.5,-0.571,43.5,-0.571,43.5C-22.623,43.5,-40.5,25.623,-40.5,3.572C-40.5,3.572,-40.5,-24.5,-40.5,-24.5C-40.5,-24.5,-38.5,-43.5,-38.5,-43.5C-38.5,-43.5,40.5,-24.5,40.5,-24.5C40.5,-24.5,40.5,2.429,40.5,2.429C40.5,25.112,22.112,43.5,-0.571,43.5Z" /></g><g transform="matrix(1,0,0,1,41.25,29.25)"><path fill="#2a2b30" d="M-38,-28C-38,-28,-41,-19,-40,-8C-40,-8,-1,28,41,5C41,5,41,-9,41,-9C41,-9,11,14,-38,-28Z" /></g><g transform="matrix(1,0,0,1,59.918,32.846)"><path fill="#bcbcbc" d="M-13.809,-8.083C-13.809,-8.083,-14.177,9.226,-14.177,9.226C-14.177,9.226,5.758,10.69,14.177,5.325C14.177,5.325,13.368,-10.689,13.368,-10.689C13.368,-10.689,2.536,-3.968,-13.809,-8.083Z" /></g><g transform="matrix(1,0,0,1,10.25,17.25)"><path fill="#564d3b" d="M-1,-12C-1,-12,6,-8,6,-8C6,-8,2,0,1,12C1,12,-6,8,-6,8C-6,8,-1,-12,-1,-12Z" /></g><g transform="matrix(1,0,0,1,41.653,32.134)"><path fill="#564d3b" d="M-2.403,-12.884C-2.403,-12.884,4.597,-11.884,4.597,-11.884C4.597,-11.884,2.471,0.847,2.801,12.884C2.801,12.884,-4.597,9.681,-4.597,9.681C-4.597,9.681,-2.403,-12.884,-2.403,-12.884Z" /></g><g transform="matrix(1,0,0,1,77.344,30.25)"><path fill="#564d3b" d="M-3.906,-8.645C-3.906,-8.645,2.906,-10,2.906,-10C2.906,-10,3.906,-5,3.906,10C3.906,10,-2.094,10,-2.094,10C-2.094,10,-3.906,-8.645,-3.906,-8.645Z" /></g></g></g></g></g><g><g transform="translate(570,532.006)"><animateTransform repeatCount="indefinite" type="translate" attributeName="transform" dur="2.067s" begin="0s" calcMode="spline" values="570 532.006; 570 498.006; 570 534.006; 570 496.006; 570 532.006; 570 498.006; 570 534.006; 570 496.006; 570 532.006" keyTimes="0; 0.16129; 0.258065; 0.370968; 0.5; 0.66129; 0.758065; 0.870968; 1" keySplines="0.333 0 0.667 1; 0.333 0 0.667 1; 0.333 0 0.667 1; 0.333 0 0.667 1; 0.333 0 0.667 1; 0.333 0 0.667 1; 0.333 0 0.667 1; 0.333 0 0.667 1" fill="freeze" /><g transform="scale(1,1) translate(-113.75,-92.121)"><g transform="matrix(1,0,0,1,33.5,156.243)"><g transform="matrix(1,0,0,1,-26.75,3.25)"><g transform="matrix(1,0,0,1,91,124)"><path d="M-31,-64C-31,-64,31,-44,22,64" stroke-miterlimit="10" stroke-linecap="round" stroke-width="24" stroke="#564d3b"><animate repeatCount="indefinite" attributeName="d" dur="2.067s" begin="0s" calcMode="spline" values="M-31,-64C-31,-64,31,-44,22,64; M-43,-66C-43,-66,-23,-9.5,-50,97; M-47.5,-65.5C-47.5,-65.5,-6,34,-115.5,60; M-35,-67C-35,-67,47.5,19,-46,30; M-31,-64C-31,-64,31,-44,22,64; M-43,-66C-43,-66,-23,-9.5,-50,97; M-47.5,-65.5C-47.5,-65.5,-6,34,-115.5,60; M-35,-67C-35,-67,47.5,19,-46,30; M-31,-64C-31,-64,31,-44,22,64" keyTimes="0; 0.16129; 0.258065; 0.370968; 0.5; 0.66129; 0.758065; 0.870968; 1" keySplines="0.333 0 0.667 1; 0.333 0 0.667 1; 0.333 0 0.667 1; 0.333 0 0.667 1; 0.333 0 0.667 1; 0.333 0 0.667 1; 0.333 0 0.667 1; 0.333 0 0.667 1" fill="freeze" /></path></g></g></g></g></g></g><g><g transform="translate(570,532.006)"><animateTransform repeatCount="indefinite" type="translate" attributeName="transform" dur="2.067s" begin="0s" calcMode="spline" values="570 532.006; 570 498.006; 570 534.006; 570 496.006; 570 532.006; 570 498.006; 570 534.006; 570 496.006; 570 532.006" keyTimes="0; 0.16129; 0.258065; 0.370968; 0.5; 0.66129; 0.758065; 0.870968; 1" keySplines="0.333 0 0.667 1; 0.333 0 0.667 1; 0.333 0 0.667 1; 0.333 0 0.667 1; 0.333 0 0.667 1; 0.333 0 0.667 1; 0.333 0 0.667 1; 0.333 0 0.667 1" fill="freeze" /><g transform="scale(1,1) translate(-113.75,-92.121)"><g transform="matrix(1,0,0,1,32.75,-66.507)"><g transform="matrix(1,0,0,1,189.5,213)"><path d="M-62.438,-85.812C-62.438,-85.812,66.562,-39.812,32.562,90.188" stroke-miterlimit="10" stroke-linecap="round" stroke-width="50" stroke="#f2c4a5"><animate repeatCount="indefinite" attributeName="d" dur="2.067s" begin="0s" calcMode="spline" values="M-62.438,-85.812C-62.438,-85.812,66.562,-39.812,32.562,90.188; M-62.5,-85.812C-62.5,-85.812,56.5,-36.812,9,95.688; M-62.688,-85.75C-62.688,-85.75,58.812,-33.75,5.812,97.75; M-62.5,-85.688C-62.5,-85.688,65.5,-37.688,25.5,91.312; M-62.312,-85.812C-62.312,-85.812,66.688,-39.812,32.688,90.188; M-62.25,-85.75C-62.25,-85.75,56.75,-36.75,9.25,95.75; M-62.25,-86C-62.25,-86,59.25,-34,6.25,97.5; M-62.312,-85.875C-62.312,-85.875,65.688,-37.875,25.688,91.125; M-62.438,-85.812C-62.438,-85.812,66.562,-39.812,32.562,90.188" keyTimes="0; 0.16129; 0.258065; 0.370968; 0.5; 0.66129; 0.758065; 0.870968; 1" keySplines="0.333 0 0.667 1; 0.333 0 0.667 1; 0.333 0 0.667 1; 0.333 0 0.667 1; 0.333 0 0.667 1; 0.333 0 0.667 1; 0.333 0 0.667 1; 0.333 0 0.667 1" fill="freeze" /></path></g></g></g></g></g><g><g transform="translate(570,532.006)"><animateTransform repeatCount="indefinite" type="translate" attributeName="transform" dur="2.067s" begin="0s" calcMode="spline" values="570 532.006; 570 498.006; 570 534.006; 570 496.006; 570 532.006; 570 498.006; 570 534.006; 570 496.006; 570 532.006" keyTimes="0; 0.16129; 0.258065; 0.370968; 0.5; 0.66129; 0.758065; 0.870968; 1" keySplines="0.333 0 0.667 1; 0.333 0 0.667 1; 0.333 0 0.667 1; 0.333 0 0.667 1; 0.333 0 0.667 1; 0.333 0 0.667 1; 0.333 0 0.667 1; 0.333 0 0.667 1" fill="freeze" /><g transform="scale(1,1) translate(-113.75,-92.121)"><g transform="matrix(1,0,0,1,20.25,-79.007)"><g transform="matrix(1,0,0,1,177.5,169)"><path d="M-40,-31.5C-40,-31.5,5,-19.5,40,31.5" stroke-miterlimit="10" stroke-width="55" stroke="#b8a48d"><animate repeatCount="indefinite" attributeName="d" dur="2.067s" begin="0s" calcMode="spline" values="M-40,-31.5C-40,-31.5,5,-19.5,40,31.5; M-40,-31.5C-40,-31.5,-1,-16.045,33,39; M-40,-31.5C-40,-31.5,0,-17.377,32.038,39; M-40,-31.5C-40,-31.5,1.5,-23.877,38.5,32.5; M-40,-31.5C-40,-31.5,0,-24.377,41,32; M-40,-31.5C-40,-31.5,6,-15.377,36,46; M-40,-31.5C-40,-31.5,2.5,-18.877,34.385,43.077; M-40,-31.5C-40,-31.5,1.5,-22.877,41,38; M-40,-31.5C-40,-31.5,5,-19.5,40,31.5" keyTimes="0; 0.16129; 0.258065; 0.370968; 0.5; 0.66129; 0.758065; 0.870968; 1" keySplines="0.333 0 0.667 1; 0.333 0 0.667 1; 0.333 0 0.667 1; 0.333 0 0.667 1; 0.333 0 0.667 1; 0.333 0 0.667 1; 0.333 0 0.667 1; 0.333 0 0.667 1" fill="freeze" /></path></g></g></g></g></g><g mask="url(#i2)"><g transform="translate(570,532.006)"><animateTransform repeatCount="indefinite" type="translate" attributeName="transform" dur="2.067s" begin="0s" calcMode="spline" values="570 532.006; 570 498.006; 570 534.006; 570 496.006; 570 532.006; 570 498.006; 570 534.006; 570 496.006; 570 532.006" keyTimes="0; 0.16129; 0.258065; 0.370968; 0.5; 0.66129; 0.758065; 0.870968; 1" keySplines="0.333 0 0.667 1; 0.333 0 0.667 1; 0.333 0 0.667 1; 0.333 0 0.667 1; 0.333 0 0.667 1; 0.333 0 0.667 1; 0.333 0 0.667 1; 0.333 0 0.667 1" fill="freeze" /><g transform="scale(1,1) translate(-113.75,-92.121)"><g transform="matrix(1,0,0,1,20.25,-79.007)"><g transform="matrix(1,0,0,1,179.25,130.448)"><g transform="matrix(1,0,0,1,22.732,21.762)"><path fill="#564d3b" d="M10.447,-11.527C19.677,-3.162,22.483,8.78,16.714,15.146C10.947,21.512,-1.214,19.892,-10.445,11.528C-19.676,3.162,-22.482,-8.78,-16.714,-15.145C-10.946,-21.512,1.214,-19.892,10.447,-11.527Z" /></g><g transform="matrix(1,0,0,1,22.733,21.762)"><path fill="#f3d247" d="M8.651,-9.546C16.296,-2.619,18.62,7.271,13.843,12.544C9.066,17.815,-1.005,16.475,-8.65,9.547C-16.296,2.619,-18.62,-7.272,-13.843,-12.544C-9.066,-17.816,1.005,-16.476,8.651,-9.546Z" /></g></g></g></g></g></g><g display="none"><g transform="translate(570,532.006)"><animateTransform repeatCount="indefinite" type="translate" attributeName="transform" dur="2.067s" begin="0s" calcMode="spline" values="570 532.006; 570 498.006; 570 534.006; 570 496.006; 570 532.006; 570 498.006; 570 534.006; 570 496.006; 570 532.006" keyTimes="0; 0.16129; 0.258065; 0.370968; 0.5; 0.66129; 0.758065; 0.870968; 1" keySplines="0.333 0 0.667 1; 0.333 0 0.667 1; 0.333 0 0.667 1; 0.333 0 0.667 1; 0.333 0 0.667 1; 0.333 0 0.667 1; 0.333 0 0.667 1; 0.333 0 0.667 1" fill="freeze" /><g transform="scale(1,1) translate(-113.75,-92.121)"><g transform="matrix(1,0,0,1,20.25,-79.007)"><g transform="matrix(1,0,0,1,177.5,169)"><path d="M-40,-31.5C-40,-31.5,5,-19.5,40,31.5" stroke-miterlimit="10" stroke-width="55" stroke="#b8a48d"><animate repeatCount="indefinite" attributeName="d" dur="2.067s" begin="0s" calcMode="spline" values="M-40,-31.5C-40,-31.5,5,-19.5,40,31.5; M-40,-31.5C-40,-31.5,-1,-16.045,33,39; M-40,-31.5C-40,-31.5,0,-17.377,32.038,39; M-40,-31.5C-40,-31.5,1.5,-23.877,38.5,32.5; M-40,-31.5C-40,-31.5,0,-24.377,41,32; M-40,-31.5C-40,-31.5,6,-15.377,36,46; M-40,-31.5C-40,-31.5,2.5,-18.877,34.385,43.077; M-40,-31.5C-40,-31.5,1.5,-22.877,41,38; M-40,-31.5C-40,-31.5,5,-19.5,40,31.5" keyTimes="0; 0.16129; 0.258065; 0.370968; 0.5; 0.66129; 0.758065; 0.870968; 1" keySplines="0.333 0 0.667 1; 0.333 0 0.667 1; 0.333 0 0.667 1; 0.333 0 0.667 1; 0.333 0 0.667 1; 0.333 0 0.667 1; 0.333 0 0.667 1; 0.333 0 0.667 1" fill="freeze" /></path></g></g></g></g></g><g><g transform="translate(570,532.006)"><animateTransform repeatCount="indefinite" type="translate" attributeName="transform" dur="2.067s" begin="0s" calcMode="spline" values="570 532.006; 570 498.006; 570 534.006; 570 496.006; 570 532.006; 570 498.006; 570 534.006; 570 496.006; 570 532.006" keyTimes="0; 0.16129; 0.258065; 0.370968; 0.5; 0.66129; 0.758065; 0.870968; 1" keySplines="0.333 0 0.667 1; 0.333 0 0.667 1; 0.333 0 0.667 1; 0.333 0 0.667 1; 0.333 0 0.667 1; 0.333 0 0.667 1; 0.333 0 0.667 1; 0.333 0 0.667 1" fill="freeze" /><g transform="scale(1,1) translate(-113.75,-92.121)"><g transform="matrix(1,0,0,1,-249.25,-74.007)"><g transform="matrix(1,0,0,1,216.75,210.75)"><path d="M93.75,-87.75C93.75,-87.75,-89.75,-78.25,-59.75,83.75" stroke-miterlimit="10" stroke-linecap="round" stroke-width="50" stroke="#f2c4a5"><animate repeatCount="indefinite" attributeName="d" dur="2.067s" begin="0s" calcMode="spline" values="M93.75,-87.75C93.75,-87.75,-89.75,-78.25,-59.75,83.75; M93.5,-87.375C93.5,-87.375,-89.75,-74.75,-37.75,92.75; M93.5,-87.5C93.5,-87.5,-81,-66,-22,104.5; M93.75,-87.625C93.75,-87.625,-89.25,-71.125,-44.75,91.875; M93.375,-87.312C93.375,-87.312,-90.125,-77.812,-60.125,84.188; M93.5,-87.25C93.5,-87.25,-83,-67.25,-31,100.25; M93.562,-87.562C93.562,-87.562,-80.938,-66.062,-21.938,104.438; M93.625,-87.25C93.625,-87.25,-89.375,-70.75,-44.875,92.25; M93.75,-87.75C93.75,-87.75,-89.75,-78.25,-59.75,83.75" keyTimes="0; 0.16129; 0.258065; 0.370968; 0.5; 0.66129; 0.758065; 0.870968; 1" keySplines="0.333 0 0.667 1; 0.333 0 0.667 1; 0.333 0 0.667 1; 0.333 0 0.667 1; 0.333 0 0.667 1; 0.333 0 0.667 1; 0.333 0 0.667 1; 0.333 0 0.667 1" fill="freeze" /></path></g></g></g></g></g><g><g transform="translate(570,532.006)"><animateTransform repeatCount="indefinite" type="translate" attributeName="transform" dur="2.067s" begin="0s" calcMode="spline" values="570 532.006; 570 498.006; 570 534.006; 570 496.006; 570 532.006; 570 498.006; 570 534.006; 570 496.006; 570 532.006" keyTimes="0; 0.16129; 0.258065; 0.370968; 0.5; 0.66129; 0.758065; 0.870968; 1" keySplines="0.333 0 0.667 1; 0.333 0 0.667 1; 0.333 0 0.667 1; 0.333 0 0.667 1; 0.333 0 0.667 1; 0.333 0 0.667 1; 0.333 0 0.667 1; 0.333 0 0.667 1" fill="freeze" /><g transform="scale(1,1) translate(-113.75,-92.121)"><g transform="matrix(1,0,0,1,-198.75,-86.507)"><g transform="matrix(1,0,0,1,197.75,161.75)"><path d="M60.25,-24.25C60.25,-24.25,-13.75,-20.25,-60.25,24.25" stroke-miterlimit="10" stroke-width="55" stroke="#cebc9e"><animate repeatCount="indefinite" attributeName="d" dur="2.067s" begin="0s" calcMode="spline" values="M60.25,-24.25C60.25,-24.25,-13.75,-20.25,-60.25,24.25; M60.25,-24.25C60.25,-24.25,-12.25,-24.127,-57.25,30.25; M60.25,-24.25C60.25,-24.25,-2.25,-21.127,-47.25,37.25; M60.25,-24.25C60.25,-24.25,-15.25,-18.627,-62.75,38.75; M60.25,-24.25C60.25,-24.25,-19.25,-26.627,-66.75,30.75; M60.25,-24.25C60.25,-24.25,-3.25,-21.627,-52.25,37.75; M60.25,-24.25C60.25,-24.25,-0.25,-26.127,-48.75,38.25; M60.25,-24.25C60.25,-24.25,-9.25,-23.627,-60.75,34.25; M60.25,-24.25C60.25,-24.25,-13.75,-20.25,-60.25,24.25" keyTimes="0; 0.16129; 0.258065; 0.370968; 0.5; 0.66129; 0.758065; 0.870968; 1" keySplines="0.333 0 0.667 1; 0.333 0 0.667 1; 0.333 0 0.667 1; 0.333 0 0.667 1; 0.333 0 0.667 1; 0.333 0 0.667 1; 0.333 0 0.667 1; 0.333 0 0.667 1" fill="freeze" /></path></g></g></g></g></g><g mask="url(#i6)"><g transform="translate(570,532.006)"><animateTransform repeatCount="indefinite" type="translate" attributeName="transform" dur="2.067s" begin="0s" calcMode="spline" values="570 532.006; 570 498.006; 570 534.006; 570 496.006; 570 532.006; 570 498.006; 570 534.006; 570 496.006; 570 532.006" keyTimes="0; 0.16129; 0.258065; 0.370968; 0.5; 0.66129; 0.758065; 0.870968; 1" keySplines="0.333 0 0.667 1; 0.333 0 0.667 1; 0.333 0 0.667 1; 0.333 0 0.667 1; 0.333 0 0.667 1; 0.333 0 0.667 1; 0.333 0 0.667 1; 0.333 0 0.667 1" fill="freeze" /><g transform="scale(1,1) translate(-113.75,-92.121)"><g transform="matrix(1,0,0,1,-198.75,-86.507)"><g transform="matrix(1,0,0,1,142.327,124.533)"><g transform="matrix(1,0,0,1,22.549,20.794)"><path fill="#564d3b" d="M9.714,14.102C0.362,20.544,-11.571,19.452,-16.935,11.664C-22.3,3.877,-19.066,-7.659,-9.714,-14.101C-0.361,-20.544,11.57,-19.454,16.934,-11.666C22.299,-3.878,19.067,7.659,9.714,14.102Z" /></g><g transform="matrix(1,0,0,1,22.55,20.794)"><path fill="#f3d247" d="M8.045,11.679C0.299,17.014,-9.582,16.111,-14.025,9.66C-18.468,3.211,-15.791,-6.343,-8.046,-11.678C-0.299,-17.014,9.582,-16.111,14.025,-9.661C18.468,-3.211,15.792,6.343,8.045,11.679Z" /></g></g></g></g></g></g><g display="none"><g transform="translate(570,532.006)"><animateTransform repeatCount="indefinite" type="translate" attributeName="transform" dur="2.067s" begin="0s" calcMode="spline" values="570 532.006; 570 498.006; 570 534.006; 570 496.006; 570 532.006; 570 498.006; 570 534.006; 570 496.006; 570 532.006" keyTimes="0; 0.16129; 0.258065; 0.370968; 0.5; 0.66129; 0.758065; 0.870968; 1" keySplines="0.333 0 0.667 1; 0.333 0 0.667 1; 0.333 0 0.667 1; 0.333 0 0.667 1; 0.333 0 0.667 1; 0.333 0 0.667 1; 0.333 0 0.667 1; 0.333 0 0.667 1" fill="freeze" /><g transform="scale(1,1) translate(-113.75,-92.121)"><g transform="matrix(1,0,0,1,-198.75,-86.507)"><g transform="matrix(1,0,0,1,197.75,161.75)"><path d="M60.25,-24.25C60.25,-24.25,-13.75,-20.25,-60.25,24.25" stroke-miterlimit="10" stroke-width="55" stroke="#cebc9e"><animate repeatCount="indefinite" attributeName="d" dur="2.067s" begin="0s" calcMode="spline" values="M60.25,-24.25C60.25,-24.25,-13.75,-20.25,-60.25,24.25; M60.25,-24.25C60.25,-24.25,-12.25,-24.127,-57.25,30.25; M60.25,-24.25C60.25,-24.25,-2.25,-21.127,-47.25,37.25; M60.25,-24.25C60.25,-24.25,-15.25,-18.627,-62.75,38.75; M60.25,-24.25C60.25,-24.25,-19.25,-26.627,-66.75,30.75; M60.25,-24.25C60.25,-24.25,-3.25,-21.627,-52.25,37.75; M60.25,-24.25C60.25,-24.25,-0.25,-26.127,-48.75,38.25; M60.25,-24.25C60.25,-24.25,-9.25,-23.627,-60.75,34.25; M60.25,-24.25C60.25,-24.25,-13.75,-20.25,-60.25,24.25" keyTimes="0; 0.16129; 0.258065; 0.370968; 0.5; 0.66129; 0.758065; 0.870968; 1" keySplines="0.333 0 0.667 1; 0.333 0 0.667 1; 0.333 0 0.667 1; 0.333 0 0.667 1; 0.333 0 0.667 1; 0.333 0 0.667 1; 0.333 0 0.667 1; 0.333 0 0.667 1" fill="freeze" /></path></g></g></g></g></g><g><g transform="translate(570,532.006)"><animateTransform repeatCount="indefinite" type="translate" attributeName="transform" dur="2.067s" begin="0s" calcMode="spline" values="570 532.006; 570 498.006; 570 534.006; 570 496.006; 570 532.006; 570 498.006; 570 534.006; 570 496.006; 570 532.006" keyTimes="0; 0.16129; 0.258065; 0.370968; 0.5; 0.66129; 0.758065; 0.870968; 1" keySplines="0.333 0 0.667 1; 0.333 0 0.667 1; 0.333 0 0.667 1; 0.333 0 0.667 1; 0.333 0 0.667 1; 0.333 0 0.667 1; 0.333 0 0.667 1; 0.333 0 0.667 1" fill="freeze" /><g transform="scale(1,1) translate(-113.75,-92.121)"><g transform="matrix(1,0,0,1,113.75,95.998)"><path fill="#cebc9e" d="M71.5,8.994C68.5,14.994,64.5,25.994,51.5,34.994C42.56,41.184,37.155,52.94,25.5,62.994C19.799,67.911,13.194,72.732,7.5,76.994C-2.856,84.747,-9.706,87.994,-20.5,87.994C-33.5,87.994,-45.674,83.884,-56.5,76.994C-78.5,62.994,-113.5,31.994,-113.5,3.994C-113.5,-43.226,-113.5,-83.006,-22.5,-85.006C113.5,-87.995,71.5,8.994,71.5,8.994Z" /></g><g transform="matrix(1,0,0,1,155.188,97.499)"><path fill="#d0e9f4" d="M-0.55,11.293C-0.55,11.293,-1.035,7.801,-6.622,6.267C-13.595,4.353,-1.971,-3.962,-8.25,-8.306C-5.968,-10.709,-5.339,-11.293,-5.339,-11.293C-2.719,-7.511,0.983,-8.008,3.474,-10.137C5.509,-6.922,7.042,-5.492,10.174,-8.767C11.528,-7.852,12.787,-6.211,13.596,-4.877C10.718,-3.535,9.141,-2.758,8.487,0.35C7.96,2.492,9.029,5.58,7.81,7.384C5.98,10.092,2.787,8.2,0.633,9.638C-0.702,10.444,-0.55,11.293,-0.55,11.293Z" /></g><g transform="matrix(1,0,0,1,83.3,85.96)"><path fill="#564d3b" d="M13.557,5.628C13.557,5.628,-14.673,-0.415,-14.673,-0.415C-14.673,-0.415,-13.557,-5.628,-13.557,-5.628C-13.557,-5.628,14.673,0.416,14.673,0.416C14.673,0.416,13.557,5.628,13.557,5.628Z" /></g><g transform="matrix(1,0,0,1,116.403,121.132)"><path fill="#a0907b" d="M-16.402,62.04C-14.716,59.877,-12.776,57.926,-10.97,55.875C-4.218,48.675,-5.045,41.953,-6.516,32.958C-7.523,27.398,-5.998,21.783,-3.394,16.885C-0.785,12.095,1.615,7.218,2.316,1.738C3.636,-6.324,2.912,-14.716,4.463,-22.81C6.082,-30.912,10.042,-38.334,12.684,-46.091C14.582,-51.23,15.683,-56.619,16.402,-62.04C15.897,-56.578,14.903,-51.141,13.148,-45.934C10.62,-38.136,6.89,-30.705,5.312,-22.652C3.812,-14.538,4.6,-6.291,3.302,1.898C2.566,7.431,0.089,12.474,-2.583,17.293C-5.163,22.092,-6.623,27.426,-5.755,32.871C-3.285,48.951,-5.752,50.818,-16.402,62.04Z" /></g><g transform="matrix(1,0,0,1,135.985,66.105)"><path fill="#a0907b" d="M1.469,0.489C1.036,1.788,0.028,2.623,-0.783,2.353C-1.594,2.083,-1.902,0.811,-1.469,-0.488C-1.036,-1.788,-0.027,-2.624,0.784,-2.353C1.595,-2.083,1.902,-0.811,1.469,0.489Z" /></g><g transform="matrix(1,0,0,1,124.535,113.799)"><path fill="#a0907b" d="M1.469,0.489C1.036,1.788,0.028,2.623,-0.783,2.353C-1.594,2.083,-1.902,0.811,-1.469,-0.488C-1.036,-1.788,-0.027,-2.624,0.784,-2.353C1.595,-2.083,1.902,-0.811,1.469,0.489Z" /></g><g transform="matrix(1,0,0,1,113.294,172.401)"><path fill="#a0907b" d="M1.469,0.489C1.036,1.788,0.028,2.624,-0.783,2.354C-1.594,2.084,-1.902,0.81,-1.469,-0.489C-1.036,-1.789,-0.027,-2.623,0.784,-2.352C1.595,-2.082,1.902,-0.811,1.469,0.489Z" /></g><g transform="matrix(1,0,0,1,125.71,31.814)"><path fill="#b8a48d" d="M6.285,31.564C-0.139,26.536,-9.357,25.421,-16.898,21.789C-13.827,19.555,-10.474,15.642,-8.519,13.129C-4.889,8.1,-11.034,8.381,-14.664,8.381C-23.604,8.381,-33.1,9.497,-42.039,8.939C-39.804,1.116,-37.011,-7.263,-35.613,-15.642C-35.056,-18.156,-36.173,-24.302,-34.217,-25.978C-32.543,-27.654,-25.559,-27.933,-23.324,-28.492C-8.798,-31.564,4.609,-28.492,18.856,-26.257C22.207,-25.698,25.839,-25.699,29.19,-24.861C30.586,-24.303,32.822,-23.744,34.22,-22.905C36.455,-21.229,36.174,-21.229,36.174,-18.156C36.454,-9.218,38.967,-1.676,42.039,6.704C34.777,7.262,27.236,4.75,20.252,6.146C19.414,9.219,28.352,15.643,30.867,16.202C30.867,16.202,6.285,31.564,6.285,31.564Z" /></g><g transform="matrix(1,0,0,1,57.655,181.655)"><path fill="#2a2b30" d="M4.916,11.574C4.631,12.641,3.535,13.275,2.468,12.99C2.468,12.99,-8.618,10.028,-8.618,10.028C-9.685,9.743,-10.319,8.647,-10.034,7.58C-10.034,7.58,-4.917,-11.575,-4.917,-11.575C-4.632,-12.642,-3.535,-13.275,-2.468,-12.99C-2.468,-12.99,8.618,-10.029,8.618,-10.029C9.685,-9.744,10.319,-8.647,10.034,-7.58C10.034,-7.58,4.916,11.574,4.916,11.574Z" /></g><g transform="matrix(1,0,0,1,59.495,174.764)"><path fill="#4a4c50" d="M6.449,5.839C6.335,6.267,5.376,6.383,4.309,6.098C4.309,6.098,-6.776,3.137,-6.776,3.137C-7.843,2.852,-8.616,2.274,-8.501,1.846C-8.501,1.846,-6.448,-5.839,-6.448,-5.839C-6.334,-6.267,-5.377,-6.383,-4.31,-6.098C-4.31,-6.098,6.776,-3.136,6.776,-3.136C7.843,-2.851,8.616,-2.274,8.501,-1.846C8.501,-1.846,6.449,5.839,6.449,5.839Z" /></g><g transform="matrix(1,0,0,1,58.261,179.381)"><path fill="#bcbcbc" d="M-1.929,-0.516C-1.644,-1.582,-0.55,-2.214,0.516,-1.929C1.581,-1.645,2.214,-0.55,1.93,0.515C1.645,1.581,0.55,2.214,-0.516,1.93C-1.581,1.645,-2.214,0.55,-1.929,-0.516Z" /></g></g></g></g><g><g transform="translate(570,532.006)"><animateTransform repeatCount="indefinite" type="translate" attributeName="transform" dur="2.067s" begin="0s" calcMode="spline" values="570 532.006; 570 498.006; 570 534.006; 570 496.006; 570 532.006; 570 498.006; 570 534.006; 570 496.006; 570 532.006" keyTimes="0; 0.16129; 0.258065; 0.370968; 0.5; 0.66129; 0.758065; 0.870968; 1" keySplines="0.333 0 0.667 1; 0.333 0 0.667 1; 0.333 0 0.667 1; 0.333 0 0.667 1; 0.333 0 0.667 1; 0.333 0 0.667 1; 0.333 0 0.667 1; 0.333 0 0.667 1" fill="freeze" /><g transform="scale(1,1) translate(-113.75,-92.121)"><g transform="matrix(1,0,0,1,102.543,-3.239)"><g transform="matrix(1,0,0,1,26.023,21.167)"><path fill="#f2c4a5" d="M-25.677,8.477C-25.735,9.655,-25.773,10.896,-25.008,11.971C-24.051,13.315,-22.054,14.101,-20.134,14.682C-8.443,18.222,4.459,17.431,16.749,16.578C17.785,16.506,18.878,16.42,19.683,15.968C20.596,15.455,20.949,14.583,21.242,13.762C23.41,7.678,24.844,1.429,25.524,-4.893C25.668,-6.226,25.773,-7.596,25.244,-8.906C23.601,-12.978,16.919,-14.715,11.207,-15.57C2.986,-16.799,-5.328,-17.584,-13.641,-17.917C-21.238,-18.221,-24.715,-16.643,-24.796,-11.383C-24.898,-4.756,-25.354,1.861,-25.677,8.477Z" /></g><g transform="matrix(1,0,0,1,26.537,18.218)"><path fill="#dda58e" d="M-25.608,-6.301C-25.574,-5.494,-25.539,-4.676,-25.258,-3.901C-24.455,-1.685,-21.898,-0.326,-19.533,0.805C-6.229,7.163,7.465,12.896,21.464,17.968C23.136,11.305,24.543,4.587,25.683,-2.17C25.826,-3.023,25.96,-3.92,25.596,-4.733C25.285,-5.428,24.645,-5.977,24.001,-6.48C15.352,-13.231,3.328,-15.509,-8.144,-16.709C-12.976,-17.215,-18.798,-17.968,-23.517,-16.762C-25.96,-16.137,-25.841,-15,-25.876,-12.802C-25.911,-10.646,-25.697,-8.459,-25.608,-6.301Z" /></g></g></g></g></g><g><g transform="translate(570,532.006)"><animateTransform repeatCount="indefinite" type="translate" attributeName="transform" dur="2.067s" begin="0s" calcMode="spline" values="570 532.006; 570 498.006; 570 534.006; 570 496.006; 570 532.006; 570 498.006; 570 534.006; 570 496.006; 570 532.006" keyTimes="0; 0.16129; 0.258065; 0.370968; 0.5; 0.66129; 0.758065; 0.870968; 1" keySplines="0.333 0 0.667 1; 0.333 0 0.667 1; 0.333 0 0.667 1; 0.333 0 0.667 1; 0.333 0 0.667 1; 0.333 0 0.667 1; 0.333 0 0.667 1; 0.333 0 0.667 1" fill="freeze" /><g transform="scale(1,1) translate(-113.75,-92.121)"><g transform="matrix(1,0,0,1,102.543,-3.239)"><g transform="matrix(1,0,0,1,-17.531,12.963)"><g transform="matrix(1,0,0,1,24.966,23.505)"><path fill="#b8a48d" d="M24.169,0.383C24.469,0.353,24.716,0.601,24.665,0.899C23.57,7.377,20.6,23.255,15.591,23.007C15.323,22.993,19.937,13.454,9.772,8.264C8.094,7.407,8.415,7.177,6.772,6.264C0.883,2.99,-18.335,4.528,-21.228,1.264C-24.717,-2.673,-18.135,-9.12,-20.228,-13.736C-20.327,-13.955,-19.435,-14.615,-19.228,-14.736C-15.978,-16.653,-21.608,-17.028,-18.228,-19.736C-17.234,-20.533,-18.211,-23.255,-16.891,-23.08C-15.931,-22.952,-13.649,-20.439,-13.146,-19.538C-8.227,-10.736,-1.011,-6.476,7.772,-3.736C9.247,-3.276,20.385,0.761,24.169,0.383Z" /></g><g transform="matrix(1,0,0,1,63.094,28.858)"><path fill="#b8a48d" d="M-5.655,15.255C-5.444,15.643,-4.962,15.785,-4.556,15.612C-2.193,14.604,0.207,12.511,2.502,10.062C2.645,9.911,-10.293,0.696,-8.355,-1.089C-6.173,-3.101,9.498,-0.399,14.431,-0.093C15.039,-0.055,15.486,-0.65,15.303,-1.232C12.902,-8.88,10.605,-8.323,7.495,-15.095C7.198,-15.742,6.299,-15.785,5.949,-15.165C4.679,-12.915,2.129,-9.574,1.645,-9.089C-0.31,-7.135,-3.219,-5.181,-12.681,-5.093C-13.076,-5.089,-13.427,-4.827,-13.524,-4.444C-14.038,-2.397,-15.486,3.989,-14.355,6.911C-12.938,10.573,-7.503,11.857,-5.655,15.255Z" /></g></g></g></g></g></g><g><g transform="translate(570,532.006)"><animateTransform repeatCount="indefinite" type="translate" attributeName="transform" dur="2.067s" begin="0s" calcMode="spline" values="570 532.006; 570 498.006; 570 534.006; 570 496.006; 570 532.006; 570 498.006; 570 534.006; 570 496.006; 570 532.006" keyTimes="0; 0.16129; 0.258065; 0.370968; 0.5; 0.66129; 0.758065; 0.870968; 1" keySplines="0.333 0 0.667 1; 0.333 0 0.667 1; 0.333 0 0.667 1; 0.333 0 0.667 1; 0.333 0 0.667 1; 0.333 0 0.667 1; 0.333 0 0.667 1; 0.333 0 0.667 1" fill="freeze" /><g transform="scale(1,1) translate(-113.75,-92.121)"><g transform="matrix(1,0,0,1,124.75,24.052)"><g transform="matrix(1,0,0,1,22.594,93.262)"><path d="M-20.094,51.678C1.906,47.678,12.243,24.32,14.906,5.678C15.906,-1.322,20.095,-9.189,14.906,-40.322C13.906,-46.322,14.268,-46.589,15.964,-51.678" stroke-linejoin="round" stroke-linecap="round" stroke-width="1" stroke="#2a2b30"><animate repeatCount="indefinite" attributeName="d" dur="2.067s" begin="0s" calcMode="spline" values="M-20.094,51.678C1.906,47.678,12.243,24.32,14.906,5.678C15.906,-1.322,20.095,-9.189,14.906,-40.322C13.906,-46.322,14.268,-46.589,15.964,-51.678; M-20.094,51.678C1.906,47.678,16.305,34.946,18.968,16.304C19.968,9.304,20.095,-9.189,14.906,-40.322C13.906,-46.322,14.268,-46.589,15.964,-51.678; M-20.094,51.678C1.906,47.678,15.743,39.321,18.406,20.679C19.406,13.679,20.095,-9.189,14.906,-40.322C13.906,-46.322,14.268,-46.589,15.964,-51.678; M-20.094,51.678C1.906,47.678,12.109,32.321,14.772,13.679C15.772,6.679,20.095,-9.189,14.906,-40.322C13.906,-46.322,14.268,-46.589,15.964,-51.678; M-20.094,51.678C1.906,47.678,12.243,24.32,14.906,5.678C15.906,-1.322,20.095,-9.189,14.906,-40.322C13.906,-46.322,14.268,-46.589,15.964,-51.678; M-20.094,51.678C1.906,47.678,16.305,34.946,18.968,16.304C19.968,9.304,20.095,-9.189,14.906,-40.322C13.906,-46.322,14.268,-46.589,15.964,-51.678; M-20.094,51.678C1.906,47.678,15.743,39.321,18.406,20.679C19.406,13.679,20.095,-9.189,14.906,-40.322C13.906,-46.322,14.268,-46.589,15.964,-51.678; M-20.094,51.678C1.906,47.678,12.109,32.321,14.772,13.679C15.772,6.679,20.095,-9.189,14.906,-40.322C13.906,-46.322,14.268,-46.589,15.964,-51.678; M-20.094,51.678C1.906,47.678,12.243,24.32,14.906,5.678C15.906,-1.322,20.095,-9.189,14.906,-40.322C13.906,-46.322,14.268,-46.589,15.964,-51.678" keyTimes="0; 0.16129; 0.258065; 0.370968; 0.5; 0.66129; 0.758065; 0.870968; 1" keySplines="0.333 0 0.667 1; 0.333 0 0.667 1; 0.333 0 0.667 1; 0.333 0 0.667 1; 0.333 0 0.667 1; 0.333 0 0.667 1; 0.333 0 0.667 1; 0.333 0 0.667 1" fill="freeze" /></path></g><g transform="matrix(1,0,0,1,40.614,23.593)"><path fill="#2a2b30" d="M8.801,18.847C8.208,21.594,5.501,23.342,2.755,22.75C2.755,22.75,-11.878,19.597,-11.878,19.597C-14.625,19.006,-16.372,16.299,-15.779,13.551C-15.779,13.551,-8.8,-18.848,-8.8,-18.848C-8.208,-21.595,-5.502,-23.343,-2.755,-22.752C-2.755,-22.752,11.878,-19.599,11.878,-19.599C14.625,-19.007,16.372,-16.3,15.779,-13.553C15.779,-13.553,8.801,18.847,8.801,18.847Z" /></g><g transform="matrix(1,0,0,1,39.758,27.566)"><path fill="#4a4c50" d="M9.455,15.808C8.974,18.039,6.357,19.368,3.61,18.777C3.61,18.777,-11.022,15.624,-11.022,15.624C-13.769,15.033,-15.606,12.743,-15.125,10.512C-15.125,10.512,-9.455,-15.809,-9.455,-15.809C-8.975,-18.039,-6.357,-19.369,-3.61,-18.777C-3.61,-18.777,11.022,-15.625,11.022,-15.625C13.768,-15.034,15.606,-12.744,15.125,-10.513C15.125,-10.513,9.455,15.808,9.455,15.808Z" /></g><g transform="matrix(1,0,0,1,34.631,27.207)"><path stroke-linejoin="round" stroke-linecap="round" stroke-width="0.6" stroke="#2a2b30" d="M1.426,-6.618C1.426,-6.618,-1.426,6.618,-1.426,6.618" /></g><g transform="matrix(1,0,0,1,37.118,27.742)"><path stroke-linejoin="round" stroke-linecap="round" stroke-width="0.6" stroke="#2a2b30" d="M1.426,-6.618C1.426,-6.618,-1.426,6.618,-1.426,6.618" /></g><g transform="matrix(1,0,0,1,39.605,28.278)"><path stroke-linejoin="round" stroke-linecap="round" stroke-width="0.6" stroke="#2a2b30" d="M1.426,-6.617C1.426,-6.617,-1.426,6.617,-1.426,6.617" /></g><g transform="matrix(1,0,0,1,42.092,28.814)"><path stroke-linejoin="round" stroke-linecap="round" stroke-width="0.6" stroke="#2a2b30" d="M1.426,-6.618C1.426,-6.618,-1.426,6.618,-1.426,6.618" /></g><g transform="matrix(1,0,0,1,44.579,29.35)"><path stroke-linejoin="round" stroke-linecap="round" stroke-width="0.6" stroke="#2a2b30" d="M1.426,-6.618C1.426,-6.618,-1.426,6.618,-1.426,6.618" /></g></g></g></g></g><g><g transform="translate(570,532.006)"><animateTransform repeatCount="indefinite" type="translate" attributeName="transform" dur="2.067s" begin="0s" calcMode="spline" values="570 532.006; 570 498.006; 570 534.006; 570 496.006; 570 532.006; 570 498.006; 570 534.006; 570 496.006; 570 532.006" keyTimes="0; 0.16129; 0.258065; 0.370968; 0.5; 0.66129; 0.758065; 0.870968; 1" keySplines="0.333 0 0.667 1; 0.333 0 0.667 1; 0.333 0 0.667 1; 0.333 0 0.667 1; 0.333 0 0.667 1; 0.333 0 0.667 1; 0.333 0 0.667 1; 0.333 0 0.667 1" fill="freeze" /><g transform="scale(1,1) translate(-113.75,-92.121)"><g transform="matrix(1,0,0,1,33.5,156.243)"><g><g transform="translate(20.278,19.257)"><g transform="rotate(0)"><animateTransform repeatCount="indefinite" type="rotate" attributeName="transform" dur="2.067s" begin="0s" calcMode="spline" values="0; -11; 17; -11; 0; -11; 17; -11; 0" keyTimes="0; 0.16129; 0.258065; 0.370968; 0.5; 0.66129; 0.758065; 0.870968; 1" keySplines="0.333 0 0.667 1; 0.333 0 0.667 1; 0.333 0 0.667 1; 0.333 0 0.667 1; 0.333 0 0.667 1; 0.333 0 0.667 1; 0.333 0 0.667 1; 0.333 0 0.667 1" fill="freeze" /><g transform="scale(1,1) translate(-35.683,-26.484)"><g transform="matrix(1,0,0,1,25.683,42.984)"><path fill="#33333d" d="M17.715,-38.671C3.974,-14.295,-9.767,10.082,-23.507,34.458C-24.456,36.142,-25.433,38.12,-24.733,39.922C-23.867,42.152,-20.753,42.735,-18.599,41.695C-16.445,40.654,-15.055,38.53,-13.817,36.483C-3.852,20.02,3.448,2.074,13.113,-14.566C15.998,-19.533,19.091,-24.378,22.382,-29.086C23.739,-31.027,25.183,-33.095,25.278,-35.461C25.433,-39.33,20.006,-42.735,17.715,-38.671Z" /></g><g transform="matrix(1,0,0,1,23.502,24.094)"><path fill="#33333d" d="M-8.144,-5.051C-8.925,-5.68,-9.726,-6.334,-10.197,-7.219C-10.669,-8.104,-10.728,-9.287,-10.067,-10.042C-9.463,-10.732,-8.411,-10.884,-7.527,-10.637C-6.643,-10.39,-5.892,-9.815,-5.186,-9.229C-1.57,-6.229,1.683,-2.481,5.422,-0.243C6.622,0.474,7.899,1.094,8.93,2.038C9.961,2.981,10.728,4.357,10.512,5.738C9.706,10.884,4.094,4.814,2.554,3.572C-1.012,0.698,-4.578,-2.177,-8.144,-5.051Z" /></g><g transform="matrix(1,0,0,1,12.016,65.42)"><path fill="#ffffff" fill-opacity="0.5" d="M-10.032,14.924C-10.059,13.585,-9.214,12.406,-8.42,11.328C-3.41,4.522,1.044,-2.693,4.882,-10.223C6.005,-12.426,7.079,-14.662,8.439,-16.728C8.719,-17.154,9.213,-17.627,9.658,-17.379C9.95,-17.217,10.017,-16.831,10.029,-16.497C10.132,-13.554,8.545,-10.849,7.012,-8.335C5.152,-5.286,3.292,-2.236,1.431,0.813C-0.46,3.914,-2.391,7.122,-2.936,10.713C-3.166,12.232,-3.149,13.82,-3.761,15.23C-4.884,17.812,-9.956,18.653,-10.032,14.924Z" /></g><g transform="matrix(1,0,0,1,24.143,43.58)"><path fill="#ffffff" fill-opacity="0.5" d="M-1.447,0.684C-1.498,1.037,-1.645,1.37,-1.698,1.723C-1.75,2.076,-1.685,2.482,-1.401,2.697C-1.105,2.921,-0.675,2.859,-0.348,2.683C0.344,2.311,0.72,1.544,0.986,0.804C1.351,-0.212,1.593,-1.273,1.704,-2.347C1.718,-2.474,1.726,-2.613,1.654,-2.718C1.473,-2.98,1.066,-2.773,0.841,-2.548C-0.078,-1.626,-0.87,-0.578,-1.506,0.557C-1.506,0.557,-1.447,0.684,-1.447,0.684Z" /></g></g></g></g></g></g></g></g></g><g><g transform="translate(570,532.006)"><animateTransform repeatCount="indefinite" type="translate" attributeName="transform" dur="2.067s" begin="0s" calcMode="spline" values="570 532.006; 570 498.006; 570 534.006; 570 496.006; 570 532.006; 570 498.006; 570 534.006; 570 496.006; 570 532.006" keyTimes="0; 0.16129; 0.258065; 0.370968; 0.5; 0.66129; 0.758065; 0.870968; 1" keySplines="0.333 0 0.667 1; 0.333 0 0.667 1; 0.333 0 0.667 1; 0.333 0 0.667 1; 0.333 0 0.667 1; 0.333 0 0.667 1; 0.333 0 0.667 1; 0.333 0 0.667 1" fill="freeze" /><g transform="scale(1,1) translate(-113.75,-92.121)"><g transform="matrix(1,0,0,1,102.543,-3.239)"><g><g transform="translate(28.699,17.587)"><g transform="rotate(0)"><animateTransform repeatCount="indefinite" type="rotate" attributeName="transform" dur="2.067s" begin="0s" calcMode="spline" values="0; 2; 0; 2; 0; 2; 0; 2; 0" keyTimes="0; 0.16129; 0.258065; 0.370968; 0.5; 0.66129; 0.758065; 0.870968; 1" keySplines="0.333 0 0.667 1; 0.333 0 0.667 1; 0.333 0 0.667 1; 0.333 0 0.667 1; 0.333 0 0.667 1; 0.333 0 0.667 1; 0.333 0 0.667 1; 0.333 0 0.667 1" fill="freeze" /><g transform="scale(1,1) translate(-56.777,-115.162)"><g transform="matrix(1,0,0,1,15.594,73.079)"><path fill="#f2c4a5" d="M-1.913,-13.852C-3.535,-13.441,-5.151,-12.816,-6.38,-11.681C-9.272,-9.01,-9.19,-4.337,-7.797,-0.655C-5.262,6.043,0.548,10.904,6.393,15.043C6.926,15.42,7.722,15.772,8.158,15.285C8.344,15.076,8.383,14.778,8.411,14.499C9.272,6.086,8.777,-2.464,6.953,-10.722C5.837,-15.773,2.211,-14.897,-1.913,-13.852Z" /></g><g transform="matrix(1,0,0,1,58.885,65.229)"><path fill="#f2c4a5" d="M-35.638,-39.65C-39.601,-31.615,-40.2,-22.395,-40.73,-13.452C-41.022,-8.511,-41.314,-3.57,-41.607,1.371C-42.075,9.285,-38.9,36.944,-27.284,45.452C-20.857,50.159,-16.727,53.512,-8.872,54.839C-2.634,55.891,3.69,56.425,10.016,56.433C15.881,56.44,22.062,55.891,26.904,52.583C29.818,50.592,32.038,47.725,33.802,44.667C39.592,34.626,40.717,22.634,41.313,11.058C41.897,-0.302,42.075,-11.873,39.06,-22.841C36.045,-33.809,29.415,-44.246,19.32,-49.489C15.044,-51.709,10.317,-52.928,5.573,-53.771C-9.458,-56.44,-28.102,-54.928,-35.638,-39.65Z" /></g><g transform="matrix(1,0,0,1,55.657,20.334)"><path fill="#cebc9e" d="M53.33,-7.275C54,-10.419,55.341,-17.319,35.992,-18.982C26.804,-19.771,14.973,-20.084,5.847,-18.758C-14.985,-15.732,-33.597,-9.807,-51.722,0.898C-53.43,1.907,-55.303,3.305,-55.326,5.289C-55.341,6.587,-54.535,7.733,-53.76,8.774C-51.261,12.137,-49.518,16.359,-45.706,18.096C-41.341,20.084,-35.351,18.695,-30.604,18.005C-14.257,15.627,2.088,13.25,18.435,10.873C24.265,10.025,31.56,10.151,37.093,7.995C40.402,6.705,51.834,-0.261,53.33,-7.275Z" /></g><g transform="matrix(1,0,0,1,52.532,26.705)"><path fill="#b8a48d" d="M52.283,-6.873C49.853,-8.821,46.468,-9.732,43.297,-10.226C23.498,-13.309,3.536,-7.464,-16.418,-5.63C-21.2,-5.191,-26.021,-4.982,-30.801,-5.436C-33.049,-5.649,-35.378,-6.046,-37.204,-7.373C-38.253,-8.136,-39.063,-9.199,-39.573,-10.39C-42.622,-8.866,-45.651,-7.23,-48.664,-5.45C-50.372,-4.441,-52.245,-3.043,-52.268,-1.06C-52.283,0.239,-51.475,1.384,-50.701,2.426C-48.202,5.789,-46.461,10.01,-42.648,11.747C-39.217,13.309,-34.785,12.785,-30.739,12.155C-30.675,12.122,-30.612,12.086,-30.549,12.054C-18.744,6.081,-5.52,3.351,7.672,2.346C17.98,1.56,28.326,1.793,38.664,2.154C39.17,1.999,39.67,1.834,40.151,1.646C42.363,0.784,48.206,-2.617,52.283,-6.873Z" /></g><g transform="matrix(1,0,0,1,74.859,44.029)"><path fill="#b8a48d" d="M-17.974,6.973C-13.592,8.917,-8.91,10.108,-4.192,10.957C6.573,12.895,17.649,13.08,28.476,11.521C30.333,11.254,32.352,10.842,33.539,9.388C34.827,7.81,34.687,5.43,33.745,3.624C32.804,1.818,31.21,0.456,29.654,-0.859C25.976,-3.969,22.185,-7.145,17.634,-8.72C14.839,-9.687,11.868,-10.009,8.927,-10.324C-4.308,-11.742,-18.169,-13.081,-30.524,-8.125C-31.821,-7.605,-34.827,-6.324,-34.683,-4.522C-34.553,-2.89,-31.038,-1.099,-29.821,-0.202C-26.1,2.539,-22.21,5.094,-17.974,6.973Z" /></g><g transform="matrix(1,0,0,1,53.676,35.505)"><path fill="#cebc9e" d="M17.904,-0.559C26.779,-1.444,36.158,-1.407,44.077,2.695C43.473,-0.984,44.291,-5.992,43.687,-9.672C14.851,-16.751,-17.93,-11.682,-44.291,1.984C-41.572,6.495,-38.852,11.008,-36.131,15.523C-35.892,15.92,-35.837,16.373,-36.013,16.752C-32.632,10.889,-16.795,7.172,-10.496,5.216C-1.254,2.347,8.274,0.402,17.904,-0.559Z" /></g><g transform="matrix(1,0,0,1,25.334,40.864)"><path fill="#b8a48d" d="M-7.43,14.125C-6.763,12.854,-5.55,11.977,-4.361,11.172C2.16,6.756,9.205,3.115,16.579,0.348C10.017,-1.759,4.558,-7.041,2.236,-13.53C2.023,-14.125,-11.215,-7.458,-12.363,-6.779C-13.521,-6.095,-14.69,-5.402,-15.794,-4.633C-16.428,-4.192,-16.579,-4.073,-16.242,-3.37C-15.957,-2.775,-15.526,-2.218,-15.185,-1.652C-13.759,0.718,-12.429,3.144,-11.197,5.62C-9.815,8.397,-8.557,11.235,-7.43,14.125Z" /></g><g transform="matrix(1,0,0,1,72.05,77.134)"><path fill="#dda58e" d="M8.675,12.083C3.527,14.159,-1.761,15.89,-7.14,17.26C-7.651,15.045,-8.164,12.829,-8.675,10.614C-5.588,10.982,-2.451,10.927,0.621,10.452C-0.76,1.409,-0.821,-7.835,0.441,-16.896C0.491,-17.26,3.252,-17.16,3.551,-16.85C4.052,-16.329,3.765,-13.653,3.819,-12.904C4.026,-10.048,4.349,-7.2,4.785,-4.369C5.644,1.206,6.945,6.713,8.675,12.083Z" /></g><g transform="matrix(1,0,0,1,46.91,71.278)"><path fill="#000000" d="M12.604,-14.023C16.264,-14.076,20.564,-13.508,22.374,-9.967C23.536,-7.693,23.25,-4.75,22.176,-2.401C21.102,-0.052,19.345,1.812,17.553,3.531C13.587,7.334,9.178,10.733,4.182,12.404C-0.813,14.076,-6.484,13.841,-10.871,10.757C-16.23,6.991,-23.536,-4.525,-15.43,-9.154C-7.666,-13.586,4.101,-13.898,12.604,-14.023Z" /></g><g transform="matrix(1,0,0,1,94.437,72.208)"><path fill="#000000" d="M-10.837,-13.597C-13.847,-13.511,-17.343,-12.781,-18.613,-9.178C-19.428,-6.864,-19.014,-3.938,-17.988,-1.635C-16.962,0.669,-15.405,2.461,-13.827,4.108C-10.337,7.753,-6.507,10.976,-2.302,12.454C1.904,13.932,6.547,13.482,9.962,10.238C14.133,6.275,19.428,-5.494,12.486,-9.804C5.837,-13.932,-3.845,-13.797,-10.837,-13.597Z" /></g><g transform="matrix(1,0,0,1,72.459,61.405)"><path fill="#000000" d="M9.195,-2.494C10.412,-2.299,9.44,-1.265,10.34,-0.424C11.24,0.417,11.46,2.092,10.451,2.799C8.053,0.587,4.625,-0.278,1.368,-0.062C-1.888,0.155,-5.004,1.356,-7.911,2.839C-8.744,3.264,-9.76,3.713,-10.559,3.229C-11.253,2.809,-11.419,1.885,-11.439,1.075C-11.459,0.295,-11.402,-0.51,-11.066,-1.213C-9.873,-3.713,-5.305,-3.004,-3.095,-2.906C0.272,-2.755,5.872,-3.026,9.195,-2.494Z" /></g><g transform="matrix(1,0,0,1,17.313,69.356)"><path fill="#dda58e" d="M-3.041,-5.092C-4.533,-4.344,-5.369,-2.484,-4.937,-0.872C-4.666,0.144,-3.976,0.988,-3.305,1.797C-1.229,4.301,0.846,6.804,2.921,9.307C0.976,6.961,5.369,-9.308,-3.041,-5.092Z" /></g><g transform="matrix(1,0,0,1,38.045,67.595)"><path fill="#ffffff" d="M-4.125,-3.051C-5.334,-1.717,-5.956,0.129,-5.8,1.922C-5.694,3.138,-5.19,4.385,-4.183,5.073C-3.175,5.761,-1.614,5.681,-0.896,4.695C-0.271,3.837,-0.436,2.667,-0.314,1.613C-0.102,-0.22,1.129,-1.901,2.812,-2.656C3.973,-3.177,5.533,-3.502,5.816,-4.742C6.042,-5.735,1.363,-5.543,0.74,-5.43C-1.048,-5.105,-2.883,-4.421,-4.125,-3.051Z" /></g><g transform="matrix(1,0,0,1,87.183,65.842)"><path fill="#ffffff" d="M-6.287,-2.916C-8.041,-0.875,-8.141,2.525,-6.233,4.422C-5.617,5.034,-4.727,5.488,-3.892,5.251C-2.971,4.988,-2.459,3.997,-2.259,3.06C-2.059,2.123,-2.055,1.13,-1.649,0.262C-0.974,-1.183,0.649,-1.932,2.209,-2.262C3.769,-2.591,5.402,-2.625,6.89,-3.197C7.344,-3.372,7.854,-3.887,7.534,-4.254C7.42,-4.385,7.237,-4.427,7.066,-4.462C3.097,-5.264,-3.258,-6.44,-6.287,-2.916Z" /></g></g></g></g></g></g></g></g></g><g><g transform="translate(570,532.006)"><animateTransform repeatCount="indefinite" type="translate" attributeName="transform" dur="2.067s" begin="0s" calcMode="spline" values="570 532.006; 570 498.006; 570 534.006; 570 496.006; 570 532.006; 570 498.006; 570 534.006; 570 496.006; 570 532.006" keyTimes="0; 0.16129; 0.258065; 0.370968; 0.5; 0.66129; 0.758065; 0.870968; 1" keySplines="0.333 0 0.667 1; 0.333 0 0.667 1; 0.333 0 0.667 1; 0.333 0 0.667 1; 0.333 0 0.667 1; 0.333 0 0.667 1; 0.333 0 0.667 1; 0.333 0 0.667 1" fill="freeze" /><g transform="scale(1,1) translate(-113.75,-92.121)"><g transform="matrix(1,0,0,1,102.543,-3.239)"><g><g transform="translate(28.699,17.587)"><g transform="rotate(0)"><animateTransform repeatCount="indefinite" type="rotate" attributeName="transform" dur="2.067s" begin="0s" calcMode="spline" values="0; 2; 0; 2; 0; 2; 0; 2; 0" keyTimes="0; 0.16129; 0.258065; 0.370968; 0.5; 0.66129; 0.758065; 0.870968; 1" keySplines="0.333 0 0.667 1; 0.333 0 0.667 1; 0.333 0 0.667 1; 0.333 0 0.667 1; 0.333 0 0.667 1; 0.333 0 0.667 1; 0.333 0 0.667 1; 0.333 0 0.667 1" fill="freeze" /><g transform="scale(1,1) translate(-56.777,-115.162)"><g transform="matrix(1,0,0,1,48.329,99.506)"><g transform="matrix(1,0,0,1,17.312,6.795)"><path fill="#dda58e" d="M-14.812,-4.295C-8.306,-1.62,9.63,4.295,14.812,-3.368" /></g><g transform="matrix(1,0,0,1,17.312,6.795)"><path stroke-miterlimit="10" stroke-width="1" stroke="#dda58e" d="M-14.812,-4.295C-8.306,-1.62,9.63,4.295,14.812,-3.368" /></g></g></g></g></g></g></g></g></g></g></g></g></svg>