<svg fill="none" height="100%" width="100%" viewBox="0 0 1080 1080" xmlns:xlink="http://www.w3.org/1999/xlink" xmlns="http://www.w3.org/2000/svg"><g id="i0"><g transform="translate(539.5,555.5)"><g transform="scale(1,1)"><animateTransform repeatCount="indefinite" type="scale" attributeName="transform" dur="4s" begin="0s" calcMode="spline" values="1 1; 1 1; 0.4 0.4; 0.4 0.4; 1 1; 1 1" keyTimes="0; 0.283333; 0.341667; 0.75; 0.808333; 1" keySplines="0 0 1 1; 0 0 0.36 1; 0.22 0.61 1 1; 0.22 0.61 1 1; 0 0 1 1" fill="freeze" /><g transform="translate(-539.5,-555.5)"><g id="i0"><ellipse ry="371.5" rx="371.5" cy="555.5" cx="539.5" fill="#0041a8" /></g></g></g></g></g><g id="i1"><g transform="translate(539.5,555.5)"><g transform="scale(1,1)"><animateTransform repeatCount="indefinite" type="scale" attributeName="transform" dur="4s" begin="0s" calcMode="spline" values="1 1; 1 1; -0.17 -0.17; -0.17 -0.17; 1 1; 1 1" keyTimes="0; 0.25; 0.341667; 0.725; 0.808333; 1" keySplines="0 0 1 1; 0 0 0.36 1; 0.22 0.61 1 1; 0.22 0.61 1 1; 0 0 1 1" fill="freeze" /><g transform="translate(-539.5,-555.5)"><g id="i1"><ellipse ry="323.5" rx="323.5" cy="555.5" cx="539.5" fill="#0058e3" /></g></g></g></g></g><g transform="matrix(1,0,0,1,0,0)" id="i2"><g id="i3"><path fill="#3a86ff" d="M168.3,540C168.1,545.1,168,550.3,168,555.5C168,760.7,334.3,927,539.5,927C744.7,927,911,760.7,911,555.5C911,550.3,910.9,545.1,910.7,540C910.7,540,168.3,540,168.3,540C168.3,540,168.3,540,168.3,540Z" /></g><g id="i4"><path fill="#00c1a2" d="M910.4,577.5C907,580.1,903.8,584.4,899.9,591.3C899,595.6,894.7,603,884.3,597.8C879.9,595.6,876.2,592.7,872.7,590C866,584.7,860.1,580.1,851.1,582.2C845.6,583.5,844.4,585.3,843.3,586.9C841.7,589.3,840.4,591.3,825.7,591.3C815.1,591.3,811.7,585.4,807.9,579C802.9,570.4,797.4,560.9,773.7,562.7C732.1,565.9,710,580.9,706.7,591.3C706.1,593.1,705.7,595,705.2,597.1C702.9,606.9,700,619,683.3,627.1C667.6,634.7,670.4,648.5,672.8,660.1C673.5,663.4,674.1,666.6,674.3,669.3C675,681.6,682.1,700.5,694.5,710.3C697.9,713,700.2,715.9,702.5,718.6C708.5,726,713.7,732.5,735.5,731.1C750.5,730.1,754.4,725.1,757.8,720.6C761.2,716.1,764.1,712.3,777.1,713.6C803.1,716.2,814.8,718.8,806.4,735.7C798,752.6,797.9,760.4,809.6,778.6C821.3,796.8,814.8,805.3,806.4,813.1C804.6,814.7,803.1,816.6,801.8,818.9C864.3,756.4,904.9,671.6,910.4,577.5C910.4,577.5,910.4,577.5,910.4,577.5C910.4,577.5,910.4,577.5,910.4,577.5Z" /></g><g id="i5"><path fill="#00c1a2" d="M910.9,565.8C911,562.4,911,558.9,911,555.5C911,550.3,910.9,545.1,910.7,540C910.7,540,812.4,540,812.4,540C813.6,541.9,815.5,544.7,819.9,549C832.9,562,826.4,567.2,823,568.5C815.5,571.4,815.7,576.3,821.2,576.3C827.7,576.3,833.7,573.1,839.5,568.5C841.8,566.7,842.9,563,844,559.2C845.6,553.4,847.3,547.5,853.5,547.5C857.4,547.5,859.4,551,861.8,555.1C865.8,562.1,871,571,888.1,568.6C898.2,567.1,905.2,566.2,910.9,565.8C910.9,565.8,910.9,565.8,910.9,565.8C910.9,565.8,910.9,565.8,910.9,565.8Z" /></g><g id="i6"><path fill="#00c1a2" d="M778,540C777.3,540.7,776.7,541.4,776,542.2C772.5,546.1,768.5,550.5,762.6,554.3C746.4,564.7,726.2,557.5,717.1,549.1C714,546.3,712.5,543.2,712.4,540.1C712.4,540.1,778,540.1,778,540.1C778,540.1,778,540,778,540C778,540,778,540,778,540Z" /></g><g id="i7"><path fill="#00c1a2" d="M361.1,881.4C365.2,879.7,370.1,879.2,374.9,878.7C384.4,877.7,393.3,876.7,394.7,866.9C396.3,855.7,381,852.1,364.7,848.3C354.5,845.9,343.8,843.4,336.8,838.9C327,832.6,327.2,827.4,327.5,818.9C327.8,811.6,328.2,801.9,322.5,786.9C310.1,754.4,290.5,757.9,273.7,770.6C266.7,775.9,262.1,786.1,258.4,798.3C287.3,831.8,322.1,860,361.1,881.4C361.1,881.4,361.1,881.4,361.1,881.4C361.1,881.4,361.1,881.4,361.1,881.4Z" /></g><g id="i8"><path fill="#00c1a2" d="M215.3,540C221.5,549.9,229.3,554.8,248.4,555.8C253.1,556,257.4,556.1,261.5,556.3C279,556.7,290.5,557,292.6,567.5C293.2,570.4,293.2,574.4,293.2,579.2C293.2,595.8,293.2,621,318,636.2C340.5,650,362.3,651.2,378.2,652.2C384.8,652.6,390.5,652.9,394.7,654.1C401.4,655.9,401.3,658.3,401.2,661.7C401.1,665.7,401,671.2,410.9,679.1C419.2,685.8,424.7,686.3,430,686.8C434.2,687.2,438.2,687.6,443.4,691.1C449.8,695.4,444.9,700.9,438.6,707.8C433.4,713.5,427.3,720.2,425.9,728.1C422.7,745.6,425.3,761.9,443.4,780.8C450.7,788.4,458.3,792.8,464.7,796.6C474.2,802.2,481.1,806.3,481.1,816.9C481.1,818.9,481,821.8,480.8,825.3C480,841.6,478.4,871.9,487,894.9C490.5,904.4,492.9,909.9,494.5,913.9C496.3,918.3,497.4,920.8,498.5,924.7C511.8,926.2,525.4,926.9,539.1,926.9C537.4,921.6,537.2,915.8,540.3,909.1C547.8,892.9,567.5,884.1,578.6,879.2C579.1,879,579.6,878.8,580,878.6C593.7,872.5,609.3,860,607.3,834C606.1,818.2,615.3,815.2,624.5,812.3C630.4,810.4,636.4,808.5,639.8,803.2C640.6,801.9,641.8,800.2,643.2,798.1C656.6,778.5,690.9,728.4,633.3,719C590.1,712,576.8,712.4,571.7,706.1C569.3,703.1,568.7,698.6,567.6,691.1C564.4,667.7,544.8,666.4,527.9,669C520.2,670.2,514.4,666,508.3,661.7C500.9,656.4,493.1,650.9,481.1,654.1C470.7,656.9,465.5,661.7,461.5,665.5C456.5,670.2,453.1,673.4,443.4,669C429.7,662.9,431,655.9,432.3,649.4C432.7,647.6,433,645.7,433,644C433,632,417.4,623.2,394.6,629.7C371.8,636.2,365.3,589.7,388.1,583.8C395.8,581.8,404.8,582.3,414.2,582.8C432.7,583.8,452.8,584.8,467.4,567.6C475.5,558,481.2,548.8,486.6,540.1C486.6,540.1,215.3,540,215.3,540C215.3,540,215.3,540,215.3,540C215.3,540,215.3,540,215.3,540Z" /></g></g><g id="i9"><g transform="translate(284,377)"><animateTransform repeatCount="indefinite" type="translate" attributeName="transform" dur="4s" begin="0s" calcMode="spline" values="284 377; 320 377; 284 377; 284 377" keyTimes="0; 0.450001; 0.991667; 1" keySplines="0 0 0.36 1; 0.65 0 1 1; 0 0 1 1" fill="freeze" /><g transform="translate(-283.986,-377)"><g id="i9"><path fill="#ffffff" d="M184.3,377C187.8,377,191.2,377.6,194.6,378.6C192.9,374.6,192,370.1,192,365.5C192,356.3,195.6,347.5,202.1,341C208.6,334.5,217.3,330.9,226.5,330.9C234,330.9,241.3,333.4,247.2,338C249.9,327.2,256.1,317.6,264.9,310.7C273.7,303.8,284.4,300.1,295.5,300.1C305.8,300.1,315.9,303.3,324.3,309.3C332.7,315.3,339.1,323.8,342.5,333.6C350.9,331,359.8,330.2,368.6,331.4C377.4,332.5,385.8,335.6,393.2,340.3C400.6,345,407.1,351.3,411.9,358.7C416.7,366.1,419.9,374.5,421.3,383.2C422.6,392,422,400.9,419.6,409.4C417.2,417.9,412.9,425.8,407.2,432.5C401.4,439.2,394.3,444.6,386.3,448.3C378.3,452,369.5,453.9,360.7,453.9C360.7,453.9,184.3,453.9,184.3,453.9C174.1,453.9,164.4,449.8,157.2,442.6C150,435.4,146,425.6,146,415.4C146,405.2,150,395.4,157.2,388.2C164.4,381,174.2,377,184.3,377C184.3,377,184.3,377,184.3,377C184.3,377,184.3,377,184.3,377Z"><animate repeatCount="indefinite" attributeName="fill" dur="4s" begin="0s" fill="freeze" values="#ffffff; #ffffff; #f2eaff; #f2eaff; #ffffff; #ffffff" keyTimes="0; 0.25; 0.308334; 0.75; 0.808333; 1" keySplines="0 0 1 1; 0 0 1 1; 0 0 1 1; 0 0 1 1; 0 0 1 1" calcMode="spline" /></path></g></g></g></g><g id="i10"><g transform="translate(439,211)"><animateTransform repeatCount="indefinite" type="translate" attributeName="transform" dur="4s" begin="0s" calcMode="spline" values="439 211; 421 211; 443 211; 439 211; 439 211" keyTimes="0; 0.391667; 0.758333; 0.983333; 1" keySplines="0 0 0.36 1; 0.65 0 0.36 1; 0.65 0 1 1; 0 0 1 1" fill="freeze" /><g transform="translate(-438.65,-210.87)"><g id="i10"><path fill="#ffffff" d="M401.1,252.7C401.1,252.7,472.2,252.7,472.2,252.7C480,252.7,487.4,249.6,492.9,244.1C498.4,238.6,501.5,231.1,501.5,223.4C501.5,215.7,498.4,208.2,492.9,202.7C487.4,197.2,480,194,472.2,194C471.8,194,471.5,194,471.1,194.1C469.1,186.2,464.2,179.4,457.5,174.8C450.8,170.2,442.6,168.3,434.5,169.3C426.4,170.3,419,174.2,413.6,180.3C408.2,186.4,405.2,194.2,405.2,202.4C405.2,202.4,401,202.4,401,202.4C394.3,202.4,388,205,383.2,209.8C378.4,214.6,375.8,220.9,375.8,227.6C375.8,234.3,378.4,240.7,383.2,245.4C388,250.1,394.5,252.6,401.1,252.7C401.1,252.7,401.1,252.7,401.1,252.7C401.1,252.7,401.1,252.7,401.1,252.7Z"><animate repeatCount="indefinite" attributeName="fill" dur="4s" begin="0s" fill="freeze" values="#ffffff; #ffffff; #f2eaff; #f2eaff; #f2eaff" keyTimes="0; 0.25; 0.308333; 0.75; 1" keySplines="0 0 1 1; 0 0 1 1; 0 0 1 1; 0 0 1 1" calcMode="spline" /></path></g></g></g></g><g id="i11"><g transform="translate(834,331)"><animateTransform repeatCount="indefinite" type="translate" attributeName="transform" dur="4s" begin="0s" calcMode="spline" values="834 331; 802 331; 834 331; 834 331" keyTimes="0; 0.525; 0.916667; 1" keySplines="0 0 0.36 1; 0.65 0 1 1; 0 0 1 1" fill="freeze" /><g transform="translate(-834.364,-330.75)"><g id="i11"><path fill="#ffffff" d="M915.6,330.7C912.8,330.7,909.9,331.2,907.2,332C908.5,328.7,909.3,325.1,909.3,321.3C909.3,313.8,906.3,306.6,901.1,301.3C895.8,296,888.7,293,881.2,293C875.1,293,869.2,295,864.3,298.8C862.1,290,857,282.2,849.9,276.6C842.8,271,834,268,824.9,268C816.5,268,808.3,270.6,801.4,275.5C794.5,280.4,789.4,287.3,786.6,295.3C779.7,293.2,772.5,292.5,765.4,293.5C758.3,294.5,751.4,296.9,745.3,300.7C739.2,304.5,734,309.7,730.1,315.7C726.2,321.7,723.6,328.6,722.5,335.7C721.4,342.8,721.9,350.1,723.9,357.1C725.9,364.1,729.3,370.5,734,376C738.7,381.5,744.5,385.9,751,388.9C757.5,391.9,764.6,393.5,771.8,393.5C771.8,393.5,915.5,393.5,915.5,393.5C923.8,393.5,931.7,390.2,937.6,384.3C943.5,378.4,946.8,370.4,946.8,362.1C946.8,353.8,943.5,345.8,937.6,339.9C931.8,334,923.9,330.7,915.6,330.7C915.6,330.7,915.6,330.7,915.6,330.7C915.6,330.7,915.6,330.7,915.6,330.7Z"><animate repeatCount="indefinite" attributeName="fill" dur="4s" begin="0s" fill="freeze" values="#ffffff; #ffffff; #f2eaff; #f2eaff; #ffffff; #ffffff" keyTimes="0; 0.25; 0.308334; 0.75; 0.808333; 1" keySplines="0 0 1 1; 0 0 1 1; 0 0 1 1; 0 0 1 1; 0 0 1 1" calcMode="spline" /></path></g></g></g></g><g transform="matrix(1,0,0,1,0,0)" id="i12"><g id="i13" transform="matrix(1,0,0,1,0,0)"><path fill="#007d7c" d="M642.5,202.5C642.5,202.5,909,540,909,540C909,540,376,540,376,540C376,540,642.5,202.5,642.5,202.5C642.5,202.5,642.5,202.5,642.5,202.5Z"><animate repeatCount="indefinite" attributeName="fill" dur="4s" begin="0s" fill="freeze" values="#007d7c; #007d7c; #004f4f; #004f4f; #007d7c; #007d7c" keyTimes="0; 0.25; 0.308334; 0.75; 0.808333; 1" keySplines="0 0 1 1; 0 0 1 1; 0 0 1 1; 0 0 1 1; 0 0 1 1" calcMode="spline" /></path></g><g id="i14" transform="matrix(1,0,0,1,0,0)"><path fill="#019d91" d="M386,267.7C386,267.7,601,540,601,540C601,540,171,540,171,540C171,540,386,267.7,386,267.7C386,267.7,386,267.7,386,267.7Z"><animate repeatCount="indefinite" attributeName="fill" dur="4s" begin="0s" fill="freeze" values="#019d91; #019d91; #007d7c; #007d7c; #019d91; #019d91" keyTimes="0; 0.25; 0.308334; 0.75; 0.808333; 1" keySplines="0 0 1 1; 0 0 1 1; 0 0 1 1; 0 0 1 1; 0 0 1 1" calcMode="spline" /></path></g></g><g transform="matrix(1,0,0,1,0.5,-0.6)" id="i15"><g id="i16"><g id="i17" transform="matrix(1,0,0,1,0,0)"><path fill="#00ddb4" d="M392,435.5C392,473.3,361.3,504,323.5,504C285.7,504,255,473.3,255,435.5C255,397.7,285.7,367,323.5,367C361.3,367,392,397.7,392,435.5C392,435.5,392,435.5,392,435.5Z"><animate repeatCount="indefinite" attributeName="fill" dur="4s" begin="0s" fill="freeze" values="#00ddb4; #00ddb4; #019d91; #019d91; #00ddb4; #00ddb4" keyTimes="0; 0.25; 0.308334; 0.75; 0.808333; 1" keySplines="0 0 1 1; 0 0 1 1; 0 0 1 1; 0 0 1 1; 0 0 1 1" calcMode="spline" /></path></g><g id="i18" transform="matrix(1,0,0,1,0,0)"><path fill="#933d00" d="M348.1,433.4C347,431.8,344.7,431.4,343.1,432.5C343.1,432.5,321.7,447.7,321.7,447.7C321.7,447.7,325.9,453.6,325.9,453.6C325.9,453.6,347.3,438.4,347.3,438.4C348.9,437.3,349.2,435.1,348.1,433.4C348.1,433.4,348.1,433.4,348.1,433.4C348.1,433.4,348.1,433.4,348.1,433.4ZM302.7,449.5C301.3,448.1,299,448.2,297.6,449.6C296.2,451,296.3,453.3,297.7,454.7C297.7,454.7,320.5,476.4,320.5,476.4C320.5,476.4,325.5,471.2,325.5,471.2C325.5,471.2,302.7,449.5,302.7,449.5C302.7,449.5,302.7,449.5,302.7,449.5C302.7,449.5,302.7,449.5,302.7,449.5Z" /></g><g id="i19" transform="matrix(1,0,0,1,0,0)"><path fill="#bb4f00" d="M323.5,417.5C321.5,417.5,319.9,419.1,319.9,421.1C319.9,421.1,319.9,540.1,319.9,540.1C319.9,540.1,327.1,540.1,327.1,540.1C327.1,540.1,327.1,421.1,327.1,421.1C327.1,419.1,325.5,417.5,323.5,417.5C323.5,417.5,323.5,417.5,323.5,417.5C323.5,417.5,323.5,417.5,323.5,417.5Z" /></g><g id="i20" transform="matrix(1,0,0,1,0,0)"><path fill="#ff8a7d" d="M359.6,464.3C359.6,468.3,356.4,471.5,352.4,471.5C348.4,471.5,345.2,468.3,345.2,464.3C345.2,460.3,348.4,457.1,352.4,457.1C356.4,457.1,359.6,460.4,359.6,464.3C359.6,464.3,359.6,464.3,359.6,464.3ZM352.3,403C352.3,407,349.1,410.2,345.1,410.2C341.1,410.2,337.9,407,337.9,403C337.9,399,341.1,395.8,345.1,395.8C349.1,395.8,352.3,399.1,352.3,403C352.3,403,352.3,403,352.3,403ZM294.7,424.7C294.7,428.7,291.5,431.9,287.5,431.9C283.5,431.9,280.3,428.7,280.3,424.7C280.3,420.7,283.5,417.5,287.5,417.5C291.5,417.5,294.7,420.7,294.7,424.7C294.7,424.7,294.7,424.7,294.7,424.7Z" /></g></g><g id="i21"><g id="i22"><path fill="#00ddb4" d="M710,464C710,491.6,732.4,514,760,514C787.6,514,810,491.6,810,464C810,436.4,787.6,414,760,414C732.4,414,710,436.4,710,464C710,464,710,464,710,464Z"><animate repeatCount="indefinite" attributeName="fill" dur="4s" begin="0s" fill="freeze" values="#00ddb4; #00ddb4; #019d91; #019d91; #00ddb4; #00ddb4" keyTimes="0; 0.25; 0.308334; 0.75; 0.808333; 1" keySplines="0 0 1 1; 0 0 1 1; 0 0 1 1; 0 0 1 1; 0 0 1 1" calcMode="spline" /></path></g><g id="i23" transform="matrix(1,0,0,1,0,0)"><path fill="#933d00" d="M742.1,462.5C742.9,461.3,744.6,461,745.8,461.9C745.8,461.9,761.5,473,761.5,473C761.5,473,758.5,477.3,758.5,477.3C758.5,477.3,742.9,466.2,742.9,466.2C741.5,465.3,741.2,463.7,742.1,462.5C742.1,462.5,742.1,462.5,742.1,462.5C742.1,462.5,742.1,462.5,742.1,462.5ZM775.2,474.2C776.2,473.2,777.9,473.2,778.9,474.3C779.9,475.4,779.9,477,778.8,478C778.8,478,762.1,493.8,762.1,493.8C762.1,493.8,758.5,490,758.5,490C758.5,490,775.2,474.2,775.2,474.2C775.2,474.2,775.2,474.2,775.2,474.2C775.2,474.2,775.2,474.2,775.2,474.2Z" /></g><g id="i24" transform="matrix(1,0,0,1,0,0)"><path fill="#bb4f00" d="M760,450.8C761.5,450.8,762.6,452,762.6,453.4C762.6,453.4,762.6,540.2,762.6,540.2C762.6,540.2,757.3,540.2,757.3,540.2C757.3,540.2,757.3,453.4,757.3,453.4C757.4,452,758.5,450.8,760,450.8C760,450.8,760,450.8,760,450.8Z" /></g><g id="i25"><path fill="#ff8a7d" d="M733.7,485C733.7,487.9,736.1,490.3,739,490.3C741.9,490.3,744.3,487.9,744.3,485C744.3,482.1,741.9,479.7,739,479.7C736.1,479.7,733.7,482.1,733.7,485C733.7,485,733.7,485,733.7,485ZM739,440.3C739,443.2,741.4,445.6,744.3,445.6C747.2,445.6,749.6,443.2,749.6,440.3C749.6,437.4,747.2,435,744.3,435C741.4,435,739,437.4,739,440.3C739,440.3,739,440.3,739,440.3ZM781,456.1C781,459,783.3,461.4,786.3,461.4C789.3,461.4,791.6,459,791.6,456.1C791.6,453.2,789.2,450.8,786.3,450.8C783.4,450.8,781,453.2,781,456.1C781,456.1,781,456.1,781,456.1Z" /></g></g></g><g id="i26"><g id="i26"><ellipse ry="75.5" rx="75.5" cy="707.5" cx="394.5" fill="#004f4f" /></g></g><g id="i27"><g transform="translate(372.5,707.405)"><animateTransform repeatCount="indefinite" type="translate" attributeName="transform" dur="4s" begin="0s" calcMode="spline" values="372.5 707.405; 372.5 707.405; 387 707; 372.5 707.405; 372.5 707.405; 387 707; 372.5 707.405; 372.5 707.405" keyTimes="0; 0.25; 0.308333; 0.358333; 0.75; 0.808333; 0.858333; 1" keySplines="0 0 1 1; 0 0 0.36 1; 0.65 0 1 1; 0 0 1 1; 0 0 0.36 1; 0.65 0 1 1; 0 0 1 1" fill="freeze" /><g transform="translate(-372.5,-707.5)"><g id="i28"><ellipse ry="75.5" rx="75.5" cy="707.5" cx="372.5" fill="#d6fef1" /></g><g id="i29"><path stroke-linejoin="round" stroke-linecap="round" stroke-width="10.59" stroke="#3d4853" d="M372.5,672.2C372.5,672.2,372.5,705.7,372.5,705.7" /></g><g id="i30"><path stroke-linejoin="round" stroke-linecap="round" stroke-width="10.59" stroke="#3d4853" d="M393.7,674.9C400.7,679.5,406.1,686.2,409,694C411.9,701.9,412.2,710.4,409.8,718.5C407.4,726.5,402.5,733.6,395.8,738.6C389.1,743.6,380.9,746.3,372.6,746.3C364.3,746.3,356.1,743.6,349.4,738.6C342.7,733.6,337.8,726.6,335.4,718.5C333,710.5,333.3,701.9,336.2,694C339.1,686.1,344.4,679.4,351.5,674.9" /></g></g></g></g><g transform="matrix(1,0,0,1,0,0)" id="i31"><g id="i32" transform="matrix(1,0,0,1,0,0)"><g id="i32"><rect height="212" width="100" y="328" x="526" fill="#f850f0"><animate repeatCount="indefinite" attributeName="fill" dur="4s" begin="0s" fill="freeze" values="#f850f0; #f850f0; #8746ff; #8746ff; #f850f0; #f850f0" keyTimes="0; 0.25; 0.308334; 0.75; 0.808333; 1" keySplines="0 0 1 1; 0 0 1 1; 0 0 1 1; 0 0 1 1; 0 0 1 1" calcMode="spline" /></rect></g></g><g id="i33" transform="matrix(1,0,0,1,0,0)"><g id="i33"><path fill="#933d00" d="M526,328C526,328,626,328,626,328C626,328,675.5,257,675.5,257C675.5,257,575.5,257,575.5,257C575.5,257,526,328,526,328C526,328,526,328,526,328Z"><animate repeatCount="indefinite" attributeName="fill" dur="4s" begin="0s" fill="freeze" values="#933d00; #933d00; #4e3a82; #4e3a82; #933d00; #933d00" keyTimes="0; 0.25; 0.308334; 0.75; 0.808333; 1" keySplines="0 0 1 1; 0 0 1 1; 0 0 1 1; 0 0 1 1; 0 0 1 1" calcMode="spline" /></path></g></g><g id="i34" transform="matrix(1,0,0,1,0,0)"><g id="i34"><path fill="#ff7bf9" d="M725,328C725,328,675.5,257,675.5,257C675.5,257,626,328,626,328C626,328,626,540,626,540C626,540,725,540,725,540C725,540,725,328,725,328C725,328,725,328,725,328Z"><animate repeatCount="indefinite" attributeName="fill" dur="4s" begin="0s" fill="freeze" values="#ff7bf9; #ff7bf9; #9c73f8; #9c73f8; #ff7bf9; #ff7bf9" keyTimes="0; 0.25; 0.308334; 0.75; 0.808333; 1" keySplines="0 0 1 1; 0 0 1 1; 0 0 1 1; 0 0 1 1; 0 0 1 1" calcMode="spline" /></path></g></g><g id="i35" transform="matrix(1,0,0,1,0,0)"><g id="i36"><rect height="29" width="22" y="344" x="536" fill="#fede7e"><animate repeatCount="indefinite" attributeName="fill" dur="4s" begin="0s" fill="freeze" values="#fede7e; #fede7e; #000000; #000000; #fede7e; #fede7e" keyTimes="0; 0.25; 0.308334; 0.75; 0.808333; 1" keySplines="0 0 1 1; 0 0 1 1; 0 0 1 1; 0 0 1 1; 0 0 1 1" calcMode="spline" /></rect></g><g id="i37"><rect height="29" width="22" y="344" x="565" fill="#fede7e"><animate repeatCount="indefinite" attributeName="fill" dur="4s" begin="0s" fill="freeze" values="#fede7e; #fede7e; #000000; #000000; #fede7e; #fede7e" keyTimes="0; 0.25; 0.308334; 0.75; 0.808333; 1" keySplines="0 0 1 1; 0 0 1 1; 0 0 1 1; 0 0 1 1; 0 0 1 1" calcMode="spline" /></rect></g><g id="i38"><rect height="29" width="31" y="344" x="639" fill="#fede7e"><animate repeatCount="indefinite" attributeName="fill" dur="4s" begin="0s" fill="freeze" values="#fede7e; #fede7e; #000000; #000000; #fede7e; #fede7e" keyTimes="0; 0.25; 0.308334; 0.75; 0.808333; 1" keySplines="0 0 1 1; 0 0 1 1; 0 0 1 1; 0 0 1 1; 0 0 1 1" calcMode="spline" /></rect></g><g id="i39"><rect height="29" width="22" y="344" x="594" fill="#fede7e"><animate repeatCount="indefinite" attributeName="fill" dur="4s" begin="0s" fill="freeze" values="#fede7e; #fede7e; #000000; #000000; #fede7e; #fede7e" keyTimes="0; 0.25; 0.308334; 0.75; 0.808333; 1" keySplines="0 0 1 1; 0 0 1 1; 0 0 1 1; 0 0 1 1; 0 0 1 1" calcMode="spline" /></rect></g><g id="i40"><rect height="29" width="31" y="344" x="679" fill="#fede7e"><animate repeatCount="indefinite" attributeName="fill" dur="4s" begin="0s" fill="freeze" values="#fede7e; #fede7e; #000000; #000000; #fede7e; #fede7e" keyTimes="0; 0.25; 0.308334; 0.75; 0.808333; 1" keySplines="0 0 1 1; 0 0 1 1; 0 0 1 1; 0 0 1 1; 0 0 1 1" calcMode="spline" /></rect></g><g id="i41"><rect height="29" width="22" y="424" x="536" fill="#fede7e"><animate repeatCount="indefinite" attributeName="fill" dur="4s" begin="0s" fill="freeze" values="#fede7e; #fede7e; #000000; #000000; #fede7e; #fede7e" keyTimes="0; 0.25; 0.308334; 0.75; 0.808333; 1" keySplines="0 0 1 1; 0 0 1 1; 0 0 1 1; 0 0 1 1; 0 0 1 1" calcMode="spline" /></rect></g><g id="i42"><rect height="29" width="22" y="424" x="565" fill="#fede7e"><animate repeatCount="indefinite" attributeName="fill" dur="4s" begin="0s" fill="freeze" values="#fede7e; #fede7e; #000000; #000000; #fede7e; #fede7e" keyTimes="0; 0.25; 0.308334; 0.75; 0.808333; 1" keySplines="0 0 1 1; 0 0 1 1; 0 0 1 1; 0 0 1 1; 0 0 1 1" calcMode="spline" /></rect></g><g id="i43"><rect height="29" width="31" y="424" x="639" fill="#fede7e"><animate repeatCount="indefinite" attributeName="fill" dur="4s" begin="0s" fill="freeze" values="#fede7e; #fede7e; #000000; #000000; #fede7e; #fede7e" keyTimes="0; 0.25; 0.308334; 0.75; 0.808333; 1" keySplines="0 0 1 1; 0 0 1 1; 0 0 1 1; 0 0 1 1; 0 0 1 1" calcMode="spline" /></rect></g><g id="i44"><rect height="29" width="22" y="424" x="594" fill="#fede7e"><animate repeatCount="indefinite" attributeName="fill" dur="4s" begin="0s" fill="freeze" values="#fede7e; #fede7e; #000000; #000000; #fede7e; #fede7e" keyTimes="0; 0.25; 0.308334; 0.75; 0.808333; 1" keySplines="0 0 1 1; 0 0 1 1; 0 0 1 1; 0 0 1 1; 0 0 1 1" calcMode="spline" /></rect></g><g id="i45"><rect height="29" width="31" y="424" x="679" fill="#fede7e"><animate repeatCount="indefinite" attributeName="fill" dur="4s" begin="0s" fill="freeze" values="#fede7e; #fede7e; #000000; #000000; #fede7e; #fede7e" keyTimes="0; 0.25; 0.308334; 0.75; 0.808333; 1" keySplines="0 0 1 1; 0 0 1 1; 0 0 1 1; 0 0 1 1; 0 0 1 1" calcMode="spline" /></rect></g><g id="i46"><rect height="29" width="22" y="384" x="536" fill="#fede7e"><animate repeatCount="indefinite" attributeName="fill" dur="4s" begin="0s" fill="freeze" values="#fede7e; #fede7e; #000000; #000000; #fede7e; #fede7e" keyTimes="0; 0.25; 0.308334; 0.75; 0.808333; 1" keySplines="0 0 1 1; 0 0 1 1; 0 0 1 1; 0 0 1 1; 0 0 1 1" calcMode="spline" /></rect></g><g id="i47"><rect height="29" width="22" y="384" x="565" fill="#fede7e"><animate repeatCount="indefinite" attributeName="fill" dur="4s" begin="0s" fill="freeze" values="#fede7e; #fede7e; #000000; #000000; #fede7e; #fede7e" keyTimes="0; 0.25; 0.308334; 0.75; 0.808333; 1" keySplines="0 0 1 1; 0 0 1 1; 0 0 1 1; 0 0 1 1; 0 0 1 1" calcMode="spline" /></rect></g><g id="i48"><rect height="29" width="31" y="384" x="639" fill="#fede7e"><animate repeatCount="indefinite" attributeName="fill" dur="4s" begin="0s" fill="freeze" values="#fede7e; #fede7e; #000000; #000000; #fede7e; #fede7e" keyTimes="0; 0.25; 0.308334; 0.75; 0.808333; 1" keySplines="0 0 1 1; 0 0 1 1; 0 0 1 1; 0 0 1 1; 0 0 1 1" calcMode="spline" /></rect></g><g id="i49"><rect height="29" width="22" y="384" x="594" fill="#fede7e"><animate repeatCount="indefinite" attributeName="fill" dur="4s" begin="0s" fill="freeze" values="#fede7e; #fede7e; #000000; #000000; #fede7e; #fede7e" keyTimes="0; 0.25; 0.308334; 0.75; 0.808333; 1" keySplines="0 0 1 1; 0 0 1 1; 0 0 1 1; 0 0 1 1; 0 0 1 1" calcMode="spline" /></rect></g><g id="i50"><rect height="29" width="31" y="384" x="679" fill="#fede7e"><animate repeatCount="indefinite" attributeName="fill" dur="4s" begin="0s" fill="freeze" values="#fede7e; #fede7e; #000000; #000000; #fede7e; #fede7e" keyTimes="0; 0.25; 0.308334; 0.75; 0.808333; 1" keySplines="0 0 1 1; 0 0 1 1; 0 0 1 1; 0 0 1 1; 0 0 1 1" calcMode="spline" /></rect></g><g id="i51"><rect height="29" width="22" y="464" x="536" fill="#fede7e"><animate repeatCount="indefinite" attributeName="fill" dur="4s" begin="0s" fill="freeze" values="#fede7e; #fede7e; #000000; #000000; #fede7e; #fede7e" keyTimes="0; 0.25; 0.308334; 0.75; 0.808333; 1" keySplines="0 0 1 1; 0 0 1 1; 0 0 1 1; 0 0 1 1; 0 0 1 1" calcMode="spline" /></rect></g><g id="i52"><rect height="29" width="22" y="464" x="565" fill="#fede7e"><animate repeatCount="indefinite" attributeName="fill" dur="4s" begin="0s" fill="freeze" values="#fede7e; #fede7e; #000000; #000000; #fede7e; #fede7e" keyTimes="0; 0.25; 0.308334; 0.75; 0.808333; 1" keySplines="0 0 1 1; 0 0 1 1; 0 0 1 1; 0 0 1 1; 0 0 1 1" calcMode="spline" /></rect></g><g id="i53"><rect height="29" width="31" y="464" x="639" fill="#fede7e"><animate repeatCount="indefinite" attributeName="fill" dur="4s" begin="0s" fill="freeze" values="#fede7e; #fede7e; #000000; #000000; #fede7e; #fede7e" keyTimes="0; 0.25; 0.308334; 0.75; 0.808333; 1" keySplines="0 0 1 1; 0 0 1 1; 0 0 1 1; 0 0 1 1; 0 0 1 1" calcMode="spline" /></rect></g><g id="i54"><rect height="29" width="22" y="464" x="594" fill="#fede7e"><animate repeatCount="indefinite" attributeName="fill" dur="4s" begin="0s" fill="freeze" values="#fede7e; #fede7e; #000000; #000000; #fede7e; #fede7e" keyTimes="0; 0.25; 0.308334; 0.75; 0.808333; 1" keySplines="0 0 1 1; 0 0 1 1; 0 0 1 1; 0 0 1 1; 0 0 1 1" calcMode="spline" /></rect></g><g id="i55"><rect height="29" width="31" y="464" x="679" fill="#fede7e"><animate repeatCount="indefinite" attributeName="fill" dur="4s" begin="0s" fill="freeze" values="#fede7e; #fede7e; #000000; #000000; #fede7e; #fede7e" keyTimes="0; 0.25; 0.308334; 0.75; 0.808333; 1" keySplines="0 0 1 1; 0 0 1 1; 0 0 1 1; 0 0 1 1; 0 0 1 1" calcMode="spline" /></rect></g></g></g><g transform="matrix(1,0,0,1,-7.1,-0.5)" id="i56"><g id="i57"><path fill="#61f7cf" d="M687.1,472.6C687.1,484.4,677.5,494,665.7,494C653.9,494,644.3,484.4,644.3,472.6C644.3,460.8,653.9,451.2,665.7,451.2C677.5,451.2,687.1,460.8,687.1,472.6C687.1,472.6,687.1,472.6,687.1,472.6ZM625.9,478.8C625.9,490.6,616.3,500.2,604.5,500.2C592.7,500.2,583.1,490.6,583.1,478.8C583.1,467,592.7,457.4,604.5,457.4C616.3,457.4,625.9,466.9,625.9,478.8C625.9,478.8,625.9,478.8,625.9,478.8Z"><animate repeatCount="indefinite" attributeName="fill" dur="4s" begin="0s" fill="freeze" values="#61f7cf; #61f7cf; #006262; #006262; #61f7cf; #61f7cf" keyTimes="0; 0.25; 0.308334; 0.75; 0.808333; 1" keySplines="0 0 1 1; 0 0 1 1; 0 0 1 1; 0 0 1 1; 0 0 1 1" calcMode="spline" /></path></g><g id="i58" transform="matrix(1,0,0,1,0,0)"><path fill="#933d00" d="M668.2,470.9C667.2,469.5,665.3,469.2,663.9,470.2C663.9,470.2,632.9,492.1,632.9,492.1C632.9,492.1,636.4,497.1,636.4,497.1C636.4,497.1,667.4,475.2,667.4,475.2C668.9,474.1,669.2,472.2,668.2,470.9C668.2,470.9,668.2,470.9,668.2,470.9C668.2,470.9,668.2,470.9,668.2,470.9ZM637.4,505.9C637.4,505.9,606.6,476.6,606.6,476.6C605.4,475.4,603.4,475.5,602.3,476.7C601.1,477.9,601.2,479.9,602.4,481C602.4,481,602.4,481,602.4,481C602.4,481,633.2,510.3,633.2,510.3C633.2,510.3,637.4,505.9,637.4,505.9C637.4,505.9,637.4,505.9,637.4,505.9C637.4,505.9,637.4,505.9,637.4,505.9Z" /></g><g id="i59" transform="matrix(1,0,0,1,0,0)"><path fill="#00ddb4" d="M665.7,423.6C665.7,440.5,652,454.2,635.1,454.2C618.2,454.2,604.5,440.5,604.5,423.6C604.5,406.7,618.1,393,635,393C651.9,393,665.7,406.7,665.7,423.6C665.7,423.6,665.7,423.6,665.7,423.6Z"><animate repeatCount="indefinite" attributeName="fill" dur="4s" begin="0s" fill="freeze" values="#00ddb4; #00ddb4; #019d91; #019d91; #00ddb4; #00ddb4" keyTimes="0; 0.25; 0.308334; 0.75; 0.808333; 1" keySplines="0 0 1 1; 0 0 1 1; 0 0 1 1; 0 0 1 1; 0 0 1 1" calcMode="spline" /></path></g><g id="i60" transform="matrix(1,0,0,1,0,0)"><path fill="#bb4f00" d="M635,420.6C633.3,420.6,631.9,422,631.9,423.7C631.9,423.7,631.9,540,631.9,540C631.9,540,638,540,638,540C638,540,638,423.6,638,423.6C638.1,421.9,636.7,420.6,635,420.6C635,420.6,635,420.6,635,420.6Z" /></g></g><g transform="matrix(1,0,0,1,0,0)" id="i61"><g id="i62" transform="matrix(1,0,0,1,0,0)"><g id="i62"><rect height="109" width="131.5" y="431" x="487.5" fill="#f850f0"><animate repeatCount="indefinite" attributeName="fill" dur="4s" begin="0s" fill="freeze" values="#f850f0; #f850f0; #8746ff; #8746ff; #f850f0; #f850f0" keyTimes="0; 0.25; 0.308334; 0.75; 0.808333; 1" keySplines="0 0 1 1; 0 0 1 1; 0 0 1 1; 0 0 1 1; 0 0 1 1" calcMode="spline" /></rect></g></g><g id="i63" transform="matrix(1,0,0,1,0,0)"><g id="i63"><path fill="#933d00" d="M487.5,431C487.5,431,619,431,619,431C619,431,553.2,359.9,553.2,359.9C553.2,359.9,421.8,359.9,421.8,359.9C421.8,359.9,487.5,431,487.5,431Z"><animate repeatCount="indefinite" attributeName="fill" dur="4s" begin="0s" fill="freeze" values="#933d00; #933d00; #4e3a82; #4e3a82; #933d00; #933d00" keyTimes="0; 0.25; 0.308334; 0.75; 0.808333; 1" keySplines="0 0 1 1; 0 0 1 1; 0 0 1 1; 0 0 1 1; 0 0 1 1" calcMode="spline" /></path></g></g><g id="i64" transform="matrix(1,0,0,1,0,0)"><g id="i64"><path fill="#ff7bf9" d="M356,431.1C356,431.1,421.8,359.9,421.8,359.9C421.8,359.9,487.6,431.1,487.6,431.1C487.6,431.1,487.6,540,487.6,540C487.6,540,356,540,356,540C356,540,356,431.1,356,431.1C356,431.1,356,431.1,356,431.1C356,431.1,356,431.1,356,431.1Z"><animate repeatCount="indefinite" attributeName="fill" dur="4s" begin="0s" fill="freeze" values="#ff7bf9; #ff7bf9; #9c73f8; #9c73f8; #ff7bf9; #ff7bf9" keyTimes="0; 0.25; 0.308334; 0.75; 0.808333; 1" keySplines="0 0 1 1; 0 0 1 1; 0 0 1 1; 0 0 1 1; 0 0 1 1" calcMode="spline" /></path></g></g><g id="i65" transform="matrix(1,0,0,1,0,0)"><g id="i65"><path fill="#933d00" d="M391.1,480.5C391.1,463.6,404.8,449.9,421.7,449.9C421.7,449.9,421.7,449.9,421.7,449.9C438.6,449.9,452.3,463.6,452.3,480.5C452.3,480.5,452.3,540,452.3,540C452.3,540,391.1,540,391.1,540C391.1,540,391.1,480.5,391.1,480.5C391.1,480.5,391.1,480.5,391.1,480.5C391.1,480.5,391.1,480.5,391.1,480.5Z"><animate repeatCount="indefinite" attributeName="fill" dur="4s" begin="0s" fill="freeze" values="#933d00; #933d00; #4e3a82; #4e3a82; #933d00; #933d00" keyTimes="0; 0.25; 0.308334; 0.75; 0.808333; 1" keySplines="0 0 1 1; 0 0 1 1; 0 0 1 1; 0 0 1 1; 0 0 1 1" calcMode="spline" /></path></g></g><g id="i66" transform="matrix(1,0,0,1,0,0)"><g id="i66"><path fill="#933d00" d="M506.9,510.3C506.9,510.3,541.1,510.3,541.1,510.3C543.3,510.3,545.1,512.1,545.1,514.4C545.1,514.4,545.1,514.4,545.1,514.4C545.1,516.6,543.3,518.4,541.1,518.4C541.1,518.4,506.9,518.4,506.9,518.4C504.7,518.4,502.9,516.6,502.9,514.4C502.9,514.4,502.9,514.4,502.9,514.4C502.8,512.1,504.6,510.3,506.9,510.3C506.9,510.3,506.9,510.3,506.9,510.3C506.9,510.3,506.9,510.3,506.9,510.3Z"><animate repeatCount="indefinite" attributeName="fill" dur="4s" begin="0s" fill="freeze" values="#933d00; #933d00; #4e3a82; #4e3a82; #933d00; #933d00" keyTimes="0; 0.25; 0.308334; 0.75; 0.808333; 1" keySplines="0 0 1 1; 0 0 1 1; 0 0 1 1; 0 0 1 1; 0 0 1 1" calcMode="spline" /></path></g></g><g id="i67" transform="matrix(1,0,0,1,0,0)"><g id="i67"><path fill="#933d00" d="M565.4,510.3C565.4,510.3,599.6,510.3,599.6,510.3C601.8,510.3,603.6,512.1,603.6,514.4C603.6,514.4,603.6,514.4,603.6,514.4C603.6,516.6,601.8,518.4,599.6,518.4C599.6,518.4,565.4,518.4,565.4,518.4C563.2,518.4,561.4,516.6,561.4,514.4C561.4,514.4,561.4,514.4,561.4,514.4C561.4,512.1,563.2,510.3,565.4,510.3C565.4,510.3,565.4,510.3,565.4,510.3C565.4,510.3,565.4,510.3,565.4,510.3Z"><animate repeatCount="indefinite" attributeName="fill" dur="4s" begin="0s" fill="freeze" values="#933d00; #933d00; #4e3a82; #4e3a82; #933d00; #933d00" keyTimes="0; 0.25; 0.308334; 0.75; 0.808333; 1" keySplines="0 0 1 1; 0 0 1 1; 0 0 1 1; 0 0 1 1; 0 0 1 1" calcMode="spline" /></path></g></g><g id="i68" transform="matrix(1,0,0,1,0,0)"><g id="i69"><path fill="#fede7e" d="M506.4,475.1C506.4,465.1,514.5,457.1,524.4,457.1C524.4,457.1,524.4,457.1,524.4,457.1C534.4,457.1,542.4,465.2,542.4,475.1C542.4,475.1,542.4,513.8,542.4,513.8C542.4,513.8,506.4,513.8,506.4,513.8C506.4,513.8,506.4,475.1,506.4,475.1C506.4,475.1,506.4,475.1,506.4,475.1C506.4,475.1,506.4,475.1,506.4,475.1Z"><animate repeatCount="indefinite" attributeName="fill" dur="4s" begin="0s" fill="freeze" values="#fede7e; #fede7e; #000000; #000000; #fede7e; #fede7e" keyTimes="0; 0.25; 0.308334; 0.75; 0.808333; 1" keySplines="0 0 1 1; 0 0 1 1; 0 0 1 1; 0 0 1 1; 0 0 1 1" calcMode="spline" /></path></g><g id="i70"><path fill="#fede7e" d="M565,475.1C565,465.1,573.1,457.1,583,457.1C583,457.1,583,457.1,583,457.1C593,457.1,601,465.2,601,475.1C601,475.1,601,513.8,601,513.8C601,513.8,565,513.8,565,513.8C565,513.8,565,475.1,565,475.1C565,475.1,565,475.1,565,475.1C565,475.1,565,475.1,565,475.1Z"><animate repeatCount="indefinite" attributeName="fill" dur="4s" begin="0s" fill="freeze" values="#fede7e; #fede7e; #000000; #000000; #fede7e; #fede7e" keyTimes="0; 0.25; 0.308334; 0.75; 0.808333; 1" keySplines="0 0 1 1; 0 0 1 1; 0 0 1 1; 0 0 1 1; 0 0 1 1" calcMode="spline" /></path></g><g id="i71"><path fill="#fede7e" d="M420,477.4C420,477.4,420,459,420,459C410.4,459.9,402.7,467.7,402,477.4C402,477.4,420,477.4,420,477.4C420,477.4,420,477.4,420,477.4Z"><animate repeatCount="indefinite" attributeName="fill" dur="4s" begin="0s" fill="freeze" values="#fede7e; #fede7e; #000000; #000000; #fede7e; #fede7e" keyTimes="0; 0.25; 0.308334; 0.75; 0.808333; 1" keySplines="0 0 1 1; 0 0 1 1; 0 0 1 1; 0 0 1 1; 0 0 1 1" calcMode="spline" /></path></g><g id="i72"><path fill="#fede7e" d="M423.5,477.4C423.5,477.4,441.5,477.4,441.5,477.4C440.8,467.7,433.2,459.9,423.5,459C423.5,459,423.5,477.4,423.5,477.4C423.5,477.4,423.5,477.4,423.5,477.4Z"><animate repeatCount="indefinite" attributeName="fill" dur="4s" begin="0s" fill="freeze" values="#fede7e; #fede7e; #000000; #000000; #fede7e; #fede7e" keyTimes="0; 0.25; 0.308334; 0.75; 0.808333; 1" keySplines="0 0 1 1; 0 0 1 1; 0 0 1 1; 0 0 1 1; 0 0 1 1" calcMode="spline" /></path></g><g id="i73"><path fill="#fede7e" d="M420,481C420,481,402.1,481,402.1,481C403.1,490.3,410.6,497.6,420,498.5C420,498.5,420,481,420,481C420,481,420,481,420,481Z"><animate repeatCount="indefinite" attributeName="fill" dur="4s" begin="0s" fill="freeze" values="#fede7e; #fede7e; #000000; #000000; #fede7e; #fede7e" keyTimes="0; 0.25; 0.308334; 0.75; 0.808333; 1" keySplines="0 0 1 1; 0 0 1 1; 0 0 1 1; 0 0 1 1; 0 0 1 1" calcMode="spline" /></path></g><g id="i74"><path fill="#fede7e" d="M423.5,481C423.5,481,423.5,498.5,423.5,498.5C432.9,497.7,440.3,490.3,441.4,481C441.4,481,423.5,481,423.5,481C423.5,481,423.5,481,423.5,481Z"><animate repeatCount="indefinite" attributeName="fill" dur="4s" begin="0s" fill="freeze" values="#fede7e; #fede7e; #000000; #000000; #fede7e; #fede7e" keyTimes="0; 0.25; 0.308334; 0.75; 0.808333; 1" keySplines="0 0 1 1; 0 0 1 1; 0 0 1 1; 0 0 1 1; 0 0 1 1" calcMode="spline" /></path></g></g></g><g transform="matrix(1,0,0,1,0,0)" id="i75"><g id="i76" transform="matrix(1,0,0,1,0,0)"><path fill="#b0e8fd" d="M401,516.8C401,516.8,401,504.9,401,504.9C401,503.5,400.6,502.2,399.6,501.2C399.6,501.2,382.5,481.1,382.5,481.1C380.9,479.1,378.4,478,375.9,478C375.9,478,316.5,478,316.5,478C314,478,311.6,479.2,309.9,481.1C309.9,481.1,295.7,497.9,295.7,497.9C295.7,497.9,253.8,495.9,245.3,514.1C245.3,514.1,244.3,517.2,248.6,517.6C248.6,517.6,248.6,521.9,248.6,521.9C248.6,521.9,245.1,522.3,245.1,525C245.1,525,244.9,527.9,248.8,528.3C248.8,528.3,371.3,528.3,371.3,528.3C371.3,528.3,388.8,525.2,397.4,522.3C399.4,521.4,401,519.1,401,516.8C401,516.8,401,516.8,401,516.8C401,516.8,401,516.8,401,516.8Z"><animate repeatCount="indefinite" attributeName="fill" dur="4s" begin="0s" fill="freeze" values="#b0e8fd; #b0e8fd; #3aa0ff; #3aa0ff; #b0e8fd; #b0e8fd" keyTimes="0; 0.25; 0.308334; 0.75; 0.808333; 1" keySplines="0 0 1 1; 0 0 1 1; 0 0 1 1; 0 0 1 1; 0 0 1 1" calcMode="spline" /></path></g><g id="i77"><path fill="#263a46" d="M317.1,498.1C317.1,498.1,374.4,498.1,374.4,498.1C377.5,498.1,379.3,494.4,377.5,491.7C377.5,491.7,372.2,483.3,372.2,483.3C371.6,482.5,370.8,481.9,369.9,481.9C369.9,481.9,324.3,481.9,324.3,481.9C323.3,481.9,322.5,482.3,322,483.1C322,483.1,314.6,493.2,314.6,493.2C313.4,495.1,314.7,498.1,317.1,498.1C317.1,498.1,317.1,498.1,317.1,498.1C317.1,498.1,317.1,498.1,317.1,498.1Z" /></g><g id="i78"><path fill="#263a46" d="M260.6,535.8C254.9,530.1,254.9,520.8,260.6,515.1C266.3,509.4,275.6,509.4,281.3,515.1C287,520.8,287,530.1,281.3,535.8C275.6,541.5,266.3,541.5,260.6,535.8C260.6,535.8,260.6,535.8,260.6,535.8Z" /></g><g id="i79"><path fill="#263a46" d="M372.9,539.8C365,538,360.2,530.1,362,522.2C363.9,514.4,371.7,509.5,379.6,511.3C387.5,513.1,392.3,521,390.5,528.9C388.6,536.7,380.8,541.6,372.9,539.8C372.9,539.8,372.9,539.8,372.9,539.8Z" /></g><g id="i80"><path fill="#ff3c00" d="M388.1,500.6C388.1,500.6,388.1,503.5,388.1,503.5C388.1,504.7,389.1,505.6,390.2,505.6C390.2,505.6,401,505.6,401,505.6C401,505.6,401,504.8,401,504.8C401,503.4,400.6,502.1,399.6,501.1C399.6,501.1,397.3,498.4,397.3,498.4C397.3,498.4,390.1,498.4,390.1,498.4C389.1,498.4,388.1,499.4,388.1,500.6C388.1,500.6,388.1,500.6,388.1,500.6C388.1,500.6,388.1,500.6,388.1,500.6Z" /></g><g id="i81"><path fill="#f4f0d2" d="M376.3,516.8C381.2,516.8,385.3,520.7,385.3,525.8C385.3,530.9,381.4,534.8,376.3,534.8C371.2,534.8,367.3,530.9,367.3,525.8C367.3,520.7,371.4,516.8,376.3,516.8C376.3,516.8,376.3,516.8,376.3,516.8ZM270.9,516.8C275.8,516.8,279.9,520.7,279.9,525.8C279.9,530.9,276,534.8,270.9,534.8C265.8,534.8,261.9,530.9,261.9,525.8C261.9,520.7,266,516.8,270.9,516.8C270.9,516.8,270.9,516.8,270.9,516.8Z" /></g><g id="i82"><path fill="#939393" d="M376.3,520.7C379,520.7,381.2,522.8,381.2,525.6C381.2,528.4,379.1,530.5,376.3,530.5C373.5,530.5,371.4,528.4,371.4,525.6C371.4,522.8,373.5,520.7,376.3,520.7C376.3,520.7,376.3,520.7,376.3,520.7ZM270.9,520.7C273.6,520.7,275.8,522.8,275.8,525.6C275.8,528.4,273.7,530.5,270.9,530.5C268.1,530.5,266,528.4,266,525.6C266,522.8,268.2,520.7,270.9,520.7C270.9,520.7,270.9,520.7,270.9,520.7Z" /></g><g id="i83"><path fill="#263a46" d="M309.7,481.3C309.7,481.3,296.3,497.3,296.3,497.3C296.3,497.3,303.9,497.3,303.9,497.3C304.3,497.3,304.9,497.1,305.1,496.7C305.1,496.7,314.6,483.7,314.6,483.7C315.2,482.7,314.6,481.6,313.4,481.4C313.4,481.4,309.7,481.3,309.7,481.3C309.7,481.3,309.7,481.3,309.7,481.3C309.7,481.3,309.7,481.3,309.7,481.3Z" /></g><g id="i84" transform="matrix(1,0,0,1,0,0)"><path fill="#ffbf00" d="M246,517.7C246,517.3,246.3,517,246.7,517C246.7,517,252,517,252,517C253.7,517,255,518.3,255,520C255,520,255,520,255,520C255,521.7,253.7,523,252,523C252,523,246.7,523,246.7,523C246.3,523,246,522.7,246,522.3C246,522.3,246,517.7,246,517.7C246,517.7,246,517.7,246,517.7Z"><animate repeatCount="indefinite" attributeName="fill" dur="4s" begin="0s" fill="freeze" values="#ffbf00; #ffbf00; #848484; #848484; #ffbf00; #ffbf00" keyTimes="0; 0.25; 0.308334; 0.75; 0.808333; 1" keySplines="0 0 1 1; 0 0 1 1; 0 0 1 1; 0 0 1 1; 0 0 1 1" calcMode="spline" /></path></g></g><g transform="matrix(1,0,0,1,686.5,410)" id="i85"><g opacity="0.8"><animate repeatCount="indefinite" attributeName="opacity" dur="4s" begin="0s" fill="freeze" values="0.8; 0.8; 0; 0; 0.8; 0.8" keyTimes="0; 0.25; 0.308334; 0.75; 0.808333; 1" keySplines="0 0 1 1; 0 0 1 1; 0 0 1 1; 0 0 1 1; 0 0 1 1" calcMode="spline" /><g id="i84" transform="translate(48,71) scale(0.991,0.991) translate(-47.5,-70.5)"><g id="i84"><path fill="#fede7e" d="M47.5,11C47.5,11,95,130,95,130C95,130,0,130,0,130C0,130,47.5,11,47.5,11C47.5,11,47.5,11,47.5,11Z" /></g></g></g><g id="i78" transform="matrix(1,0,0,1,0,0)"><g id="i78"><path fill="#3d4853" d="M27.8,10.5C27.8,4.7,32.5,0,38.3,0C44.1,0,48.8,4.7,48.8,10.5C48.8,10.5,48.8,20.3,48.8,20.3C48.8,20.3,46.3,20.3,46.3,20.3C46.3,20.3,46.3,10.5,46.3,10.5C46.3,6.1,42.7,2.5,38.3,2.5C33.9,2.5,30.3,6.1,30.3,10.5C30.3,10.5,30.3,35.9,30.3,35.9C30.3,35.9,27.8,35.9,27.8,35.9C27.8,35.9,27.8,10.5,27.8,10.5C27.8,10.5,27.8,10.5,27.8,10.5Z" /></g></g><g id="i86" transform="matrix(1,0,0,1,0,0)"><g id="i86"><ellipse ry="6" rx="6" cy="24.8" cx="47.6" fill="#fef5bd"><animate repeatCount="indefinite" attributeName="fill" dur="4s" begin="0s" fill="freeze" values="#fef5bd; #fef5bd; #626262; #626262; #fef5bd; #fef5bd" keyTimes="0; 0.25; 0.308334; 0.75; 0.808333; 1" keySplines="0 0 1 1; 0 0 1 1; 0 0 1 1; 0 0 1 1; 0 0 1 1" calcMode="spline" /></ellipse></g></g><g id="i87"><g id="i79"><path fill="#000000" d="M47.5,14.4C45.5,14.4,43.9,16,43.9,18C43.9,18,43.9,18.9,43.9,18.9C43.9,19.1,43.9,19.3,43.9,19.5C43.9,19.5,38.4,23.7,38.4,23.7C37.9,24.1,38.2,25,38.8,25C38.8,25,55.9,25,55.9,25C56.6,25,56.9,24.1,56.3,23.7C56.3,23.7,51,19.4,51,19.4C51,19.2,51,19,51,18.8C51,18.8,51,17.9,51,17.9C51.1,16,49.5,14.4,47.5,14.4C47.5,14.4,47.5,14.4,47.5,14.4Z" /></g><g id="i80"><path fill="#000000" d="M28.9,32.7C29,32.7,29.1,32.7,29.2,32.7C29.2,32.7,32.6,34.4,32.6,34.4C32.9,34.5,32.8,35,32.5,35C32.5,35,25.8,35,25.8,35C25.5,35,25.4,34.6,25.7,34.4C25.7,34.4,28.9,32.7,28.9,32.7C28.9,32.7,28.9,32.7,28.9,32.7Z" /></g><g id="i81"><path fill="#000000" d="M29,125.2C29,125.2,33.7,127.5,33.7,127.5C33.7,127.5,24.4,127.5,24.4,127.5C24.4,127.5,29,125.2,29,125.2C29,125.2,29,125.2,29,125.2Z" /></g><g id="i82"><rect height="93.9" width="4.7" y="33.9" x="26.7" fill="#000000" /></g><g id="i83"><path fill="#000000" d="M23.5,128.8C23.5,128,24.2,127.3,25,127.3C25,127.3,33.1,127.3,33.1,127.3C33.9,127.3,34.6,128,34.6,128.8C34.6,128.8,34.6,129.9,34.6,129.9C34.6,129.9,23.6,129.9,23.6,129.9C23.6,129.9,23.6,128.8,23.6,128.8C23.6,128.8,23.5,128.8,23.5,128.8Z" /></g></g></g><g visibility="hidden" id="i88"><animate repeatCount="indefinite" begin="0s" calcMode="discrete" dur="4s" values="hidden; visible; visible" keyTimes="0; 0.417; 1" attributeName="visibility" /><g transform="translate(942,987)"><g transform="rotate(116.528)"><animateTransform repeatCount="indefinite" type="rotate" attributeName="transform" dur="4s" begin="0s" calcMode="spline" values="116.528; 116.528; -42; 31; -7; -12" keyTimes="0; 0.416667; 0.666667; 0.966667; 1; 1" keySplines="0 0 1 1; 0 0 1 1; 0 0 1 1; 0 0 1 1; 0 0 1 1" fill="freeze" /><g transform="scale(0.312,0.312)"><animateTransform repeatCount="indefinite" type="scale" attributeName="transform" dur="4s" begin="0s" calcMode="spline" values="0.312 0.312; 0.312 0.312; 0.54 0.54; 0.99 0.99; 0.61 0.61; 1 1" keyTimes="0; 0.416667; 0.608333; 0.883333; 1; 1" keySplines="0 0 1 1; 0 0 1 1; 0 0 1 1; 0 0 1 1; 0 0 1 1" fill="freeze" /><g transform="translate(-98.112,-275.315)"><g id="i88"><path fill="#fede7e" d="M96.3,257.8C97,256.3,99,256.3,99.7,257.8C99.7,257.8,103.9,267.3,103.9,267.3C104.2,267.9,104.7,268.3,105.4,268.4C105.4,268.4,115.8,269.5,115.8,269.5C117.4,269.7,118,271.6,116.8,272.7C116.8,272.7,109.1,279.7,109.1,279.7C108.6,280.1,108.4,280.8,108.5,281.5C108.5,281.5,110.7,291.7,110.7,291.7C111,293.3,109.4,294.5,108,293.7C108,293.7,99,288.5,99,288.5C98.4,288.2,97.7,288.2,97.2,288.5C97.2,288.5,88.2,293.7,88.2,293.7C86.8,294.5,85.1,293.3,85.5,291.7C85.5,291.7,87.7,281.5,87.7,281.5C87.8,280.9,87.6,280.2,87.1,279.7C87.1,279.7,79.4,272.7,79.4,272.7C78.2,271.6,78.9,269.7,80.4,269.5C80.4,269.5,90.8,268.4,90.8,268.4C91.5,268.3,92,267.9,92.3,267.3C92.3,267.3,96.3,257.8,96.3,257.8C96.3,257.8,96.3,257.8,96.3,257.8Z" /></g></g></g></g></g></g><g visibility="hidden" id="i88"><animate repeatCount="indefinite" begin="0s" calcMode="discrete" dur="4s" values="hidden; visible; visible" keyTimes="0; 0.375; 1" attributeName="visibility" /><g transform="translate(288,1038)"><g transform="rotate(104.528)"><animateTransform repeatCount="indefinite" type="rotate" attributeName="transform" dur="4s" begin="0s" calcMode="spline" values="104.528; 104.528; 128.9; -42; 31; -7; -12" keyTimes="0; 0.375; 0.6; 0.625; 0.925; 1; 1" keySplines="0 0 1 1; 0 0 1 1; 0 0 1 1; 0 0 1 1; 0 0 1 1; 0 0 1 1" fill="freeze" /><g transform="scale(0.347,0.347)"><animateTransform repeatCount="indefinite" type="scale" attributeName="transform" dur="4s" begin="0s" calcMode="spline" values="0.347 0.347; 0.347 0.347; 0.54 0.54; 0.99 0.99; 0.61 0.61; 1 1" keyTimes="0; 0.375; 0.566667; 0.841667; 1; 1" keySplines="0 0 1 1; 0 0 1 1; 0 0 1 1; 0 0 1 1; 0 0 1 1" fill="freeze" /><g transform="translate(-98.112,-275.315)"><g id="i88"><path fill="#fede7e" d="M96.3,257.8C97,256.3,99,256.3,99.7,257.8C99.7,257.8,103.9,267.3,103.9,267.3C104.2,267.9,104.7,268.3,105.4,268.4C105.4,268.4,115.8,269.5,115.8,269.5C117.4,269.7,118,271.6,116.8,272.7C116.8,272.7,109.1,279.7,109.1,279.7C108.6,280.1,108.4,280.8,108.5,281.5C108.5,281.5,110.7,291.7,110.7,291.7C111,293.3,109.4,294.5,108,293.7C108,293.7,99,288.5,99,288.5C98.4,288.2,97.7,288.2,97.2,288.5C97.2,288.5,88.2,293.7,88.2,293.7C86.8,294.5,85.1,293.3,85.5,291.7C85.5,291.7,87.7,281.5,87.7,281.5C87.8,280.9,87.6,280.2,87.1,279.7C87.1,279.7,79.4,272.7,79.4,272.7C78.2,271.6,78.9,269.7,80.4,269.5C80.4,269.5,90.8,268.4,90.8,268.4C91.5,268.3,92,267.9,92.3,267.3C92.3,267.3,96.3,257.8,96.3,257.8C96.3,257.8,96.3,257.8,96.3,257.8Z" /></g></g></g></g></g></g><g visibility="hidden" id="i88"><animate repeatCount="indefinite" begin="0s" calcMode="discrete" dur="4s" values="hidden; visible; visible" keyTimes="0; 0.333; 1" attributeName="visibility" /><g transform="translate(714,79)"><g transform="rotate(92.528)"><animateTransform repeatCount="indefinite" type="rotate" attributeName="transform" dur="4s" begin="0s" calcMode="spline" values="92.528; 92.528; -42; 31; -7; -12" keyTimes="0; 0.333333; 0.583333; 0.883333; 1; 1" keySplines="0 0 1 1; 0 0 1 1; 0 0 1 1; 0 0 1 1; 0 0 1 1" fill="freeze" /><g transform="scale(0.385,0.385)"><animateTransform repeatCount="indefinite" type="scale" attributeName="transform" dur="4s" begin="0s" calcMode="spline" values="0.385 0.385; 0.385 0.385; 0.54 0.54; 0.99 0.99; 0.61 0.61; 1 1" keyTimes="0; 0.333333; 0.525; 0.8; 1; 1" keySplines="0 0 1 1; 0 0 1 1; 0 0 1 1; 0 0 1 1; 0 0 1 1" fill="freeze" /><g transform="translate(-98.112,-275.315)"><g id="i88"><path fill="#fede7e" d="M96.3,257.8C97,256.3,99,256.3,99.7,257.8C99.7,257.8,103.9,267.3,103.9,267.3C104.2,267.9,104.7,268.3,105.4,268.4C105.4,268.4,115.8,269.5,115.8,269.5C117.4,269.7,118,271.6,116.8,272.7C116.8,272.7,109.1,279.7,109.1,279.7C108.6,280.1,108.4,280.8,108.5,281.5C108.5,281.5,110.7,291.7,110.7,291.7C111,293.3,109.4,294.5,108,293.7C108,293.7,99,288.5,99,288.5C98.4,288.2,97.7,288.2,97.2,288.5C97.2,288.5,88.2,293.7,88.2,293.7C86.8,294.5,85.1,293.3,85.5,291.7C85.5,291.7,87.7,281.5,87.7,281.5C87.8,280.9,87.6,280.2,87.1,279.7C87.1,279.7,79.4,272.7,79.4,272.7C78.2,271.6,78.9,269.7,80.4,269.5C80.4,269.5,90.8,268.4,90.8,268.4C91.5,268.3,92,267.9,92.3,267.3C92.3,267.3,96.3,257.8,96.3,257.8C96.3,257.8,96.3,257.8,96.3,257.8Z" /></g></g></g></g></g></g><g visibility="hidden" id="i88"><animate repeatCount="indefinite" begin="0s" calcMode="discrete" dur="4s" values="hidden; visible; visible" keyTimes="0; 0.292; 1" attributeName="visibility" /><g transform="translate(71,902)"><g transform="rotate(80.528)"><animateTransform repeatCount="indefinite" type="rotate" attributeName="transform" dur="4s" begin="0s" calcMode="spline" values="80.528; 80.528; -42; 31; -7; -12" keyTimes="0; 0.291667; 0.541667; 0.841667; 1; 1" keySplines="0 0 1 1; 0 0 1 1; 0 0 1 1; 0 0 1 1; 0 0 1 1" fill="freeze" /><g transform="scale(0.428,0.428)"><animateTransform repeatCount="indefinite" type="scale" attributeName="transform" dur="4s" begin="0s" calcMode="spline" values="0.428 0.428; 0.428 0.428; 0.54 0.54; 0.99 0.99; 0.61 0.61; 1 1" keyTimes="0; 0.291667; 0.483333; 0.758333; 1; 1" keySplines="0 0 1 1; 0 0 1 1; 0 0 1 1; 0 0 1 1; 0 0 1 1" fill="freeze" /><g transform="translate(-98.112,-275.315)"><g id="i88"><path fill="#fede7e" d="M96.3,257.8C97,256.3,99,256.3,99.7,257.8C99.7,257.8,103.9,267.3,103.9,267.3C104.2,267.9,104.7,268.3,105.4,268.4C105.4,268.4,115.8,269.5,115.8,269.5C117.4,269.7,118,271.6,116.8,272.7C116.8,272.7,109.1,279.7,109.1,279.7C108.6,280.1,108.4,280.8,108.5,281.5C108.5,281.5,110.7,291.7,110.7,291.7C111,293.3,109.4,294.5,108,293.7C108,293.7,99,288.5,99,288.5C98.4,288.2,97.7,288.2,97.2,288.5C97.2,288.5,88.2,293.7,88.2,293.7C86.8,294.5,85.1,293.3,85.5,291.7C85.5,291.7,87.7,281.5,87.7,281.5C87.8,280.9,87.6,280.2,87.1,279.7C87.1,279.7,79.4,272.7,79.4,272.7C78.2,271.6,78.9,269.7,80.4,269.5C80.4,269.5,90.8,268.4,90.8,268.4C91.5,268.3,92,267.9,92.3,267.3C92.3,267.3,96.3,257.8,96.3,257.8C96.3,257.8,96.3,257.8,96.3,257.8Z" /></g></g></g></g></g></g><g visibility="hidden" id="i88"><animate repeatCount="indefinite" begin="0s" calcMode="discrete" dur="4s" values="hidden; visible; visible" keyTimes="0; 0.25; 1" attributeName="visibility" /><g transform="translate(830,865)"><g transform="rotate(68.528)"><animateTransform repeatCount="indefinite" type="rotate" attributeName="transform" dur="4s" begin="0s" calcMode="spline" values="68.528; 68.528; -42; 31; -7; -12" keyTimes="0; 0.25; 0.5; 0.8; 1; 1" keySplines="0 0 1 1; 0 0 1 1; 0 0 1 1; 0 0 1 1; 0 0 1 1" fill="freeze" /><g transform="scale(0.475,0.475)"><animateTransform repeatCount="indefinite" type="scale" attributeName="transform" dur="4s" begin="0s" calcMode="spline" values="0.475 0.475; 0.475 0.475; 0.54 0.54; 0.99 0.99; 0.61 0.61; 1 1" keyTimes="0; 0.25; 0.441667; 0.716667; 0.983333; 1" keySplines="0 0 1 1; 0 0 1 1; 0 0 1 1; 0 0 1 1; 0 0 1 1" fill="freeze" /><g transform="translate(-98.112,-275.315)"><g id="i88"><path fill="#fede7e" d="M96.3,257.8C97,256.3,99,256.3,99.7,257.8C99.7,257.8,103.9,267.3,103.9,267.3C104.2,267.9,104.7,268.3,105.4,268.4C105.4,268.4,115.8,269.5,115.8,269.5C117.4,269.7,118,271.6,116.8,272.7C116.8,272.7,109.1,279.7,109.1,279.7C108.6,280.1,108.4,280.8,108.5,281.5C108.5,281.5,110.7,291.7,110.7,291.7C111,293.3,109.4,294.5,108,293.7C108,293.7,99,288.5,99,288.5C98.4,288.2,97.7,288.2,97.2,288.5C97.2,288.5,88.2,293.7,88.2,293.7C86.8,294.5,85.1,293.3,85.5,291.7C85.5,291.7,87.7,281.5,87.7,281.5C87.8,280.9,87.6,280.2,87.1,279.7C87.1,279.7,79.4,272.7,79.4,272.7C78.2,271.6,78.9,269.7,80.4,269.5C80.4,269.5,90.8,268.4,90.8,268.4C91.5,268.3,92,267.9,92.3,267.3C92.3,267.3,96.3,257.8,96.3,257.8C96.3,257.8,96.3,257.8,96.3,257.8Z" /></g></g></g></g></g></g><g visibility="hidden" id="i88"><animate repeatCount="indefinite" begin="0s" calcMode="discrete" dur="4s" values="hidden; visible; visible" keyTimes="0; 0.208; 1" attributeName="visibility" /><g transform="translate(95,301)"><g transform="rotate(56.528)"><animateTransform repeatCount="indefinite" type="rotate" attributeName="transform" dur="4s" begin="0s" calcMode="spline" values="56.528; 56.528; -42; 31; -7; -12" keyTimes="0; 0.208333; 0.458333; 0.758333; 0.966666; 1" keySplines="0 0 1 1; 0 0 1 1; 0 0 1 1; 0 0 1 1; 0 0 1 1" fill="freeze" /><g transform="scale(0.528,0.528)"><animateTransform repeatCount="indefinite" type="scale" attributeName="transform" dur="4s" begin="0s" calcMode="spline" values="0.528 0.528; 0.528 0.528; 0.54 0.54; 0.99 0.99; 0.61 0.61; 1 1" keyTimes="0; 0.208333; 0.4; 0.675; 0.941666; 1" keySplines="0 0 1 1; 0 0 1 1; 0 0 1 1; 0 0 1 1; 0 0 1 1" fill="freeze" /><g transform="translate(-98.112,-275.315)"><g id="i88"><path fill="#fede7e" d="M96.3,257.8C97,256.3,99,256.3,99.7,257.8C99.7,257.8,103.9,267.3,103.9,267.3C104.2,267.9,104.7,268.3,105.4,268.4C105.4,268.4,115.8,269.5,115.8,269.5C117.4,269.7,118,271.6,116.8,272.7C116.8,272.7,109.1,279.7,109.1,279.7C108.6,280.1,108.4,280.8,108.5,281.5C108.5,281.5,110.7,291.7,110.7,291.7C111,293.3,109.4,294.5,108,293.7C108,293.7,99,288.5,99,288.5C98.4,288.2,97.7,288.2,97.2,288.5C97.2,288.5,88.2,293.7,88.2,293.7C86.8,294.5,85.1,293.3,85.5,291.7C85.5,291.7,87.7,281.5,87.7,281.5C87.8,280.9,87.6,280.2,87.1,279.7C87.1,279.7,79.4,272.7,79.4,272.7C78.2,271.6,78.9,269.7,80.4,269.5C80.4,269.5,90.8,268.4,90.8,268.4C91.5,268.3,92,267.9,92.3,267.3C92.3,267.3,96.3,257.8,96.3,257.8C96.3,257.8,96.3,257.8,96.3,257.8Z" /></g></g></g></g></g></g><g visibility="hidden" id="i88"><animate repeatCount="indefinite" begin="0s" calcMode="discrete" dur="4s" values="hidden; visible; visible" keyTimes="0; 0.167; 1" attributeName="visibility" /><g transform="translate(161,768)"><g transform="rotate(44.528)"><animateTransform repeatCount="indefinite" type="rotate" attributeName="transform" dur="4s" begin="0s" calcMode="spline" values="44.528; 44.528; -42; 31; -7; -12" keyTimes="0; 0.166667; 0.416667; 0.716667; 0.925; 1" keySplines="0 0 1 1; 0 0 1 1; 0 0 1 1; 0 0 1 1; 0 0 1 1" fill="freeze" /><g transform="scale(0.587,0.587)"><animateTransform repeatCount="indefinite" type="scale" attributeName="transform" dur="4s" begin="0s" calcMode="spline" values="0.587 0.587; 0.587 0.587; 0.54 0.54; 0.99 0.99; 0.61 0.61; 1 1" keyTimes="0; 0.166667; 0.358333; 0.633333; 0.9; 1" keySplines="0 0 1 1; 0 0 1 1; 0 0 1 1; 0 0 1 1; 0 0 1 1" fill="freeze" /><g transform="translate(-98.112,-275.315)"><g id="i88"><path fill="#fede7e" d="M96.3,257.8C97,256.3,99,256.3,99.7,257.8C99.7,257.8,103.9,267.3,103.9,267.3C104.2,267.9,104.7,268.3,105.4,268.4C105.4,268.4,115.8,269.5,115.8,269.5C117.4,269.7,118,271.6,116.8,272.7C116.8,272.7,109.1,279.7,109.1,279.7C108.6,280.1,108.4,280.8,108.5,281.5C108.5,281.5,110.7,291.7,110.7,291.7C111,293.3,109.4,294.5,108,293.7C108,293.7,99,288.5,99,288.5C98.4,288.2,97.7,288.2,97.2,288.5C97.2,288.5,88.2,293.7,88.2,293.7C86.8,294.5,85.1,293.3,85.5,291.7C85.5,291.7,87.7,281.5,87.7,281.5C87.8,280.9,87.6,280.2,87.1,279.7C87.1,279.7,79.4,272.7,79.4,272.7C78.2,271.6,78.9,269.7,80.4,269.5C80.4,269.5,90.8,268.4,90.8,268.4C91.5,268.3,92,267.9,92.3,267.3C92.3,267.3,96.3,257.8,96.3,257.8C96.3,257.8,96.3,257.8,96.3,257.8Z" /></g></g></g></g></g></g><g visibility="hidden" id="i88"><animate repeatCount="indefinite" begin="0s" calcMode="discrete" dur="4s" values="hidden; visible; visible" keyTimes="0; 0.125; 1" attributeName="visibility" /><g transform="translate(940,278)"><g transform="rotate(32.528)"><animateTransform repeatCount="indefinite" type="rotate" attributeName="transform" dur="4s" begin="0s" calcMode="spline" values="32.528; 32.528; -42; 31; -7; -12" keyTimes="0; 0.125; 0.375; 0.675; 0.883333; 1" keySplines="0 0 1 1; 0 0 1 1; 0 0 1 1; 0 0 1 1; 0 0 1 1" fill="freeze" /><g transform="scale(0.652,0.652)"><animateTransform repeatCount="indefinite" type="scale" attributeName="transform" dur="4s" begin="0s" calcMode="spline" values="0.652 0.652; 0.652 0.652; 0.54 0.54; 0.99 0.99; 0.61 0.61; 1 1" keyTimes="0; 0.125; 0.316667; 0.591667; 0.858333; 1" keySplines="0 0 1 1; 0 0 1 1; 0 0 1 1; 0 0 1 1; 0 0 1 1" fill="freeze" /><g transform="translate(-98.112,-275.315)"><g id="i88"><path fill="#fede7e" d="M96.3,257.8C97,256.3,99,256.3,99.7,257.8C99.7,257.8,103.9,267.3,103.9,267.3C104.2,267.9,104.7,268.3,105.4,268.4C105.4,268.4,115.8,269.5,115.8,269.5C117.4,269.7,118,271.6,116.8,272.7C116.8,272.7,109.1,279.7,109.1,279.7C108.6,280.1,108.4,280.8,108.5,281.5C108.5,281.5,110.7,291.7,110.7,291.7C111,293.3,109.4,294.5,108,293.7C108,293.7,99,288.5,99,288.5C98.4,288.2,97.7,288.2,97.2,288.5C97.2,288.5,88.2,293.7,88.2,293.7C86.8,294.5,85.1,293.3,85.5,291.7C85.5,291.7,87.7,281.5,87.7,281.5C87.8,280.9,87.6,280.2,87.1,279.7C87.1,279.7,79.4,272.7,79.4,272.7C78.2,271.6,78.9,269.7,80.4,269.5C80.4,269.5,90.8,268.4,90.8,268.4C91.5,268.3,92,267.9,92.3,267.3C92.3,267.3,96.3,257.8,96.3,257.8C96.3,257.8,96.3,257.8,96.3,257.8Z" /></g></g></g></g></g></g><g visibility="hidden" id="i88"><animate repeatCount="indefinite" begin="0s" calcMode="discrete" dur="4s" values="hidden; visible; visible" keyTimes="0; 0.083; 1" attributeName="visibility" /><g transform="translate(1000,679)"><g transform="rotate(20.528)"><animateTransform repeatCount="indefinite" type="rotate" attributeName="transform" dur="4s" begin="0s" calcMode="spline" values="20.528; 20.528; -42; 31; -7; -12" keyTimes="0; 0.083333; 0.333333; 0.633333; 0.841666; 1" keySplines="0 0 1 1; 0 0 1 1; 0 0 1 1; 0 0 1 1; 0 0 1 1" fill="freeze" /><g transform="scale(0.725,0.725)"><animateTransform repeatCount="indefinite" type="scale" attributeName="transform" dur="4s" begin="0s" calcMode="spline" values="0.725 0.725; 0.725 0.725; 0.54 0.54; 0.99 0.99; 0.61 0.61; 1 1" keyTimes="0; 0.083333; 0.275; 0.55; 0.816666; 1" keySplines="0 0 1 1; 0 0 1 1; 0 0 1 1; 0 0 1 1; 0 0 1 1" fill="freeze" /><g transform="translate(-98.112,-275.315)"><g id="i88"><path fill="#fede7e" d="M96.3,257.8C97,256.3,99,256.3,99.7,257.8C99.7,257.8,103.9,267.3,103.9,267.3C104.2,267.9,104.7,268.3,105.4,268.4C105.4,268.4,115.8,269.5,115.8,269.5C117.4,269.7,118,271.6,116.8,272.7C116.8,272.7,109.1,279.7,109.1,279.7C108.6,280.1,108.4,280.8,108.5,281.5C108.5,281.5,110.7,291.7,110.7,291.7C111,293.3,109.4,294.5,108,293.7C108,293.7,99,288.5,99,288.5C98.4,288.2,97.7,288.2,97.2,288.5C97.2,288.5,88.2,293.7,88.2,293.7C86.8,294.5,85.1,293.3,85.5,291.7C85.5,291.7,87.7,281.5,87.7,281.5C87.8,280.9,87.6,280.2,87.1,279.7C87.1,279.7,79.4,272.7,79.4,272.7C78.2,271.6,78.9,269.7,80.4,269.5C80.4,269.5,90.8,268.4,90.8,268.4C91.5,268.3,92,267.9,92.3,267.3C92.3,267.3,96.3,257.8,96.3,257.8C96.3,257.8,96.3,257.8,96.3,257.8Z" /></g></g></g></g></g></g><g visibility="hidden" id="i88"><animate repeatCount="indefinite" begin="0s" calcMode="discrete" dur="4s" values="hidden; visible; visible" keyTimes="0; 0.042; 1" attributeName="visibility" /><g transform="translate(999,148)"><g transform="rotate(8.528)"><animateTransform repeatCount="indefinite" type="rotate" attributeName="transform" dur="4s" begin="0s" calcMode="spline" values="8.528; 8.528; -42; 31; -7; -12" keyTimes="0; 0.041667; 0.291667; 0.591667; 0.8; 1" keySplines="0 0 1 1; 0 0 1 1; 0 0 1 1; 0 0 1 1; 0 0 1 1" fill="freeze" /><g transform="scale(0.805,0.805)"><animateTransform repeatCount="indefinite" type="scale" attributeName="transform" dur="4s" begin="0s" calcMode="spline" values="0.805 0.805; 0.805 0.805; 0.54 0.54; 0.99 0.99; 0.61 0.61; 1 1; 1 1" keyTimes="0; 0.041667; 0.233333; 0.508333; 0.775; 0.975; 1" keySplines="0 0 1 1; 0 0 1 1; 0 0 1 1; 0 0 1 1; 0 0 1 1; 0 0 1 1" fill="freeze" /><g transform="translate(-98.112,-275.315)"><g id="i88"><path fill="#fede7e" d="M96.3,257.8C97,256.3,99,256.3,99.7,257.8C99.7,257.8,103.9,267.3,103.9,267.3C104.2,267.9,104.7,268.3,105.4,268.4C105.4,268.4,115.8,269.5,115.8,269.5C117.4,269.7,118,271.6,116.8,272.7C116.8,272.7,109.1,279.7,109.1,279.7C108.6,280.1,108.4,280.8,108.5,281.5C108.5,281.5,110.7,291.7,110.7,291.7C111,293.3,109.4,294.5,108,293.7C108,293.7,99,288.5,99,288.5C98.4,288.2,97.7,288.2,97.2,288.5C97.2,288.5,88.2,293.7,88.2,293.7C86.8,294.5,85.1,293.3,85.5,291.7C85.5,291.7,87.7,281.5,87.7,281.5C87.8,280.9,87.6,280.2,87.1,279.7C87.1,279.7,79.4,272.7,79.4,272.7C78.2,271.6,78.9,269.7,80.4,269.5C80.4,269.5,90.8,268.4,90.8,268.4C91.5,268.3,92,267.9,92.3,267.3C92.3,267.3,96.3,257.8,96.3,257.8C96.3,257.8,96.3,257.8,96.3,257.8Z" /></g></g></g></g></g></g><g id="i88"><g transform="translate(226,122)"><g transform="rotate(-12)"><animateTransform repeatCount="indefinite" type="rotate" attributeName="transform" dur="4s" begin="0s" calcMode="spline" values="-12; -42; 31; -7; -12" keyTimes="0; 0.25; 0.55; 0.758333; 1" keySplines="0 0 1 1; 0 0 1 1; 0 0 1 1; 0 0 1 1" fill="freeze" /><g transform="scale(1,1)"><animateTransform repeatCount="indefinite" type="scale" attributeName="transform" dur="4s" begin="0s" calcMode="spline" values="1 1; 0.54 0.54; 0.99 0.99; 0.61 0.61; 1 1; 1 1" keyTimes="0; 0.191667; 0.466667; 0.733333; 0.933333; 1" keySplines="0 0 1 1; 0 0 1 1; 0 0 1 1; 0 0 1 1; 0 0 1 1" fill="freeze" /><g transform="translate(-98.112,-275.315)"><g id="i88"><path fill="#fede7e" d="M96.3,257.8C97,256.3,99,256.3,99.7,257.8C99.7,257.8,103.9,267.3,103.9,267.3C104.2,267.9,104.7,268.3,105.4,268.4C105.4,268.4,115.8,269.5,115.8,269.5C117.4,269.7,118,271.6,116.8,272.7C116.8,272.7,109.1,279.7,109.1,279.7C108.6,280.1,108.4,280.8,108.5,281.5C108.5,281.5,110.7,291.7,110.7,291.7C111,293.3,109.4,294.5,108,293.7C108,293.7,99,288.5,99,288.5C98.4,288.2,97.7,288.2,97.2,288.5C97.2,288.5,88.2,293.7,88.2,293.7C86.8,294.5,85.1,293.3,85.5,291.7C85.5,291.7,87.7,281.5,87.7,281.5C87.8,280.9,87.6,280.2,87.1,279.7C87.1,279.7,79.4,272.7,79.4,272.7C78.2,271.6,78.9,269.7,80.4,269.5C80.4,269.5,90.8,268.4,90.8,268.4C91.5,268.3,92,267.9,92.3,267.3C92.3,267.3,96.3,257.8,96.3,257.8C96.3,257.8,96.3,257.8,96.3,257.8Z" /></g></g></g></g></g></g></svg>