<svg fill="none" height="100%" width="100%" viewBox="0 0 660 660" xmlns:xlink="http://www.w3.org/1999/xlink" xmlns="http://www.w3.org/2000/svg"><defs><filter filterUnits="userSpaceOnUse" height="200%" width="200%" y="-50%" x="-50%" id="f0"><feTurbulence result="turbulence0" seed="-2088000" numOctaves="5" baseFrequency="0.01 0.01" type="turbulence" /><feDisplacementMap result="turbulentDisplace0" yChannelSelector="G" xChannelSelector="R" scale="1" in2="turbulence0" in="SourceGraphic" /></filter></defs><g transform="matrix(1,0,0,1,116.48,168.564)" id="i1"><g id="i2" transform="matrix(1,0,0,1,197.433,197.433)"><path fill="#f2f2f2" d="M197.183,0C197.183,108.901,108.901,197.183,0,197.183C-108.901,197.183,-197.06,108.901,-197.183,0C-197.407,-197.433,-197.433,-197.844,0,-197.183C108.9,-196.818,197.183,-108.901,197.183,0Z" /></g><g id="i3" transform="matrix(1,0,0,1,0,-2)"><path stroke-miterlimit="10" stroke-width="0.6" stroke="#ffffff" d="M311.594,337.735C311.594,337.735,43.169,337.735,43.169,337.735" /></g><g id="i4"><path stroke-miterlimit="10" stroke-width="1.2" stroke="#ffffff" d="M311.594,328.085C311.594,328.085,43.169,328.085,43.169,328.085" /></g><g id="i5" transform="matrix(1,0,0,1,187.131,210.083)"><path fill="#e5e5e5" d="M-186.884,-12.65C-186.884,96.251,-98.602,184.533,10.299,184.533C87.639,184.533,154.579,140.007,186.884,75.191C186.916,75.127,-85.934,75.444,-85.934,75.444C-85.934,75.444,-86.391,-208.254,-86.403,-208.254C-157.726,-208.17,-175.549,-182.204,-182.511,-140.565C-189.013,-101.676,-186.884,-48.272,-186.884,-12.65Z" /></g><g id="i6" transform="matrix(1,0,0,1,266.564,60.552)"><path fill="#e5e5e5" d="M77.028,4.525C56.081,-18.593,29.722,-36.71,-0.044,-47.848C-0.044,-47.848,-77.028,-47.848,-77.028,-47.848C-77.028,-47.848,-77.028,47.848,-77.028,47.848C-77.028,47.848,77.028,47.848,77.028,47.848C77.028,47.848,77.028,4.525,77.028,4.525Z" /></g><g id="i7" transform="matrix(1,0,0,1,110.496,152.422)"><path fill="#ffffff" d="M59.898,114.801C59.898,114.801,-59.898,114.801,-59.898,114.801C-59.898,114.801,-59.898,-114.801,-59.898,-114.801C-59.898,-114.801,59.898,-114.801,59.898,-114.801C59.898,-114.801,59.898,114.801,59.898,114.801Z" /></g><g id="i8" transform="matrix(1,0,0,1,0.125,0.125)"><path fill="#ffffff" d="M163.267,9.496C163.267,9.496,163.267,239.392,163.267,239.392" /></g><g id="i9"><path stroke-miterlimit="10" stroke-width="0.905" stroke="#f2f2f2" d="M163.392,9.621C163.392,9.621,163.392,239.517,163.392,239.517" /></g><g id="i10" transform="matrix(1,0,0,1,0.125,0.125)"><path fill="#ffffff" d="M57.476,244.392C57.476,244.392,57.476,54.496,57.476,54.496" /></g><g id="i11"><path stroke-miterlimit="10" stroke-width="0.905" stroke="#f2f2f2" d="M57.601,244.517C57.601,244.517,57.601,54.621,57.601,54.621" /></g><g id="i12" transform="matrix(1,0,0,1,0.125,0.625)"><path fill="#ffffff" d="M156.689,9.496C156.689,9.496,156.689,239.392,156.689,239.392" /></g><g id="i13"><path stroke-miterlimit="10" stroke-width="0.847" stroke="#f2f2f2" d="M156.813,9.621C156.813,9.621,156.813,239.517,156.813,239.517" /></g><g id="i14" transform="matrix(1,0,0,1,0.125,0.125)"><path fill="#ffffff" d="M64.055,244.392C64.055,244.392,64.055,40.496,64.055,40.496" /></g><g id="i15"><path stroke-miterlimit="10" stroke-width="0.847" stroke="#f2f2f2" d="M64.179,244.517C64.179,244.517,64.179,40.621,64.179,40.621" /></g><g id="i16" transform="matrix(1,0,0,1,0.125,0.125)"><path fill="#ffffff" d="M156.398,174.247C156.398,174.247,64.079,174.247,64.079,174.247" /></g><g id="i17"><path stroke-miterlimit="10" stroke-width="0.847" stroke="#f2f2f2" d="M156.522,174.372C156.522,174.372,64.203,174.372,64.203,174.372" /></g><g id="i18" transform="matrix(1,0,0,1,0.125,0.125)"><path fill="#ffffff" d="M64.079,81.614C64.079,81.614,156.398,81.614,156.398,81.614" /></g><g id="i19"><path stroke-miterlimit="10" stroke-width="0.847" stroke="#f2f2f2" d="M64.203,81.739C64.203,81.739,156.522,81.739,156.522,81.739" /></g><g id="i20" transform="matrix(1,0,0,1,0.125,0.125)"><path fill="#ffffff" d="M156.398,165.197C156.398,165.197,64.079,165.197,64.079,165.197" /></g><g id="i21"><path stroke-miterlimit="10" stroke-width="0.847" stroke="#f2f2f2" d="M156.522,165.322C156.522,165.322,64.203,165.322,64.203,165.322" /></g><g id="i22"><path stroke-miterlimit="10" stroke-width="0.847" stroke="#f2f2f2" d="M64.203,72.688C64.203,72.688,156.522,72.688,156.522,72.688" /></g><g id="i23" transform="matrix(1,0,0,1,0.125,0.125)"><path fill="#ffffff" d="M64.079,72.563C64.079,72.563,156.398,72.563,156.398,72.563" /></g><g id="i24" transform="matrix(1,0,0,1,121.949,122.443)"><path fill="#f2f2f2" d="M48.33,85.318C48.33,85.318,-48.33,85.318,-48.33,85.318C-48.33,85.318,-48.33,-85.318,-48.33,-85.318C-48.33,-85.318,48.33,-85.318,48.33,-85.318C48.33,-85.318,48.33,85.318,48.33,85.318Z" /></g><g id="i25" transform="matrix(0.688,0,0,1,232.553,342.433)"><path fill="#e0ded7" d="M105.08,23.802C105.08,23.802,-105.08,23.802,-105.08,23.802C-105.08,23.802,-105.08,-23.801,-105.08,-23.801C-105.08,-23.801,105.08,-23.801,105.08,-23.801C105.08,-23.801,105.08,23.802,105.08,23.802Z" /></g><g id="i26" transform="matrix(1,0,0,1,266.564,60.552)" opacity="0.6"><path fill="#d6d6d6" d="M64.305,3.778C46.818,-15.521,24.813,-30.646,-0.038,-39.944C-0.038,-39.944,-64.305,-39.944,-64.305,-39.944C-64.305,-39.944,-64.305,39.945,-64.305,39.945C-64.305,39.945,64.305,39.945,64.305,39.945C64.305,39.945,64.305,3.778,64.305,3.778Z" /></g><g id="i27" transform="matrix(1,0,0,1,371.079,212.379)"><path fill="#e5e5e5" d="M-57.478,56.376C-50.89,35.452,-42.568,22.164,-40.049,16.934C-37.531,11.702,-38.693,-2.247,-18.35,-31.89C1.993,-61.532,13.423,-69.476,13.423,-69.476C13.423,-69.476,23.111,-61.339,23.111,-61.339C23.111,-61.339,15.361,-71.801,15.361,-71.801C15.361,-71.801,29.698,-85.75,37.641,-86.525C45.585,-87.3,60.89,-85.363,53.528,-66.57C46.166,-47.776,23.885,-11.74,23.885,-11.74C23.885,-11.74,10.129,-19.102,10.129,-19.102C10.129,-19.102,22.335,-9.222,22.335,-9.222C22.335,-9.222,11.589,24.008,-3.716,35.052C-19.022,46.095,-27.134,67.409,-30.556,74.475C-34.009,81.606,-42.61,87.299,-50.457,85.138C-58.668,82.877,-60.89,67.217,-57.478,56.376Z" /></g><g id="i28" transform="matrix(1,0,0,1,332.956,172.878)"><path fill="#e0ded7" d="M-38.113,115.53C-38.113,115.53,-55.68,107.193,-59.849,95.58C-64.018,83.968,-57.765,53.894,-57.765,53.894C-57.765,53.894,-39.303,68.484,-39.303,68.484C-39.303,68.484,-55.68,50.917,-55.68,50.917C-55.68,50.917,-48.832,40.793,-46.748,16.675C-44.664,-7.445,-22.332,-31.265,-22.034,-32.158C-21.736,-33.052,-16.079,-61.637,-7.146,-80.097C1.786,-98.558,12.208,-118.508,27.096,-112.255C41.985,-106.002,64.018,-84.564,38.411,-59.254C12.804,-33.945,5.658,1.191,5.658,1.191C5.658,1.191,-13.697,-6.849,-12.208,-6.551C-10.719,-6.253,4.169,4.763,4.169,4.763C4.169,4.763,-4.467,31.562,-4.467,31.562C-4.467,31.562,-25.905,19.95,-24.714,20.545C-23.522,21.14,-6.253,36.922,-6.253,36.922C-6.253,36.922,-17.223,55.914,-22.034,75.035C-26.325,92.088,-24.305,109.306,-27.393,112.255C-33.944,118.508,-38.113,115.53,-38.113,115.53Z" /></g><g id="i29" transform="matrix(1,0,0,1,263.757,243.471)"><path fill="#e5e5e5" d="M26.117,52.247C26.117,52.247,15.076,57.881,0.698,10.019C-5.092,-9.256,-12.513,-24.482,-18.1,-35.331C-26.385,-51.421,-30.638,-57.881,-19.558,-53.641C-1.007,-46.541,29.863,3.159,30.251,28.184C30.638,53.209,26.117,52.247,26.117,52.247Z" /></g><g id="i30" transform="matrix(1,0,0,1,359.91,233.524)"><path fill="#ffffff" d="M-41.151,83.979C-40.784,76.027,-40.136,68.079,-39.052,60.178C-37.907,52.289,-36.394,44.445,-34.408,36.711C-32.443,28.972,-29.891,21.378,-26.839,13.991C-23.773,6.611,-20.196,-0.573,-15.984,-7.38C-11.724,-14.155,-7.084,-20.63,-2.441,-27.105C2.227,-33.56,6.921,-39.993,11.742,-46.332C16.558,-52.673,21.347,-59.033,26.293,-65.275C31.248,-71.51,36.161,-77.775,41.151,-83.979C36.433,-77.563,31.64,-71.209,26.888,-64.825C22.065,-58.495,17.38,-52.057,12.681,-45.635C8.012,-39.19,3.286,-32.789,-1.316,-26.3C-5.914,-19.813,-10.51,-13.307,-14.694,-6.582C-23.094,6.86,-29.083,21.719,-33.284,37.011C-37.506,52.324,-39.86,68.115,-41.151,83.979Z" /></g><g id="i31" transform="matrix(1,0,0,1,321.84,211.366)"><path fill="#ffffff" d="M-14.254,118.054C-17.782,108.157,-20.706,98.037,-23.052,87.781C-25.325,77.508,-27.02,67.101,-28.057,56.621C-28.612,51.384,-28.908,46.123,-29.117,40.861C-29.238,35.595,-29.318,30.325,-29.108,25.06C-28.969,19.792,-28.571,14.536,-28.095,9.288C-27.53,4.05,-26.884,-1.184,-25.974,-6.377C-22.352,-27.139,-15.858,-47.429,-6.457,-66.291C-4.112,-71.007,-1.609,-75.646,1.083,-80.171C3.76,-84.703,6.573,-89.156,9.579,-93.476C15.599,-102.108,22.194,-110.33,29.318,-118.054C22.379,-110.164,15.99,-101.801,10.194,-93.058C7.267,-88.706,4.517,-84.237,1.913,-79.688C-0.707,-75.147,-3.137,-70.5,-5.406,-65.778C-14.538,-46.915,-20.994,-26.772,-24.479,-6.12C-25.404,-0.966,-26.068,4.23,-26.652,9.434C-27.149,14.647,-27.568,19.87,-27.728,25.107C-27.96,30.341,-27.904,35.582,-27.807,40.821C-27.604,46.055,-27.376,51.292,-26.898,56.513C-26.007,66.959,-24.442,77.348,-22.328,87.625C-20.231,97.906,-17.549,108.076,-14.254,118.054Z" /></g><g id="i32" transform="matrix(1,0,0,1,279.469,271.138)"><path fill="#ffffff" d="M15.828,59.399C15.009,54.322,14.267,49.239,13.326,44.188C12.464,39.125,11.509,34.081,10.474,29.052C8.403,18.999,6.139,8.983,3.444,-0.919C0.855,-10.85,-2.136,-20.67,-5.353,-30.418C-6.941,-35.299,-8.628,-40.15,-10.496,-44.933C-12.271,-49.752,-14.094,-54.554,-15.828,-59.399C-11.821,-49.939,-7.618,-40.527,-4.247,-30.797C-0.792,-21.1,2.199,-11.241,4.911,-1.309C7.492,8.658,9.785,18.704,11.616,28.833C12.514,33.901,13.344,38.978,14.056,44.073C14.751,49.17,15.348,54.28,15.828,59.399Z" /></g><g id="i33" transform="matrix(1,0,0,1,306.978,342.354)"><path fill="#f7f7f6" d="M19.12,32.632C19.12,32.632,-19.118,32.632,-19.118,32.632C-19.118,32.632,-21.398,-32.632,-21.398,-32.632C-21.398,-32.632,21.398,-32.632,21.398,-32.632C21.398,-32.632,19.12,32.632,19.12,32.632Z" /></g><g id="i34" transform="matrix(1,0,0,1,306.979,315.222)"><path fill="#e5e5e5" d="M21.997,6.328C21.997,6.328,-21.998,6.328,-21.998,6.328C-21.998,6.328,-23.101,-6.328,-23.101,-6.328C-23.101,-6.328,23.1,-6.328,23.1,-6.328C23.1,-6.328,21.997,6.328,21.997,6.328Z" /></g><g id="i35" transform="matrix(1,0,0,1,70.695,168.758)"><path fill="#e0ded7" d="M28.465,-130.535C28.465,-130.535,28.465,125.584,28.465,125.584C28.465,125.584,22.525,115.684,16.089,120.139C9.653,124.594,8.664,130.535,2.229,127.565C-4.207,124.594,0.742,119.149,-7.179,119.149C-15.099,119.149,-12.624,128.06,-18.07,128.06C-23.515,128.06,-28.465,117.663,-28.465,117.663C-28.465,117.663,-28.465,-130.535,-28.465,-130.535C-28.465,-130.535,28.465,-130.535,28.465,-130.535Z" /></g><g id="i36" transform="matrix(1,0,0,1,63.727,164.639)"><path fill="#f2f2f2" d="M0.166,-124.846C0.166,-124.846,-2.082,-124.846,-2.082,-124.846C-2.082,-124.846,-4.355,124.519,-4.355,124.519C-4.355,124.519,-3.194,123.115,0.236,123.286C3.414,123.444,4.354,124.846,4.354,124.846C4.354,124.846,0.166,-124.846,0.166,-124.846Z" /></g><g id="i37" transform="matrix(1,0,0,1,88.061,164.753)"><path fill="#f2f2f2" d="M3.009,-124.683C3.009,-124.683,-6.772,-124.732,-6.772,-124.732C-6.772,-124.732,-2.114,124.702,-2.114,124.702C-2.114,124.702,0.113,122.737,2.663,122.972C4.782,123.169,6.771,124.732,6.771,124.732C6.771,124.732,3.009,-124.683,3.009,-124.683Z" /></g><g id="i38" transform="matrix(1.713,0,0,1,106.017,33.677)"><path fill="#dedede" d="M40.693,-5.031C40.693,-5.031,-40.693,-5.031,-40.693,-5.031C-40.693,-5.031,-40.693,5.031,-40.693,5.031C-40.693,5.031,40.693,5.031,40.693,5.031C40.693,5.031,40.693,-5.031,40.693,-5.031Z" /></g></g><g transform="matrix(1,0,0,1,204.218,267.412)" id="i39"><g id="i16" transform="matrix(1,0,0,1,90.507,72.576)"><g id="i34" fill="#000000"><path fill-rule="evenodd" d="M-294.726,-339.988C-294.726,-339.988,365.274,-339.988,365.274,-339.988C365.274,-339.988,365.274,320.012,365.274,320.012C365.274,320.012,-294.726,320.012,-294.726,320.012C-294.726,320.012,-294.726,-339.988,-294.726,-339.988ZM-294.726,320.012C-294.726,320.012,365.274,320.012,365.274,320.012C365.274,320.012,365.274,-339.988,365.274,-339.988C365.274,-339.988,-294.726,-339.988,-294.726,-339.988C-294.726,-339.988,-294.726,320.012,-294.726,320.012Z" /></g><path d="M55.704,-0.001C55.704,24.351,30.764,44.091,-0.001,44.091C-30.765,44.091,-55.704,24.351,-55.704,-0.001C-55.704,-24.352,-30.765,-44.091,-0.001,-44.091C30.764,-44.091,55.704,-24.352,55.704,-0.001Z" fill="#000000" /></g><g id="i17" transform="matrix(1,0,0,1,51.517,28.973)"><g id="i34" fill="#000000"><path fill-rule="evenodd" d="M-255.736,-296.384C-255.736,-296.384,404.264,-296.384,404.264,-296.384C404.264,-296.384,404.264,363.616,404.264,363.616C404.264,363.616,-255.736,363.616,-255.736,363.616C-255.736,363.616,-255.736,-296.384,-255.736,-296.384ZM-255.736,363.616C-255.736,363.616,404.264,363.616,404.264,363.616C404.264,363.616,404.264,-296.384,404.264,-296.384C404.264,-296.384,-255.736,-296.384,-255.736,-296.384C-255.736,-296.384,-255.736,363.616,-255.736,363.616Z" /></g><path d="M-12.121,28.723C-11.774,27.628,-15.049,-17.674,-16.925,-27.636C-17.052,-28.307,-16.184,-28.723,-15.673,-28.237C-15.673,-28.237,17.053,5.342,17.053,5.342C17.053,5.342,-12.121,28.723,-12.121,28.723Z" fill="#000000" /></g><g id="i18" transform="matrix(1,0,0,1,131.923,31.234)"><g id="i34" fill="#000000"><path fill-rule="evenodd" d="M-336.141,-298.645C-336.141,-298.645,323.859,-298.645,323.859,-298.645C323.859,-298.645,323.859,361.355,323.859,361.355C323.859,361.355,-336.141,361.355,-336.141,361.355C-336.141,361.355,-336.141,-298.645,-336.141,-298.645ZM-336.141,361.355C-336.141,361.355,323.859,361.355,323.859,361.355C323.859,361.355,323.859,-298.645,323.859,-298.645C323.859,-298.645,-336.141,-298.645,-336.141,-298.645C-336.141,-298.645,-336.141,361.355,-336.141,361.355Z" /></g><path d="M-16.548,5.298C-16.548,5.298,8.481,-20.322,15.254,-26.364C15.759,-26.815,16.548,-26.389,16.456,-25.719C16.456,-25.719,10.766,26.814,10.766,26.814C10.766,26.814,-16.548,5.298,-16.548,5.298Z" fill="#000000" /></g><g id="i19" transform="matrix(1,0,0,1,71.567,66.189)"><g id="i34" fill="#ffffff"><path fill-rule="evenodd" d="M-275.786,-333.6C-275.786,-333.6,384.214,-333.6,384.214,-333.6C384.214,-333.6,384.214,326.4,384.214,326.4C384.214,326.4,-275.786,326.4,-275.786,326.4C-275.786,326.4,-275.786,-333.6,-275.786,-333.6ZM-275.786,326.4C-275.786,326.4,384.214,326.4,384.214,326.4C384.214,326.4,384.214,-333.6,384.214,-333.6C384.214,-333.6,-275.786,-333.6,-275.786,-333.6C-275.786,-333.6,-275.786,326.4,-275.786,326.4Z" /></g><path d="M12.362,-0.001C12.362,6.826,6.826,12.362,-0.001,12.362C-6.828,12.362,-12.362,6.826,-12.362,-0.001C-12.362,-6.828,-6.828,-12.362,-0.001,-12.362C6.826,-12.362,12.362,-6.828,12.362,-0.001Z" fill="#ffffff" /></g><g id="i20" transform="matrix(1,0,0,1,117.692,66.189)"><g id="i34" fill="#ffffff"><path fill-rule="evenodd" d="M-321.911,-333.6C-321.911,-333.6,338.089,-333.6,338.089,-333.6C338.089,-333.6,338.089,326.4,338.089,326.4C338.089,326.4,-321.911,326.4,-321.911,326.4C-321.911,326.4,-321.911,-333.6,-321.911,-333.6ZM-321.911,326.4C-321.911,326.4,338.089,326.4,338.089,326.4C338.089,326.4,338.089,-333.6,338.089,-333.6C338.089,-333.6,-321.911,-333.6,-321.911,-333.6C-321.911,-333.6,-321.911,326.4,-321.911,326.4Z" /></g><path d="M12.362,-0.001C12.362,6.826,6.826,12.362,-0.001,12.362C-6.828,12.362,-12.362,6.826,-12.362,-0.001C-12.362,-6.828,-6.828,-12.362,-0.001,-12.362C6.826,-12.362,12.362,-6.828,12.362,-0.001Z" fill="#ffffff" /></g><g id="i21" transform="matrix(1,0,0,1,96.706,208.496)"><g id="i34" fill="#000000"><path fill-rule="evenodd" d="M-300.925,-475.908C-300.925,-475.908,359.075,-475.908,359.075,-475.908C359.075,-475.908,359.075,184.092,359.075,184.092C359.075,184.092,-300.925,184.092,-300.925,184.092C-300.925,184.092,-300.925,-475.908,-300.925,-475.908ZM-300.925,184.092C-300.925,184.092,359.075,184.092,359.075,184.092C359.075,184.092,359.075,-475.908,359.075,-475.908C359.075,-475.908,-300.925,-475.908,-300.925,-475.908C-300.925,-475.908,-300.925,184.092,-300.925,184.092Z" /></g><path d="M14.093,-95.325C14.093,-95.325,42.697,-57.818,44.648,33.658C44.912,46.07,58.753,58.965,55.292,66.649C41.53,97.208,-12.174,91.026,-32.185,83.942C-42.235,80.384,-57.291,81.487,-58.419,70.886C-58.753,67.747,-51.109,54.081,-51.376,50.138C-52.694,30.703,-52.496,1.91,-43.822,-32.23C-41.139,-42.791,-32.994,-81.265,-19.338,-92.971C-14.394,-97.209,14.093,-95.325,14.093,-95.325Z" fill="#000000" /></g><g id="i23" transform="matrix(1,0,0,1,150.471,90.747)"><g id="i34" fill="#000000"><path fill-rule="evenodd" d="M-354.69,-358.159C-354.69,-358.159,305.31,-358.159,305.31,-358.159C305.31,-358.159,305.31,301.841,305.31,301.841C305.31,301.841,-354.69,301.841,-354.69,301.841C-354.69,301.841,-354.69,-358.159,-354.69,-358.159ZM-354.69,301.841C-354.69,301.841,305.31,301.841,305.31,301.841C305.31,301.841,305.31,-358.159,305.31,-358.159C305.31,-358.159,-354.69,-358.159,-354.69,-358.159C-354.69,-358.159,-354.69,301.841,-354.69,301.841Z" /></g><path d="M-30.185,-3.558C-29.586,-3.634,30.185,3.634,30.185,3.634" fill="#000000" /></g><g id="i22" transform="matrix(1,0,0,1,150.467,90.787)"><g id="i34" fill="#000000"><path fill-rule="evenodd" d="M-354.686,-358.199C-354.686,-358.199,305.314,-358.199,305.314,-358.199C305.314,-358.199,305.314,301.801,305.314,301.801C305.314,301.801,-354.686,301.801,-354.686,301.801C-354.686,301.801,-354.686,-358.199,-354.686,-358.199ZM-354.686,301.801C-354.686,301.801,305.314,301.801,305.314,301.801C305.314,301.801,305.314,-358.199,305.314,-358.199C305.314,-358.199,-354.686,-358.199,-354.686,-358.199C-354.686,-358.199,-354.686,301.801,-354.686,301.801Z" /></g><path d="M-30.188,-3.656C-25.082,-3.477,-20.063,-2.928,-15.012,-2.448C-9.971,-1.926,-4.957,-1.191,0.066,-0.523C10.115,0.792,20.159,2.145,30.198,3.535C30.229,3.539,30.251,3.571,30.247,3.603C30.243,3.634,30.213,3.656,30.182,3.652C30.182,3.652,-0.046,0.409,-0.046,0.409C-5.084,-0.132,-10.128,-0.606,-15.15,-1.281C-20.164,-1.974,-25.199,-2.69,-30.173,-3.539C-30.173,-3.539,-30.201,-3.544,-30.201,-3.544C-30.231,-3.549,-30.251,-3.578,-30.246,-3.608C-30.241,-3.636,-30.216,-3.657,-30.188,-3.656Z" fill="#000000" /></g><g id="i38" transform="matrix(1,0,0,1,148.574,97.42)"><g id="i34" fill="#000000"><path fill-rule="evenodd" d="M-352.793,-364.831C-352.793,-364.831,307.207,-364.831,307.207,-364.831C307.207,-364.831,307.207,295.169,307.207,295.169C307.207,295.169,-352.793,295.169,-352.793,295.169C-352.793,295.169,-352.793,-364.831,-352.793,-364.831ZM-352.793,295.169C-352.793,295.169,307.207,295.169,307.207,295.169C307.207,295.169,307.207,-364.831,307.207,-364.831C307.207,-364.831,-352.793,-364.831,-352.793,-364.831C-352.793,-364.831,-352.793,295.169,-352.793,295.169Z" /></g><path d="M-29.175,-6.5C-29.175,-6.5,29.175,6.5,29.175,6.5" fill="#000000" /></g><g id="i24" transform="matrix(1,0,0,1,148.575,97.421)"><g id="i34" fill="#000000"><path fill-rule="evenodd" d="M-352.794,-364.832C-352.794,-364.832,307.206,-364.832,307.206,-364.832C307.206,-364.832,307.206,295.168,307.206,295.168C307.206,295.168,-352.794,295.168,-352.794,295.168C-352.794,295.168,-352.794,-364.832,-352.794,-364.832ZM-352.794,295.168C-352.794,295.168,307.206,295.168,307.206,295.168C307.206,295.168,307.206,-364.832,307.206,-364.832C307.206,-364.832,-352.794,-364.832,-352.794,-364.832C-352.794,-364.832,-352.794,295.168,-352.794,295.168Z" /></g><path d="M-29.163,-6.559C-24.227,-5.804,-19.347,-4.803,-14.461,-3.824C-9.582,-2.816,-4.746,-1.605,0.102,-0.459C9.804,1.809,19.5,4.109,29.188,6.441C29.219,6.449,29.238,6.482,29.23,6.513C29.223,6.545,29.193,6.563,29.163,6.557C19.4,4.556,9.645,2.524,-0.103,0.459C-4.979,-0.563,-9.871,-1.518,-14.716,-2.676C-19.555,-3.865,-24.399,-5.031,-29.189,-6.443C-29.22,-6.453,-29.238,-6.485,-29.228,-6.516C-29.22,-6.544,-29.192,-6.563,-29.163,-6.559Z" fill="#000000" /></g><g id="i35" transform="matrix(1,0,0,1,145.263,102.927)"><g id="i34" fill="#000000"><path fill-rule="evenodd" d="M-349.481,-370.338C-349.481,-370.338,310.519,-370.338,310.519,-370.338C310.519,-370.338,310.519,289.662,310.519,289.662C310.519,289.662,-349.481,289.662,-349.481,289.662C-349.481,289.662,-349.481,-370.338,-349.481,-370.338ZM-349.481,289.662C-349.481,289.662,310.519,289.662,310.519,289.662C310.519,289.662,310.519,-370.338,310.519,-370.338C310.519,-370.338,-349.481,-370.338,-349.481,-370.338C-349.481,-370.338,-349.481,289.662,-349.481,289.662Z" /></g><path d="M-27.596,-9.853C-27.159,-9.801,27.596,9.853,27.596,9.853" fill="#000000" /></g><g id="i36" transform="matrix(1,0,0,1,145.259,102.927)"><g id="i34" fill="#000000"><path fill-rule="evenodd" d="M-349.478,-370.338C-349.478,-370.338,310.522,-370.338,310.522,-370.338C310.522,-370.338,310.522,289.662,310.522,289.662C310.522,289.662,-349.478,289.662,-349.478,289.662C-349.478,289.662,-349.478,-370.338,-349.478,-370.338ZM-349.478,289.662C-349.478,289.662,310.522,289.662,310.522,289.662C310.522,289.662,310.522,-370.338,310.522,-370.338C310.522,-370.338,-349.478,-370.338,-349.478,-370.338C-349.478,-370.338,-349.478,289.662,-349.478,289.662Z" /></g><path d="M-27.585,-9.912C-22.83,-8.636,-18.227,-7.055,-13.583,-5.52C-8.957,-3.951,-4.403,-2.182,0.174,-0.477C9.334,2.913,18.482,6.339,27.618,9.798C27.648,9.81,27.664,9.843,27.653,9.873C27.642,9.903,27.608,9.918,27.579,9.907C27.579,9.907,-0.144,0.407,-0.144,0.407C-4.763,-1.179,-9.405,-2.699,-13.979,-4.413C-18.539,-6.146,-23.119,-7.895,-27.6,-9.795C-27.6,-9.795,-27.623,-9.804,-27.623,-9.804C-27.652,-9.816,-27.665,-9.849,-27.653,-9.878C-27.642,-9.904,-27.612,-9.919,-27.585,-9.912Z" fill="#000000" /></g><g id="i37" transform="matrix(1,0,0,1,30.778,96.505)"><g id="i34" fill="#000000"><path fill-rule="evenodd" d="M-234.996,-363.916C-234.996,-363.916,425.004,-363.916,425.004,-363.916C425.004,-363.916,425.004,296.084,425.004,296.084C425.004,296.084,-234.996,296.084,-234.996,296.084C-234.996,296.084,-234.996,-363.916,-234.996,-363.916ZM-234.996,296.084C-234.996,296.084,425.004,296.084,425.004,296.084C425.004,296.084,425.004,-363.916,425.004,-363.916C425.004,-363.916,-234.996,-363.916,-234.996,-363.916C-234.996,-363.916,-234.996,296.084,-234.996,296.084Z" /></g><path d="M30.465,-2.573C29.864,-2.679,-30.465,2.678,-30.465,2.678" fill="#000000" /></g><g id="i25" transform="matrix(1,0,0,1,30.781,96.557)"><g id="i34" fill="#000000"><path fill-rule="evenodd" d="M-235,-363.968C-235,-363.968,425,-363.968,425,-363.968C425,-363.968,425,296.032,425,296.032C425,296.032,-235,296.032,-235,296.032C-235,296.032,-235,-363.968,-235,-363.968ZM-235,296.032C-235,296.032,425,296.032,425,296.032C425,296.032,425,-363.968,425,-363.968C425,-363.968,-235,-363.968,-235,-363.968C-235,-363.968,-235,296.032,-235,296.032Z" /></g><path d="M30.451,-2.564C25.425,-1.868,20.338,-1.307,15.276,-0.772C10.206,-0.255,5.117,0.051,0.034,0.429C0.034,0.429,-30.463,2.687,-30.463,2.687C-30.497,2.69,-30.526,2.665,-30.528,2.631C-30.531,2.598,-30.507,2.569,-30.474,2.566C-30.474,2.566,-15.265,0.975,-15.265,0.975C-15.265,0.975,-0.051,-0.545,-0.051,-0.545C5.021,-1.054,10.086,-1.632,15.171,-1.99C20.266,-2.302,25.329,-2.69,30.472,-2.684C30.504,-2.684,30.531,-2.658,30.531,-2.626C30.531,-2.596,30.509,-2.572,30.48,-2.568C30.48,-2.568,30.451,-2.564,30.451,-2.564Z" fill="#000000" /></g><g id="i26" transform="matrix(1,0,0,1,32.507,103.757)"><g id="i34" fill="#000000"><path fill-rule="evenodd" d="M-236.726,-371.169C-236.726,-371.169,423.274,-371.169,423.274,-371.169C423.274,-371.169,423.274,288.831,423.274,288.831C423.274,288.831,-236.726,288.831,-236.726,288.831C-236.726,288.831,-236.726,-371.169,-236.726,-371.169ZM-236.726,288.831C-236.726,288.831,423.274,288.831,423.274,288.831C423.274,288.831,423.274,-371.169,423.274,-371.169C423.274,-371.169,-236.726,-371.169,-236.726,-371.169C-236.726,-371.169,-236.726,288.831,-236.726,288.831Z" /></g><path d="M29.527,-5.784C29.527,-5.784,-29.527,5.784,-29.527,5.784" fill="#000000" /></g><g id="i27" transform="matrix(1,0,0,1,32.505,103.758)"><g id="i34" fill="#000000"><path fill-rule="evenodd" d="M-236.724,-371.169C-236.724,-371.169,423.276,-371.169,423.276,-371.169C423.276,-371.169,423.276,288.831,423.276,288.831C423.276,288.831,-236.724,288.831,-236.724,288.831C-236.724,288.831,-236.724,-371.169,-236.724,-371.169ZM-236.724,288.831C-236.724,288.831,423.276,288.831,423.276,288.831C423.276,288.831,423.276,-371.169,423.276,-371.169C423.276,-371.169,-236.724,-371.169,-236.724,-371.169C-236.724,-371.169,-236.724,288.831,-236.724,288.831Z" /></g><path d="M29.541,-5.725C24.687,-4.417,19.783,-3.367,14.883,-2.292C9.978,-1.25,5.03,-0.42,0.096,0.479C0.096,0.479,-14.702,3.192,-14.702,3.192C-14.702,3.192,-29.513,5.843,-29.513,5.843C-29.546,5.849,-29.578,5.828,-29.584,5.795C-29.59,5.762,-29.568,5.731,-29.537,5.724C-29.537,5.724,-14.82,2.591,-14.82,2.591C-14.82,2.591,-0.092,-0.48,-0.092,-0.48C4.817,-1.509,9.712,-2.607,14.648,-3.493C19.591,-4.347,24.529,-5.224,29.518,-5.845C29.551,-5.849,29.582,-5.825,29.586,-5.791C29.59,-5.761,29.57,-5.733,29.541,-5.725Z" fill="#000000" /></g><g id="i28" transform="matrix(1,0,0,1,35.691,109.804)"><g id="i34" fill="#000000"><path fill-rule="evenodd" d="M-239.91,-377.216C-239.91,-377.216,420.091,-377.216,420.091,-377.216C420.091,-377.216,420.091,282.784,420.091,282.784C420.091,282.784,-239.91,282.784,-239.91,282.784C-239.91,282.784,-239.91,-377.216,-239.91,-377.216ZM-239.91,282.784C-239.91,282.784,420.091,282.784,420.091,282.784C420.091,282.784,420.091,-377.216,420.091,-377.216C420.091,-377.216,-239.91,-377.216,-239.91,-377.216C-239.91,-377.216,-239.91,282.784,-239.91,282.784Z" /></g><path d="M28.028,-9.448C27.588,-9.41,-28.028,9.448,-28.028,9.448" fill="#000000" /></g><g id="i29" transform="matrix(1,0,0,1,35.693,109.804)"><g id="i34" fill="#000000"><path fill-rule="evenodd" d="M-239.912,-377.215C-239.912,-377.215,420.088,-377.215,420.088,-377.215C420.088,-377.215,420.088,282.785,420.088,282.785C420.088,282.785,-239.912,282.785,-239.912,282.785C-239.912,282.785,-239.912,-377.215,-239.912,-377.215ZM-239.912,282.785C-239.912,282.785,420.088,282.785,420.088,282.785C420.088,282.785,420.088,-377.215,420.088,-377.215C420.088,-377.215,-239.912,-377.215,-239.912,-377.215C-239.912,-377.215,-239.912,282.785,-239.912,282.785Z" /></g><path d="M28.031,-9.386C23.479,-7.543,18.825,-5.858,14.192,-4.188C9.547,-2.538,4.833,-1.089,0.142,0.427C0.142,0.427,-13.926,4.993,-13.926,4.993C-13.926,4.993,-28.011,9.507,-28.011,9.507C-28.043,9.516,-28.077,9.499,-28.088,9.467C-28.098,9.435,-28.081,9.402,-28.05,9.39C-28.05,9.39,-14.121,4.414,-14.121,4.414C-14.121,4.414,-0.172,-0.5,-0.172,-0.5C4.478,-2.141,9.104,-3.848,13.802,-5.346C18.518,-6.808,23.192,-8.319,28.02,-9.508C28.052,-9.516,28.084,-9.496,28.092,-9.465C28.098,-9.436,28.083,-9.407,28.056,-9.397C28.056,-9.397,28.031,-9.386,28.031,-9.386Z" fill="#000000" /></g><g id="i30" transform="matrix(1,0,0,1,96.014,83.306)"><g id="i34" fill="#383031"><path fill-rule="evenodd" d="M-300.233,-350.717C-300.233,-350.717,359.767,-350.717,359.767,-350.717C359.767,-350.717,359.767,309.283,359.767,309.283C359.767,309.283,-300.233,309.283,-300.233,309.283C-300.233,309.283,-300.233,-350.717,-300.233,-350.717ZM-300.233,309.283C-300.233,309.283,359.767,309.283,359.767,309.283C359.767,309.283,359.767,-350.717,359.767,-350.717C359.767,-350.717,-300.233,-350.717,-300.233,-350.717C-300.233,-350.717,-300.233,309.283,-300.233,309.283Z" /></g><path d="M0.681,5.71C0.681,5.71,-7.015,-1.985,-7.015,-1.985C-8.389,-3.359,-7.416,-5.71,-5.471,-5.71C-5.471,-5.71,5.529,-5.71,5.529,-5.71C7.378,-5.71,8.389,-3.554,7.206,-2.133C7.206,-2.133,0.681,5.71,0.681,5.71Z" fill="#383031" /></g><g id="i31" transform="matrix(1,0,0,1,96.889,95.911)"><g id="i34" fill="#383031"><path fill-rule="evenodd" d="M-301.107,-363.323C-301.107,-363.323,358.893,-363.323,358.893,-363.323C358.893,-363.323,358.893,296.677,358.893,296.677C358.893,296.677,-301.107,296.677,-301.107,296.677C-301.107,296.677,-301.107,-363.323,-301.107,-363.323ZM-301.107,296.677C-301.107,296.677,358.893,296.677,358.893,296.677C358.893,296.677,358.893,-363.323,358.893,-363.323C358.893,-363.323,-301.107,-363.323,-301.107,-363.323C-301.107,-363.323,-301.107,296.677,-301.107,296.677Z" /></g><path d="M-0.31,-11.819C-0.31,-11.819,-0.31,6.313,-0.31,6.313C-0.31,6.313,-7.288,11.819,-7.288,11.819C-7.288,11.819,-0.034,6.66,-0.034,6.66C-0.034,6.66,7.288,11.819,7.288,11.819C7.288,11.819,0.174,6.313,0.174,6.313C0.174,6.313,-0.31,-11.819,-0.31,-11.819Z" fill="#383031" /></g><g id="i32" transform="matrix(1,0,0,1,96.448,118.677)"><path fill="#bb0000" d="M20.219,1.925C20.219,1.925,-19.704,4.927,-19.704,4.927C-21.596,5.07,-23.244,3.651,-23.386,1.758C-23.529,-0.134,-22.11,-1.783,-20.218,-1.926C-20.218,-1.926,19.704,-4.928,19.704,-4.928C21.596,-5.07,23.245,-3.651,23.387,-1.76C23.53,0.133,22.111,1.782,20.219,1.925Z" /></g><g id="i33" transform="matrix(1,0,0,1,97.15,129.163)"><path fill="#bb0000" d="M-9.01,-6.374C-9.01,-6.374,-6.051,8.628,9.01,2.053C9.01,2.053,4.59,2.529,0.298,-3.593C-3.232,-8.628,-9.01,-6.374,-9.01,-6.374Z" /></g><g id="i34" transform="matrix(1,0,0,1,77.12,130.222)"><path fill="#bb0000" d="M11.344,-7.605C11.344,-7.605,11.444,3.815,2.817,6.856C-5.809,9.898,-11.444,4.862,-11.444,4.862C-11.444,4.862,-5.909,7.305,-2.319,2.219C1.271,-2.868,5.111,-9.898,11.344,-7.605Z" /></g></g><g id="i40"><g transform="translate(298.889,333.6)"><animateTransform repeatCount="indefinite" type="translate" attributeName="transform" dur="8s" begin="0s" calcMode="spline" values="298.889 333.6; 298.889 333.6; 299.889 329.6; 299.889 329.6; 298.889 333.6; 298.889 333.6" keyTimes="0; 0.682292; 0.6875; 0.755208; 0.760417; 1" keySplines="0 0 1 1; 0 0 1 1; 0 0 1 1; 0 0 1 1; 0 0 1 1" fill="freeze" /><g transform="scale(1,1) translate(-32.618,-9.516)"><g id="i33" transform="matrix(1,0,0,1,9.515,9.516)"><path d="M9.265,-0.001C9.265,5.116,5.117,9.266,0,9.266C-5.117,9.266,-9.265,5.116,-9.265,-0.001C-9.265,-5.118,-5.117,-9.266,0,-9.266C5.117,-9.266,9.265,-5.118,9.265,-0.001Z" fill="#151212"><animate repeatCount="indefinite" attributeName="d" dur="8s" begin="0s" calcMode="spline" values="M9.265,-0.001C9.265,5.116,5.117,9.266,0,9.266C-5.117,9.266,-9.265,5.116,-9.265,-0.001C-9.265,-5.118,-5.117,-9.266,0,-9.266C5.117,-9.266,9.265,-5.118,9.265,-0.001Z; M9.265,-0.001C9.265,5.116,5.117,9.266,0,9.266C-5.117,9.266,-9.265,5.116,-9.265,-0.001C-9.265,-5.118,-5.117,-9.266,0,-9.266C5.117,-9.266,9.265,-5.118,9.265,-0.001Z; M7.89,0.624C8.04,2.519,4.617,1.141,-0.5,1.141C-5.617,1.141,-8.911,2.649,-8.765,0.624C-8.659,-0.854,-5.492,-0.016,-0.375,-0.016C4.742,-0.016,7.714,-1.601,7.89,0.624Z; M9.265,-0.001C9.265,5.116,5.117,9.266,0,9.266C-5.117,9.266,-9.265,5.116,-9.265,-0.001C-9.265,-5.118,-5.117,-9.266,0,-9.266C5.117,-9.266,9.265,-5.118,9.265,-0.001Z; M9.265,-0.001C9.265,5.116,5.117,9.266,0,9.266C-5.117,9.266,-9.265,5.116,-9.265,-0.001C-9.265,-5.118,-5.117,-9.266,0,-9.266C5.117,-9.266,9.265,-5.118,9.265,-0.001Z; M7.89,0.624C8.04,2.519,4.617,1.141,-0.5,1.141C-5.617,1.141,-8.911,2.649,-8.765,0.624C-8.659,-0.854,-5.492,-0.016,-0.375,-0.016C4.742,-0.016,7.714,-1.601,7.89,0.624Z; M9.265,-0.001C9.265,5.116,5.117,9.266,0,9.266C-5.117,9.266,-9.265,5.116,-9.265,-0.001C-9.265,-5.118,-5.117,-9.266,0,-9.266C5.117,-9.266,9.265,-5.118,9.265,-0.001Z; M9.265,-0.001C9.265,5.116,5.117,9.266,0,9.266C-5.117,9.266,-9.265,5.116,-9.265,-0.001C-9.265,-5.118,-5.117,-9.266,0,-9.266C5.117,-9.266,9.265,-5.118,9.265,-0.001Z" keyTimes="0; 0.260417; 0.270834; 0.28125; 0.916667; 0.927083; 0.9375; 1" keySplines="0 0 1 1; 0 0 1 1; 0 0 1 1; 0 0 1 1; 0 0 1 1; 0 0 1 1; 0 0 1 1" fill="freeze" /></path></g><g id="i34" transform="matrix(1,0,0,1,55.721,9.516)"><path d="M9.265,-0.001C9.265,5.116,5.117,9.266,0,9.266C-5.117,9.266,-9.265,5.116,-9.265,-0.001C-9.265,-5.118,-5.117,-9.266,0,-9.266C5.117,-9.266,9.265,-5.118,9.265,-0.001Z" fill="#151212"><animate repeatCount="indefinite" attributeName="d" dur="8s" begin="0s" calcMode="spline" values="M9.265,-0.001C9.265,5.116,5.117,9.266,0,9.266C-5.117,9.266,-9.265,5.116,-9.265,-0.001C-9.265,-5.118,-5.117,-9.266,0,-9.266C5.117,-9.266,9.265,-5.118,9.265,-0.001Z; M9.265,-0.001C9.265,5.116,5.117,9.266,0,9.266C-5.117,9.266,-9.265,5.116,-9.265,-0.001C-9.265,-5.118,-5.117,-9.266,0,-9.266C5.117,-9.266,9.265,-5.118,9.265,-0.001Z; M7.515,-0.001C7.758,1.649,5.492,0.391,0.375,0.391C-4.742,0.391,-8.242,1.149,-8.39,0.124C-8.708,-2.078,-4.992,-0.766,0.125,-0.766C5.242,-0.766,7.172,-2.328,7.515,-0.001Z; M9.265,-0.001C9.265,5.116,5.117,9.266,0,9.266C-5.117,9.266,-9.265,5.116,-9.265,-0.001C-9.265,-5.118,-5.117,-9.266,0,-9.266C5.117,-9.266,9.265,-5.118,9.265,-0.001Z; M9.265,-0.001C9.265,5.116,5.117,9.266,0,9.266C-5.117,9.266,-9.265,5.116,-9.265,-0.001C-9.265,-5.118,-5.117,-9.266,0,-9.266C5.117,-9.266,9.265,-5.118,9.265,-0.001Z; M7.515,-0.001C7.758,1.649,5.492,0.391,0.375,0.391C-4.742,0.391,-8.242,1.149,-8.39,0.124C-8.708,-2.078,-4.992,-0.766,0.125,-0.766C5.242,-0.766,7.172,-2.328,7.515,-0.001Z; M9.265,-0.001C9.265,5.116,5.117,9.266,0,9.266C-5.117,9.266,-9.265,5.116,-9.265,-0.001C-9.265,-5.118,-5.117,-9.266,0,-9.266C5.117,-9.266,9.265,-5.118,9.265,-0.001Z; M9.265,-0.001C9.265,5.116,5.117,9.266,0,9.266C-5.117,9.266,-9.265,5.116,-9.265,-0.001C-9.265,-5.118,-5.117,-9.266,0,-9.266C5.117,-9.266,9.265,-5.118,9.265,-0.001Z" keyTimes="0; 0.260417; 0.270834; 0.28125; 0.916667; 0.927083; 0.9375; 1" keySplines="0 0 1 1; 0 0 1 1; 0 0 1 1; 0 0 1 1; 0 0 1 1; 0 0 1 1; 0 0 1 1" fill="freeze" /></path></g></g></g></g><g opacity="0" id="i41"><animate repeatCount="indefinite" attributeName="opacity" dur="8s" begin="0s" fill="freeze" values="0; 0; 1; 1; 0; 0" keyTimes="0; 0.46875; 0.479167; 0.984375; 0.994792; 1" keySplines="0 0 1 1; 0 0 1 1; 0 0 1 1; 0 0 1 1; 0 0 1 1" calcMode="spline" /><g transform="translate(287.881,257.227)"><animateTransform repeatCount="indefinite" type="translate" attributeName="transform" dur="8s" begin="0s" calcMode="spline" values="287.881 257.227; 287.881 257.227; 297.881 246.227; 297.881 246.227" keyTimes="0; 0.46875; 0.505208; 1" keySplines="0 0 1 1; 0 0 1 1; 0 0 1 1" fill="freeze" /><g transform="scale(0,0)"><animateTransform repeatCount="indefinite" type="scale" attributeName="transform" dur="8s" begin="0s" calcMode="spline" values="0 0; 0 0; 1.15 1.15; 1 1; 1 1" keyTimes="0; 0.46875; 0.5; 0.505208; 1" keySplines="0 0 1 1; 0.947 0 0.093 1; 0.92 0 1 1; 0 0 1 1" fill="freeze" /><g transform="translate(-0.818,-166.837)"><g id="i34" transform="matrix(1,0,0,1,103.818,84.837)"><path fill="#151212" d="M70.721,-84.587C70.721,-84.587,-70.721,-84.587,-70.721,-84.587C-88.862,-84.587,-103.568,-69.881,-103.568,-51.74C-103.568,-51.74,-103.568,11.304,-103.568,11.304C-103.568,29.445,-88.862,44.151,-70.721,44.151C-70.721,44.151,-63.544,44.151,-63.544,44.151C-63.544,44.151,-63.544,84.587,-63.544,84.587C-63.544,84.587,-23.107,44.151,-23.107,44.151C-23.107,44.151,70.721,44.151,70.721,44.151C88.862,44.151,103.568,29.445,103.568,11.304C103.568,11.304,103.568,-51.74,103.568,-51.74C103.568,-69.881,88.862,-84.587,70.721,-84.587Z" /></g></g></g></g></g><g id="i42"><animate repeatCount="indefinite" attributeName="opacity" dur="8s" begin="0s" fill="freeze" values="1; 1; 0; 0" keyTimes="0; 0.984375; 0.994792; 1" keySplines="0 0 1 1; 0 0 1 1; 0 0 1 1" calcMode="spline" /><g filter="url(#f0)" transform="translate(326.881,289.227) scale(1,1) translate(-0.818,-166.837)"><g id="i30" transform="matrix(1,0,0,1,10.628,19.308)"><path fill="#ffffff" fill-opacity="0" d="M8.735,1.15C8.735,1.15,-5.614,1.15,-5.614,1.15C-5.614,1.15,-5.614,14.458,-5.614,14.458C-5.614,14.458,10.378,14.458,10.378,14.458C10.378,14.458,10.378,18.455,10.378,18.455C10.378,18.455,-10.378,18.455,-10.378,18.455C-10.378,18.455,-10.378,-18.455,-10.378,-18.455C-10.378,-18.455,9.556,-18.455,9.556,-18.455C9.556,-18.455,9.556,-14.458,9.556,-14.458C9.556,-14.458,-5.614,-14.458,-5.614,-14.458C-5.614,-14.458,-5.614,-2.793,-5.614,-2.793C-5.614,-2.793,8.735,-2.793,8.735,-2.793C8.735,-2.793,8.735,1.15,8.735,1.15Z"><animate repeatCount="indefinite" attributeName="fill-opacity" dur="8s" begin="0s" fill="freeze" values="0; 0; 1; 1" keyTimes="0; 0.510417; 0.515625; 1" keySplines="0 0 1 1; 0 0 1 1; 0 0 1 1" calcMode="spline" /></path></g><g id="i31" transform="matrix(1,0,0,1,39.213,19.171)"><path fill="#ffffff" fill-opacity="0" d="M-12.02,-17.825C-9.61,-18.318,-6.16,-18.592,-2.874,-18.592C2.219,-18.592,5.505,-17.661,7.805,-15.58C9.667,-13.937,10.706,-11.418,10.706,-8.57C10.706,-3.697,7.641,-0.465,3.752,0.849C3.752,0.849,3.752,1.013,3.752,1.013C6.599,1.999,8.298,4.628,9.174,8.461C10.379,13.609,11.254,17.169,12.02,18.592C12.02,18.592,7.093,18.592,7.093,18.592C6.49,17.552,5.668,14.376,4.628,9.776C3.532,4.682,1.561,2.766,-2.765,2.601C-2.765,2.601,-7.255,2.601,-7.255,2.601C-7.255,2.601,-7.255,18.592,-7.255,18.592C-7.255,18.592,-12.02,18.592,-12.02,18.592C-12.02,18.592,-12.02,-17.825,-12.02,-17.825ZM-7.255,-1.013C-7.255,-1.013,-2.381,-1.013,-2.381,-1.013C2.712,-1.013,5.943,-3.806,5.943,-8.023C5.943,-12.787,2.493,-14.868,-2.546,-14.923C-4.846,-14.923,-6.488,-14.704,-7.255,-14.485C-7.255,-14.485,-7.255,-1.013,-7.255,-1.013Z"><animate repeatCount="indefinite" attributeName="fill-opacity" dur="8s" begin="0s" fill="freeze" values="0; 0; 1; 1" keyTimes="0; 0.520833; 0.526042; 1" keySplines="0 0 1 1; 0 0 1 1; 0 0 1 1" calcMode="spline" /></path></g><g id="i32" transform="matrix(1,0,0,1,68.675,19.171)"><path fill="#ffffff" fill-opacity="0" d="M-12.02,-17.825C-9.61,-18.318,-6.16,-18.592,-2.874,-18.592C2.219,-18.592,5.505,-17.661,7.805,-15.58C9.667,-13.937,10.706,-11.418,10.706,-8.57C10.706,-3.697,7.641,-0.465,3.752,0.849C3.752,0.849,3.752,1.013,3.752,1.013C6.6,1.999,8.298,4.628,9.174,8.461C10.379,13.609,11.254,17.169,12.02,18.592C12.02,18.592,7.093,18.592,7.093,18.592C6.49,17.552,5.668,14.376,4.628,9.776C3.532,4.682,1.561,2.766,-2.765,2.601C-2.765,2.601,-7.255,2.601,-7.255,2.601C-7.255,2.601,-7.255,18.592,-7.255,18.592C-7.255,18.592,-12.02,18.592,-12.02,18.592C-12.02,18.592,-12.02,-17.825,-12.02,-17.825ZM-7.255,-1.013C-7.255,-1.013,-2.381,-1.013,-2.381,-1.013C2.712,-1.013,5.943,-3.806,5.943,-8.023C5.943,-12.787,2.493,-14.868,-2.546,-14.923C-4.846,-14.923,-6.488,-14.704,-7.255,-14.485C-7.255,-14.485,-7.255,-1.013,-7.255,-1.013Z"><animate repeatCount="indefinite" attributeName="fill-opacity" dur="8s" begin="0s" fill="freeze" values="0; 0; 1; 1" keyTimes="0; 0.53125; 0.536458; 1" keySplines="0 0 1 1; 0 0 1 1; 0 0 1 1" calcMode="spline" /></path></g><g id="i33" transform="matrix(1,0,0,1,100.957,19.308)"><path fill="#ffffff" fill-opacity="0" d="M16.868,-0.384C16.868,12.322,9.146,19.058,-0.274,19.058C-10.021,19.058,-16.868,11.5,-16.868,0.328C-16.868,-11.391,-9.585,-19.058,0.273,-19.058C10.35,-19.058,16.868,-11.336,16.868,-0.384ZM-11.774,0.219C-11.774,8.105,-7.504,15.17,-0.001,15.17C7.557,15.17,11.829,8.215,11.829,-0.164C11.829,-7.503,7.995,-15.17,0.054,-15.17C-7.832,-15.17,-11.774,-7.886,-11.774,0.219Z"><animate repeatCount="indefinite" attributeName="fill-opacity" dur="8s" begin="0s" fill="freeze" values="0; 0; 1; 1" keyTimes="0; 0.541667; 0.546875; 1" keySplines="0 0 1 1; 0 0 1 1; 0 0 1 1" calcMode="spline" /></path></g><g id="i34" transform="matrix(1,0,0,1,136.032,19.171)"><path fill="#ffffff" fill-opacity="0" d="M-12.02,-17.825C-9.61,-18.318,-6.16,-18.592,-2.874,-18.592C2.219,-18.592,5.505,-17.661,7.805,-15.58C9.667,-13.937,10.706,-11.418,10.706,-8.57C10.706,-3.697,7.641,-0.465,3.752,0.849C3.752,0.849,3.752,1.013,3.752,1.013C6.599,1.999,8.298,4.628,9.174,8.461C10.379,13.609,11.254,17.169,12.02,18.592C12.02,18.592,7.093,18.592,7.093,18.592C6.49,17.552,5.668,14.376,4.628,9.776C3.532,4.682,1.561,2.766,-2.765,2.601C-2.765,2.601,-7.255,2.601,-7.255,2.601C-7.255,2.601,-7.255,18.592,-7.255,18.592C-7.255,18.592,-12.02,18.592,-12.02,18.592C-12.02,18.592,-12.02,-17.825,-12.02,-17.825ZM-7.255,-1.013C-7.255,-1.013,-2.381,-1.013,-2.381,-1.013C2.712,-1.013,5.943,-3.806,5.943,-8.023C5.943,-12.787,2.493,-14.868,-2.546,-14.923C-4.846,-14.923,-6.488,-14.704,-7.255,-14.485C-7.255,-14.485,-7.255,-1.013,-7.255,-1.013Z"><animate repeatCount="indefinite" attributeName="fill-opacity" dur="8s" begin="0s" fill="freeze" values="0; 0; 1; 1" keyTimes="0; 0.552083; 0.557292; 1" keySplines="0 0 1 1; 0 0 1 1; 0 0 1 1" calcMode="spline" /></path></g></g></g><g transform="matrix(1,0,0,1,137.196,410.674)" id="i43"><g id="i34" transform="matrix(1,0,0,1,82.616,79.946)"><path d="M68.194,49.062C53.589,49.622,-39.868,65.665,-52.152,15.863C-59.079,-12.221,-44.618,-23.085,-30.541,-22.633C-15.865,-22.162,-17.735,-12.24,-21.184,-2.418C-22.618,1.665,-18.087,11.242,-8.419,-1.625C1.882,-15.335,-8.551,-41.136,-35.311,-38.904C-63.118,-36.585,-78.618,-9.084,-67.152,26.649C-50.041,79.972,51.882,72.165,76.5,66.269C79.129,65.639,81.477,56.315,78.422,52.105C75.896,48.624,69.961,48.995,68.194,49.062Z" fill="#000000"><animate repeatCount="indefinite" attributeName="d" dur="8s" begin="0s" calcMode="spline" values="M68.194,49.062C53.589,49.622,-39.868,65.665,-52.152,15.863C-59.079,-12.221,-44.618,-23.085,-30.541,-22.633C-15.865,-22.162,-17.735,-12.24,-21.184,-2.418C-22.618,1.665,-18.087,11.242,-8.419,-1.625C1.882,-15.335,-8.551,-41.136,-35.311,-38.904C-63.118,-36.585,-78.618,-9.084,-67.152,26.649C-50.041,79.972,51.882,72.165,76.5,66.269C79.129,65.639,81.477,56.315,78.422,52.105C75.896,48.624,69.961,48.995,68.194,49.062Z; M68.194,49.062C53.589,49.622,-39.868,65.665,-52.152,15.863C-59.079,-12.221,-44.618,-23.085,-30.541,-22.633C-15.865,-22.162,-17.735,-12.24,-21.184,-2.418C-22.618,1.665,-18.087,11.242,-8.419,-1.625C1.882,-15.335,-8.551,-41.136,-35.311,-38.904C-63.118,-36.585,-78.618,-9.084,-67.152,26.649C-50.041,79.972,51.882,72.165,76.5,66.269C79.129,65.639,81.477,56.315,78.422,52.105C75.896,48.624,69.961,48.995,68.194,49.062Z; M68.194,49.062C53.589,49.622,-34.053,64.744,-52.152,15.863C-61.921,-11.01,-48.332,-31.625,-29.958,-33.549C-17.862,-33.808,-16.108,-26.106,-17.101,-21.334C-17.225,-19.742,-11.527,-12.712,-6.252,-22.041C0.439,-41.37,-18.754,-51.361,-41.144,-46.07C-68.985,-36.747,-79.86,-6.45,-66.985,26.899C-46.335,79.283,52.707,73.068,76.5,66.269C79.093,65.523,81.477,56.315,78.422,52.105C75.896,48.624,69.961,48.995,68.194,49.062Z; M68.194,49.061C53.589,49.621,-28.238,63.823,-52.152,15.863C-64.763,-9.799,-53.296,-38.667,-30.624,-42.966C-21.107,-43.954,-14.48,-39.974,-13.017,-40.251C-11.832,-41.15,-6.718,-38.292,-5.836,-44.083C-2.562,-60.62,-28.959,-61.586,-46.978,-53.237C-74.853,-36.911,-81.103,-3.817,-66.819,27.149C-42.629,78.593,53.532,73.971,76.5,66.269C79.056,65.406,81.477,56.315,78.422,52.105C75.896,48.624,69.961,48.994,68.194,49.061Z; M68.194,49.062C53.589,49.622,-22.423,62.903,-52.152,15.864C-67.606,-8.587,-55.76,-48.708,-28.791,-55.383C-21.854,-57.101,-12.853,-53.841,-8.934,-59.168C-6.439,-62.558,-8.908,-65.872,-12.419,-68.125C-19.368,-72.585,-39.163,-71.812,-52.811,-60.404C-80.72,-37.075,-82.346,-1.184,-66.652,27.399C-38.923,77.903,54.357,74.875,76.5,66.27C79.02,65.291,81.477,56.316,78.422,52.106C75.896,48.625,69.961,48.995,68.194,49.062Z; M68.194,49.062C53.589,49.622,-20.533,61.804,-50.319,19.03C-67.858,-4.671,-60.436,-43.604,-38.041,-52.966C-32.315,-57.015,-16.674,-55.753,-13.101,-61.251C-10.687,-65.231,-13.848,-69.09,-17.419,-70.708C-24.46,-73.92,-49.239,-71.69,-60.811,-58.32C-84.44,-31.659,-82.141,3.583,-64.485,30.899C-35.784,77.258,54.357,74.875,76.5,66.27C79.02,65.291,81.477,56.316,78.422,52.106C75.896,48.625,69.961,48.995,68.194,49.062Z; M68.194,49.061C53.589,49.621,-16.751,59.608,-46.652,25.364C-68.362,3.165,-72.038,-36.646,-58.791,-51.382C-46.311,-63.12,-41.515,-66.228,-38.634,-72.067C-36.381,-77.227,-40.679,-79.428,-44.369,-79.774C-51.595,-80.49,-69.39,-71.447,-76.811,-54.153C-91.88,-20.827,-81.732,13.116,-60.152,37.899C-29.508,75.969,54.357,74.875,76.5,66.27C79.02,65.291,81.477,56.316,78.422,52.106C75.896,48.625,69.961,48.994,68.194,49.061Z; M68.194,49.061C53.589,49.621,-14.861,58.509,-44.819,28.53C-68.614,7.081,-75.964,-30.459,-67.291,-47.882C-62.561,-62.37,-53.102,-71.174,-50.567,-77.184C-48.394,-82.934,-53.469,-86.597,-57.219,-86.308C-64.538,-85.777,-79.466,-71.326,-84.811,-52.07C-95.6,-15.411,-81.527,17.883,-57.985,41.399C-26.37,75.325,54.357,74.875,76.5,66.27C79.02,65.291,81.477,56.316,78.422,52.106C75.896,48.625,69.961,48.994,68.194,49.061Z; M68.194,49.062C53.589,49.622,-11.08,56.314,-41.152,34.864C-69.118,14.916,-83.816,-18.086,-84.291,-40.882C-84.618,-56.584,-76.277,-63.816,-74.434,-70.167C-72.423,-77.097,-79.05,-83.685,-82.919,-82.124C-90.423,-79.097,-98.311,-70.62,-100.811,-47.903C-105.556,-4.782,-81.118,27.416,-53.652,48.399C-20.094,74.036,54.357,74.875,76.5,66.27C79.02,65.291,81.477,56.316,78.422,52.106C75.896,48.625,69.961,48.995,68.194,49.062Z; M68.194,49.061C53.589,49.621,-3.599,57.115,-35.902,39.676C-65.118,24.041,-79.766,1.914,-84.978,-16.195C-89.067,-28.772,-89.811,-60.37,-90.309,-68.73C-90.561,-81.87,-102.061,-80.87,-104.231,-71.124C-105.895,-63.215,-106.465,-34.977,-98.936,-13.591C-92.337,18.942,-72.243,38.916,-43.527,54.899C-11.981,72.101,52.488,73.259,76.5,66.269C79.064,65.486,81.477,56.316,78.422,52.106C75.896,48.625,69.961,48.994,68.194,49.061Z; M68.194,49.062C53.589,49.622,3.882,57.916,-30.652,44.489C-61.118,33.166,-75.717,21.915,-85.666,8.493C-93.517,-0.96,-112.618,-32.584,-118.434,-43.042C-124.368,-54.834,-135.569,-48.874,-132.794,-40.374C-128.618,-27.584,-114.618,0.666,-97.061,20.722C-79.118,42.666,-63.368,50.416,-33.402,61.399C-3.868,70.166,50.619,71.646,76.5,66.27C79.108,65.683,81.477,56.316,78.422,52.106C75.896,48.625,69.961,48.995,68.194,49.062Z; M68.194,49.062C53.589,49.622,8.882,56.166,-25.402,49.301C-57.81,43.487,-72.417,37.165,-87.103,28.43C-101.561,22.13,-134.868,-1.459,-143.934,-12.73C-151.789,-23.422,-161.49,-11.61,-157.481,-3.749C-149.118,11.291,-118.061,31.63,-96.936,42.284C-68.868,57.041,-52.627,60.473,-26.527,66.399C1.257,71.291,48.751,70.031,76.5,66.27C79.152,65.879,81.477,56.316,78.422,52.106C75.896,48.625,69.961,48.995,68.194,49.062Z; M68.194,49.062C53.589,49.622,13.882,54.416,-20.152,54.114C-54.502,53.809,-69.118,52.416,-88.541,48.368C-103.916,45.163,-139.118,31.666,-151.434,19.583C-161.21,9.991,-168.412,20.653,-163.169,27.876C-150.618,45.166,-119.579,59.335,-96.811,63.847C-58.618,71.416,-41.885,70.53,-19.652,71.399C6.382,72.416,46.882,68.416,76.5,66.27C79.196,66.075,81.477,56.316,78.422,52.106C75.896,48.625,69.961,48.995,68.194,49.062Z; M68.194,49.062C53.589,49.622,13.882,54.416,-20.152,54.114C-54.502,53.809,-69.118,52.416,-88.541,48.368C-103.916,45.163,-139.118,31.666,-151.434,19.583C-161.21,9.991,-168.412,20.653,-163.169,27.876C-150.618,45.166,-119.579,59.335,-96.811,63.847C-58.618,71.416,-41.885,70.53,-19.652,71.399C6.382,72.416,46.882,68.416,76.5,66.27C79.196,66.075,81.477,56.316,78.422,52.106C75.896,48.625,69.961,48.995,68.194,49.062Z; M68.194,49.062C53.589,49.622,3.882,57.916,-30.652,44.489C-61.118,33.166,-75.717,21.915,-85.666,8.493C-93.517,-0.96,-112.618,-32.584,-118.434,-43.042C-124.368,-54.834,-135.569,-48.874,-132.794,-40.374C-128.618,-27.584,-114.618,0.665,-97.061,20.721C-79.118,42.665,-63.368,50.416,-33.402,61.399C-3.868,70.166,50.619,71.646,76.5,66.27C79.108,65.683,81.477,56.316,78.422,52.106C75.896,48.625,69.961,48.995,68.194,49.062Z; M68.194,49.062C53.589,49.622,-11.08,56.314,-41.152,34.864C-69.118,14.916,-83.816,-18.086,-84.291,-40.882C-84.618,-56.584,-76.277,-63.816,-74.434,-70.167C-72.423,-77.097,-79.05,-83.685,-82.919,-82.124C-90.423,-79.097,-98.311,-70.62,-100.811,-47.903C-105.556,-4.782,-81.118,27.416,-53.652,48.399C-20.094,74.036,54.357,74.875,76.5,66.27C79.02,65.291,81.477,56.316,78.422,52.106C75.896,48.625,69.961,48.995,68.194,49.062Z; M68.194,49.061C53.589,49.621,-16.751,59.608,-46.652,25.364C-68.362,3.165,-72.038,-36.646,-58.791,-51.382C-46.311,-63.12,-41.515,-66.228,-38.634,-72.067C-36.381,-77.227,-40.679,-79.428,-44.369,-79.774C-51.595,-80.49,-69.39,-71.447,-76.811,-54.153C-91.88,-20.827,-81.732,13.116,-60.152,37.899C-29.508,75.969,54.357,74.875,76.5,66.27C79.02,65.291,81.477,56.316,78.422,52.106C75.896,48.625,69.961,48.994,68.194,49.061Z; M68.194,49.061C53.589,49.621,-22.423,62.903,-52.152,15.864C-67.606,-8.587,-55.76,-48.708,-28.791,-55.383C-21.854,-57.101,-12.853,-53.841,-8.934,-59.168C-6.439,-62.558,-8.908,-65.872,-12.419,-68.125C-19.368,-72.585,-39.163,-71.812,-52.811,-60.404C-80.72,-37.075,-82.346,-1.184,-66.652,27.399C-38.923,77.903,54.357,74.875,76.5,66.27C79.02,65.291,81.477,56.316,78.422,52.106C75.896,48.625,69.961,48.994,68.194,49.061Z; M68.194,49.062C53.589,49.622,-34.053,64.744,-52.152,15.863C-61.921,-11.01,-48.332,-31.625,-29.958,-33.549C-17.862,-33.808,-16.108,-26.106,-17.101,-21.334C-17.225,-19.742,-11.527,-12.712,-6.252,-22.041C0.439,-41.37,-18.754,-51.361,-41.144,-46.07C-68.985,-36.747,-79.86,-6.45,-66.985,26.899C-46.335,79.283,52.707,73.068,76.5,66.269C79.093,65.523,81.477,56.315,78.422,52.105C75.896,48.624,69.961,48.995,68.194,49.062Z; M68.194,49.062C53.589,49.622,-39.868,65.665,-52.152,15.863C-59.079,-12.221,-44.618,-23.085,-30.541,-22.633C-15.865,-22.162,-17.735,-12.24,-21.184,-2.418C-22.618,1.665,-18.087,11.242,-8.419,-1.625C1.882,-15.335,-8.551,-41.136,-35.311,-38.904C-63.118,-36.585,-78.618,-9.084,-67.152,26.649C-50.041,79.972,51.882,72.166,76.5,66.27C79.129,65.64,81.477,56.315,78.422,52.105C75.896,48.624,69.961,48.995,68.194,49.062Z; M68.194,49.062C53.589,49.622,-39.868,65.665,-52.152,15.863C-59.079,-12.221,-44.618,-23.085,-30.541,-22.633C-15.865,-22.162,-17.735,-12.24,-21.184,-2.418C-22.618,1.665,-18.087,11.242,-8.419,-1.625C1.882,-15.335,-8.551,-41.136,-35.311,-38.904C-63.118,-36.585,-78.618,-9.084,-67.152,26.649C-50.041,79.972,51.882,72.166,76.5,66.27C79.129,65.64,81.477,56.315,78.422,52.105C75.896,48.624,69.961,48.995,68.194,49.062Z; M68.194,49.062C53.589,49.622,-34.053,64.744,-52.152,15.863C-61.921,-11.01,-48.332,-31.625,-29.958,-33.549C-17.862,-33.808,-16.108,-26.106,-17.101,-21.334C-17.225,-19.742,-11.527,-12.712,-6.252,-22.041C0.439,-41.37,-18.754,-51.361,-41.144,-46.07C-68.985,-36.747,-79.86,-6.45,-66.985,26.899C-46.335,79.283,52.707,73.068,76.5,66.269C79.093,65.523,81.477,56.315,78.422,52.105C75.896,48.624,69.961,48.995,68.194,49.062Z; M68.194,49.061C53.589,49.621,-28.238,63.823,-52.152,15.863C-64.763,-9.799,-53.296,-38.667,-30.624,-42.966C-21.107,-43.954,-14.48,-39.974,-13.017,-40.251C-11.832,-41.15,-6.718,-38.292,-5.836,-44.083C-2.562,-60.62,-28.959,-61.586,-46.978,-53.237C-74.853,-36.911,-81.103,-3.817,-66.819,27.149C-42.629,78.593,53.532,73.971,76.5,66.269C79.056,65.406,81.477,56.316,78.422,52.106C75.896,48.625,69.961,48.994,68.194,49.061Z; M68.194,49.061C53.589,49.621,-22.423,62.903,-52.152,15.864C-67.606,-8.587,-55.76,-48.708,-28.791,-55.383C-21.854,-57.101,-12.853,-53.841,-8.934,-59.168C-6.439,-62.558,-8.908,-65.872,-12.419,-68.125C-19.368,-72.585,-39.163,-71.812,-52.811,-60.404C-80.72,-37.075,-82.346,-1.184,-66.652,27.399C-38.923,77.903,54.357,74.875,76.5,66.27C79.02,65.291,81.477,56.316,78.422,52.106C75.896,48.625,69.961,48.994,68.194,49.061Z; M68.194,49.062C53.589,49.622,-20.533,61.804,-50.319,19.03C-67.858,-4.671,-60.436,-43.604,-38.041,-52.966C-32.315,-57.015,-16.674,-55.753,-13.101,-61.251C-10.687,-65.231,-13.848,-69.09,-17.419,-70.708C-24.46,-73.92,-49.239,-71.69,-60.811,-58.32C-84.44,-31.659,-82.141,3.583,-64.485,30.899C-35.784,77.258,54.357,74.875,76.5,66.27C79.02,65.291,81.477,56.316,78.422,52.106C75.896,48.625,69.961,48.995,68.194,49.062Z; M68.194,49.061C53.589,49.621,-16.751,59.608,-46.652,25.364C-68.362,3.165,-72.038,-36.646,-58.791,-51.382C-46.311,-63.12,-41.515,-66.228,-38.634,-72.067C-36.381,-77.227,-40.679,-79.428,-44.369,-79.774C-51.595,-80.49,-69.39,-71.447,-76.811,-54.153C-91.88,-20.827,-81.732,13.116,-60.152,37.899C-29.508,75.969,54.357,74.875,76.5,66.27C79.02,65.291,81.477,56.316,78.422,52.106C75.896,48.625,69.961,48.994,68.194,49.061Z; M68.194,49.062C53.589,49.622,-14.861,58.509,-44.819,28.53C-68.614,7.081,-75.964,-30.459,-67.291,-47.882C-62.561,-62.37,-53.102,-71.174,-50.567,-77.184C-48.394,-82.934,-53.469,-86.597,-57.219,-86.308C-64.538,-85.777,-79.466,-71.326,-84.811,-52.07C-95.6,-15.411,-81.527,17.883,-57.985,41.399C-26.37,75.325,54.357,74.875,76.5,66.27C79.02,65.291,81.477,56.316,78.422,52.106C75.896,48.625,69.961,48.995,68.194,49.062Z; M68.194,49.062C53.589,49.622,-11.08,56.314,-41.152,34.864C-69.118,14.916,-83.816,-18.086,-84.291,-40.882C-84.618,-56.584,-76.277,-63.816,-74.434,-70.167C-72.423,-77.097,-79.05,-83.685,-82.919,-82.124C-90.423,-79.097,-98.311,-70.62,-100.811,-47.903C-105.556,-4.782,-81.118,27.416,-53.652,48.399C-20.094,74.036,54.357,74.875,76.5,66.27C79.02,65.291,81.477,56.316,78.422,52.106C75.896,48.625,69.961,48.995,68.194,49.062Z; M68.194,49.061C53.589,49.621,-3.599,57.115,-35.902,39.676C-65.118,24.041,-79.766,1.914,-84.978,-16.195C-89.067,-28.772,-89.811,-60.37,-90.309,-68.73C-90.561,-81.87,-102.061,-80.87,-104.231,-71.124C-105.895,-63.215,-106.465,-34.977,-98.936,-13.591C-92.337,18.942,-72.243,38.916,-43.527,54.899C-11.981,72.101,52.488,73.259,76.5,66.269C79.064,65.486,81.477,56.316,78.422,52.106C75.896,48.625,69.961,48.994,68.194,49.061Z; M68.194,49.062C53.589,49.622,3.882,57.916,-30.652,44.489C-61.118,33.166,-75.717,21.915,-85.666,8.493C-93.517,-0.96,-112.618,-32.584,-118.434,-43.042C-124.368,-54.834,-135.569,-48.874,-132.794,-40.374C-128.618,-27.584,-114.618,0.665,-97.061,20.721C-79.118,42.665,-63.368,50.416,-33.402,61.399C-3.868,70.166,50.619,71.646,76.5,66.27C79.108,65.683,81.477,56.316,78.422,52.106C75.896,48.625,69.961,48.995,68.194,49.062Z; M68.194,49.062C53.589,49.622,8.882,56.166,-25.402,49.301C-57.81,43.487,-72.417,37.165,-87.103,28.43C-101.561,22.13,-134.868,-1.459,-143.934,-12.73C-151.789,-23.422,-161.49,-11.61,-157.481,-3.749C-149.118,11.291,-118.061,31.63,-96.936,42.284C-68.868,57.041,-52.627,60.473,-26.527,66.399C1.257,71.291,48.751,70.031,76.5,66.27C79.152,65.879,81.477,56.316,78.422,52.106C75.896,48.625,69.961,48.995,68.194,49.062Z; M68.194,49.062C53.589,49.622,13.882,54.416,-20.152,54.114C-54.502,53.809,-69.118,52.416,-88.541,48.368C-103.916,45.163,-139.118,31.666,-151.434,19.583C-161.21,9.991,-168.412,20.653,-163.169,27.876C-150.618,45.166,-119.579,59.335,-96.811,63.847C-58.618,71.416,-41.885,70.53,-19.652,71.399C6.382,72.416,46.882,68.416,76.5,66.27C79.196,66.075,81.477,56.316,78.422,52.106C75.896,48.625,69.961,48.995,68.194,49.062Z; M68.194,49.062C53.589,49.622,13.882,54.416,-20.152,54.114C-54.502,53.809,-69.118,52.416,-88.541,48.368C-103.916,45.163,-139.118,31.666,-151.434,19.583C-161.21,9.991,-168.412,20.653,-163.169,27.876C-150.618,45.166,-119.579,59.335,-96.811,63.847C-58.618,71.416,-41.885,70.53,-19.652,71.399C6.382,72.416,46.882,68.416,76.5,66.27C79.196,66.075,81.477,56.316,78.422,52.106C75.896,48.625,69.961,48.995,68.194,49.062Z; M68.194,49.062C53.589,49.622,3.882,57.916,-30.652,44.489C-61.118,33.166,-75.717,21.915,-85.666,8.493C-93.517,-0.96,-112.618,-32.584,-118.434,-43.042C-124.368,-54.834,-135.569,-48.874,-132.794,-40.374C-128.618,-27.584,-114.618,0.665,-97.061,20.721C-79.118,42.665,-63.368,50.416,-33.402,61.399C-3.868,70.166,50.619,71.646,76.5,66.27C79.108,65.683,81.477,56.316,78.422,52.106C75.896,48.625,69.961,48.995,68.194,49.062Z; M68.194,49.062C53.589,49.622,-11.08,56.314,-41.152,34.864C-69.118,14.916,-83.816,-18.086,-84.291,-40.882C-84.618,-56.584,-76.277,-63.816,-74.434,-70.167C-72.423,-77.097,-79.05,-83.685,-82.919,-82.124C-90.423,-79.097,-98.311,-70.62,-100.811,-47.903C-105.556,-4.782,-81.118,27.416,-53.652,48.399C-20.094,74.036,54.357,74.875,76.5,66.27C79.02,65.291,81.477,56.316,78.422,52.106C75.896,48.625,69.961,48.995,68.194,49.062Z; M68.194,49.061C53.589,49.621,-16.751,59.608,-46.652,25.364C-68.362,3.165,-72.038,-36.646,-58.791,-51.382C-46.311,-63.12,-41.515,-66.228,-38.634,-72.067C-36.381,-77.227,-40.679,-79.428,-44.369,-79.774C-51.595,-80.49,-69.39,-71.447,-76.811,-54.153C-91.88,-20.827,-81.732,13.116,-60.152,37.899C-29.508,75.969,54.357,74.875,76.5,66.27C79.02,65.291,81.477,56.316,78.422,52.106C75.896,48.625,69.961,48.994,68.194,49.061Z; M68.194,49.061C53.589,49.621,-22.423,62.903,-52.152,15.864C-67.606,-8.587,-55.76,-48.708,-28.791,-55.383C-21.854,-57.101,-12.853,-53.841,-8.934,-59.168C-6.439,-62.558,-8.908,-65.872,-12.419,-68.125C-19.368,-72.585,-39.163,-71.812,-52.811,-60.404C-80.72,-37.075,-82.346,-1.184,-66.652,27.399C-38.923,77.903,54.357,74.875,76.5,66.27C79.02,65.291,81.477,56.316,78.422,52.106C75.896,48.625,69.961,48.994,68.194,49.061Z; M68.194,49.062C53.589,49.622,-34.053,64.744,-52.152,15.863C-61.921,-11.01,-48.332,-31.625,-29.958,-33.549C-17.862,-33.808,-16.108,-26.106,-17.101,-21.334C-17.225,-19.742,-11.527,-12.712,-6.252,-22.041C0.439,-41.37,-18.754,-51.361,-41.144,-46.07C-68.985,-36.747,-79.86,-6.45,-66.985,26.899C-46.335,79.283,52.707,73.068,76.5,66.269C79.093,65.523,81.477,56.315,78.422,52.105C75.896,48.624,69.961,48.995,68.194,49.062Z; M68.194,49.062C53.589,49.622,-39.868,65.665,-52.152,15.863C-59.079,-12.221,-44.618,-23.085,-30.541,-22.633C-15.865,-22.162,-17.735,-12.24,-21.184,-2.418C-22.618,1.665,-18.087,11.242,-8.419,-1.625C1.882,-15.335,-8.551,-41.136,-35.311,-38.904C-63.118,-36.585,-78.618,-9.084,-67.152,26.649C-50.041,79.972,51.882,72.166,76.5,66.27C79.129,65.64,81.477,56.315,78.422,52.105C75.896,48.624,69.961,48.995,68.194,49.062Z; M68.194,49.062C53.589,49.622,-39.868,65.665,-52.152,15.863C-59.079,-12.221,-44.618,-23.085,-30.541,-22.633C-15.865,-22.162,-17.735,-12.24,-21.184,-2.418C-22.618,1.665,-18.087,11.242,-8.419,-1.625C1.882,-15.335,-8.551,-41.136,-35.311,-38.904C-63.118,-36.585,-78.618,-9.084,-67.152,26.649C-50.041,79.972,51.882,72.166,76.5,66.27C79.129,65.64,81.477,56.315,78.422,52.105C75.896,48.624,69.961,48.995,68.194,49.062Z" keyTimes="0; 0.046875; 0.052083; 0.057292; 0.0625; 0.067708; 0.072917; 0.078125; 0.083333; 0.088542; 0.09375; 0.098958; 0.104167; 0.119792; 0.125; 0.130208; 0.135417; 0.140625; 0.145833; 0.151042; 0.333333; 0.338542; 0.34375; 0.348958; 0.354167; 0.359375; 0.364583; 0.369792; 0.375; 0.380208; 0.385417; 0.390625; 0.40625; 0.411458; 0.416667; 0.421875; 0.427083; 0.432292; 0.4375; 1" keySplines="0 0 1 1; 0 0 1 1; 0 0 1 1; 0 0 1 1; 0 0 1 1; 0 0 1 1; 0 0 1 1; 0 0 1 1; 0 0 1 1; 0 0 1 1; 0 0 1 1; 0 0 1 1; 0 0 1 1; 0 0 1 1; 0 0 1 1; 0 0 1 1; 0 0 1 1; 0 0 1 1; 0 0 1 1; 0 0 1 1; 0 0 1 1; 0 0 1 1; 0 0 1 1; 0 0 1 1; 0 0 1 1; 0 0 1 1; 0 0 1 1; 0 0 1 1; 0 0 1 1; 0 0 1 1; 0 0 1 1; 0 0 1 1; 0 0 1 1; 0 0 1 1; 0 0 1 1; 0 0 1 1; 0 0 1 1; 0 0 1 1; 0 0 1 1" fill="freeze" /></path></g></g></svg>