<svg fill="none" height="100%" width="100%" viewBox="0 0 500 500" xmlns:xlink="http://www.w3.org/1999/xlink" xmlns="http://www.w3.org/2000/svg"><g transform="matrix(0.471,0,0,0.471,1.206,27.964)" id="i0"><g><g transform="translate(484,337)"><animateTransform repeatCount="indefinite" type="translate" attributeName="transform" dur="5s" begin="0s" calcMode="spline" values="484 337; 562 337; 484 337; 562 337; 484 337; 562 337; 484 337" keyTimes="0; 0.16; 0.36; 0.54; 0.706667; 0.873333; 1" keySplines="0 0 1 1; 0 0 1 1; 0 0 1 1; 0 0 1 1; 0 0 1 1; 0 0 1 1" fill="freeze" /><g id="i1" transform="translate(-514.425,-337.18)"><g id="i1" transform="matrix(1,0,0,1,0,0)" opacity="0.39"><path fill="#7cb4d9" d="M79.88,293.61C55.81,293.61,36.31,274.11,36.31,250.04C36.31,225.97,55.81,206.47,79.88,206.47C79.88,206.47,455.46,206.47,455.46,206.47C479.53,206.47,499.03,186.97,499.03,162.9C499.03,138.83,479.53,119.33,455.46,119.33C455.46,119.33,396.69,119.33,396.69,119.33C372.62,119.33,353.12,99.83,353.12,75.76C353.12,51.69,372.62,32.19,396.69,32.19C396.69,32.19,854.16,32.19,854.16,32.19C878.23,32.19,897.73,51.69,897.73,75.76C897.73,99.83,878.23,119.33,854.16,119.33C854.16,119.33,777.49,119.33,777.49,119.33C753.42,119.33,733.92,138.83,733.92,162.9C733.92,186.97,753.42,206.47,777.49,206.47C777.49,206.47,948.97,206.47,948.97,206.47C973.04,206.47,992.54,225.97,992.54,250.04C992.54,274.11,973.04,293.61,948.97,293.61C948.97,293.61,759.49,293.61,759.49,293.61C735.42,293.61,715.92,313.11,715.92,337.18C715.92,361.25,735.42,380.75,759.49,380.75C759.49,380.75,905.41,380.75,905.41,380.75C929.48,380.75,948.98,400.25,948.98,424.32C948.98,448.39,929.48,467.89,905.41,467.89C905.41,467.89,854.17,467.89,854.17,467.89C830.1,467.89,810.6,487.39,810.6,511.46C810.6,535.53,830.1,555.03,854.17,555.03C854.17,555.03,932.44,555.03,932.44,555.03C956.51,555.03,976.01,574.53,976.01,598.6C976.01,622.67,956.49,642.17,932.44,642.17C932.44,642.17,316.84,642.17,316.84,642.17C292.77,642.17,273.27,622.67,273.27,598.6C273.27,574.53,292.77,555.03,316.84,555.03C316.84,555.03,396.69,555.03,396.69,555.03C420.76,555.03,440.26,535.53,440.26,511.46C440.26,487.39,420.76,467.89,396.69,467.89C396.69,467.89,167.96,467.89,167.96,467.89C143.89,467.89,124.39,448.39,124.39,424.32C124.39,400.25,143.89,380.75,167.96,380.75C167.96,380.75,333.92,380.75,333.92,380.75C357.99,380.75,377.49,361.25,377.49,337.18C377.49,313.11,357.99,293.61,333.92,293.61C333.92,293.61,79.88,293.61,79.88,293.61C79.88,293.61,79.88,293.61,79.88,293.61C79.88,293.61,79.88,293.61,79.88,293.61Z" /></g></g></g></g><g><g transform="translate(491.385,234.686)"><g transform="rotate(24)"><animateTransform repeatCount="indefinite" type="rotate" attributeName="transform" dur="5s" begin="0s" calcMode="spline" values="24; -34.125; 24; -34.125; 24; -34.125; 24" keyTimes="0; 0.126667; 0.28; 0.46; 0.62; 0.78; 1" keySplines="0 0 1 1; 0 0 1 1; 0 0 1 1; 0 0 1 1; 0 0 1 1; 0 0 1 1" fill="freeze" /><g id="i2" transform="translate(-491.385,-234.686)"><g id="i3" transform="matrix(1,0,0,1,0,0)"><g id="i4"><ellipse ry="64.86" rx="64.86" cy="797.22" cx="493.1" fill="#ffdc00" /></g><g id="i5"><path fill="#fa8c1c" d="M557.97,797.22C557.97,833.03,428.26,833.03,428.26,797.22C428.26,761.41,457.29,732.36,493.12,732.36C528.95,732.36,557.97,761.39,557.97,797.22C557.97,797.22,557.97,797.22,557.97,797.22C557.97,797.22,557.97,797.22,557.97,797.22Z" /></g><g id="i6"><ellipse ry="64.86" rx="64.86" cy="797.22" cx="493.1" stroke-linejoin="round" stroke-linecap="round" stroke-width="20.91" stroke="#000000" /></g></g><g id="i7"><g id="i7"><ellipse ry="49.13" rx="49.13" cy="297.07" cx="492.82" stroke-linejoin="round" stroke-linecap="round" stroke-width="20.91" stroke="#000000" fill="#ffdc00" /></g></g><g id="i8"><g id="i8"><path fill="#ffdc00" d="M703.84,535.53C699.4,398.15,612.31,294.72,492.83,294.72C373.35,294.72,283.27,397.89,283.27,535.53C283.27,617.3,254.15,669.25,232.26,700.95C214.38,726.86,221.49,762.38,248.08,779.23C248.08,779.23,248.08,779.23,248.08,779.23C266.61,790.98,288.11,797.22,310.05,797.22C310.05,797.22,675.55,797.22,675.55,797.22C697.49,797.22,718.98,790.98,737.52,779.23C737.52,779.23,737.52,779.23,737.52,779.23C764.11,762.38,771.22,726.86,753.34,700.95C731.47,669.25,706.48,617.26,703.83,535.53C703.83,535.53,703.84,535.53,703.84,535.53Z" /></g></g><g id="i9" transform="matrix(1,0,0,1,0,0)"><g id="i9"><path fill="#fa8c1c" d="M487.31,292.44C606.79,292.44,703.84,397.89,703.84,535.53C703.84,617.3,732.07,669.25,753.94,700.95C771.82,726.86,764.71,762.38,738.12,779.23C738.12,779.23,738.12,779.23,738.12,779.23C719.59,790.98,710.76,798.91,558.22,797.22C558.22,797.22,701.46,787.22,701.46,732.36C701.46,701.58,651.69,661.55,651.69,535.1C651.69,346.2,487.32,292.44,487.32,292.44C487.32,292.44,487.32,292.44,487.32,292.44C487.32,292.44,487.31,292.44,487.31,292.44Z" /></g></g><g id="i10"><g id="i11"><path stroke-linejoin="round" stroke-linecap="round" stroke-width="20.91" stroke="#ffffff" d="M377.69,409.52C383.39,396.29,403.22,371.67,417.62,358.58" /></g><g id="i12"><path stroke-linejoin="round" stroke-linecap="round" stroke-width="20.91" stroke="#ffffff" d="M363.99,443.69C363.99,443.69,363.99,443.69,363.99,443.69" /></g></g><g id="i13" transform="matrix(1,0,0,1,0,0)"><g id="i14"><g id="i14"><path stroke-linejoin="round" stroke-linecap="round" stroke-width="35.49" stroke="#ff4f32" d="M594.51,601.72C594.51,601.72,628.31,601.72,628.31,601.72" /></g></g><g id="i15"><g id="i15"><path stroke-linejoin="round" stroke-linecap="round" stroke-width="35.49" stroke="#ff4f32" d="M357.89,601.72C357.89,601.72,391.69,601.72,391.69,601.72" /></g></g><g id="i16"><g id="i16"><path stroke-linejoin="round" stroke-linecap="round" stroke-width="18.59" stroke="#000000" fill="#000000" d="M579.3,557.78C579.3,553.11,583.08,549.33,587.75,549.33C592.42,549.33,596.2,553.11,596.2,557.78C596.2,562.45,592.42,566.23,587.75,566.23C583.08,566.23,579.3,562.45,579.3,557.78C579.3,557.78,579.3,557.78,579.3,557.78Z" /></g></g><g id="i17"><g id="i17"><path stroke-linejoin="round" stroke-linecap="round" stroke-width="18.59" stroke="#000000" fill="#000000" d="M390.01,557.78C390.01,553.11,393.79,549.33,398.46,549.33C403.13,549.33,406.91,553.11,406.91,557.78C406.91,562.45,403.13,566.23,398.46,566.23C393.79,566.23,390.01,562.45,390.01,557.78C390.01,557.78,390.01,557.78,390.01,557.78Z" /></g></g><g id="i18"><g id="i18"><path fill="#350707" d="M516.77,601.72C516.77,601.72,509.67,618.62,493.11,618.62C476.55,618.62,469.45,601.72,469.45,601.72C469.45,601.72,475.87,618.7,493.11,618.62C507.83,618.56,516.77,601.72,516.77,601.72C516.77,601.72,516.77,601.72,516.77,601.72Z" /></g></g><g id="i19"><g id="i20"><path fill="#ff3839" d="M484.15,645.77C475.79,637.13,475.84,623.53,484.25,615.38C492.67,607.24,506.26,607.64,514.62,616.27C522.98,624.9,522.93,638.51,514.52,646.66C506.1,654.8,492.51,654.4,484.15,645.77C484.15,645.77,484.15,645.77,484.15,645.77Z" /></g></g><g id="i21"><g id="i21"><path stroke-linejoin="round" stroke-linecap="round" stroke-width="18.59" stroke="#000000" d="M516.77,601.72C516.77,601.72,509.67,618.62,493.11,618.62C476.55,618.62,469.45,601.72,469.45,601.72C469.45,601.72,475.87,618.7,493.11,618.62C507.83,618.56,516.77,601.72,516.77,601.72C516.77,601.72,516.77,601.72,516.77,601.72Z" /></g></g></g><g id="i22" transform="matrix(1,0,0,1,0,0)"><g id="i22"><path stroke-linejoin="round" stroke-linecap="round" stroke-width="20.91" stroke="#000000" d="M709.07,534.78C704.63,397.4,612.31,290.38,492.81,290.38C373.31,290.38,279.55,397.87,279.55,535.53C279.55,617.3,254.14,669.25,232.25,700.95C214.37,726.86,221.48,762.38,248.07,779.23C248.07,779.23,248.07,779.23,248.07,779.23C266.6,790.98,288.1,797.22,310.04,797.22C310.04,797.22,675.54,797.22,675.54,797.22C697.48,797.22,718.97,790.98,737.51,779.23C737.51,779.23,737.51,779.23,737.51,779.23C764.1,762.38,771.21,726.86,753.33,700.95C731.46,669.25,711.7,616.51,709.05,534.78C709.05,534.78,709.05,534.78,709.05,534.78C709.05,534.78,709.07,534.78,709.07,534.78Z" /></g></g></g></g></g></g></g></svg>