<svg fill="none" height="100%" width="100%" viewBox="0 0 141 112" xmlns:xlink="http://www.w3.org/1999/xlink" xmlns="http://www.w3.org/2000/svg"><g id="i0"><g transform="translate(-28,74.25)"><animateTransform repeatCount="indefinite" type="translate" attributeName="transform" dur="2.608s" begin="0s" calcMode="spline" values="-28 74.25; 63.693 73.5; 63.693 73.5" keyTimes="0; 0.419689; 1" keySplines="0.333 0 0.667 1; 0 0 1 1" fill="freeze" /><g transform="rotate(0)"><animateTransform repeatCount="indefinite" type="rotate" attributeName="transform" dur="2.608s" begin="0s" calcMode="spline" values="0; 0; 7; 0; 0" keyTimes="0; 0.419689; 0.46114; 0.507772; 1" keySplines="0 0 1 1; 0.333 0 0.667 1; 0.333 0 0.667 1; 0 0 1 1" fill="freeze" /><g transform="scale(0.684,0.684) translate(-22,-14)"><g id="i1" transform="matrix(1,0,0,1,21.671,13.756)"><path fill="#fda51b" fill-rule="evenodd" d="M10.684,3.214C10.684,3.214,11.861,7.136,11.861,7.136C11.877,7.185,11.894,7.234,11.917,7.278C11.917,7.278,14.21,11.864,14.21,11.864C14.43,12.307,14.969,12.486,15.411,12.265C15.853,12.044,16.032,11.506,15.811,11.064C15.811,11.064,13.553,6.548,13.553,6.548C13.553,6.548,12.346,2.523,12.346,2.523C12.346,2.523,11.833,0.807,11.833,0.807C11.833,0.807,10.214,-4.59,10.214,-4.59C10.214,-4.59,12.247,-11.713,12.247,-11.713C12.247,-11.713,18.88,-11.713,18.88,-11.713C19.018,-10.914,19.13,-9.538,18.482,-8.663C18.039,-8.064,17.278,-7.772,16.158,-7.772C15.663,-7.772,15.262,-7.371,15.262,-6.877C15.262,-6.383,15.663,-5.982,16.158,-5.982C17.86,-5.982,19.127,-6.525,19.921,-7.598C21.421,-9.624,20.492,-12.74,20.452,-12.871C20.337,-13.247,19.989,-13.505,19.596,-13.505C19.596,-13.505,11.572,-13.505,11.572,-13.505C11.173,-13.505,10.822,-13.24,10.712,-12.856C10.712,-12.856,8.604,-5.481,8.604,-5.481C8.604,-5.481,-12.971,-5.481,-12.971,-5.481C-12.971,-5.481,-13.77,-8.276,-13.77,-8.276C-13.77,-8.276,-10.781,-8.276,-10.781,-8.276C-9.34,-8.276,-8.165,-9.449,-8.165,-10.89C-8.165,-12.332,-9.339,-13.506,-10.781,-13.506C-10.781,-13.506,-18.805,-13.506,-18.805,-13.506C-20.247,-13.506,-21.421,-12.333,-21.421,-10.89C-21.421,-9.449,-20.247,-8.276,-18.805,-8.276C-18.805,-8.276,-15.633,-8.276,-15.633,-8.276C-15.633,-8.276,-14.566,-4.548,-14.566,-4.548C-14.566,-4.548,-15.548,0.357,-15.548,0.357C-15.548,0.357,-15.898,2.114,-15.898,2.114C-15.898,2.114,-17.962,12.435,-17.962,12.435C-18.059,12.92,-17.746,13.391,-17.262,13.488C-17.203,13.5,-17.144,13.506,-17.085,13.506C-16.667,13.506,-16.292,13.211,-16.208,12.786C-16.208,12.786,-14.145,2.467,-14.145,2.467C-14.145,2.467,-13.792,0.712,-13.792,0.712C-13.792,0.712,-12.911,-3.688,-12.911,-3.688C-12.911,-3.688,8.615,-3.688,8.615,-3.688C8.615,-3.688,10.165,1.481,10.165,1.481C10.165,1.481,10.684,3.214,10.684,3.214ZM-19.628,-10.889C-19.628,-11.343,-19.259,-11.713,-18.805,-11.713C-18.805,-11.713,-10.779,-11.713,-10.779,-11.713C-10.325,-11.713,-9.956,-11.344,-9.956,-10.889C-9.956,-10.435,-10.325,-10.065,-10.779,-10.065C-10.779,-10.065,-18.805,-10.065,-18.805,-10.065C-19.259,-10.065,-19.628,-10.435,-19.628,-10.889Z" /></g></g></g></g></g><g id="i2"><g transform="translate(-42.75,84.5)"><animateTransform repeatCount="indefinite" type="translate" attributeName="transform" dur="2.608s" begin="0s" calcMode="spline" values="-42.75 84.5; 51.5 83.75; 51.75 80; 51.75 84; 51.75 84" keyTimes="0; 0.419689; 0.455958; 0.507772; 1" keySplines="0.333 0 0.667 1; 0.333 0 0.667 1; 0.333 0 0.667 1; 0 0 1 1" fill="freeze" /><g transform="rotate(0)"><animateTransform repeatCount="indefinite" type="rotate" attributeName="transform" dur="2.608s" begin="0s" calcMode="spline" values="0; 1800; 1800" keyTimes="0; 0.419689; 1" keySplines="0.333 0 0.667 1; 0 0 1 1" fill="freeze" /><g transform="scale(0.684,0.684) translate(-13.5,-13.5)"><g id="i3" transform="matrix(1,0,0,1,13.198,13.196)"><path fill="#fda51b" d="M0,-12.947C-3.2,-12.947,-6.131,-11.785,-8.392,-9.859C-8.392,-9.859,-6.952,-8.419,-6.952,-8.419C-5.061,-9.981,-2.64,-10.921,0,-10.921C6.023,-10.921,10.922,-6.023,10.922,0.001C10.922,6.021,6.023,10.924,0,10.924C-6.023,10.924,-10.922,6.021,-10.922,0.001C-10.922,-2.644,-9.977,-5.072,-8.409,-6.962C-8.409,-6.962,-9.849,-8.402,-9.849,-8.402C-11.781,-6.141,-12.948,-3.208,-12.948,0.001C-12.948,7.15,-7.149,12.947,0,12.947C7.149,12.947,12.948,7.15,12.948,0.001C12.948,-7.151,7.149,-12.947,0,-12.947Z" /></g><g id="i1" transform="matrix(1,0,0,1,8.931,17.091)"><path fill="#b17218" d="M-0.974,1.007C-2.014,0.102,-2.612,-1.291,-2.703,-3.021C-2.725,-3.448,-3.105,-3.778,-3.517,-3.754C-3.945,-3.731,-4.273,-3.366,-4.25,-2.939C-4.137,-0.78,-3.355,0.988,-1.991,2.176C-0.776,3.232,0.824,3.778,2.675,3.778C2.955,3.778,3.24,3.767,3.531,3.74C3.958,3.704,4.273,3.329,4.235,2.903C4.198,2.477,3.826,2.15,3.398,2.198C1.61,2.352,0.099,1.94,-0.974,1.007Z" /></g></g></g></g></g><g id="i4"><g transform="translate(-14.5,84)"><animateTransform repeatCount="indefinite" type="translate" attributeName="transform" dur="2.608s" begin="0s" calcMode="spline" values="-14.5 84; 73.75 83.25; 73.75 83.25; 73.75 83.25" keyTimes="0; 0.419689; 0.476684; 1" keySplines="0.333 0 0.667 1; 0 0 1 1; 0 0 1 1" fill="freeze" /><g transform="rotate(0)"><animateTransform repeatCount="indefinite" type="rotate" attributeName="transform" dur="2.608s" begin="0s" calcMode="spline" values="0; 1800; 1800" keyTimes="0; 0.419689; 1" keySplines="0.333 0 0.667 1; 0 0 1 1" fill="freeze" /><g transform="scale(0.684,0.684) translate(-13.5,-13.5)"><g id="i3" transform="matrix(1,0,0,1,17.519,17.092)"><path fill="#b17218" d="M3.519,-3.755C3.082,-3.778,2.727,-3.449,2.705,-3.023C2.613,-1.292,2.015,0.101,0.975,1.007C-0.099,1.94,-1.613,2.35,-3.398,2.197C-3.836,2.148,-4.2,2.476,-4.236,2.902C-4.273,3.329,-3.958,3.704,-3.531,3.74C-3.24,3.767,-2.955,3.777,-2.675,3.777C-0.824,3.777,0.776,3.231,1.99,2.176C3.355,0.988,4.136,-0.781,4.25,-2.941C4.273,-3.367,3.946,-3.733,3.519,-3.755Z" /></g><g id="i1" transform="matrix(1,0,0,1,13.196,13.196)"><path fill="#fda51b" d="M0.002,-12.947C-7.15,-12.947,-12.947,-7.151,-12.947,0.001C-12.947,7.15,-7.15,12.947,0.002,12.947C3.08,12.947,5.906,11.872,8.13,10.077C8.13,10.077,6.687,8.633,6.687,8.633C4.838,10.066,2.518,10.924,0.002,10.924C-6.021,10.924,-10.924,6.021,-10.924,0.001C-10.924,-6.023,-6.021,-10.921,0.002,-10.921C6.023,-10.921,10.923,-6.023,10.923,0.001C10.923,2.766,9.89,5.296,8.189,7.221C8.189,7.221,9.624,8.658,9.624,8.658C11.691,6.363,12.947,3.329,12.947,0.001C12.947,-7.151,7.151,-12.947,0.002,-12.947Z" /></g></g></g></g></g><g transform="matrix(1.275,0,0,1.275,79.445,77.21)" id="i5"><g id="i6" transform="matrix(1,0,0,1,3.364,8.369)"><path fill="#78777f" d="M3.115,-3.643C3.115,-3.643,-1.07,-1.469,-1.07,-1.469C-1.07,-1.469,-3.115,3.643,-3.115,3.643C-3.115,3.643,2.984,3.643,2.984,3.643C2.984,3.643,3.115,-3.643,3.115,-3.643Z" /></g><g id="i7" transform="matrix(1,0,0,1,14.369,6.131)"><path fill="#abaab0" d="M7.549,1.607C7.549,1.607,7.374,1.195,7.374,1.195C7.374,1.195,2.346,-1.971,2.346,-1.971C2.346,-1.971,-0.408,-5.859,-0.408,-5.859C-0.408,-5.859,-0.426,-5.88,-0.426,-5.88C-0.426,-5.88,-7.803,-3.622,-7.803,-3.622C-7.803,-3.622,-8.195,-1.245,-8.195,-1.245C-8.195,-1.245,-8.475,0.452,-8.475,0.452C-8.475,0.452,-9.146,4.503,-9.146,4.503C-9.146,4.503,-9.262,5.193,-9.262,5.193C-9.262,5.193,-9.376,5.88,-9.376,5.88C-9.376,5.88,9.376,5.88,9.376,5.88C9.376,5.88,7.549,1.607,7.549,1.607Z" /></g><g id="i3" transform="matrix(1,0,0,1,16.665,4.005)"><path fill="#88868f" d="M5.253,3.732C5.253,3.732,4.333,3.667,4.333,3.667C4.333,3.667,2.872,3.561,2.872,3.561C2.872,3.561,-5.253,2.971,-5.253,2.971C-5.253,2.971,-3.313,-2.133,-3.313,-2.133C-3.313,-2.133,-3.004,-2.949,-3.004,-2.949C-3.004,-2.949,-2.704,-3.732,-2.704,-3.732C-2.704,-3.732,0.05,0.156,0.05,0.156C0.05,0.156,5.077,3.322,5.077,3.322C5.077,3.322,5.253,3.732,5.253,3.732Z" /></g><g id="i1" transform="matrix(1,0,0,1,16.665,5.949)"><path fill="#c5c3ca" d="M5.253,1.788C5.253,1.788,4.333,1.723,4.333,1.723C4.333,1.723,2.872,1.617,2.872,1.617C2.872,1.617,-5.253,1.027,-5.253,1.027C-5.253,1.027,0.05,-1.788,0.05,-1.788C0.05,-1.788,5.077,1.378,5.077,1.378C5.077,1.378,5.253,1.788,5.253,1.788Z" /></g></g><g id="i8"><g transform="translate(82.25,47)"><animateTransform repeatCount="indefinite" type="translate" attributeName="transform" dur="2.608s" begin="0s" calcMode="spline" values="82.25 47; 82.25 47; 96 78.5; 108.5 73.5; 117.75 87; 117.75 87" keyTimes="0; 0.554404; 0.642487; 0.709845; 0.761658; 1" keySplines="0 0 1 1; 0.333 0 0.667 1; 0.333 0 0.667 1; 0.333 0 0.667 1; 0 0 1 1" fill="freeze" /><g transform="rotate(0)"><animateTransform repeatCount="indefinite" type="rotate" attributeName="transform" dur="2.608s" begin="0s" calcMode="spline" values="0; 0; -26; 26; 319; 414; 414" keyTimes="0; 0.419689; 0.487047; 0.549223; 0.642487; 0.761658; 1" keySplines="0 0 1 1; 0.333 0 0.667 1; 0.333 0 0.667 1; 0.333 0 0.833 1; 0.167 0 0.833 1; 0 0 1 1" fill="freeze" /><g transform="scale(0.353,0.353) translate(-29,-25.5)"><g id="i9" transform="matrix(1,0,0,1,28.703,24.975)"><path fill="#ffffff" d="M-27.44,22.678C-27.44,22.678,-0.804,-23.453,-0.804,-23.453C-0.447,-24.071,0.446,-24.071,0.803,-23.453C0.803,-23.453,27.44,22.678,27.44,22.678C27.797,23.297,27.35,24.071,26.636,24.071C26.636,24.071,-26.636,24.071,-26.636,24.071C-27.351,24.071,-27.797,23.297,-27.44,22.678Z" /></g><g id="i10" transform="matrix(1,0,0,1,41.716,24.975)"><path fill="#ffffff" d="M14.426,22.678C14.426,22.678,-12.21,-23.453,-12.21,-23.453C-12.568,-24.071,-13.461,-24.071,-13.818,-23.453C-13.818,-23.453,-14.783,-21.778,-14.783,-21.778C-14.783,-21.778,11.689,24.071,11.689,24.071C11.689,24.071,13.622,24.071,13.622,24.071C14.336,24.071,14.783,23.297,14.426,22.678Z" /></g><g id="i11" transform="matrix(1,0,0,1,28.703,26.91)"><path fill="#007a88" d="M-20.734,16.871C-20.734,16.871,-0.804,-17.646,-0.804,-17.646C-0.447,-18.264,0.446,-18.264,0.803,-17.646C0.803,-17.646,20.734,16.871,20.734,16.871C21.091,17.49,20.644,18.264,19.93,18.264C19.93,18.264,-19.93,18.264,-19.93,18.264C-20.645,18.264,-21.091,17.49,-20.734,16.871Z" /></g><g id="i12" transform="matrix(1,0,0,1,38.312,26.911)"><path fill="#007a88" d="M11.125,16.871C11.125,16.871,-8.805,-17.646,-8.805,-17.646C-9.163,-18.264,-10.056,-18.264,-10.413,-17.646C-10.413,-17.646,-11.482,-15.792,-11.482,-15.792C-11.482,-15.792,8.241,18.264,8.241,18.264C8.241,18.264,10.321,18.264,10.321,18.264C11.035,18.263,11.482,17.49,11.125,16.871Z" /></g><g id="i13" transform="matrix(1,0,0,1,28.703,40.443)"><path fill="#ffffff" d="M0,-2.415C1.402,-2.415,2.298,-1.401,2.298,0.001C2.298,1.363,1.402,2.415,0,2.415C0,2.415,-0.04,2.415,-0.04,2.415C-1.363,2.415,-2.298,1.363,-2.298,0.001C-2.298,-1.401,-1.325,-2.415,0,-2.415Z" /></g><g id="i14" transform="matrix(1,0,0,1,28.703,26.116)"><path fill="#007a88" d="M1.436,-9.346C1.672,-9.346,1.863,-9.15,1.856,-8.914C1.856,-8.914,1.337,8.938,1.337,8.938C1.33,9.166,1.144,9.346,0.916,9.346C0.916,9.346,-0.917,9.346,-0.917,9.346C-1.145,9.346,-1.331,9.166,-1.337,8.938C-1.337,8.938,-1.856,-8.914,-1.856,-8.914C-1.863,-9.15,-1.673,-9.346,-1.436,-9.346C-1.436,-9.346,1.436,-9.346,1.436,-9.346Z" /></g><g id="i15" transform="matrix(1,0,0,1,28.703,39.368)"><path fill="#007a88" d="M28.139,7.882C28.139,7.882,17.833,-9.967,17.833,-9.967C17.61,-10.353,17.117,-10.486,16.73,-10.264C16.344,-10.04,16.212,-9.547,16.436,-9.16C16.436,-9.16,26.742,8.689,26.742,8.689C26.749,8.703,26.776,8.749,26.742,8.809C26.706,8.869,26.654,8.87,26.636,8.87C26.636,8.87,-26.637,8.87,-26.637,8.87C-26.654,8.87,-26.705,8.869,-26.74,8.809C-26.775,8.749,-26.749,8.703,-26.74,8.689C-26.74,8.689,-16.441,-9.148,-16.441,-9.148C-16.217,-9.534,-16.35,-10.028,-16.736,-10.251C-17.122,-10.474,-17.616,-10.342,-17.839,-9.956C-17.839,-9.956,-28.139,7.882,-28.139,7.882C-28.452,8.425,-28.452,9.074,-28.139,9.617C-27.825,10.161,-27.263,10.486,-26.635,10.486C-26.635,10.486,26.636,10.486,26.636,10.486C27.264,10.486,27.826,10.161,28.139,9.617C28.452,9.074,28.452,8.425,28.139,7.882Z" /></g><g id="i6" transform="matrix(1,0,0,1,28.703,14.078)"><path fill="#007a88" d="M-15.91,13.605C-15.524,13.828,-15.03,13.696,-14.807,13.309C-14.807,13.309,-0.105,-12.152,-0.105,-12.152C-0.097,-12.166,-0.071,-12.212,-0.001,-12.212C0.069,-12.212,0.096,-12.167,0.104,-12.152C0.104,-12.152,14.807,13.312,14.807,13.312C14.957,13.572,15.228,13.716,15.508,13.716C15.644,13.716,15.784,13.681,15.911,13.608C16.298,13.385,16.428,12.891,16.206,12.504C16.206,12.504,1.503,-12.959,1.503,-12.959C1.189,-13.503,0.627,-13.828,-0.001,-13.828C-0.628,-13.828,-1.19,-13.503,-1.504,-12.959C-1.504,-12.959,-16.204,12.501,-16.204,12.501C-16.428,12.888,-16.296,13.381,-15.91,13.605Z" /></g><g id="i7" transform="matrix(1,0,0,1,28.702,26.987)"><path fill="#007a88" fill-rule="evenodd" d="M0,-18.994C-0.627,-18.994,-1.189,-18.669,-1.503,-18.125C-1.503,-18.125,-21.433,16.391,-21.433,16.391C-21.747,16.934,-21.747,17.583,-21.433,18.127C-21.119,18.67,-20.558,18.994,-19.93,18.994C-19.93,18.994,19.931,18.994,19.931,18.994C20.557,18.994,21.12,18.67,21.433,18.127C21.747,17.583,21.747,16.934,21.433,16.391C21.433,16.391,1.503,-18.126,1.503,-18.126C1.189,-18.669,0.628,-18.994,0,-18.994ZM20.035,17.319C20,17.379,19.948,17.379,19.931,17.379C19.931,17.379,-19.93,17.379,-19.93,17.379C-19.947,17.379,-20,17.379,-20.034,17.319C-20.069,17.258,-20.043,17.214,-20.034,17.199C-20.034,17.199,-0.104,-17.319,-0.104,-17.319C-0.095,-17.333,-0.069,-17.378,0,-17.378C0.07,-17.378,0.096,-17.333,0.104,-17.319C0.104,-17.319,20.035,17.199,20.035,17.199C20.044,17.214,20.069,17.258,20.035,17.319Z" /></g><g id="i3" transform="matrix(1,0,0,1,28.703,40.443)"><path fill="#007a88" fill-rule="evenodd" d="M0,-3.222C-1.771,-3.222,-3.105,-1.836,-3.105,0.001C-3.105,1.837,-1.788,3.222,-0.04,3.222C-0.04,3.222,0,3.222,0,3.222C1.799,3.222,3.105,1.868,3.105,0.001C3.105,-1.897,1.828,-3.222,0,-3.222ZM0,1.607C0,1.607,-0.04,1.607,-0.04,1.607C-0.894,1.607,-1.49,0.947,-1.49,0.001C-1.49,-0.946,-0.877,-1.607,0,-1.607C0.919,-1.607,1.49,-0.991,1.49,0.001C1.49,0.742,1.1,1.607,0,1.607Z" /></g><g id="i1" transform="matrix(1,0,0,1,28.703,26.116)"><path fill="#ffffff" fill-rule="evenodd" d="M-2.317,-9.781C-2.547,-9.545,-2.673,-9.221,-2.664,-8.892C-2.664,-8.892,-2.145,8.962,-2.145,8.962C-2.125,9.63,-1.586,10.154,-0.917,10.154C-0.917,10.154,0.916,10.154,0.916,10.154C1.585,10.154,2.124,9.631,2.144,8.962C2.144,8.962,2.663,-8.892,2.663,-8.892C2.673,-9.221,2.546,-9.545,2.316,-9.781C2.086,-10.018,1.766,-10.154,1.436,-10.154C1.436,-10.154,-1.436,-10.154,-1.436,-10.154C-1.766,-10.154,-2.087,-10.018,-2.317,-9.781ZM1.037,-8.539C1.037,-8.539,0.54,8.538,0.54,8.538C0.54,8.538,-0.541,8.538,-0.541,8.538C-0.541,8.538,-1.038,-8.539,-1.038,-8.539C-1.038,-8.539,1.037,-8.539,1.037,-8.539Z" /></g></g></g></g></g><g visibility="hidden" id="i16"><animate repeatCount="indefinite" begin="0s" calcMode="discrete" dur="2.608s" values="hidden; visible; visible; visible" keyTimes="0; 0.761968; 0.999959; 1" attributeName="visibility" /><g transform="translate(76.25,42)"><g transform="scale(0,0)"><animateTransform repeatCount="indefinite" type="scale" attributeName="transform" dur="2.608s" begin="0s" calcMode="spline" values="0 0; 0 0; 1.05 1.05; 1 1; 1.05 1.05; 1.05 1.05" keyTimes="0; 0.761658; 0.787565; 0.803109; 0.813471; 1" keySplines="0 0 1 1; 0.333 0 0.667 1; 0.333 0 0.667 1; 0.333 0 0.667 1; 0 0 1 1" fill="freeze" /><g transform="translate(-46.5,4)"><text fill="#f51f1f" dominant-baseline="middle" text-anchor="start" font-weight="700" font-size="13" font-family="Lato-Bold, Arial, sans-serif">Network Error</text></g></g></g></g><g transform="matrix(0.381,0,0,0.466,80.798,55.356)" id="i17"><g id="i1" transform="matrix(1,0,0,1,2.323,39.875)"><path fill="#007a88" d="M2.073,39.624C2.073,39.624,-2.073,39.624,-2.073,39.624C-2.073,39.624,-2.073,-37.553,-2.073,-37.553C-2.073,-38.697,-1.145,-39.624,0,-39.624C1.145,-39.624,2.073,-38.697,2.073,-37.553C2.073,-37.553,2.073,39.624,2.073,39.624Z" /></g></g></svg>