<svg fill="none" height="100%" width="100%" viewBox="0 0 2513 2000" xmlns:xlink="http://www.w3.org/1999/xlink" xmlns="http://www.w3.org/2000/svg"><g transform="matrix(1,0,0,1,1256.5,1000)" id="i0"><g id="i1" transform="matrix(1,0,0,1,3.453,20.203)"><rect height="2120.406" width="2615.906" y="-1060.203" x="-1307.953" fill="#f4faff" /></g></g><g transform="matrix(1,0,0,1,200.914,173.77)" id="i2"><g id="i3" transform="matrix(1,0,0,1,1045.863,861.677)"><path fill="#fecc86" d="M992.068,457.456C951.854,548.356,896.091,620.388,829.402,676.891C752.392,742.153,660.806,786.702,561.762,815.675C239.519,909.965,-161.599,839.386,-396.163,780.832C-443.729,768.955,-484.445,757.573,-516.265,748.16C-569.973,732.273,-620.878,708.012,-666.752,675.878C-666.991,675.71,-667.231,675.542,-667.47,675.374C-981.819,454.878,-1115.331,139.735,-1010.81,-158.752C-1009.187,-163.409,-701.012,-1111.343,29.735,-798.279C350.533,-660.841,232.533,-544.054,588.121,-397.982C754.363,-329.687,974.351,-207.869,1034.698,79.487C1056.232,182.036,1048.981,328.796,992.068,457.456Z" /></g></g><g opacity="0" id="i4"><animate repeatCount="indefinite" attributeName="opacity" dur="2.836s" begin="0s" fill="freeze" values="0; 0; 0.035; 0.071; 0.108; 0.145; 0.183; 0.22; 0.258; 0.296; 0.333; 0.371; 0.408; 0.445; 0.482; 0.519; 0.555; 0.591; 0.627; 0.662; 0.697; 0.732; 0.765; 0.798; 0.831; 0.862; 0.892; 0.92; 0.946; 0.97; 0.989; 1; 1; 1; 1; 1; 1; 1; 1; 1; 1; 1; 1; 1; 1; 1; 1; 1; 1; 1; 1; 1; 1; 1; 1; 1; 1; 1; 1; 1; 1; 1; 0.99; 0.972; 0.949; 0.923; 0.895; 0.865; 0.834; 0.801; 0.768; 0.735; 0.7; 0.665; 0.63; 0.594; 0.558; 0.521; 0.484; 0.447; 0.41; 0.372; 0.335; 0.297; 0.259; 0.221; 0.183; 0.146; 0.108; 0.071; 0.035; 0; 0" keyTimes="0; 0.211765; 0.213726; 0.215686; 0.217647; 0.219608; 0.221569; 0.223529; 0.22549; 0.227451; 0.229412; 0.231373; 0.233333; 0.235294; 0.237255; 0.239216; 0.241177; 0.243137; 0.245098; 0.247059; 0.249019; 0.25098; 0.252941; 0.254902; 0.256863; 0.258824; 0.260785; 0.262745; 0.264706; 0.266667; 0.268627; 0.270588; 0.285098; 0.299608; 0.314117; 0.328628; 0.343137; 0.357647; 0.372157; 0.386666; 0.401177; 0.415686; 0.430196; 0.444706; 0.459215; 0.473726; 0.488235; 0.502745; 0.517255; 0.531764; 0.546275; 0.560784; 0.575294; 0.589804; 0.604313; 0.618824; 0.633333; 0.647843; 0.662353; 0.676862; 0.691373; 0.705882; 0.707059; 0.708235; 0.709412; 0.710588; 0.711764; 0.712941; 0.714118; 0.715294; 0.71647; 0.717647; 0.718824; 0.72; 0.721176; 0.722353; 0.72353; 0.724706; 0.725882; 0.727059; 0.728236; 0.729412; 0.730588; 0.731765; 0.732941; 0.734118; 0.735294; 0.736471; 0.737647; 0.738824; 0.74; 0.741176; 1" calcMode="linear" /><g transform="translate(802.449,836.594)"><animateMotion repeatCount="indefinite" dur="2.836s" begin="0s" calcMode="spline" keyTimes="0; 0.282353; 0.376471; 0.470588; 0.564706; 0.647059; 0.729412; 0.741176; 1" keySplines="0 0 1 1; 0.333 0 0.667 1; 0.333 0.024 0.667 1; 0.333 0.017 0.667 0.835; 0.333 0.136 0.667 1; 0.333 0 0.667 0.872; 0.333 0.055 0.667 1; 0 0 1 1" keyPoints="0; 0; 0.235; 0.388; 0.561; 0.736; 0.934; 1; 1" path="M0 0 C-21.333 -164.667 63.861 -675.927 364 -632 C559.258 -603.423 827.741 -560.982 772 -396 C701.717 -187.977 290.102 -237.554 296 -412 C304.583 -665.879 475.397 -780.534 708 -716 C899.032 -663 948.892 -383.912 923.09 -111.801 C922.468 -105.239 891.649 -346.612 892 -340" fill="freeze" /><g transform="rotate(-154)"><animateTransform repeatCount="indefinite" type="rotate" attributeName="transform" dur="2.836s" begin="0s" calcMode="spline" values="-154; -154; -125; -73.5; -58; -38; 62; 92.158; 122.262; 143.691; 187; 233.719; 326; 364.82; 376; 376" keyTimes="0; 0.282353; 0.329412; 0.352941; 0.376471; 0.423529; 0.470588; 0.505882; 0.529412; 0.541177; 0.552941; 0.576471; 0.647059; 0.682353; 0.741176; 1" keySplines="0 0 1 1; 0.333 0 0.667 0.172; 0.333 0.233 0.667 0.733; 0.333 0.887 0.667 1; 0.333 0 0.667 0; 0.333 0.3 0.667 1; 0.333 0 0.667 0.529; 0.333 0.315 0.667 0.419; 0.333 0.408 0.667 0.055; 0.333 0.468 0.667 1; 0.333 0 0.667 0.721; 0.333 0.424 0.667 1; 0.333 0 0.667 0.774; 0.333 1 0.667 1; 0 0 1 1" fill="freeze" /><g transform="scale(1,1) translate(-39.938,-16.852)"><g id="i5" transform="matrix(1,0,0,1,62.172,79.424)"><path fill="#cc154a" d="M-2.914,9.297C-2.914,9.297,33.455,66.031,33.455,66.031C33.455,66.031,20.988,4.581,20.69,3.104C20.395,1.636,-16.013,-66.031,-16.013,-66.031C-16.013,-66.031,-14.749,-65.861,-14.749,-65.861C-14.749,-65.861,-33.455,-62.22,-33.455,-62.22C-33.455,-62.22,-2.914,9.297,-2.914,9.297Z" /></g><g id="i6" transform="matrix(1,0,0,1,47.938,81.329)"><path fill="#f7597f" d="M-19.22,-64.125C-19.22,-64.125,-47.688,-54.23,-47.688,-54.23C-47.688,-54.23,47.688,64.125,47.688,64.125C47.688,64.125,-19.22,-64.125,-19.22,-64.125Z" /></g><g id="i7" transform="matrix(1,0,0,1,70.893,72.852)"><path fill="#f7597f" d="M12.871,-72.602C12.871,-72.602,-24.733,-59.458,-24.733,-59.458C-24.733,-59.458,24.733,72.602,24.733,72.602C24.733,72.602,12.871,-72.602,12.871,-72.602Z" /></g><g opacity="0.5"><animate repeatCount="indefinite" attributeName="opacity" dur="2.836s" begin="0s" fill="freeze" values="0.5; 0.5; 0; 0.5; 0; 0.5; 0; 0.5; 0; 0.5; 0; 0.5; 0; 0.5; 0; 0.5; 0; 0.5; 0; 0.5; 0; 0.5; 0; 0.5; 0; 0.5; 0; 0.5; 0; 0.5; 0; 0.5; 0; 0.5; 0; 0.5; 0; 0.5; 0; 0.5; 0.5" keyTimes="0; 0.294118; 0.305882; 0.317647; 0.329412; 0.341176; 0.352941; 0.364706; 0.376471; 0.388235; 0.4; 0.411765; 0.42353; 0.435294; 0.447059; 0.458823; 0.470588; 0.482353; 0.494117; 0.505882; 0.517647; 0.529412; 0.541177; 0.552941; 0.564706; 0.576471; 0.588235; 0.6; 0.611765; 0.623529; 0.635294; 0.647059; 0.658823; 0.670588; 0.682353; 0.694118; 0.705883; 0.717647; 0.729412; 0.741176; 1" keySplines="0 0 1 1; 0.167 0.167 0.833 1; 0.167 0 0.833 1; 0.167 0 0.833 1; 0.167 0 0.833 1; 0.167 0 0.833 1; 0.167 0 0.833 1; 0.167 0 0.833 1; 0.167 0 0.833 1; 0.167 0 0.833 1; 0.167 0 0.833 1; 0.167 0 0.833 1; 0.167 0 0.833 1; 0.167 0 0.833 1; 0.167 0 0.833 1; 0.167 0 0.833 1; 0.167 0 0.833 1; 0.167 0 0.833 1; 0.167 0 0.833 1; 0.167 0 0.833 1; 0.167 0 0.833 1; 0.167 0 0.833 1; 0.167 0 0.833 1; 0.167 0 0.833 1; 0.167 0 0.833 1; 0.167 0 0.833 1; 0.167 0 0.833 1; 0.167 0 0.833 1; 0.167 0 0.833 1; 0.167 0 0.833 1; 0.167 0 0.833 1; 0.167 0 0.833 1; 0.167 0 0.833 1; 0.167 0 0.833 1; 0.167 0 0.833 1; 0.167 0 0.833 1; 0.167 0 0.833 1; 0.167 0 0.833 1; 0.167 0 0.833 0.833; 0 0 1 1" calcMode="spline" /><g id="i8" transform="translate(35.259,-11.431) rotate(-20)"><ellipse ry="35.723" rx="10.39" cy="0" cx="0" fill="#f4faff" /></g></g></g></g></g></g><g id="i9"><g transform="translate(740.957,1578.306)"><animateTransform repeatCount="indefinite" type="translate" attributeName="transform" dur="2.836s" begin="0s" calcMode="spline" values="740.957 1578.853; 740.957 1526.853; 740.957 1526.853" keyTimes="0; 0.188235; 1" keySplines="0.333 0 0.667 1; 0 0 1 1" fill="freeze" /><g transform="scale(0.802,0.802)"><animateTransform repeatCount="indefinite" type="scale" attributeName="transform" dur="2.836s" begin="0s" calcMode="spline" values="0.8 0.8; 1 1; 1 1" keyTimes="0; 0.188235; 1" keySplines="0.333 0 0.667 1; 0 0 1 1" fill="freeze" /><g transform="translate(-195.877,-893.676)"><g id="i10" transform="matrix(1,0,0,1,483.875,181.024)"><path fill="#fe9f73" d="M-40.408,-43.322C-40.408,-43.322,18.917,-57.837,36.088,-35.531C53.258,-13.226,10.98,48.283,-21.139,53.06C-53.258,57.837,-40.408,-43.322,-40.408,-43.322Z" /></g><g id="i11" transform="matrix(1,0,0,1,264.298,812.797)"><path fill="#ed7163" d="M11.485,146.825C11.485,146.825,162.452,73.515,190.128,-30.038C217.804,-133.592,40.112,-146.825,42.581,-146.813C45.05,-146.801,-137.888,-98.339,-150.38,-68.775C-162.872,-39.212,-217.804,83.956,-195.585,84.067C-173.365,84.178,11.485,146.825,11.485,146.825Z" /></g><g id="i12" transform="matrix(1,0,0,1,286.135,404.842)"><path fill="#d0f6fc" d="M123.208,-375.134C123.164,-375.357,123.116,-375.579,123.062,-375.798C121.362,-383.244,114.348,-388.247,106.753,-387.438C106.528,-387.417,106.303,-387.391,106.077,-387.36C106.002,-387.349,105.928,-387.347,105.854,-387.334C105.854,-387.334,-226.35,-331.913,-226.35,-331.913C-226.425,-331.9,-226.495,-331.878,-226.569,-331.865C-226.793,-331.821,-227.014,-331.772,-227.234,-331.719C-234.68,-330.019,-239.69,-323.009,-238.882,-315.414C-238.861,-315.19,-238.835,-314.965,-238.804,-314.74C-238.792,-314.665,-238.791,-314.591,-238.778,-314.516C-238.778,-314.516,-123.543,376.215,-123.543,376.215C-122.345,383.4,-115.549,388.247,-108.37,387.049C-108.37,387.049,227.657,330.99,227.657,330.99C234.835,329.792,239.69,323.002,238.491,315.817C238.491,315.817,123.256,-374.914,123.256,-374.914C123.244,-374.989,123.222,-375.06,123.208,-375.134Z" /></g><g id="i13" transform="matrix(1,0,0,1,232.176,69.76)"><path fill="#0d93b2" d="M-191.264,17.248C-191.264,17.248,-167.198,-5.888,-167.198,-5.888C-167.198,-5.888,156.628,-59.055,156.628,-59.055C156.628,-59.055,189.186,-38.82,189.186,-38.82C189.186,-38.82,191.264,-9.468,189.558,-8.732C187.852,-7.995,-187.141,59.055,-188.09,53.273C-189.04,47.49,-191.264,17.248,-191.264,17.248Z" /></g><g id="i14" transform="matrix(1,0,0,1,73.324,97.2)"><path fill="#ffffff" d="M4.862,-0.639C5.201,1.39,4.284,3.338,2.675,4.408C2.101,4.795,1.43,5.07,0.698,5.192C-0.026,5.313,-0.743,5.269,-1.418,5.091C-3.286,4.608,-4.794,3.058,-5.132,1.028C-5.593,-1.733,-3.723,-4.343,-0.969,-4.802C1.792,-5.263,4.401,-3.4,4.862,-0.639Z" /></g><g id="i15" transform="matrix(1,0,0,1,88.589,94.647)"><path fill="#ffffff" d="M5.058,-0.664C5.397,1.365,4.48,3.313,2.871,4.383C2.297,4.77,1.626,5.045,0.895,5.167C0.163,5.289,-0.561,5.245,-1.229,5.066C-3.098,4.576,-4.598,3.033,-4.936,1.003C-5.397,-1.758,-3.534,-4.367,-0.773,-4.827C1.988,-5.288,4.597,-3.425,5.058,-0.664Z" /></g><g id="i16" transform="matrix(1,0,0,1,103.915,92.264)"><path fill="#ffffff" d="M5.193,-0.861C5.532,1.168,4.615,3.116,3.006,4.186C2.432,4.573,1.761,4.848,1.03,4.97C0.298,5.092,-0.426,5.049,-1.094,4.87C-2.964,4.38,-4.463,2.836,-4.801,0.806C-5.262,-1.955,-3.399,-4.564,-0.638,-5.024C2.123,-5.485,4.732,-3.622,5.193,-0.861Z" /></g><g id="i17" transform="matrix(1,0,0,1,286.544,408.805)"><path fill="#20111d" fill-rule="evenodd" d="M236.888,304.704C238.746,315.837,231.224,326.364,220.098,328.22C220.098,328.22,-101.622,381.892,-101.622,381.892C-112.755,383.75,-123.288,376.235,-125.145,365.102C-125.145,365.102,-237.922,-310.901,-237.922,-310.901C-239.995,-323.324,-231.604,-335.068,-219.187,-337.139C-219.187,-337.139,97.873,-390.034,97.873,-390.034C110.29,-392.106,122.039,-383.723,124.112,-371.299C124.112,-371.299,236.888,304.704,236.888,304.704ZM96.035,-405.136C96.035,-405.136,-222.351,-352.02,-222.351,-352.02C-242.836,-348.602,-256.679,-329.224,-253.26,-308.732C-253.26,-308.732,-139.322,374.228,-139.322,374.228C-135.903,394.72,-116.52,408.555,-96.035,405.137C-96.035,405.137,222.35,352.021,222.35,352.021C242.843,348.602,256.68,329.226,253.261,308.733C253.261,308.733,139.323,-374.227,139.323,-374.227C135.904,-394.719,116.527,-408.555,96.035,-405.136Z" /></g><g id="i18" transform="matrix(1,0,0,1,154.242,763.747)"><path fill="#fe9f73" d="M152.486,177.517C152.486,177.517,152.478,178.427,152.478,178.427C152.478,178.427,152.478,178.712,152.478,178.712C152.478,178.712,152.041,266.392,152.041,266.392C152.041,266.392,151.291,415.355,151.291,415.355C103.725,403.477,63.009,392.095,31.189,382.683C-22.52,366.796,-73.424,342.535,-119.298,310.401C-119.538,310.233,-119.776,310.065,-120.016,309.897C-120.016,309.897,-113.87,121.871,-113.87,121.871C-113.87,121.871,-152.487,-53.621,-149.811,-95.574C-147.126,-137.536,-119.489,-233.672,-106.965,-270.648C-103.281,-281.513,-101.078,-295.598,-99.803,-310.058C-99.705,-311.138,-99.616,-312.217,-99.535,-313.305C-99.535,-313.332,-99.526,-313.35,-99.526,-313.35C-98.429,-327.23,-98.151,-341.262,-98.196,-352.975C-98.196,-353.34,-98.197,-353.706,-98.206,-354.081C-98.206,-355.107,-98.215,-356.106,-98.224,-357.087C-98.224,-357.346,-98.232,-357.604,-98.232,-357.863C-98.401,-372.002,-99,-381.707,-99,-381.707C-98.759,-384.107,-98.42,-386.355,-98.01,-388.469C-97.591,-390.681,-97.073,-392.733,-96.484,-394.642C-96.038,-396.096,-95.538,-397.461,-95.003,-398.737C-91.39,-407.372,-85.851,-412.216,-79.313,-414.017C-74.469,-415.355,-69.072,-415.025,-63.496,-413.339C-43.756,-407.363,-21.749,-384.33,-13.943,-357.827C0.624,-308.372,-12.436,-165.252,-12.436,-165.252C-12.436,-165.252,21.328,-131.149,42.523,-63.166C48.143,-45.147,52.881,-24.746,55.869,-1.963C57.002,6.699,57.573,14.826,57.627,22.452C57.716,31.266,57.126,39.401,56.02,46.904C54.45,57.572,51.81,66.966,48.483,75.217C30.758,119.231,-6.512,131.05,-6.512,131.05C-6.512,131.05,-4.05,131.773,-4.05,131.773C-4.05,131.773,56.726,149.533,56.726,149.533C56.726,149.533,149.293,176.58,149.293,176.58C149.293,176.58,152.468,177.508,152.468,177.508C152.468,177.508,152.486,177.517,152.486,177.517Z" /></g><g id="i19" transform="matrix(1,0,0,1,519.503,550.366)"><path fill="#fe9f73" d="M-19.485,-79.1C-19.485,-79.1,-15.346,-53.814,-15.346,-53.814C-15.346,-53.814,-51.016,-17.825,-39.378,27.883C-27.741,73.592,2.998,79.101,2.998,79.101C2.998,79.101,51.016,14.736,50.261,-7.607C49.506,-29.95,49.322,-69.149,-19.485,-79.1Z" /></g><g id="i20" transform="matrix(1,0,0,1,534.747,586.078)"><path fill="#f78a5e" d="M-6.123,34.919C-6.123,34.919,13.131,15.397,31.013,-27.21C28.04,-29.053,22.516,-30.645,18.979,-31.695C8.12,-34.919,1.212,-32.687,-4.664,-25.066C-4.664,-25.066,-26.764,7.283,-26.764,7.283C-26.764,7.283,-31.012,15.541,-21.681,25.088C-18.094,28.757,-6.123,34.919,-6.123,34.919Z" /></g><g id="i21" transform="matrix(1,0,0,1,524.678,559.861)"><path fill="#000000" d="M-1.536,71.331C-1.536,71.331,-2.543,71.082,-2.543,71.082C-17.964,67.261,-27.516,55.372,-27.915,54.868C-28.919,53.69,-53.26,24.649,-48.401,-9.148C-43.566,-42.786,-15.358,-70.181,-14.16,-71.331C-14.16,-71.331,-12.052,-69.137,-12.052,-69.137C-12.338,-68.862,-40.705,-41.299,-45.389,-8.716C-50.049,23.7,-25.808,52.649,-25.563,52.938C-25.44,53.09,-16.623,64.036,-2.811,67.867C-2.811,67.867,24.589,29.195,24.589,29.195C53.26,-12.195,40.043,-44.588,39.905,-44.911C39.905,-44.911,42.703,-46.106,42.703,-46.106C42.852,-45.758,46.348,-37.422,46.172,-23.695C46.01,-11.109,42.565,8.587,27.08,30.943C27.08,30.943,-1.536,71.331,-1.536,71.331Z" /></g><g id="i22" transform="matrix(1,0,0,1,543.098,705.335)"><path fill="#fe9f73" d="M-15.226,-61.81C-15.226,-61.81,-11.992,-42.051,-11.992,-42.051C-11.992,-42.051,-39.865,-13.928,-30.771,21.789C-21.677,57.506,2.343,61.81,2.343,61.81C2.343,61.81,39.865,11.515,39.275,-5.944C38.685,-23.404,38.54,-54.034,-15.226,-61.81Z" /></g><g id="i23" transform="matrix(1,0,0,1,555.01,733.241)"><path fill="#f78a5e" d="M-4.785,27.286C-4.785,27.286,10.26,12.031,24.234,-21.262C21.91,-22.702,17.594,-23.946,14.83,-24.767C6.344,-27.286,0.947,-25.542,-3.644,-19.587C-3.644,-19.587,-20.914,5.691,-20.914,5.691C-20.914,5.691,-24.234,12.144,-16.942,19.604C-14.139,22.471,-4.785,27.286,-4.785,27.286Z" /></g><g id="i24" transform="matrix(1,0,0,1,548.515,712.755)"><path fill="#000000" d="M-2.573,55.739C-2.573,55.739,-3.36,55.544,-3.36,55.544C-15.41,52.559,-22.873,43.267,-23.185,42.873C-23.97,41.953,-42.99,19.261,-39.193,-7.149C-35.415,-33.434,-13.373,-54.841,-12.437,-55.739C-12.437,-55.739,-10.791,-54.024,-10.791,-54.024C-11.014,-53.81,-33.18,-32.271,-36.84,-6.81C-40.481,18.519,-21.539,41.14,-21.348,41.365C-21.252,41.485,-14.361,50.039,-3.569,53.032C-3.569,53.032,17.841,22.814,17.841,22.814C40.245,-9.529,29.917,-34.842,29.81,-35.094C29.81,-35.094,31.996,-36.028,31.996,-36.028C32.456,-34.953,42.99,-9.317,19.788,24.179C19.788,24.179,-2.573,55.739,-2.573,55.739Z" /></g><g id="i25" transform="matrix(1,0,0,1,152.949,874.922)"><path fill="#fe9f73" d="M51.22,-40.031C51.22,-40.031,27.158,22.191,57.97,38.336C88.781,54.481,-16.237,63.084,-16.221,60.042C-16.206,56.999,-88.781,-33.126,-70.502,-37.599C-52.223,-42.071,4.934,-63.084,17.796,-49.328C30.659,-35.571,51.22,-40.031,51.22,-40.031Z" /></g><g id="i26" transform="matrix(1,0,0,1,495.198,400.657)"><path fill="#fe9f73" d="M-19.485,-79.1C-19.485,-79.1,-15.346,-53.814,-15.346,-53.814C-15.346,-53.814,-51.016,-17.824,-39.378,27.884C-27.741,73.593,2.998,79.1,2.998,79.1C2.998,79.1,51.016,14.736,50.261,-7.608C49.506,-29.951,49.322,-69.149,-19.485,-79.1Z" /></g><g id="i27" transform="matrix(1,0,0,1,510.442,436.368)"><path fill="#f78a5e" d="M-6.123,34.919C-6.123,34.919,13.131,15.397,31.013,-27.21C28.04,-29.053,22.516,-30.645,18.979,-31.695C8.12,-34.919,1.212,-32.687,-4.664,-25.066C-4.664,-25.066,-26.764,7.283,-26.764,7.283C-26.764,7.283,-31.012,15.542,-21.681,25.088C-18.094,28.757,-6.123,34.919,-6.123,34.919Z" /></g><g id="i28" transform="matrix(1,0,0,1,306.51,985.699)"><path fill="#000000" d="M1.299,44.446C1.299,44.446,-1.744,44.431,-1.744,44.431C-1.744,44.431,-1.299,-44.446,-1.299,-44.446C-1.299,-44.446,1.744,-44.431,1.744,-44.431C1.744,-44.431,1.299,44.446,1.299,44.446Z" /></g><g id="i29" transform="matrix(1,0,0,1,374.578,871.558)"><path fill="#000000" d="M-75.821,74.311C-75.821,74.311,-77.049,71.527,-77.049,71.527C-25.357,48.723,22.668,4.854,45.414,-26.257C65.531,-53.771,74.159,-74.11,74.244,-74.312C74.244,-74.312,77.049,-73.135,77.049,-73.135C76.963,-72.93,68.217,-52.29,47.871,-24.462C24.892,6.966,-23.617,51.281,-75.821,74.311Z" /></g><g id="i30" transform="matrix(1,0,0,1,73.029,408.117)"><path fill="#f78a5e" d="M16.25,-34.349C13.22,-42.925,-8.687,-44.071,-15.125,-42.922C-19.28,-42.18,-14.932,38.595,-18.312,42.281C-18.312,42.281,-18.924,43.292,-8.292,43.662C3.425,44.071,11.563,39.13,11.563,39.13C11.563,39.13,19.28,-25.774,16.25,-34.349Z" /></g><g id="i31" transform="matrix(1,0,0,1,500.373,410.147)"><path fill="#000000" d="M-1.53,71.327C-1.53,71.327,-2.529,71.09,-2.529,71.09C-16.395,67.806,-27.401,55.457,-27.863,54.933C-28.919,53.694,-53.259,24.654,-48.401,-9.143C-43.565,-42.781,-15.358,-70.177,-14.159,-71.327C-14.159,-71.327,-12.053,-69.131,-12.053,-69.131C-12.338,-68.857,-40.705,-41.294,-45.389,-8.71C-50.049,23.705,-25.808,52.653,-25.563,52.941C-25.476,53.04,-15.28,64.462,-2.815,67.877C-2.815,67.877,24.588,29.2,24.588,29.2C53.259,-12.189,40.042,-44.585,39.905,-44.907C39.905,-44.907,42.704,-46.102,42.704,-46.102C42.852,-45.753,46.348,-37.418,46.171,-23.691C46.009,-11.105,42.566,8.591,27.08,30.947C27.08,30.947,-1.53,71.327,-1.53,71.327Z" /></g><g id="i32" transform="matrix(1,0,0,1,455.81,208.355)"><path fill="#000000" d="M22.539,138.734C22.539,138.734,-25.542,-138.243,-25.542,-138.243C-25.542,-138.243,-22.539,-138.734,-22.539,-138.734C-22.539,-138.734,25.542,138.242,25.542,138.242C25.542,138.242,22.539,138.734,22.539,138.734Z" /></g><g id="i3" transform="matrix(1,0,0,1,490.568,158.324)"><path fill="#000000" d="M22.896,35.158C22.896,35.158,20.416,33.395,20.416,33.395C20.628,33.095,41.483,3.282,26.181,-14.141C10.667,-31.805,-44.138,-19.732,-44.69,-19.608C-44.69,-19.608,-45.357,-22.577,-45.357,-22.577C-43.033,-23.099,11.775,-35.158,28.468,-16.149C45.357,3.083,23.821,33.857,22.896,35.158Z" /></g><g id="i5" transform="matrix(1,0,0,1,82.905,842.933)"><path fill="#000100" d="M18.451,18.88C18.005,19.199,17.408,19.283,16.87,19.046C-1.226,11.088,-18.155,-15.47,-18.867,-16.597C-19.34,-17.346,-19.113,-18.33,-18.367,-18.808C-17.619,-19.282,-16.628,-19.06,-16.154,-18.311C-15.985,-18.043,0.965,8.547,18.161,16.109C18.972,16.466,19.341,17.412,18.984,18.223C18.864,18.496,18.677,18.718,18.451,18.88Z" /></g><g id="i6" transform="matrix(1,0,0,1,101.436,843.781)"><path fill="#000100" d="M21.822,14.68C21.473,14.93,21.027,15.04,20.574,14.95C1.186,11.083,-21.073,-11.198,-22.011,-12.143C-22.635,-12.773,-22.63,-13.788,-22.001,-14.411C-21.372,-15.039,-20.355,-15.031,-19.732,-14.403C-19.51,-14.178,2.779,8.128,21.202,11.802C22.071,11.976,22.634,12.821,22.46,13.69C22.378,14.106,22.141,14.451,21.822,14.68Z" /></g><g id="i7" transform="matrix(1,0,0,1,108.07,621.791)"><path fill="#000000" d="M40.121,274.452C40.121,274.452,39.2,271.552,39.2,271.552C39.389,271.492,58.275,265.314,75.173,246.129C90.764,228.429,107.819,195.683,100.533,140.195C93.203,84.346,75.139,43.162,61.277,18.448C46.253,-8.335,32.788,-22.086,32.653,-22.221C32.653,-22.221,32.156,-22.724,32.156,-22.724C32.156,-22.724,32.22,-23.43,32.22,-23.43C32.35,-24.859,45.089,-166.832,30.767,-215.444C22.193,-244.562,-5.168,-271.216,-26.638,-271.366C-26.654,-271.366,-26.672,-271.366,-26.688,-271.366C-37.302,-271.419,-44.968,-264.806,-48.86,-252.236C-49.999,-248.552,-50.819,-244.341,-51.301,-239.718C-51.16,-237.297,-49.155,-201.393,-52.112,-167.966C-53.566,-151.469,-56.001,-138.091,-59.352,-128.205C-70.814,-94.362,-99.4,3.967,-102.118,46.481C-104.756,87.743,-66.594,261.744,-66.209,263.497C-66.209,263.497,-69.18,264.15,-69.18,264.15C-70.759,256.977,-107.82,87.975,-105.154,46.286C-102.418,3.487,-73.733,-95.227,-62.233,-129.181C-58.96,-138.838,-56.574,-151.977,-55.142,-168.233C-52.116,-202.441,-54.323,-239.291,-54.345,-239.66C-54.345,-239.66,-54.353,-239.783,-54.353,-239.783C-54.353,-239.783,-54.34,-239.907,-54.34,-239.907C-53.84,-244.777,-52.975,-249.226,-51.767,-253.135C-46.301,-270.784,-35.116,-274.451,-26.673,-274.408C-26.654,-274.408,-26.635,-274.408,-26.616,-274.408C-15.806,-274.332,-2.991,-267.975,8.544,-256.965C20.356,-245.692,29.285,-231.251,33.686,-216.304C47.808,-168.371,36.39,-35.9,35.312,-23.843C37.905,-21.08,50.278,-7.352,63.864,16.844C77.884,41.808,96.148,83.404,103.549,139.797C106.833,164.803,105.563,187.436,99.775,207.065C95.13,222.82,87.584,236.683,77.345,248.268C59.887,268.021,40.92,274.199,40.121,274.452Z" /></g></g></g></g></g><g id="i33"><g transform="translate(719.727,1080.265)"><g transform="scale(0,0)"><animateTransform repeatCount="indefinite" type="scale" attributeName="transform" dur="2.836s" begin="0s" calcMode="spline" values="0 0; 0 0; 1 1; 1 1" keyTimes="0; 0.188235; 0.282353; 1" keySplines="0 0 1 1; 0.333 0 0.667 1; 0 0 1 1" fill="freeze" /><g transform="translate(-35.893,-250.988)"><g id="i34" transform="matrix(1,0,0,1,263.892,194.987)"><path fill="#f7597f" d="M248.703,101.985C248.703,101.985,-188.656,191.477,-188.656,191.477C-196.765,193.136,-204.684,187.908,-206.343,179.799C-206.343,179.799,-260.381,-84.298,-260.381,-84.298C-262.04,-92.407,-256.812,-100.326,-248.703,-101.985C-248.703,-101.985,188.656,-191.477,188.656,-191.477C196.765,-193.137,204.684,-187.908,206.343,-179.799C206.343,-179.799,260.381,84.298,260.381,84.298C262.04,92.407,256.812,100.326,248.703,101.985Z" /></g><g id="i35" transform="matrix(1,0,0,1,76.926,278.035)"><path fill="#ffffff" fill-rule="evenodd" d="M9.913,5.948C9.793,7.47,9.437,8.767,8.845,9.84C8.252,10.912,7.451,11.774,6.442,12.424C5.434,13.074,4.236,13.543,2.848,13.827C1.46,14.111,0.168,14.152,-1.027,13.953C-2.223,13.754,-3.304,13.277,-4.27,12.523C-5.237,11.769,-6.074,10.717,-6.782,9.364C-7.49,8.012,-8.051,6.325,-8.464,4.304C-8.464,4.304,-9.473,-0.628,-9.473,-0.628C-9.887,-2.649,-10.033,-4.42,-9.913,-5.943C-9.793,-7.464,-9.438,-8.762,-8.845,-9.834C-8.253,-10.907,-7.446,-11.77,-6.425,-12.423C-5.404,-13.075,-4.199,-13.544,-2.811,-13.828C-1.422,-14.112,-0.137,-14.153,1.046,-13.951C2.23,-13.749,3.304,-13.272,4.27,-12.518C5.236,-11.764,6.074,-10.711,6.782,-9.359C7.49,-8.006,8.05,-6.32,8.463,-4.298C8.463,-4.298,9.473,0.633,9.473,0.633C9.887,2.655,10.033,4.427,9.913,5.948ZM5.139,-3.618C4.825,-5.153,4.425,-6.433,3.936,-7.462C3.447,-8.491,2.889,-9.298,2.264,-9.881C1.639,-10.463,0.948,-10.842,0.192,-11.018C-0.565,-11.192,-1.367,-11.193,-2.217,-11.019C-3.067,-10.845,-3.806,-10.529,-4.433,-10.071C-5.06,-9.613,-5.547,-8.993,-5.892,-8.212C-6.239,-7.43,-6.434,-6.47,-6.48,-5.332C-6.525,-4.194,-6.39,-2.858,-6.076,-1.323C-6.076,-1.323,-5.066,3.608,-5.066,3.608C-4.752,5.143,-4.352,6.425,-3.863,7.454C-3.374,8.483,-2.817,9.289,-2.191,9.871C-1.566,10.454,-0.875,10.833,-0.119,11.007C0.638,11.183,1.44,11.183,2.29,11.009C3.139,10.835,3.879,10.52,4.506,10.061C5.133,9.603,5.618,8.984,5.965,8.202C6.31,7.421,6.506,6.461,6.551,5.323C6.596,4.185,6.462,2.848,6.148,1.314C6.148,1.314,5.139,-3.618,5.139,-3.618Z" /></g><g id="i36" transform="matrix(1,0,0,1,99.028,273.513)"><path fill="#ffffff" fill-rule="evenodd" d="M9.913,5.948C9.793,7.47,9.437,8.767,8.845,9.84C8.252,10.912,7.451,11.774,6.442,12.424C5.433,13.074,4.236,13.542,2.848,13.826C1.46,14.11,0.168,14.152,-1.027,13.953C-2.223,13.754,-3.304,13.277,-4.27,12.523C-5.237,11.769,-6.074,10.717,-6.782,9.364C-7.49,8.012,-8.051,6.325,-8.464,4.304C-8.464,4.304,-9.473,-0.628,-9.473,-0.628C-9.887,-2.649,-10.033,-4.42,-9.913,-5.943C-9.793,-7.464,-9.438,-8.762,-8.845,-9.834C-8.253,-10.907,-7.446,-11.77,-6.425,-12.423C-5.404,-13.075,-4.199,-13.544,-2.811,-13.828C-1.422,-14.112,-0.137,-14.153,1.046,-13.951C2.23,-13.749,3.304,-13.272,4.27,-12.518C5.236,-11.764,6.074,-10.711,6.782,-9.359C7.49,-8.006,8.05,-6.32,8.463,-4.298C8.463,-4.298,9.473,0.633,9.473,0.633C9.887,2.655,10.033,4.427,9.913,5.948ZM5.139,-3.618C4.825,-5.153,4.425,-6.433,3.936,-7.462C3.447,-8.491,2.889,-9.298,2.264,-9.881C1.639,-10.463,0.948,-10.842,0.192,-11.018C-0.565,-11.192,-1.367,-11.193,-2.217,-11.019C-3.067,-10.845,-3.806,-10.529,-4.433,-10.071C-5.06,-9.613,-5.547,-8.993,-5.892,-8.212C-6.239,-7.43,-6.434,-6.47,-6.48,-5.332C-6.525,-4.194,-6.39,-2.858,-6.076,-1.323C-6.076,-1.323,-5.066,3.608,-5.066,3.608C-4.752,5.143,-4.352,6.425,-3.863,7.454C-3.374,8.483,-2.817,9.289,-2.191,9.871C-1.566,10.454,-0.876,10.833,-0.119,11.008C0.638,11.183,1.44,11.183,2.29,11.009C3.139,10.835,3.879,10.52,4.506,10.061C5.133,9.603,5.618,8.984,5.965,8.202C6.31,7.421,6.506,6.461,6.551,5.323C6.596,4.185,6.462,2.848,6.148,1.314C6.148,1.314,5.139,-3.618,5.139,-3.618Z" /></g><g id="i10" transform="matrix(1,0,0,1,121.216,269.394)"><path fill="#ffffff" d="M6.587,-9.359C6.881,-7.922,6.77,-6.599,6.254,-5.39C5.738,-4.181,4.743,-2.827,3.267,-1.333C3.267,-1.333,0.237,1.76,0.237,1.76C-0.65,2.652,-1.361,3.464,-1.898,4.195C-2.436,4.927,-2.831,5.637,-3.085,6.323C-3.339,7.009,-3.479,7.691,-3.506,8.368C-3.532,9.046,-3.464,9.787,-3.299,10.59C-3.299,10.59,-3.142,11.358,-3.142,11.358C-3.142,11.358,9.169,8.839,9.169,8.839C9.364,8.799,9.545,8.818,9.714,8.898C9.883,8.978,9.987,9.115,10.027,9.31C10.027,9.31,10.355,10.917,10.355,10.917C10.395,11.113,10.355,11.287,10.233,11.438C10.112,11.59,9.954,11.685,9.759,11.724C9.759,11.724,-4.716,14.688,-4.716,14.688C-4.909,14.727,-5.091,14.693,-5.262,14.589C-5.434,14.485,-5.54,14.336,-5.579,14.141C-5.579,14.141,-6.184,11.186,-6.184,11.186C-6.572,9.29,-6.495,7.463,-5.951,5.704C-5.407,3.946,-4.271,2.193,-2.542,0.446C-2.542,0.446,0.651,-2.791,0.651,-2.791C1.303,-3.457,1.833,-4.034,2.242,-4.523C2.651,-5.013,2.957,-5.474,3.161,-5.908C3.365,-6.342,3.479,-6.778,3.505,-7.214C3.53,-7.65,3.488,-8.135,3.379,-8.671C3.11,-9.984,2.495,-10.852,1.532,-11.276C0.57,-11.7,-0.897,-11.71,-2.87,-11.307C-3.82,-11.112,-4.868,-10.84,-6.015,-10.492C-7.161,-10.143,-8.231,-9.791,-9.224,-9.435C-9.224,-9.435,-9.37,-9.405,-9.37,-9.405C-9.76,-9.325,-10,-9.505,-10.09,-9.945C-10.09,-9.945,-10.355,-11.24,-10.355,-11.24C-10.395,-11.438,-10.358,-11.599,-10.244,-11.725C-10.131,-11.851,-9.982,-11.959,-9.797,-12.048C-8.922,-12.484,-7.919,-12.882,-6.787,-13.242C-5.655,-13.602,-4.541,-13.895,-3.446,-14.119C-0.474,-14.727,1.825,-14.652,3.452,-13.894C5.078,-13.136,6.123,-11.624,6.587,-9.359Z" /></g><g id="i11" transform="matrix(1,0,0,1,141.659,264.288)"><path fill="#ffffff" d="M6.697,13.046C6.605,13.217,6.462,13.322,6.267,13.361C6.267,13.361,4.258,13.774,4.258,13.774C4.062,13.814,3.89,13.772,3.738,13.65C3.586,13.53,3.491,13.373,3.451,13.178C3.451,13.178,-1.251,-9.801,-1.251,-9.801C-1.251,-9.801,-5.545,-6.791,-5.545,-6.791C-5.701,-6.683,-5.851,-6.615,-5.998,-6.585C-6.217,-6.54,-6.354,-6.651,-6.409,-6.92C-6.409,-6.92,-6.79,-8.783,-6.79,-8.783C-6.815,-8.904,-6.803,-9.002,-6.755,-9.075C-6.706,-9.148,-6.629,-9.234,-6.522,-9.333C-6.522,-9.333,-1.543,-13.09,-1.543,-13.09C-1.281,-13.296,-1.04,-13.423,-0.822,-13.467C-0.822,-13.467,0.676,-13.773,0.676,-13.773C0.871,-13.813,1.049,-13.78,1.211,-13.674C1.372,-13.567,1.473,-13.417,1.513,-13.222C1.513,-13.222,6.775,12.496,6.775,12.496C6.815,12.691,6.789,12.875,6.697,13.046Z" /></g><g id="i12" transform="matrix(1,0,0,1,185.165,255.888)"><path fill="#ffffff" fill-rule="evenodd" d="M9.913,5.948C9.793,7.47,9.437,8.767,8.845,9.84C8.252,10.912,7.451,11.774,6.442,12.424C5.434,13.075,4.236,13.543,2.848,13.827C1.46,14.111,0.168,14.152,-1.027,13.953C-2.223,13.754,-3.304,13.277,-4.27,12.523C-5.237,11.769,-6.074,10.717,-6.782,9.364C-7.49,8.012,-8.051,6.325,-8.464,4.304C-8.464,4.304,-9.473,-0.628,-9.473,-0.628C-9.887,-2.649,-10.033,-4.42,-9.913,-5.943C-9.793,-7.464,-9.438,-8.762,-8.845,-9.834C-8.253,-10.907,-7.446,-11.77,-6.425,-12.423C-5.404,-13.075,-4.199,-13.544,-2.811,-13.828C-1.422,-14.112,-0.137,-14.153,1.046,-13.951C2.23,-13.749,3.304,-13.272,4.27,-12.518C5.236,-11.764,6.074,-10.711,6.782,-9.359C7.49,-8.006,8.05,-6.32,8.463,-4.298C8.463,-4.298,9.473,0.633,9.473,0.633C9.887,2.655,10.033,4.427,9.913,5.948ZM5.139,-3.618C4.825,-5.153,4.425,-6.434,3.936,-7.463C3.447,-8.492,2.889,-9.298,2.264,-9.881C1.639,-10.463,0.948,-10.842,0.192,-11.018C-0.565,-11.192,-1.367,-11.193,-2.217,-11.019C-3.067,-10.845,-3.806,-10.529,-4.433,-10.071C-5.06,-9.613,-5.547,-8.993,-5.892,-8.212C-6.239,-7.43,-6.434,-6.47,-6.48,-5.332C-6.525,-4.194,-6.39,-2.858,-6.076,-1.323C-6.076,-1.323,-5.066,3.609,-5.066,3.609C-4.752,5.143,-4.352,6.425,-3.863,7.454C-3.374,8.483,-2.817,9.289,-2.191,9.872C-1.566,10.454,-0.875,10.833,-0.119,11.007C0.638,11.183,1.44,11.183,2.29,11.009C3.139,10.835,3.879,10.52,4.506,10.061C5.133,9.603,5.618,8.984,5.965,8.202C6.31,7.421,6.506,6.461,6.551,5.323C6.596,4.185,6.462,2.848,6.148,1.314C6.148,1.314,5.139,-3.618,5.139,-3.618Z" /></g><g id="i13" transform="matrix(1,0,0,1,206.744,251.659)"><path fill="#ffffff" d="M9.779,7.75C9.53,8.829,9.07,9.767,8.396,10.564C7.722,11.362,6.861,12.026,5.815,12.557C4.768,13.088,3.576,13.491,2.237,13.765C1.068,14.005,-0.05,14.155,-1.115,14.219C-2.181,14.283,-3.171,14.307,-4.088,14.288C-4.294,14.279,-4.473,14.232,-4.63,14.148C-4.786,14.065,-4.886,13.925,-4.927,13.727C-4.927,13.727,-5.184,12.469,-5.184,12.469C-5.269,12.054,-5.105,11.804,-4.69,11.719C-4.69,11.719,-4.581,11.697,-4.581,11.697C-3.455,11.619,-2.346,11.519,-1.255,11.396C-0.163,11.275,0.809,11.127,1.662,10.952C3.658,10.544,5.026,9.847,5.763,8.862C6.5,7.877,6.69,6.511,6.332,4.763C6.332,4.763,6.176,3.999,6.176,3.999C6.077,3.513,5.907,3.023,5.667,2.528C5.426,2.034,5.096,1.604,4.678,1.234C4.26,0.864,3.748,0.596,3.143,0.429C2.538,0.262,1.821,0.263,0.993,0.432C0.993,0.432,-5.655,1.793,-5.655,1.793C-6.118,1.887,-6.395,1.714,-6.484,1.276C-6.484,1.276,-6.746,-0.001,-6.746,-0.001C-6.841,-0.464,-6.657,-0.744,-6.194,-0.839C-6.194,-0.839,0.456,-2.199,0.456,-2.199C1.333,-2.379,2.024,-2.658,2.529,-3.04C3.035,-3.421,3.395,-3.855,3.613,-4.342C3.83,-4.828,3.948,-5.339,3.965,-5.873C3.983,-6.407,3.943,-6.918,3.844,-7.404C3.844,-7.404,3.74,-7.912,3.74,-7.912C3.432,-9.416,2.774,-10.426,1.768,-10.94C0.762,-11.455,-0.776,-11.5,-2.846,-11.076C-3.918,-10.857,-4.898,-10.6,-5.789,-10.303C-6.68,-10.007,-7.708,-9.662,-8.871,-9.272C-8.871,-9.272,-8.981,-9.251,-8.981,-9.251C-9.395,-9.166,-9.644,-9.33,-9.729,-9.745C-9.729,-9.745,-9.994,-11.04,-9.994,-11.04C-10.029,-11.212,-9.993,-11.375,-9.884,-11.526C-9.776,-11.677,-9.629,-11.797,-9.444,-11.886C-8.608,-12.263,-7.688,-12.63,-6.682,-12.99C-5.678,-13.35,-4.591,-13.649,-3.422,-13.889C-2.058,-14.168,-0.792,-14.307,0.376,-14.305C1.543,-14.303,2.58,-14.102,3.486,-13.704C4.392,-13.305,5.157,-12.7,5.78,-11.889C6.402,-11.078,6.854,-9.991,7.133,-8.628C7.133,-8.628,7.237,-8.115,7.237,-8.115C7.491,-6.873,7.428,-5.694,7.048,-4.576C6.668,-3.457,5.962,-2.5,4.933,-1.706C5.655,-1.524,6.28,-1.259,6.808,-0.91C7.336,-0.561,7.786,-0.159,8.159,0.297C8.532,0.754,8.834,1.239,9.065,1.749C9.296,2.261,9.467,2.783,9.577,3.318C9.577,3.318,9.734,4.085,9.734,4.085C10.013,5.45,10.028,6.672,9.779,7.75Z" /></g><g id="i14" transform="matrix(1,0,0,1,228.846,247.136)"><path fill="#ffffff" d="M9.779,7.749C9.53,8.828,9.07,9.767,8.396,10.564C7.722,11.362,6.861,12.026,5.815,12.557C4.769,13.088,3.576,13.49,2.237,13.764C1.068,14.004,-0.049,14.155,-1.115,14.219C-2.18,14.283,-3.171,14.307,-4.088,14.288C-4.294,14.279,-4.473,14.232,-4.63,14.148C-4.786,14.065,-4.886,13.924,-4.927,13.726C-4.927,13.726,-5.184,12.468,-5.184,12.468C-5.269,12.053,-5.105,11.803,-4.69,11.718C-4.69,11.718,-4.581,11.697,-4.581,11.697C-3.455,11.619,-2.346,11.519,-1.255,11.396C-0.163,11.275,0.809,11.127,1.662,10.952C3.658,10.544,5.026,9.846,5.763,8.861C6.5,7.876,6.69,6.51,6.332,4.762C6.332,4.762,6.176,3.998,6.176,3.998C6.077,3.512,5.908,3.023,5.667,2.528C5.426,2.034,5.096,1.603,4.678,1.233C4.26,0.863,3.748,0.595,3.143,0.428C2.538,0.261,1.821,0.262,0.993,0.431C0.993,0.431,-5.655,1.792,-5.655,1.792C-6.118,1.886,-6.395,1.714,-6.484,1.276C-6.484,1.276,-6.746,-0.002,-6.746,-0.002C-6.841,-0.465,-6.657,-0.744,-6.194,-0.839C-6.194,-0.839,0.456,-2.199,0.456,-2.199C1.333,-2.379,2.024,-2.658,2.529,-3.04C3.035,-3.421,3.395,-3.856,3.613,-4.343C3.83,-4.829,3.948,-5.34,3.966,-5.874C3.983,-6.408,3.943,-6.918,3.844,-7.404C3.844,-7.404,3.74,-7.913,3.74,-7.913C3.432,-9.417,2.774,-10.426,1.768,-10.94C0.762,-11.455,-0.776,-11.501,-2.846,-11.077C-3.918,-10.858,-4.899,-10.6,-5.79,-10.303C-6.681,-10.007,-7.708,-9.663,-8.871,-9.273C-8.871,-9.273,-8.981,-9.251,-8.981,-9.251C-9.395,-9.166,-9.644,-9.331,-9.729,-9.746C-9.729,-9.746,-9.994,-11.041,-9.994,-11.041C-10.029,-11.213,-9.993,-11.375,-9.884,-11.526C-9.776,-11.677,-9.629,-11.797,-9.444,-11.886C-8.608,-12.263,-7.688,-12.631,-6.682,-12.991C-5.678,-13.351,-4.591,-13.65,-3.421,-13.89C-2.058,-14.169,-0.792,-14.307,0.376,-14.305C1.543,-14.303,2.58,-14.103,3.486,-13.705C4.392,-13.306,5.157,-12.701,5.78,-11.89C6.402,-11.079,6.854,-9.991,7.133,-8.628C7.133,-8.628,7.237,-8.116,7.237,-8.116C7.491,-6.874,7.428,-5.694,7.048,-4.576C6.668,-3.457,5.962,-2.501,4.933,-1.707C5.655,-1.525,6.28,-1.26,6.808,-0.911C7.336,-0.562,7.786,-0.159,8.159,0.297C8.532,0.754,8.834,1.238,9.065,1.748C9.296,2.26,9.467,2.783,9.577,3.318C9.577,3.318,9.734,4.085,9.734,4.085C10.013,5.45,10.028,6.671,9.779,7.749Z" /></g><g id="i15" transform="matrix(1,0,0,1,249.897,242.141)"><path fill="#ffffff" d="M6.697,13.046C6.605,13.217,6.461,13.323,6.267,13.363C6.267,13.363,4.258,13.774,4.258,13.774C4.062,13.814,3.89,13.772,3.738,13.65C3.586,13.53,3.491,13.373,3.451,13.178C3.451,13.178,-1.251,-9.801,-1.251,-9.801C-1.251,-9.801,-5.545,-6.791,-5.545,-6.791C-5.701,-6.683,-5.851,-6.615,-5.998,-6.585C-6.217,-6.54,-6.354,-6.651,-6.409,-6.92C-6.409,-6.92,-6.79,-8.783,-6.79,-8.783C-6.815,-8.904,-6.803,-9.001,-6.755,-9.074C-6.706,-9.147,-6.629,-9.233,-6.522,-9.332C-6.522,-9.332,-1.544,-13.09,-1.544,-13.09C-1.281,-13.296,-1.04,-13.423,-0.821,-13.467C-0.821,-13.467,0.676,-13.773,0.676,-13.773C0.871,-13.813,1.049,-13.779,1.211,-13.673C1.372,-13.566,1.473,-13.417,1.513,-13.222C1.513,-13.222,6.775,12.496,6.775,12.496C6.815,12.691,6.789,12.875,6.697,13.046Z" /></g><g id="i16" transform="matrix(1,0,0,1,294.357,232.894)"><path fill="#ffffff" fill-rule="evenodd" d="M9.313,5.352C9.313,5.352,6.136,6.002,6.136,6.002C6.136,6.002,7.465,12.505,7.465,12.505C7.505,12.7,7.485,12.881,7.404,13.05C7.324,13.219,7.185,13.323,6.988,13.364C6.988,13.364,4.845,13.802,4.845,13.802C4.648,13.842,4.48,13.801,4.339,13.677C4.199,13.554,4.108,13.395,4.069,13.2C4.069,13.2,2.738,6.697,2.738,6.697C2.738,6.697,-7.788,8.851,-7.788,8.851C-8.346,8.965,-8.756,8.941,-9.017,8.779C-9.278,8.617,-9.463,8.268,-9.572,7.732C-9.572,7.732,-9.856,6.344,-9.856,6.344C-9.961,5.832,-9.909,5.352,-9.697,4.902C-9.697,4.902,-2.017,-12.464,-2.017,-12.464C-1.95,-12.63,-1.857,-12.789,-1.736,-12.94C-1.615,-13.092,-1.396,-13.2,-1.08,-13.265C-1.08,-13.265,1.1,-13.711,1.1,-13.711C1.741,-13.842,2.115,-13.64,2.225,-13.106C2.225,-13.106,5.559,3.189,5.559,3.189C5.559,3.189,8.738,2.539,8.738,2.539C8.933,2.499,9.11,2.527,9.269,2.623C9.428,2.719,9.528,2.865,9.568,3.063C9.568,3.063,9.871,4.543,9.871,4.543C9.962,4.987,9.776,5.257,9.313,5.352ZM-0.35,-8.581C-0.38,-8.727,-0.444,-8.79,-0.541,-8.77C-0.541,-8.77,-0.577,-8.763,-0.577,-8.763C-0.675,-8.743,-0.757,-8.649,-0.824,-8.484C-0.824,-8.484,-6.783,5.183,-6.783,5.183C-6.837,5.296,-6.852,5.4,-6.833,5.497C-6.803,5.643,-6.691,5.696,-6.497,5.656C-6.497,5.656,2.199,3.877,2.199,3.877C2.199,3.877,-0.35,-8.581,-0.35,-8.581Z" /></g><g id="i17" transform="matrix(1,0,0,1,314.981,229.408)"><path fill="#ffffff" fill-rule="evenodd" d="M10.11,6.111C9.99,7.57,9.618,8.819,8.994,9.86C8.369,10.902,7.501,11.744,6.391,12.39C5.279,13.036,3.944,13.52,2.386,13.839C0.925,14.138,-0.312,14.327,-1.324,14.405C-2.335,14.484,-3.236,14.513,-4.026,14.494C-4.28,14.495,-4.502,14.464,-4.693,14.4C-4.884,14.336,-5.002,14.193,-5.047,13.97C-5.047,13.97,-5.342,12.527,-5.342,12.527C-5.387,12.308,-5.361,12.131,-5.261,11.996C-5.161,11.861,-5.015,11.775,-4.819,11.735C-4.771,11.725,-4.733,11.723,-4.706,11.73C-4.679,11.738,-4.642,11.736,-4.593,11.726C-3.627,11.732,-2.618,11.679,-1.562,11.564C-0.507,11.45,0.605,11.272,1.773,11.033C3.186,10.744,4.265,10.315,5.012,9.746C5.758,9.177,6.279,8.495,6.573,7.702C6.867,6.909,6.974,6.004,6.892,4.986C6.811,3.967,6.648,2.862,6.405,1.673C6.405,1.673,6.323,1.272,6.323,1.272C5.578,1.602,4.778,1.936,3.921,2.277C3.065,2.617,2.076,2.902,0.956,3.132C-0.238,3.376,-1.401,3.487,-2.534,3.465C-3.668,3.444,-4.709,3.224,-5.656,2.809C-6.604,2.394,-7.422,1.743,-8.111,0.856C-8.801,-0.03,-9.294,-1.203,-9.593,-2.665C-9.593,-2.665,-9.638,-2.884,-9.638,-2.884C-10.231,-5.782,-9.958,-8.198,-8.818,-10.132C-7.679,-12.065,-5.611,-13.337,-2.615,-13.95C0.137,-14.513,2.475,-14.122,4.399,-12.778C6.323,-11.434,7.652,-8.972,8.385,-5.392C8.385,-5.392,9.693,1.001,9.693,1.001C10.092,2.95,10.231,4.653,10.11,6.111ZM5.092,-4.743C4.789,-6.224,4.415,-7.431,3.971,-8.364C3.526,-9.297,3.006,-10.008,2.412,-10.493C1.818,-10.979,1.149,-11.272,0.405,-11.373C-0.338,-11.474,-1.149,-11.434,-2.025,-11.254C-2.878,-11.08,-3.629,-10.812,-4.278,-10.452C-4.928,-10.091,-5.45,-9.605,-5.845,-8.993C-6.24,-8.381,-6.487,-7.634,-6.586,-6.754C-6.685,-5.874,-6.607,-4.816,-6.354,-3.577C-6.354,-3.577,-6.309,-3.358,-6.309,-3.358C-6.111,-2.387,-5.786,-1.607,-5.335,-1.017C-4.885,-0.425,-4.353,0.003,-3.74,0.27C-3.127,0.537,-2.47,0.682,-1.768,0.702C-1.066,0.723,-0.349,0.658,0.382,0.509C0.82,0.419,1.291,0.304,1.795,0.163C2.299,0.022,2.794,-0.13,3.281,-0.293C3.768,-0.455,4.228,-0.626,4.661,-0.803C5.094,-0.98,5.462,-1.137,5.763,-1.275C5.763,-1.275,5.092,-4.743,5.092,-4.743Z" /></g><g id="i18" transform="matrix(1,0,0,1,337.694,225.098)"><path fill="#ffffff" d="M6.587,-9.359C6.881,-7.922,6.77,-6.599,6.254,-5.39C5.738,-4.181,4.743,-2.828,3.267,-1.333C3.267,-1.333,0.237,1.76,0.237,1.76C-0.65,2.652,-1.361,3.464,-1.898,4.195C-2.436,4.927,-2.831,5.636,-3.085,6.322C-3.34,7.008,-3.48,7.691,-3.506,8.368C-3.533,9.046,-3.464,9.787,-3.299,10.59C-3.299,10.59,-3.142,11.358,-3.142,11.358C-3.142,11.358,9.169,8.839,9.169,8.839C9.363,8.8,9.545,8.818,9.714,8.898C9.883,8.978,9.987,9.115,10.026,9.31C10.026,9.31,10.355,10.917,10.355,10.917C10.395,11.113,10.355,11.287,10.233,11.438C10.112,11.59,9.954,11.685,9.759,11.724C9.759,11.724,-4.717,14.688,-4.717,14.688C-4.909,14.727,-5.091,14.693,-5.262,14.589C-5.434,14.485,-5.54,14.336,-5.58,14.141C-5.58,14.141,-6.184,11.186,-6.184,11.186C-6.572,9.29,-6.495,7.462,-5.951,5.704C-5.408,3.946,-4.271,2.193,-2.543,0.446C-2.543,0.446,0.651,-2.791,0.651,-2.791C1.303,-3.457,1.833,-4.034,2.242,-4.523C2.651,-5.013,2.957,-5.474,3.161,-5.908C3.365,-6.343,3.479,-6.778,3.505,-7.214C3.53,-7.65,3.488,-8.136,3.379,-8.671C3.11,-9.984,2.494,-10.852,1.532,-11.276C0.57,-11.7,-0.897,-11.71,-2.87,-11.307C-3.82,-11.112,-4.868,-10.841,-6.015,-10.492C-7.161,-10.143,-8.231,-9.791,-9.224,-9.435C-9.224,-9.435,-9.37,-9.405,-9.37,-9.405C-9.76,-9.326,-10,-9.505,-10.09,-9.945C-10.09,-9.945,-10.355,-11.24,-10.355,-11.24C-10.395,-11.438,-10.358,-11.599,-10.244,-11.725C-10.131,-11.851,-9.982,-11.959,-9.797,-12.048C-8.922,-12.484,-7.919,-12.882,-6.787,-13.242C-5.655,-13.602,-4.541,-13.895,-3.446,-14.119C-0.474,-14.727,1.825,-14.651,3.452,-13.893C5.078,-13.135,6.123,-11.624,6.587,-9.359Z" /></g><g id="i19" transform="matrix(1,0,0,1,358.137,219.993)"><path fill="#ffffff" d="M6.697,13.046C6.605,13.217,6.462,13.323,6.267,13.363C6.267,13.363,4.258,13.774,4.258,13.774C4.062,13.814,3.89,13.772,3.738,13.65C3.586,13.53,3.491,13.373,3.451,13.178C3.451,13.178,-1.251,-9.801,-1.251,-9.801C-1.251,-9.801,-5.545,-6.791,-5.545,-6.791C-5.701,-6.683,-5.851,-6.615,-5.998,-6.585C-6.217,-6.54,-6.354,-6.651,-6.408,-6.92C-6.408,-6.92,-6.79,-8.783,-6.79,-8.783C-6.815,-8.904,-6.803,-9.001,-6.755,-9.074C-6.706,-9.147,-6.629,-9.233,-6.522,-9.332C-6.522,-9.332,-1.543,-13.09,-1.543,-13.09C-1.281,-13.296,-1.04,-13.423,-0.822,-13.467C-0.822,-13.467,0.676,-13.773,0.676,-13.773C0.871,-13.813,1.049,-13.779,1.211,-13.673C1.372,-13.566,1.473,-13.417,1.512,-13.222C1.512,-13.222,6.775,12.496,6.775,12.496C6.815,12.691,6.789,12.875,6.697,13.046Z" /></g><g id="i20" transform="matrix(1,0,0,1,401.73,211.995)"><path fill="#ffffff" d="M6.587,-9.359C6.881,-7.922,6.77,-6.599,6.254,-5.39C5.738,-4.18,4.743,-2.827,3.267,-1.333C3.267,-1.333,0.237,1.76,0.237,1.76C-0.65,2.652,-1.361,3.464,-1.898,4.195C-2.436,4.927,-2.831,5.636,-3.085,6.322C-3.34,7.009,-3.48,7.691,-3.506,8.368C-3.533,9.046,-3.464,9.787,-3.299,10.591C-3.299,10.591,-3.142,11.358,-3.142,11.358C-3.142,11.358,9.169,8.839,9.169,8.839C9.363,8.799,9.545,8.818,9.714,8.898C9.883,8.978,9.987,9.115,10.026,9.31C10.026,9.31,10.355,10.917,10.355,10.917C10.395,11.113,10.355,11.287,10.233,11.438C10.112,11.59,9.954,11.685,9.759,11.725C9.759,11.725,-4.716,14.688,-4.716,14.688C-4.909,14.727,-5.091,14.693,-5.262,14.589C-5.434,14.485,-5.54,14.336,-5.58,14.141C-5.58,14.141,-6.184,11.186,-6.184,11.186C-6.572,9.29,-6.495,7.463,-5.951,5.704C-5.408,3.946,-4.271,2.194,-2.543,0.446C-2.543,0.446,0.651,-2.791,0.651,-2.791C1.303,-3.456,1.833,-4.034,2.242,-4.523C2.651,-5.012,2.957,-5.474,3.161,-5.908C3.365,-6.342,3.479,-6.778,3.505,-7.214C3.53,-7.65,3.488,-8.135,3.379,-8.671C3.11,-9.984,2.495,-10.852,1.532,-11.276C0.57,-11.7,-0.897,-11.71,-2.87,-11.307C-3.82,-11.112,-4.868,-10.84,-6.015,-10.492C-7.161,-10.143,-8.231,-9.791,-9.224,-9.435C-9.224,-9.435,-9.37,-9.405,-9.37,-9.405C-9.76,-9.325,-10,-9.505,-10.09,-9.945C-10.09,-9.945,-10.355,-11.24,-10.355,-11.24C-10.395,-11.438,-10.358,-11.599,-10.244,-11.725C-10.131,-11.851,-9.982,-11.959,-9.797,-12.048C-8.922,-12.484,-7.919,-12.882,-6.787,-13.242C-5.655,-13.602,-4.541,-13.895,-3.446,-14.119C-0.474,-14.727,1.825,-14.65,3.452,-13.893C5.078,-13.135,6.123,-11.624,6.587,-9.359Z" /></g><g id="i21" transform="matrix(1,0,0,1,423.745,207.07)"><path fill="#ffffff" fill-rule="evenodd" d="M9.914,5.948C9.794,7.47,9.436,8.767,8.844,9.84C8.251,10.913,7.451,11.774,6.442,12.424C5.434,13.075,4.235,13.542,2.847,13.826C1.459,14.11,0.167,14.152,-1.028,13.953C-2.224,13.754,-3.304,13.277,-4.27,12.523C-5.237,11.769,-6.074,10.717,-6.782,9.364C-7.49,8.012,-8.051,6.326,-8.464,4.304C-8.464,4.304,-9.473,-0.628,-9.473,-0.628C-9.887,-2.649,-10.034,-4.42,-9.914,-5.943C-9.794,-7.464,-9.438,-8.761,-8.845,-9.834C-8.253,-10.907,-7.445,-11.769,-6.424,-12.423C-5.403,-13.075,-4.2,-13.544,-2.812,-13.828C-1.423,-14.112,-0.138,-14.153,1.045,-13.951C2.229,-13.749,3.303,-13.271,4.269,-12.518C5.235,-11.764,6.073,-10.71,6.781,-9.359C7.489,-8.006,8.05,-6.32,8.463,-4.298C8.463,-4.298,9.472,0.634,9.472,0.634C9.886,2.655,10.034,4.427,9.914,5.948ZM5.139,-3.618C4.825,-5.152,4.424,-6.433,3.935,-7.462C3.446,-8.491,2.889,-9.298,2.264,-9.881C1.639,-10.463,0.948,-10.842,0.192,-11.017C-0.565,-11.192,-1.368,-11.193,-2.218,-11.019C-3.068,-10.845,-3.806,-10.529,-4.433,-10.071C-5.06,-9.612,-5.547,-8.993,-5.892,-8.212C-6.239,-7.43,-6.434,-6.47,-6.48,-5.332C-6.525,-4.194,-6.39,-2.858,-6.076,-1.323C-6.076,-1.323,-5.067,3.609,-5.067,3.609C-4.753,5.143,-4.351,6.425,-3.862,7.454C-3.373,8.483,-2.818,9.289,-2.192,9.872C-1.567,10.454,-0.876,10.833,-0.12,11.008C0.637,11.183,1.44,11.183,2.29,11.009C3.139,10.836,3.878,10.52,4.505,10.061C5.132,9.604,5.619,8.984,5.966,8.203C6.311,7.421,6.506,6.462,6.551,5.323C6.596,4.185,6.462,2.848,6.148,1.314C6.148,1.314,5.139,-3.618,5.139,-3.618Z" /></g><g id="i22" transform="matrix(1,0,0,1,445.933,202.95)"><path fill="#ffffff" d="M6.587,-9.359C6.881,-7.922,6.77,-6.599,6.254,-5.39C5.738,-4.18,4.743,-2.827,3.267,-1.333C3.267,-1.333,0.237,1.76,0.237,1.76C-0.65,2.652,-1.361,3.464,-1.898,4.195C-2.436,4.927,-2.831,5.636,-3.085,6.322C-3.339,7.009,-3.48,7.691,-3.506,8.368C-3.533,9.046,-3.464,9.787,-3.299,10.591C-3.299,10.591,-3.142,11.358,-3.142,11.358C-3.142,11.358,9.169,8.839,9.169,8.839C9.363,8.799,9.545,8.818,9.714,8.898C9.883,8.978,9.987,9.115,10.027,9.31C10.027,9.31,10.355,10.917,10.355,10.917C10.395,11.113,10.355,11.287,10.233,11.438C10.112,11.59,9.954,11.685,9.759,11.725C9.759,11.725,-4.716,14.688,-4.716,14.688C-4.909,14.727,-5.091,14.693,-5.262,14.589C-5.434,14.485,-5.54,14.336,-5.579,14.141C-5.579,14.141,-6.184,11.186,-6.184,11.186C-6.572,9.29,-6.495,7.463,-5.951,5.704C-5.408,3.946,-4.271,2.194,-2.542,0.446C-2.542,0.446,0.651,-2.791,0.651,-2.791C1.303,-3.456,1.833,-4.034,2.242,-4.523C2.651,-5.012,2.957,-5.474,3.161,-5.908C3.365,-6.342,3.479,-6.778,3.505,-7.214C3.53,-7.65,3.488,-8.135,3.379,-8.671C3.11,-9.984,2.494,-10.852,1.532,-11.276C0.57,-11.7,-0.897,-11.71,-2.87,-11.307C-3.82,-11.112,-4.868,-10.84,-6.015,-10.492C-7.161,-10.143,-8.231,-9.791,-9.224,-9.435C-9.224,-9.435,-9.37,-9.405,-9.37,-9.405C-9.76,-9.325,-10,-9.505,-10.09,-9.945C-10.09,-9.945,-10.355,-11.24,-10.355,-11.24C-10.395,-11.438,-10.358,-11.599,-10.244,-11.725C-10.131,-11.851,-9.982,-11.959,-9.797,-12.048C-8.922,-12.484,-7.919,-12.882,-6.787,-13.242C-5.655,-13.602,-4.541,-13.895,-3.446,-14.119C-0.474,-14.727,1.825,-14.65,3.452,-13.893C5.078,-13.135,6.124,-11.624,6.587,-9.359Z" /></g><g id="i23" transform="matrix(1,0,0,1,466.375,197.845)"><path fill="#ffffff" d="M6.697,13.046C6.605,13.217,6.462,13.322,6.267,13.361C6.267,13.361,4.258,13.774,4.258,13.774C4.062,13.814,3.89,13.772,3.738,13.65C3.586,13.529,3.491,13.373,3.451,13.178C3.451,13.178,-1.251,-9.801,-1.251,-9.801C-1.251,-9.801,-5.545,-6.791,-5.545,-6.791C-5.701,-6.683,-5.851,-6.615,-5.998,-6.585C-6.217,-6.54,-6.354,-6.651,-6.409,-6.92C-6.409,-6.92,-6.79,-8.783,-6.79,-8.783C-6.815,-8.904,-6.803,-9.001,-6.755,-9.075C-6.706,-9.148,-6.629,-9.233,-6.522,-9.332C-6.522,-9.332,-1.543,-13.09,-1.543,-13.09C-1.281,-13.296,-1.04,-13.423,-0.822,-13.467C-0.822,-13.467,0.676,-13.774,0.676,-13.774C0.871,-13.814,1.049,-13.779,1.211,-13.673C1.372,-13.566,1.473,-13.417,1.513,-13.222C1.513,-13.222,6.775,12.496,6.775,12.496C6.815,12.691,6.789,12.875,6.697,13.046Z" /></g><g id="i24" transform="matrix(1,0,0,1,115.602,315.642)"><path fill="#ffffff" d="M39.474,3.051C39.474,3.051,-35.102,18.311,-35.102,18.311C-35.102,18.311,-39.474,-3.052,-39.474,-3.052C-39.474,-3.052,35.103,-18.311,35.103,-18.311C35.103,-18.311,39.474,3.051,39.474,3.051Z" /></g><g id="i25" transform="matrix(1,0,0,1,407.638,33.447)"><path fill="#ffffff" d="M38.599,-1.221C38.599,-1.221,-35.977,14.039,-35.977,14.039C-35.977,14.039,-38.599,1.221,-38.599,1.221C-38.599,1.221,35.976,-14.039,35.976,-14.039C35.976,-14.039,38.599,-1.221,38.599,-1.221Z" /></g><g id="i26" transform="matrix(1,0,0,1,383.062,62.329)"><path fill="#ffffff" d="M67.86,-7.208C67.86,-7.208,-65.238,20.026,-65.238,20.026C-65.238,20.026,-67.86,7.209,-67.86,7.209C-67.86,7.209,65.237,-20.026,65.237,-20.026C65.237,-20.026,67.86,-7.208,67.86,-7.208Z" /></g><g id="i27" transform="matrix(1,0,0,1,248.002,320.925)"><path fill="#ffffff" d="M165.515,-22.739C165.515,-22.739,-161.144,44.102,-161.144,44.102C-161.144,44.102,-165.515,22.739,-165.515,22.739C-165.515,22.739,161.144,-44.102,161.144,-44.102C161.144,-44.102,165.515,-22.739,165.515,-22.739Z" /></g><g id="i28" transform="matrix(1,0,0,1,454.381,278.696)"><path fill="#ffffff" d="M10.681,-2.185C11.888,3.714,8.084,9.475,2.185,10.682C-3.714,11.889,-9.475,8.085,-10.682,2.185C-11.889,-3.714,-8.084,-9.474,-2.185,-10.681C3.714,-11.888,9.474,-8.084,10.681,-2.185Z" /></g><g id="i29" transform="matrix(1,0,0,1,484.289,272.576)"><path fill="#ffffff" d="M10.681,-2.185C11.888,3.714,8.084,9.475,2.185,10.682C-3.714,11.889,-9.475,8.085,-10.682,2.185C-11.889,-3.714,-8.084,-9.474,-2.185,-10.681C3.714,-11.888,9.474,-8.084,10.681,-2.185Z" /></g><g id="i30" transform="matrix(1,0,0,1,67.807,131.51)"><path fill="#fecc86" d="M31.414,-25.78C31.414,-25.78,39.018,11.38,39.018,11.38C39.404,13.268,38.19,15.119,36.294,15.507C36.294,15.507,-27.278,28.514,-27.278,28.514C-29.174,28.902,-31.027,27.679,-31.413,25.791C-31.413,25.791,-39.017,-11.369,-39.017,-11.369C-39.405,-13.265,-38.18,-15.118,-36.284,-15.506C-36.284,-15.506,27.285,-28.514,27.285,-28.514C29.182,-28.902,31.026,-27.676,31.414,-25.78Z" /></g><g id="i31" transform="matrix(1,0,0,1,48.63,126.886)"><path fill="#efa348" d="M16.8,3.057C16.8,3.057,-16.442,9.859,-16.442,9.859C-16.442,9.859,-16.8,8.11,-16.8,8.11C-16.8,8.11,14.695,1.667,14.695,1.667C14.695,1.667,12.409,-9.5,12.409,-9.5C12.409,-9.5,14.157,-9.859,14.157,-9.859C14.157,-9.859,16.8,3.057,16.8,3.057Z" /></g><g id="i32" transform="matrix(1,0,0,1,87.532,141.078)"><path fill="#efa348" d="M-11.53,11.688C-11.53,11.688,-13.278,12.045,-13.278,12.045C-13.278,12.045,-16.814,-5.237,-16.814,-5.237C-16.814,-5.237,16.457,-12.045,16.457,-12.045C16.457,-12.045,16.814,-10.298,16.814,-10.298C16.814,-10.298,-14.71,-3.847,-14.71,-3.847C-14.71,-3.847,-11.53,11.688,-11.53,11.688Z" /></g><g id="i3" transform="matrix(1,0,0,1,77.24,116.295)"><path fill="#efa348" d="M2.768,9.079C2.768,9.079,1.021,9.437,1.021,9.437C1.021,9.437,-2.768,-9.079,-2.768,-9.079C-2.768,-9.079,-1.021,-9.437,-1.021,-9.437C-1.021,-9.437,2.768,9.079,2.768,9.079Z" /></g><g id="i5" transform="matrix(1,0,0,1,89.052,115.025)"><path fill="#efa348" d="M11.766,-1.497C11.766,-1.497,-11.407,3.245,-11.407,3.245C-11.407,3.245,-11.766,1.497,-11.766,1.497C-11.766,1.497,11.408,-3.245,11.408,-3.245C11.408,-3.245,11.766,-1.497,11.766,-1.497Z" /></g><g id="i6" transform="matrix(1,0,0,1,44.409,145.304)"><path fill="#efa348" d="M10.486,3.689C10.486,3.689,8.738,4.047,8.738,4.047C8.738,4.047,7.513,-1.942,7.513,-1.942C7.513,-1.942,-10.128,1.668,-10.128,1.668C-10.128,1.668,-10.486,-0.08,-10.486,-0.08C-10.486,-0.08,8.903,-4.047,8.903,-4.047C8.903,-4.047,10.486,3.689,10.486,3.689Z" /></g><g id="i7" transform="matrix(1,0,0,1,263.893,194.988)"><path fill="#1d1d1b" fill-rule="evenodd" d="M250.556,102.971C250.556,102.971,-189.973,193.112,-189.973,193.112C-197.918,194.738,-205.703,189.597,-207.328,181.652C-207.328,181.652,-262.016,-85.616,-262.016,-85.616C-263.642,-93.56,-258.502,-101.346,-250.557,-102.972C-250.557,-102.972,189.972,-193.113,189.972,-193.113C197.917,-194.738,205.704,-189.597,207.329,-181.653C207.329,-181.653,262.017,85.615,262.017,85.615C263.643,93.56,258.501,101.345,250.556,102.971ZM-250.021,-100.35C-256.52,-99.02,-260.725,-92.651,-259.396,-86.152C-259.396,-86.152,-204.706,181.116,-204.706,181.116C-203.377,187.615,-197.009,191.82,-190.51,190.49C-190.51,190.49,250.02,100.349,250.02,100.349C256.519,99.019,260.724,92.65,259.394,86.151C259.394,86.151,204.706,-181.116,204.706,-181.116C203.377,-187.615,197.008,-191.821,190.508,-190.491C190.508,-190.491,-250.021,-100.35,-250.021,-100.35Z" /></g></g></g></g></g><g id="i37"><g transform="translate(1909.074,1553.105)"><animateTransform repeatCount="indefinite" type="translate" attributeName="transform" dur="2.836s" begin="0s" calcMode="spline" values="1909.074 1553.105; 1909.074 1553.105; 1909.074 1489.105; 1909.074 1489.105" keyTimes="0; 0.37647; 0.564706; 1" keySplines="0 0 1 1; 0.333 0 0.667 1; 0 0 1 1" fill="freeze" /><g transform="scale(0.8,0.8)"><animateTransform repeatCount="indefinite" type="scale" attributeName="transform" dur="2.836s" begin="0s" calcMode="spline" values="0.8 0.8; 0.8 0.8; 1 1; 1 1" keyTimes="0; 0.37647; 0.564706; 1" keySplines="0 0 1 1; 0.333 0 0.667 1; 0 0 1 1" fill="freeze" /><g transform="translate(-463.355,-818.267)"><g id="i10" transform="matrix(1,0,0,1,59.049,196.573)"><path fill="#fe9f73" d="M27.892,-47.908C27.892,-47.908,-33.079,-51.472,-45.939,-26.433C-58.799,-1.393,-6.108,51.471,26.345,50.369C58.799,49.267,27.892,-47.908,27.892,-47.908Z" /></g><g id="i11" transform="matrix(1,0,0,1,380.594,784.965)"><path fill="#ed7163" d="M19.699,141.827C19.699,141.827,-142.025,96.983,-187.945,0.13C-233.866,-96.723,-61.485,-141.826,-63.911,-141.368C-66.337,-140.91,122.344,-126.281,139.97,-99.459C157.595,-72.637,233.865,38.586,212.032,42.708C190.198,46.829,19.699,141.827,19.699,141.827Z" /></g><g id="i12" transform="matrix(1,0,0,1,290.245,382.724)"><path fill="#d0f6fc" d="M-189.242,-346.44C-189.239,-346.667,-189.233,-346.894,-189.22,-347.119C-188.892,-354.75,-182.895,-360.937,-175.279,-361.513C-175.054,-361.533,-174.829,-361.549,-174.601,-361.56C-174.526,-361.562,-174.453,-361.573,-174.377,-361.574C-174.377,-361.574,162.373,-367.054,162.373,-367.054C162.449,-367.056,162.522,-367.046,162.597,-367.046C162.825,-367.043,163.053,-367.035,163.278,-367.023C170.909,-366.695,177.103,-360.707,177.679,-353.09C177.699,-352.866,177.714,-352.639,177.724,-352.411C177.727,-352.336,177.737,-352.263,177.739,-352.187C177.739,-352.187,189.133,347.997,189.133,347.997C189.252,355.28,183.442,361.275,176.165,361.393C176.165,361.393,-164.46,366.937,-164.46,366.937C-171.737,367.056,-177.737,361.252,-177.856,353.969C-177.856,353.969,-189.251,-346.216,-189.251,-346.216C-189.252,-346.292,-189.242,-346.364,-189.242,-346.44Z" /></g><g id="i13" transform="matrix(1,0,0,1,283.312,38.722)"><path fill="#0d93b2" d="M190.413,-12.612C190.413,-12.612,162.564,-31.023,162.564,-31.023C162.564,-31.023,-165.539,-24.837,-165.539,-24.837C-165.539,-24.837,-193.907,0.945,-193.907,0.945C-193.907,0.945,-190.651,30.19,-188.84,30.606C-187.028,31.023,193.907,29.252,193.797,23.393C193.686,17.534,190.413,-12.612,190.413,-12.612Z" /></g><g id="i14" transform="matrix(1,0,0,1,443.832,42.162)"><path fill="#ffffff" d="M-5.044,0.075C-5.011,2.132,-3.757,3.882,-1.981,4.644C-1.347,4.921,-0.638,5.07,0.104,5.058C0.839,5.046,1.536,4.874,2.168,4.577C3.918,3.764,5.121,1.967,5.087,-0.09C5.041,-2.888,2.731,-5.118,-0.061,-5.073C-2.859,-5.027,-5.09,-2.724,-5.044,0.075Z" /></g><g id="i15" transform="matrix(1,0,0,1,428.176,42.393)"><path fill="#ffffff" d="M-5.06,0.099C-5.026,2.156,-3.773,3.906,-1.997,4.668C-1.363,4.945,-0.654,5.095,0.088,5.083C0.83,5.071,1.534,4.898,2.159,4.601C3.909,3.781,5.105,1.991,5.071,-0.066C5.026,-2.865,2.722,-5.094,-0.077,-5.048C-2.876,-5.002,-5.105,-2.7,-5.06,0.099Z" /></g><g id="i16" transform="matrix(1,0,0,1,412.525,42.643)"><path fill="#ffffff" d="M-5.081,0.104C-5.048,2.161,-3.794,3.911,-2.018,4.673C-1.384,4.95,-0.676,5.099,0.066,5.087C0.808,5.075,1.513,4.903,2.138,4.606C3.888,3.786,5.083,1.996,5.049,-0.061C5.004,-2.86,2.701,-5.089,-0.098,-5.044C-2.897,-4.998,-5.127,-2.695,-5.081,0.104Z" /></g><g id="i17" transform="matrix(1,0,0,1,290.241,386.974)"><path fill="#20111d" fill-rule="evenodd" d="M-189.121,-342.783C-189.326,-355.377,-179.284,-365.744,-166.698,-365.949C-166.698,-365.949,154.702,-371.179,154.702,-371.179C167.289,-371.384,177.663,-361.349,177.868,-348.755C177.868,-348.755,189.019,336.499,189.019,336.499C189.202,347.785,180.2,357.078,168.914,357.262C168.914,357.262,-157.208,362.569,-157.208,362.569C-168.487,362.752,-177.787,353.757,-177.971,342.471C-177.971,342.471,-189.121,-342.783,-189.121,-342.783ZM-204.611,-342.916C-204.611,-342.916,-193.345,349.391,-193.345,349.391C-193.007,370.164,-175.9,386.724,-155.127,386.386C-155.127,386.386,167.616,381.134,167.616,381.134C188.382,380.796,204.949,363.688,204.61,342.915C204.61,342.915,193.345,-349.392,193.345,-349.392C193.007,-370.164,175.892,-386.724,155.126,-386.386C155.126,-386.386,-167.617,-381.134,-167.617,-381.134C-188.39,-380.796,-204.949,-363.689,-204.611,-342.916Z" /></g><g id="i18" transform="matrix(1,0,0,1,496.64,735.251)"><path fill="#fe9f73" d="M133.82,306.249C56.81,371.511,-34.776,416.06,-133.82,445.034C-133.82,445.034,-133.659,312.101,-133.659,312.101C-133.659,312.101,-133.607,266.383,-133.607,266.383C-133.607,266.383,-129.887,180.238,-129.887,180.238C-129.887,180.238,-129.887,180.229,-129.887,180.229C-129.887,180.229,-129.94,179.971,-129.94,179.971C-129.94,179.971,-130.101,179.07,-130.101,179.07C-130.101,179.07,-129.173,178.597,-129.173,178.597C-129.173,178.597,-127.138,177.571,-127.138,177.571C-127.138,177.571,-40.94,134.226,-40.94,134.226C-40.94,134.226,-40.923,134.226,-40.923,134.226C-40.923,134.226,15.597,105.806,15.597,105.806C15.597,105.806,17.89,104.655,17.89,104.655C17.89,104.655,-21.038,99.74,-46.39,59.473C-46.417,59.437,-46.435,59.393,-46.462,59.357C-46.479,59.33,-46.489,59.303,-46.507,59.277C-51.19,51.846,-55.392,43.211,-58.809,33.184C-61.253,26.003,-63.296,18.109,-64.794,9.438C-64.794,9.438,-64.803,9.428,-64.803,9.428C-66.123,1.917,-67.032,-6.173,-67.478,-14.897C-68.156,-28.305,-68.113,-41.016,-67.506,-53.005C-67.069,-61.542,-66.345,-69.704,-65.4,-77.501C-65.4,-77.501,-65.4,-77.51,-65.4,-77.51C-64.267,-86.894,-62.804,-95.725,-61.118,-103.995C-56.471,-126.849,-50.147,-145.377,-44.393,-159.141C-36.552,-177.919,-29.78,-187.838,-29.78,-187.838C-29.78,-187.838,-37.97,-217.142,-46.284,-253.769C-46.971,-256.758,-47.648,-259.791,-48.317,-262.859C-57.371,-304.01,-65.793,-351.761,-63.073,-377.523C-60.191,-405.007,-42.707,-431.627,-24.367,-441.065C-19.193,-443.741,-13.939,-445.033,-8.934,-444.596C-2.173,-443.999,4.152,-440.243,9.264,-432.393C10.022,-431.233,10.753,-429.976,11.458,-428.638C12.368,-426.88,13.242,-424.971,14.045,-422.902C14.054,-422.893,14.055,-422.884,14.064,-422.866C14.858,-420.85,15.589,-418.691,16.267,-416.372C16.267,-416.372,17.525,-406.006,20.085,-391.252C20.21,-390.547,20.335,-389.834,20.46,-389.102C20.585,-388.424,20.7,-387.746,20.816,-387.077C22.885,-375.739,25.632,-362.349,29.129,-349.236C29.129,-349.236,29.129,-349.228,29.129,-349.228C29.129,-349.21,29.138,-349.201,29.138,-349.192C29.138,-349.183,29.139,-349.183,29.148,-349.174C29.416,-348.13,29.71,-347.078,29.996,-346.043C33.858,-332.047,38.577,-318.603,44.152,-308.586C63.153,-274.474,107.692,-184.904,117.915,-144.11C128.129,-103.335,121.822,76.234,121.822,76.234C121.822,76.234,121.822,76.243,121.822,76.243C121.822,76.243,133.82,306.249,133.82,306.249Z" /></g><g id="i19" transform="matrix(1,0,0,1,79.657,566.787)"><path fill="#fe9f73" d="M11.901,-79.83C11.901,-79.83,12.396,-54.212,12.396,-54.212C12.396,-54.212,53.978,-25.256,50.786,21.803C47.593,68.862,18.355,79.83,18.355,79.83C18.355,79.83,-40.497,25.195,-43.789,3.083C-47.081,-19.03,-53.978,-57.618,11.901,-79.83Z" /></g><g id="i20" transform="matrix(1,0,0,1,77.077,606.333)"><path fill="#f78a5e" d="M13.382,33.059C13.382,33.059,-9.081,17.335,-34.363,-21.342C-31.771,-23.692,-26.626,-26.256,-23.336,-27.927C-13.238,-33.059,-6.041,-32.111,1.114,-25.676C1.114,-25.676,28.693,2.15,28.693,2.15C28.693,2.15,34.363,9.506,26.909,20.58C24.044,24.837,13.382,33.059,13.382,33.059Z" /></g><g id="i21" transform="matrix(1,0,0,1,84.425,577.132)"><path fill="#000000" d="M13.268,71.299C13.268,71.299,-22.16,36.752,-22.16,36.752C-41.44,17.549,-48.384,-1.201,-50.816,-13.551C-53.468,-27.021,-51.535,-35.85,-51.452,-36.219C-51.452,-36.219,-48.484,-35.547,-48.484,-35.547C-48.56,-35.208,-55.71,-0.958,-20.025,34.585C-20.025,34.585,13.894,67.661,13.894,67.661C26.788,61.399,33.484,49.041,33.552,48.914C33.767,48.539,52.382,15.689,41.944,-15.352C31.453,-46.553,-1.424,-68.54,-1.755,-68.758C-1.755,-68.758,-0.08,-71.298,-0.08,-71.298C1.306,-70.383,33.998,-48.532,44.828,-16.32C55.711,16.044,37.013,49.002,36.212,50.389C35.937,50.909,28.691,64.33,14.214,70.871C14.214,70.871,13.268,71.299,13.268,71.299Z" /></g><g id="i22" transform="matrix(1,0,0,1,85.968,723.794)"><path fill="#fe9f73" d="M9.299,-62.38C9.299,-62.38,9.686,-42.362,9.686,-42.362C9.686,-42.362,42.179,-19.735,39.685,17.037C37.19,53.809,14.343,62.38,14.343,62.38C14.343,62.38,-31.645,19.688,-34.218,2.409C-36.79,-14.87,-42.179,-45.023,9.299,-62.38Z" /></g><g id="i23" transform="matrix(1,0,0,1,83.953,754.696)"><path fill="#f78a5e" d="M10.457,25.833C10.457,25.833,-7.095,13.546,-26.852,-16.677C-24.826,-18.513,-20.806,-20.516,-18.235,-21.822C-10.344,-25.832,-4.721,-25.091,0.871,-20.064C0.871,-20.064,22.421,1.68,22.421,1.68C22.421,1.68,26.852,7.428,21.027,16.082C18.788,19.408,10.457,25.833,10.457,25.833Z" /></g><g id="i24" transform="matrix(1,0,0,1,88.363,731.878)"><path fill="#000000" d="M11.698,55.714C11.698,55.714,-15.985,28.719,-15.985,28.719C-44.863,-0.044,-39.133,-27.162,-38.875,-28.302C-38.875,-28.302,-36.556,-27.778,-36.556,-27.778C-36.615,-27.512,-42.202,-0.75,-14.318,27.024C-14.318,27.024,12.188,52.872,12.188,52.872C22.289,47.967,27.495,38.321,27.548,38.222C27.716,37.928,42.261,12.26,34.106,-11.995C25.908,-36.376,0.218,-53.558,-0.041,-53.729C-0.041,-53.729,1.27,-55.714,1.27,-55.714C2.353,-55,27.897,-37.923,36.36,-12.753C44.863,12.536,30.254,38.29,29.627,39.373C29.412,39.78,23.751,50.267,12.438,55.38C12.438,55.38,11.698,55.714,11.698,55.714Z" /></g><g id="i25" transform="matrix(1,0,0,1,507.74,825.533)"><path fill="#fe9f73" d="M-59.535,-34.355C-59.535,-34.355,-24.632,22.499,-52.022,43.943C-79.411,65.387,25.433,54.884,24.869,51.894C24.304,48.904,79.411,-52.844,60.625,-53.942C41.839,-55.041,-18.172,-65.387,-28.34,-49.533C-38.507,-33.68,-59.535,-34.355,-59.535,-34.355Z" /></g><g id="i26" transform="matrix(1,0,0,1,76.527,415.149)"><path fill="#fe9f73" d="M11.901,-79.83C11.901,-79.83,12.396,-54.212,12.396,-54.212C12.396,-54.212,53.978,-25.256,50.786,21.803C47.594,68.862,18.355,79.83,18.355,79.83C18.355,79.83,-40.497,25.195,-43.789,3.083C-47.081,-19.03,-53.978,-57.618,11.901,-79.83Z" /></g><g id="i27" transform="matrix(1,0,0,1,73.948,454.696)"><path fill="#f78a5e" d="M13.382,33.059C13.382,33.059,-9.081,17.335,-34.363,-21.342C-31.772,-23.692,-26.626,-26.256,-23.336,-27.927C-13.238,-33.059,-6.041,-32.111,1.114,-25.676C1.114,-25.676,28.693,2.15,28.693,2.15C28.693,2.15,34.363,9.506,26.909,20.58C24.044,24.837,13.382,33.059,13.382,33.059Z" /></g><g id="i28" transform="matrix(1,0,0,1,364.759,980.837)"><path fill="#000000" d="M-0.257,66.557C-0.257,66.557,-3.299,66.475,-3.299,66.475C-3.299,66.475,0.257,-66.557,0.257,-66.557C0.257,-66.557,3.299,-66.477,3.299,-66.477C3.299,-66.477,-0.257,66.557,-0.257,66.557Z" /></g><g id="i29" transform="matrix(1,0,0,1,287.074,857.873)"><path fill="#000000" d="M88.139,59.54C32.633,46.316,-23.08,11.49,-51.355,-15.271C-76.393,-38.968,-88.724,-57.69,-88.845,-57.877C-88.845,-57.877,-86.298,-59.54,-86.298,-59.54C-86.178,-59.356,-74.018,-40.91,-49.264,-17.481C-21.274,9.01,33.884,43.486,88.845,56.58C88.845,56.58,88.139,59.54,88.139,59.54Z" /></g><g id="i30" transform="matrix(1,0,0,1,501.528,347.237)"><path fill="#f78a5e" d="M-23.592,-30.348C-22.16,-39.33,-0.82,-44.413,5.72,-44.446C9.941,-44.467,20.25,35.766,24.24,38.781C24.24,38.781,25.024,39.664,14.633,41.949C3.183,44.467,-5.713,41.077,-5.713,41.077C-5.713,41.077,-25.024,-21.366,-23.592,-30.348Z" /></g><g id="i31" transform="matrix(1,0,0,1,81.295,425.49)"><path fill="#000000" d="M13.26,71.294C13.26,71.294,-22.161,36.756,-22.161,36.756C-41.44,17.553,-48.384,-1.197,-50.816,-13.547C-53.469,-27.016,-51.536,-35.847,-51.452,-36.216C-51.452,-36.216,-48.485,-35.544,-48.485,-35.544C-48.56,-35.204,-55.71,-0.955,-20.025,34.589C-20.025,34.589,13.901,67.67,13.901,67.67C25.544,62.06,33.51,48.982,33.591,48.847C33.766,48.542,52.381,15.694,41.944,-15.346C31.453,-46.548,-1.424,-68.537,-1.755,-68.755C-1.755,-68.755,-0.079,-71.294,-0.079,-71.294C1.307,-70.379,33.998,-48.528,44.828,-16.317C55.71,16.047,37.014,49.006,36.212,50.393C35.84,51.014,27.244,65.146,14.199,70.881C14.199,70.881,13.26,71.294,13.26,71.294Z" /></g><g id="i32" transform="matrix(1,0,0,1,87.726,220.474)"><path fill="#000000" d="M0.727,140.495C0.727,140.495,-2.718,-140.434,-2.718,-140.434C-2.718,-140.434,-0.727,-140.495,-0.727,-140.495C-0.727,-140.495,2.718,140.435,2.718,140.435C2.718,140.435,0.727,140.495,0.727,140.495Z" /></g><g id="i3" transform="matrix(1,0,0,1,42.579,180.585)"><path fill="#000000" d="M-14.411,35.583C-15.555,34.47,-42.295,8.092,-29.156,-13.874C-16.169,-35.584,39.913,-33.622,42.295,-33.528C42.295,-33.528,42.175,-30.488,42.175,-30.488C41.612,-30.507,-14.481,-32.479,-26.544,-12.312C-38.448,7.588,-12.553,33.145,-12.29,33.401C-12.29,33.401,-14.411,35.583,-14.411,35.583Z" /></g><g id="i5" transform="matrix(1,0,0,1,568.934,777.185)"><path fill="#000100" d="M-14.744,21.908C-14.248,22.141,-13.645,22.114,-13.159,21.785C3.203,10.69,15.057,-18.487,15.554,-19.724C15.884,-20.547,15.483,-21.474,14.663,-21.811C13.841,-22.141,12.908,-21.743,12.578,-20.92C12.459,-20.626,0.589,8.586,-14.959,19.129C-15.692,19.627,-15.884,20.624,-15.386,21.357C-15.219,21.604,-14.995,21.79,-14.744,21.908Z" /></g><g id="i6" transform="matrix(1,0,0,1,550.859,781.34)"><path fill="#000100" d="M-18.817,18.409C-18.429,18.592,-17.97,18.62,-17.541,18.449C0.83,11.144,18.7,-14.788,19.452,-15.888C19.952,-16.62,19.764,-17.618,19.032,-18.117C18.3,-18.621,17.302,-18.43,16.802,-17.698C16.624,-17.437,-1.27,8.526,-18.726,15.467C-19.55,15.795,-19.952,16.728,-19.624,17.55C-19.468,17.945,-19.172,18.242,-18.817,18.409Z" /></g><g id="i7" transform="matrix(1,0,0,1,525.457,564.677)"><path fill="#000000" d="M-11.114,276.737C-11.945,276.632,-31.716,273.981,-52.453,257.705C-64.616,248.16,-74.542,235.888,-81.957,221.231C-91.194,202.969,-96.53,180.939,-97.816,155.752C-100.72,98.948,-90.267,54.737,-80.987,27.651C-71.993,1.399,-62.303,-14.336,-60.251,-17.522C-63.489,-29.186,-98.64,-157.418,-93.407,-207.113C-91.777,-222.609,-85.603,-238.425,-76.021,-251.646C-66.664,-264.558,-55.207,-273.126,-44.588,-275.152C-36.286,-276.737,-24.592,-275.179,-16.01,-258.771C-14.116,-255.143,-12.46,-250.922,-11.089,-246.225C-11.089,-246.225,-11.039,-245.981,-11.039,-245.981C-10.995,-245.615,-6.511,-208.972,2.643,-175.874C6.987,-160.143,11.706,-147.652,16.668,-138.745C34.112,-107.424,80.151,-15.511,90.57,26.089C100.72,66.61,94.788,239.526,94.53,246.866C94.53,246.866,91.489,246.76,91.489,246.76C91.552,244.966,97.664,66.934,87.619,26.828C77.269,-14.494,31.396,-106.047,14.01,-137.264C8.93,-146.383,4.119,-159.1,-0.29,-175.064C-9.235,-207.404,-13.746,-243.078,-14.045,-245.49C-15.353,-249.948,-16.921,-253.942,-18.707,-257.362C-24.814,-269.039,-33.566,-274.156,-44.017,-272.163C-65.107,-268.139,-87.206,-236.982,-90.381,-206.795C-95.689,-156.392,-57.521,-19.057,-57.135,-17.675C-57.135,-17.675,-56.945,-16.994,-56.945,-16.994C-56.945,-16.994,-57.343,-16.408,-57.343,-16.408C-57.451,-16.251,-68.211,-0.294,-78.152,28.763C-87.324,55.574,-97.653,99.341,-94.777,155.596C-91.919,211.583,-69.162,240.724,-50.575,255.312C-30.494,271.073,-10.928,273.694,-10.733,273.719C-10.733,273.719,-11.114,276.737,-11.114,276.737Z" /></g></g></g></g></g><g id="i38"><g transform="translate(1829.681,1205.37)"><g transform="scale(0,0)"><animateTransform repeatCount="indefinite" type="scale" attributeName="transform" dur="2.836s" begin="0s" calcMode="spline" values="0 0; 0 0; 1 1; 1 1" keyTimes="0; 0.741176; 0.776471; 1" keySplines="0 0 1 1; 0.333 0 0.667 1; 0 0 1 1" fill="freeze" /><g transform="translate(-227.004,-285.951)"><g id="i6" transform="matrix(1,0,0,1,131.004,131.005)"><path fill="#ffffff" d="M130.755,0C130.755,72.214,72.215,130.755,0,130.755C-72.213,130.755,-130.755,72.214,-130.755,0C-130.755,-72.214,-72.213,-130.755,0,-130.755C72.215,-130.755,130.755,-72.214,130.755,0Z" /></g><g id="i7" transform="matrix(1,0,0,1,202.556,249.343)"><path fill="#ffffff" d="M-26.959,-10.966C-26.959,-10.966,26.959,42.31,26.959,42.31C26.959,42.31,3.343,-42.31,3.343,-42.31C3.343,-42.31,-26.959,-10.966,-26.959,-10.966Z" /></g></g></g></g></g><g transform="matrix(1,0,0,1,1639.618,955.374)" id="i39"><g id="i7" transform="matrix(1,0,0,1,99.807,87.469)"><path stroke-miterlimit="10" stroke-width="14" stroke="#6ac9d3" d="M-64.807,-6.362"><set fill="freeze" dur="0.033s" begin="2.2689355098532995s" to="M-64.807,-6.362" attributeName="d" /><set fill="freeze" dur="0.033s" begin="2.302302208527613s" to="M-64.807,-6.362C-64.807,-6.362,-55.066,5.875,-44.469,19.187" attributeName="d" /><set fill="freeze" dur="0.033s" begin="2.335668907201926s" to="M-64.807,-6.362C-64.807,-6.362,-17.975,52.469,-17.975,52.469C-17.975,52.469,-10.418,42.889,0.13,29.519" attributeName="d" /><set fill="freeze" dur="0.033s" begin="2.369035605876239s" to="M-64.807,-6.362C-64.807,-6.362,-17.975,52.469,-17.975,52.469C-17.975,52.469,20.075,4.235,44.582,-26.831" attributeName="d" /><set fill="freeze" dur="0.033s" begin="2.4024023045505527s" to="M-64.807,-6.362C-64.807,-6.362,-17.975,52.469,-17.975,52.469C-17.975,52.469,64.807,-52.469,64.807,-52.469" attributeName="d" /></path></g></g><g id="i40"><g transform="translate(1624.386,1289.235)"><g transform="scale(0,0)"><animateTransform repeatCount="indefinite" type="scale" attributeName="transform" dur="2.836s" begin="0s" calcMode="spline" values="0 0; 0 0; 1 1; 1 1" keyTimes="0; 0.847059; 0.905882; 1" keySplines="0 0 1 1; 0.333 0 0.667 1; 0 0 1 1" fill="freeze" /><g transform="translate(1.947,-7.806)"><g id="i7" transform="matrix(1,0,0,1,112.053,5.806)"><path fill="#ffffff" d="M111.803,5.556C111.803,5.556,-111.803,5.556,-111.803,5.556C-111.803,5.556,-111.803,-5.556,-111.803,-5.556C-111.803,-5.556,111.803,-5.556,111.803,-5.556C111.803,-5.556,111.803,5.556,111.803,5.556Z" /></g></g></g></g></g><g id="i41"><g transform="translate(1622.386,1337.225)"><g transform="scale(0,0)"><animateTransform repeatCount="indefinite" type="scale" attributeName="transform" dur="2.836s" begin="0s" calcMode="spline" values="0 0; 0 0; 1 1; 1 1" keyTimes="0; 0.894118; 0.964706; 1" keySplines="0 0 1 1; 0.333 0 0.667 1; 0 0 1 1" fill="freeze" /><g transform="translate(3.947,-9.806)"><g id="i7" transform="matrix(1,0,0,1,112.053,5.806)"><path fill="#ffffff" d="M111.803,5.556C111.803,5.556,-111.803,5.556,-111.803,5.556C-111.803,5.556,-111.803,-5.556,-111.803,-5.556C-111.803,-5.556,111.803,-5.556,111.803,-5.556C111.803,-5.556,111.803,5.556,111.803,5.556Z" /></g></g></g></g></g></svg>