<svg fill="none" height="100%" width="100%" viewBox="0 0 500 500" xmlns:xlink="http://www.w3.org/1999/xlink" xmlns="http://www.w3.org/2000/svg"><g transform="matrix(1,0,0,1,0,-12)" id="i0"><g id="i1" transform="matrix(1,0,0,1,237.761,273.844)"><path stroke-linejoin="round" stroke-linecap="round" stroke-width="4" stroke="#1c1c1c" fill="#9ceaff" d="M93.303,-108.301C93.303,-108.301,-93.303,-108.301,-93.303,-108.301C-109.871,-108.301,-123.303,-94.869,-123.303,-78.301C-123.303,-78.301,-123.303,108.301,-123.303,108.301C-123.303,108.301,123.303,108.301,123.303,108.301C123.303,108.301,123.303,-78.301,123.303,-78.301C123.303,-94.869,109.871,-108.301,93.303,-108.301Z"><animate repeatCount="indefinite" attributeName="fill" dur="8.74s" begin="0s" fill="freeze" values="#9ceaff; #9ceaff; #323637; #323637; #9ceaff; #9ceaff" keyTimes="0; 0.324943; 0.455378; 0.851258; 0.970252; 1" keySplines="0.333 0 0.667 1; 0.333 0 0.667 1; 0.333 0 0.667 1; 0.333 0 0.667 1; 0 0 1 1" calcMode="spline" /></path></g></g><g id="i2"><g transform="translate(250.361,270.914)"><animateTransform repeatCount="indefinite" type="translate" attributeName="transform" dur="8.74s" begin="0s" calcMode="spline" values="250.361 270.914; 250.361 270.914; 250.361 185.914; 250.361 204.352; 250.361 204.352; 250.361 204.352; 250.361 269.352; 250.361 269.352" keyTimes="0; 0.359268; 0.448513; 0.503433; 0.805438; 0.805492; 0.90389; 1" keySplines="0 0 1 1; 0.756 0 0.667 1; 0.333 0 0.236 0.878; 0 0 1 1; 0 0 1 1; 0.82 0.065 0.667 0.974; 0 0 1 1" fill="freeze" /><g transform="scale(1,1) translate(-307.361,-202.414)"><g id="i3" transform="matrix(1,0,0,1,307.361,202.414)"><path stroke-linejoin="round" stroke-linecap="round" stroke-width="4" stroke="#1c1c1c" fill="#fbb040" d="M13.196,11.203C3.765,11.203,-3.88,3.557,-3.88,-5.874C-3.88,-10.139,-2.313,-14.036,0.273,-17.029C-8.31,-16.128,-15,-8.869,-15,-0.047C-15,9.384,-7.355,17.029,2.077,17.029C7.243,17.029,11.869,14.732,15,11.108C14.407,11.17,13.805,11.203,13.196,11.203Z" /></g></g></g></g><g id="i4"><g transform="translate(243.967,200.499)"><animateTransform repeatCount="indefinite" type="translate" attributeName="transform" dur="8.74s" begin="0s" calcMode="spline" values="243.967 200.499; 243.967 200.499; 243.967 275.499; 243.967 275.499; 243.967 190.499; 243.967 200.499; 243.967 200.499" keyTimes="0; 0.286041; 0.379863; 0.871853; 0.933638; 0.977117; 1" keySplines="0 0 1 1; 0.333 0 0.667 1; 0 0 1 1; 0.629 0 0.667 1; 0.333 0 0.383 1; 0 0 1 1" fill="freeze" /><g transform="rotate(0)"><animateTransform repeatCount="indefinite" type="rotate" attributeName="transform" dur="8.74s" begin="0s" calcMode="spline" values="0; 360; 360" keyTimes="0; 0.995423; 1" keySplines="0 0 1 1; 0 0 1 1" fill="freeze" /><g transform="scale(1,1) translate(-243.967,-212.499)"><g id="i5" transform="matrix(1,0,0,1,0,0)"><g id="i6" transform="matrix(1,0,0,1,243.967,212.499)"><path stroke-linejoin="round" stroke-linecap="round" stroke-width="4" stroke="#1c1c1c" fill="#fbb040" d="M15.311,0C15.311,8.456,8.456,15.311,-0.001,15.311C-8.457,15.311,-15.312,8.456,-15.312,0C-15.312,-8.456,-8.457,-15.311,-0.001,-15.311C8.456,-15.311,15.311,-8.456,15.311,0Z" /></g></g><g id="i7" transform="matrix(1,0,0,1,0,0)"><g id="i8"><path stroke-linejoin="round" stroke-linecap="round" stroke-width="4" stroke="#1c1c1c" d="M243.967,189.71C243.967,189.71,243.967,184.322,243.967,184.322" /></g></g><g id="i9" transform="matrix(1,0,0,1,0,0)"><g id="i10" transform="matrix(1,0,0,1,225.579,196.148)"><path stroke-linejoin="round" stroke-linecap="round" stroke-width="4" stroke="#1c1c1c" d="M2.064,1.731C2.064,1.731,-2.064,-1.731,-2.064,-1.731" /></g></g><g id="i11" transform="matrix(1,0,0,1,0,0)"><g id="i12" transform="matrix(1,0,0,1,220.755,216.105)"><path stroke-linejoin="round" stroke-linecap="round" stroke-width="4" stroke="#1c1c1c" d="M2.653,-0.468C2.653,-0.468,-2.653,0.468,-2.653,0.468" /></g></g><g id="i13" transform="matrix(1,0,0,1,0,0)"><g id="i14" transform="matrix(1,0,0,1,232.942,232.627)"><path stroke-linejoin="round" stroke-linecap="round" stroke-width="4" stroke="#1c1c1c" d="M1.347,-2.333C1.347,-2.333,-1.347,2.333,-1.347,2.333" /></g></g><g id="i15" transform="matrix(1,0,0,1,0,0)"><g id="i16" transform="matrix(1,0,0,1,253.433,233.912)"><path stroke-linejoin="round" stroke-linecap="round" stroke-width="4" stroke="#1c1c1c" d="M-0.921,-2.532C-0.921,-2.532,0.921,2.532,0.921,2.532" /></g></g><g id="i17" transform="matrix(1,0,0,1,0,0)"><g id="i18" transform="matrix(1,0,0,1,267.588,219.042)"><path stroke-linejoin="round" stroke-linecap="round" stroke-width="4" stroke="#1c1c1c" d="M-2.531,-0.922C-2.531,-0.922,2.531,0.922,2.531,0.922" /></g></g><g id="i19" transform="matrix(1,0,0,1,0,0)"><g id="i20" transform="matrix(1,0,0,1,265.296,198.639)"><path stroke-linejoin="round" stroke-linecap="round" stroke-width="4" stroke="#1c1c1c" d="M-2.333,1.347C-2.333,1.347,2.333,-1.347,2.333,-1.347" /></g></g></g></g></g></g><g transform="matrix(1,0,0,1,0,-12)" id="i21"><g id="i22" transform="matrix(1,0,0,1,242.361,290.243)"><path stroke-linejoin="round" stroke-linecap="round" stroke-width="4" stroke="#1c1c1c" fill="#726658" d="M-25.314,-30.311C-25.314,-30.311,-75.936,30.311,-75.936,30.311C-75.936,30.311,-5.314,30.311,-5.314,30.311C-5.314,30.311,75.936,30.311,75.936,30.311C75.936,30.311,75.936,-30.311,75.936,-30.311C75.936,-30.311,-25.314,-30.311,-25.314,-30.311Z"><animate repeatCount="indefinite" attributeName="fill" dur="8.74s" begin="0s" fill="freeze" values="#726658; #726658; #45403a; #45403a; #726658; #726658" keyTimes="0; 0.324943; 0.455378; 0.851258; 0.970252; 1" keySplines="0.333 0 0.667 1; 0.333 0 0.667 1; 0.333 0 0.667 1; 0.333 0 0.667 1; 0 0 1 1" calcMode="spline" /></path></g></g><g transform="matrix(1,0,0,1,0,-12)" id="i23"><g id="i24" transform="matrix(1,0,0,1,217.05,351.349)"><path stroke-linejoin="round" stroke-linecap="round" stroke-width="4" stroke="#1c1c1c" fill="#9b8579" d="M50.625,30.796C50.625,30.796,-50.625,30.796,-50.625,30.796C-50.625,30.796,-50.625,-30.795,-50.625,-30.795C-50.625,-30.795,50.625,-30.795,50.625,-30.795C50.625,-30.795,50.625,30.796,50.625,30.796Z"><animate repeatCount="indefinite" attributeName="fill" dur="8.74s" begin="0s" fill="freeze" values="#9b8579; #9b8579; #564941; #564941; #9b8579; #9b8579" keyTimes="0; 0.324943; 0.455378; 0.851258; 0.970252; 1" keySplines="0.333 0 0.667 1; 0.333 0 0.667 1; 0.333 0 0.667 1; 0.333 0 0.667 1; 0 0 1 1" calcMode="spline" /></path></g></g><g transform="matrix(1,0,0,1,0,-12)" id="i25"><g id="i26" transform="matrix(1,0,0,1,318.297,321.038)"><path stroke-linejoin="round" stroke-linecap="round" stroke-width="4" stroke="#1c1c1c" fill="#c2b59b" d="M0,-61.107C0,-61.107,-50.622,-0.484,-50.622,-0.484C-50.622,-0.484,-50.622,61.107,-50.622,61.107C-50.622,61.107,50.622,61.107,50.622,61.107C50.622,61.107,50.622,-0.484,50.622,-0.484C50.622,-0.484,0,-61.107,0,-61.107Z"><animate repeatCount="indefinite" attributeName="fill" dur="8.74s" begin="0s" fill="freeze" values="#c2b59b; #c2b59b; #706651; #706651; #c2b59b; #c2b59b" keyTimes="0; 0.324943; 0.455378; 0.851258; 0.970252; 1" keySplines="0.333 0 0.667 1; 0.333 0 0.667 1; 0.333 0 0.667 1; 0.333 0 0.667 1; 0 0 1 1" calcMode="spline" /></path></g></g><g transform="matrix(1,0,0,1,0,-12)" id="i27"><g id="i28" transform="matrix(1,0,0,1,242.361,290.242)"><path fill="#1c75bc" d="M-19.29,-18.388C-19.29,-18.388,-50,18.388,-50,18.388C-50,18.388,19.291,18.388,19.291,18.388C19.291,18.388,50,-18.388,50,-18.388C50,-18.388,-19.29,-18.388,-19.29,-18.388Z"><animate repeatCount="indefinite" attributeName="fill" dur="8.74s" begin="0s" fill="freeze" values="#1c75bc; #1c75bc; #124d7c; #124d7c; #1c75bc; #1c75bc" keyTimes="0; 0.324943; 0.455378; 0.851258; 0.970252; 1" keySplines="0.333 0 0.667 1; 0.333 0 0.667 1; 0.333 0 0.667 1; 0.333 0 0.667 1; 0 0 1 1" calcMode="spline" /></path></g></g><g transform="matrix(1,0,0,1,0,-12)" id="i29"><g id="i30"><path stroke-miterlimit="10" stroke-width="3" stroke="#5face0" d="M212.102,284.068C212.102,284.068,281.393,284.068,281.393,284.068" /></g></g><g transform="matrix(1,0,0,1,0,-12)" id="i31"><g id="i32" transform="matrix(1,0,0,1,329.297,355.803)"><path stroke-linejoin="round" stroke-linecap="round" stroke-width="4" stroke="#1c1c1c" fill="#9b8579" d="M16.696,-26.342C16.696,-26.342,-16.696,-26.342,-16.696,-26.342C-16.696,-26.342,-16.696,26.342,-16.696,26.342C-16.696,26.342,16.696,26.342,16.696,26.342C16.696,26.342,16.696,-26.342,16.696,-26.342Z"><animate repeatCount="indefinite" attributeName="fill" dur="8.74s" begin="0s" fill="freeze" values="#9b8579; #9b8579; #605148; #605148; #9b8579; #9b8579" keyTimes="0; 0.324943; 0.455378; 0.851259; 0.970252; 1" keySplines="0 0 1 1; 0.333 0 0.667 1; 0.333 0 0.667 1; 0.333 0 0.667 1; 0 0 1 1" calcMode="spline" /></path></g></g><g transform="matrix(1,0,0,1,0,-12)" id="i33"><g id="i34" transform="matrix(1,0,0,1,168.846,357.992)"><path stroke-linejoin="round" stroke-linecap="round" stroke-width="4" stroke="#231f20" fill="#ffffff" d="M20.706,-24.152C20.706,-24.152,-20.706,-24.152,-20.706,-24.152C-20.706,-24.152,-20.706,24.152,-20.706,24.152C-20.706,24.152,20.706,24.152,20.706,24.152C20.706,24.152,20.706,-24.152,20.706,-24.152Z"><animate repeatCount="indefinite" attributeName="fill" dur="8.74s" begin="0s" fill="freeze" values="#ffffff; #ffffff; #878787; #878787; #ffffff; #ffffff" keyTimes="0; 0.324943; 0.455378; 0.851258; 0.970252; 1" keySplines="0.333 0 0.667 1; 0.333 0 0.667 1; 0.333 0 0.667 1; 0.333 0 0.667 1; 0 0 1 1" calcMode="spline" /></path></g></g><g transform="matrix(1,0,0,1,0,-12)" id="i35"><g id="i36" transform="matrix(1,0,0,1,197.102,357.992)"><path stroke-linejoin="round" stroke-linecap="round" stroke-width="4" stroke="#231f20" fill="#ffffff" d="M7.521,-24.152C7.521,-24.152,-7.521,-24.152,-7.521,-24.152C-7.521,-24.152,-7.521,24.152,-7.521,24.152C-7.521,24.152,7.521,24.152,7.521,24.152C7.521,24.152,7.521,-24.152,7.521,-24.152Z"><animate repeatCount="indefinite" attributeName="fill" dur="8.74s" begin="0s" fill="freeze" values="#ffffff; #ffffff; #878787; #878787; #ffffff; #ffffff" keyTimes="0; 0.324943; 0.455378; 0.851258; 0.970252; 1" keySplines="0.333 0 0.667 1; 0.333 0 0.667 1; 0.333 0 0.667 1; 0.333 0 0.667 1; 0 0 1 1" calcMode="spline" /></path></g></g><g transform="matrix(1,0,0,1,0,-12)" visibility="hidden" id="i37"><animate repeatCount="indefinite" begin="0s" calcMode="discrete" dur="8.74s" values="hidden; visible; hidden; hidden" keyTimes="0; 0.055; 0.476; 1" attributeName="visibility" /><g id="i38" transform="matrix(1,0,0,1,168.162,371.258)"><path fill="#39b54a" d="M11.738,3.887C11.738,3.887,-11.738,3.887,-11.738,3.887C-11.738,3.887,-11.738,-3.887,-11.738,-3.887C-11.738,-3.887,11.738,-3.887,11.738,-3.887C11.738,-3.887,11.738,3.887,11.738,3.887Z" /></g></g><g transform="matrix(1,0,0,1,0,-12)" visibility="hidden" id="i39"><animate repeatCount="indefinite" begin="0s" calcMode="discrete" dur="8.74s" values="hidden; visible; hidden; hidden" keyTimes="0; 0.119; 0.476; 1" attributeName="visibility" /><g id="i40" transform="matrix(1,0,0,1,168.162,362.355)"><path fill="#39b54a" d="M11.738,3.887C11.738,3.887,-11.738,3.887,-11.738,3.887C-11.738,3.887,-11.738,-3.887,-11.738,-3.887C-11.738,-3.887,11.738,-3.887,11.738,-3.887C11.738,-3.887,11.738,3.887,11.738,3.887Z" /></g></g><g transform="matrix(1,0,0,1,0,-12)" visibility="hidden" id="i41"><animate repeatCount="indefinite" begin="0s" calcMode="discrete" dur="8.74s" values="hidden; visible; hidden; hidden" keyTimes="0; 0.183; 0.476; 1" attributeName="visibility" /><g id="i42" transform="matrix(1,0,0,1,168.162,353.747)"><path fill="#39b54a" d="M11.738,3.887C11.738,3.887,-11.738,3.887,-11.738,3.887C-11.738,3.887,-11.738,-3.887,-11.738,-3.887C-11.738,-3.887,11.738,-3.887,11.738,-3.887C11.738,-3.887,11.738,3.887,11.738,3.887Z" /></g></g><g transform="matrix(1,0,0,1,0,-12)" visibility="hidden" id="i43"><animate repeatCount="indefinite" begin="0s" calcMode="discrete" dur="8.74s" values="hidden; visible; hidden; hidden" keyTimes="0; 0.247; 0.476; 1" attributeName="visibility" /><g id="i44" transform="matrix(1,0,0,1,168.162,345.138)"><path fill="#39b54a" d="M11.738,3.887C11.738,3.887,-11.738,3.887,-11.738,3.887C-11.738,3.887,-11.738,-3.887,-11.738,-3.887C-11.738,-3.887,11.738,-3.887,11.738,-3.887C11.738,-3.887,11.738,3.887,11.738,3.887Z" /></g></g><g transform="matrix(1,0,0,1,0,-12)" visibility="hidden" id="i45"><animate repeatCount="indefinite" begin="0s" calcMode="discrete" dur="8.74s" values="hidden; visible; hidden; hidden" keyTimes="0; 0.474; 0.812; 1" attributeName="visibility" /><g id="i38" transform="matrix(1,0,0,1,168.162,371.258)"><path fill="#39b54a" d="M11.738,3.887C11.738,3.887,-11.738,3.887,-11.738,3.887C-11.738,3.887,-11.738,-3.887,-11.738,-3.887C-11.738,-3.887,11.738,-3.887,11.738,-3.887C11.738,-3.887,11.738,3.887,11.738,3.887Z" /></g></g><g transform="matrix(1,0,0,1,0,-12)" visibility="hidden" id="i46"><animate repeatCount="indefinite" begin="0s" calcMode="discrete" dur="8.74s" values="hidden; visible; hidden; hidden" keyTimes="0; 0.474; 0.737; 1" attributeName="visibility" /><g id="i40" transform="matrix(1,0,0,1,168.162,362.355)"><path fill="#39b54a" d="M11.738,3.887C11.738,3.887,-11.738,3.887,-11.738,3.887C-11.738,3.887,-11.738,-3.887,-11.738,-3.887C-11.738,-3.887,11.738,-3.887,11.738,-3.887C11.738,-3.887,11.738,3.887,11.738,3.887Z" /></g></g><g transform="matrix(1,0,0,1,0,-12)" visibility="hidden" id="i47"><animate repeatCount="indefinite" begin="0s" calcMode="discrete" dur="8.74s" values="hidden; visible; hidden; hidden" keyTimes="0; 0.474; 0.645; 1" attributeName="visibility" /><g id="i42" transform="matrix(1,0,0,1,168.162,353.747)"><path fill="#39b54a" d="M11.738,3.887C11.738,3.887,-11.738,3.887,-11.738,3.887C-11.738,3.887,-11.738,-3.887,-11.738,-3.887C-11.738,-3.887,11.738,-3.887,11.738,-3.887C11.738,-3.887,11.738,3.887,11.738,3.887Z" /></g></g><g transform="matrix(1,0,0,1,0,-12)" visibility="hidden" id="i48"><animate repeatCount="indefinite" begin="0s" calcMode="discrete" dur="8.74s" values="hidden; visible; hidden; hidden" keyTimes="0; 0.474; 0.558; 1" attributeName="visibility" /><g id="i44" transform="matrix(1,0,0,1,168.162,345.138)"><path fill="#39b54a" d="M11.738,3.887C11.738,3.887,-11.738,3.887,-11.738,3.887C-11.738,3.887,-11.738,-3.887,-11.738,-3.887C-11.738,-3.887,11.738,-3.887,11.738,-3.887C11.738,-3.887,11.738,3.887,11.738,3.887Z" /></g></g><g transform="matrix(1,0,0,1,0,-12)" id="i49"><g id="i50" transform="matrix(1,0,0,1,167.925,358.198)"><path stroke-linejoin="round" stroke-linecap="round" stroke-width="4" stroke="#1c1c1c" d="M11.5,-16.947C11.5,-16.947,-11.5,-16.947,-11.5,-16.947C-11.5,-16.947,-11.5,16.947,-11.5,16.947C-11.5,16.947,11.5,16.947,11.5,16.947C11.5,16.947,11.5,-16.947,11.5,-16.947Z" /></g></g><g transform="matrix(0.97,0,0,1,5.038,-12)" id="i51"><g id="i52"><path stroke-linejoin="round" stroke-linecap="round" stroke-width="4" stroke="#1c1c1c" d="M156.425,366.851C156.425,366.851,179.425,366.851,179.425,366.851" /></g></g><g transform="matrix(0.97,0,0,1,5.038,-12)" id="i53"><g id="i54"><path stroke-linejoin="round" stroke-linecap="round" stroke-width="4" stroke="#1c1c1c" d="M156.425,357.947C156.425,357.947,179.425,357.947,179.425,357.947" /></g></g><g transform="matrix(0.97,0,0,1,5.038,-12)" id="i55"><g id="i56"><path stroke-linejoin="round" stroke-linecap="round" stroke-width="4" stroke="#1c1c1c" d="M156.425,349.481C156.425,349.481,179.425,349.481,179.425,349.481" /></g></g><g transform="matrix(1,0,0,1,0,-12)" id="i57"><g id="i58"><path stroke-miterlimit="10" stroke-width="3" stroke="#5face0" d="M202.32,296.46C202.32,296.46,271.61,296.46,271.61,296.46" /></g></g><g transform="matrix(1,0,0,1,0,-12)" id="i59"><g id="i60" transform="matrix(1,0,0,1,242.361,290.242)"><path stroke-linejoin="round" stroke-linecap="round" stroke-width="4" stroke="#1c1c1c" d="M-19.29,-18.388C-19.29,-18.388,-50,18.388,-50,18.388C-50,18.388,19.291,18.388,19.291,18.388C19.291,18.388,50,-18.388,50,-18.388C50,-18.388,-19.29,-18.388,-19.29,-18.388Z" /></g></g><g transform="matrix(1,0,0,1,0,-12)" id="i61"><g id="i62" transform="matrix(1,0,0,1,228.96,290.242)"><path stroke-linejoin="round" stroke-linecap="round" stroke-width="4" stroke="#1c1c1c" fill="#ffffff" d="M15.355,-18.388C15.355,-18.388,-15.355,18.388,-15.355,18.388" /></g></g><g transform="matrix(1,0,0,1,0,-12)" id="i63"><g id="i64" transform="matrix(1,0,0,1,252.32,290.242)"><path stroke-linejoin="round" stroke-linecap="round" stroke-width="4" stroke="#1c1c1c" fill="#ffffff" d="M15.355,-18.388C15.355,-18.388,-15.355,18.388,-15.355,18.388" /></g></g><g transform="matrix(1,0,0,1,0,-12)" id="i65"><g id="i66" transform="matrix(1,0,0,1,218.96,347.47)"><path stroke-linejoin="round" stroke-linecap="round" stroke-width="4" stroke="#231f20" fill="#ffffff" d="M5.333,8.332C5.333,8.332,-5.333,8.332,-5.333,8.332C-5.333,8.332,-5.333,-3,-5.333,-3C-5.333,-5.944,-2.944,-8.332,0.001,-8.332C2.946,-8.332,5.333,-5.944,5.333,-3C5.333,-3,5.333,8.332,5.333,8.332Z"><animate repeatCount="indefinite" attributeName="fill" dur="8.74s" begin="0s" fill="freeze" values="#ffffff; #ffffff; #878787; #878787; #ffffff; #ffffff" keyTimes="0; 0.324943; 0.455378; 0.851258; 0.970252; 1" keySplines="0.333 0 0.667 1; 0.333 0 0.667 1; 0.333 0 0.667 1; 0.333 0 0.667 1; 0 0 1 1" calcMode="spline" /></path></g></g><g transform="matrix(1,0,0,1,0,-12)" id="i67"><g id="i68" transform="matrix(1,0,0,1,211.792,359.078)"><path stroke-linejoin="round" stroke-linecap="round" stroke-width="4" stroke="#1c1c1c" d="M-7.168,3.277C-7.168,3.277,7.168,3.277,7.168,3.277C7.168,3.277,7.168,-3.277,7.168,-3.277" /></g></g><g transform="matrix(1,0,0,1,0,-12)" id="i69"><g id="i70"><path stroke-linejoin="round" stroke-linecap="round" stroke-width="4" stroke="#1c1c1c" d="M332.574,353.746C332.574,353.746,339.03,353.746,339.03,353.746" /></g></g><g transform="matrix(1,0,0,1,0,-12)" id="i71"><g id="i72" transform="matrix(1,0,0,1,288.28,342.631)"><path stroke-linejoin="round" stroke-linecap="round" stroke-width="4" stroke="#1c1c1c" fill="#726658" d="M10.076,13.171C10.076,13.171,-10.076,13.171,-10.076,13.171C-10.076,13.171,-10.076,-13.171,-10.076,-13.171C-10.076,-13.171,10.076,-13.171,10.076,-13.171C10.076,-13.171,10.076,13.171,10.076,13.171Z"><animate repeatCount="indefinite" attributeName="fill" dur="8.74s" begin="0s" fill="freeze" values="#726658; #726658; #ffc000; #ffc000; #726658; #726658" keyTimes="0; 0.324943; 0.455378; 0.851258; 0.970252; 1" keySplines="0.333 0 0.667 1; 0.333 0 0.667 1; 0.333 0 0.667 1; 0.333 0 0.667 1; 0 0 1 1" calcMode="spline" /></path></g></g><g transform="matrix(1,0,0,1,0,-12)" id="i73"><g id="i74"><path stroke-linejoin="round" stroke-linecap="round" stroke-width="4" stroke="#1c1c1c" d="M288.28,329.46C288.28,329.46,288.28,355.802,288.28,355.802" /></g></g><g id="i75"><g transform="translate(350.966,263.811)"><g transform="rotate(0)"><animateTransform repeatCount="indefinite" type="rotate" attributeName="transform" dur="8.74s" begin="0s" calcMode="spline" values="0; 0; -16; -16; 0; 0" keyTimes="0; 0.391304; 0.535469; 0.750572; 0.90389; 1" keySplines="0 0 1 1; 0.333 0 0.667 1; 0.333 0 0.667 1; 0.333 0 0.667 1; 0 0 1 1" fill="freeze" /><g transform="scale(1,1) translate(-350.966,-275.811)"><g id="i76" transform="matrix(1,0,0,1,0,0)"><g id="i77" transform="matrix(1,0,0,1,361.065,265.713)"><path stroke-linejoin="round" stroke-linecap="round" stroke-width="4" stroke="#1c1c1c" fill="#a7a9ac" d="M10.098,-10.099C20.403,0.206,24.235,13.081,18.658,18.658C13.08,24.235,0.205,20.403,-10.099,10.098C-20.403,-0.205,-24.235,-13.08,-18.658,-18.658C-13.081,-24.235,-0.207,-20.403,10.098,-10.099Z"><animate repeatCount="indefinite" attributeName="fill" dur="8.74s" begin="0s" fill="freeze" values="#a7a9ac; #a7a9ac; #626262; #626262; #a7a9ac; #a7a9ac" keyTimes="0; 0.324943; 0.455378; 0.851258; 0.970252; 1" keySplines="0 0 1 1; 0 0 1 1; 0 0 1 1; 0 0 1 1; 0 0 1 1" calcMode="spline" /></path></g></g><g id="i78" transform="matrix(1,0,0,1,0,0)"><g id="i79" transform="matrix(1,0,0,1,369.31,256.674)"><path stroke-linejoin="round" stroke-linecap="round" stroke-width="4" stroke="#1c1c1c" d="M-6.587,6.587C-6.587,6.587,6.587,-6.587,6.587,-6.587" /></g></g></g></g></g></g><g transform="matrix(1,0,0,1,0,-12)" id="i80"><g id="i81" transform="matrix(1,0,0,1,346.895,282.378)"><path stroke-linejoin="round" stroke-linecap="round" stroke-width="4" stroke="#1c1c1c" d="M5.344,-5.344C5.344,-5.344,-5.344,5.344,-5.344,5.344" /></g></g><g transform="matrix(1,0,0,1,0,-12)" id="i82"><g id="i83" transform="matrix(1,0,0,1,350.902,290.142)"><path stroke-linejoin="round" stroke-linecap="round" stroke-width="4" stroke="#1c1c1c" d="M-1.336,-10.435C-1.336,-10.435,1.336,10.435,1.336,10.435" /></g></g><g id="i84"><g transform="translate(138.802,370.145)"><g transform="rotate(0)"><animateTransform repeatCount="indefinite" type="rotate" attributeName="transform" dur="8.74s" begin="0s" calcMode="spline" values="0; 2; 0; 2; 0; 0" keyTimes="0; 0.228833; 0.457666; 0.713958; 0.997712; 1" keySplines="0.333 0 0.667 1; 0.333 0 0.667 1; 0.333 0 0.667 1; 0.333 0 0.667 1; 0 0 1 1" fill="freeze" /><g transform="scale(1,1) translate(-138.802,-382.145)"><g transform="matrix(1,0,0,1,0,0)" id="i85"><g id="i86" transform="matrix(1,0,0,1,0,0)"><g id="i87" transform="matrix(1,0,0,1,138.801,296.068)"><path stroke-linejoin="round" stroke-linecap="round" stroke-width="4" stroke="#1c1c1c" fill="#8dc63f" d="M-19.614,0C-19.614,-32.93,-10.832,-59.625,0.001,-59.625C10.833,-59.625,19.615,-32.93,19.615,0C19.615,32.93,10.833,59.625,0.001,59.625C-10.832,59.625,-19.614,32.93,-19.614,0Z"><animate repeatCount="indefinite" attributeName="fill" dur="8.74s" begin="0s" fill="freeze" values="#8dc63f; #8dc63f; #517027; #517027; #8dc63f; #8dc63f" keyTimes="0; 0.324943; 0.455378; 0.851258; 0.970252; 1" keySplines="0 0 1 1; 0 0 1 1; 0 0 1 1; 0 0 1 1; 0 0 1 1" calcMode="spline" /></path></g></g></g></g></g></g></g><g id="i84"><g transform="translate(138.802,370.145)"><g transform="rotate(0)"><animateTransform repeatCount="indefinite" type="rotate" attributeName="transform" dur="8.74s" begin="0s" calcMode="spline" values="0; 2; 0; 2; 0; 0" keyTimes="0; 0.228833; 0.457666; 0.713958; 0.997712; 1" keySplines="0.333 0 0.667 1; 0.333 0 0.667 1; 0.333 0 0.667 1; 0.333 0 0.667 1; 0 0 1 1" fill="freeze" /><g transform="scale(1,1) translate(-138.802,-382.145)"><g id="i88" transform="matrix(1,0,0,1,0,0)"><g id="i89"><path stroke-linejoin="round" stroke-linecap="round" stroke-width="4" stroke="#1c1c1c" fill="#e6e7e8" d="M138.802,382.145C138.802,382.145,138.802,291.2,138.802,291.2" /></g></g></g></g></g></g><g transform="matrix(1,0,0,1,0,-12)" id="i90"><g id="i91" transform="matrix(1,0,0,1,0,0)"><g id="i92" transform="matrix(1,0,0,1,137.509,376.42)"><path stroke-linejoin="round" stroke-linecap="round" stroke-width="4" stroke="#1c1c1c" fill="#939598" d="M11.449,5.725C11.449,-0.598,6.323,-5.724,0,-5.724C-6.323,-5.724,-11.449,-0.598,-11.449,5.725C-11.449,5.725,11.449,5.725,11.449,5.725Z"><animate repeatCount="indefinite" attributeName="fill" dur="8.74s" begin="0s" fill="freeze" values="#939598; #939598; #515254; #515254; #939598; #939598" keyTimes="0; 0.324943; 0.455378; 0.851258; 0.970252; 1" keySplines="0 0 1 1; 0 0 1 1; 0 0 1 1; 0 0 1 1; 0 0 1 1" calcMode="spline" /></path></g></g></g><g id="i93"><g transform="translate(114.458,370.145)"><g transform="rotate(0)"><animateTransform repeatCount="indefinite" type="rotate" attributeName="transform" dur="8.74s" begin="0s" calcMode="spline" values="0; 2; 0; 2; 0; 0" keyTimes="0; 0.281464; 0.510298; 0.766591; 0.997712; 1" keySplines="0.333 0 0.667 1; 0.333 0 0.667 1; 0.333 0 0.667 1; 0.333 0 0.667 1; 0 0 1 1" fill="freeze" /><g transform="scale(1,1) translate(-114.458,-382.145)"><g transform="matrix(1,0,0,1,0,0)" id="i94"><g id="i95" transform="matrix(1,0,0,1,0,0)"><g id="i96" transform="matrix(1,0,0,1,113.765,321.038)"><path stroke-linejoin="round" stroke-linecap="round" stroke-width="4" stroke="#1c1c1c" fill="#d7df23" d="M-15.042,0C-15.042,-19.276,-8.308,-34.902,-0.001,-34.902C8.307,-34.902,15.042,-19.276,15.042,0C15.042,19.275,8.307,34.902,-0.001,34.902C-8.308,34.902,-15.042,19.275,-15.042,0Z"><animate repeatCount="indefinite" attributeName="fill" dur="8.74s" begin="0s" fill="freeze" values="#d7df23; #d7df23; #969c17; #969c17; #d7df23; #d7df23" keyTimes="0; 0.324943; 0.455378; 0.851258; 0.970252; 1" keySplines="0 0 1 1; 0 0 1 1; 0 0 1 1; 0 0 1 1; 0 0 1 1" calcMode="spline" /></path></g></g></g></g></g></g></g><g id="i93"><g transform="translate(114.458,370.145)"><g transform="rotate(0)"><animateTransform repeatCount="indefinite" type="rotate" attributeName="transform" dur="8.74s" begin="0s" calcMode="spline" values="0; 2; 0; 2; 0; 0" keyTimes="0; 0.281464; 0.510298; 0.766591; 0.997712; 1" keySplines="0.333 0 0.667 1; 0.333 0 0.667 1; 0.333 0 0.667 1; 0.333 0 0.667 1; 0 0 1 1" fill="freeze" /><g transform="scale(1,1) translate(-114.458,-382.145)"><g id="i97" transform="matrix(1,0,0,1,0,0)"><g id="i98"><path stroke-linejoin="round" stroke-linecap="round" stroke-width="4" stroke="#1c1c1c" fill="#d7df23" d="M114.458,332.263C114.458,332.263,114.458,381.375,114.458,381.375" /></g></g></g></g></g></g><g transform="matrix(1,0,0,1,0,-12)" id="i99"><g id="i100" transform="matrix(1,0,0,1,0,0)"><g id="i101" transform="matrix(1,0,0,1,113.765,376.42)"><path stroke-linejoin="round" stroke-linecap="round" stroke-width="4" stroke="#1c1c1c" fill="#939598" d="M11.449,5.725C11.449,-0.598,6.323,-5.724,0,-5.724C-6.323,-5.724,-11.449,-0.598,-11.449,5.725C-11.449,5.725,11.449,5.725,11.449,5.725Z"><animate repeatCount="indefinite" attributeName="fill" dur="8.74s" begin="0s" fill="freeze" values="#939598; #939598; #515254; #515254; #939598; #939598" keyTimes="0; 0.324943; 0.455378; 0.851258; 0.970252; 1" keySplines="0 0 1 1; 0 0 1 1; 0 0 1 1; 0 0 1 1; 0 0 1 1" calcMode="spline" /></path></g></g></g><g transform="matrix(1,0,0,1,0,-12)" id="i102"><g id="i103" transform="matrix(1,0,0,1,369.31,376.42)"><path stroke-linejoin="round" stroke-linecap="round" stroke-width="4" stroke="#1c1c1c" fill="#939598" d="M11.449,5.725C11.449,-0.598,6.323,-5.724,0,-5.724C-6.323,-5.724,-11.449,-0.598,-11.449,5.725C-11.449,5.725,11.449,5.725,11.449,5.725Z"><animate repeatCount="indefinite" attributeName="fill" dur="8.74s" begin="0s" fill="freeze" values="#939598; #939598; #515254; #515254; #939598; #939598" keyTimes="0; 0.324943; 0.455378; 0.851258; 0.970252; 1" keySplines="0.333 0 0.667 1; 0.333 0 0.667 1; 0.333 0 0.667 1; 0.333 0 0.667 1; 0 0 1 1" calcMode="spline" /></path></g></g><g transform="matrix(1,0,0,1,0,-12)" id="i104"><g id="i105" transform="matrix(1,0,0,1,254.455,373.719)"><path stroke-linejoin="round" stroke-linecap="round" stroke-width="4" stroke="#1c1c1c" fill="#939598" d="M16.852,8.426C16.852,-0.882,9.308,-8.426,0,-8.426C-9.307,-8.426,-16.852,-0.882,-16.852,8.426C-16.852,8.426,16.852,8.426,16.852,8.426Z"><animate repeatCount="indefinite" attributeName="fill" dur="8.74s" begin="0s" fill="freeze" values="#939598; #939598; #515254; #515254; #939598; #939598" keyTimes="0; 0.324943; 0.455378; 0.851258; 0.970252; 1" keySplines="0.333 0 0.667 1; 0.333 0 0.667 1; 0.333 0 0.667 1; 0.333 0 0.667 1; 0 0 1 1" calcMode="spline" /></path></g></g><g opacity="0" id="i106"><animate repeatCount="indefinite" attributeName="opacity" dur="8.74s" begin="0s" fill="freeze" values="0; 1; 1; 0; 0" keyTimes="0; 0.09611; 0.800915; 0.89016; 1" keySplines="0.333 0 0.667 1; 0.333 0 0.667 1; 0.333 0 0.667 1; 0 0 1 1" calcMode="spline" /><g transform="translate(191.425,219.279)"><animateTransform repeatCount="indefinite" type="translate" attributeName="transform" dur="8.74s" begin="0s" calcMode="spline" values="191.425 219.279; 296.425 219.279; 296.425 219.279" keyTimes="0; 0.938215; 1" keySplines="0.333 0 0.667 1; 0 0 1 1" fill="freeze" /><g transform="scale(1,1) translate(-211.425,-221.279)"><g id="i107" transform="matrix(0.7,0,0,0.7,211.425,221.279)"><path stroke-linejoin="round" stroke-linecap="round" stroke-width="6" stroke="#1c1c1c" fill="#f5f5f5" d="M23.148,-4.838C22.69,-4.838,22.239,-4.806,21.794,-4.755C19.684,-12.868,12.331,-18.865,3.557,-18.865C-5.563,-18.865,-13.171,-12.394,-14.926,-3.792C-17.021,-5.353,-19.61,-6.288,-22.424,-6.288C-29.37,-6.288,-35,-0.658,-35,6.287C-35,13.234,-29.37,18.865,-22.424,18.865C-22.424,18.865,3.557,18.865,3.557,18.865C3.557,18.865,23.148,18.865,23.148,18.865C29.693,18.865,35,13.559,35,7.014C35,0.469,29.693,-4.838,23.148,-4.838Z" /></g></g></g></g></svg>