<?xml version="1.0" standalone="no"?>
<!DOCTYPE svg PUBLIC "-//W3C//DTD SVG 20010904//EN"
 "http://www.w3.org/TR/2001/REC-SVG-20010904/DTD/svg10.dtd">
<svg version="1.0" xmlns="http://www.w3.org/2000/svg"
 width="1920.000000pt" height="1920.000000pt" viewBox="0 0 1920.000000 1920.000000"
 preserveAspectRatio="xMidYMid meet">
<metadata>
Created by potrace 1.16, written by Peter Selinger 2001-2019
</metadata>
<g transform="translate(0.000000,1920.000000) scale(0.100000,-0.100000)"
fill="#000000" stroke="none">
<path d="M0 9600 l0 -9600 9600 0 9600 0 0 9600 0 9600 -9600 0 -9600 0 0
-9600z m3744 8984 c19 -18 21 -55 4 -72 -27 -27 -88 -3 -88 34 0 18 36 54 54
54 8 0 22 -7 30 -16z m9139 -235 c24 -11 47 -47 47 -73 0 -7 -9 -25 -21 -40
-15 -19 -30 -26 -55 -26 -85 0 -104 114 -24 143 23 8 27 8 53 -4z m-11041
-106 c22 -20 24 -76 2 -97 -20 -21 -73 -20 -96 1 -22 20 -23 70 -1 95 20 22
70 23 95 1z m3587 -365 c19 -63 36 -85 78 -98 21 -6 45 -14 53 -17 9 -3 -3
-11 -30 -20 -62 -21 -86 -46 -100 -104 -7 -27 -15 -49 -18 -49 -4 0 -16 28
-27 63 -20 61 -21 62 -75 84 l-55 22 28 10 c16 6 32 11 36 11 25 0 60 45 72
90 7 27 16 50 19 50 4 0 12 -19 19 -42z m9309 -1 c4 -36 -15 -59 -46 -55 -35
4 -49 30 -34 63 10 22 18 26 45 23 27 -2 33 -8 35 -31z m-6856 -464 c34 -31
11 -93 -35 -93 -27 0 -57 28 -57 53 0 48 56 73 92 40z m-5079 0 c-7 -2 -21 -2
-30 0 -10 3 -4 5 12 5 17 0 24 -2 18 -5z m230 0 c-7 -2 -21 -2 -30 0 -10 3 -4
5 12 5 17 0 24 -2 18 -5z m-300 -10 c-7 -2 -19 -2 -25 0 -7 3 -2 5 12 5 14 0
19 -2 13 -5z m-158 -43 c-22 -10 -44 -18 -50 -18 -5 0 8 8 30 19 22 10 45 18
50 18 6 0 -8 -9 -30 -19z m-66 -23 c-15 -12 -119 -66 -119 -62 0 6 103 65 114
65 5 0 7 -1 5 -3z m796 -7 c3 -6 -1 -7 -9 -4 -18 7 -21 14 -7 14 6 0 13 -4 16
-10z m-797 -65 c-2 -3 -24 -15 -49 -28 -24 -13 -44 -30 -44 -38 0 -8 -7 -14
-15 -14 -23 -1 -41 -15 -34 -27 4 -7 2 -8 -5 -4 -21 13 -199 -173 -186 -194 3
-4 -2 -10 -10 -13 -8 -4 -28 -33 -45 -67 -17 -33 -33 -60 -36 -60 -4 0 -4 31
-1 70 6 85 45 155 141 254 81 84 127 104 280 125 5 0 7 -1 4 -4z m8712 -69
c25 -75 30 -80 100 -104 l53 -18 -49 -18 c-68 -26 -88 -47 -110 -118 l-18 -61
-21 64 c-11 35 -24 69 -28 76 -4 7 -35 22 -69 34 l-61 23 54 18 c65 22 83 41
104 113 8 30 17 55 19 55 3 0 14 -29 26 -64z m-7649 -69 c18 -22 26 -36 18
-31 -18 11 -31 12 -45 2 -6 -4 -23 5 -40 24 -16 17 -24 28 -17 24 18 -10 21
27 4 48 -13 15 -9 14 16 -4 18 -13 47 -41 64 -63z m10209 -47 c24 -24 25 -48
4 -78 -32 -46 -114 -17 -114 40 0 26 36 58 65 58 14 0 34 -9 45 -20z m-9477
-57 c36 -17 51 -31 63 -58 29 -70 -15 -153 -149 -281 -171 -165 -427 -330
-782 -504 -317 -156 -601 -266 -910 -354 -71 -21 -139 -42 -150 -47 -11 -5
-40 -11 -65 -13 -25 -3 -97 -14 -160 -25 -332 -59 -569 -50 -644 25 -74 75 5
210 214 367 76 57 103 64 125 34 13 -18 45 -16 72 5 53 39 -2 87 -56 49 -40
-28 -59 -35 -31 -12 14 11 53 37 87 57 l63 37 -5 41 c-4 35 -3 37 4 11 5 -16
9 -22 10 -13 1 10 9 16 21 15 15 -1 23 -12 31 -42 5 -22 15 -55 21 -74 13 -43
-6 -60 -37 -31 -22 21 -37 26 -33 11 2 -4 -39 -37 -91 -71 -110 -74 -207 -165
-217 -204 -5 -21 -1 -33 15 -49 20 -21 31 -22 169 -22 123 1 174 6 312 32 595
115 1176 353 1638 670 51 35 98 61 104 57 6 -4 8 -3 4 4 -3 6 8 20 25 33 100
71 199 179 199 217 0 9 -8 24 -17 35 -13 15 -14 19 -3 13 8 -4 6 0 -4 8 -11 9
-25 16 -30 16 -7 0 -7 -3 0 -8 7 -4 -36 -8 -95 -8 -58 -1 -140 -9 -181 -18
-41 -9 -78 -16 -81 -16 -10 0 -50 78 -42 83 8 4 139 29 243 47 30 5 114 8 185
7 109 -2 138 -6 178 -24z m5413 -388 c15 -23 15 -27 0 -50 -19 -29 -47 -32
-70 -9 -31 30 -9 84 34 84 11 0 27 -11 36 -25z m-7739 -27 c-3 -7 -5 -2 -5 12
0 14 2 19 5 13 2 -7 2 -19 0 -25z m14212 -26 c60 -44 49 -125 -28 -202 -119
-119 -333 -159 -381 -71 -50 94 62 230 235 288 52 17 141 10 174 -15z m-14222
-139 c-2 -27 -3 -5 -3 47 0 52 1 74 3 48 2 -27 2 -69 0 -95z m4047 -225 c20
-29 20 -34 -4 -58 -24 -24 -43 -25 -64 -4 -31 30 -9 84 34 84 10 0 26 -10 34
-22z m-3997 -30 c-3 -8 -6 -5 -6 6 -1 11 2 17 5 13 3 -3 4 -12 1 -19z m148
-173 c19 -37 19 -37 0 -51 -24 -18 -34 -14 -54 17 -8 13 -11 21 -7 17 11 -10
38 41 29 55 -3 5 -2 8 3 4 5 -3 18 -22 29 -42z m220 -270 c-3 -36 -7 -37 -36
-12 -14 12 -23 21 -21 21 3 -2 52 11 59 15 1 1 0 -10 -2 -24z m7391 -340 c633
-67 1216 -339 1649 -770 376 -374 595 -829 644 -1339 13 -127 14 -289 4 -284
-5 2 -39 19 -78 39 -87 45 -158 62 -255 62 -237 0 -445 -144 -579 -403 -85
-164 -121 -313 -121 -502 0 -159 19 -249 81 -376 81 -167 183 -254 356 -304
l82 -24 -83 -99 c-413 -498 -1095 -842 -1881 -952 -183 -25 -725 -25 -900 0
-427 62 -736 168 -1025 350 -123 77 -128 83 -44 48 102 -43 290 -98 428 -125
218 -43 316 -51 616 -51 250 0 303 3 430 23 532 86 902 269 1196 594 181 201
338 522 409 838 105 466 89 979 -41 1370 -205 616 -667 1032 -1373 1235 -404
116 -946 134 -1331 44 -190 -44 -438 -133 -517 -185 -53 -34 -15 12 90 110
201 189 358 301 580 416 287 149 596 243 917 279 52 6 109 13 125 15 91 10
491 4 621 -9z m7238 -271 c35 -34 10 -104 -36 -104 -54 0 -79 74 -36 104 29
20 52 20 72 0z m-12414 -324 c11 -11 20 -29 20 -40 0 -27 -35 -60 -63 -60 -37
0 -60 23 -60 60 0 56 62 81 103 40z m4330 -95 c327 -49 664 -168 909 -320 478
-296 753 -741 833 -1345 18 -140 15 -488 -6 -640 -129 -945 -644 -1477 -1576
-1625 -159 -26 -594 -32 -774 -11 -571 66 -994 267 -1277 604 -223 268 -376
623 -434 1007 -25 168 -31 519 -11 689 59 510 258 934 571 1216 252 226 629
384 1040 435 154 19 571 14 725 -10z m4080 -271 c20 -60 26 -68 64 -85 22 -10
49 -19 59 -19 31 0 18 -17 -24 -29 -57 -17 -85 -48 -105 -117 l-18 -59 -18 59
c-23 74 -37 90 -102 115 -45 18 -48 21 -28 27 13 4 42 16 65 28 37 19 44 28
61 84 11 34 21 62 22 62 1 0 12 -30 24 -66z m5300 -34 c28 -28 25 -64 -6 -89
-15 -12 -33 -21 -41 -21 -21 0 -63 46 -63 70 0 28 35 60 65 60 14 0 34 -9 45
-20z m-15812 -37 c2 -24 -2 -34 -17 -43 -28 -15 -61 3 -61 33 0 31 20 48 50
45 20 -2 26 -9 28 -35z m12517 -338 c28 -27 30 -42 13 -80 -22 -48 -104 -44
-122 6 -26 76 54 130 109 74z m-13644 -105 c22 -12 26 -59 7 -78 -19 -19 -66
-15 -78 7 -14 28 -13 38 10 61 23 23 33 24 61 10z m14971 -332 c24 -20 28 -44
12 -67 -17 -23 -53 -28 -72 -9 -18 18 -15 65 6 77 23 14 35 13 54 -1z m-10984
-30 c7 -7 12 -26 12 -43 0 -40 -16 -55 -57 -55 -49 0 -72 59 -37 94 18 19 65
21 82 4z m-1383 -498 c31 -153 56 -228 90 -269 30 -35 115 -73 231 -105 l89
-23 -45 -12 c-188 -50 -269 -91 -300 -151 -23 -45 -63 -190 -81 -295 l-13 -70
-12 60 c-61 284 -77 324 -143 367 -41 25 -181 75 -266 93 -26 6 -17 10 65 31
125 33 211 73 243 115 30 40 58 131 88 287 12 62 23 111 24 110 2 -2 15 -64
30 -138z m7868 -55 c335 -71 484 -464 340 -898 -73 -220 -204 -387 -369 -469
-87 -43 -88 -43 -198 -43 -104 0 -115 2 -179 32 -130 62 -219 173 -278 348
-21 62 -24 88 -24 225 0 184 18 266 94 425 79 166 194 288 329 348 105 47 176
55 285 32z m5077 -375 c22 -22 26 -51 10 -81 -8 -14 -21 -19 -50 -19 -29 0
-42 5 -50 19 -17 32 -12 69 12 85 30 21 54 20 78 -4z m-2627 -101 c27 -33 23
-93 -9 -118 -56 -44 -134 -8 -134 62 0 77 94 114 143 56z m-12365 -495 c16
-11 22 -25 22 -55 0 -50 -27 -79 -75 -79 -22 0 -43 8 -55 20 -12 12 -20 33
-20 55 0 65 72 99 128 59z m13938 -610 c31 -155 55 -223 92 -259 34 -35 125
-77 220 -101 39 -10 72 -21 72 -24 0 -3 -33 -14 -72 -24 -104 -27 -188 -67
-224 -108 -38 -43 -65 -122 -95 -278 l-23 -115 -22 115 c-46 240 -71 287 -180
337 -38 18 -102 40 -141 50 -40 10 -73 20 -73 23 0 3 30 12 68 21 101 25 180
58 217 90 45 40 70 103 102 267 15 77 29 139 30 138 2 -1 15 -61 29 -132z
m-3854 10 c460 -45 611 -136 708 -424 l29 -85 -42 -2 c-194 -12 -435 -87 -560
-175 -49 -35 -19 -37 45 -3 136 72 292 120 445 135 116 12 123 10 123 -40 0
-24 -3 -25 -62 -28 -129 -6 -259 -36 -382 -90 -108 -47 -176 -90 -176 -111 0
-14 21 -7 118 40 152 76 282 111 417 113 l100 1 7 -65 c45 -406 32 -1521 -23
-1970 -34 -276 -128 -451 -296 -553 -72 -44 -214 -93 -308 -105 -134 -18 -165
20 -165 205 0 105 1 108 29 138 125 129 185 373 162 653 -16 184 -56 321 -120
411 -20 28 -21 43 -21 323 0 472 -22 854 -57 998 -42 174 -132 278 -273 315
-42 11 -154 26 -293 38 -28 2 -27 4 53 92 45 50 102 118 128 153 l47 63 110
-6 c61 -3 176 -13 257 -21z m5924 -79 c21 -32 11 -72 -22 -87 -58 -27 -114 35
-80 87 23 35 79 35 102 0z m-12937 -139 c7 -8 11 -30 9 -48 -3 -28 -7 -34 -31
-36 -36 -4 -57 13 -57 49 0 42 54 66 79 35z m6500 -166 c133 -12 189 -24 254
-57 91 -45 145 -169 166 -383 15 -142 33 -682 29 -852 l-3 -137 -55 34 c-63
40 -152 71 -227 80 l-53 7 0 61 c0 161 -58 437 -124 586 -20 46 -57 115 -81
153 -34 52 -45 78 -45 109 0 22 -9 65 -20 96 -11 31 -17 60 -13 66 4 6 1 7 -7
2 -10 -6 -12 -4 -7 9 4 9 3 15 -2 12 -5 -3 -20 9 -34 28 -15 18 -46 47 -71 63
-44 29 -45 31 -27 47 10 9 24 16 32 14 7 -2 13 2 14 7 1 16 15 35 27 35 6 0 5
-7 -3 -17 -13 -16 -12 -17 4 -4 9 8 15 16 12 19 -3 3 0 11 6 19 14 16 72 17
228 3z m-362 -180 c45 -26 70 -51 98 -99 5 -9 4 -12 -2 -8 -6 4 -16 1 -22 -7
-9 -11 -9 -15 1 -20 7 -3 0 -2 -17 2 -16 4 -70 6 -120 6 -49 -1 -83 0 -75 3
11 3 14 15 12 48 -3 30 -8 43 -16 38 -6 -3 -8 -3 -5 1 10 11 84 65 89 66 3 0
28 -14 57 -30z m-172 -56 c-24 -18 -83 -50 -73 -39 10 10 81 54 88 54 3 0 -4
-7 -15 -15z m-96 -57 c-22 -17 -3 -44 26 -39 33 7 14 -4 -54 -32 -35 -14 -68
-23 -74 -19 -5 3 -7 2 -4 -4 3 -5 -8 -17 -26 -27 -24 -13 -27 -13 -13 -2 11 9
20 24 21 34 1 16 -10 13 -87 -22 -75 -35 -85 -42 -68 -50 11 -5 20 -15 20 -23
0 -8 5 -11 13 -7 6 4 -20 -27 -59 -67 -39 -41 -91 -99 -114 -129 -51 -66 -133
-229 -161 -322 l-21 -67 -41 15 c-23 8 -77 18 -119 21 -77 6 -78 6 -71 32 13
57 54 178 71 208 18 32 128 120 195 154 39 20 45 38 28 82 -9 23 -5 25 158 91
91 37 216 94 276 126 110 59 134 70 104 47z m-7345 -63 c19 -18 21 -55 4 -72
-22 -22 -67 -14 -80 13 -22 50 38 97 76 59z m7698 -60 c50 -48 116 -147 163
-246 126 -267 163 -625 104 -1021 l-12 -78 -52 50 c-183 173 -501 271 -782
241 -118 -12 -229 -40 -310 -75 -31 -14 -58 -23 -61 -20 -8 8 27 260 53 382
40 185 89 311 166 424 152 226 424 387 632 375 59 -3 72 -7 99 -32z m-4888 0
c30 -29 9 -84 -31 -84 -21 0 -53 29 -53 48 0 22 30 52 51 52 10 0 25 -7 33
-16z m1662 -110 c22 -9 49 -20 62 -25 l22 -9 -29 -57 c-80 -160 -120 -338
-128 -563 -4 -119 -2 -175 11 -241 20 -108 21 -104 -11 -81 -121 85 -294 150
-420 159 -46 3 -83 10 -83 15 0 34 198 392 304 548 55 81 217 270 231 270 1 0
20 -7 41 -16z m351 -110 c515 -126 1081 -124 1628 6 66 16 128 32 139 36 16 6
15 2 -7 -32 -212 -336 -245 -820 -80 -1173 24 -52 55 -109 68 -127 45 -58 36
-73 -73 -126 -53 -26 -180 -97 -281 -158 -108 -65 -180 -103 -176 -93 35 83
49 157 79 418 30 269 40 446 27 507 -25 119 -114 201 -250 232 -184 41 -828
118 -1006 120 -106 1 -126 -2 -172 -23 -67 -30 -134 -102 -161 -172 -11 -30
-28 -95 -38 -144 -20 -103 -27 -94 -38 50 -14 185 27 436 100 613 43 104 51
115 78 107 12 -3 85 -21 163 -41z m1848 -445 c54 -17 65 -23 60 -37 -14 -37
-81 -472 -103 -667 l-8 -70 -26 50 c-71 138 -118 339 -118 507 0 105 17 220
33 230 22 14 94 8 162 -13z m-1500 -40 c289 -30 679 -86 743 -106 80 -25 136
-82 152 -155 18 -80 -9 -443 -55 -737 -17 -107 -34 -148 -78 -191 -56 -54
-116 -64 -302 -51 -277 20 -712 85 -883 131 -95 26 -142 50 -180 94 -63 72
-65 147 -12 501 53 365 75 437 144 490 78 59 116 61 471 24z m-7263 -245 c17
-36 0 -59 -42 -59 -42 0 -59 23 -42 59 9 20 19 26 42 26 23 0 33 -6 42 -26z
m10201 -31 c-15 -6 -18 -63 -3 -63 6 0 10 4 10 8 0 5 17 18 39 29 34 18 42 19
75 8 94 -32 190 -113 250 -208 29 -47 67 -157 82 -237 19 -107 21 -102 -34
-94 -31 4 -66 1 -100 -9 l-52 -16 -6 25 c-4 14 -4 28 0 31 3 4 6 -3 6 -15 0
-13 6 -22 16 -22 13 0 15 8 9 43 -11 73 -46 171 -56 156 -7 -12 -9 -11 -9 1 0
12 -2 12 -9 1 -6 -9 -11 -10 -15 -2 -4 6 -4 16 0 23 4 6 3 9 -2 6 -5 -3 -18 6
-29 21 -12 16 -13 21 -3 13 12 -10 18 -10 27 2 10 12 6 22 -22 53 -28 30 -37
35 -49 25 -8 -6 -18 -9 -21 -5 -4 3 -7 1 -7 -6 0 -7 -4 -9 -10 -6 -5 3 -10 32
-11 63 l-1 57 -16 -48 c-15 -46 -17 -48 -46 -41 -17 3 -35 10 -40 14 -4 4 -5
51 -1 104 6 80 10 96 24 95 10 0 11 -2 4 -6z m2645 -55 c30 -30 3 -83 -39 -76
-32 5 -45 31 -31 62 13 28 49 35 70 14z m-11604 -20 c16 -26 -4 -53 -40 -53
-23 0 -30 5 -32 23 -2 13 -1 30 2 38 8 20 56 14 70 -8z m4888 -68 c142 -37
272 -107 368 -196 l45 -42 -9 -104 c-5 -57 -9 -104 -10 -105 -1 -1 -29 9 -62
22 -87 36 -110 31 -44 -9 76 -46 120 -85 120 -105 0 -10 17 -46 39 -82 21 -35
42 -79 45 -96 l7 -33 -53 24 c-93 41 -184 59 -303 58 -265 0 -497 -112 -618
-297 l-39 -60 5 145 c4 108 12 170 31 245 45 178 124 398 211 589 l36 79 77
-6 c42 -4 112 -15 154 -27z m-2397 -112 c14 -63 32 -86 87 -106 44 -17 49 -22
33 -28 -77 -28 -86 -35 -105 -76 -11 -24 -20 -51 -20 -61 0 -31 -17 -10 -30
38 -11 41 -48 85 -71 85 -4 0 -20 5 -36 11 l-28 11 53 20 c46 17 57 26 73 62
10 22 19 49 19 59 0 29 18 19 25 -15z m5770 -33 c195 -41 395 -153 475 -265
l21 -29 -21 -80 c-41 -160 -133 -396 -200 -511 -136 -233 -303 -378 -562 -484
-85 -35 -300 -96 -338 -96 -19 0 -19 2 2 48 30 66 36 214 13 302 -46 178 -192
359 -355 439 -47 23 -113 47 -148 54 -34 6 -62 14 -62 17 0 7 173 106 310 179
150 78 276 120 388 129 64 4 79 8 57 13 -47 10 -177 10 -235 -1 -29 -6 -55 -8
-58 -6 -2 3 2 49 9 103 l14 98 45 22 c68 34 163 64 248 79 97 17 289 12 397
-11z m713 -4 c11 -7 11 -9 -1 -14 -9 -3 -18 1 -21 9 -6 16 2 18 22 5z m120
-120 c23 -53 40 -135 23 -111 -9 13 -11 13 -11 -2 0 -9 -7 -29 -17 -45 -19
-34 -89 -77 -97 -59 -2 6 -5 -13 -5 -43 -2 -94 -8 -52 -16 98 -4 90 -3 141 2
138 12 -7 50 35 63 67 6 17 4 28 -8 42 -9 10 -3 6 15 -10 17 -16 40 -49 51
-75z m-131 52 c-3 -10 -5 -4 -5 12 0 17 2 24 5 18 2 -7 2 -21 0 -30z m-79
-548 l-3 -200 -54 -18 c-54 -18 -171 -35 -171 -24 0 3 16 43 36 89 50 116 111
295 138 408 13 52 27 109 32 125 13 49 25 -154 22 -380z m249 333 c-3 -7 -5
-2 -5 12 0 14 2 19 5 13 2 -7 2 -19 0 -25z m6241 -11 c22 -44 0 -93 -43 -97
-58 -6 -85 14 -85 64 0 72 97 97 128 33z m-5980 -3 c26 -5 31 -11 36 -49 15
-100 -25 -329 -76 -428 l-19 -38 -44 49 c-24 26 -62 57 -84 67 -23 10 -41 21
-41 24 0 3 9 29 19 56 21 54 41 179 41 249 0 42 1 43 48 59 53 18 76 20 120
11z m-288 -108 c8 -2 18 2 22 8 13 20 8 -77 -7 -143 -19 -80 -58 -153 -103
-192 -19 -17 -36 -29 -38 -27 -2 2 0 74 3 161 5 140 8 157 25 162 10 4 23 15
29 27 8 14 17 18 32 13 12 -3 29 -7 37 -9z m3799 -250 c12 -13 49 -31 82 -41
l60 -19 -62 -22 c-34 -12 -71 -32 -82 -42 -11 -11 -30 -57 -42 -102 l-21 -83
-13 58 c-27 119 -52 149 -148 176 l-45 12 61 23 c34 12 71 30 81 39 20 18 44
83 56 150 l7 40 22 -83 c12 -47 31 -92 44 -106z m-7695 54 c90 -23 153 -55
218 -110 190 -163 232 -510 61 -510 -54 0 -90 42 -112 130 -23 88 -50 151 -85
199 -25 33 -26 34 -26 10 0 -13 14 -80 30 -149 57 -238 29 -340 -91 -340 -59
0 -93 41 -159 186 -29 66 -55 121 -57 124 -13 14 13 -88 49 -194 l39 -119 -29
-29 c-36 -37 -93 -46 -144 -25 -45 19 -93 82 -153 201 -25 48 -45 83 -45 76 0
-33 36 -143 66 -203 l34 -68 -36 -15 c-81 -34 -189 25 -272 150 -59 87 -96
197 -96 280 1 178 197 354 459 411 94 21 258 19 349 -5z m396 -25 c184 -47
482 -91 887 -131 l53 -5 -82 -41 c-113 -57 -230 -172 -282 -278 -40 -82 -61
-175 -51 -221 6 -27 2 -35 -34 -65 -79 -68 -187 -255 -249 -429 l-28 -80 -59
-13 c-192 -43 -324 -79 -429 -118 -66 -24 -121 -42 -123 -41 -1 2 4 35 12 73
8 38 14 92 14 119 l0 50 -20 -70 c-48 -172 -272 -540 -497 -815 -10 -12 -11
-3 -6 50 12 124 -32 313 -106 460 -121 241 -325 410 -560 465 -78 18 -198 72
-207 91 -6 17 50 182 97 278 54 115 126 219 202 294 56 55 143 122 159 122 3
0 11 -37 18 -82 39 -252 168 -444 334 -493 67 -20 103 -19 154 5 39 17 46 18
78 5 40 -18 112 -19 152 -4 15 5 42 24 59 40 29 28 33 29 76 20 94 -21 190 39
217 135 6 21 13 28 27 25 66 -12 114 -11 146 2 57 24 108 108 108 178 0 46 23
35 81 -36 29 -36 54 -65 57 -65 9 0 -72 125 -105 161 -13 14 -30 52 -38 85
-23 88 -70 177 -127 239 -30 33 -53 69 -58 91 -8 34 -7 35 13 29 12 -3 65 -17
117 -30z m1558 -34 c187 -58 358 -222 422 -403 27 -77 42 -182 34 -237 -9 -61
-40 -144 -62 -164 -17 -15 -172 -37 -172 -24 0 3 10 23 23 44 19 33 22 52 21
138 0 84 -5 111 -27 169 -74 188 -242 334 -451 391 l-80 22 70 41 c80 49 126
53 222 23z m2090 -106 c17 -19 32 -40 32 -46 0 -6 -25 -35 -55 -65 -39 -37
-86 -68 -158 -103 -143 -70 -144 -70 -153 -24 -3 21 -15 53 -26 72 -10 18 -18
34 -16 35 2 1 37 18 78 38 51 25 94 56 135 97 l59 60 35 -15 c20 -8 51 -30 69
-49z m-2272 -49 c97 -35 170 -84 241 -161 97 -104 143 -209 143 -324 -1 -150
-75 -213 -285 -240 -77 -10 -99 -18 -150 -51 -90 -58 -131 -73 -193 -68 -41 4
-60 11 -80 32 -52 52 -28 170 55 273 25 30 43 57 40 59 -2 3 -27 -16 -55 -41
-51 -46 -122 -166 -122 -206 0 -25 -40 -34 -84 -19 -39 13 -83 58 -92 97 -18
71 21 197 89 286 47 61 33 61 -25 -1 -58 -62 -93 -123 -114 -199 -19 -68 -28
-74 -75 -46 -78 46 -91 181 -28 309 79 162 272 289 499 328 51 9 174 -6 236
-28z m4219 -111 c0 -25 -4 -31 -26 -33 -29 -3 -44 18 -33 50 4 14 13 18 32 16
23 -2 27 -8 27 -33z m-2326 -20 c13 -26 21 -58 19 -77 -3 -31 -6 -33 -63 -45
-33 -7 -99 -15 -147 -18 -83 -5 -87 -5 -106 19 -18 23 -20 24 -36 8 -10 -9 2
13 25 51 37 58 47 67 73 68 17 0 69 9 116 19 47 10 88 18 91 19 3 1 16 -19 28
-44z m403 -144 c-5 -92 6 -133 50 -180 l32 -34 -150 6 c-82 4 -175 10 -206 13
-54 6 -58 9 -58 33 0 56 9 66 78 90 79 27 173 78 222 120 19 17 35 30 36 31 0
0 -1 -35 -4 -79z m-479 -38 c-7 -2 -21 -2 -30 0 -10 3 -4 5 12 5 17 0 24 -2
18 -5z m-70 -10 c-7 -2 -19 -2 -25 0 -7 3 -2 5 12 5 14 0 19 -2 13 -5z m-8329
-159 c46 -206 69 -236 230 -286 l99 -30 -84 -28 c-189 -61 -203 -78 -255 -315
l-17 -80 -22 100 c-12 55 -27 117 -34 138 -27 82 -93 127 -243 165 l-71 19 69
17 c102 25 189 70 214 111 21 33 80 247 80 288 0 39 10 10 34 -99z m8451 44
c-37 -236 -127 -450 -252 -596 -161 -188 -432 -316 -811 -382 -122 -21 -402
-53 -409 -46 -2 2 0 30 6 62 17 105 23 207 12 199 -6 -3 -11 -14 -11 -24 0
-26 -80 -259 -140 -406 -70 -173 -166 -374 -246 -515 -104 -183 -99 -182 -100
-32 -1 98 -6 145 -23 206 -55 199 -170 374 -320 488 -132 100 -319 168 -461
168 -36 0 -106 5 -156 12 l-91 12 10 40 c45 194 112 375 182 494 32 56 108
153 124 159 3 2 13 -10 22 -26 18 -31 91 -71 132 -71 19 0 31 -8 41 -29 32
-61 105 -101 187 -101 28 0 41 -6 54 -26 24 -37 90 -64 155 -63 67 0 109 14
197 67 57 33 79 41 139 45 39 3 97 15 130 28 48 17 77 21 154 20 218 -5 518
65 737 171 l82 40 45 -26 c24 -14 72 -53 106 -87 l63 -62 -24 43 c-13 24 -50
70 -81 104 -32 33 -56 60 -55 61 1 1 32 24 69 53 l67 51 143 -5 c79 -3 172 -1
208 4 36 5 78 10 93 11 28 1 29 0 22 -41z m-5123 -417 c89 -23 160 -57 243
-116 136 -97 232 -229 333 -455 20 -44 2 46 -24 124 -41 119 -132 260 -211
325 -45 37 -34 39 51 7 169 -64 319 -199 420 -379 131 -235 162 -529 71 -662
-89 -130 -219 -257 -315 -309 l-48 -26 15 43 c29 81 -12 241 -112 438 -214
425 -497 693 -790 746 -75 14 -100 14 -159 4 -39 -6 -85 -20 -103 -31 -40 -24
-41 -19 -4 45 114 199 394 307 633 246z m5919 -161 c24 -13 37 -25 33 -32 -4
-7 -3 -8 4 -4 7 4 20 2 29 -4 17 -11 17 -11 1 -6 -10 3 -22 -2 -27 -12 -8 -14
-10 -14 -11 -2 0 12 -2 13 -9 1 -10 -15 18 -51 33 -43 5 3 6 -1 1 -8 -4 -7 -2
-16 6 -22 10 -7 7 -7 -8 -3 -15 4 -23 2 -23 -6 0 -7 -3 -9 -6 -6 -4 4 -1 13 6
22 11 13 10 14 -4 9 -19 -7 -18 -50 1 -47 7 2 10 -4 6 -12 -4 -13 -8 -13 -22
4 -13 15 -19 16 -28 6 -6 -7 -9 -16 -6 -19 4 -3 1 -6 -5 -6 -7 0 -12 5 -12 11
0 6 -7 9 -15 6 -8 -4 -17 -1 -21 5 -4 6 -3 8 4 4 17 -10 24 11 8 27 -17 17
-11 28 10 20 8 -3 14 -1 14 5 0 15 -28 23 -34 9 -2 -7 -5 -4 -5 6 -1 9 5 17
12 18 10 0 10 2 0 6 -7 2 -13 14 -13 26 0 18 2 19 11 7 9 -13 10 -13 6 0 -2 8
-12 15 -23 15 -10 0 -18 6 -16 13 1 6 -1 11 -5 11 -5 -1 -19 0 -33 1 -14 2 2
6 35 10 33 4 61 7 63 8 1 1 21 -7 43 -18z m129 -76 c0 -2 -9 0 -20 6 -11 6
-20 13 -20 16 0 2 9 0 20 -6 11 -6 20 -13 20 -16z m-226 1 c-4 -8 -1 -21 4
-28 7 -8 7 -18 2 -27 -8 -12 -10 -10 -10 8 0 13 -4 21 -9 18 -4 -3 -6 6 -3 19
2 14 8 25 13 25 5 0 6 -7 3 -15z m359 -78 c12 -10 16 -15 8 -11 -9 4 -12 3 -7
-4 4 -6 14 -8 23 -5 12 5 14 3 8 -7 -5 -9 -4 -11 3 -6 10 6 92 -40 92 -51 0
-3 -12 3 -27 12 -19 13 -28 14 -31 6 -2 -6 -8 -9 -13 -5 -5 3 -9 0 -9 -6 0 -6
-3 -9 -7 -7 -5 3 -24 -6 -43 -19 -19 -13 -29 -24 -22 -24 7 0 12 -4 12 -9 0
-5 -8 -7 -19 -4 -13 3 -17 11 -14 24 3 10 9 16 14 13 5 -3 9 -2 8 3 -3 19 2
27 10 14 6 -9 11 -10 15 -2 4 6 2 11 -4 11 -6 0 -8 6 -4 13 4 6 4 9 -1 5 -5
-5 -15 1 -22 12 -8 11 -19 18 -24 15 -5 -4 -10 1 -10 9 -1 9 -2 26 -3 39 -1
15 -7 22 -19 21 -10 -1 -16 0 -13 4 3 3 -2 11 -12 19 -9 8 7 2 36 -14 28 -15
62 -36 75 -46z m-681 21 c-8 -8 -9 -4 -5 13 4 13 8 18 11 10 2 -7 -1 -18 -6
-23z m93 12 c10 -11 22 -17 28 -13 6 4 7 1 3 -6 -5 -7 -14 -10 -21 -7 -17 6
-28 -21 -13 -30 7 -4 8 -3 4 4 -4 7 -2 12 3 12 6 0 11 -4 11 -10 0 -5 5 -10
11 -10 5 0 7 5 4 10 -10 16 11 12 25 -5 11 -13 10 -14 -4 -9 -9 3 -16 1 -16
-5 0 -6 5 -11 12 -11 6 0 8 -3 5 -6 -4 -4 -13 -1 -21 5 -14 12 -15 10 -7 -28
1 -2 12 4 26 13 23 15 30 13 26 -8 -1 -5 5 -16 14 -26 14 -15 13 -17 -6 -15
-12 1 -28 10 -35 20 -8 11 -14 13 -14 6 0 -9 -5 -8 -16 3 -8 9 -21 13 -27 9
-8 -4 -8 -2 1 9 10 12 10 17 -1 27 -8 6 -17 8 -20 5 -4 -4 -4 4 -2 16 3 18 2
21 -7 12 -20 -20 -28 -13 -18 14 6 14 8 29 6 33 -10 16 34 8 49 -9z m-5955
-65 c140 -33 324 -152 436 -281 65 -76 108 -134 103 -138 -2 -2 -65 -10 -139
-16 -190 -18 -433 -6 -637 31 l-61 11 -21 77 c-50 185 -14 274 129 324 30 11
127 6 190 -8z m6514 -31 c3 -7 -2 -17 -11 -22 -18 -10 -24 -71 -9 -90 5 -7
-14 1 -43 19 -45 28 -50 34 -34 43 10 5 24 15 31 22 7 7 19 11 27 7 11 -4 13
-1 9 11 -4 10 -13 15 -20 12 -7 -3 -15 -2 -18 2 -3 4 11 8 29 9 20 0 36 -5 39
-13z m-251 -11 c-7 -2 -21 -2 -30 0 -10 3 -4 5 12 5 17 0 24 -2 18 -5z m-493
-16 c0 -2 -12 -14 -27 -28 l-28 -24 24 28 c23 25 31 32 31 24z m340 -52 c9
-10 9 -15 1 -15 -6 0 -11 4 -11 8 0 4 -9 8 -19 8 -11 0 -19 -5 -18 -11 1 -5
-4 -9 -12 -7 -12 3 -12 1 0 -14 10 -13 11 -18 2 -21 -7 -2 -9 -11 -6 -19 7
-19 -2 -18 -22 2 -12 12 -13 19 -4 30 6 7 8 18 4 24 -4 6 -1 9 7 8 7 -2 12 2
11 7 -3 17 53 17 67 0z m-400 1 c0 -2 -8 -10 -17 -17 -16 -13 -17 -12 -4 4 13
16 21 21 21 13z m375 -35 c-3 -6 -11 -8 -17 -5 -6 4 -5 9 3 15 16 10 23 4 14
-10z m750 -32 c-4 -5 0 -6 8 -3 25 9 38 -20 20 -45 -12 -18 -17 -20 -24 -10
-5 9 -9 10 -9 3 0 -7 -7 -15 -16 -18 -13 -5 -15 -2 -11 13 3 14 1 18 -9 14 -8
-3 -14 0 -14 6 0 16 4 26 10 24 9 -3 6 41 -4 56 -5 8 5 5 22 -8 18 -12 30 -27
27 -32z m-1065 37 c0 -3 -4 -8 -10 -11 -5 -3 -10 -1 -10 4 0 6 5 11 10 11 6 0
10 -2 10 -4z m45 -25 c3 -5 2 -12 -3 -15 -5 -3 -9 1 -9 9 0 17 3 19 12 6z
m716 -8 c13 -16 12 -17 -3 -4 -10 7 -18 15 -18 17 0 8 8 3 21 -13z m-3903 -8
c113 -23 243 -90 330 -170 94 -87 153 -167 213 -289 54 -111 60 -113 28 -10
-57 188 -187 353 -359 458 l-45 28 40 -7 c67 -11 206 -68 269 -110 137 -91
249 -226 313 -377 54 -129 68 -204 68 -365 l0 -142 -63 -123 c-64 -128 -167
-269 -231 -317 -31 -23 -34 -24 -26 -6 20 49 17 159 -9 260 -68 266 -279 573
-500 724 -210 145 -491 183 -637 86 -21 -14 -39 -22 -39 -19 0 4 16 41 36 83
27 56 56 95 109 148 82 82 157 123 270 147 92 19 140 19 233 1z m3387 -11 c11
-9 14 -14 6 -14 -8 0 -11 -6 -7 -15 5 -13 2 -14 -15 -4 -11 6 -18 13 -15 16 3
3 -2 11 -10 18 -15 10 -15 12 2 12 11 0 28 -6 39 -13z m-65 -4 c0 -5 -2 -10
-4 -10 -3 0 -8 5 -11 10 -3 6 -1 10 4 10 6 0 11 -4 11 -10z m107 -42 c-3 -8
-6 -5 -6 6 -1 11 2 17 5 13 3 -3 4 -12 1 -19z m-152 -28 c3 -6 -1 -10 -9 -10
-8 0 -20 9 -26 21 -11 19 -10 20 9 10 11 -6 23 -16 26 -21z m41 -5 c-14 -11
-13 -13 7 -23 17 -8 18 -11 5 -11 -18 -1 -31 14 -35 38 -3 24 8 33 24 20 13
-12 13 -14 -1 -24z m821 13 c-3 -8 -6 -5 -6 6 -1 11 2 17 5 13 3 -3 4 -12 1
-19z m-309 -69 c18 -6 31 -13 29 -15 -2 -3 -16 0 -31 5 -26 10 -32 5 -26 -24
1 -5 -2 -7 -5 -3 -4 4 -15 3 -25 -2 -12 -6 -17 -5 -17 5 0 8 4 12 9 9 4 -3 5
2 1 12 -5 15 -7 14 -16 -2 -14 -27 -14 -26 -42 -29 -14 -2 -28 2 -32 7 -3 7
-1 8 5 4 15 -9 15 -1 2 25 -13 23 5 63 23 53 7 -4 3 3 -8 15 -16 18 -7 16 40
-13 33 -20 75 -41 93 -47z m575 34 c-7 -2 -19 -2 -25 0 -7 3 -2 5 12 5 14 0
19 -2 13 -5z m70 0 c-7 -2 -21 -2 -30 0 -10 3 -4 5 12 5 17 0 24 -2 18 -5z
m44 -9 c-3 -3 -12 -4 -19 -1 -8 3 -5 6 6 6 11 1 17 -2 13 -5z m-12024 -41 c10
-10 17 -31 17 -55 0 -49 -28 -78 -75 -78 -47 0 -75 29 -75 78 0 72 78 104 133
55z m10827 11 c0 -2 -7 -4 -15 -4 -8 0 -15 4 -15 10 0 5 7 7 15 4 8 -4 15 -8
15 -10z m33 3 c3 -8 0 -14 -7 -14 -7 0 -13 6 -13 14 0 7 4 13 8 13 4 0 9 -6
12 -13z m-138 -25 c-3 -3 -11 0 -18 7 -9 10 -8 11 6 5 10 -3 15 -9 12 -12z
m-598 2 c-3 -3 -12 -4 -19 -1 -8 3 -5 6 6 6 11 1 17 -2 13 -5z m767 -39 c-29
-22 -40 -18 -14 5 13 11 26 18 28 15 3 -3 -3 -12 -14 -20z m4956 -13 c27 -33
25 -75 -4 -108 -29 -35 -87 -37 -120 -5 -27 27 -28 91 -2 120 33 36 95 33 126
-7z m-5385 10 c-3 -3 -11 0 -18 7 -9 10 -8 11 6 5 10 -3 15 -9 12 -12z m295
14 c0 -3 -4 -8 -10 -11 -5 -3 -10 -1 -10 4 0 6 5 11 10 11 6 0 10 -2 10 -4z
m-775 -21 c-16 -7 -46 -15 -65 -19 -24 -3 -17 1 20 13 64 22 89 25 45 6z m583
2 c14 4 14 3 2 -5 -16 -12 -30 -7 -29 11 0 9 2 9 5 0 3 -7 13 -9 22 -6z m589
-15 c-10 -10 -14 -23 -10 -28 4 -5 1 -3 -7 3 -12 11 -11 15 6 28 26 20 30 19
11 -3z m1254 -152 c204 -203 342 -429 379 -624 12 -58 -8 -102 -49 -111 -60
-13 -225 54 -350 142 -79 55 -227 203 -260 259 l-23 39 29 -26 c129 -117 122
-113 168 -123 l29 -7 -19 22 c-11 12 5 3 35 -21 65 -51 164 -100 202 -100 39
0 62 38 53 87 -7 43 -62 156 -108 223 -77 113 -239 254 -325 284 -34 12 -35
14 -14 20 12 4 22 14 22 22 0 8 5 14 11 14 6 0 17 7 26 16 9 8 22 13 30 10 8
-4 11 -1 8 5 -4 6 -14 8 -23 4 -9 -3 -13 -3 -9 1 4 4 1 14 -6 23 -36 45 103
-69 194 -159z m-1921 135 c0 -2 -6 -5 -13 -8 -8 -3 -14 1 -14 8 0 7 6 11 14 8
7 -3 13 -6 13 -8z m373 0 c-3 -9 -8 -14 -10 -11 -3 3 -2 9 2 15 9 16 15 13 8
-4z m-5778 -39 c197 -1 282 3 314 12 37 11 46 11 53 0 5 -7 38 -62 73 -123
l65 -110 -72 -13 c-112 -19 -487 -18 -637 3 -69 9 -128 18 -133 21 -21 13
-148 225 -148 247 0 2 48 -6 108 -17 88 -16 154 -19 377 -20z m6042 8 c-3 -3
-12 -4 -19 -1 -8 3 -5 6 6 6 11 1 17 -2 13 -5z m-34 -29 c-3 -9 -8 -14 -10
-11 -3 3 -2 9 2 15 9 16 15 13 8 -4z m-379 -14 c4 -5 -1 -8 -9 -7 -21 3 -31
16 -12 16 9 0 18 -4 21 -9z m-1137 -23 c17 -2 5 -18 -13 -18 -8 0 -14 -6 -14
-12 0 -9 -2 -10 -8 -2 -4 6 -18 14 -32 18 -18 5 -21 5 -10 -3 16 -11 8 -27 -9
-16 -33 20 8 49 54 38 11 -2 25 -5 32 -5z m1072 -14 c-9 -11 -8 -14 4 -14 8 0
18 -6 21 -12 3 -7 3 -2 -1 12 -5 21 -4 23 9 13 8 -7 18 -10 21 -6 4 3 7 2 7
-4 0 -5 -9 -18 -19 -27 -12 -11 -17 -25 -14 -34 5 -11 2 -14 -9 -10 -9 4 -21
1 -27 -5 -8 -8 -14 -8 -19 -2 -7 10 -33 16 -67 16 -16 0 -17 2 -5 9 8 5 18 6
22 4 4 -3 8 0 8 5 0 6 -5 11 -11 11 -8 0 -8 4 1 14 6 8 19 12 27 9 12 -5 15
-2 10 10 -3 9 -3 16 1 16 24 -4 42 2 36 13 -4 7 -3 8 5 4 9 -6 9 -11 0 -22z
m306 16 c3 -5 1 -10 -4 -10 -6 0 -11 5 -11 10 0 6 2 10 4 10 3 0 8 -4 11 -10z
m498 -5 c-3 -9 -8 -14 -10 -11 -3 3 -2 9 2 15 9 16 15 13 8 -4z m-1986 -11
c-3 -3 -12 -4 -19 -1 -8 3 -5 6 6 6 11 1 17 -2 13 -5z m2020 0 c-3 -3 -12 -4
-19 -1 -8 3 -5 6 6 6 11 1 17 -2 13 -5z m-2057 -14 c0 -5 -7 -7 -15 -4 -8 4
-15 8 -15 10 0 2 7 4 15 4 8 0 15 -4 15 -10z m-2117 -49 c153 -58 284 -156
402 -304 55 -69 63 -82 48 -88 -37 -14 -331 -30 -432 -24 -144 8 -279 23 -382
41 l-87 16 -11 55 c-14 71 -14 183 0 220 15 42 48 73 104 100 46 22 60 24 160
20 94 -3 123 -8 198 -36z m2140 24 c4 -8 3 -16 -1 -19 -4 -3 -9 4 -9 15 -2 23
3 25 10 4z m67 -5 c0 -5 -2 -10 -4 -10 -3 0 -8 5 -11 10 -3 6 -1 10 4 10 6 0
11 -4 11 -10z m1215 1 c3 -5 2 -12 -3 -15 -5 -3 -9 1 -9 9 0 17 3 19 12 6z
m395 -1 c0 -5 -5 -10 -11 -10 -5 0 -7 5 -4 10 3 6 8 10 11 10 2 0 4 -4 4 -10z
m-422 -62 c8 2 6 -4 -5 -17 -18 -22 -28 -28 -18 -11 3 6 1 10 -6 10 -7 0 -9 3
-6 7 4 3 -1 12 -11 20 -15 12 -14 13 8 1 14 -7 31 -11 38 -10z m-5996 -151
l24 -29 -77 -75 c-58 -56 -75 -79 -72 -94 5 -19 7 -19 24 -3 11 9 19 12 19 6
0 -5 10 -8 23 -5 19 4 19 2 -5 -12 -19 -10 -25 -21 -22 -33 5 -14 4 -14 -4 -2
-8 10 -8 18 0 27 15 18 0 16 -18 -2 -9 -8 -11 -15 -6 -15 5 0 9 -7 9 -15 0 -8
-4 -15 -9 -15 -5 0 -7 -8 -4 -17 3 -10 1 -25 -4 -33 -9 -13 -11 -13 -20 0 -5
8 -10 20 -10 25 0 6 5 3 10 -5 5 -8 10 -10 10 -4 0 16 -10 23 -26 17 -8 -3
-11 -10 -7 -17 3 -6 -4 -2 -18 9 -13 11 -19 13 -12 6 9 -11 9 -17 -2 -27 -18
-18 -29 -18 -22 0 4 11 0 12 -21 6 -16 -4 -26 -13 -26 -23 1 -9 -2 -14 -7 -11
-5 3 -9 -2 -9 -10 0 -9 -5 -16 -12 -16 -6 0 -8 -3 -5 -7 4 -3 2 -12 -4 -19 -7
-8 -6 -14 2 -20 7 -4 9 -3 5 4 -3 6 -2 13 2 16 5 3 15 -6 22 -19 7 -13 18 -21
24 -18 6 3 1 -5 -12 -19 -20 -22 -20 -25 -5 -25 10 0 24 5 32 11 12 9 12 8 3
-10 -9 -16 -8 -21 3 -21 8 0 11 5 8 10 -4 7 1 7 13 3 10 -5 25 -9 32 -9 7 0
10 -7 7 -16 -3 -8 -3 -12 1 -8 4 4 14 1 23 -6 14 -11 14 -10 2 6 -7 9 -10 17
-5 17 5 0 3 4 -5 9 -8 5 -9 11 -3 15 12 7 45 -22 38 -33 -3 -4 1 -8 9 -8 18 0
2 33 -28 57 -12 10 -17 22 -13 29 6 9 11 9 21 1 10 -8 14 -8 17 1 3 8 9 9 19
3 19 -12 51 -12 67 0 11 8 12 4 5 -20 -4 -16 -8 -57 -8 -91 1 -45 -2 -57 -10
-47 -13 19 -60 12 -59 -9 1 -9 -4 -13 -12 -10 -8 3 -14 0 -14 -6 0 -6 4 -11 8
-11 13 0 12 -93 -1 -110 -7 -8 4 -2 23 12 25 18 41 23 55 18 11 -4 24 -5 29
-2 5 3 6 0 2 -6 -4 -7 -2 -12 4 -12 6 0 9 -4 5 -9 -3 -5 4 -12 15 -16 23 -7
27 -22 5 -22 -8 0 -12 4 -9 9 3 4 3 8 0 8 -18 0 -13 -24 9 -44 19 -18 23 -26
13 -32 -7 -4 -10 -4 -6 1 4 4 0 14 -10 21 -23 18 -33 17 -25 -3 4 -10 2 -14
-4 -10 -7 4 -9 0 -6 -11 4 -17 -32 -70 -42 -60 -3 3 1 11 10 18 8 7 15 17 15
23 0 5 -8 3 -18 -6 -21 -20 -32 -22 -32 -6 0 5 6 7 13 3 7 -5 7 -1 -3 12 -22
29 -24 30 -18 14 6 -16 -8 -33 -32 -38 -11 -3 -11 0 0 13 11 13 10 14 -5 9
-14 -6 -16 -4 -10 6 6 10 4 12 -8 7 -20 -7 -21 -3 -7 24 12 22 1 25 -20 7 -12
-11 -12 -10 -2 3 7 9 11 23 10 30 -4 19 -40 28 -57 15 -11 -8 -13 -8 -8 1 12
20 -4 44 -24 38 -11 -4 -19 -2 -19 5 0 6 4 9 9 5 5 -3 12 -1 16 5 3 5 1 10 -4
10 -6 0 -11 5 -11 11 0 6 7 8 16 5 8 -3 12 -2 9 4 -9 14 9 12 23 -2 16 -16 15
-28 0 -24 -7 1 -10 1 -5 -1 4 -3 5 -9 1 -14 -3 -5 -2 -9 3 -8 25 4 44 -2 37
-13 -4 -7 1 -6 12 3 10 9 25 14 33 11 8 -2 11 0 7 6 -3 6 -1 12 5 14 7 2 -4 4
-24 4 -21 0 -37 -4 -37 -8 0 -4 -5 -8 -12 -8 -9 0 -9 3 0 12 9 9 7 14 -6 24
-16 13 -16 13 1 14 9 0 17 -5 17 -11 0 -5 4 -8 9 -5 5 4 11 0 14 -6 3 -7 4 -3
4 9 -1 12 -5 19 -10 16 -4 -2 -14 1 -22 7 -8 7 -15 9 -15 6 0 -4 -9 -2 -20 4
-25 13 -71 3 -49 -11 12 -8 12 -11 -1 -19 -8 -5 -23 -7 -32 -4 -25 7 -23 -18
2 -36 14 -10 16 -16 7 -22 -9 -6 -9 -10 1 -16 9 -6 5 -12 -14 -21 -24 -11 -26
-10 -14 3 7 9 9 16 5 16 -4 0 -1 7 6 17 12 14 12 16 -1 11 -8 -2 -15 -11 -15
-19 0 -8 -8 -19 -18 -25 -18 -10 -18 -12 -2 -27 12 -13 14 -21 5 -34 -10 -17
-10 -16 -8 2 2 12 -2 19 -10 17 -8 -1 -11 2 -8 7 4 5 1 13 -4 16 -8 5 -5 14 6
26 17 19 17 20 -1 13 -13 -5 -16 -4 -11 4 4 7 2 12 -3 12 -6 0 -11 -5 -11 -11
0 -7 -10 -5 -25 5 -15 10 -25 12 -25 6 0 -6 -6 -8 -12 -4 -7 4 -2 -4 10 -18
23 -26 23 -26 3 -33 -11 -3 -18 -12 -15 -19 4 -9 -3 -13 -20 -11 -14 2 -26 -1
-26 -6 0 -5 -4 -9 -9 -9 -5 0 -7 10 -5 23 2 12 2 16 -2 10 -3 -7 -10 -13 -15
-13 -6 0 -7 6 -3 13 5 8 2 8 -9 -2 -20 -16 -22 -22 -5 -18 7 1 17 -8 23 -20 5
-13 13 -23 17 -23 5 0 8 -5 8 -11 0 -5 -4 -7 -10 -4 -5 3 -10 4 -10 1 0 -17
22 -14 28 4 7 19 10 20 23 9 20 -19 42 -23 37 -7 -3 7 -10 13 -16 13 -5 0 -14
3 -18 8 -4 4 7 7 24 7 32 0 56 -20 33 -28 -11 -4 -11 -6 0 -13 10 -6 11 -9 2
-9 -7 0 -13 -4 -13 -10 0 -5 7 -7 16 -3 8 3 13 12 10 19 -3 7 -1 16 3 18 5 3
7 17 6 30 -2 18 1 23 11 19 13 -5 18 -16 15 -38 -1 -5 7 0 18 13 23 26 28 27
47 7 9 -8 25 -15 37 -15 15 -1 11 -5 -15 -14 -21 -8 -50 -22 -65 -32 -16 -11
-33 -19 -39 -19 -6 0 -28 -15 -48 -33 -20 -17 -33 -32 -29 -32 4 0 23 15 42
33 l34 32 -38 -47 c-22 -27 -41 -48 -44 -48 -2 0 -1 3 2 6 7 7 -30 44 -44 44
-4 0 -11 -5 -14 -10 -4 -6 -11 -8 -16 -4 -6 4 -6 11 2 20 17 21 1 17 -24 -7
-17 -15 -18 -19 -4 -14 21 9 22 -8 1 -25 -12 -11 -15 -11 -12 1 2 8 -3 13 -10
11 -8 -1 -11 2 -7 8 3 5 1 10 -4 10 -6 0 -11 -6 -11 -12 0 -9 -4 -8 -10 2 -5
8 -10 13 -11 10 -6 -34 -4 -50 7 -46 8 3 12 -2 11 -14 -1 -10 -4 -17 -8 -14
-4 2 -15 -3 -23 -12 -9 -8 -16 -10 -16 -4 0 6 7 13 15 16 8 4 12 11 8 17 -4 7
-8 20 -8 29 -2 26 -15 35 -25 18 -8 -12 -10 -12 -10 -1 0 11 -3 11 -15 1 -13
-11 -14 -10 -10 3 8 20 -15 33 -27 16 -7 -11 -11 -11 -15 -1 -5 13 -23 7 -23
-9 0 -6 5 -7 10 -4 6 3 10 2 10 -3 0 -5 10 -14 23 -21 12 -6 14 -9 5 -7 -10 3
-20 1 -23 -5 -4 -5 -3 -9 2 -8 4 1 23 1 41 0 23 -1 32 -6 32 -18 0 -15 -2 -16
-10 -3 -8 13 -10 12 -10 -2 0 -10 5 -18 10 -18 6 0 10 -5 10 -11 0 -5 -6 -7
-12 -3 -8 5 -8 1 1 -10 13 -15 13 -19 0 -27 -11 -7 -8 -9 11 -10 14 -1 31 -2
39 -1 18 0 37 -19 44 -44 4 -18 5 -18 6 1 0 12 -4 26 -11 33 -9 9 -9 12 0 12
20 0 27 -4 24 -15 -2 -5 2 -4 9 3 7 6 18 12 23 12 6 0 4 -5 -4 -10 -13 -9 -13
-11 0 -20 24 -16 26 -13 29 37 2 41 0 45 -13 33 -13 -10 -16 -10 -16 3 0 9 7
14 18 13 9 -2 23 4 30 13 10 13 10 11 2 -12 -18 -50 -12 -96 15 -122 30 -31
72 -32 128 -4 28 15 38 17 30 7 -7 -8 -9 -19 -5 -23 4 -5 1 -5 -5 -1 -19 11
-36 -3 -24 -18 8 -9 6 -18 -4 -32 -13 -16 -16 -17 -25 -4 -5 8 -8 20 -6 25 5
15 -44 17 -76 4 -16 -6 -28 -16 -28 -22 0 -7 4 -7 12 1 7 7 16 12 21 12 5 0 2
-6 -5 -13 -7 -7 -24 -13 -38 -13 -14 1 -26 -3 -27 -7 -1 -5 -14 -21 -30 -36
l-29 -27 24 -24 c12 -14 29 -24 37 -22 7 1 17 -3 21 -9 5 -8 3 -9 -6 -4 -7 4
-16 2 -21 -6 -6 -10 -9 -10 -9 -2 0 7 -7 10 -17 6 -11 -5 -14 -3 -8 6 15 26
-17 29 -41 4 -25 -25 -32 -39 -14 -28 13 8 6 -34 -10 -65 -6 -12 -9 -29 -5
-38 6 -16 7 -16 16 1 6 9 7 22 4 28 -4 5 -1 16 5 24 6 8 9 19 6 24 -4 5 -2 12
4 16 5 3 10 1 10 -5 0 -6 5 -8 10 -5 6 3 10 -1 10 -9 0 -9 5 -16 10 -16 18 0
11 -18 -10 -25 -11 -3 -20 -13 -20 -21 0 -8 -4 -13 -9 -9 -10 6 -27 -33 -22
-50 1 -5 -1 -7 -5 -2 -4 4 -17 1 -29 -7 -19 -12 -21 -12 -22 5 -1 12 3 16 13
12 10 -4 12 0 8 11 -8 21 -23 16 -43 -14 -10 -14 -11 -21 -3 -16 6 4 12 2 12
-3 0 -6 -6 -11 -12 -11 -9 0 -8 -4 2 -10 13 -8 13 -10 -2 -10 -9 0 -19 9 -23
19 -3 10 -14 21 -25 24 -16 4 -17 2 -7 -14 6 -10 15 -19 19 -19 5 0 8 -5 8
-11 0 -5 -6 -7 -12 -3 -10 6 -10 5 0 -8 10 -12 10 -18 -2 -27 -8 -7 -12 -19
-9 -27 7 -20 23 -7 17 14 -5 13 -4 14 4 3 7 -9 12 -10 16 -2 4 6 3 11 -2 11
-5 0 -9 7 -9 15 0 21 14 19 20 -4 3 -13 -7 -30 -32 -54 -29 -28 -40 -33 -58
-27 -12 5 -24 18 -28 30 -4 13 -12 19 -21 16 -20 -8 -17 10 4 26 9 7 24 22 32
33 8 11 1 8 -16 -7 -17 -16 -35 -28 -41 -28 -18 0 -23 14 -11 30 8 12 9 12 4
-3 -4 -11 -2 -16 5 -12 6 4 8 13 5 20 -2 7 0 17 4 21 5 5 5 15 0 24 -8 13 -11
13 -22 1 -10 -10 -10 -12 0 -7 14 8 17 -10 3 -19 -6 -3 -14 3 -20 12 -7 13
-10 14 -11 4 0 -8 -3 -11 -7 -7 -4 4 3 16 17 27 l25 20 -32 -16 c-18 -8 -33
-21 -33 -28 -1 -6 -6 -3 -13 9 -7 12 -18 19 -27 16 -13 -5 -13 -3 0 13 14 17
13 18 -5 11 -11 -4 -16 -4 -12 0 4 4 0 18 -9 31 l-15 24 26 -17 c15 -10 31
-28 36 -41 5 -13 13 -23 18 -23 6 0 8 7 4 16 -3 9 0 20 8 26 11 8 10 8 -5 4
-28 -9 -50 12 -34 32 9 11 10 14 1 9 -19 -12 -62 3 -68 24 -7 21 17 63 30 51
5 -4 5 -1 1 6 -6 11 -11 11 -24 0 -14 -11 -15 -10 -8 7 17 46 -23 -12 -66 -95
-57 -110 -70 -143 -58 -135 5 3 10 -1 10 -9 0 -9 -6 -13 -14 -10 -7 3 -16 -2
-20 -11 -7 -20 0 -35 17 -35 7 0 6 4 -3 10 -12 8 -11 10 6 10 26 0 39 27 23
47 -9 11 -9 17 0 26 7 7 12 8 11 2 -6 -31 0 -38 20 -20 11 10 20 13 20 7 0 -7
-5 -12 -11 -12 -5 0 -7 -5 -4 -11 5 -7 14 -4 26 7 10 9 19 15 19 12 0 -8 -38
-49 -44 -49 -23 3 -30 0 -19 -7 6 -4 10 -20 9 -34 -2 -15 1 -25 6 -22 5 3 7
12 4 20 -7 17 6 18 23 2 11 -10 13 -10 7 0 -8 14 10 17 19 2 3 -5 15 -10 25
-10 10 0 22 -6 26 -12 4 -7 4 -10 0 -6 -5 4 -14 2 -21 -5 -10 -9 -9 -14 3 -23
14 -10 14 -13 0 -27 -14 -15 -16 -15 -21 3 -3 11 -10 20 -16 20 -14 0 -14 -27
-1 -35 8 -5 8 -11 1 -19 -8 -9 -7 -13 4 -13 8 0 12 4 9 9 -3 4 -3 8 0 8 2 0
11 3 19 6 9 3 17 -2 20 -13 4 -12 5 -10 5 7 -2 48 2 56 28 58 23 2 24 1 9 -14
-18 -18 -16 -35 5 -42 7 -3 10 0 6 7 -5 8 0 8 18 0 21 -10 24 -15 14 -26 -9
-11 -9 -16 1 -22 9 -6 8 -11 -5 -22 -15 -12 -17 -12 -9 0 6 11 4 13 -11 7 -15
-6 -17 -5 -6 5 6 7 12 19 12 26 0 11 -3 11 -14 1 -8 -7 -12 -22 -10 -32 2 -11
-7 -30 -21 -44 -14 -14 -25 -29 -25 -35 0 -6 -3 -7 -7 -4 -3 4 -12 2 -20 -5
-7 -6 -16 -8 -20 -4 -3 3 -1 6 5 6 7 0 12 6 12 13 0 8 -7 14 -15 14 -8 0 -12
-4 -9 -9 8 -13 -10 -10 -25 5 -11 10 -13 10 -7 0 9 -16 -10 -17 -20 -2 -9 14
15 29 34 21 10 -3 13 -1 8 7 -4 7 -20 10 -35 8 -19 -3 -28 0 -28 9 0 7 3 13 6
12 26 -3 61 4 57 10 -3 5 -6 25 -8 45 -1 21 -6 33 -12 29 -19 -11 -43 -9 -43
4 0 7 4 11 9 8 4 -3 8 0 8 5 0 6 -7 11 -16 11 -8 0 -13 4 -10 9 4 5 -3 7 -14
4 -25 -7 -26 -23 -2 -23 14 0 15 -2 2 -10 -13 -8 -13 -10 0 -10 11 0 11 -3 2
-12 -7 -7 -12 -16 -12 -22 0 -6 5 -5 12 2 7 7 16 12 22 12 5 0 -2 -9 -15 -20
-20 -18 -22 -24 -10 -41 7 -12 10 -24 7 -27 -3 -3 -6 0 -6 7 0 7 -4 9 -10 6
-5 -3 -22 0 -36 8 -17 9 -23 17 -15 21 6 4 11 2 11 -5 0 -7 3 -9 7 -6 3 4 13
1 21 -6 13 -10 14 -9 7 3 -5 8 -8 24 -7 35 3 20 2 20 -13 1 -8 -11 -15 -16
-15 -11 0 5 -5 4 -12 -3 -19 -19 -17 -52 4 -63 21 -11 15 -29 -9 -29 -9 0 -13
3 -10 7 9 9 -12 33 -29 33 -8 0 -11 -6 -8 -15 4 -8 10 -12 15 -9 5 3 9 0 9 -5
0 -18 -19 -12 -31 10 -14 27 -20 20 -57 -71 -17 -41 -44 -106 -60 -145 -44
-106 -46 -113 -25 -118 15 -4 14 -5 -3 -6 -25 -1 -21 8 -85 -174 -27 -76 -56
-151 -65 -168 -8 -17 -13 -33 -11 -36 3 -2 -8 -32 -24 -66 -15 -34 -34 -86
-42 -115 -7 -29 -15 -51 -18 -48 -2 2 -4 -12 -4 -32 -1 -85 -8 -176 -12 -160
-3 14 -9 15 -29 8 -16 -6 -24 -6 -24 1 0 24 -20 -5 -40 -59 -19 -50 -31 -91
-70 -237 l-8 -30 -1 31 c-2 47 36 338 64 491 157 863 578 1758 1151 2443 96
115 327 354 447 462 l88 79 39 -58 c22 -32 50 -71 62 -86z m6084 77 c-7 -15
-13 -19 -18 -11 -4 7 -3 13 2 15 4 2 6 15 4 30 -5 25 -4 26 9 8 10 -14 11 -24
3 -42z m-945 23 c-10 -9 -11 -8 -5 6 3 10 9 15 12 12 3 -3 0 -11 -7 -18z
m2259 -12 c0 -5 -5 -3 -10 5 -5 8 -10 20 -10 25 0 6 5 3 10 -5 5 -8 10 -19 10
-25z m-2940 21 c0 -2 -8 -10 -17 -17 -16 -13 -17 -12 -4 4 13 16 21 21 21 13z
m646 -35 c-8 -12 -36 -4 -36 11 0 5 5 6 10 3 6 -3 10 -1 10 6 0 10 3 10 11 2
6 -6 8 -16 5 -22z m934 8 c0 -14 -17 -10 -23 5 -4 10 -1 13 9 9 7 -3 14 -9 14
-14z m495 -5 c86 -17 283 -112 375 -183 92 -69 216 -201 279 -296 246 -373
264 -731 49 -961 -113 -120 -284 -181 -483 -171 -323 16 -598 169 -818 452
-81 105 -132 202 -178 340 -31 93 -33 109 -33 225 1 103 5 137 23 190 83 240
262 387 511 419 76 10 176 5 275 -15z m-6115 -30 c157 -6 341 3 446 22 29 5
31 3 57 -58 34 -80 58 -150 54 -154 -12 -13 -189 -27 -332 -27 -218 1 -357 16
-397 44 -30 22 -178 186 -178 198 0 4 39 1 88 -6 48 -7 166 -15 262 -19z
m4000 33 c0 -2 -15 -16 -32 -33 l-33 -29 29 33 c28 30 36 37 36 29z m1360 -27
c0 -5 -5 -10 -11 -10 -5 0 -7 5 -4 10 3 6 8 10 11 10 2 0 4 -4 4 -10z m-7346
-16 c34 -33 4 -104 -44 -104 -26 0 -60 34 -60 62 0 49 69 78 104 42z m6443 0
c-3 -3 -12 -4 -19 -1 -8 3 -5 6 6 6 11 1 17 -2 13 -5z m863 -14 c0 -5 -8 -10
-17 -10 -15 0 -16 2 -3 10 19 12 20 12 20 0z m-584 -27 c-7 -7 -26 7 -26 19 0
6 6 6 15 -2 9 -7 13 -15 11 -17z m-3120 -98 c-2 -13 -4 -11 -5 8 -1 19 -5 26
-13 21 -8 -5 -9 -2 -5 10 4 10 7 30 8 44 1 18 4 13 10 -18 5 -25 8 -54 5 -65z
m3034 101 c0 -3 -4 -8 -10 -11 -5 -3 -10 -1 -10 4 0 6 5 11 10 11 6 0 10 -2
10 -4z m195 -26 c3 -6 -1 -7 -9 -4 -18 7 -21 14 -7 14 6 0 13 -4 16 -10z m-55
-10 c3 -1 9 -2 13 -1 5 1 6 -3 2 -9 -8 -14 -18 -13 -41 4 -19 15 -19 15 1 11
11 -2 22 -4 25 -5z m-5110 -82 c30 -35 47 -57 38 -50 -13 10 -19 10 -32 -3
-12 -12 -16 -13 -16 -3 0 11 -2 11 -9 0 -4 -8 -17 -12 -27 -10 -11 2 -18 -2
-16 -10 2 -10 -2 -10 -18 -2 -23 12 -24 16 -8 26 7 4 8 3 4 -4 -4 -7 -2 -12 3
-12 17 0 13 18 -6 29 -17 9 -17 10 -1 16 10 4 16 11 13 15 -2 4 4 15 15 25 15
14 17 21 9 32 -6 7 -10 13 -7 13 2 0 28 -28 58 -62z m5158 49 c8 -9 8 -17 0
-27 -8 -13 -9 -12 -5 2 3 9 -1 19 -9 22 -8 3 -13 2 -10 -2 2 -4 1 -14 -5 -22
-7 -12 -9 -11 -9 6 0 34 19 44 38 21z m-3309 -32 c4 2 22 -6 38 -18 27 -20 29
-24 15 -37 -14 -13 -15 -12 -9 2 4 12 -1 19 -16 24 -26 8 -67 43 -67 58 0 6 7
0 16 -12 8 -12 19 -20 23 -17z m3101 -10 c0 -5 -5 -3 -10 5 -5 8 -10 20 -10
25 0 6 5 3 10 -5 5 -8 10 -19 10 -25z m-800 22 c0 -2 -10 -12 -22 -23 l-23
-19 19 23 c18 21 26 27 26 19z m5355 -17 c24 -27 13 -68 -22 -76 -33 -9 -57 6
-61 38 -6 50 49 76 83 38z m-4487 -24 c26 -16 10 -26 -18 -11 -16 9 -30 17
-30 19 0 5 35 0 48 -8z m70 -30 c-15 -30 -16 -30 -14 -3 0 13 6 24 13 24 9 0
9 -6 1 -21z m-5196 -20 c3 -15 -1 -28 -13 -37 -10 -7 -16 -16 -13 -21 3 -4 -2
-8 -11 -8 -12 0 -15 -6 -10 -20 4 -12 2 -20 -5 -20 -6 0 -9 -3 -7 -7 3 -5 -2
-14 -10 -22 -13 -12 -14 -11 -8 9 5 15 3 20 -3 16 -6 -3 -14 -1 -18 5 -4 8 -3
9 4 5 7 -4 12 -3 12 3 0 6 7 8 15 5 11 -5 13 -2 9 10 -4 10 2 23 15 34 12 9
22 29 23 45 3 33 14 35 20 3z m5308 7 c0 -7 -6 -13 -13 -13 -8 0 -14 6 -14 13
0 8 6 14 14 14 7 0 13 -6 13 -14z m-147 -25 c-8 -14 -19 -8 -20 12 -1 16 1 17
12 7 7 -6 11 -15 8 -19z m-4157 -23 c8 -57 -11 -110 -49 -139 -42 -31 -169
-35 -278 -7 -95 24 -220 83 -299 141 l-55 41 95 -8 c125 -10 443 -7 500 5 77
17 78 16 86 -33z m1284 0 c205 -35 495 -45 665 -23 158 20 143 25 197 -72 26
-47 50 -96 53 -110 6 -25 5 -26 -87 -38 -217 -31 -500 -25 -742 15 l-99 17
-42 90 c-53 113 -61 136 -43 136 7 0 51 -7 98 -15z m-580 1 c0 -2 -8 -10 -17
-17 -16 -13 -17 -12 -4 4 13 16 21 21 21 13z m375 -86 c-3 -5 -1 -10 4 -10 6
0 11 5 11 12 0 18 8 6 35 -57 14 -33 19 -51 10 -41 -8 11 -15 14 -15 8 0 -21
-26 8 -27 31 -1 11 -9 27 -17 36 -9 10 -13 21 -9 24 10 10 15 8 8 -3z m-2335
-71 c0 -5 4 -8 9 -4 5 3 13 0 17 -6 4 -8 3 -9 -4 -5 -7 4 -12 2 -12 -3 0 -6
-5 -11 -11 -11 -5 0 -7 5 -4 10 3 6 1 10 -4 10 -6 0 -11 5 -11 10 0 6 5 10 10
10 6 0 10 -5 10 -11z m120 -23 c0 -2 -8 -10 -17 -17 -16 -13 -17 -12 -4 4 13
16 21 21 21 13z m1580 -51 c-13 -14 -26 -23 -28 -20 -4 4 38 44 47 45 3 0 -6
-11 -19 -25z m-1680 -5 c0 -5 -5 -10 -11 -10 -5 0 -7 5 -4 10 3 6 8 10 11 10
2 0 4 -4 4 -10z m75 -9 c-3 -6 -11 -8 -17 -5 -6 4 -5 9 3 15 16 10 23 4 14
-10z m2707 -40 c136 -15 423 -13 551 4 59 8 112 17 117 20 9 6 46 -101 56
-165 7 -45 9 -45 -167 -61 -142 -13 -376 -6 -538 16 -103 14 -107 16 -140 52
-42 48 -121 153 -121 162 0 4 33 2 73 -5 39 -7 116 -17 169 -23z m-314 -42
c18 -27 27 -47 22 -44 -6 3 -10 2 -10 -2 0 -5 -10 -14 -22 -22 -22 -13 -22
-12 2 14 l25 28 -27 -17 c-26 -17 -26 -17 -24 7 2 13 6 29 10 35 4 6 2 21 -4
32 -21 39 -3 19 28 -31z m-953 -19 c-3 -5 -23 -19 -45 -31 -22 -12 -37 -26
-34 -31 6 -10 -21 -39 -30 -31 -3 3 -14 0 -23 -8 -16 -13 -17 -12 -4 4 16 21
5 21 -29 2 -14 -8 -29 -14 -35 -14 -5 -1 33 22 85 50 52 27 99 54 105 60 12
12 18 12 10 -1z m-1347 -82 c-7 -13 -11 -27 -10 -31 1 -5 -2 -6 -8 -2 -8 5 -7
11 1 21 9 11 8 14 -2 15 -11 0 10 14 29 18 1 1 -3 -9 -10 -21z m-168 2 c0 -5
-2 -10 -4 -10 -3 0 -8 5 -11 10 -3 6 -1 10 4 10 6 0 11 -4 11 -10z m1264 -53
c-13 -8 -20 -21 -19 -36 1 -16 -4 -25 -16 -28 -11 -3 -16 -10 -12 -16 3 -6 1
-7 -5 -3 -6 4 -8 14 -5 23 4 11 3 14 -5 9 -8 -5 -10 -2 -6 8 7 18 -4 20 -24 7
-8 -4 -12 -14 -11 -22 2 -8 -2 -24 -9 -37 -7 -12 -10 -27 -7 -32 3 -5 1 -11
-4 -14 -14 -9 -21 20 -8 34 9 10 9 11 -1 5 -10 -5 -13 -2 -10 11 2 12 11 18
23 17 11 -1 14 0 7 3 -6 3 -10 10 -6 15 3 5 -2 9 -11 9 -9 0 -14 -4 -11 -9 4
-5 -2 -7 -12 -5 -9 3 -28 0 -42 -5 -25 -10 -25 -11 5 -8 27 2 30 -1 29 -28 0
-16 5 -33 11 -37 6 -5 6 -8 -2 -8 -7 0 -10 -7 -6 -16 3 -8 12 -13 19 -10 7 3
20 -1 27 -9 10 -9 18 -10 24 -4 7 7 9 1 7 -18 -2 -15 -5 -42 -6 -60 0 -18 -5
-30 -9 -28 -4 3 -9 -2 -13 -10 -3 -9 0 -15 9 -15 8 0 27 -12 42 -26 l28 -25
-32 22 c-26 18 -41 21 -90 17 -54 -4 -56 -4 -28 8 29 13 30 13 5 15 -14 1 -28
1 -31 1 -6 -1 -8 9 -10 56 -1 15 -6 33 -13 41 -8 12 -8 13 2 7 7 -4 12 -2 12
4 0 7 11 21 25 32 26 20 26 41 0 32 -8 -4 -12 -11 -8 -17 3 -6 1 -7 -6 -3 -6
4 -9 12 -6 17 4 5 1 9 -5 9 -6 0 -8 5 -5 10 4 6 11 7 17 4 6 -4 6 2 -1 15 -7
13 -22 21 -39 22 -15 0 4 8 45 20 40 10 100 30 135 43 69 27 95 32 62 13z
m907 -34 c13 -16 12 -17 -3 -4 -10 7 -18 15 -18 17 0 8 8 3 21 -13z m748 -4
c119 -12 453 -7 545 10 l48 8 -4 -49 c-6 -60 -31 -96 -84 -123 -33 -17 -59
-20 -179 -20 -128 0 -147 2 -220 28 -85 30 -185 85 -250 137 l-40 33 35 -6
c19 -3 86 -11 149 -18z m-2494 -19 c28 -10 43 -19 35 -19 -14 0 -101 36 -90
38 3 1 28 -8 55 -19z m1660 11 c3 -5 2 -12 -3 -15 -5 -3 -9 1 -9 9 0 17 3 19
12 6z m-2228 -23 c-1 -10 -5 -18 -9 -18 -4 0 -8 -7 -8 -16 0 -8 -4 -13 -8 -10
-13 8 -2 63 13 63 7 0 13 -9 12 -19z m203 -2 c0 -8 -7 -16 -15 -20 -12 -4 -13
-2 -2 14 14 24 17 25 17 6z m4745 4 c3 -6 -1 -7 -9 -4 -18 7 -21 14 -7 14 6 0
13 -4 16 -10z m-4298 -16 c-3 -3 -12 -4 -19 -1 -8 3 -5 6 6 6 11 1 17 -2 13
-5z m480 0 c-3 -3 -12 -4 -19 -1 -8 3 -5 6 6 6 11 1 17 -2 13 -5z m-430 -10
c-3 -3 -12 -4 -19 -1 -8 3 -5 6 6 6 11 1 17 -2 13 -5z m478 -12 c-3 -3 -11 0
-18 7 -9 10 -8 11 6 5 10 -3 15 -9 12 -12z m-375 -3 c0 -6 -10 -8 -22 -5 -13
3 -17 3 -10 0 16 -8 15 -22 -4 -41 -14 -15 -16 -15 -14 3 4 33 0 42 -17 47
-10 3 1 5 25 6 24 0 42 -4 42 -10z m178 4 c-10 -2 -26 -2 -35 0 -10 3 -2 5 17
5 19 0 27 -2 18 -5z m-58 -12 c0 -5 -7 -12 -16 -15 -8 -3 -12 -2 -9 4 3 6 2
10 -3 10 -6 0 -13 -11 -16 -25 -4 -14 -11 -25 -17 -25 -6 0 -7 5 -4 10 3 6 1
10 -4 10 -6 0 -11 -10 -11 -22 0 -18 -2 -20 -9 -8 -6 8 -7 18 -5 22 9 15 -3 8
-17 -9 -10 -11 -10 -14 -1 -9 13 8 16 -11 6 -38 -5 -12 -9 -13 -19 -3 -9 9
-10 14 -2 19 7 4 2 6 -11 5 -14 -1 -18 -5 -12 -11 15 -15 12 -26 -6 -26 -8 0
-12 5 -9 10 3 6 1 10 -6 10 -8 0 -8 4 1 15 7 8 20 15 29 15 14 0 14 2 1 10
-14 9 -7 14 13 11 5 -1 6 3 2 9 -14 23 17 40 71 40 30 0 54 -4 54 -9z m-180
-16 c0 -12 -19 -12 -23 0 -4 9 -1 12 9 8 7 -3 14 -7 14 -8z m427 0 c0 -11 -4
-12 -14 -4 -7 6 -13 13 -13 15 0 2 6 4 13 4 8 0 14 -7 14 -15z m533 -5 c0 -5
-5 -10 -11 -10 -5 0 -7 5 -4 10 3 6 8 10 11 10 2 0 4 -4 4 -10z m-1270 -23 c0
-1 -15 -3 -33 -3 -17 -1 -24 1 -14 3 9 2 14 9 11 15 -4 6 2 5 15 -1 11 -7 21
-13 21 -14z m171 -11 c1 -6 1 -18 0 -26 -1 -9 7 -16 19 -17 12 -1 18 2 14 9
-4 7 -2 8 4 4 8 -5 6 -17 -6 -40 -9 -19 -20 -32 -25 -29 -4 2 -5 9 -2 14 10
16 -2 10 -16 -8 -7 -10 -9 -15 -4 -10 9 8 47 -22 40 -33 -2 -4 2 -7 9 -7 8 0
12 11 11 29 -1 19 2 27 10 24 7 -2 24 2 38 9 24 12 25 12 15 -5 -6 -10 -17
-16 -23 -13 -18 6 -24 -31 -9 -52 12 -16 12 -22 -1 -42 -14 -20 -14 -26 -2
-38 8 -8 17 -11 21 -8 3 4 6 -1 6 -10 0 -10 8 -17 19 -17 11 0 23 -5 27 -11 5
-9 -1 -10 -20 -5 -22 5 -26 3 -26 -14 0 -11 -5 -20 -11 -20 -5 0 -7 5 -3 12 4
7 3 8 -5 4 -6 -4 -9 -12 -6 -17 9 -14 32 -11 39 6 6 17 40 15 57 -2 9 -9 7
-16 -5 -28 -9 -9 -16 -13 -16 -8 0 5 5 14 12 21 9 9 7 12 -11 12 -12 0 -20 -4
-17 -9 4 -5 -7 -12 -24 -16 -34 -8 -50 -25 -23 -26 10 0 13 -3 6 -6 -19 -7
-16 -22 14 -62 18 -24 20 -30 7 -18 -24 20 -66 25 -46 5 7 -7 12 -17 12 -22 0
-6 -5 -4 -11 4 -8 12 -10 8 -7 -17 3 -24 1 -31 -12 -30 -9 0 -17 9 -17 19 -1
10 2 16 6 14 4 -3 8 2 8 10 0 11 -6 9 -24 -8 -28 -26 -29 -35 -5 -56 10 -10
11 -12 3 -7 -10 7 -16 6 -18 -2 -6 -18 -30 -16 -37 3 -4 11 -2 15 8 11 10 -4
14 0 13 13 -1 18 -2 18 -25 -1 -14 -10 -32 -19 -41 -19 -14 -1 -14 -2 2 -11
23 -14 22 -32 -2 -24 -24 7 -38 -12 -21 -28 10 -9 11 -9 5 3 -6 12 -5 13 6 3
13 -13 38 -19 26 -7 -3 4 0 13 8 20 8 8 11 22 8 32 -5 14 -3 13 9 -2 16 -21
14 -27 -25 -66 -34 -33 -39 -38 -58 -59 -23 -25 -23 -28 -4 -28 8 0 12 3 10 7
-2 4 9 19 24 34 17 17 31 23 35 17 4 -5 13 -8 21 -5 11 5 12 11 5 24 -7 13 -7
21 0 25 5 3 10 -3 10 -14 0 -19 11 -26 33 -22 5 1 6 -3 3 -8 -4 -5 6 -19 20
-30 15 -12 21 -21 15 -21 -7 0 -22 11 -35 25 -15 16 -30 23 -40 19 -15 -6 -15
-8 -2 -23 14 -15 12 -18 -15 -36 -19 -13 -28 -26 -25 -38 2 -9 0 -15 -5 -11
-9 5 -13 -9 -10 -33 1 -7 -8 -13 -21 -14 -13 0 8 -7 46 -15 38 -7 103 -30 145
-51 42 -20 84 -36 94 -35 9 1 17 -3 17 -9 0 -5 -6 -7 -12 -3 -7 4 16 -24 52
-62 157 -167 214 -379 175 -649 -82 -580 -562 -1095 -1045 -1122 -269 -15
-472 96 -585 321 -52 103 -73 189 -82 326 -13 207 66 475 205 702 31 50 37 68
27 72 -9 3 -12 0 -8 -10 3 -7 1 -14 -4 -14 -5 0 -9 11 -9 24 0 14 3 23 7 20 4
-2 14 3 22 11 22 21 30 19 17 -5 -6 -11 -9 -20 -7 -20 1 0 41 44 87 98 120
140 239 234 397 317 58 30 61 34 48 51 -13 16 -16 17 -24 4 -6 -8 -22 -15 -38
-16 -15 -1 -29 -3 -30 -3 -2 -1 -6 -2 -10 -3 -5 -2 -8 9 -8 24 -1 21 3 25 20
21 24 -5 31 -5 67 0 17 3 35 -3 47 -14 12 -11 27 -16 41 -12 16 4 18 8 9 14
-8 5 -17 3 -21 -4 -5 -8 -8 -4 -8 11 0 12 4 22 9 22 5 0 8 16 7 35 -3 26 0 33
9 25 6 -5 15 -7 18 -3 4 3 7 1 7 -5 0 -7 -4 -12 -10 -12 -5 0 -10 -8 -10 -17
0 -15 2 -16 10 -3 8 13 10 13 10 -2 0 -9 6 -19 13 -21 9 -4 8 -8 -3 -17 -12
-10 -10 -11 10 -6 14 4 58 12 98 18 39 7 72 16 72 21 0 4 5 5 11 1 8 -5 8 -1
0 14 -14 26 -14 35 -1 27 6 -4 9 -1 8 7 -2 7 2 12 8 11 6 -1 11 4 11 12 0 8
-4 12 -8 10 -4 -3 -10 3 -13 12 -5 12 -9 14 -18 5 -18 -18 -32 -14 -17 5 12
14 12 16 -2 11 -10 -4 -16 -1 -16 8 0 8 6 14 13 14 8 0 11 6 7 17 -4 11 -3 14
5 9 7 -4 12 -14 12 -21 0 -9 6 -12 17 -8 12 5 14 3 8 -7 -5 -8 -4 -11 3 -6 6
3 10 15 9 26 -1 10 -5 16 -10 13 -5 -3 -17 4 -27 15 -16 17 -17 21 -5 26 20 7
19 26 0 26 -13 0 -11 5 5 22 18 19 22 21 30 8 8 -11 9 -9 8 11 -2 19 -6 25
-17 21 -8 -3 -12 -1 -8 5 6 9 -6 13 -46 14 -11 0 -15 5 -10 12 4 7 1 7 -10 -1
-13 -11 -14 -17 -4 -27 9 -10 14 -10 22 1 8 11 14 10 30 -2 17 -12 18 -16 5
-24 -8 -5 -18 -6 -22 -4 -5 3 -7 0 -6 -7 2 -6 -2 -13 -9 -16 -15 -5 -56 34
-48 47 3 5 1 11 -5 15 -16 10 -12 25 5 19 11 -5 13 -2 9 10 -4 12 -2 15 9 10
8 -3 18 -1 22 5 4 7 0 8 -11 4 -11 -4 -15 -3 -11 4 5 7 0 9 -13 6 -11 -3 -20
-11 -20 -18 0 -6 -9 -22 -20 -35 -11 -12 -17 -27 -14 -32 4 -6 10 -5 16 3 7
10 8 9 4 -5 -6 -16 -4 -17 9 -6 12 10 15 10 15 -4 0 -21 -24 -21 -41 0 -12 14
-14 14 -21 -3 -7 -17 -8 -17 -7 2 2 33 -1 45 -10 45 -4 0 -6 -11 -4 -24 3 -15
-1 -25 -11 -29 -19 -8 -22 19 -3 26 9 4 8 8 -3 16 -10 7 -11 11 -2 11 16 0 16
17 -1 23 -25 9 -40 -8 -28 -32 10 -17 9 -20 -4 -15 -8 3 -13 10 -10 15 7 11
-30 30 -41 21 -5 -4 -2 1 5 11 10 13 17 14 26 7 9 -8 15 -8 20 0 8 13 -4 32
-18 27 -7 -2 -17 3 -23 12 -10 13 -14 13 -30 -3 -14 -15 -19 -16 -23 -5 -2 8
-9 17 -15 21 -6 5 0 8 14 9 23 0 23 1 5 9 -11 5 -15 9 -8 9 12 1 12 18 -1 39
-6 9 -1 11 18 8 16 -3 25 0 23 7 -1 7 4 11 11 9 10 -2 10 2 3 17 -8 14 -7 22
7 32 14 11 15 11 5 -1 -10 -11 -9 -17 4 -32 14 -15 14 -20 2 -35 -12 -16 -12
-17 2 -6 9 7 19 10 22 6 4 -3 7 1 7 10 0 10 -4 17 -8 17 -5 0 -9 7 -9 15 0 8
4 15 8 15 4 0 11 9 14 20 3 11 11 20 17 20 6 0 6 -6 -2 -15 -7 -9 -10 -18 -6
-22 3 -3 6 -1 6 5 0 7 7 12 16 12 11 0 14 -5 9 -17 -5 -14 -4 -15 6 -6 10 10
9 15 -1 28 -7 8 -10 27 -7 42 5 27 5 27 -29 -10 -19 -20 -34 -33 -34 -28 0 4
9 16 20 26 32 29 58 77 74 136 13 47 15 50 15 21 1 -23 5 -31 13 -26 7 5 9 2
6 -8 -5 -11 0 -15 15 -14 23 1 37 -6 64 -36 18 -19 33 -15 33 9 0 9 -6 13 -15
10 -8 -4 -17 -1 -21 5 -4 7 -3 8 4 4 7 -4 12 -2 12 3 0 6 -5 11 -12 11 -6 0
-8 3 -5 6 4 4 13 2 20 -4 8 -7 18 -8 22 -4 5 4 5 2 2 -5 -10 -16 20 -44 38
-37 27 11 15 29 -16 26 -4 -1 -6 7 -6 16 0 35 -3 41 -17 36 -8 -3 -17 1 -22 8
-4 7 -4 10 1 6 4 -4 16 -3 26 3 19 10 20 9 23 -33 1 -7 14 -24 29 -37 21 -18
25 -26 16 -32 -7 -4 -17 -5 -21 -3 -4 3 -13 2 -19 -2 -8 -4 -3 -12 12 -20 15
-8 18 -13 9 -13 -24 -1 -43 16 -35 29 5 8 3 11 -6 8 -8 -3 -14 -9 -14 -14 0
-14 -28 -50 -45 -57 -11 -5 -9 -6 5 -6 43 2 47 0 31 -16 -16 -17 -30 -20 -21
-5 3 6 -1 7 -9 4 -9 -3 -16 -11 -16 -17 0 -6 3 -7 6 -4 12 12 45 -35 34 -48
-7 -9 -6 -15 2 -22 16 -12 49 -13 42 -1 -5 8 13 11 46 9 11 0 11 1 2 5 -10 5
-9 11 5 27 10 11 13 17 6 14 -14 -9 -11 19 4 34 9 9 8 17 -2 33 -14 21 -13 22
10 22 28 0 31 -6 13 -25 -10 -11 -10 -13 0 -7 20 12 14 -4 -10 -26 l-23 -20
23 15 c12 8 34 12 48 9 24 -4 24 -5 7 -25 -10 -11 -13 -17 -6 -14 6 4 23 -4
37 -18 14 -14 26 -22 26 -16 0 5 -12 19 -27 32 l-28 21 25 -7 c14 -4 30 -11
35 -16 6 -4 17 -4 25 1 8 5 17 7 20 5 4 -2 7 2 7 10 0 10 -5 11 -17 5 -12 -6
-16 -4 -17 11 -1 12 3 17 9 13 7 -4 8 -2 4 4 -4 7 -2 12 5 12 7 0 9 3 6 6 -4
4 -18 -1 -31 -10 -32 -20 -44 -3 -14 19 l23 17 -25 -6 -25 -6 23 12 c14 7 26
8 30 2 12 -16 29 -14 29 4 0 28 -17 43 -37 32 -21 -11 -53 -3 -44 12 3 5 11 5
19 -2 20 -17 31 8 12 27 -13 14 -18 13 -39 -12 -29 -34 -75 -59 -83 -45 -4 6
-1 9 7 8 9 -2 12 5 9 22 -3 25 -19 42 -32 34 -14 -8 -16 36 -2 55 12 18 12 21
-1 21 -8 0 -18 -4 -21 -10 -3 -5 -11 -10 -18 -10 -6 0 -3 6 8 13 11 9 15 19
10 27 -8 14 6 8 33 -13 22 -17 60 -17 66 0 5 12 4 13 -7 4 -11 -8 -16 -6 -24
12 -9 20 -8 23 7 22 10 -1 25 -7 34 -14 20 -17 40 -5 23 13 -6 8 -15 12 -19
10 -4 -2 -10 1 -14 7 -4 7 -3 9 4 5 6 -3 13 -2 16 3 8 12 46 2 47 -13z m-386
-6 c10 -11 16 -20 13 -20 -3 0 -13 9 -23 20 -10 11 -16 20 -13 20 3 0 13 -9
23 -20z m238 5 c-3 -9 -8 -14 -10 -11 -3 3 -2 9 2 15 9 16 15 13 8 -4z m712
-2 c-4 -10 -8 -23 -8 -30 0 -13 -27 -5 -27 9 0 5 -4 6 -10 3 -17 -11 -11 7 8
21 25 20 46 18 37 -3z m335 -7 c0 -11 -19 -15 -25 -6 -3 5 1 10 9 10 9 0 16
-2 16 -4z m23 -11 c-3 -9 -8 -14 -10 -11 -3 3 -2 9 2 15 9 16 15 13 8 -4z
m-1201 -27 c-6 -6 -9 -16 -8 -22 2 -6 1 -8 -1 -3 -3 4 -9 5 -14 1 -5 -3 -9 5
-9 18 0 18 2 20 10 8 9 -14 14 -7 11 13 -1 5 4 5 10 2 7 -5 7 -11 1 -17z m78
11 c0 -5 5 -7 10 -4 6 3 10 2 10 -3 0 -5 -15 -8 -34 -8 -26 1 -32 4 -24 13 13
16 38 17 38 2z m430 -19 c-13 -8 -13 -10 0 -10 22 0 -1 -17 -33 -26 -25 -6
-28 -4 -25 12 2 11 11 18 20 16 8 -1 21 5 28 13 7 9 15 13 19 10 3 -3 -1 -10
-9 -15z m265 0 c3 -5 11 -10 16 -10 6 0 8 4 5 8 -3 5 1 9 9 9 8 0 15 -4 15 -9
0 -5 4 -7 9 -4 5 3 12 -2 16 -12 12 -28 14 -62 4 -62 -5 0 -9 -7 -9 -16 0 -8
-4 -13 -9 -10 -4 3 -17 -1 -27 -9 -10 -8 -14 -15 -7 -15 8 0 10 -7 6 -17 -6
-16 -3 -16 18 2 l24 20 -25 -30 c-40 -48 -43 -51 -32 -29 13 24 4 38 -25 41
-17 2 -21 -2 -18 -17 2 -13 -1 -17 -10 -14 -7 3 -18 -3 -23 -13 -9 -15 -7 -19
9 -20 12 -1 17 3 13 10 -3 7 3 2 14 -11 11 -12 22 -18 24 -12 1 5 3 -10 3 -34
0 -28 6 -51 18 -63 9 -11 14 -23 10 -28 -5 -4 -3 -5 3 -2 6 4 31 2 55 -3 l44
-9 -42 2 c-37 2 -40 0 -32 -15 5 -10 14 -18 20 -18 6 0 8 4 5 8 -3 5 1 9 9 9
8 0 15 -4 15 -9 0 -5 4 -7 8 -4 4 2 14 1 22 -5 13 -7 13 -9 0 -9 -12 0 -12 -2
-1 -9 9 -6 10 -11 3 -15 -6 -4 -16 3 -22 14 -9 17 -14 19 -26 9 -11 -9 -20 -5
-44 21 -16 18 -30 40 -31 49 0 10 -2 11 -6 4 -3 -10 -8 -9 -20 2 -8 8 -18 13
-23 10 -5 -3 -12 4 -15 16 -4 12 -12 18 -21 15 -8 -3 -14 -1 -14 5 0 6 -4 7
-10 4 -5 -3 -10 0 -10 7 0 10 -3 9 -11 -2 -9 -13 -10 -12 -5 3 6 20 -4 22 -24
5 -12 -11 -12 -10 -2 3 9 11 8 21 -3 43 -17 32 -20 49 -5 26 6 -9 10 -10 10
-3 0 7 -8 17 -17 23 -17 11 -17 11 -1 6 10 -3 20 -1 24 5 3 6 12 8 20 5 8 -3
14 0 14 7 0 7 10 14 23 15 12 1 31 4 42 6 11 2 23 -2 27 -8 4 -6 10 -7 15 -3
4 5 1 12 -6 16 -9 6 -10 11 -2 15 6 4 11 2 11 -4 0 -6 5 -8 12 -4 9 6 9 9 0
12 -7 2 -9 8 -6 13 3 6 11 6 20 -2 11 -9 15 -7 21 7 4 11 2 19 -6 22 -9 3 -9
7 0 18 15 19 -1 37 -24 28 -20 -7 -22 -30 -4 -37 8 -3 4 -13 -12 -31 -31 -33
-37 -33 -56 4 -13 26 -13 29 0 24 8 -3 13 -10 10 -14 -3 -5 -1 -11 5 -15 9 -6
15 8 11 29 -1 5 5 3 14 -4 13 -11 15 -10 10 1 -3 8 -15 20 -26 27 -12 8 -18 9
-14 3 3 -6 1 -11 -5 -11 -21 0 -4 25 20 28 18 3 20 6 9 13 -9 5 -10 9 -2 9 6
0 15 -4 18 -10z m249 -16 c3 -8 2 -12 -4 -9 -6 3 -10 10 -10 16 0 14 7 11 14
-7z m-593 -3 c-8 -5 -11 -16 -8 -25 4 -9 1 -16 -5 -16 -6 0 -9 -3 -6 -6 3 -3
15 0 27 8 17 10 23 10 33 -1 11 -12 10 -13 -5 -8 -11 4 -16 3 -12 -3 3 -6 1
-10 -5 -10 -7 0 -9 -7 -6 -16 4 -10 2 -14 -6 -11 -7 2 -12 10 -10 16 1 7 -2
10 -7 6 -6 -3 -15 4 -21 16 -10 17 -9 20 1 14 8 -6 11 -4 6 7 -6 16 10 38 28
38 5 0 4 -4 -4 -9z m829 -5 c-7 -7 -13 -7 -20 0 -6 6 -3 10 10 10 13 0 16 -4
10 -10z m927 -1 c0 -8 -7 -15 -15 -15 -12 0 -12 3 -2 15 7 8 13 15 15 15 1 0
2 -7 2 -15z m48 -137 c10 -18 34 -51 54 -73 l36 -40 -41 38 c-29 27 -43 35
-47 25 -2 -7 -5 -2 -5 12 0 14 -7 43 -15 65 -9 22 -16 60 -15 85 0 41 1 40 9
-17 4 -34 15 -76 24 -95z m-1670 123 c-3 -5 -1 -12 5 -16 5 -3 10 -11 10 -16
0 -6 -7 -3 -16 5 -13 14 -12 36 2 36 3 0 3 -4 -1 -9z m-1002 -16 c4 -8 1 -17
-5 -21 -7 -4 -8 -3 -4 4 4 7 2 12 -4 12 -8 0 -10 -9 -6 -24 4 -15 1 -28 -6
-32 -8 -5 -9 -2 -5 9 3 9 2 19 -3 22 -6 4 -10 1 -10 -6 0 -7 -3 -9 -7 -6 -3 4
4 18 17 32 28 29 26 29 33 10z m1457 5 c0 -5 -2 -10 -4 -10 -3 0 -8 5 -11 10
-3 6 -1 10 4 10 6 0 11 -4 11 -10z m310 -4 c0 -3 -4 -8 -10 -11 -5 -3 -10 -1
-10 4 0 6 5 11 10 11 6 0 10 -2 10 -4z m-922 -38 c16 -16 15 -28 -3 -28 -8 0
-15 2 -15 4 0 2 -3 11 -6 20 -7 19 7 21 24 4z m747 -17 c-3 -6 -11 -11 -16
-11 -5 0 -4 6 3 14 14 16 24 13 13 -3z m-1651 -14 c11 -10 11 -15 0 -25 -18
-16 -19 -16 -19 13 0 29 2 30 19 12z m994 -20 c-24 -19 -45 -30 -46 -25 -2 4
-15 -1 -30 -12 -32 -25 -51 -7 -24 24 16 18 16 18 -6 7 -13 -7 -28 -10 -35 -7
-7 2 -4 5 6 5 10 1 15 5 12 11 -8 12 66 10 83 -3 8 -6 12 -6 12 2 0 7 4 10 9
7 5 -3 14 1 21 9 7 8 19 15 27 15 8 0 -5 -15 -29 -33z m-266 6 c-6 -2 -10 -9
-6 -14 3 -5 -5 -9 -17 -9 -22 0 -22 0 -3 15 10 8 24 14 29 14 6 0 4 -3 -3 -6z
m323 -32 c-6 -5 -25 10 -25 20 0 5 6 4 14 -3 8 -7 12 -15 11 -17z m565 -1 c0
-5 -5 -10 -11 -10 -5 0 -7 5 -4 10 3 6 8 10 11 10 2 0 4 -4 4 -10z m-1019 -23
c-10 -9 -11 -8 -5 6 3 10 9 15 12 12 3 -3 0 -11 -7 -18z m1103 8 c19 -15 19
-15 -5 -13 -14 1 -26 8 -26 15 0 17 7 16 31 -2z m418 8 c-6 -3 -10 -9 -6 -14
3 -5 1 -9 -4 -9 -21 0 -19 26 2 27 11 0 15 -1 8 -4z m83 -2 c3 -5 2 -12 -3
-15 -5 -3 -9 1 -9 9 0 17 3 19 12 6z m3832 -27 c-3 -3 -12 -4 -19 -1 -8 3 -5
6 6 6 11 1 17 -2 13 -5z m-10089 -20 c32 -22 27 -73 -9 -93 -24 -13 -29 -13
-53 2 -34 22 -36 69 -4 91 28 20 38 20 66 0z m4638 -1 c-3 -7 0 -13 6 -13 7 0
3 -7 -8 -16 -10 -8 -12 -12 -4 -8 8 4 11 3 7 -1 -14 -16 -33 -13 -34 6 -1 11
2 19 8 19 5 0 9 5 9 11 0 5 -5 7 -12 3 -6 -4 -8 -3 -5 3 9 15 39 12 33 -4z
m934 -57 c0 -2 -8 -10 -17 -17 -16 -13 -17 -12 -4 4 13 16 21 21 21 13z m-302
-25 c3 -9 0 -12 -9 -9 -8 4 -22 9 -31 13 -19 8 -19 -18 0 -37 9 -9 12 -9 12 3
0 9 10 14 30 14 17 0 30 -1 30 -2 0 -2 -18 -12 -41 -24 -23 -11 -38 -16 -35
-10 4 5 2 12 -4 16 -5 3 -10 1 -10 -4 0 -6 -4 -11 -10 -11 -6 0 -6 9 -1 23 7
19 6 23 -10 23 -14 0 -16 -3 -6 -15 10 -12 9 -13 -2 -6 -11 6 -13 4 -8 -8 3
-9 1 -19 -6 -23 -7 -4 -9 -4 -5 1 4 4 0 14 -10 22 -12 10 -13 13 -2 11 8 -2
15 3 16 10 1 6 2 16 3 21 2 15 94 7 99 -8z m-1047 -30 c-8 -5 -10 -14 -6 -22
6 -11 5 -11 -5 -2 -14 12 -6 33 13 33 8 0 7 -3 -2 -9z m-111 -11 c0 -5 -2 -10
-4 -10 -3 0 -8 5 -11 10 -3 6 -1 10 4 10 6 0 11 -4 11 -10z m155 -38 c-3 -3
-11 0 -18 7 -9 10 -8 11 6 5 10 -3 15 -9 12 -12z m929 10 c3 -5 -1 -9 -9 -9
-8 0 -12 4 -9 9 3 4 7 8 9 8 2 0 6 -4 9 -8z m1883 2 c-3 -3 -12 -4 -19 -1 -8
3 -5 6 6 6 11 1 17 -2 13 -5z m-1833 -12 c3 -5 -1 -9 -9 -9 -8 0 -12 4 -9 9 3
4 7 8 9 8 2 0 6 -4 9 -8z m-930 -23 c-9 -10 -21 -16 -26 -13 -12 8 8 31 27 31
13 0 13 -3 -1 -18z m56 11 c0 -5 -2 -10 -4 -10 -3 0 -8 5 -11 10 -3 6 -1 10 4
10 6 0 11 -4 11 -10z m1005 -10 c3 -5 1 -10 -4 -10 -6 0 -11 5 -11 10 0 6 2
10 4 10 3 0 8 -4 11 -10z m-1260 -9 c3 -5 2 -12 -3 -15 -5 -3 -9 1 -9 9 0 17
3 19 12 6z m60 0 c3 -5 2 -12 -3 -15 -5 -3 -9 1 -9 9 0 17 3 19 12 6z m3392 3
c-3 -3 -12 -4 -19 -1 -8 3 -5 6 6 6 11 1 17 -2 13 -5z m2629 -22 c-17 -16 -18
-16 -5 5 7 12 15 20 18 17 3 -2 -3 -12 -13 -22z m-5063 -3 c4 -16 3 -18 -9 -8
-7 6 -11 15 -8 20 8 13 11 11 17 -12z m11003 -8 c13 -26 3 -69 -19 -83 -56
-35 -118 50 -71 97 24 24 76 16 90 -14z m-10718 -6 c-3 -3 -9 2 -12 12 -6 14
-5 15 5 6 7 -7 10 -15 7 -18z m-1373 -12 c-2 -10 -4 -20 -4 -22 -1 -3 -6 0
-12 6 -6 6 -8 16 -5 22 11 17 25 13 21 -6z m1215 7 c0 -5 -2 -10 -4 -10 -3 0
-8 5 -11 10 -3 6 -1 10 4 10 6 0 11 -4 11 -10z m4887 -6 c-3 -3 -12 -4 -19 -1
-8 3 -5 6 6 6 11 1 17 -2 13 -5z m-5987 -24 c0 -5 -8 -14 -18 -19 -14 -8 -18
-5 -19 12 -2 17 0 19 7 7 9 -14 14 -7 11 13 -1 5 3 6 9 2 5 -3 10 -10 10 -15z
m150 14 c0 -8 -19 -13 -24 -6 -3 5 1 9 9 9 8 0 15 -2 15 -3z m40 -20 c0 -8
-19 -13 -24 -6 -3 5 1 9 9 9 8 0 15 -2 15 -3z m501 -31 c13 -16 12 -17 -3 -5
-13 10 -17 10 -21 0 -4 -8 -6 -7 -6 5 -1 9 3 17 8 17 5 0 15 -8 22 -17z m479
-1 c0 -5 -7 -9 -15 -9 -8 0 -12 4 -9 9 3 4 9 8 15 8 5 0 9 -4 9 -8z m-963 -17
c0 -6 -6 -12 -12 -12 -6 0 -12 6 -12 12 0 6 6 12 12 12 6 0 12 -6 12 -12z
m199 -10 c-2 -39 -21 -51 -55 -38 -24 9 -29 8 -24 -3 3 -8 12 -14 20 -14 11 0
14 -7 8 -27 -6 -26 -6 -27 12 -7 10 11 15 15 11 10 -3 -4 -4 -14 -2 -21 3 -6
-3 -12 -12 -12 -9 0 -19 8 -21 18 -3 12 -12 16 -27 13 -15 -2 -23 1 -23 12 0
8 6 13 14 10 7 -3 13 -1 13 4 0 6 -4 10 -8 10 -5 0 -9 7 -9 15 0 8 2 13 4 11
3 -2 18 0 34 4 17 5 29 5 29 -1 0 -5 -6 -9 -12 -10 -10 0 -10 -2 0 -6 19 -7
43 28 30 44 -8 10 -6 13 4 13 10 0 14 -9 14 -25z m-156 4 c0 -4 -6 -9 -12 -12
-7 -2 -10 -7 -7 -11 3 -3 16 3 29 14 13 11 26 18 29 15 3 -4 1 -9 -4 -13 -15
-11 -17 -32 -2 -32 8 0 7 -4 -3 -10 -12 -8 -12 -12 -2 -18 10 -7 10 -11 -1
-21 -12 -9 -16 -8 -21 4 -3 8 -11 15 -18 15 -9 0 -8 -3 2 -10 8 -5 10 -10 4
-10 -7 0 -19 11 -28 25 -11 17 -13 24 -4 23 7 -2 12 7 12 23 -1 15 4 26 12 26
8 0 14 -4 14 -8z m-177 -14 c-3 -9 -8 -14 -10 -11 -3 3 -2 9 2 15 9 16 15 13
8 -4z m-81 -38 c-7 -8 -9 -17 -5 -20 16 -17 -7 -5 -28 15 -17 15 -19 19 -6 15
11 -4 20 -1 24 9 4 10 9 12 16 5 7 -7 7 -15 -1 -24z m910 1 c-8 -8 -9 -4 -5
13 4 13 8 18 11 10 2 -7 -1 -18 -6 -23z m-735 6 c-3 -3 -12 -4 -19 -1 -8 3 -5
6 6 6 11 1 17 -2 13 -5z m-791 -26 c3 -4 -1 -5 -10 -4 -8 1 -18 5 -22 8 -3 4
1 5 10 4 8 -1 18 -5 22 -8z m528 -12 c-3 -9 -10 -13 -15 -10 -5 3 -3 11 4 19
15 16 19 13 11 -9z m241 -34 c-3 -3 -11 0 -18 7 -9 10 -8 11 6 5 10 -3 15 -9
12 -12z m173 4 c3 -13 -70 -16 -84 -5 -7 6 -16 4 -23 -5 -7 -8 -19 -12 -27 -9
-10 4 -12 0 -8 -11 5 -12 2 -15 -10 -10 -13 5 -14 9 -5 21 7 7 18 12 25 9 7
-3 15 1 17 8 6 15 111 16 115 2z m-308 -10 c0 -2 -6 -9 -13 -15 -10 -8 -14 -7
-14 4 0 8 6 15 14 15 7 0 13 -2 13 -4z m430 -6 c0 -5 -2 -10 -4 -10 -3 0 -8 5
-11 10 -3 6 -1 10 4 10 6 0 11 -4 11 -10z m-660 -14 c0 -3 -4 -8 -10 -11 -5
-3 -10 -1 -10 4 0 6 5 11 10 11 6 0 10 -2 10 -4z m310 -12 c0 -17 -37 -47 -44
-35 -4 5 3 12 14 16 11 4 18 11 14 16 -3 5 -9 7 -14 4 -5 -3 -11 -1 -15 5 -4
6 4 9 19 8 15 -1 26 -7 26 -14z m260 1 c0 -2 -6 -5 -13 -8 -8 -3 -14 1 -14 8
0 7 6 11 14 8 7 -3 13 -6 13 -8z m49 2 c8 -10 7 -14 -2 -14 -8 0 -14 6 -14 14
0 7 1 13 2 13 2 0 8 -6 14 -13z m371 3 c0 -5 -4 -10 -9 -10 -6 0 -13 5 -16 10
-3 6 1 10 9 10 9 0 16 -4 16 -10z m495 -8 c-3 -3 -11 0 -18 7 -9 10 -8 11 6 5
10 -3 15 -9 12 -12z m-1131 -31 c-2 -2 -10 4 -18 12 -12 11 -13 16 -3 20 11 4
29 -23 21 -32z m-113 12 c13 -16 12 -17 -3 -4 -10 7 -18 15 -18 17 0 8 8 3 21
-13z m806 -3 c4 -12 3 -13 -5 -1 -5 7 -14 11 -20 7 -6 -3 -13 -2 -16 2 -3 5 4
9 16 8 12 0 23 -8 25 -16z m-1264 -3 c4 3 7 2 7 -4 0 -6 -8 -14 -17 -17 -10
-4 -14 -4 -10 0 4 4 1 14 -6 23 -10 14 -10 14 4 4 9 -7 19 -10 22 -6z m227 3
c0 -5 -5 -10 -11 -10 -5 0 -7 5 -4 10 3 6 8 10 11 10 2 0 4 -4 4 -10z m-330
-5 c0 -2 -8 -9 -18 -14 -14 -8 -19 -6 -19 5 0 7 9 14 19 14 10 0 18 -2 18 -5z
m867 -12 c7 -20 -38 -27 -56 -8 -15 15 -15 16 0 10 10 -4 20 -1 24 5 8 13 27
9 32 -7z m558 -1 c-3 -3 -11 0 -18 7 -9 10 -8 11 6 5 10 -3 15 -9 12 -12z
m-692 2 c8 -8 -3 -34 -14 -34 -4 0 -5 7 -2 17 5 12 3 14 -7 8 -9 -5 -11 -4 -6
3 8 13 19 15 29 6z m537 -4 c0 -5 -5 -10 -11 -10 -5 0 -7 5 -4 10 3 6 8 10 11
10 2 0 4 -4 4 -10z m-1207 -12 c-4 -7 -8 -16 -8 -20 0 -3 -3 -9 -7 -13 -3 -4
-5 1 -3 12 2 10 4 21 4 26 1 4 6 7 12 7 6 0 7 -5 2 -12z m32 -18 c-3 -5 -1
-10 5 -10 6 0 8 -5 4 -11 -4 -8 -9 -7 -15 2 -7 12 -3 29 7 29 3 0 2 -4 -1 -10z
m240 1 c3 -6 -3 -14 -12 -20 -10 -6 -12 -11 -5 -11 16 0 15 -17 -2 -23 -9 -4
-12 3 -11 26 2 18 3 33 4 35 3 6 20 1 26 -7z m949 -3 c-3 -4 -9 -8 -15 -8 -5
0 -9 4 -9 8 0 5 7 9 15 9 8 0 12 -4 9 -9z m104 -7 c-2 -9 -7 -16 -12 -16 -5 0
-10 7 -11 16 -2 9 4 16 12 16 7 0 12 -7 11 -16z m-1127 -8 c-10 -4 -10 -7 -2
-13 9 -5 7 -11 -5 -21 -12 -9 -15 -10 -10 -1 4 6 3 12 -3 12 -5 0 -11 -5 -13
-12 -6 -17 -28 0 -27 20 0 15 1 15 8 -1 6 -17 8 -17 25 2 11 12 24 21 30 20 6
0 5 -3 -3 -6z m409 -27 c0 -2 -7 -7 -16 -10 -8 -3 -12 -2 -9 4 6 10 25 14 25
6z m-381 -32 c6 4 14 0 17 -8 7 -18 25 -12 20 7 -1 7 -1 9 1 6 2 -4 14 -5 26
-2 22 5 22 5 2 -11 l-20 -16 20 6 c15 4 16 3 6 -4 -7 -5 -11 -14 -7 -20 3 -6
2 -14 -4 -17 -6 -4 -10 -3 -9 2 4 24 -3 33 -23 29 -24 -4 -58 19 -58 38 0 6 4
5 9 -3 5 -7 14 -10 20 -7z m-383 -30 c-5 -30 -22 -35 -22 -5 0 19 4 27 12 24
7 -2 11 -11 10 -19z m318 15 c3 -3 -4 -5 -14 -6 -11 -1 -22 2 -24 6 -5 8 30 8
38 0z m-94 -29 c0 -5 -4 -10 -10 -10 -5 0 -10 5 -10 10 0 6 5 10 10 10 6 0 10
-4 10 -10z m150 0 c0 -5 -2 -10 -4 -10 -3 0 -8 5 -11 10 -3 6 -1 10 4 10 6 0
11 -4 11 -10z m-125 -39 c3 -5 2 -12 -3 -15 -5 -3 -9 1 -9 9 0 17 3 19 12 6z
m212 -4 c0 -8 -6 -14 -14 -14 -17 0 -17 14 0 20 6 3 12 6 13 6 0 1 1 -5 1 -12z
m-494 -41 c4 -10 0 -14 -14 -13 -10 1 -19 7 -19 14 0 18 27 16 33 -1z m437 -3
c0 -7 -6 -13 -13 -13 -8 0 -14 6 -14 13 0 8 6 14 14 14 7 0 13 -6 13 -14z m53
4 c3 -8 0 -14 -7 -14 -7 0 -13 6 -13 14 0 7 4 13 8 13 4 0 9 -6 12 -13z m-303
-17 c0 -5 -4 -10 -10 -10 -5 0 -10 5 -10 10 0 6 5 10 10 10 6 0 10 -4 10 -10z
m5387 4 c-3 -3 -12 -4 -19 -1 -8 3 -5 6 6 6 11 1 17 -2 13 -5z m-5674 -28 c3
-8 -3 -24 -13 -37 -16 -18 -22 -19 -34 -9 -9 6 -19 9 -24 7 -4 -3 -14 -1 -22
5 -12 8 -12 9 3 4 11 -3 17 0 17 9 0 8 5 15 10 15 6 0 9 -5 8 -11 -4 -17 29
-19 43 -3 9 11 8 14 -5 14 -10 0 -14 5 -11 10 9 14 22 12 28 -4z m49 -4 c8 -8
5 -9 -11 -5 -12 3 -24 9 -26 13 -8 12 23 6 37 -8z m80 -11 c-2 -20 0 -22 13
-11 24 20 17 1 -10 -26 -14 -14 -25 -20 -25 -13 0 8 -4 9 -13 0 -10 -8 -21 -7
-40 2 -15 6 -27 15 -27 20 0 4 0 10 -1 15 -1 4 13 5 31 4 21 -3 30 0 26 7 -11
17 4 32 27 29 17 -2 21 -9 19 -27z m11790 -127 c9 -9 40 -25 70 -35 45 -16 50
-20 30 -25 -13 -4 -42 -16 -65 -28 -42 -21 -45 -27 -87 -141 -5 -15 -12 -5
-29 48 -25 73 -39 87 -108 109 -51 15 -54 24 -10 32 65 12 93 39 118 113 l22
68 21 -62 c12 -34 28 -70 38 -79z m-11572 122 c0 -3 -4 -8 -10 -11 -5 -3 -10
-1 -10 4 0 6 5 11 10 11 6 0 10 -2 10 -4z m130 -10 c0 -3 -4 -8 -10 -11 -5 -3
-10 -1 -10 4 0 6 5 11 10 11 6 0 10 -2 10 -4z m-583 -46 c-1 -11 -5 -20 -9
-20 -10 0 -10 4 -2 24 8 22 13 20 11 -4z m156 2 c4 9 6 9 6 1 1 -14 -38 -38
-47 -28 -4 3 0 10 8 15 10 7 11 10 3 10 -7 0 -13 5 -13 12 0 6 8 4 19 -6 15
-13 20 -14 24 -4z m177 3 c0 -7 -30 -13 -34 -7 -3 4 4 9 15 9 10 1 19 0 19 -2z
m-87 -39 c20 6 20 6 4 -11 -17 -16 -19 -16 -36 4 -10 12 -25 21 -32 21 -11 0
-11 2 1 9 10 7 18 4 28 -10 10 -14 20 -18 35 -13z m47 14 c0 -5 -4 -10 -10
-10 -5 0 -10 5 -10 10 0 6 5 10 10 10 6 0 10 -4 10 -10z m-1829 -70 c22 -12
27 -68 7 -88 -17 -17 -64 -15 -82 4 -49 48 13 117 75 84z m2032 -19 c5 -1 2
-8 -7 -16 -8 -8 -22 -12 -30 -9 -27 11 -17 34 12 29 9 -2 21 -4 25 -4z m13502
-11 c38 -42 -12 -98 -64 -70 -24 12 -29 58 -9 78 18 18 53 14 73 -8z m-14021
-9 c3 -5 -2 -15 -12 -22 -15 -12 -16 -12 -5 2 7 9 10 19 6 22 -3 4 -4 7 0 7 3
0 8 -4 11 -9z m43 -27 c-3 -3 -12 -4 -19 -1 -8 3 -5 6 6 6 11 1 17 -2 13 -5z
m398 -12 c-3 -3 -11 0 -18 7 -9 10 -8 11 6 5 10 -3 15 -9 12 -12z m-352 -59
c-4 -10 -2 -14 5 -9 6 3 13 2 16 -3 4 -5 -2 -8 -11 -7 -10 2 -18 12 -19 24 -1
12 2 19 7 16 4 -2 5 -12 2 -21z m3265 -50 c-10 -2 -26 -2 -35 0 -10 3 -2 5 17
5 19 0 27 -2 18 -5z m-61 -9 c-3 -3 -12 -4 -19 -1 -8 3 -5 6 6 6 11 1 17 -2
13 -5z m-3077 -14 c0 -5 -4 -10 -10 -10 -5 0 -10 5 -10 10 0 6 5 10 10 10 6 0
10 -4 10 -10z m33 -45 c-3 -9 -8 -14 -10 -11 -3 3 -2 9 2 15 9 16 15 13 8 -4z
m-43 -20 c0 -2 -6 -5 -13 -8 -8 -3 -14 1 -14 8 0 7 6 11 14 8 7 -3 13 -6 13
-8z m-280 -21 c0 -8 -19 -13 -24 -6 -3 5 1 9 9 9 8 0 15 -2 15 -3z m245 -13
c3 -5 2 -12 -3 -15 -5 -3 -9 1 -9 9 0 17 3 19 12 6z m-191 -61 c-6 -5 -24 21
-24 34 0 6 6 1 14 -10 8 -10 12 -21 10 -24z m286 15 c0 -2 -6 -5 -13 -8 -8 -3
-14 1 -14 8 0 7 6 11 14 8 7 -3 13 -6 13 -8z m-250 -15 c0 -5 -2 -10 -4 -10
-3 0 -8 5 -11 10 -3 6 -1 10 4 10 6 0 11 -4 11 -10z m150 -35 c0 -2 -6 -8 -13
-14 -10 -8 -14 -7 -14 2 0 8 6 14 14 14 7 0 13 -1 13 -2z m-192 -36 c3 -12 2
-12 -6 0 -6 8 -15 10 -22 6 -9 -5 -11 -4 -6 4 10 15 28 10 34 -10z m236 -11
c-3 -5 -14 -6 -25 -3 -11 4 -19 2 -19 -5 0 -6 5 -8 13 -4 8 5 8 2 -2 -9 -7 -9
-14 -17 -16 -17 -6 0 -1 37 7 46 10 14 51 6 42 -8z m22 -76 c-4 -3 -14 2 -24
12 -16 18 -16 18 6 6 13 -6 21 -14 18 -18z m18 -20 c2 -4 -4 -8 -14 -8 -10 0
-16 4 -14 8 3 4 9 8 14 8 5 0 11 -4 14 -8z m-282 -106 c15 10 25 -12 20 -45
-4 -26 -31 -40 -33 -17 0 6 -5 2 -10 -9 -7 -15 -8 -10 -4 20 2 22 6 54 6 70
l2 30 4 -28 c3 -16 9 -25 15 -21z m288 -147 c0 -11 -4 -18 -10 -14 -5 3 -7 12
-3 20 7 21 13 19 13 -6z m3123 -66 c-7 -2 -19 -2 -25 0 -7 3 -2 5 12 5 14 0
19 -2 13 -5z m5374 -49 c-3 -3 -12 -4 -19 -1 -8 3 -5 6 6 6 11 1 17 -2 13 -5z
m-38 -17 c8 -10 6 -18 -8 -33 -18 -19 -17 -19 13 -32 l31 -12 -30 6 c-16 4
-57 10 -90 14 l-60 7 55 2 c50 2 52 4 28 13 -16 5 -28 14 -28 20 0 6 7 7 15 4
9 -3 18 1 21 9 8 19 38 19 53 2z m-8873 -61 c-9 -15 -12 -26 -5 -30 5 -2 4 -3
-3 -2 -7 2 -22 -4 -32 -13 -11 -9 -4 3 15 26 38 47 50 56 25 19z m8439 -138
c-61 -67 -72 -78 -55 -53 17 25 93 105 98 105 3 0 -17 -24 -43 -52z m-10149
-113 c15 -23 15 -27 0 -50 -28 -42 -86 -28 -86 21 0 52 58 71 86 29z m1804 -5
c0 -5 -2 -10 -4 -10 -3 0 -8 5 -11 10 -3 6 -1 10 4 10 6 0 11 -4 11 -10z
m8200 -77 c1 -14 4 -13 15 7 16 29 20 19 4 -11 -5 -11 -19 -52 -29 -92 -14
-53 -19 -63 -19 -39 -1 17 -5 32 -9 32 -5 0 -14 12 -20 26 -7 14 -17 22 -22
19 -5 -3 -8 0 -6 7 3 7 12 37 21 65 l16 52 25 -24 c13 -13 24 -32 24 -42z
m-8643 -20 c-3 -10 -5 -2 -5 17 0 19 2 27 5 18 2 -10 2 -26 0 -35z m9580 -95
c-3 -8 -6 -5 -6 6 -1 11 2 17 5 13 3 -3 4 -12 1 -19z m-9590 -55 c-3 -10 -5
-4 -5 12 0 17 2 24 5 18 2 -7 2 -21 0 -30z m8620 -160 c-2 -27 -3 -5 -3 47 0
52 1 74 3 48 2 -27 2 -69 0 -95z m-8630 -195 c-2 -35 -3 -9 -3 57 0 66 1 94 3
63 2 -32 2 -86 0 -120z m8640 100 c-3 -7 -5 -2 -5 12 0 14 2 19 5 13 2 -7 2
-19 0 -25z m4631 -24 c15 -10 22 -25 22 -49 0 -40 -22 -65 -57 -65 -57 0 -84
69 -43 110 24 24 48 25 78 4z m-4555 -159 c19 -34 22 -44 10 -33 -10 8 -26 14
-37 12 -11 -1 -20 5 -23 17 -3 10 -8 19 -12 19 -11 0 -33 59 -26 70 4 6 14 9
22 6 11 -5 13 -2 9 10 -3 9 -8 28 -11 42 -3 15 5 0 18 -33 12 -34 35 -83 50
-110z m-11563 120 c21 -26 -3 -65 -39 -65 -33 0 -47 25 -36 60 8 24 56 27 75
5z m2857 -312 c-3 -10 -5 -2 -5 17 0 19 2 27 5 18 2 -10 2 -26 0 -35z m10
-130 c-3 -10 -5 -2 -5 17 0 19 2 27 5 18 2 -10 2 -26 0 -35z m20 -185 c-3 -8
-6 -5 -6 6 -1 11 2 17 5 13 3 -3 4 -12 1 -19z m12096 -539 c29 -16 37 -28 37
-63 0 -40 -26 -66 -66 -66 -62 0 -88 80 -38 119 31 24 37 25 67 10z m-14035
-181 c22 -22 14 -67 -14 -80 -45 -21 -87 21 -66 66 13 28 58 36 80 14z m16118
-46 c35 -24 18 -82 -24 -82 -33 0 -52 16 -52 45 0 37 44 59 76 37z"/>
<path d="M3510 17125 c0 -2 6 -8 13 -14 10 -8 14 -7 14 2 0 8 -6 14 -14 14 -7
0 -13 -1 -13 -2z"/>
<path d="M4245 16728 l-40 -43 43 40 c23 21 42 40 42 42 0 8 -9 0 -45 -39z"/>
<path d="M8295 14614 c-615 -64 -1065 -302 -1338 -707 -411 -610 -416 -1627
-10 -2264 219 -346 565 -592 988 -703 602 -159 1305 -106 1778 134 165 83 269
158 397 286 252 252 410 593 474 1020 23 151 31 430 17 580 -44 456 -186 776
-471 1060 -154 154 -269 237 -470 338 -344 173 -677 251 -1100 257 -124 2
-243 1 -265 -1z m-725 -479 c0 -2 -10 -9 -22 -15 -22 -11 -22 -10 -4 4 21 17
26 19 26 11z m-69 -43 c-51 -35 -206 -192 -275 -277 -109 -135 -186 -275 -246
-451 -15 -44 -35 -94 -44 -110 l-16 -29 6 30 c15 72 76 240 120 326 70 140
147 251 238 343 69 71 217 187 235 185 3 0 -5 -8 -18 -17z m1634 -172 c0 -20
-6 -26 -27 -28 -24 -3 -28 0 -28 21 0 30 9 39 35 35 14 -2 20 -10 20 -28z
m745 -211 c9 -16 8 -26 -5 -45 -26 -39 -75 -26 -75 21 0 45 60 63 80 24z
m-1098 -296 c23 -21 23 -36 -2 -58 -17 -15 -24 -16 -45 -7 -30 14 -34 56 -7
71 24 14 33 13 54 -6z m804 -185 c18 -39 67 -71 132 -84 17 -4 32 -10 32 -14
0 -4 -15 -10 -32 -14 -18 -4 -51 -16 -75 -27 -45 -22 -62 -53 -87 -160 l-13
-54 -11 45 c-29 108 -35 124 -57 146 -13 13 -51 31 -84 41 -57 17 -80 33 -46
33 8 0 40 9 70 21 67 25 87 52 105 142 18 87 22 89 37 21 7 -32 20 -76 29 -96z
m-1708 -77 c6 -40 -39 -56 -58 -20 -9 15 -8 24 1 35 18 22 53 13 57 -15z m168
-416 c15 -23 15 -27 0 -50 -21 -32 -59 -33 -80 -3 -20 28 -20 43 0 62 24 24
61 20 80 -9z m2103 -134 c23 -74 36 -88 112 -115 24 -8 37 -15 29 -16 -8 0
-38 -11 -66 -24 -48 -22 -53 -28 -69 -78 -9 -29 -19 -60 -22 -68 -3 -8 -13 13
-24 47 -22 70 -50 98 -115 115 l-43 12 52 18 c66 23 92 53 108 123 7 30 13 55
15 55 1 0 11 -31 23 -69z m-879 -160 c0 -28 -28 -47 -48 -34 -24 15 -27 44 -7
59 22 17 55 1 55 -25z m-2156 -217 c19 -18 21 -65 4 -82 -29 -29 -98 -4 -98
36 0 50 61 80 94 46z m1674 -186 c31 -31 3 -76 -39 -63 -33 11 -18 75 16 75 6
0 16 -5 23 -12z m925 -109 c20 -27 10 -58 -19 -65 -46 -12 -72 37 -38 70 21
22 40 20 57 -5z m-1898 -203 c19 -29 8 -60 -25 -69 -25 -6 -60 24 -60 51 0 45
59 57 85 18z m755 -241 c15 -18 6 -61 -16 -69 -24 -9 -54 12 -54 37 0 43 44
63 70 32z"/>
<path d="M11800 12811 c-114 -37 -221 -140 -286 -275 -62 -130 -86 -227 -87
-361 -2 -177 51 -310 151 -379 61 -43 158 -49 234 -14 148 69 278 277 319 513
16 96 7 256 -20 325 -46 122 -125 189 -228 196 -32 2 -69 0 -83 -5z m143 -75
c103 -42 163 -219 139 -403 -11 -86 -53 -227 -85 -288 -31 -62 -107 -154 -150
-184 -126 -87 -239 -57 -307 82 -77 159 -52 403 62 601 92 159 232 238 341
192z"/>
<path d="M12463 10215 c-137 -30 -136 -28 -134 -370 2 -294 5 -308 59 -322 34
-8 175 20 209 42 48 32 53 64 53 330 0 189 -3 253 -14 280 -24 57 -58 65 -173
40z m127 -304 l0 -248 -39 -11 c-52 -16 -96 -15 -111 3 -8 10 -14 81 -17 227
-5 175 -8 216 -21 231 -14 16 -14 19 -2 27 8 6 20 10 25 10 6 1 37 7 70 14
100 22 95 34 95 -253z m-203 -123 c-2 -29 -3 -6 -3 52 0 58 1 81 3 53 2 -29 2
-77 0 -105z"/>
<path d="M8366 9688 c-25 -21 -29 -37 -52 -192 -14 -93 -24 -182 -22 -199 5
-52 34 -63 266 -96 262 -38 306 -39 326 -8 17 26 61 367 52 403 -4 13 -16 30
-29 38 -13 8 -115 25 -242 40 -121 15 -232 29 -246 32 -19 4 -35 -2 -53 -18z
m421 -79 c85 -11 92 -13 82 -30 -5 -10 -16 -69 -24 -131 -28 -225 -27 -224
-123 -212 -39 5 -51 9 -38 14 18 6 18 7 -5 14 -48 14 -274 44 -284 38 -5 -4 4
-10 20 -13 30 -7 30 -7 3 -8 -15 0 -38 3 -52 9 -21 8 -26 16 -26 45 0 71 40
300 55 311 14 10 53 7 392 -37z m-284 -336 c-7 -2 -21 -2 -30 0 -10 3 -4 5 12
5 17 0 24 -2 18 -5z"/>
<path d="M8355 9310 c-3 -5 -2 -10 4 -10 5 0 13 5 16 10 3 6 2 10 -4 10 -5 0
-13 -4 -16 -10z"/>
<path d="M9476 9697 c3 -10 9 -15 12 -12 3 3 0 11 -7 18 -10 9 -11 8 -5 -6z"/>
<path d="M9507 9525 c-45 -467 -65 -598 -97 -650 -56 -91 -119 -110 -317 -95
-328 25 -870 121 -903 160 -16 18 -50 34 -49 22 1 -17 64 -55 112 -68 84 -21
438 -82 612 -104 210 -27 398 -36 450 -21 48 13 100 60 121 110 26 60 91 608
82 691 -2 23 -6 8 -11 -45z"/>
<path d="M9085 9266 c-37 -17 -80 -62 -94 -99 -26 -69 2 -160 62 -198 42 -26
134 -22 175 8 97 72 85 235 -22 284 -48 22 -80 23 -121 5z m69 -51 c3 -10 -1
-15 -13 -15 -10 0 -35 -11 -55 -25 -45 -30 -46 -30 -46 -5 0 40 100 79 114 45z
m67 -22 c13 -16 12 -17 -3 -4 -10 7 -18 15 -18 17 0 8 8 3 21 -13z"/>
<path d="M11957 7417 c-3 -8 0 -14 7 -14 7 0 13 6 13 14 0 7 -4 13 -8 13 -4 0
-9 -6 -12 -13z"/>
<path d="M12033 7155 c0 -8 4 -12 9 -9 5 3 6 10 3 15 -9 13 -12 11 -12 -6z"/>
<path d="M12371 7032 c-13 -24 0 -44 19 -32 13 8 12 10 -3 10 -15 0 -16 3 -7
20 6 11 8 20 6 20 -3 0 -10 -8 -15 -18z"/>
<path d="M10680 6826 c0 -2 7 -7 16 -10 8 -3 12 -2 9 4 -6 10 -25 14 -25 6z"/>
<path d="M11783 6804 c4 -7 0 -15 -9 -18 -8 -3 -12 -10 -9 -16 4 -6 12 -4 22
6 13 12 13 18 3 27 -9 8 -11 8 -7 1z"/>
<path d="M5659 6293 c-13 -16 -12 -17 4 -4 9 7 17 15 17 17 0 8 -8 3 -21 -13z"/>
<path d="M5757 6111 c-17 -6 -16 -8 7 -19 22 -10 24 -9 19 5 -4 10 -2 14 5 9
6 -3 13 -3 16 2 6 10 -23 12 -47 3z"/>
<path d="M5617 6037 c-3 -8 1 -14 9 -14 16 0 19 13 5 21 -5 3 -11 0 -14 -7z"/>
<path d="M5660 6005 c-19 -23 -8 -25 14 -4 11 11 15 19 9 19 -6 0 -16 -7 -23
-15z"/>
<path d="M5518 5883 c-19 -5 -23 -20 -9 -42 6 -9 11 -10 15 -2 4 6 2 11 -5 11
-7 0 -5 8 6 20 10 11 16 19 14 19 -2 -1 -12 -3 -21 -6z"/>
<path d="M5390 5835 c0 -8 2 -15 4 -15 2 0 6 7 10 15 3 8 1 15 -4 15 -6 0 -10
-7 -10 -15z"/>
<path d="M5830 5831 c0 -6 5 -11 11 -11 6 0 9 -7 6 -15 -4 -8 -3 -16 1 -19 14
-9 11 33 -4 45 -10 8 -14 8 -14 0z"/>
<path d="M5736 5803 c5 -5 12 -12 16 -18 4 -6 8 -2 8 8 0 9 -7 17 -17 17 -9 0
-12 -3 -7 -7z"/>
<path d="M5387 5784 c-4 -4 -7 -14 -7 -23 0 -11 3 -12 11 -4 6 6 10 16 7 23
-2 6 -7 8 -11 4z"/>
<path d="M5274 5674 c-12 -10 -14 -14 -4 -11 8 2 23 -3 33 -11 16 -15 17 -14
11 3 -5 12 -4 16 4 11 8 -5 10 -1 5 10 -4 11 -8 13 -11 6 -2 -7 -8 -12 -13
-12 -6 0 -7 5 -4 10 9 14 2 12 -21 -6z"/>
<path d="M5126 5655 c-3 -8 -1 -15 4 -15 6 0 10 7 10 15 0 8 -2 15 -4 15 -2 0
-6 -7 -10 -15z"/>
<path d="M5207 5663 c-11 -17 13 -28 26 -13 9 10 9 11 0 6 -6 -3 -13 -1 -15 6
-3 9 -6 9 -11 1z"/>
<path d="M5396 5632 c-3 -5 1 -9 9 -9 8 0 12 4 9 9 -3 4 -7 8 -9 8 -2 0 -6 -4
-9 -8z"/>
<path d="M5195 5611 c-6 -11 9 -23 19 -14 9 9 7 23 -3 23 -6 0 -12 -4 -16 -9z"/>
<path d="M5188 5424 c-3 -3 -4 -14 -1 -24 4 -13 14 -18 34 -18 16 1 27 3 24 6
-2 2 0 12 4 21 7 13 4 16 -15 17 -19 2 -22 -1 -14 -11 8 -9 6 -14 -5 -19 -13
-5 -20 5 -16 27 1 8 -3 9 -11 1z"/>
<path d="M5007 5397 c-3 -8 1 -14 8 -14 7 0 11 6 8 14 -3 7 -6 13 -8 13 -2 0
-5 -6 -8 -13z"/>
<path d="M4946 5381 c-4 -6 -4 -16 0 -23 4 -6 3 -8 -3 -5 -5 4 -16 -6 -24 -20
-11 -21 -11 -27 -1 -30 6 -3 12 -9 12 -14 0 -6 -4 -8 -8 -5 -5 3 -9 -1 -9 -8
0 -7 6 -13 13 -13 7 0 11 4 8 8 -2 4 4 13 15 18 13 7 17 17 14 31 -5 18 3 24
28 22 3 -1 6 6 6 14 0 13 -5 16 -23 13 -4 0 -10 5 -14 11 -5 9 -9 9 -14 1z"/>
<path d="M5050 5355 c-9 -11 -9 -15 -1 -15 7 0 9 -5 5 -12 -4 -7 2 -5 13 5 11
9 23 14 28 10 4 -5 5 -2 1 5 -6 11 -11 11 -24 0 -13 -11 -15 -10 -9 5 8 21 3
22 -13 2z"/>
<path d="M5204 5354 c13 -13 32 -12 47 3 8 8 2 11 -24 10 -26 -1 -31 -4 -23
-13z"/>
<path d="M5350 5355 c0 -8 2 -15 4 -15 2 0 6 7 10 15 3 8 1 15 -4 15 -6 0 -10
-7 -10 -15z"/>
<path d="M5310 5331 c0 -6 4 -13 10 -16 6 -3 7 1 4 9 -7 18 -14 21 -14 7z"/>
<path d="M4990 5310 c13 -11 17 -20 10 -20 -9 0 -8 -6 4 -19 17 -19 17 -20 -3
-31 -12 -6 -21 -7 -20 -3 5 29 -2 35 -20 19 -11 -10 -24 -15 -29 -12 -5 3 -9
-1 -9 -9 0 -10 5 -11 18 -4 11 6 20 6 24 -1 3 -5 17 -9 30 -8 13 1 22 5 19 9
-2 4 0 10 5 13 5 4 11 -2 14 -11 2 -10 4 -3 4 15 0 33 -35 82 -58 82 -7 0 -2
-9 11 -20z"/>
<path d="M5240 5307 c0 -3 7 -13 16 -22 15 -15 15 -17 0 -34 -26 -28 1 -39 28
-12 15 16 16 20 5 16 -13 -5 -16 0 -13 20 1 15 0 24 -3 21 -4 -3 -12 -1 -20 5
-7 6 -13 9 -13 6z"/>
<path d="M5170 5292 c0 -5 7 -9 15 -9 8 0 12 4 9 9 -3 4 -9 8 -15 8 -5 0 -9
-4 -9 -8z"/>
<path d="M5099 5253 c-13 -16 -12 -17 4 -4 16 13 21 21 13 21 -2 0 -10 -8 -17
-17z"/>
<path d="M5017 5186 c-8 -9 -14 -24 -12 -33 2 -10 4 -20 4 -23 1 -3 11 -7 23
-7 15 -2 18 1 10 6 -10 6 -10 10 2 20 8 7 20 10 25 7 5 -4 13 -1 17 5 4 7 3 9
-4 5 -6 -3 -15 2 -21 11 -6 10 -11 14 -11 8 0 -5 -4 -4 -9 3 -7 11 -11 11 -24
-2z m29 -18 c4 -7 3 -8 -4 -4 -7 4 -12 2 -12 -4 0 -6 -5 -8 -10 -5 -11 7 -4
25 10 25 5 0 12 -5 16 -12z"/>
<path d="M4930 5179 c0 -6 -9 -8 -20 -4 -13 4 -20 2 -20 -6 0 -7 3 -9 7 -6 3
4 12 -1 20 -11 7 -9 12 -12 11 -5 -2 6 2 11 7 11 6 0 9 -4 8 -9 -2 -5 2 -9 7
-9 6 0 4 -12 -4 -28 -13 -24 -13 -29 -1 -29 8 0 11 5 8 10 -4 6 0 8 9 5 8 -4
21 -2 29 3 10 6 8 9 -10 9 -19 0 -21 2 -11 15 10 11 9 18 -4 30 -9 9 -16 21
-16 26 0 5 -4 9 -10 9 -5 0 -10 -5 -10 -11z"/>
<path d="M4873 5138 c-30 -14 -29 -22 3 -36 14 -7 23 -8 19 -3 -3 5 -1 12 5
16 5 3 10 1 10 -6 0 -8 4 -8 15 1 16 13 21 35 6 25 -5 -3 -12 -1 -16 5 -7 12
-13 12 -42 -2z m17 -18 c0 -5 -5 -10 -11 -10 -5 0 -7 5 -4 10 3 6 8 10 11 10
2 0 4 -4 4 -10z"/>
<path d="M5063 5115 c-15 -16 -17 -39 -4 -31 5 4 11 0 14 -6 2 -7 4 2 5 20 1
37 1 36 -15 17z"/>
<path d="M5286 5093 c-6 -14 -5 -15 5 -6 7 7 10 15 7 18 -3 3 -9 -2 -12 -12z"/>
<path d="M5125 5090 c-3 -5 -1 -10 4 -10 6 0 11 5 11 10 0 6 -2 10 -4 10 -3 0
-8 -4 -11 -10z"/>
<path d="M5205 5081 c-10 -17 12 -21 25 -6 10 12 10 15 -3 15 -9 0 -18 -4 -22
-9z"/>
<path d="M5142 5073 c-9 -4 -10 -8 -2 -18 8 -10 8 -15 0 -20 -6 -4 -17 0 -23
10 -14 18 -44 12 -44 -9 0 -18 27 -16 28 3 0 11 3 8 9 -6 6 -16 15 -21 31 -18
24 5 39 15 22 15 -6 0 -10 11 -8 25 1 14 2 25 1 24 0 0 -7 -3 -14 -6z"/>
<path d="M4990 5065 c0 -8 29 -12 39 -5 9 5 4 8 -13 8 -14 0 -26 -2 -26 -3z"/>
<path d="M5176 5052 c-3 -5 1 -9 9 -9 8 0 12 4 9 9 -3 4 -7 8 -9 8 -2 0 -6 -4
-9 -8z"/>
<path d="M4961 5028 l-14 -23 24 20 c13 11 26 21 28 22 2 2 -2 3 -10 3 -8 0
-20 -10 -28 -22z"/>
<path d="M5046 5002 c-2 -4 -1 -14 4 -22 7 -11 9 -9 7 8 -1 24 -3 26 -11 14z"/>
<path d="M5086 4997 c3 -10 9 -15 12 -12 3 3 0 11 -7 18 -10 9 -11 8 -5 -6z"/>
<path d="M5070 4911 c0 -7 -5 -9 -12 -5 -7 5 -8 3 -3 -5 5 -9 10 -10 18 -2 6
6 8 14 4 18 -4 3 -7 1 -7 -6z"/>
<path d="M5084 4883 c4 -8 2 -13 -6 -13 -8 0 -6 -5 5 -11 26 -15 34 -2 12 19
-10 9 -15 11 -11 5z"/>
<path d="M4705 4860 c-3 -6 1 -13 10 -16 19 -8 30 0 20 15 -8 14 -22 14 -30 1z"/>
<path d="M4663 4804 c3 -4 2 -16 -4 -28 -10 -20 -10 -20 5 -2 19 24 20 36 4
36 -6 0 -8 -3 -5 -6z"/>
<path d="M4676 4774 c-8 -21 -3 -26 17 -18 9 3 13 12 10 20 -7 19 -19 18 -27
-2z"/>
<path d="M4596 4704 c-8 -22 -4 -25 11 -9 7 8 9 16 4 19 -5 3 -12 -1 -15 -10z"/>
<path d="M4862 4691 c7 -11 17 -17 22 -14 6 4 5 8 -2 11 -7 2 -10 8 -6 13 3 5
-2 9 -10 9 -13 0 -14 -3 -4 -19z"/>
<path d="M12125 6518 c-27 -5 -87 -27 -131 -48 -170 -82 -264 -242 -264 -448
0 -111 23 -207 76 -321 56 -119 112 -197 210 -292 95 -91 149 -129 259 -180
277 -130 561 -107 722 58 182 186 170 491 -33 805 -54 85 -180 217 -261 274
-174 125 -403 185 -578 152z"/>
<path d="M5960 6426 c0 -2 8 -10 18 -17 15 -13 16 -12 3 4 -13 16 -21 21 -21
13z"/>
<path d="M7966 6217 c3 -10 9 -15 12 -12 3 3 0 11 -7 18 -10 9 -11 8 -5 -6z"/>
<path d="M6730 5655 c0 -8 4 -15 10 -15 5 0 7 7 4 15 -4 8 -8 15 -10 15 -2 0
-4 -7 -4 -15z"/>
<path d="M6690 5617 c0 -9 6 -17 13 -17 8 0 7 -4 -3 -10 -13 -8 -12 -10 3 -10
21 0 21 9 2 34 -13 17 -15 18 -15 3z"/>
<path d="M6038 5623 c-25 -30 -27 -39 -8 -40 13 -1 16 4 13 18 -5 17 5 24 30
20 4 0 7 4 7 9 0 16 -26 12 -42 -7z"/>
<path d="M5951 5596 c-10 -12 -8 -17 7 -25 15 -8 23 -7 32 4 10 12 7 13 -16 9
-24 -4 -26 -3 -14 11 7 8 10 15 7 15 -2 0 -10 -6 -16 -14z"/>
<path d="M6015 5557 c-28 -17 -29 -37 -2 -37 18 0 19 2 7 10 -13 8 -8 14 11
12 3 -1 6 6 6 14 0 8 -1 14 -1 14 -1 -1 -10 -6 -21 -13z"/>
<path d="M5765 5521 c-3 -5 -2 -12 3 -15 5 -3 9 1 9 9 0 17 -3 19 -12 6z"/>
<path d="M5693 5455 c0 -8 3 -13 5 -10 3 3 12 -1 21 -7 10 -8 9 -4 -3 10 -23
26 -23 26 -23 7z"/>
<path d="M6138 5423 c7 -3 16 -2 19 1 4 3 -2 6 -13 5 -11 0 -14 -3 -6 -6z"/>
<path d="M5740 5385 c-7 -9 -11 -17 -9 -20 3 -2 10 5 17 15 14 24 10 26 -8 5z"/>
<path d="M5971 5356 c-7 -8 -14 -23 -16 -35 -3 -18 -1 -19 15 -9 10 6 16 18
13 25 -4 9 0 11 11 7 12 -5 15 -2 10 10 -8 20 -18 20 -33 2z"/>
<path d="M6146 5357 c3 -10 9 -15 12 -12 3 3 0 11 -7 18 -10 9 -11 8 -5 -6z"/>
<path d="M6019 5333 c-13 -16 -12 -17 4 -4 9 7 17 15 17 17 0 8 -8 3 -21 -13z"/>
<path d="M6087 5325 c-4 -8 -3 -16 1 -19 4 -3 9 4 9 15 2 23 -3 25 -10 4z"/>
<path d="M5574 5295 c21 -16 32 -13 21 4 -3 6 -14 11 -23 11 -15 -1 -15 -2 2
-15z"/>
<path d="M5843 5298 c11 -7 3 -12 -15 -9 -13 2 -9 -6 9 -20 11 -10 14 -10 9
-1 -4 7 -1 12 9 12 9 0 22 6 29 13 11 11 7 13 -20 13 -20 0 -29 -3 -21 -8z"/>
<path d="M6126 5295 c-3 -8 -1 -15 4 -15 6 0 10 7 10 15 0 8 -2 15 -4 15 -2 0
-6 -7 -10 -15z"/>
<path d="M5950 5274 c0 -8 5 -12 10 -9 6 4 8 11 5 16 -9 14 -15 11 -15 -7z"/>
<path d="M5996 5278 c3 -5 10 -6 15 -3 13 9 11 12 -6 12 -8 0 -12 -4 -9 -9z"/>
<path d="M6042 5277 c-8 -10 -6 -13 11 -14 12 0 16 1 9 4 -6 3 -10 9 -6 14 8
14 -2 11 -14 -4z"/>
<path d="M6088 5263 c6 -3 10 -9 6 -14 -8 -14 2 -11 14 4 8 10 6 13 -11 14
-12 0 -16 -1 -9 -4z"/>
<path d="M5680 5221 c0 -6 5 -13 10 -16 6 -3 10 1 10 9 0 9 -4 16 -10 16 -5 0
-10 -4 -10 -9z"/>
<path d="M5965 5181 c-3 -5 -2 -12 3 -15 5 -3 9 1 9 9 0 17 -3 19 -12 6z"/>
<path d="M5918 5173 c7 -3 16 -2 19 1 4 3 -2 6 -13 5 -11 0 -14 -3 -6 -6z"/>
<path d="M5870 5122 c0 -6 6 -12 13 -15 8 -3 6 -9 -7 -19 -22 -17 -12 -26 23
-24 27 1 42 26 16 26 -9 0 -14 -4 -11 -8 3 -5 -1 -9 -9 -9 -13 0 -12 4 2 19
15 17 17 17 35 1 11 -10 15 -19 9 -21 -6 -2 -11 -10 -11 -18 0 -9 -4 -12 -10
-9 -5 3 -10 -1 -10 -10 0 -9 4 -14 9 -11 5 4 11 3 14 -1 2 -5 3 -3 1 4 -1 6 6
19 17 29 17 15 18 19 4 26 -8 5 -15 14 -15 19 0 6 4 8 8 5 5 -3 9 1 9 9 0 18
-13 20 -20 3 -4 -10 -8 -10 -15 1 -8 11 -10 11 -14 0 -4 -12 -7 -12 -21 0 -10
7 -17 9 -17 3z"/>
<path d="M6022 5025 c4 -4 -1 -20 -12 -35 -15 -20 -16 -27 -5 -27 8 0 12 4 9
8 -2 4 0 10 6 14 5 3 10 1 10 -6 0 -8 4 -8 15 1 8 7 15 18 14 24 0 7 -2 6 -6
-1 -2 -7 -9 -13 -14 -13 -4 0 -6 6 -3 14 3 8 -1 17 -8 22 -7 4 -10 4 -6 -1z"/>
<path d="M5895 4990 c-3 -6 1 -7 9 -4 18 7 21 14 7 14 -6 0 -13 -4 -16 -10z"/>
<path d="M5912 4954 c1 -12 -2 -27 -9 -35 -10 -12 -8 -15 10 -16 12 0 16 1 9
4 -10 4 -10 9 3 23 14 16 14 18 -1 31 -14 11 -16 10 -12 -7z"/>
<path d="M5980 4945 c8 -11 15 -21 16 -23 1 -2 5 5 8 15 4 9 4 14 0 10 -4 -4
-14 -1 -23 6 -14 11 -15 10 -1 -8z"/>
<path d="M5954 4909 c-4 -7 -3 -9 4 -5 5 3 13 0 15 -6 4 -9 6 -10 6 -1 1 17
-16 25 -25 12z"/>
<path d="M5805 4733 c-64 -9 -153 -36 -222 -68 -270 -125 -516 -407 -617 -708
-46 -140 -59 -227 -53 -366 7 -184 47 -284 156 -391 176 -172 436 -187 708
-40 286 154 513 475 595 840 18 83 16 273 -5 348 -40 150 -131 274 -244 335
-85 45 -209 65 -318 50z"/>
<path d="M6530 5490 c-23 -13 -54 -23 -66 -21 -7 1 -11 -10 -10 -23 0 -13 3
-23 6 -21 3 2 12 -4 20 -13 13 -14 12 -15 -3 -9 -24 9 -21 -10 3 -23 18 -10
20 -8 16 12 -3 13 -8 33 -11 44 -5 14 -1 23 9 27 9 4 16 2 16 -2 0 -5 -6 -12
-12 -14 -10 -4 -10 -6 -1 -6 6 -1 18 8 26 19 8 11 16 18 19 15 2 -3 5 2 5 10
0 8 -1 15 -1 14 -1 0 -8 -4 -16 -9z"/>
<path d="M6510 5399 c0 -5 5 -7 10 -4 6 3 10 8 10 11 0 2 -4 4 -10 4 -5 0 -10
-5 -10 -11z"/>
<path d="M6221 5473 c-7 -8 -10 -17 -7 -20 9 -9 29 13 25 25 -2 6 -10 3 -18
-5z"/>
<path d="M5645 5030 c-3 -5 -1 -10 4 -10 6 0 11 5 11 10 0 6 -2 10 -4 10 -3 0
-8 -4 -11 -10z"/>
<path d="M4740 4602 c0 -12 19 -26 26 -19 2 2 -2 10 -11 17 -9 8 -15 8 -15 2z"/>
<path d="M5006 4408 c3 -5 10 -6 15 -3 13 9 11 12 -6 12 -8 0 -12 -4 -9 -9z"/>
</g>
</svg>
