<svg fill="none" height="100%" width="100%" viewBox="0 0 800 800" xmlns:xlink="http://www.w3.org/1999/xlink" xmlns="http://www.w3.org/2000/svg"><defs><filter id="i0"><feColorMatrix values="0 0 0 0 1 0 0 0 0 1 0 0 0 0 1 0 0 0 1 0" type="matrix" /></filter><mask height="20000" width="20000" y="-10000" x="-10000" maskContentUnits="userSpaceOnUse" maskUnits="userSpaceOnUse" style="mask-type: alpha" mask-type="alpha" id="i1"><g filter="url(#i0)" transform="matrix(1,0,0,1,400,418.618)"><g id="i2"><path fill="#e7efff" d="M0,-232.727C128.532,-232.727,232.727,-128.532,232.727,0C232.727,128.532,128.532,232.727,0,232.727C-128.532,232.727,-232.727,128.532,-232.727,0C-232.727,-128.532,-128.532,-232.727,0,-232.727Z" /></g></g></mask><filter id="i3"><feColorMatrix values="0 0 0 0 1 0 0 0 0 1 0 0 0 0 1 0 0 0 1 0" type="matrix" /></filter><mask height="20000" width="20000" y="-10000" x="-10000" maskContentUnits="userSpaceOnUse" maskUnits="userSpaceOnUse" style="mask-type: alpha" mask-type="alpha" id="i4"><g filter="url(#i3)" transform="matrix(1,0,0,1,400,418.618)"><g id="i2"><path fill="#e7efff" d="M0,-232.727C128.532,-232.727,288.537,-97.68,192.727,-12C180,-0.618,12,129.382,0,128.727C-10.075,128.177,-168,9.382,-192.727,-10C-285.139,-82.435,-128.532,-232.727,0,-232.727Z" /></g></g></mask></defs><g opacity="0" id="i5"><animate repeatCount="indefinite" attributeName="opacity" dur="4.533s" begin="0s" fill="freeze" values="0; 1; 1" keyTimes="0; 0.029412; 1" keySplines="0.333 0 0.667 1; 0 0 1 1" calcMode="spline" /><g transform="translate(400,418.618) scale(1,1) translate(0,0)"><g id="i2"><path fill="#e7efff" d="M0,-232.727C128.532,-232.727,232.727,-128.532,232.727,0C232.727,128.532,128.532,232.727,0,232.727C-128.532,232.727,-232.727,128.532,-232.727,0C-232.727,-128.532,-128.532,-232.727,0,-232.727Z" /></g></g></g><g visibility="hidden" id="i6"><animate repeatCount="indefinite" begin="0s" calcMode="discrete" dur="4.533s" values="hidden; visible; visible; visible" keyTimes="0; 0.109992; 0.999926; 1" attributeName="visibility" /><g transform="translate(176.582,209.164)"><g transform="scale(0,0)"><animateTransform repeatCount="indefinite" type="scale" attributeName="transform" dur="4.533s" begin="0s" calcMode="spline" values="0 0; 0 0; 1 1; 0 0; 1 1; 0 0; 1 1; 0 0; 1 1; 0 0; 1 1; 0 0; 1 1; 0 0; 1 1; 0 0; 1 1; 0 0" keyTimes="0; 0.110294; 0.220588; 0.330882; 0.441176; 0.551471; 0.661765; 0.772059; 0.882353; 0.992647; 1; 1; 1; 1; 1; 1; 1; 1" keySplines="0 0 1 1; 0.333 0 0.667 1; 0.333 0 0.667 1; 0.333 0 0.667 1; 0.333 0 0.667 1; 0.333 0 0.667 1; 0.333 0 0.667 1; 0.333 0 0.667 1; 0.333 0 0.667 1; 0.333 0 0.667 1; 0.333 0 0.667 1; 0.333 0 0.667 1; 0.333 0 0.667 1; 0.333 0 0.667 1; 0.333 0 0.667 1; 0.333 0 0.667 1; 0.333 0 0.667 1" fill="freeze" /><g transform="translate(0,0)"><g id="i2"><path fill="#00c99f" d="M0,-13.964C7.712,-13.964,13.964,-7.712,13.964,0C13.964,7.712,7.712,13.964,0,13.964C-7.712,13.964,-13.964,7.712,-13.964,0C-13.964,-7.712,-7.712,-13.964,0,-13.964Z" /></g></g></g></g></g><g id="i7"><g transform="translate(204.509,381.382)"><g transform="scale(0,0)"><animateTransform repeatCount="indefinite" type="scale" attributeName="transform" dur="4.533s" begin="0s" calcMode="spline" values="0 0; 1 1; 0 0; 1 1; 0 0; 1 1; 0 0; 1 1; 0 0; 0 0" keyTimes="0; 0.110294; 0.220588; 0.330882; 0.441176; 0.551471; 0.661765; 0.772059; 0.882353; 1" keySplines="0.333 0 0.667 1; 0.333 0 0.667 1; 0.333 0 0.667 1; 0.333 0 0.667 1; 0.333 0 0.667 1; 0.333 0 0.667 1; 0.333 0 0.667 1; 0.333 0 0.667 1; 0 0 1 1" fill="freeze" /><g transform="translate(0,0)"><g id="i2"><path fill="#ff4d69" d="M0,-13.964C7.712,-13.964,13.964,-7.712,13.964,0C13.964,7.712,7.712,13.964,0,13.964C-7.712,13.964,-13.964,7.712,-13.964,0C-13.964,-7.712,-7.712,-13.964,0,-13.964Z" /></g></g></g></g></g><g visibility="hidden" id="i8"><animate repeatCount="indefinite" begin="0s" calcMode="discrete" dur="4.533s" values="hidden; visible; visible; visible" keyTimes="0; 0.109992; 0.999926; 1" attributeName="visibility" /><g transform="translate(600.145,376.727)"><g transform="scale(0,0)"><animateTransform repeatCount="indefinite" type="scale" attributeName="transform" dur="4.533s" begin="0s" calcMode="spline" values="0 0; 0 0; 1 1; 0 0; 1 1; 0 0; 1 1; 0 0; 1 1; 0 0; 1 1; 0 0; 1 1; 0 0; 1 1; 0 0; 1 1; 0 0" keyTimes="0; 0.110294; 0.220588; 0.330882; 0.441176; 0.551471; 0.661765; 0.772059; 0.882353; 0.992647; 1; 1; 1; 1; 1; 1; 1; 1" keySplines="0 0 1 1; 0.333 0 0.667 1; 0.333 0 0.667 1; 0.333 0 0.667 1; 0.333 0 0.667 1; 0.333 0 0.667 1; 0.333 0 0.667 1; 0.333 0 0.667 1; 0.333 0 0.667 1; 0.333 0 0.667 1; 0.333 0 0.667 1; 0.333 0 0.667 1; 0.333 0 0.667 1; 0.333 0 0.667 1; 0.333 0 0.667 1; 0.333 0 0.667 1; 0.333 0 0.667 1" fill="freeze" /><g transform="translate(0,0)"><g id="i2"><path fill="#ffa100" d="M0,-13.964C7.712,-13.964,13.964,-7.712,13.964,0C13.964,7.712,7.712,13.964,0,13.964C-7.712,13.964,-13.964,7.712,-13.964,0C-13.964,-7.712,-7.712,-13.964,0,-13.964Z" /></g></g></g></g></g><g id="i9"><g transform="translate(618.764,600.145)"><g transform="scale(0,0)"><animateTransform repeatCount="indefinite" type="scale" attributeName="transform" dur="4.533s" begin="0s" calcMode="spline" values="0 0; 1 1; 0 0; 1 1; 0 0; 1 1; 0 0; 1 1; 0 0; 0 0" keyTimes="0; 0.110294; 0.220588; 0.330882; 0.441176; 0.551471; 0.661765; 0.772059; 0.882353; 1" keySplines="0.333 0 0.667 1; 0.333 0 0.667 1; 0.333 0 0.667 1; 0.333 0 0.667 1; 0.333 0 0.667 1; 0.333 0 0.667 1; 0.333 0 0.667 1; 0.333 0 0.667 1; 0 0 1 1" fill="freeze" /><g transform="translate(0,0)"><g id="i2"><path fill="#00c99f" d="M0,-13.964C7.712,-13.964,13.964,-7.712,13.964,0C13.964,7.712,7.712,13.964,0,13.964C-7.712,13.964,-13.964,7.712,-13.964,0C-13.964,-7.712,-7.712,-13.964,0,-13.964Z" /></g></g></g></g></g><g mask="url(#i1)" id="i10"><g transform="translate(400,1027.451)"><animateTransform repeatCount="indefinite" type="translate" attributeName="transform" dur="4.533s" begin="0s" calcMode="spline" values="400 1027.451; 400 467.451; 400 467.451" keyTimes="0; 0.183823; 1" keySplines="0.333 0 0 1; 0 0 1 1" fill="freeze" /><g transform="scale(1,1) translate(-400,-467.451)"><g id="i11" transform="matrix(1,0,0,1,400,534.942)"><path fill="#4e6aff" d="M181.527,-116.324C181.527,-116.324,181.527,29.224,181.527,29.224C101.094,129.479,-45.381,145.548,-145.636,65.115C-158.873,54.496,-170.908,42.461,-181.527,29.224C-181.527,29.224,-181.527,-116.324,-181.527,-116.324C-181.527,-116.324,181.527,-116.324,181.527,-116.324Z" /></g><g id="i12" transform="matrix(1,0,0,1,400,416.291)"><path fill="#323fd4" d="M181.527,2.327C181.527,2.327,0,132.655,0,132.655C0,132.655,-181.527,2.327,-181.527,2.327C-181.527,2.327,0,-132.655,0,-132.655C0,-132.655,181.527,2.327,181.527,2.327Z" /></g><g id="i13" transform="matrix(1,0,0,1,530.327,572.218)"><path fill="#ffffff" d="M13.964,4.655C13.964,4.655,-13.964,4.655,-13.964,4.655C-16.535,4.655,-18.618,2.571,-18.618,0C-18.618,-2.571,-16.535,-4.655,-13.964,-4.655C-13.964,-4.655,13.964,-4.655,13.964,-4.655C16.535,-4.655,18.618,-2.571,18.618,0C18.618,2.571,16.535,4.655,13.964,4.655Z" /></g><g id="i2" transform="matrix(1,0,0,1,530.327,544.291)"><path fill="#ffffff" d="M13.964,4.655C13.964,4.655,-13.964,4.655,-13.964,4.655C-16.535,4.655,-18.618,2.571,-18.618,0C-18.618,-2.571,-16.535,-4.655,-13.964,-4.655C-13.964,-4.655,13.964,-4.655,13.964,-4.655C16.535,-4.655,18.618,-2.571,18.618,0C18.618,2.571,16.535,4.655,13.964,4.655Z" /></g></g></g></g><g display="none" transform="matrix(1,0,0,1,400,418.618)" id="i14"><g id="i2"><path fill="#e7efff" d="M0,-232.727C128.532,-232.727,232.727,-128.532,232.727,0C232.727,128.532,128.532,232.727,0,232.727C-128.532,232.727,-232.727,128.532,-232.727,0C-232.727,-128.532,-128.532,-232.727,0,-232.727Z" /></g></g><g mask="url(#i4)" id="i15"><g transform="translate(400,992)"><animateTransform repeatCount="indefinite" type="translate" attributeName="transform" dur="4.533s" begin="0s" calcMode="spline" values="400 992; 400 992; 400 400; 400 400" keyTimes="0; 0.132353; 0.316176; 1" keySplines="0 0 1 1; 0.333 0 0 1; 0 0 1 1" fill="freeze" /><g transform="scale(1,1) translate(-400,-400)"><g id="i11" transform="matrix(1,0,0,1,400,400)"><path fill="#ffffff" d="M139.636,-139.636C139.636,-139.636,139.636,48.687,139.636,48.687C139.636,48.687,0,148.945,0,148.945C0,148.945,-139.636,48.687,-139.636,48.687C-139.636,48.687,-139.636,-139.636,-139.636,-139.636C-139.636,-144.777,-135.468,-148.945,-130.327,-148.945C-130.327,-148.945,130.327,-148.945,130.327,-148.945C135.468,-148.945,139.636,-144.777,139.636,-139.636Z" /></g><g id="i12" transform="matrix(1,0,0,1,399.997,367.416)"><path fill="#7f96d1" d="M64.049,-12.053C57.393,-47.421,23.325,-70.695,-12.043,-64.039C-47.411,-57.382,-70.686,-23.315,-64.029,12.053C-57.373,47.421,-23.305,70.695,12.063,64.039C14.77,63.529,17.443,62.849,20.064,62.001C22.536,61.296,23.967,58.72,23.262,56.248C22.557,53.776,19.981,52.344,17.509,53.049C17.397,53.081,17.287,53.118,17.178,53.158C-12.179,62.63,-43.657,46.509,-53.129,17.152C-62.601,-12.205,-46.48,-43.683,-17.123,-53.155C12.234,-62.627,43.712,-46.506,53.184,-17.149C56.042,-8.291,56.64,1.141,54.926,10.289C53.284,18.952,44.931,24.644,36.268,23.002C28.746,21.576,23.294,15.013,23.275,7.357C23.275,7.357,23.275,-27.925,23.275,-27.925C23.275,-30.496,21.192,-32.579,18.621,-32.579C18.621,-32.579,4.657,-32.579,4.657,-32.579C-15.908,-32.579,-32.579,-15.908,-32.579,4.657C-32.531,20.081,-19.99,32.546,-4.566,32.498C4.36,32.47,12.735,28.178,17.969,20.948C25.528,32.683,41.169,36.067,52.904,28.508C58.73,24.755,62.759,18.774,64.049,11.965C65.537,4.028,65.537,-4.116,64.049,-12.053ZM-4.652,23.275C-14.935,23.275,-23.27,14.94,-23.27,4.657C-23.27,-10.767,-10.767,-23.27,4.657,-23.27C4.657,-23.27,13.966,-23.27,13.966,-23.27C13.966,-23.27,13.966,4.657,13.966,4.657C13.966,14.94,5.631,23.275,-4.652,23.275Z" /></g><g id="i13" transform="matrix(1,0,0,1,400,469.818)"><path fill="#a5bced" d="M60.509,4.655C60.509,4.655,-60.509,4.655,-60.509,4.655C-63.08,4.655,-65.164,2.571,-65.164,0C-65.164,-2.571,-63.08,-4.655,-60.509,-4.655C-60.509,-4.655,60.509,-4.655,60.509,-4.655C63.08,-4.655,65.164,-2.571,65.164,0C65.164,2.571,63.08,4.655,60.509,4.655Z" /></g><g id="i2" transform="matrix(1,0,0,1,292.945,274.327)"><path fill="#8fa2ff" d="M9.309,4.655C9.309,4.655,-9.309,4.655,-9.309,4.655C-11.88,4.655,-13.964,2.571,-13.964,0C-13.964,-2.571,-11.88,-4.655,-9.309,-4.655C-9.309,-4.655,9.309,-4.655,9.309,-4.655C11.88,-4.655,13.964,-2.571,13.964,0C13.964,2.571,11.88,4.655,9.309,4.655Z" /></g></g></g></g><g display="none" transform="matrix(1,0,0,1,400,418.618)" id="i16"><g id="i2"><path fill="#e7efff" d="M0,-232.727C128.532,-232.727,288.537,-97.68,192.727,-12C180,-0.618,12,129.382,0,128.727C-10.075,128.177,-168,9.382,-192.727,-10C-285.139,-82.435,-128.532,-232.727,0,-232.727Z" /></g></g><g id="i17"><g transform="translate(558.255,241.745)"><g transform="scale(0,0)"><animateTransform repeatCount="indefinite" type="scale" attributeName="transform" dur="4.533s" begin="0s" calcMode="spline" values="0 0; 0 0; 1 1; 1 1" keyTimes="0; 0.301471; 0.485294; 1" keySplines="0 0 1 1; 0.012 0.166 0.081 1; 0 0 1 1" fill="freeze" /><g transform="translate(-558.255,-241.745)"><g id="i13" transform="matrix(1,0,0,1,558.255,241.745)"><path fill="#ff4d69" d="M0,-79.127C43.701,-79.127,79.127,-43.701,79.127,0C79.127,43.701,43.701,79.127,0,79.127C-43.701,79.127,-79.127,43.701,-79.127,0C-79.127,-43.701,-43.701,-79.127,0,-79.127Z" /></g><g id="i2" transform="matrix(1,0,0,1,548.816,241.747)"><path fill="#ffffff" d="M9.438,41.889C4.297,41.889,0.129,37.721,0.129,32.58C0.129,32.58,0.129,-17.503,0.129,-17.503C0.129,-17.503,-5.037,-14.943,-5.037,-14.943C-9.568,-12.513,-15.211,-14.216,-17.641,-18.747C-20.071,-23.278,-18.367,-28.92,-13.836,-31.35C-13.667,-31.44,-13.496,-31.526,-13.322,-31.606C-13.322,-31.606,5.296,-40.915,5.296,-40.915C9.9,-43.203,15.487,-41.325,17.775,-36.721C18.414,-35.435,18.747,-34.019,18.748,-32.583C18.748,-32.583,18.748,32.58,18.748,32.58C18.748,37.721,14.579,41.889,9.438,41.889Z" /></g></g></g></g></g></svg>