<?xml version="1.0" standalone="no"?>
<!DOCTYPE svg PUBLIC "-//W3C//DTD SVG 20010904//EN"
 "http://www.w3.org/TR/2001/REC-SVG-20010904/DTD/svg10.dtd">
<svg version="1.0" xmlns="http://www.w3.org/2000/svg"
 width="1920.000000pt" height="1920.000000pt" viewBox="0 0 1920.000000 1920.000000"
 preserveAspectRatio="xMidYMid meet">
<metadata>
Created by potrace 1.16, written by Peter Selinger 2001-2019
</metadata>
<g transform="translate(0.000000,1920.000000) scale(0.100000,-0.100000)"
fill="#000000" stroke="none">
<path d="M0 9600 l0 -9600 9600 0 9600 0 0 9600 0 9600 -9600 0 -9600 0 0
-9600z m15744 8578 c53 -76 -52 -151 -107 -77 -33 45 -1 99 58 99 24 0 39 -7
49 -22z m-12333 -547 c327 -79 348 -82 622 -91 164 -5 269 -13 302 -23 129
-37 218 -95 275 -179 37 -56 49 -89 175 -478 26 -80 58 -165 70 -190 13 -25
73 -99 134 -165 133 -143 155 -182 159 -285 3 -74 2 -76 -35 -125 -46 -59
-105 -101 -161 -114 -23 -5 -42 -8 -42 -7 0 0 7 19 15 41 30 85 9 162 -66 233
-23 23 -45 40 -47 37 -2 -2 7 -34 22 -70 30 -76 34 -160 10 -207 -9 -17 -34
-54 -55 -81 -22 -27 -39 -55 -39 -63 0 -8 -7 -25 -15 -38 -9 -13 -36 -115 -61
-227 -51 -228 -67 -276 -112 -341 -67 -98 -127 -129 -394 -207 -255 -75 -308
-94 -489 -169 -274 -115 -317 -111 -549 56 -422 303 -483 343 -599 401 -139
70 -275 152 -350 211 -63 50 -109 128 -181 305 l-57 140 14 55 c10 37 17 153
23 355 8 311 12 340 57 430 43 85 84 126 289 285 109 85 295 233 414 328 118
95 242 186 274 202 87 44 147 41 397 -19z m3519 -253 c37 -145 45 -155 145
-183 63 -18 88 -32 80 -45 -3 -4 -36 -17 -73 -29 -99 -30 -115 -46 -142 -141
-29 -103 -44 -102 -75 3 -12 43 -29 85 -36 92 -8 8 -50 27 -94 42 -47 17 -80
34 -80 42 0 8 33 24 83 40 46 15 88 34 93 42 5 8 21 51 35 97 29 93 47 105 64
40z m1512 -35 c32 -36 31 -61 -1 -93 -35 -35 -49 -37 -85 -9 -31 24 -35 72 -9
101 21 23 75 24 95 1z m6759 -360 c30 -112 50 -133 156 -168 124 -40 123 -52
-6 -89 -117 -34 -118 -35 -161 -203 -8 -32 -16 -43 -30 -43 -15 0 -23 13 -35
58 -35 125 -45 143 -89 162 -22 10 -69 26 -103 35 -48 13 -63 22 -63 36 0 14
19 24 83 43 45 14 92 32 104 41 22 15 40 58 68 158 12 43 20 57 34 57 16 0 24
-17 42 -87z m-3731 7 c271 -25 566 -89 805 -175 154 -55 412 -178 545 -260
287 -178 577 -447 787 -730 286 -387 483 -858 554 -1328 25 -161 35 -499 21
-649 l-10 -108 43 -64 c81 -121 110 -235 102 -391 -11 -206 -100 -503 -227
-760 -72 -147 -125 -229 -203 -312 -33 -35 -58 -65 -56 -67 2 -2 40 -25 84
-51 245 -143 380 -309 436 -535 18 -72 21 -104 16 -215 -2 -71 -12 -161 -21
-200 -47 -197 -155 -503 -342 -972 l-145 -362 15 -88 c20 -113 20 -294 0 -414
-34 -202 -145 -472 -262 -635 l-58 -80 -13 -115 c-39 -365 -194 -804 -394
-1122 -31 -48 -59 -97 -62 -110 -20 -64 -93 -183 -145 -235 -51 -52 -58 -63
-69 -122 -34 -173 -135 -415 -234 -558 -63 -92 -186 -208 -263 -249 -142 -75
-284 -84 -405 -24 -62 30 -68 31 -115 21 -110 -25 -253 18 -333 100 -23 24
-41 46 -41 50 0 4 -29 10 -64 14 -35 3 -84 13 -110 22 -60 20 -140 93 -174
158 -24 46 -27 61 -27 151 1 97 6 121 50 227 5 13 -4 19 -47 32 -134 39 -208
127 -226 270 l-7 59 -95 34 c-52 19 -100 35 -106 36 -5 1 -54 -63 -108 -143
-54 -80 -108 -156 -120 -170 -13 -14 -35 -47 -50 -73 -82 -143 -310 -437 -466
-601 -121 -126 -234 -220 -302 -250 -61 -27 -255 -218 -390 -383 -93 -116
-100 -127 -109 -185 -37 -232 -154 -600 -266 -836 -19 -40 -41 -98 -49 -128
-21 -83 -72 -206 -135 -330 -52 -103 -58 -120 -73 -232 -50 -368 -188 -659
-396 -837 -176 -150 -419 -267 -685 -330 -417 -99 -857 -25 -1195 200 -269
179 -375 401 -326 681 30 173 124 400 228 550 104 151 312 322 490 404 l76 35
10 65 c6 36 18 119 27 185 9 66 29 158 45 205 15 47 33 125 40 175 19 150 109
542 154 675 14 41 26 90 26 108 0 58 39 232 81 357 48 146 185 425 314 639 52
88 93 161 91 163 -12 12 -485 -181 -554 -227 -107 -70 -126 -95 -187 -245 -91
-226 -230 -478 -359 -654 -33 -45 -64 -88 -68 -95 -4 -6 -32 -55 -63 -108 -31
-54 -94 -152 -140 -217 -63 -91 -90 -140 -110 -203 -40 -122 -99 -260 -156
-366 -44 -82 -68 -122 -162 -259 -12 -17 -33 -51 -47 -74 -38 -64 -124 -146
-188 -178 -91 -46 -150 -54 -324 -48 -264 9 -503 79 -821 238 -415 208 -757
500 -881 754 -96 196 -93 400 10 571 18 29 38 71 45 91 50 158 199 344 356
449 70 47 182 96 275 121 70 19 280 24 384 10 l62 -9 15 47 c9 26 29 68 45 93
15 26 34 74 41 107 35 155 168 496 262 667 21 37 41 82 44 100 64 300 267 585
612 862 68 54 112 86 395 278 243 165 572 310 946 418 39 11 72 22 72 24 0 2
-10 25 -22 52 -67 152 -64 303 8 446 73 143 265 274 457 309 47 9 71 18 78 31
15 28 2 38 -51 38 -26 0 -101 9 -167 20 -206 36 -357 84 -551 176 -355 169
-653 432 -917 809 -92 132 -129 193 -208 345 -41 79 -79 135 -120 179 -78 84
-123 179 -139 291 -12 83 -13 87 -67 145 -105 115 -194 273 -245 433 -23 74
-34 92 -101 168 -91 101 -186 243 -216 322 -26 70 -36 186 -20 244 16 56 57
116 106 153 l40 30 0 105 c0 92 3 111 25 154 51 100 161 168 271 168 44 0 49
3 49 23 0 40 60 143 103 179 58 47 94 63 169 77 58 11 72 10 134 -9 38 -12 82
-32 99 -46 l30 -24 50 52 c74 76 130 101 235 101 73 0 93 -4 142 -28 71 -35
148 -117 192 -206 34 -67 85 -214 107 -306 7 -27 13 -51 14 -53 2 -2 24 11 50
27 108 68 242 85 342 41 72 -31 147 -111 167 -180 29 -98 21 -161 -49 -380
-26 -83 -36 -136 -45 -250 -6 -80 -13 -147 -16 -149 -2 -2 21 -30 51 -62 52
-55 105 -145 105 -180 0 -9 10 -24 21 -35 12 -10 89 -94 171 -186 l150 -168
111 0 c129 0 251 15 537 65 191 34 272 59 314 95 4 5 -9 32 -31 62 -207 285
-348 683 -383 1087 -5 69 -11 125 -13 126 -97 44 -200 142 -241 228 -96 204
-68 455 105 971 33 99 75 211 93 250 98 211 275 336 476 336 l75 0 52 94 c231
413 548 761 923 1013 327 220 758 390 1148 453 231 38 557 50 782 30z m5662
-937 c27 -24 23 -68 -8 -92 -15 -12 -32 -21 -39 -21 -25 0 -65 41 -65 67 0 55
70 84 112 46z m-11082 -865 c25 -28 26 -62 0 -88 -42 -42 -110 -14 -110 46 0
59 69 85 110 42z m10119 -327 c109 -50 186 -74 330 -101 135 -25 196 -81 236
-217 51 -171 66 -212 100 -278 29 -56 35 -77 35 -131 0 -74 -1 -74 -140 -199
-91 -82 -135 -109 -192 -120 -29 -6 -40 -3 -57 14 -12 12 -31 21 -43 21 -37 0
-88 -37 -94 -68 -5 -23 -21 -36 -97 -75 -199 -101 -291 -89 -449 60 -71 66
-98 84 -176 117 -141 59 -206 104 -227 160 -28 73 -15 140 51 265 42 79 64
137 88 232 49 192 72 221 241 313 107 59 132 66 210 62 59 -3 88 -11 184 -55z
m-14084 -1896 c53 -52 18 -135 -56 -135 -71 0 -105 85 -54 135 15 16 36 25 55
25 19 0 40 -9 55 -25z m1385 -877 c30 -116 32 -118 138 -153 29 -9 51 -22 49
-28 -2 -7 -31 -21 -65 -33 -34 -11 -68 -27 -77 -34 -8 -7 -25 -44 -36 -81 -12
-40 -26 -69 -34 -69 -12 0 -45 88 -45 118 0 20 -54 53 -112 69 -32 9 -58 22
-58 29 0 7 24 20 53 30 90 29 105 40 117 87 31 121 51 139 70 65z m11923 -96
c23 -20 22 -67 -3 -92 -38 -38 -107 -16 -111 36 -4 42 2 55 33 68 34 15 53 12
81 -12z m1142 -550 c15 -48 34 -95 43 -104 10 -10 56 -31 102 -46 53 -18 85
-34 85 -43 0 -9 -32 -25 -85 -42 -47 -16 -93 -36 -103 -45 -10 -9 -30 -55 -44
-104 -37 -124 -49 -120 -92 29 -12 40 -27 75 -33 79 -7 4 -53 22 -102 38 -57
20 -91 37 -91 45 0 9 30 25 80 41 44 15 88 30 97 34 21 10 42 54 63 136 16 62
30 84 46 74 5 -2 20 -44 34 -92z m-13512 -1026 c29 -14 95 -64 147 -111 52
-47 134 -108 181 -135 185 -107 223 -167 239 -380 6 -73 14 -150 19 -172 12
-52 -9 -123 -52 -179 -40 -52 -66 -71 -140 -104 l-58 -25 30 37 c83 105 52
223 -59 223 -67 0 -127 -43 -165 -119 -20 -41 -15 -103 11 -132 21 -23 85 -42
117 -34 16 5 -15 -34 -102 -123 -173 -178 -182 -181 -503 -139 -141 19 -185
46 -278 171 -37 50 -78 101 -91 112 -13 12 -81 50 -150 84 -131 64 -189 108
-235 181 -24 38 -25 44 -14 92 6 29 33 100 60 159 28 59 50 113 50 120 1 31
51 182 76 229 65 118 153 164 354 185 105 11 172 25 268 54 150 47 210 48 295
6z m2317 -566 c26 -26 25 -51 -1 -84 -37 -47 -109 -23 -109 36 0 62 67 91 110
48z m10733 -444 c63 -23 103 -62 173 -169 37 -56 91 -127 119 -157 64 -68 90
-111 105 -172 20 -80 7 -127 -55 -195 -57 -63 -125 -103 -212 -124 -27 -7 -64
-20 -83 -29 -35 -18 -36 -18 -63 6 -33 28 -92 32 -136 9 -37 -18 -81 -71 -81
-95 0 -14 -10 -21 -37 -26 -48 -9 -110 12 -288 100 -77 37 -150 72 -162 77
-33 12 -63 79 -63 140 0 37 11 76 39 142 22 51 52 127 67 170 51 146 106 193
265 228 51 11 139 37 194 59 55 21 107 40 115 43 26 9 64 7 103 -7z m1025
-2422 c27 -18 30 -69 5 -96 -20 -22 -70 -23 -95 -1 -26 23 -24 78 4 97 12 9
32 16 43 16 11 0 31 -7 43 -16z m-14955 -294 c33 -26 41 -63 23 -99 -26 -49
-91 -57 -131 -16 -33 32 -33 75 1 109 32 31 71 34 107 6z m12447 -836 c179
-58 215 -65 576 -124 348 -57 394 -68 480 -115 139 -77 216 -197 334 -515 86
-231 107 -272 208 -396 88 -109 125 -171 136 -229 6 -29 4 -32 -41 -54 -143
-68 -416 -244 -463 -297 -49 -57 -67 -106 -116 -322 -81 -359 -112 -395 -432
-496 -150 -48 -166 -57 -319 -184 -72 -60 -151 -118 -176 -130 -103 -48 -208
-49 -533 -2 -210 31 -242 51 -414 263 -127 154 -195 224 -248 251 -15 8 -78
35 -141 60 -183 75 -312 170 -412 303 -31 42 -41 65 -50 124 -19 126 4 226 96
410 71 141 93 208 110 342 28 211 79 346 165 440 28 31 110 95 192 149 79 53
199 145 268 204 353 304 414 348 509 364 68 12 121 3 271 -46z m-3472 -940
c27 -18 30 -69 5 -96 -23 -26 -78 -24 -97 4 -23 33 -19 64 10 87 32 25 52 26
82 5z m-9073 -371 c42 -151 43 -152 173 -194 50 -16 72 -28 70 -38 -2 -8 -39
-26 -88 -43 -46 -15 -92 -36 -102 -46 -9 -9 -28 -57 -43 -105 -34 -113 -50
-114 -81 -5 -31 113 -38 121 -146 155 -58 19 -93 36 -93 44 0 8 30 24 75 39
123 42 134 53 158 152 29 117 52 129 77 41z m14230 -585 c-7 -38 -9 -40 -16
-20 -5 13 -4 33 2 48 14 39 22 22 14 -28z m-28 -120 c-3 -8 -6 -5 -6 6 -1 11
2 17 5 13 3 -3 4 -12 1 -19z m-10 -40 c-3 -8 -6 -5 -6 6 -1 11 2 17 5 13 3 -3
4 -12 1 -19z m-12512 -368 c22 -6 95 -17 162 -25 78 -9 136 -21 161 -34 61
-31 113 -98 150 -194 19 -47 53 -118 78 -159 24 -40 51 -95 59 -122 14 -48 14
-50 -13 -99 -34 -63 -114 -124 -214 -164 -53 -20 -89 -44 -133 -85 l-61 -57
-27 34 c-32 41 -83 59 -149 53 -60 -6 -108 -46 -108 -90 0 -26 -2 -28 -43 -28
-79 0 -219 60 -344 147 -82 57 -93 75 -93 146 0 76 74 268 135 347 23 30 61
88 85 129 103 177 209 237 355 201z m6356 -450 c4 -14 17 -58 28 -97 24 -83
34 -90 156 -128 44 -13 70 -26 70 -35 0 -9 -33 -26 -88 -46 -48 -18 -96 -39
-106 -48 -10 -9 -26 -45 -35 -79 -37 -136 -55 -150 -81 -59 -36 130 -41 137
-104 166 -32 14 -64 26 -70 26 -6 0 -28 7 -48 15 -49 21 -33 36 71 69 45 14
89 34 98 43 15 18 36 75 58 161 13 49 38 55 51 12z m2088 -836 c28 -36 27 -79
-4 -109 -49 -50 -135 -15 -135 55 0 72 96 109 139 54z m3672 -457 c44 -34 47
-89 7 -127 -49 -45 -128 -8 -128 60 0 30 6 43 26 59 30 23 71 27 95 8z
m-10106 -82 c14 -13 25 -31 25 -39 0 -30 -23 -65 -49 -76 -73 -30 -134 59 -79
117 29 31 72 30 103 -2z"/>
<path d="M3074 17231 c-37 -22 -57 -71 -44 -105 4 -12 23 -35 40 -49 25 -21
42 -27 82 -27 44 0 54 4 84 34 36 36 42 65 20 104 -32 59 -122 80 -182 43z"/>
<path d="M4185 16934 c-42 -21 -61 -41 -75 -74 -10 -23 -8 -34 9 -67 23 -46
53 -68 114 -85 38 -10 52 -9 91 6 93 36 121 128 58 189 -51 48 -138 62 -197
31z"/>
<path d="M2887 16620 c-55 -14 -93 -36 -144 -83 -116 -107 -114 -237 5 -353
49 -48 97 -71 170 -83 102 -16 193 13 269 88 75 72 95 136 69 224 -21 72 -96
156 -165 186 -59 25 -150 34 -204 21z"/>
<path d="M2322 15774 c-69 -35 -78 -106 -27 -210 30 -60 83 -107 145 -125 30
-9 44 -8 73 6 104 49 78 232 -44 308 -58 36 -105 42 -147 21z"/>
<path d="M4130 15781 c-136 -42 -264 -192 -284 -332 -21 -149 99 -266 252
-245 153 21 297 175 309 331 9 111 -35 197 -122 236 -41 19 -111 23 -155 10z"/>
<path d="M3072 15324 c-34 -24 -44 -59 -28 -97 17 -41 36 -57 80 -64 49 -8 92
12 105 49 29 83 -84 164 -157 112z"/>
<path d="M10975 16890 c-594 -52 -1097 -244 -1545 -589 -114 -88 -314 -283
-415 -406 -141 -171 -281 -384 -361 -547 l-28 -58 -87 7 c-72 5 -98 2 -157
-16 -77 -23 -152 -74 -203 -136 -111 -138 -294 -715 -315 -991 -15 -215 61
-362 230 -446 l65 -32 5 -75 c11 -148 46 -379 76 -493 69 -268 202 -536 377
-759 23 -30 43 -58 43 -62 0 -4 -11 -7 -25 -7 -36 0 -132 -35 -175 -64 -60
-40 -544 -129 -766 -142 -207 -11 -190 -20 -367 174 -83 92 -171 186 -194 209
-25 25 -43 52 -43 65 -1 61 -89 183 -150 208 -17 7 -30 14 -30 16 0 2 4 25 10
51 5 26 16 118 25 203 12 130 21 175 56 280 22 69 43 147 46 175 15 142 -71
235 -217 235 -108 0 -200 -56 -276 -165 l-39 -57 -6 29 c-4 15 -15 71 -24 123
-40 218 -109 408 -175 483 -67 76 -163 111 -246 88 -94 -25 -155 -100 -171
-209 l-8 -52 -47 64 c-50 69 -110 112 -181 128 -85 19 -187 -29 -235 -111 -24
-40 -27 -57 -27 -133 0 -49 -1 -88 -1 -88 -1 0 -23 12 -48 26 -40 23 -56 26
-111 22 -98 -6 -165 -68 -187 -171 -11 -50 -10 -65 9 -124 11 -38 24 -76 28
-85 6 -15 2 -18 -19 -18 -51 0 -117 -43 -144 -95 -39 -76 -34 -156 18 -260 34
-69 150 -227 220 -300 36 -38 52 -64 65 -109 48 -170 151 -353 262 -463 66
-67 71 -75 66 -106 -15 -92 50 -250 134 -327 43 -40 66 -75 122 -185 75 -147
219 -370 328 -505 205 -255 468 -469 739 -601 256 -125 509 -185 856 -202 l47
-2 -48 -110 c-38 -87 -53 -111 -72 -117 -13 -4 -64 -16 -114 -28 -186 -44
-326 -142 -391 -275 -26 -55 -29 -69 -29 -165 0 -93 3 -112 27 -162 15 -32 47
-79 73 -107 l46 -49 -113 -35 c-62 -20 -167 -52 -233 -72 -281 -86 -622 -244
-810 -375 -55 -38 -133 -91 -174 -117 -190 -123 -414 -319 -533 -468 -124
-154 -208 -316 -243 -470 -9 -35 -38 -105 -65 -155 -90 -166 -203 -457 -255
-655 -10 -38 -29 -86 -42 -105 -12 -20 -37 -74 -54 -120 -17 -47 -32 -86 -33
-88 -2 -1 -32 4 -67 13 -106 25 -270 30 -373 11 -115 -22 -188 -52 -290 -120
-140 -93 -267 -252 -312 -391 -9 -27 -25 -62 -36 -77 -33 -47 -65 -131 -78
-203 -50 -280 209 -615 705 -912 375 -225 737 -340 1042 -331 114 3 135 6 186
30 67 32 135 99 186 185 20 33 64 101 98 152 77 114 157 278 217 443 25 70 46
133 46 139 0 6 20 36 44 67 57 75 177 258 223 341 21 36 64 102 96 145 118
161 275 451 367 678 44 109 52 122 108 172 94 84 135 108 307 179 282 116 660
255 653 240 -2 -5 -37 -60 -79 -123 -171 -259 -347 -570 -425 -750 -77 -179
-134 -385 -134 -484 0 -24 -11 -75 -24 -114 -54 -157 -141 -535 -166 -720 -6
-46 -19 -102 -29 -125 -26 -61 -47 -162 -66 -317 -25 -211 -18 -198 -132 -252
-265 -125 -451 -305 -563 -541 -173 -368 -170 -603 11 -801 143 -156 384 -277
664 -332 122 -25 402 -25 532 -1 200 37 472 148 622 254 81 57 203 173 242
230 105 151 191 407 220 653 11 93 17 113 56 182 56 99 128 270 152 362 11 39
39 114 64 166 94 202 204 549 242 765 20 113 28 127 181 305 94 111 321 340
336 340 30 0 138 73 213 142 162 152 480 541 546 669 10 20 58 91 107 158 49
67 117 168 152 225 l64 102 105 -42 c58 -23 143 -52 187 -64 l82 -23 -9 -31
c-5 -17 -9 -53 -9 -79 0 -145 146 -240 303 -196 22 6 41 8 44 6 2 -3 -18 -49
-45 -104 -60 -119 -82 -189 -82 -260 0 -159 143 -262 308 -220 28 7 32 6 32
-10 0 -38 55 -107 109 -137 72 -38 147 -45 226 -18 l59 20 32 -28 c52 -45 113
-63 197 -58 200 13 391 199 516 504 48 116 111 324 111 368 0 10 29 45 65 78
48 45 74 79 105 140 22 44 40 86 40 93 0 6 22 45 49 86 67 100 190 350 239
485 87 238 141 468 158 669 7 88 7 90 60 158 106 140 201 344 252 540 23 89
26 123 27 262 0 117 -5 182 -18 240 l-17 80 61 145 c193 458 388 993 429 1175
29 130 36 282 16 375 -24 113 -85 228 -167 315 -85 89 -183 155 -351 238 -70
34 -127 64 -127 67 0 3 27 18 60 33 71 34 167 125 227 217 68 102 167 312 217
460 141 414 138 602 -12 814 l-35 49 12 175 c43 626 -126 1241 -491 1783 -136
203 -359 448 -539 593 -424 340 -970 560 -1530 616 -150 15 -428 20 -545 10z
m390 -110 c427 -32 785 -127 1135 -301 801 -400 1360 -1220 1460 -2141 11
-105 14 -438 4 -476 -6 -21 -8 -21 -23 -8 -68 62 -216 79 -323 37 -121 -47
-219 -143 -324 -316 l-51 -85 -6 168 c-6 184 -29 335 -77 505 -222 790 -910
1451 -1840 1769 -520 177 -1078 215 -1514 103 -175 -45 -280 -84 -429 -160
-172 -87 -320 -189 -434 -298 -24 -23 -43 -38 -43 -33 0 4 31 51 69 104 482
674 1207 1075 2046 1132 166 11 198 11 350 0z m-730 -765 c378 -42 736 -150
1094 -330 783 -392 1295 -1035 1416 -1780 108 -656 -202 -1464 -730 -1904
-662 -551 -1637 -652 -2660 -274 -66 24 -201 84 -300 133 -705 347 -1062 830
-1167 1575 -20 140 -17 544 5 683 113 720 434 1262 944 1596 244 160 514 258
828 300 136 18 412 19 570 1z m-2130 -955 c-190 -378 -299 -770 -330 -1177 -4
-51 -10 -93 -14 -93 -13 0 -96 57 -118 81 -75 83 -92 225 -54 427 34 179 161
583 217 695 35 69 107 142 168 171 40 20 67 25 124 26 l72 0 -65 -130z m-2329
-986 c41 -19 87 -82 119 -162 32 -79 90 -320 119 -489 29 -175 24 -219 -33
-249 -58 -31 -156 -134 -188 -199 -35 -69 -53 -145 -52 -213 2 -108 33 -135
43 -38 17 167 103 302 250 390 57 34 60 39 81 103 32 99 100 228 148 280 99
107 234 121 273 27 17 -41 14 -63 -26 -179 -44 -131 -60 -205 -75 -367 -22
-235 -63 -353 -163 -470 -132 -155 -327 -277 -547 -344 -76 -23 -108 -27 -210
-28 -98 0 -129 4 -172 21 -160 64 -324 274 -407 523 -32 95 -42 113 -107 187
-178 206 -244 325 -220 404 14 46 44 69 91 69 32 0 46 -11 167 -137 107 -112
130 -140 122 -154 -11 -22 -12 -69 -1 -69 5 0 53 44 108 99 152 151 312 246
524 311 58 18 111 37 118 43 18 14 1 29 -44 36 -43 7 -41 1 -80 190 -27 135
-34 284 -14 336 31 82 102 114 176 79z m-478 -87 c62 -41 138 -171 215 -367
67 -172 67 -163 -1 -184 -31 -10 -88 -34 -126 -53 -37 -19 -73 -32 -80 -30 -6
3 -44 69 -83 148 -153 307 -167 442 -52 502 40 21 79 16 127 -16z m8136 -181
c50 -21 110 -79 161 -156 25 -37 45 -70 45 -74 0 -3 -26 -6 -57 -6 -74 0 -130
-27 -200 -98 -115 -115 -238 -344 -323 -602 -65 -198 -84 -293 -85 -425 0 -96
3 -116 24 -155 13 -25 30 -53 38 -62 13 -15 11 -17 -31 -23 -135 -21 -257 42
-306 158 -46 106 -35 320 30 562 146 550 382 895 612 895 32 0 74 -6 92 -14z
m-8539 -81 c53 -22 125 -103 235 -267 55 -81 100 -151 100 -155 0 -5 -17 -19
-37 -33 -20 -14 -62 -48 -93 -77 l-57 -52 -30 32 c-78 84 -188 239 -233 326
-27 53 -38 148 -21 180 13 23 67 61 89 61 7 0 28 -7 47 -15z m8741 -230 c46
-19 73 -78 74 -162 0 -89 -3 -94 -48 -72 -53 26 -98 12 -162 -52 -131 -131
-263 -463 -264 -666 -1 -103 13 -134 72 -164 l32 -17 -50 -45 c-28 -25 -71
-53 -97 -63 -40 -16 -48 -16 -71 -3 -14 8 -37 37 -51 64 -23 44 -26 61 -25
155 1 115 12 177 55 319 109 355 278 636 422 701 51 24 67 24 113 5z m17 -300
c38 -37 28 -112 -40 -309 -70 -201 -181 -423 -223 -446 -35 -19 -70 -12 -80
16 -55 144 119 635 259 730 41 28 63 30 84 9z m-7127 -587 c46 -41 64 -83 64
-151 0 -128 -148 -313 -368 -460 -88 -59 -268 -143 -367 -173 -124 -36 -309
-45 -396 -19 -105 32 -180 123 -195 239 -7 46 -6 49 12 42 290 -112 755 39
1042 338 44 46 96 112 116 149 21 37 42 67 47 67 4 0 25 -15 45 -32z m6083
-279 c37 -98 96 -159 196 -203 6 -3 -49 -62 -120 -133 -453 -446 -1049 -701
-1783 -764 -178 -15 -571 -7 -738 15 -679 89 -1336 369 -1604 683 -54 64 -125
182 -136 228 l-7 30 34 -28 c192 -156 410 -297 605 -388 371 -174 767 -285
1174 -330 137 -15 457 -15 590 0 206 23 439 78 610 144 475 183 821 473 1080
903 l65 108 6 -105 c5 -69 14 -123 28 -160z m-5816 -96 c134 -150 137 -159
113 -319 -48 -316 -230 -617 -470 -775 -149 -98 -304 -142 -427 -121 -62 11
-72 16 -110 57 -124 134 -292 376 -379 545 l-49 97 79 -5 c387 -22 917 277
1089 616 12 23 26 40 30 37 5 -3 60 -62 124 -132z m6439 -221 c207 -105 346
-197 401 -267 143 -180 162 -376 66 -693 -47 -158 -185 -536 -227 -622 -20
-41 -35 -78 -34 -82 4 -16 -190 -494 -401 -988 -15 -34 -15 -34 -21 -10 -3 14
-21 105 -41 203 -20 97 -42 198 -50 225 -20 65 -19 69 15 77 51 11 201 118
270 191 65 69 226 291 217 300 -2 3 -44 -48 -93 -113 -151 -202 -256 -298
-370 -339 l-63 -23 -45 143 c-25 80 -46 151 -46 159 0 8 7 32 16 53 9 22 57
145 106 274 294 771 308 814 308 954 0 214 -104 357 -350 481 -30 15 -57 29
-59 31 -2 1 20 30 49 63 51 59 54 60 109 64 31 2 59 4 62 5 4 1 85 -38 181
-86z m-5040 35 c31 -14 63 -35 69 -46 11 -16 16 -18 28 -8 9 7 -5 -15 -31 -48
-37 -47 -53 -59 -75 -60 -18 0 -27 -5 -25 -13 1 -8 -2 -11 -8 -7 -5 3 -16 -7
-22 -22 -7 -15 -18 -34 -25 -41 -7 -8 -11 -17 -8 -22 3 -5 1 -11 -4 -14 -5 -3
-7 -15 -4 -26 5 -19 6 -20 20 -3 13 17 13 17 4 -2 -22 -47 -122 -208 -117
-190 5 18 1 21 -26 23 -18 1 -40 -4 -48 -11 -24 -19 -21 -63 6 -88 l23 -22
-40 -78 c-21 -44 -42 -79 -46 -79 -3 0 -3 3 0 6 11 11 -61 61 -98 68 -19 4
-35 11 -35 17 0 6 -4 7 -10 4 -15 -9 -13 1 16 92 20 64 30 81 43 78 27 -5 81
22 81 41 0 10 -12 30 -26 45 l-26 27 41 80 c23 44 49 88 57 98 9 11 13 14 10
8 -3 -7 6 -11 23 -12 20 0 31 5 34 18 7 28 -4 71 -16 63 -14 -8 25 48 75 108
44 54 68 57 160 16z m-269 1 c-4 -7 -33 -51 -64 -98 -214 -323 -321 -720 -290
-1082 l12 -143 -74 -160 -74 -160 -59 -3 c-212 -12 -558 57 -774 154 l-62 28
56 28 c167 84 355 341 449 613 86 248 118 533 81 713 l-7 34 45 -7 c88 -13
433 28 663 80 81 18 108 18 98 3z m-850 -123 c7 -24 11 -100 11 -195 -1 -212
-38 -379 -135 -604 -102 -238 -291 -453 -439 -497 -32 -10 -43 -8 -81 11 -82
42 -244 158 -332 239 l-87 81 63 0 c183 0 393 105 557 276 177 186 304 456
332 706 l11 96 44 -36 c29 -24 48 -50 56 -77z m1390 -29 c31 -40 76 -90 101
-111 25 -21 46 -41 46 -46 0 -5 -18 -38 -40 -74 -49 -80 -115 -212 -165 -327
-36 -84 -39 -88 -69 -88 -49 0 -143 -27 -191 -56 -78 -45 -151 -135 -210 -258
-74 -155 -300 -698 -329 -793 -6 -19 -15 -23 -47 -23 -36 0 -85 -19 -131 -52
-47 -34 -35 0 120 342 207 459 466 969 630 1243 64 107 214 317 226 317 2 0
29 -33 59 -74z m4370 -42 c235 -118 319 -240 304 -438 -7 -92 -39 -189 -204
-624 -74 -196 -145 -383 -157 -414 -11 -32 -23 -58 -26 -57 -3 0 -37 66 -77
147 -75 154 -153 279 -248 397 -41 52 -54 75 -50 90 58 182 69 299 37 403 -19
60 -62 131 -100 166 -21 18 -20 19 91 93 117 78 208 148 292 226 28 25 53 46
58 47 4 0 40 -16 80 -36z m-4066 -225 c423 -281 1107 -482 1719 -506 90 -3
164 -8 164 -9 0 -2 -33 -52 -72 -111 -77 -114 -241 -429 -273 -525 -32 -96
-26 -101 220 -200 55 -22 102 -41 105 -43 4 -2 0 -41 -6 -87 -51 -337 51 -673
270 -890 35 -35 88 -77 118 -93 29 -15 55 -29 56 -31 7 -5 -177 -367 -250
-490 l-73 -126 -43 7 c-23 3 -86 18 -140 33 l-97 27 -57 85 c-31 47 -118 207
-192 355 -81 162 -155 296 -185 335 -38 49 -50 74 -51 100 0 19 -9 53 -19 75
-17 38 -104 129 -144 152 -17 9 -12 27 76 259 133 348 142 381 142 489 0 77
-4 99 -28 150 -37 79 -109 146 -211 195 -141 67 -887 325 -1223 422 l-150 44
32 74 c60 142 186 380 201 380 2 0 52 -32 111 -71z m2453 -495 c-86 -57 -277
-256 -348 -364 -75 -112 -148 -260 -192 -385 -17 -49 -33 -91 -34 -93 -2 -2
-44 13 -92 33 -175 72 -204 87 -204 105 0 10 15 54 34 97 80 186 192 387 291
519 l53 70 163 13 c90 7 205 19 254 26 135 18 135 19 75 -21z m-2730 -6 c212
-57 991 -320 1185 -400 157 -65 231 -126 255 -213 28 -98 13 -164 -111 -494
l-114 -303 -45 -15 c-197 -65 -315 -349 -210 -505 16 -24 30 -46 30 -51 0 -13
-83 -98 -111 -113 -27 -13 -28 -12 -89 52 -71 76 -93 115 -70 122 32 10 102
96 139 170 49 99 167 381 286 687 130 337 156 425 121 425 -8 0 -16 -15 -19
-34 -8 -52 -65 -204 -214 -581 -219 -553 -267 -636 -389 -679 -88 -32 -93 -37
-34 -31 l55 5 67 -84 c36 -47 63 -87 60 -90 -13 -14 -162 -5 -232 14 -277 76
-868 299 -1103 416 -81 41 -150 97 -201 164 -55 74 -58 91 -12 55 32 -24 136
-71 136 -61 0 3 -27 19 -60 37 -133 71 -176 136 -174 264 1 80 17 132 128 414
97 246 208 505 263 615 71 141 151 213 264 235 53 11 100 6 199 -21z m3257
-24 c29 -11 40 -20 36 -30 -3 -9 1 -14 13 -14 11 -1 -3 -10 -31 -21 -72 -28
-86 -32 -83 -22 1 4 -6 22 -15 40 -9 18 -17 41 -17 53 0 23 18 22 97 -6z
m-262 -7 c4 -12 16 -27 28 -32 12 -6 30 -26 39 -45 10 -19 25 -41 35 -47 9 -7
12 -13 7 -13 -6 0 -38 -20 -72 -45 -35 -25 -68 -43 -74 -39 -6 4 -8 3 -5 -3 4
-6 -1 -17 -11 -24 -15 -13 -16 -12 -4 3 12 14 10 19 -15 35 -41 26 -62 55 -63
84 0 14 -4 29 -9 35 -17 17 -30 83 -19 91 19 11 71 21 115 22 36 1 43 -2 48
-22z m-185 -21 c0 -2 -8 -10 -17 -17 -16 -13 -17 -12 -4 4 13 16 21 21 21 13z
m-83 -62 c-3 -4 0 -18 7 -33 7 -14 16 -41 19 -58 6 -29 4 -33 -16 -33 -13 0
-28 -5 -33 -10 -12 -12 -57 1 -69 20 -5 8 -11 8 -23 -1 -10 -7 12 17 48 54 35
37 66 67 69 67 2 0 2 -3 -2 -6z m853 -44 c86 -16 157 -54 219 -118 59 -60 158
-192 203 -272 l26 -45 -122 -1 c-99 -2 -142 -7 -236 -32 -254 -65 -410 -156
-410 -239 0 -12 33 -111 74 -220 40 -109 88 -240 106 -291 53 -148 83 -163
240 -116 212 63 444 93 575 75 44 -6 83 -15 88 -20 12 -12 73 -318 92 -462 17
-129 33 -479 22 -479 -4 0 -14 14 -23 32 -24 46 -110 134 -179 183 -136 97
-294 155 -478 176 -294 34 -668 -81 -841 -260 l-39 -40 -47 142 c-49 147 -72
202 -209 499 -77 169 -82 183 -93 284 -28 249 61 539 238 774 126 167 277 295
436 369 130 62 249 82 358 61z m-1044 -159 c-3 -4 11 -25 30 -45 27 -28 34
-40 25 -49 -17 -17 -13 -35 10 -42 17 -6 20 -12 15 -37 -5 -27 14 -82 35 -98
4 -3 -20 -50 -53 -105 -33 -55 -58 -93 -56 -85 5 16 -21 50 -39 50 -6 0 -15 5
-19 11 -13 22 -23 83 -14 94 19 23 -40 133 -63 118 -6 -4 -1 11 12 33 30 51
111 164 117 164 3 0 3 -4 0 -9z m224 -10 c3 -3 17 -17 32 -30 28 -24 28 -24
50 -5 13 10 -4 -10 -36 -46 -86 -94 -91 -99 -72 -68 14 21 15 28 4 35 -15 9
-38 48 -38 63 0 6 5 8 11 4 7 -4 7 1 -1 16 -16 30 -6 50 22 43 13 -4 25 -9 28
-12z m1264 -329 c48 -9 58 -23 132 -197 44 -104 151 -412 167 -485 l6 -25
-177 -1 c-187 -1 -282 -15 -472 -70 -95 -27 -133 -30 -148 -11 -6 7 -45 107
-87 222 -42 116 -88 242 -103 281 -35 96 -28 111 75 163 200 100 450 151 607
123z m-1646 -11 c18 -1 72 -59 72 -77 0 -8 -6 -13 -12 -11 -9 1 -13 -11 -13
-36 -1 -45 -23 -66 -42 -40 -7 9 -13 13 -13 9 0 -4 -6 -4 -12 1 -7 4 -24 9
-38 10 -14 2 -31 4 -38 5 -13 1 -12 10 19 94 16 42 23 51 42 49 12 -1 28 -3
35 -4z m85 -223 c11 -9 20 -30 20 -45 0 -38 -41 -215 -42 -181 -1 21 -5 26
-21 23 -11 -2 -25 2 -32 8 -28 26 -49 40 -47 31 4 -23 -2 -32 -20 -27 -12 3
-17 11 -14 24 4 12 -5 27 -26 45 -17 14 -32 36 -32 47 -1 17 -3 15 -9 -8 -7
-28 -8 -28 -9 -5 -1 31 27 132 29 105 1 -11 4 -14 7 -8 3 10 10 10 26 2 11 -6
37 -11 56 -11 54 0 57 1 41 12 -13 9 -13 11 -1 19 15 10 40 -1 74 -31z m-246
-275 c-2 -16 -4 -5 -4 22 0 28 2 40 4 28 2 -13 2 -35 0 -50z m129 -38 c-3 -8
-12 -15 -21 -15 -17 0 -18 -2 -8 -26 6 -16 7 -16 14 2 6 14 8 10 8 -16 0 -33
-50 -138 -63 -132 -3 1 -12 2 -20 2 -16 0 -23 22 -30 100 -4 38 -3 47 3 30 5
-14 9 -19 10 -12 1 6 13 12 27 12 19 0 25 4 20 15 -5 14 14 72 30 87 11 11 37
-30 30 -47z m91 13 c-3 -8 -6 -5 -6 6 -1 11 2 17 5 13 3 -3 4 -12 1 -19z
m-3454 -394 c24 -13 48 -15 112 -11 l80 6 28 -40 c66 -92 216 -176 577 -320
91 -37 144 -63 142 -71 -2 -7 -23 -63 -48 -124 -24 -61 -44 -116 -44 -122 0
-24 -22 -20 -121 23 -365 160 -697 380 -864 573 l-57 66 28 8 c16 5 52 12 79
17 28 5 51 9 53 10 2 0 17 -6 35 -15z m-244 -80 c38 -54 156 -172 245 -243
152 -120 313 -220 526 -327 l128 -64 -58 -117 c-121 -243 -168 -415 -177 -649
l-6 -152 -96 -98 c-53 -55 -134 -145 -179 -201 -46 -57 -89 -103 -97 -103 -7
0 -20 -3 -29 -6 -14 -5 -16 6 -16 89 0 280 -88 640 -229 933 -107 222 -251
423 -390 544 -33 29 -61 56 -61 60 0 4 39 20 87 36 69 23 90 35 102 57 63 113
192 277 218 277 4 0 19 -16 32 -36z m-452 -402 c141 -112 298 -324 407 -552
145 -304 226 -625 226 -901 l0 -126 -204 -71 c-112 -40 -282 -104 -377 -143
-230 -93 -213 -89 -203 -48 12 57 6 272 -12 376 -36 215 -140 474 -264 661
-122 185 -316 345 -481 397 -44 14 -90 25 -102 25 -56 1 298 194 513 281 144
58 389 138 422 139 16 0 45 -15 75 -38z m1988 -68 c157 -54 293 -92 374 -105
141 -21 265 24 371 137 54 59 61 63 85 54 15 -6 36 -10 49 -10 17 0 33 -18 69
-77 25 -43 62 -112 82 -154 l36 -76 -32 -66 c-17 -37 -42 -106 -55 -153 -13
-48 -25 -89 -28 -91 -7 -7 -288 45 -456 84 -203 47 -464 121 -620 176 -195 70
-261 94 -268 102 -7 6 41 153 77 237 l20 47 98 -35 c54 -20 143 -52 198 -70z
m3560 81 c266 -43 489 -183 590 -370 25 -47 27 -55 21 -140 -6 -94 -43 -320
-56 -344 -4 -8 -9 1 -14 27 -3 24 -27 71 -56 115 -178 267 -601 441 -967 399
-175 -20 -366 -84 -430 -144 l-23 -21 0 67 c0 89 15 120 94 194 110 103 319
193 515 221 91 14 229 12 326 -4z m-3839 -388 c344 -128 800 -246 1168 -304
l48 -8 3 -110 c2 -83 8 -126 25 -175 30 -88 102 -193 167 -244 100 -79 243
-136 340 -136 24 0 43 -3 43 -7 0 -11 -115 -224 -175 -323 -55 -92 -204 -310
-211 -310 -2 0 -17 26 -33 58 -74 146 -276 377 -417 478 -145 103 -230 90
-333 -50 -105 -142 -398 -589 -429 -653 -28 -60 -34 -85 -34 -136 0 -34 7 -79
15 -99 9 -21 69 -106 135 -190 177 -227 238 -323 227 -357 -5 -16 -147 -161
-157 -161 -3 0 -8 29 -11 65 -16 173 -147 452 -302 644 -303 376 -729 553
-1090 452 -38 -11 -71 -18 -73 -16 -7 6 149 239 248 370 134 178 327 383 478
509 43 36 112 61 237 87 65 14 303 18 400 7 l60 -6 -55 14 c-92 23 -263 33
-369 23 -166 -17 -295 -57 -403 -125 l-37 -24 -7 36 c-9 49 12 226 40 337 33
129 89 276 147 384 l50 92 78 -33 c42 -19 145 -59 227 -89z m2798 -24 c-5
-115 -28 -280 -68 -489 -8 -44 -23 -85 -38 -105 -56 -74 -88 -167 -88 -255 0
-45 -3 -54 -27 -69 -90 -58 -279 -244 -391 -384 l-19 -25 -84 22 c-46 13 -87
26 -90 30 -4 4 48 113 115 242 l121 235 51 6 c212 26 369 253 333 479 l-11 65
93 188 c52 103 97 187 101 187 4 0 4 -57 2 -127z m916 22 c261 -57 494 -210
610 -398 35 -57 50 -92 50 -117 0 -89 -138 -441 -248 -629 l-25 -43 -27 74
c-84 240 -298 448 -572 558 -217 86 -414 99 -598 37 -42 -14 -70 -19 -70 -13
0 6 16 91 34 189 39 203 43 212 145 266 58 30 196 75 286 91 74 13 328 4 415
-15z m-2129 -385 c95 -146 219 -274 317 -329 13 -7 9 -22 -28 -100 -43 -90
-44 -91 -79 -91 -57 0 -160 28 -229 62 -253 125 -331 384 -220 728 37 117 32
118 112 -41 39 -79 96 -182 127 -229z m-4187 290 c283 -118 517 -428 638 -845
54 -185 71 -381 47 -522 -11 -63 -26 -83 -86 -117 -8 -4 -24 20 -49 74 -40 88
-55 99 -30 23 8 -26 18 -67 22 -90 6 -40 4 -44 -39 -88 -25 -25 -61 -52 -79
-59 -116 -49 -391 -61 -593 -26 -198 34 -398 113 -541 215 -161 115 -299 311
-311 440 -10 118 49 286 158 447 116 172 386 419 602 551 59 37 65 38 124 33
36 -3 94 -18 137 -36z m4771 -127 c25 -3 45 -8 45 -12 0 -3 -9 -17 -19 -30
l-19 -24 -51 37 c-57 42 -63 51 -26 42 14 -4 45 -9 70 -13z m1075 -338 c123
-18 214 -47 320 -100 352 -177 540 -506 427 -750 -16 -33 -38 -70 -50 -83
l-21 -23 -18 77 c-50 211 -224 416 -447 528 -232 117 -456 141 -661 71 -41
-14 -76 -25 -78 -25 -2 0 -2 25 0 55 11 134 128 226 323 255 77 12 103 11 205
-5z m20 -360 c166 -53 283 -127 397 -249 126 -134 176 -277 153 -432 -28 -190
-109 -426 -198 -577 -54 -93 -168 -215 -228 -245 -98 -50 -185 -50 -229 -2
-17 19 -17 21 23 72 56 74 106 169 137 261 25 77 30 146 10 149 -5 1 -39 -55
-75 -124 -125 -239 -232 -340 -362 -340 -55 0 -109 28 -126 67 -22 49 -15 83
32 143 78 101 181 338 174 400 -6 49 -27 34 -68 -49 -135 -267 -249 -389 -365
-389 -38 0 -52 6 -83 34 -35 33 -37 37 -37 98 1 57 8 79 72 218 39 85 87 199
107 253 40 106 72 234 62 244 -12 12 -48 -32 -93 -113 -37 -67 -54 -86 -97
-112 -28 -17 -74 -37 -103 -43 -94 -22 -173 27 -173 108 0 47 44 125 123 219
190 227 402 388 565 429 93 24 276 14 382 -20z m-2354 -224 c38 -27 104 -85
147 -129 71 -73 76 -82 68 -106 -19 -49 -53 -111 -93 -172 l-41 -61 -136 137
c-75 75 -157 150 -183 166 -27 16 -48 33 -48 38 0 11 66 103 104 144 47 50 94
46 182 -17z m-4508 -171 c153 -242 454 -420 814 -481 105 -18 149 -20 298 -16
96 3 203 12 238 20 35 8 62 10 62 5 0 -43 -187 -420 -292 -589 -94 -150 -140
-205 -178 -213 -244 -48 -696 133 -1036 416 -106 89 -209 200 -242 263 l-24
44 26 102 c35 136 114 345 188 501 l61 128 25 -63 c14 -34 41 -87 60 -117z
m4269 -67 c62 -47 127 -107 215 -201 l68 -72 -21 -21 c-19 -19 -20 -22 -4 -47
10 -15 -4 -2 -30 28 -79 91 -216 219 -286 269 l-67 47 20 27 c22 31 26 30 105
-30z m-82 -97 c155 -111 385 -381 480 -565 l16 -32 -43 -57 c-59 -77 -305
-325 -348 -351 -60 -36 -71 -31 -134 72 -31 50 -111 159 -176 241 -132 165
-156 211 -147 281 8 58 30 100 134 260 103 157 131 195 145 195 6 0 38 -20 73
-44z m-1255 -130 c353 -64 691 -351 879 -746 83 -174 130 -375 101 -431 -7
-13 -36 -51 -64 -84 -111 -128 -167 -204 -191 -259 -14 -31 -25 -63 -25 -70 0
-35 -163 -122 -292 -155 -171 -44 -366 -49 -557 -15 -365 66 -675 290 -752
546 -19 62 -20 77 -10 161 28 242 127 492 327 827 64 108 87 139 123 161 110
71 290 96 461 65z m1765 -261 c25 -44 45 -84 45 -90 -1 -5 -12 11 -25 37 -20
37 -29 45 -45 41 -16 -4 -18 -9 -9 -27 14 -25 2 -13 -32 34 -33 45 -52 81 -42
79 17 -4 43 14 37 25 -4 6 0 4 9 -4 9 -8 37 -51 62 -95z m-4982 -202 c117
-127 344 -295 537 -396 212 -112 386 -165 573 -175 l118 -7 -58 -92 c-31 -51
-97 -148 -145 -215 -48 -68 -88 -129 -88 -136 0 -7 -21 -70 -46 -140 -52 -143
-132 -310 -201 -416 l-46 -71 -31 40 c-104 133 -340 351 -576 529 -343 260
-652 434 -930 525 -82 27 -241 54 -285 49 -46 -5 -46 11 0 86 133 221 356 349
610 349 347 0 658 -213 851 -583 l29 -55 3 33 c7 68 -52 213 -133 327 -74 105
-220 229 -328 281 -20 10 -37 24 -37 31 0 14 43 131 60 163 11 20 13 19 42
-25 17 -26 54 -71 81 -102z m-1035 -599 c325 -66 768 -317 1195 -675 122 -102
299 -268 236 -221 -13 9 -17 4 -28 -36 -15 -59 -45 -92 -83 -92 -21 0 -27 -4
-22 -12 9 -15 0 -8 -120 96 -374 323 -815 590 -1156 702 -70 22 -104 27 -190
28 -58 1 -113 -3 -122 -7 -15 -8 -16 -4 -11 30 8 51 40 137 61 163 32 40 120
49 240 24z m3335 -256 c122 -247 420 -440 780 -505 112 -20 332 -22 437 -4
104 18 222 57 305 100 39 20 73 37 77 39 20 9 -83 -341 -159 -543 -61 -161
-106 -249 -141 -274 -48 -34 -176 -71 -288 -83 -237 -26 -549 35 -800 157
-179 87 -339 217 -398 325 l-27 49 31 176 c38 217 133 635 145 635 1 0 18 -33
38 -72z m-1772 -775 c13 -16 12 -17 -3 -4 -10 7 -18 15 -18 17 0 8 8 3 21 -13z
m1624 -152 c112 -121 354 -263 552 -325 181 -56 274 -70 483 -70 174 -1 203 1
273 22 44 12 92 29 109 38 16 8 32 13 34 11 10 -10 -59 -175 -125 -304 -44
-83 -71 -148 -71 -167 0 -61 -29 -223 -55 -303 -34 -107 -77 -161 -212 -262
-176 -133 -406 -236 -626 -282 -143 -30 -353 -30 -495 0 -382 80 -680 301
-737 546 -10 42 -9 58 5 100 50 146 171 312 302 413 78 59 169 112 194 112 13
0 72 -21 131 -46 215 -91 421 -214 585 -350 43 -35 80 -64 83 -64 3 0 5 7 5
16 0 27 -161 178 -260 242 -52 35 -147 89 -210 122 -102 51 -148 72 -249 111
-23 9 -21 12 36 38 60 29 61 29 128 15 172 -36 370 -129 595 -280 79 -52 145
-92 147 -90 20 20 -111 150 -234 234 -129 87 -358 187 -478 207 -75 13 -73 10
-64 68 5 28 17 116 28 195 11 78 23 147 27 154 5 7 14 1 28 -18 11 -16 43 -53
71 -83z m-1799 57 l29 -33 -32 29 c-18 17 -33 31 -33 33 0 8 8 1 36 -29z m55
-65 c13 -16 12 -17 -3 -4 -17 13 -22 21 -14 21 2 0 10 -8 17 -17z m924 -1346
c97 -122 294 -249 503 -321 119 -41 233 -63 387 -73 61 -3 99 -9 86 -13 l-24
-5 24 -27 c13 -15 33 -28 44 -30 23 -3 85 20 85 32 0 5 3 15 6 24 5 13 -2 16
-32 17 -25 0 -3 7 61 19 55 10 114 20 130 24 30 6 30 6 3 -4 -22 -9 -27 -19
-32 -58 -8 -75 -6 -82 23 -77 14 3 1 -4 -29 -15 -61 -23 -233 -56 -327 -64
-47 -4 -66 -1 -77 9 -8 8 -27 15 -43 14 -25 0 -26 -1 -8 -10 13 -6 -13 -8 -80
-4 -150 7 -318 52 -460 123 -288 143 -406 321 -364 552 l12 71 34 -63 c18 -35
53 -89 78 -121z m1914 -42 c-12 -19 -23 -35 -26 -35 -2 0 -1 5 3 12 5 8 1 9
-12 4 -10 -4 -3 7 16 23 19 17 36 30 37 31 1 0 -7 -16 -18 -35z m-99 -138 c0
-2 -10 -12 -22 -23 l-23 -19 19 23 c18 21 26 27 26 19z m-180 -32 c0 -8 -159
-82 -190 -89 -14 -3 -7 2 15 12 22 9 69 31 105 49 76 37 70 34 70 28z m130 -8
c0 -2 -15 -16 -32 -33 l-33 -29 29 33 c28 30 36 37 36 29z m-242 -90 c11 -13
7 -24 -18 -44 -13 -10 -16 -8 -18 14 -3 41 15 56 36 30z m32 -62 c0 -6 -117
-65 -127 -65 -4 1 21 16 57 35 72 38 70 37 70 30z m-170 -85 c-8 -5 -19 -10
-25 -10 -5 0 -3 5 5 10 8 5 20 10 25 10 6 0 3 -5 -5 -10z"/>
<path d="M10245 15883 c-639 -33 -1135 -309 -1477 -818 -368 -550 -483 -1308
-293 -1942 50 -164 163 -390 263 -523 88 -117 247 -275 366 -364 613 -458
1546 -681 2276 -545 467 88 879 319 1145 644 240 294 379 594 447 965 18 102
22 161 22 320 0 269 -31 439 -127 686 -258 667 -931 1220 -1782 1465 -270 77
-618 124 -840 112z m454 -212 c470 -81 902 -261 1257 -524 109 -81 266 -226
362 -337 50 -57 44 -53 -48 34 -58 54 -105 104 -105 110 -1 6 -7 10 -14 8 -7
-1 -32 13 -56 32 -161 132 -475 307 -710 394 -338 127 -591 179 -906 189 -418
13 -751 -77 -1069 -288 -143 -95 -354 -310 -456 -465 -180 -272 -293 -579
-340 -919 -21 -159 -15 -440 14 -606 50 -276 182 -568 350 -769 26 -30 36 -46
23 -35 -48 40 -177 204 -226 286 -111 187 -194 419 -231 644 -25 152 -25 447
-1 605 76 480 290 920 589 1206 269 258 590 406 978 454 128 15 448 5 589 -19z
m-343 -371 c119 -60 165 -151 130 -258 -29 -85 -85 -130 -243 -192 -117 -47
-282 -131 -380 -196 -93 -60 -121 -81 -273 -208 -115 -96 -155 -115 -236 -116
-159 0 -250 157 -195 337 57 189 293 433 536 555 170 86 305 119 471 115 116
-3 124 -4 190 -37z m-1208 -1137 c47 -35 65 -70 70 -130 12 -184 -204 -274
-299 -125 -80 126 15 292 160 278 24 -2 55 -12 69 -23z m3133 -486 c36 -24 68
-90 68 -143 1 -57 -29 -204 -64 -312 -52 -162 -100 -226 -180 -239 -79 -13
-149 44 -161 129 -5 36 1 73 29 169 20 68 46 163 57 210 12 47 31 103 43 124
46 82 138 109 208 62z m-353 -999 c11 -24 10 -34 -7 -72 -25 -58 -99 -132
-140 -141 -46 -10 -81 15 -81 59 0 26 13 51 55 104 30 39 60 73 67 76 7 3 31
4 53 3 33 -2 42 -7 53 -29z m-2867 -235 c13 -16 12 -17 -3 -4 -10 7 -18 15
-18 17 0 8 8 3 21 -13z"/>
<path d="M12065 15030 c3 -5 8 -10 11 -10 2 0 4 5 4 10 0 6 -5 10 -11 10 -5 0
-7 -4 -4 -10z"/>
<path d="M12185 14930 c10 -11 20 -20 23 -20 3 0 -3 9 -13 20 -10 11 -20 20
-23 20 -3 0 3 -9 13 -20z"/>
<path d="M13745 11056 c-43 -19 -99 -82 -131 -146 -24 -46 -28 -68 -29 -135 0
-92 17 -134 68 -165 77 -48 177 -7 247 101 61 95 75 212 34 292 -31 59 -119
84 -189 53z"/>
<path d="M8683 10889 c-71 -21 -93 -57 -226 -374 -74 -179 -69 -244 27 -300
58 -33 468 -184 519 -191 49 -6 119 25 149 66 10 14 56 119 103 234 94 232
104 280 65 344 -26 43 -83 68 -356 161 -218 73 -227 75 -281 60z m177 -110
c52 -17 99 -35 104 -39 4 -5 -19 -68 -52 -142 -33 -73 -86 -191 -117 -263 -31
-71 -58 -131 -59 -132 -5 -6 -213 80 -228 94 -31 28 -21 77 48 241 82 195 109
248 131 261 30 17 74 12 173 -20z"/>
<path d="M9585 10514 c-49 -27 -76 -56 -101 -109 -29 -60 -30 -97 -5 -150 89
-192 368 -119 365 95 -1 106 -63 172 -168 177 -42 2 -70 -2 -91 -13z"/>
<path d="M10184 10442 c8 -14 122 -55 138 -50 7 3 -12 14 -42 25 -84 31 -103
36 -96 25z"/>
<path d="M8340 10032 c-109 -54 -106 -204 5 -253 77 -34 144 -2 180 85 19 44
13 86 -17 129 -40 56 -105 71 -168 39z"/>
<path d="M9290 9928 c-118 -71 -160 -204 -102 -319 37 -74 92 -111 171 -117
74 -5 123 10 174 57 165 149 82 411 -131 411 -48 0 -67 -6 -112 -32z m179 -52
c15 -8 34 -23 42 -33 11 -15 9 -15 -10 2 -14 11 -21 14 -17 7 8 -13 -2 -26
-44 -56 -14 -10 -17 -16 -7 -13 11 4 17 1 17 -8 0 -16 -27 -45 -43 -45 -7 0
-3 -6 7 -12 15 -8 22 -7 31 6 7 9 24 16 39 16 18 0 29 7 36 23 9 22 9 22 9 0
1 -12 6 -23 13 -25 20 -7 -15 -93 -38 -93 -11 0 -20 -8 -22 -20 -4 -18 -3 -18
14 -5 18 14 18 14 5 -3 -29 -36 -90 -59 -138 -52 -119 18 -166 152 -90 259 39
56 138 82 196 52z"/>
<path d="M9370 9762 c0 -5 7 -13 16 -16 10 -4 14 -1 12 6 -5 15 -28 23 -28 10z"/>
<path d="M9310 9662 c0 -7 -4 -11 -9 -7 -6 3 -15 -3 -20 -14 -9 -16 -6 -23 15
-40 39 -31 54 -27 49 11 -4 31 -35 76 -35 50z"/>
<path d="M8780 9852 c-41 -20 -80 -74 -80 -111 0 -62 68 -131 128 -131 65 0
122 60 122 130 0 56 -26 95 -76 116 -43 18 -52 18 -94 -4z"/>
<path d="M12690 10295 c-93 -15 -209 -48 -258 -72 -28 -13 -38 -25 -40 -46 -4
-32 91 -301 116 -329 20 -23 46 -23 143 2 44 12 128 29 187 39 155 26 155 24
57 290 -34 93 -41 105 -71 117 -38 16 -35 16 -134 -1z m135 -85 c22 -63 27
-86 17 -71 -9 12 -14 12 -36 -3 -14 -9 -26 -23 -26 -30 0 -7 -10 -26 -21 -41
-18 -22 -20 -29 -8 -37 11 -8 11 -9 -2 -5 -9 3 -23 -5 -35 -21 -10 -15 -32
-39 -47 -54 -23 -23 -25 -28 -10 -29 20 0 -73 -28 -97 -29 -10 0 -29 38 -58
118 -60 160 -60 160 8 184 77 26 228 57 269 55 29 -2 36 -7 46 -37z m72 -244
c-4 -10 -17 -15 -34 -15 l-28 2 28 4 c20 3 27 10 26 26 -1 17 -2 18 -6 5 -2
-10 -9 -18 -14 -18 -12 0 -11 6 4 30 12 20 12 20 21 1 5 -11 6 -27 3 -35z
m-190 -42 c-3 -3 -12 -4 -19 -1 -8 3 -5 6 6 6 11 1 17 -2 13 -5z"/>
<path d="M7535 9074 c119 -145 288 -453 350 -636 32 -95 54 -122 28 -35 -92
311 -260 612 -395 709 -27 18 -24 13 17 -38z"/>
<path d="M7538 2973 c7 -3 16 -2 19 1 4 3 -2 6 -13 5 -11 0 -14 -3 -6 -6z"/>
<path d="M7070 2929 c0 -5 5 -7 10 -4 6 3 10 8 10 11 0 2 -4 4 -10 4 -5 0 -10
-5 -10 -11z"/>
<path d="M15833 14620 c-67 -40 -79 -120 -24 -153 68 -40 161 2 177 81 5 26 1
36 -24 62 -36 36 -81 40 -129 10z"/>
<path d="M16530 14243 c-25 -9 -68 -54 -80 -84 -25 -60 12 -138 75 -159 30
-10 41 -9 72 7 45 22 83 75 83 115 0 83 -79 147 -150 121z"/>
<path d="M15925 14190 c-59 -24 -89 -103 -66 -173 16 -46 79 -103 130 -117
109 -29 188 89 132 198 -42 82 -125 122 -196 92z"/>
<path d="M15520 14139 c-22 -40 12 -109 55 -109 47 0 61 57 24 104 -25 32 -64
34 -79 5z"/>
<path d="M2926 10015 c-39 -20 -55 -44 -56 -78 0 -63 79 -119 145 -103 34 9
75 52 75 80 0 35 -38 86 -75 102 -43 18 -53 18 -89 -1z"/>
<path d="M2285 9925 c-77 -27 -136 -130 -120 -206 29 -139 183 -198 286 -112
38 33 68 95 69 143 0 81 -79 172 -160 184 -19 3 -53 -1 -75 -9z"/>
<path d="M2709 9270 c-23 -23 -29 -35 -24 -52 25 -80 147 -126 209 -77 67 52
-9 159 -113 159 -34 0 -49 -6 -72 -30z"/>
<path d="M15909 9105 c-14 -7 -34 -29 -44 -48 -25 -47 -12 -93 35 -125 64 -43
145 -12 170 64 13 38 -4 82 -42 108 -27 20 -84 20 -119 1z"/>
<path d="M15504 8900 c-26 -10 -54 -48 -54 -72 0 -53 54 -97 105 -84 27 7 65
59 65 89 0 24 -53 77 -77 76 -10 0 -28 -4 -39 -9z"/>
<path d="M16293 8890 c-28 -11 -43 -40 -43 -82 0 -62 52 -79 90 -31 42 53 8
134 -47 113z"/>
<path d="M14612 5340 c-39 -24 -72 -75 -72 -112 0 -16 12 -41 29 -60 27 -30
35 -33 85 -33 51 0 59 3 93 38 33 32 38 44 38 83 0 39 -5 50 -33 75 -39 35
-91 39 -140 9z"/>
<path d="M13956 5150 c-157 -56 -257 -179 -264 -326 -3 -60 0 -78 22 -121 32
-64 103 -127 169 -150 81 -28 197 -24 269 9 218 101 281 363 125 516 -85 83
-210 111 -321 72z"/>
<path d="M15595 4691 c-49 -30 -76 -66 -82 -108 -4 -32 0 -45 22 -71 47 -56
120 -55 181 1 61 56 58 149 -8 183 -37 19 -77 18 -113 -5z"/>
<path d="M13254 4116 c-29 -29 -34 -41 -34 -83 0 -171 183 -361 300 -313 49
20 75 66 74 130 -2 144 -140 300 -265 300 -33 0 -47 -6 -75 -34z"/>
<path d="M15095 3905 c-67 -20 -99 -41 -156 -102 -191 -208 -49 -462 197 -353
137 60 228 238 183 357 -31 83 -130 127 -224 98z"/>
<path d="M14280 3304 c-60 -16 -110 -56 -110 -88 0 -31 79 -99 140 -120 67
-24 205 -27 264 -5 53 19 80 56 67 91 -21 56 -107 109 -206 127 -73 14 -87 13
-155 -5z"/>
<path d="M3584 3080 c-33 -13 -64 -59 -64 -96 0 -26 7 -39 33 -58 76 -58 187
-7 187 85 0 11 -13 34 -29 50 -31 30 -81 38 -127 19z"/>
<path d="M4054 2920 c-32 -13 -64 -59 -64 -92 0 -34 39 -78 69 -78 67 0 119
73 95 135 -6 15 -54 46 -71 44 -4 0 -18 -4 -29 -9z"/>
<path d="M3350 2770 c-40 -40 -15 -111 50 -145 30 -16 53 -12 83 13 50 43 -16
152 -93 152 -11 0 -29 -9 -40 -20z"/>
</g>
</svg>
