<?xml version="1.0" standalone="no"?>
<!DOCTYPE svg PUBLIC "-//W3C//DTD SVG 20010904//EN"
 "http://www.w3.org/TR/2001/REC-SVG-20010904/DTD/svg10.dtd">
<svg version="1.0" xmlns="http://www.w3.org/2000/svg"
 width="1920.000000pt" height="1920.000000pt" viewBox="0 0 1920.000000 1920.000000"
 preserveAspectRatio="xMidYMid meet">
<metadata>
Created by potrace 1.16, written by Peter Selinger 2001-2019
</metadata>
<g transform="translate(0.000000,1920.000000) scale(0.100000,-0.100000)"
fill="#000000" stroke="none">
<path d="M0 9600 l0 -9600 9600 0 9600 0 0 9600 0 9600 -9600 0 -9600 0 0
-9600z m9297 6173 c-2 -21 -4 -6 -4 32 0 39 2 55 4 38 2 -18 2 -50 0 -70z
m763 34 c0 -8 -70 -5 -76 4 -12 20 19 28 48 13 15 -8 28 -16 28 -17z m-1000
-52 c0 -2 -10 -9 -22 -15 -22 -11 -22 -10 -4 4 21 17 26 19 26 11z m237 -377
c-2 -35 -3 -9 -3 57 0 66 1 94 3 63 2 -32 2 -86 0 -120z m0 -120 c-2 -13 -4
-5 -4 17 -1 22 1 32 4 23 2 -10 2 -28 0 -40z m0 -265 c-3 -10 -5 -2 -5 17 0
19 2 27 5 18 2 -10 2 -26 0 -35z m0 -145 c-2 -13 -4 -5 -4 17 -1 22 1 32 4 23
2 -10 2 -28 0 -40z m2443 -34 c0 -2 -9 0 -20 6 -11 6 -20 13 -20 16 0 2 9 0
20 -6 11 -6 20 -13 20 -16z m-2443 -36 c-3 -7 -5 -2 -5 12 0 14 2 19 5 13 2
-7 2 -19 0 -25z m0 -210 c-2 -13 -4 -5 -4 17 -1 22 1 32 4 23 2 -10 2 -28 0
-40z m-147 -472 c0 -2 -21 -17 -47 -32 -27 -15 -58 -34 -70 -42 -13 -8 -23
-12 -23 -9 0 6 79 59 110 74 31 14 30 14 30 9z m970 -42 c0 -2 -9 0 -20 6 -11
6 -20 13 -20 16 0 2 9 0 20 -6 11 -6 20 -13 20 -16z m50 -30 c0 -2 -9 0 -20 6
-11 6 -20 13 -20 16 0 2 9 0 20 -6 11 -6 20 -13 20 -16z m-1400 -159 c0 -2
-13 -11 -30 -20 -38 -19 -40 -11 -2 9 31 17 32 18 32 11z m999 -532 c624 -364
2701 -1637 2708 -1661 3 -7 -226 -155 -917 -592 -336 -213 -1083 -689 -1853
-1181 l-107 -69 -218 139 c-119 76 -426 272 -682 436 -392 251 -776 495 -1770
1123 -74 47 -154 98 -178 114 l-43 30 178 110 c98 61 234 145 303 188 69 43
211 130 315 195 105 65 381 235 615 378 234 143 482 295 552 337 69 43 260
158 425 256 164 97 341 203 393 235 52 32 99 58 104 58 5 1 84 -43 175 -96z
m-1849 22 c0 -2 -10 -9 -22 -15 -22 -11 -22 -10 -4 4 21 17 26 19 26 11z
m-3150 -170 c0 -2 -10 -9 -22 -15 -22 -11 -22 -10 -4 4 21 17 26 19 26 11z
m-180 -110 c0 -2 -10 -9 -22 -15 -22 -11 -22 -10 -4 4 21 17 26 19 26 11z
m-60 -40 c-7 -8 -18 -15 -24 -15 -6 0 -2 7 8 15 25 19 32 19 16 0z m23 -10
c-3 -9 -8 -14 -10 -11 -3 3 -2 9 2 15 9 16 15 13 8 -4z m10214 -142 c-2 -21
-4 -6 -4 32 0 39 2 55 4 38 2 -18 2 -50 0 -70z m-7632 1 c-25 -20 -75 -46 -75
-40 0 5 82 56 90 56 3 -1 -4 -8 -15 -16z m-304 -182 c-38 -27 -107 -66 -96
-55 12 13 108 73 115 72 3 0 -6 -8 -19 -17z m7936 -89 c-3 -10 -5 -4 -5 12 0
17 2 24 5 18 2 -7 2 -21 0 -30z m-8212 -79 c-11 -9 -33 -22 -50 -30 l-30 -15
25 20 c14 12 30 25 35 30 6 6 17 10 25 10 11 0 10 -4 -5 -15z m8212 -116 c-3
-8 -6 -5 -6 6 -1 11 2 17 5 13 3 -3 4 -12 1 -19z m-8457 -31 c-23 -21 -113
-71 -106 -58 7 10 105 71 116 71 2 0 -2 -6 -10 -13z m6620 -24 c0 -7 -39 17
-46 28 -3 6 5 3 20 -6 14 -10 26 -19 26 -22z m50 -29 c0 -2 -9 0 -20 6 -11 6
-20 13 -20 16 0 2 9 0 20 -6 11 -6 20 -13 20 -16z m-6970 -129 c0 -2 -13 -11
-30 -20 -38 -19 -40 -11 -2 9 31 17 32 18 32 11z m8757 -127 c-3 -7 -5 -2 -5
12 0 14 2 19 5 13 2 -7 2 -19 0 -25z m-8930 -170 c-2 -29 -3 -6 -3 52 0 58 1
81 3 53 2 -29 2 -77 0 -105z m8930 10 c-3 -7 -5 -2 -5 12 0 14 2 19 5 13 2 -7
2 -19 0 -25z m0 -160 c-2 -24 -4 -7 -4 37 0 44 2 63 4 43 2 -21 2 -57 0 -80z
m-8930 -135 c-3 -10 -5 -2 -5 17 0 19 2 27 5 18 2 -10 2 -26 0 -35z m8930
-310 c-2 -21 -4 -4 -4 37 0 41 2 58 4 38 2 -21 2 -55 0 -75z m-7561 -299 c667
-426 990 -634 1379 -885 149 -96 399 -258 557 -359 l287 -185 1 -1589 0 -1588
-22 14 c-90 59 -2202 1379 -2635 1647 l-183 113 0 1610 c0 1352 2 1609 14
1605 7 -3 278 -175 602 -383z m5391 199 c-2 -21 -4 -4 -4 37 0 41 2 58 4 38 2
-21 2 -55 0 -75z m-296 -16 c-6 -8 -7 -18 -3 -22 4 -5 1 -5 -5 -1 -7 4 -22 2
-33 -4 -32 -17 -23 -4 13 19 38 24 43 26 28 8z m-6464 -134 c-2 -21 -4 -4 -4
37 0 41 2 58 4 38 2 -21 2 -55 0 -75z m6760 -285 c-2 -35 -3 -7 -3 62 0 69 1
97 3 63 2 -35 2 -91 0 -125z m2170 -50 c-3 -7 -5 -2 -5 12 0 14 2 19 5 13 2
-7 2 -19 0 -25z m-2170 -160 c-2 -18 -4 -4 -4 32 0 36 2 50 4 33 2 -18 2 -48
0 -65z m-1357 -52 c0 -2 -15 -13 -32 -25 -18 -11 -27 -21 -20 -21 6 0 12 -4
12 -10 0 -5 -6 -10 -14 -10 -23 0 -12 30 20 51 31 20 34 21 34 15z m-305 -196
c-3 -5 -16 -15 -28 -21 -19 -9 -19 -8 3 10 28 23 34 26 25 11z m3832 -217 c-3
-10 -5 -4 -5 12 0 17 2 24 5 18 2 -7 2 -21 0 -30z m-8930 -60 c-3 -10 -5 -2
-5 17 0 19 2 27 5 18 2 -10 2 -26 0 -35z m4713 33 c0 -2 -8 -10 -17 -17 -16
-13 -17 -12 -4 4 13 16 21 21 21 13z m4217 -58 c-2 -13 -4 -5 -4 17 -1 22 1
32 4 23 2 -10 2 -28 0 -40z m0 -210 c-2 -29 -3 -8 -3 47 0 55 1 79 3 53 2 -26
2 -71 0 -100z m-4489 82 c-7 -10 -14 -17 -16 -15 -3 2 -13 0 -23 -6 -31 -16
-21 -3 14 20 40 25 40 26 25 1z m-143 -86 c-26 -20 -55 -36 -55 -30 0 5 63 46
70 46 3 -1 -4 -8 -15 -16z m4632 -91 c-3 -10 -5 -4 -5 12 0 17 2 24 5 18 2 -7
2 -21 0 -30z m0 -280 c-2 -38 -3 -7 -3 67 0 74 1 105 3 68 2 -38 2 -98 0 -135z
m-8930 55 c-2 -13 -4 -3 -4 22 0 25 2 35 4 23 2 -13 2 -33 0 -45z m6760 -40
c-3 -8 -6 -5 -6 6 -1 11 2 17 5 13 3 -3 4 -12 1 -19z m-6760 -375 c-3 -10 -5
-4 -5 12 0 17 2 24 5 18 2 -7 2 -21 0 -30z m8930 -160 c-2 -16 -4 -5 -4 22 0
28 2 40 4 28 2 -13 2 -35 0 -50z m-8930 -535 c-1 -101 -2 -19 -2 182 0 201 1
283 2 183 2 -101 2 -265 0 -365z m8930 170 c-2 -18 -4 -4 -4 32 0 36 2 50 4
33 2 -18 2 -48 0 -65z m0 -125 c-2 -16 -4 -5 -4 22 0 28 2 40 4 28 2 -13 2
-35 0 -50z m-2170 -175 c-2 -18 -4 -4 -4 32 0 36 2 50 4 33 2 -18 2 -48 0 -65z
m794 -175 c13 -15 12 -15 -8 -4 -24 12 -29 21 -14 21 5 0 15 -7 22 -17z m-987
-15 c-3 -5 -15 -6 -27 -3 -16 5 -18 4 -8 -3 11 -8 7 -14 -20 -28 -37 -19 -37
-18 9 37 13 17 57 14 46 -3z m-6741 -76 c-28 -21 -134 -78 -112 -60 9 7 19 24
23 36 4 13 13 22 19 19 7 -2 28 2 47 9 47 17 49 16 23 -4z m6492 -78 c-26 -20
-55 -36 -55 -30 0 5 63 46 70 46 3 -1 -4 -8 -15 -16z m-6875 -149 c0 -2 -10
-9 -22 -15 -22 -11 -22 -10 -4 4 21 17 26 19 26 11z m9487 -137 c-3 -7 -5 -2
-5 12 0 14 2 19 5 13 2 -7 2 -19 0 -25z m0 -40 c-3 -8 -6 -5 -6 6 -1 11 2 17
5 13 3 -3 4 -12 1 -19z m-9991 -123 c-11 -8 -25 -15 -30 -15 -6 1 0 7 14 15
32 19 40 18 16 0z m9991 -102 c-2 -16 -4 -3 -4 27 0 30 2 43 4 28 2 -16 2 -40
0 -55z m-10077 52 c0 -2 -10 -9 -22 -15 -22 -11 -22 -10 -4 4 21 17 26 19 26
11z m1270 -10 c0 -2 -10 -9 -22 -15 -22 -11 -22 -10 -4 4 21 17 26 19 26 11z
m-50 -30 c0 -2 -10 -9 -22 -15 -22 -11 -22 -10 -4 4 21 17 26 19 26 11z m7415
-15 c3 -6 -1 -7 -9 -4 -18 7 -21 14 -7 14 6 0 13 -4 16 -10z m-580 -40 c-3 -5
-12 -10 -18 -10 -7 0 -6 4 3 10 19 12 23 12 15 0z m-8265 -30 c-35 -24 -54
-31 -30 -11 14 11 30 21 35 21 6 0 3 -5 -5 -10z m6610 -45 c0 -2 -10 -9 -22
-15 -22 -11 -22 -10 -4 4 21 17 26 19 26 11z m1420 -70 c0 -2 -10 -9 -22 -15
-22 -11 -22 -10 -4 4 21 17 26 19 26 11z m-5603 -147 c-3 -8 -6 -5 -6 6 -1 11
2 17 5 13 3 -3 4 -12 1 -19z m5366 0 c-4 -7 -6 -21 -5 -30 2 -10 -1 -18 -7
-18 -6 0 -8 7 -5 15 7 18 0 19 -27 5 -31 -17 -22 -4 14 19 38 24 41 25 30 9z
m-2496 -140 c-2 -24 -4 -7 -4 37 0 44 2 63 4 43 2 -21 2 -57 0 -80z m-4617 47
c0 -2 -10 -9 -22 -15 -22 -11 -22 -10 -4 4 21 17 26 19 26 11z m8970 -57 c0
-5 4 -7 8 -4 5 3 9 -1 9 -9 0 -10 -5 -11 -18 -4 -24 13 -31 26 -14 26 8 0 15
-4 15 -9z m-9090 -13 c0 -2 -10 -9 -22 -15 -22 -11 -22 -10 -4 4 21 17 26 19
26 11z m9180 -31 c0 -2 -13 2 -30 11 -16 9 -30 18 -30 21 0 2 14 -2 30 -11 17
-9 30 -18 30 -21z m-6970 0 c0 -2 -9 0 -20 6 -11 6 -20 13 -20 16 0 2 9 0 20
-6 11 -6 20 -13 20 -16z m4680 -17 c-18 -17 -98 -64 -87 -51 9 10 89 62 97 63
2 1 -2 -5 -10 -12z m-1590 -41 c0 -5 -69 -46 -78 -46 -6 1 69 50 76 50 1 0 2
-2 2 -4z m4150 -102 c0 -2 -9 0 -20 6 -11 6 -20 13 -20 16 0 2 9 0 20 -6 11
-6 20 -13 20 -16z m50 -27 c0 -1 -12 -3 -28 -3 -15 -1 -21 1 -14 3 6 3 9 9 6
15 -4 6 2 5 15 -1 11 -7 21 -13 21 -14z m-4466 -19 c-4 -6 3 -5 16 2 15 8 20
8 16 1 -4 -6 -21 -18 -38 -27 -22 -11 -28 -12 -22 -2 9 13 10 18 13 39 0 5 6
7 11 4 6 -4 7 -11 4 -17z m-297 -80 c-2 -13 -4 -3 -4 22 0 25 2 35 4 23 2 -13
2 -33 0 -45z m91 -39 l23 -16 -43 -26 c-24 -14 -44 -25 -44 -24 -6 7 -11 93
-6 110 5 20 6 20 26 -4 12 -13 31 -32 44 -40z m-2043 -29 c3 -6 -1 -7 -9 -4
-18 7 -21 14 -7 14 6 0 13 -4 16 -10z m6295 -195 c0 -2 -10 -9 -22 -15 -22
-11 -22 -10 -4 4 21 17 26 19 26 11z m-5580 -251 c0 -2 -9 0 -20 6 -11 6 -20
13 -20 16 0 2 9 0 20 -6 11 -6 20 -13 20 -16z m2070 -39 c0 -2 -10 -9 -22 -15
-22 -11 -22 -10 -4 4 21 17 26 19 26 11z m2760 -170 c0 -2 -10 -9 -22 -15 -22
-11 -22 -10 -4 4 21 17 26 19 26 11z m-340 -209 c0 -2 -7 -7 -16 -10 -8 -3
-12 -2 -9 4 6 10 25 14 25 6z m-254 -155 c-25 -17 -56 -19 -56 -4 0 3 6 3 14
0 8 -3 22 1 33 8 10 8 23 14 28 15 6 0 -3 -9 -19 -19z m-241 -147 c-11 -9 -32
-22 -46 -29 -22 -12 -26 -12 -26 1 0 8 10 14 21 14 12 0 30 7 40 15 11 8 22
15 25 15 3 0 -3 -8 -14 -16z m-345 -209 c0 -2 -10 -9 -22 -15 -22 -11 -22 -10
-4 4 21 17 26 19 26 11z m-180 -110 c0 -2 -10 -9 -22 -15 -22 -11 -22 -10 -4
4 21 17 26 19 26 11z m-2430 -1461 c0 -2 -9 0 -20 6 -11 6 -20 13 -20 16 0 2
9 0 20 -6 11 -6 20 -13 20 -16z"/>
</g>
</svg>
