<?xml version="1.0" standalone="no"?>
<!DOCTYPE svg PUBLIC "-//W3C//DTD SVG 20010904//EN"
 "http://www.w3.org/TR/2001/REC-SVG-20010904/DTD/svg10.dtd">
<svg version="1.0" xmlns="http://www.w3.org/2000/svg"
 width="80.000000pt" height="100.000000pt" viewBox="0 0 80.000000 100.000000"
 preserveAspectRatio="xMidYMid meet">
<metadata>
Created by potrace 1.16, written by Peter Selinger 2001-2019
</metadata>
<g transform="translate(0.000000,100.000000) scale(0.100000,-0.100000)"
fill="#000000" stroke="none">
<path d="M0 499 l0 -500 103 2 c59 1 105 7 109 13 5 8 13 7 28 -1 23 -15 50
-17 50 -5 0 16 -39 44 -52 39 -9 -4 -8 -6 3 -6 9 -1 22 -8 29 -16 11 -13 8
-13 -21 -3 -44 14 -43 12 -26 45 20 36 55 65 70 58 7 -4 4 0 -6 8 -10 8 -14
17 -9 18 5 2 13 23 17 47 5 33 4 42 -8 42 -8 0 -21 8 -28 17 -13 15 -12 16 6
8 69 -29 155 -16 235 35 72 48 99 53 44 9 -59 -47 -110 -70 -173 -77 l-58 -7
13 -40 13 -40 -5 36 -6 36 61 5 c50 3 70 11 117 43 59 41 74 47 112 47 30 0
44 -13 76 -72 35 -63 36 -115 4 -172 -25 -45 -28 -46 -95 -32 -29 6 -31 8 -22
36 12 42 26 56 62 61 l32 4 -35 2 c-27 1 -31 4 -20 11 12 8 10 10 -9 10 -19 0
-21 3 -12 14 10 12 9 14 -7 10 -12 -4 -22 2 -30 18 l-12 23 6 -24 c5 -18 3
-22 -7 -16 -8 5 -5 -3 7 -16 33 -37 36 -47 23 -70 -8 -16 -13 -18 -19 -9 -6 9
-10 7 -14 -8 -5 -16 -21 -23 -70 -31 -82 -14 -93 -14 -100 5 -9 23 -8 24 17
25 l22 1 -23 7 c-13 3 -30 17 -39 31 -10 17 -12 19 -8 5 4 -11 9 -33 12 -49 6
-26 4 -27 -15 -17 -18 9 -19 8 -14 -11 3 -14 -1 -26 -14 -35 -17 -13 -6 -14
96 -10 115 5 128 7 164 22 12 5 30 2 52 -10 33 -18 35 -18 56 1 19 17 21 17
15 2 -6 -16 0 -18 48 -18 l55 0 0 35 c0 23 -5 35 -14 35 -9 0 -12 7 -9 19 3
11 0 28 -6 38 -10 17 -10 17 -11 -2 -1 -19 -1 -19 -11 -2 -6 11 -9 30 -6 43 2
14 2 22 -1 20 -2 -3 -19 26 -37 63 -19 40 -46 79 -64 92 -29 22 -30 23 -24 86
5 49 3 67 -8 73 -21 14 -7 19 55 21 68 2 74 -3 110 -86 l25 -60 1 313 0 312
-400 0 -400 0 0 -501z m488 129 c41 -19 92 -73 92 -96 0 -7 -9 -12 -19 -12
-24 0 -51 -36 -51 -68 0 -33 16 -59 47 -75 l26 -14 -75 -46 c-82 -51 -112 -62
-60 -21 52 41 62 69 53 157 -7 78 -22 107 -66 129 -15 7 -13 4 6 -14 14 -12
32 -32 39 -43 7 -11 1 -8 -14 7 -44 46 -85 62 -152 62 -47 0 -69 -6 -95 -24
l-34 -23 30 32 c71 77 173 96 273 49z m-235 -86 c-6 -4 -20 -23 -32 -42 -15
-26 -21 -30 -21 -16 0 21 50 80 59 70 3 -3 0 -8 -6 -12z m339 -49 c23 -21 23
-65 -1 -94 l-19 -24 -26 24 c-56 53 -11 146 46 94z m-415 -25 c-3 -8 -6 -5 -6
6 -1 11 2 17 5 13 3 -3 4 -12 1 -19z m281 -18 c3 -7 0 -10 -6 -6 -6 3 -13 0
-15 -6 -3 -7 -6 -2 -6 10 -1 25 19 26 27 2z m-281 -62 c-3 -8 -6 -5 -6 6 -1
11 2 17 5 13 3 -3 4 -12 1 -19z m44 -75 c13 -16 12 -17 -3 -4 -17 13 -22 21
-14 21 2 0 10 -8 17 -17z m536 -249 c-3 -3 -12 -4 -19 -1 -8 3 -5 6 6 6 11 1
17 -2 13 -5z"/>
<path d="M546 484 c-26 -26 -18 -67 16 -85 20 -11 20 -10 4 12 -19 28 -21 60
-4 77 7 7 9 12 6 12 -4 0 -14 -7 -22 -16z"/>
<path d="M686 347 c3 -10 9 -15 12 -12 3 3 0 11 -7 18 -10 9 -11 8 -5 -6z"/>
<path d="M640 46 c0 -2 7 -6 15 -10 8 -3 15 -1 15 4 0 6 -7 10 -15 10 -8 0
-15 -2 -15 -4z"/>
</g>
</svg>
