<?xml version="1.0" standalone="no"?>
<!DOCTYPE svg PUBLIC "-//W3C//DTD SVG 20010904//EN"
 "http://www.w3.org/TR/2001/REC-SVG-20010904/DTD/svg10.dtd">
<svg version="1.0" xmlns="http://www.w3.org/2000/svg"
 width="100.000000pt" height="100.000000pt" viewBox="0 0 100.000000 100.000000"
 preserveAspectRatio="xMidYMid meet">
<metadata>
Created by potrace 1.16, written by Peter Selinger 2001-2019
</metadata>
<g transform="translate(0.000000,100.000000) scale(0.100000,-0.100000)"
fill="#000000" stroke="none">
<path d="M0 500 l0 -500 500 0 500 0 0 500 0 500 -500 0 -500 0 0 -500z m735
260 c14 -15 42 -36 60 -46 35 -18 45 -38 45 -87 0 -26 3 -28 29 -24 17 3 34 8
40 11 5 4 12 -2 14 -11 3 -10 6 0 7 22 l3 40 7 -50 c16 -99 16 -99 -55 -145
-36 -23 -65 -44 -65 -47 0 -2 5 -1 11 3 7 4 10 1 7 -7 -2 -8 -24 -24 -49 -36
-24 -12 -39 -22 -34 -23 6 0 3 -5 -5 -10 -12 -8 -12 -10 -1 -10 8 0 -3 -11
-23 -25 -43 -29 -46 -30 -46 -10 0 8 -7 15 -16 15 -8 0 -12 4 -9 10 12 20 -16
48 -114 114 l-101 67 1 67 c1 64 2 65 11 30 11 -40 27 -48 48 -23 7 9 19 14
27 11 7 -3 13 1 13 9 0 8 5 15 10 15 6 0 10 -13 10 -30 0 -27 8 -35 33 -31 4
0 7 -3 7 -7 0 -4 11 -9 25 -10 22 -2 24 1 15 17 -13 26 -2 82 21 104 23 22 24
40 4 57 -13 11 -24 7 -65 -18 -28 -17 -50 -27 -50 -23 0 4 27 25 60 45 65 40
79 59 81 103 1 27 1 27 9 -5 4 -19 20 -46 35 -62z m-410 -9 c3 -5 1 -12 -5
-16 -5 -3 -10 1 -10 9 0 18 6 21 15 7z m0 -201 c3 -5 1 -10 -4 -10 -6 0 -11 5
-11 10 0 6 2 10 4 10 3 0 8 -4 11 -10z"/>
<path d="M710 685 c0 -2 10 -13 21 -24 18 -17 21 -28 17 -69 l-5 -48 41 -2
c38 -2 39 -1 22 13 -19 14 -16 45 4 45 5 0 10 18 10 40 0 37 -2 40 -19 30 -24
-12 -34 -13 -27 -1 3 5 -1 12 -10 15 -18 7 -54 8 -54 1z"/>
</g>
</svg>
