<svg fill="none" height="100%" width="100%" viewBox="0 0 1024 1024" xmlns:xlink="http://www.w3.org/1999/xlink" xmlns="http://www.w3.org/2000/svg"><g id="i0"><g transform="translate(512,602.948)"><animateTransform repeatCount="indefinite" type="translate" attributeName="transform" dur="3s" begin="0s" calcMode="spline" values="512 602.948; 512 722.948; 512 602.948; 512 722.948; 512 602.948" keyTimes="0; 0.25; 0.5; 0.75; 1" keySplines="0.333 0 0.365 1; 0.333 0 0.373 1; 0.333 0 0.365 1; 0.333 0 0.357 1" fill="freeze" /><g transform="scale(6,6) translate(-37.333,-29.54)"><g id="i1" transform="matrix(1,0,0,1,21.166,38.496)"><path stroke-linejoin="round" stroke-linecap="round" stroke-width="2" stroke="#121331" fill="#e55e48" d="M-16.167,-15.585C-16.167,-15.585,-16.167,-3.094,-16.167,-3.094C-16.167,-3.094,16.167,15.585,16.167,15.585C16.167,15.585,16.167,3.094,16.167,3.094C16.167,3.094,-16.167,-15.585,-16.167,-15.585Z" /></g><g id="i2" transform="matrix(1,0,0,1,53.5,38.496)"><path stroke-linejoin="round" stroke-linecap="round" stroke-width="2" stroke="#121331" fill="#e55e48" d="M16.167,-15.585C16.167,-15.585,16.167,-3.094,16.167,-3.094C16.167,-3.094,-16.167,15.585,-16.167,15.585C-16.167,15.585,-16.167,3.094,-16.167,3.094C-16.167,3.094,16.167,-15.585,16.167,-15.585Z" /></g><g id="i3" transform="matrix(1,0,0,1,37.333,23.295)"><path stroke-linejoin="round" stroke-linecap="round" stroke-width="2" stroke="#121331" fill="#e55e48" d="M-32.333,-0.383C-32.333,-0.383,-0.001,18.294,-0.001,18.294C-0.001,18.294,32.333,-0.383,32.333,-0.383C32.333,-0.383,-0.001,-18.294,-0.001,-18.294C-0.001,-18.294,-32.333,-0.383,-32.333,-0.383Z" /></g><g id="i4" transform="matrix(1,0,0,1,36.772,32.622)"><path stroke-linejoin="round" stroke-linecap="round" stroke-width="2" stroke="#121331" fill="#e55e48" d="M-5.212,-3.823C-5.212,-3.823,-5.212,0.579,-5.212,0.579C-5.212,2.37,-2.88,3.822,-0.001,3.822C2.878,3.822,5.212,2.37,5.212,0.579C5.212,0.579,5.212,-3.823,5.212,-3.823C5.212,-3.823,-5.212,-3.823,-5.212,-3.823Z" /></g><g id="i5" transform="matrix(1,0,0,1,36.771,28.8)"><path stroke-linejoin="round" stroke-linecap="round" stroke-width="2" stroke="#121331" fill="#e55e48" d="M5.213,0C5.213,1.791,2.879,3.243,0.001,3.243C-2.878,3.243,-5.213,1.791,-5.213,0C-5.213,-1.791,-2.878,-3.243,0.001,-3.243C2.879,-3.243,5.213,-1.791,5.213,0Z" /></g><g id="i6" transform="matrix(1,0,0,1,53.5,23.349)"><path stroke-linejoin="round" stroke-linecap="round" stroke-width="2" stroke="#121331" fill="#e55e48" d="M-5.212,-3.822C-5.212,-3.822,-5.212,0.579,-5.212,0.579C-5.212,2.37,-2.878,3.822,0.001,3.822C2.879,3.822,5.212,2.37,5.212,0.579C5.212,0.579,5.212,-3.822,5.212,-3.822C5.212,-3.822,-5.212,-3.822,-5.212,-3.822Z" /></g><g id="i7" transform="matrix(1,0,0,1,53.5,19.526)"><path stroke-linejoin="round" stroke-linecap="round" stroke-width="2" stroke="#121331" fill="#e55e48" d="M5.213,0C5.213,1.791,2.879,3.243,0.001,3.243C-2.878,3.243,-5.213,1.791,-5.213,0C-5.213,-1.791,-2.878,-3.243,0.001,-3.243C2.879,-3.243,5.213,-1.791,5.213,0Z" /></g><g id="i8" transform="matrix(1,0,0,1,21.322,23.349)"><path stroke-linejoin="round" stroke-linecap="round" stroke-width="2" stroke="#121331" fill="#e55e48" d="M-5.212,-3.822C-5.212,-3.822,-5.212,0.579,-5.212,0.579C-5.212,2.37,-2.878,3.822,0,3.822C2.879,3.822,5.212,2.37,5.212,0.579C5.212,0.579,5.212,-3.822,5.212,-3.822C5.212,-3.822,-5.212,-3.822,-5.212,-3.822Z" /></g><g id="i9" transform="matrix(1,0,0,1,21.323,19.526)"><path stroke-linejoin="round" stroke-linecap="round" stroke-width="2" stroke="#121331" fill="#e55e48" d="M5.212,0C5.212,1.791,2.879,3.243,0,3.243C-2.879,3.243,-5.212,1.791,-5.212,0C-5.212,-1.791,-2.879,-3.243,0,-3.243C2.879,-3.243,5.212,-1.791,5.212,0Z" /></g><g id="i10" transform="matrix(1,0,0,1,38.052,14.076)"><path stroke-linejoin="round" stroke-linecap="round" stroke-width="2" stroke="#121331" fill="#e55e48" d="M-5.212,-3.822C-5.212,-3.822,-5.212,0.579,-5.212,0.579C-5.212,2.371,-2.88,3.822,-0.001,3.822C2.878,3.822,5.213,2.371,5.213,0.579C5.213,0.579,5.213,-3.822,5.213,-3.822C5.213,-3.822,-5.212,-3.822,-5.212,-3.822Z" /></g><g id="i11" transform="matrix(1,0,0,1,38.052,10.253)"><path stroke-linejoin="round" stroke-linecap="round" stroke-width="2" stroke="#121331" fill="#e55e48" d="M5.213,0C5.213,1.792,2.879,3.243,0.001,3.243C-2.878,3.243,-5.213,1.792,-5.213,0C-5.213,-1.791,-2.878,-3.243,0.001,-3.243C2.879,-3.243,5.213,-1.791,5.213,0Z" /></g></g></g></g><g id="i12"><g transform="translate(512,527.998)"><animateTransform repeatCount="indefinite" type="translate" attributeName="transform" dur="3s" begin="0s" calcMode="spline" values="512 527.998; 512 527.998; 512 527.998; 512 527.998; 512 527.998" keyTimes="0; 0.25; 0.5; 0.75; 1" keySplines="0 0 1 1; 0 0 1 1; 0 0 1 1; 0 0 1 1" fill="freeze" /><g transform="scale(6,6) translate(-37.333,-29.54)"><g id="i1" transform="matrix(1,0,0,1,21.166,38.496)"><path stroke-linejoin="round" stroke-linecap="round" stroke-width="2" stroke="#121331" fill="#ffcc33" d="M-16.167,-15.585C-16.167,-15.585,-16.167,-3.092,-16.167,-3.092C-16.167,-3.092,16.167,15.585,16.167,15.585C16.167,15.585,16.167,3.094,16.167,3.094C16.167,3.094,-16.167,-15.585,-16.167,-15.585Z" /></g><g id="i2" transform="matrix(1,0,0,1,53.5,38.496)"><path stroke-linejoin="round" stroke-linecap="round" stroke-width="2" stroke="#121331" fill="#ffcc33" d="M16.167,-15.585C16.167,-15.585,16.167,-3.092,16.167,-3.092C16.167,-3.092,-16.167,15.585,-16.167,15.585C-16.167,15.585,-16.167,3.094,-16.167,3.094C-16.167,3.094,16.167,-15.585,16.167,-15.585Z" /></g><g id="i3" transform="matrix(1,0,0,1,37.333,23.295)"><path stroke-linejoin="round" stroke-linecap="round" stroke-width="2" stroke="#121331" fill="#ffcc33" d="M-32.333,-0.383C-32.333,-0.383,-0.001,18.294,-0.001,18.294C-0.001,18.294,32.333,-0.383,32.333,-0.383C32.333,-0.383,-0.001,-18.294,-0.001,-18.294C-0.001,-18.294,-32.333,-0.383,-32.333,-0.383Z" /></g><g id="i4" transform="matrix(1,0,0,1,36.772,32.113)"><path stroke-linejoin="round" stroke-linecap="round" stroke-width="2" stroke="#121331" fill="#ffcc33" d="M-5.212,-3.822C-5.212,-3.822,-5.212,0.579,-5.212,0.579C-5.212,2.37,-2.88,3.823,-0.001,3.823C2.878,3.823,5.212,2.37,5.212,0.579C5.212,0.579,5.212,-3.822,5.212,-3.822C5.212,-3.822,-5.212,-3.822,-5.212,-3.822Z" /></g><g id="i5" transform="matrix(1,0,0,1,36.771,28.291)"><path stroke-linejoin="round" stroke-linecap="round" stroke-width="2" stroke="#121331" fill="#ffcc33" d="M5.213,0C5.213,1.791,2.879,3.243,0.001,3.243C-2.878,3.243,-5.213,1.791,-5.213,0C-5.213,-1.792,-2.878,-3.243,0.001,-3.243C2.879,-3.243,5.213,-1.792,5.213,0Z" /></g><g id="i6" transform="matrix(1,0,0,1,53.5,22.84)"><path stroke-linejoin="round" stroke-linecap="round" stroke-width="2" stroke="#121331" fill="#ffcc33" d="M-5.212,-3.823C-5.212,-3.823,-5.212,0.579,-5.212,0.579C-5.212,2.371,-2.878,3.823,0.001,3.823C2.879,3.823,5.212,2.371,5.212,0.579C5.212,0.579,5.212,-3.823,5.212,-3.823C5.212,-3.823,-5.212,-3.823,-5.212,-3.823Z" /></g><g id="i7" transform="matrix(1,0,0,1,53.5,19.018)"><path stroke-linejoin="round" stroke-linecap="round" stroke-width="2" stroke="#121331" fill="#ffcc33" d="M5.213,0C5.213,1.791,2.879,3.243,0.001,3.243C-2.878,3.243,-5.213,1.791,-5.213,0C-5.213,-1.792,-2.878,-3.243,0.001,-3.243C2.879,-3.243,5.213,-1.792,5.213,0Z" /></g><g id="i8" transform="matrix(1,0,0,1,21.322,22.84)"><path stroke-linejoin="round" stroke-linecap="round" stroke-width="2" stroke="#121331" fill="#ffcc33" d="M-5.212,-3.823C-5.212,-3.823,-5.212,0.579,-5.212,0.579C-5.212,2.371,-2.878,3.823,0,3.823C2.879,3.823,5.212,2.371,5.212,0.579C5.212,0.579,5.212,-3.823,5.212,-3.823C5.212,-3.823,-5.212,-3.823,-5.212,-3.823Z" /></g><g id="i9" transform="matrix(1,0,0,1,21.323,19.018)"><path stroke-linejoin="round" stroke-linecap="round" stroke-width="2" stroke="#121331" fill="#ffcc33" d="M5.212,0C5.212,1.791,2.879,3.243,0,3.243C-2.879,3.243,-5.212,1.791,-5.212,0C-5.212,-1.792,-2.879,-3.243,0,-3.243C2.879,-3.243,5.212,-1.792,5.212,0Z" /></g><g id="i10" transform="matrix(1,0,0,1,38.052,13.568)"><path stroke-linejoin="round" stroke-linecap="round" stroke-width="2" stroke="#121331" fill="#ffcc33" d="M-5.212,-3.823C-5.212,-3.823,-5.212,0.579,-5.212,0.579C-5.212,2.371,-2.88,3.823,-0.001,3.823C2.878,3.823,5.213,2.371,5.213,0.579C5.213,0.579,5.213,-3.823,5.213,-3.823C5.213,-3.823,-5.212,-3.823,-5.212,-3.823Z" /></g><g id="i11" transform="matrix(1,0,0,1,38.052,9.745)"><path stroke-linejoin="round" stroke-linecap="round" stroke-width="2" stroke="#121331" fill="#ffcc33" d="M5.213,0C5.213,1.792,2.879,3.243,0.001,3.243C-2.878,3.243,-5.213,1.792,-5.213,0C-5.213,-1.791,-2.878,-3.243,0.001,-3.243C2.879,-3.243,5.213,-1.791,5.213,0Z" /></g></g></g></g><g id="i13"><g transform="translate(512,453.05)"><animateTransform repeatCount="indefinite" type="translate" attributeName="transform" dur="3s" begin="0s" calcMode="spline" values="512 453.05; 512 333.05; 512 453.05; 512 333.05; 512 453.05" keyTimes="0; 0.25; 0.5; 0.75; 1" keySplines="0.333 0 0.365 1; 0.333 0 0.373 1; 0.333 0 0.365 1; 0.333 0 0.357 1" fill="freeze" /><g transform="scale(6,6) translate(-37.333,-29.54)"><g id="i1" transform="matrix(1,0,0,1,21.166,38.496)"><path stroke-linejoin="round" stroke-linecap="round" stroke-width="2" stroke="#121331" fill="#0fccce" d="M-16.167,-15.585C-16.167,-15.585,-16.167,-3.094,-16.167,-3.094C-16.167,-3.094,16.167,15.585,16.167,15.585C16.167,15.585,16.167,3.094,16.167,3.094C16.167,3.094,-16.167,-15.585,-16.167,-15.585Z" /></g><g id="i2" transform="matrix(1,0,0,1,53.5,38.496)"><path stroke-linejoin="round" stroke-linecap="round" stroke-width="2" stroke="#121331" fill="#0fccce" d="M16.167,-15.585C16.167,-15.585,16.167,-3.094,16.167,-3.094C16.167,-3.094,-16.167,15.585,-16.167,15.585C-16.167,15.585,-16.167,3.094,-16.167,3.094C-16.167,3.094,16.167,-15.585,16.167,-15.585Z" /></g><g id="i3" transform="matrix(1,0,0,1,37.333,23.295)"><path stroke-linejoin="round" stroke-linecap="round" stroke-width="2" stroke="#121331" fill="#0fccce" d="M-32.333,-0.383C-32.333,-0.383,-0.001,18.294,-0.001,18.294C-0.001,18.294,32.333,-0.383,32.333,-0.383C32.333,-0.383,-0.001,-18.294,-0.001,-18.294C-0.001,-18.294,-32.333,-0.383,-32.333,-0.383Z" /></g><g id="i11" transform="matrix(0.18,0,0,0.18,37.794,22.908)"><path stroke-miterlimit="10" stroke-width="8.157" stroke="#ffffff" fill="#ffffff" d="M54.047,-38.662C57.288,-38.088,59.115,-35.466,58.129,-32.806C57.142,-30.147,53.713,-28.456,50.471,-29.03C40.582,-30.781,25.01,-20.721,5.002,2.455C-17.812,28.882,-36.949,41.639,-53.737,39.715C-57.043,39.337,-59.115,36.847,-58.367,34.152C-57.619,31.459,-54.334,29.581,-51.028,29.96C-40.81,31.131,-24.99,20.585,-4.898,-2.689C18,-29.214,37.233,-41.64,54.047,-38.662Z" /></g></g></g></g></svg>