<svg fill="none" height="100%" width="100%" viewBox="0 0 1080 1000" xmlns:xlink="http://www.w3.org/1999/xlink" xmlns="http://www.w3.org/2000/svg"><defs><clipPath id="i0"><rect height="1000" width="1080" y="0" x="0" /></clipPath><g id="i1"><g visibility="hidden" id="i2"><animate repeatCount="indefinite" begin="0s" calcMode="discrete" dur="1.201s" values="hidden; visible; visible; visible" keyTimes="0; 0.110981; 0.999832; 1" attributeName="visibility" /><g transform="translate(540,500)"><animateTransform repeatCount="indefinite" type="translate" attributeName="transform" dur="1.201s" begin="0s" calcMode="spline" values="540 500; 540 500; 772 622; 772 622" keyTimes="0; 0.111111; 0.777778; 1" keySplines="0 0 1 1; 0.333 0 0.667 1; 0 0 1 1" fill="freeze" /><g transform="rotate(1)"><animateTransform repeatCount="indefinite" type="rotate" attributeName="transform" dur="1.201s" begin="0s" calcMode="spline" values="1; 1; 199; 199" keyTimes="0; 0.111111; 0.777778; 1" keySplines="0 0 1 1; 0.333 0 0.667 1; 0 0 1 1" fill="freeze" /><g transform="scale(0.25,0.25)"><animateTransform repeatCount="indefinite" type="scale" attributeName="transform" dur="1.201s" begin="0s" calcMode="spline" values="0.25 0.25; 0.25 0.25; 0 0; 0 0" keyTimes="0; 0.111111; 0.777778; 1" keySplines="0 0 1 1; 0.333 0 0.667 1; 0 0 1 1" fill="freeze" /><g transform="translate(-191.763,-170.375)"><g id="i3" transform="matrix(1,0,0,1,191.759,171.189)"><path fill="#ff4155" d="M160.743,-137.462C141.103,-158.858,113.323,-170.938,84.281,-170.713C62.508,-170.809,41.347,-163.505,24.267,-150.001C15.009,-142.761,6.837,-134.229,0.003,-124.667C-6.83,-134.23,-15.001,-142.761,-24.26,-150.001C-41.339,-163.506,-62.501,-170.81,-84.275,-170.713C-113.318,-170.938,-141.097,-158.858,-160.737,-137.462C-180.712,-115.05,-191.51,-85.935,-190.982,-55.919C-190.101,-21.319,-176.628,11.769,-153.091,37.143C-123.925,69.317,-92.211,99.086,-58.26,126.162C-45.126,137.36,-30.225,150.053,-14.762,163.544C-6.308,170.939,6.313,170.939,14.768,163.544C30.231,149.952,45.133,137.326,58.284,126.162C92.236,99.093,123.949,69.33,153.114,37.161C176.65,11.78,190.117,-21.315,190.988,-55.919C191.509,-85.948,180.69,-115.071,160.692,-137.479C160.692,-137.479,160.743,-137.462,160.743,-137.462Z" /></g></g></g></g></g></g><g visibility="hidden" id="i4"><animate repeatCount="indefinite" begin="0s" calcMode="discrete" dur="1.201s" values="hidden; visible; visible; visible" keyTimes="0; 0.110981; 0.999832; 1" attributeName="visibility" /><g transform="translate(540,500)"><animateTransform repeatCount="indefinite" type="translate" attributeName="transform" dur="1.201s" begin="0s" calcMode="spline" values="540 500; 540 500; 788 630; 788 630" keyTimes="0; 0.111111; 0.777778; 1" keySplines="0 0 1 1; 0.333 0 0.667 1; 0 0 1 1" fill="freeze" /><g transform="rotate(1)"><animateTransform repeatCount="indefinite" type="rotate" attributeName="transform" dur="1.201s" begin="0s" calcMode="spline" values="1; 1; 361; 361" keyTimes="0; 0.111111; 0.777778; 1" keySplines="0 0 1 1; 0.333 0 0.667 1; 0 0 1 1" fill="freeze" /><g transform="scale(0.25,0.25)"><animateTransform repeatCount="indefinite" type="scale" attributeName="transform" dur="1.201s" begin="0s" calcMode="spline" values="0.25 0.25; 0.25 0.25; 0 0; 0 0" keyTimes="0; 0.111111; 0.777778; 1" keySplines="0 0 1 1; 0.333 0 0.667 1; 0 0 1 1" fill="freeze" /><g transform="translate(-191.763,-170.375)"><g id="i3" transform="matrix(1,0,0,1,191.759,171.189)"><path fill="#ff4155" d="M160.743,-137.462C141.103,-158.858,113.323,-170.938,84.281,-170.713C62.508,-170.809,41.347,-163.505,24.267,-150.001C15.009,-142.761,6.837,-134.229,0.003,-124.667C-6.83,-134.23,-15.001,-142.761,-24.26,-150.001C-41.339,-163.506,-62.501,-170.81,-84.275,-170.713C-113.318,-170.938,-141.097,-158.858,-160.737,-137.462C-180.712,-115.05,-191.51,-85.935,-190.982,-55.919C-190.101,-21.319,-176.628,11.769,-153.091,37.143C-123.925,69.317,-92.211,99.086,-58.26,126.162C-45.126,137.36,-30.225,150.053,-14.762,163.544C-6.308,170.939,6.313,170.939,14.768,163.544C30.231,149.952,45.133,137.326,58.284,126.162C92.236,99.093,123.949,69.33,153.114,37.161C176.65,11.78,190.117,-21.315,190.988,-55.919C191.509,-85.948,180.69,-115.071,160.692,-137.479C160.692,-137.479,160.743,-137.462,160.743,-137.462Z" /></g></g></g></g></g></g><g visibility="hidden" id="i5"><animate repeatCount="indefinite" begin="0s" calcMode="discrete" dur="1.201s" values="hidden; visible; visible; visible" keyTimes="0; 0.110981; 0.999832; 1" attributeName="visibility" /><g transform="translate(540,500)"><animateTransform repeatCount="indefinite" type="translate" attributeName="transform" dur="1.201s" begin="0s" calcMode="spline" values="540 500; 540 500; 540 818; 540 818" keyTimes="0; 0.111111; 0.777778; 1" keySplines="0 0 1 1; 0.333 0 0.667 1; 0 0 1 1" fill="freeze" /><g transform="rotate(1)"><animateTransform repeatCount="indefinite" type="rotate" attributeName="transform" dur="1.201s" begin="0s" calcMode="spline" values="1; 1; 433; 433" keyTimes="0; 0.111111; 0.777778; 1" keySplines="0 0 1 1; 0.333 0 0.667 1; 0 0 1 1" fill="freeze" /><g transform="scale(0.25,0.25)"><animateTransform repeatCount="indefinite" type="scale" attributeName="transform" dur="1.201s" begin="0s" calcMode="spline" values="0.25 0.25; 0.25 0.25; 0.25 0.25; 0 0; 0 0" keyTimes="0; 0.111111; 0.388889; 0.777778; 1" keySplines="0 0 1 1; 0.333 0 0.667 1; 0.333 0 0.667 1; 0 0 1 1" fill="freeze" /><g transform="translate(-191.763,-170.375)"><g id="i3" transform="matrix(1,0,0,1,191.759,171.189)"><path fill="#ff4155" d="M160.743,-137.462C141.103,-158.858,113.323,-170.938,84.281,-170.713C62.508,-170.809,41.347,-163.505,24.267,-150.001C15.009,-142.761,6.837,-134.229,0.003,-124.667C-6.83,-134.23,-15.001,-142.761,-24.26,-150.001C-41.339,-163.506,-62.501,-170.81,-84.275,-170.713C-113.318,-170.938,-141.097,-158.858,-160.737,-137.462C-180.712,-115.05,-191.51,-85.935,-190.982,-55.919C-190.101,-21.319,-176.628,11.769,-153.091,37.143C-123.925,69.317,-92.211,99.086,-58.26,126.162C-45.126,137.36,-30.225,150.053,-14.762,163.544C-6.308,170.939,6.313,170.939,14.768,163.544C30.231,149.952,45.133,137.326,58.284,126.162C92.236,99.093,123.949,69.33,153.114,37.161C176.65,11.78,190.117,-21.315,190.988,-55.919C191.509,-85.948,180.69,-115.071,160.692,-137.479C160.692,-137.479,160.743,-137.462,160.743,-137.462Z" /></g></g></g></g></g></g><g visibility="hidden" id="i6"><animate repeatCount="indefinite" begin="0s" calcMode="discrete" dur="1.201s" values="hidden; visible; visible; visible" keyTimes="0; 0.110981; 0.999832; 1" attributeName="visibility" /><g transform="translate(540,500)"><animateTransform repeatCount="indefinite" type="translate" attributeName="transform" dur="1.201s" begin="0s" calcMode="spline" values="540 500; 540 500; 540 610; 540 610" keyTimes="0; 0.111111; 0.777778; 1" keySplines="0 0 1 1; 0.333 0 0.667 1; 0 0 1 1" fill="freeze" /><g transform="rotate(292)"><animateTransform repeatCount="indefinite" type="rotate" attributeName="transform" dur="1.201s" begin="0s" calcMode="spline" values="292; 292; 385; 385" keyTimes="0; 0.111111; 0.777778; 1" keySplines="0 0 1 1; 0.333 0 0.667 1; 0 0 1 1" fill="freeze" /><g transform="scale(0.25,0.25)"><animateTransform repeatCount="indefinite" type="scale" attributeName="transform" dur="1.201s" begin="0s" calcMode="spline" values="0.25 0.25; 0.25 0.25; 0 0; 0 0" keyTimes="0; 0.111111; 0.777778; 1" keySplines="0 0 1 1; 0.333 0 0.667 1; 0 0 1 1" fill="freeze" /><g transform="translate(-191.763,-170.375)"><g id="i3" transform="matrix(1,0,0,1,191.759,171.189)"><path fill="#ff4155" d="M160.743,-137.462C141.103,-158.858,113.323,-170.938,84.281,-170.713C62.508,-170.809,41.347,-163.505,24.267,-150.001C15.009,-142.761,6.837,-134.229,0.003,-124.667C-6.83,-134.23,-15.001,-142.761,-24.26,-150.001C-41.339,-163.506,-62.501,-170.81,-84.275,-170.713C-113.318,-170.938,-141.097,-158.858,-160.737,-137.462C-180.712,-115.05,-191.51,-85.935,-190.982,-55.919C-190.101,-21.319,-176.628,11.769,-153.091,37.143C-123.925,69.317,-92.211,99.086,-58.26,126.162C-45.126,137.36,-30.225,150.053,-14.762,163.544C-6.308,170.939,6.313,170.939,14.768,163.544C30.231,149.952,45.133,137.326,58.284,126.162C92.236,99.093,123.949,69.33,153.114,37.161C176.65,11.78,190.117,-21.315,190.988,-55.919C191.509,-85.948,180.69,-115.071,160.692,-137.479C160.692,-137.479,160.743,-137.462,160.743,-137.462Z" /></g></g></g></g></g></g><g visibility="hidden" id="i7"><animate repeatCount="indefinite" begin="0s" calcMode="discrete" dur="1.201s" values="hidden; visible; visible; visible" keyTimes="0; 0.110981; 0.999832; 1" attributeName="visibility" /><g transform="translate(540,500)"><animateTransform repeatCount="indefinite" type="translate" attributeName="transform" dur="1.201s" begin="0s" calcMode="spline" values="540 500; 540 500; 86 588; 86 588" keyTimes="0; 0.111111; 0.777778; 1" keySplines="0 0 1 1; 0.333 0 0.667 1; 0 0 1 1" fill="freeze" /><g transform="rotate(1)"><animateTransform repeatCount="indefinite" type="rotate" attributeName="transform" dur="1.201s" begin="0s" calcMode="spline" values="1; 1; 361; 361" keyTimes="0; 0.111111; 0.777778; 1" keySplines="0 0 1 1; 0.333 0 0.667 1; 0 0 1 1" fill="freeze" /><g transform="scale(0.25,0.25)"><animateTransform repeatCount="indefinite" type="scale" attributeName="transform" dur="1.201s" begin="0s" calcMode="spline" values="0.25 0.25; 0.25 0.25; 0.25 0.25; 0 0; 0 0" keyTimes="0; 0.111111; 0.277778; 0.777778; 1" keySplines="0 0 1 1; 0.333 0 0.667 1; 0.333 0 0.667 1; 0 0 1 1" fill="freeze" /><g transform="translate(-191.763,-170.375)"><g id="i3" transform="matrix(1,0,0,1,191.759,171.189)"><path fill="#ff4155" d="M160.743,-137.462C141.103,-158.858,113.323,-170.938,84.281,-170.713C62.508,-170.809,41.347,-163.505,24.267,-150.001C15.009,-142.761,6.837,-134.229,0.003,-124.667C-6.83,-134.23,-15.001,-142.761,-24.26,-150.001C-41.339,-163.506,-62.501,-170.81,-84.275,-170.713C-113.318,-170.938,-141.097,-158.858,-160.737,-137.462C-180.712,-115.05,-191.51,-85.935,-190.982,-55.919C-190.101,-21.319,-176.628,11.769,-153.091,37.143C-123.925,69.317,-92.211,99.086,-58.26,126.162C-45.126,137.36,-30.225,150.053,-14.762,163.544C-6.308,170.939,6.313,170.939,14.768,163.544C30.231,149.952,45.133,137.326,58.284,126.162C92.236,99.093,123.949,69.33,153.114,37.161C176.65,11.78,190.117,-21.315,190.988,-55.919C191.509,-85.948,180.69,-115.071,160.692,-137.479C160.692,-137.479,160.743,-137.462,160.743,-137.462Z" /></g></g></g></g></g></g><g visibility="hidden" id="i8"><animate repeatCount="indefinite" begin="0s" calcMode="discrete" dur="1.201s" values="hidden; visible; visible; visible" keyTimes="0; 0.110981; 0.999832; 1" attributeName="visibility" /><g transform="translate(540,500)"><animateTransform repeatCount="indefinite" type="translate" attributeName="transform" dur="1.201s" begin="0s" calcMode="spline" values="540 500; 540 500; 10 426; 10 426" keyTimes="0; 0.111111; 0.777778; 1" keySplines="0 0 1 1; 0.333 0 0.667 1; 0 0 1 1" fill="freeze" /><g transform="rotate(1)"><animateTransform repeatCount="indefinite" type="rotate" attributeName="transform" dur="1.201s" begin="0s" calcMode="spline" values="1; 1; 361; 361" keyTimes="0; 0.111111; 0.777778; 1" keySplines="0 0 1 1; 0.333 0 0.667 1; 0 0 1 1" fill="freeze" /><g transform="scale(0.25,0.25)"><animateTransform repeatCount="indefinite" type="scale" attributeName="transform" dur="1.201s" begin="0s" calcMode="spline" values="0.25 0.25; 0.25 0.25; 0 0; 0 0" keyTimes="0; 0.111111; 0.777778; 1" keySplines="0 0 1 1; 0.333 0 0.667 1; 0 0 1 1" fill="freeze" /><g transform="translate(-191.763,-170.375)"><g id="i3" transform="matrix(1,0,0,1,191.759,171.189)"><path fill="#ff4155" d="M160.743,-137.462C141.103,-158.858,113.323,-170.938,84.281,-170.713C62.508,-170.809,41.347,-163.505,24.267,-150.001C15.009,-142.761,6.837,-134.229,0.003,-124.667C-6.83,-134.23,-15.001,-142.761,-24.26,-150.001C-41.339,-163.506,-62.501,-170.81,-84.275,-170.713C-113.318,-170.938,-141.097,-158.858,-160.737,-137.462C-180.712,-115.05,-191.51,-85.935,-190.982,-55.919C-190.101,-21.319,-176.628,11.769,-153.091,37.143C-123.925,69.317,-92.211,99.086,-58.26,126.162C-45.126,137.36,-30.225,150.053,-14.762,163.544C-6.308,170.939,6.313,170.939,14.768,163.544C30.231,149.952,45.133,137.326,58.284,126.162C92.236,99.093,123.949,69.33,153.114,37.161C176.65,11.78,190.117,-21.315,190.988,-55.919C191.509,-85.948,180.69,-115.071,160.692,-137.479C160.692,-137.479,160.743,-137.462,160.743,-137.462Z" /></g></g></g></g></g></g><g visibility="hidden" id="i9"><animate repeatCount="indefinite" begin="0s" calcMode="discrete" dur="1.201s" values="hidden; visible; visible; visible" keyTimes="0; 0.110981; 0.999832; 1" attributeName="visibility" /><g transform="translate(540,500)"><animateTransform repeatCount="indefinite" type="translate" attributeName="transform" dur="1.201s" begin="0s" calcMode="spline" values="540 500; 540 500; 938 448; 938 448" keyTimes="0; 0.111111; 0.777778; 1" keySplines="0 0 1 1; 0.333 0 0.667 1; 0 0 1 1" fill="freeze" /><g transform="rotate(1)"><animateTransform repeatCount="indefinite" type="rotate" attributeName="transform" dur="1.201s" begin="0s" calcMode="spline" values="1; 1; 139; 139" keyTimes="0; 0.111111; 0.777778; 1" keySplines="0 0 1 1; 0.333 0 0.667 1; 0 0 1 1" fill="freeze" /><g transform="scale(0.25,0.25)"><animateTransform repeatCount="indefinite" type="scale" attributeName="transform" dur="1.201s" begin="0s" calcMode="spline" values="0.25 0.25; 0.25 0.25; 0 0; 0 0" keyTimes="0; 0.111111; 0.777778; 1" keySplines="0 0 1 1; 0.333 0 0.667 1; 0 0 1 1" fill="freeze" /><g transform="translate(-191.763,-170.375)"><g id="i3" transform="matrix(1,0,0,1,191.759,171.189)"><path fill="#ff4155" d="M160.743,-137.462C141.103,-158.858,113.323,-170.938,84.281,-170.713C62.508,-170.809,41.347,-163.505,24.267,-150.001C15.009,-142.761,6.837,-134.229,0.003,-124.667C-6.83,-134.23,-15.001,-142.761,-24.26,-150.001C-41.339,-163.506,-62.501,-170.81,-84.275,-170.713C-113.318,-170.938,-141.097,-158.858,-160.737,-137.462C-180.712,-115.05,-191.51,-85.935,-190.982,-55.919C-190.101,-21.319,-176.628,11.769,-153.091,37.143C-123.925,69.317,-92.211,99.086,-58.26,126.162C-45.126,137.36,-30.225,150.053,-14.762,163.544C-6.308,170.939,6.313,170.939,14.768,163.544C30.231,149.952,45.133,137.326,58.284,126.162C92.236,99.093,123.949,69.33,153.114,37.161C176.65,11.78,190.117,-21.315,190.988,-55.919C191.509,-85.948,180.69,-115.071,160.692,-137.479C160.692,-137.479,160.743,-137.462,160.743,-137.462Z" /></g></g></g></g></g></g><g visibility="hidden" id="i10"><animate repeatCount="indefinite" begin="0s" calcMode="discrete" dur="1.201s" values="hidden; visible; visible; visible" keyTimes="0; 0.110981; 0.999832; 1" attributeName="visibility" /><g transform="translate(540,500)"><animateTransform repeatCount="indefinite" type="translate" attributeName="transform" dur="1.201s" begin="0s" calcMode="spline" values="540 500; 540 500; 196 264; 196 264" keyTimes="0; 0.111111; 0.777778; 1" keySplines="0 0 1 1; 0.333 0 0.667 1; 0 0 1 1" fill="freeze" /><g transform="rotate(181)"><animateTransform repeatCount="indefinite" type="rotate" attributeName="transform" dur="1.201s" begin="0s" calcMode="spline" values="181; 181; 541; 541" keyTimes="0; 0.111111; 0.777778; 1" keySplines="0 0 1 1; 0.333 0 0.667 1; 0 0 1 1" fill="freeze" /><g transform="scale(0.25,0.25)"><animateTransform repeatCount="indefinite" type="scale" attributeName="transform" dur="1.201s" begin="0s" calcMode="spline" values="0.25 0.25; 0.25 0.25; 0 0; 0 0" keyTimes="0; 0.111111; 0.777778; 1" keySplines="0 0 1 1; 0.333 0 0.667 1; 0 0 1 1" fill="freeze" /><g transform="translate(-191.763,-170.375)"><g id="i3" transform="matrix(1,0,0,1,191.759,171.189)"><path fill="#ff4155" d="M160.743,-137.462C141.103,-158.858,113.323,-170.938,84.281,-170.713C62.508,-170.809,41.347,-163.505,24.267,-150.001C15.009,-142.761,6.837,-134.229,0.003,-124.667C-6.83,-134.23,-15.001,-142.761,-24.26,-150.001C-41.339,-163.506,-62.501,-170.81,-84.275,-170.713C-113.318,-170.938,-141.097,-158.858,-160.737,-137.462C-180.712,-115.05,-191.51,-85.935,-190.982,-55.919C-190.101,-21.319,-176.628,11.769,-153.091,37.143C-123.925,69.317,-92.211,99.086,-58.26,126.162C-45.126,137.36,-30.225,150.053,-14.762,163.544C-6.308,170.939,6.313,170.939,14.768,163.544C30.231,149.952,45.133,137.326,58.284,126.162C92.236,99.093,123.949,69.33,153.114,37.161C176.65,11.78,190.117,-21.315,190.988,-55.919C191.509,-85.948,180.69,-115.071,160.692,-137.479C160.692,-137.479,160.743,-137.462,160.743,-137.462Z" /></g></g></g></g></g></g><g visibility="hidden" id="i11"><animate repeatCount="indefinite" begin="0s" calcMode="discrete" dur="1.201s" values="hidden; visible; visible; visible" keyTimes="0; 0.110981; 0.999832; 1" attributeName="visibility" /><g transform="translate(540,500)"><animateTransform repeatCount="indefinite" type="translate" attributeName="transform" dur="1.201s" begin="0s" calcMode="spline" values="540 500; 540 500; 614 296; 614 296" keyTimes="0; 0.111111; 0.777778; 1" keySplines="0 0 1 1; 0.333 0 0.667 1; 0 0 1 1" fill="freeze" /><g transform="rotate(181)"><g transform="scale(0.25,0.25)"><animateTransform repeatCount="indefinite" type="scale" attributeName="transform" dur="1.201s" begin="0s" calcMode="spline" values="0.25 0.25; 0.25 0.25; 0 0; 0 0" keyTimes="0; 0.111111; 0.777778; 1" keySplines="0 0 1 1; 0.333 0 0.667 1; 0 0 1 1" fill="freeze" /><g transform="translate(-191.763,-170.375)"><g id="i3" transform="matrix(1,0,0,1,191.759,171.189)"><path fill="#ff4155" d="M160.743,-137.462C141.103,-158.858,113.323,-170.938,84.281,-170.713C62.508,-170.809,41.347,-163.505,24.267,-150.001C15.009,-142.761,6.837,-134.229,0.003,-124.667C-6.83,-134.23,-15.001,-142.761,-24.26,-150.001C-41.339,-163.506,-62.501,-170.81,-84.275,-170.713C-113.318,-170.938,-141.097,-158.858,-160.737,-137.462C-180.712,-115.05,-191.51,-85.935,-190.982,-55.919C-190.101,-21.319,-176.628,11.769,-153.091,37.143C-123.925,69.317,-92.211,99.086,-58.26,126.162C-45.126,137.36,-30.225,150.053,-14.762,163.544C-6.308,170.939,6.313,170.939,14.768,163.544C30.231,149.952,45.133,137.326,58.284,126.162C92.236,99.093,123.949,69.33,153.114,37.161C176.65,11.78,190.117,-21.315,190.988,-55.919C191.509,-85.948,180.69,-115.071,160.692,-137.479C160.692,-137.479,160.743,-137.462,160.743,-137.462Z" /></g></g></g></g></g></g><g visibility="hidden" id="i12"><animate repeatCount="indefinite" begin="0s" calcMode="discrete" dur="1.201s" values="hidden; visible; visible; visible" keyTimes="0; 0.110981; 0.999832; 1" attributeName="visibility" /><g transform="translate(540,500)"><animateTransform repeatCount="indefinite" type="translate" attributeName="transform" dur="1.201s" begin="0s" calcMode="spline" values="540 500; 540 500; 312 102; 312 102" keyTimes="0; 0.111111; 0.777778; 1" keySplines="0 0 1 1; 0.333 0 0.667 1; 0 0 1 1" fill="freeze" /><g transform="rotate(64)"><animateTransform repeatCount="indefinite" type="rotate" attributeName="transform" dur="1.201s" begin="0s" calcMode="spline" values="64; 64; 361; 361" keyTimes="0; 0.111111; 0.777778; 1" keySplines="0 0 1 1; 0.333 0 0.667 1; 0 0 1 1" fill="freeze" /><g transform="scale(0.25,0.25)"><animateTransform repeatCount="indefinite" type="scale" attributeName="transform" dur="1.201s" begin="0s" calcMode="spline" values="0.25 0.25; 0.25 0.25; 0.25 0.25; 0 0; 0 0" keyTimes="0; 0.111111; 0.444445; 0.777778; 1" keySplines="0 0 1 1; 0.333 0 0.667 1; 0.333 0 0.667 1; 0 0 1 1" fill="freeze" /><g transform="translate(-191.763,-170.375)"><g id="i3" transform="matrix(1,0,0,1,191.759,171.189)"><path fill="#ff4155" d="M160.743,-137.462C141.103,-158.858,113.323,-170.938,84.281,-170.713C62.508,-170.809,41.347,-163.505,24.267,-150.001C15.009,-142.761,6.837,-134.229,0.003,-124.667C-6.83,-134.23,-15.001,-142.761,-24.26,-150.001C-41.339,-163.506,-62.501,-170.81,-84.275,-170.713C-113.318,-170.938,-141.097,-158.858,-160.737,-137.462C-180.712,-115.05,-191.51,-85.935,-190.982,-55.919C-190.101,-21.319,-176.628,11.769,-153.091,37.143C-123.925,69.317,-92.211,99.086,-58.26,126.162C-45.126,137.36,-30.225,150.053,-14.762,163.544C-6.308,170.939,6.313,170.939,14.768,163.544C30.231,149.952,45.133,137.326,58.284,126.162C92.236,99.093,123.949,69.33,153.114,37.161C176.65,11.78,190.117,-21.315,190.988,-55.919C191.509,-85.948,180.69,-115.071,160.692,-137.479C160.692,-137.479,160.743,-137.462,160.743,-137.462Z" /></g></g></g></g></g></g><g visibility="hidden" id="i13"><animate repeatCount="indefinite" begin="0s" calcMode="discrete" dur="1.201s" values="hidden; visible; visible; visible" keyTimes="0; 0.110981; 0.999832; 1" attributeName="visibility" /><g transform="translate(540,500)"><animateTransform repeatCount="indefinite" type="translate" attributeName="transform" dur="1.201s" begin="0s" calcMode="spline" values="540 500; 540 500; 794 148; 794 148" keyTimes="0; 0.111111; 0.777778; 1" keySplines="0 0 1 1; 0.333 0 0.667 1; 0 0 1 1" fill="freeze" /><g transform="rotate(1)"><animateTransform repeatCount="indefinite" type="rotate" attributeName="transform" dur="1.201s" begin="0s" calcMode="spline" values="1; 1; 361; 361" keyTimes="0; 0.111111; 0.777778; 1" keySplines="0 0 1 1; 0.333 0 0.667 1; 0 0 1 1" fill="freeze" /><g transform="scale(0.25,0.25)"><animateTransform repeatCount="indefinite" type="scale" attributeName="transform" dur="1.201s" begin="0s" calcMode="spline" values="0.25 0.25; 0.25 0.25; 0 0; 0 0" keyTimes="0; 0.111111; 0.777778; 1" keySplines="0 0 1 1; 0.333 0 0.667 1; 0 0 1 1" fill="freeze" /><g transform="translate(-191.763,-170.375)"><g id="i3" transform="matrix(1,0,0,1,191.759,171.189)"><path fill="#ff4155" d="M160.743,-137.462C141.103,-158.858,113.323,-170.938,84.281,-170.713C62.508,-170.809,41.347,-163.505,24.267,-150.001C15.009,-142.761,6.837,-134.229,0.003,-124.667C-6.83,-134.23,-15.001,-142.761,-24.26,-150.001C-41.339,-163.506,-62.501,-170.81,-84.275,-170.713C-113.318,-170.938,-141.097,-158.858,-160.737,-137.462C-180.712,-115.05,-191.51,-85.935,-190.982,-55.919C-190.101,-21.319,-176.628,11.769,-153.091,37.143C-123.925,69.317,-92.211,99.086,-58.26,126.162C-45.126,137.36,-30.225,150.053,-14.762,163.544C-6.308,170.939,6.313,170.939,14.768,163.544C30.231,149.952,45.133,137.326,58.284,126.162C92.236,99.093,123.949,69.33,153.114,37.161C176.65,11.78,190.117,-21.315,190.988,-55.919C191.509,-85.948,180.69,-115.071,160.692,-137.479C160.692,-137.479,160.743,-137.462,160.743,-137.462Z" /></g></g></g></g></g></g></g></defs><g transform="matrix(1,0,0,1,0,0)" visibility="hidden" id="i14"><animate repeatCount="indefinite" begin="0s" calcMode="discrete" dur="1.201s" values="hidden; visible; hidden; hidden; hidden" keyTimes="0; 0.110981; 0.943842; 0.999832; 1" attributeName="visibility" /><g clip-path="url(#i0)"><g visibility="hidden"><animate repeatCount="indefinite" begin="0s" calcMode="discrete" dur="1.201s" values="hidden; visible; visible; visible" keyTimes="0; 0.110981; 0.999832; 1" attributeName="visibility" /><g transform="translate(540,500)"><animateTransform repeatCount="indefinite" type="translate" attributeName="transform" dur="1.201s" begin="0s" calcMode="spline" values="540 500; 540 500; 772 622; 772 622" keyTimes="0; 0.111111; 0.777778; 1" keySplines="0 0 1 1; 0.333 0 0.667 1; 0 0 1 1" fill="freeze" /><g transform="rotate(1)"><animateTransform repeatCount="indefinite" type="rotate" attributeName="transform" dur="1.201s" begin="0s" calcMode="spline" values="1; 1; 199; 199" keyTimes="0; 0.111111; 0.777778; 1" keySplines="0 0 1 1; 0.333 0 0.667 1; 0 0 1 1" fill="freeze" /><g transform="scale(0.25,0.25)"><animateTransform repeatCount="indefinite" type="scale" attributeName="transform" dur="1.201s" begin="0s" calcMode="spline" values="0.25 0.25; 0.25 0.25; 0 0; 0 0" keyTimes="0; 0.111111; 0.777778; 1" keySplines="0 0 1 1; 0.333 0 0.667 1; 0 0 1 1" fill="freeze" /><g transform="translate(-191.763,-170.375)"><g transform="matrix(1,0,0,1,191.759,171.189)"><path fill="#ff4155" d="M160.743,-137.462C141.103,-158.858,113.323,-170.938,84.281,-170.713C62.508,-170.809,41.347,-163.505,24.267,-150.001C15.009,-142.761,6.837,-134.229,0.003,-124.667C-6.83,-134.23,-15.001,-142.761,-24.26,-150.001C-41.339,-163.506,-62.501,-170.81,-84.275,-170.713C-113.318,-170.938,-141.097,-158.858,-160.737,-137.462C-180.712,-115.05,-191.51,-85.935,-190.982,-55.919C-190.101,-21.319,-176.628,11.769,-153.091,37.143C-123.925,69.317,-92.211,99.086,-58.26,126.162C-45.126,137.36,-30.225,150.053,-14.762,163.544C-6.308,170.939,6.313,170.939,14.768,163.544C30.231,149.952,45.133,137.326,58.284,126.162C92.236,99.093,123.949,69.33,153.114,37.161C176.65,11.78,190.117,-21.315,190.988,-55.919C191.509,-85.948,180.69,-115.071,160.692,-137.479C160.692,-137.479,160.743,-137.462,160.743,-137.462Z" /></g></g></g></g></g></g><g visibility="hidden"><animate repeatCount="indefinite" begin="0s" calcMode="discrete" dur="1.201s" values="hidden; visible; visible; visible" keyTimes="0; 0.110981; 0.999832; 1" attributeName="visibility" /><g transform="translate(540,500)"><animateTransform repeatCount="indefinite" type="translate" attributeName="transform" dur="1.201s" begin="0s" calcMode="spline" values="540 500; 540 500; 788 630; 788 630" keyTimes="0; 0.111111; 0.777778; 1" keySplines="0 0 1 1; 0.333 0 0.667 1; 0 0 1 1" fill="freeze" /><g transform="rotate(1)"><animateTransform repeatCount="indefinite" type="rotate" attributeName="transform" dur="1.201s" begin="0s" calcMode="spline" values="1; 1; 361; 361" keyTimes="0; 0.111111; 0.777778; 1" keySplines="0 0 1 1; 0.333 0 0.667 1; 0 0 1 1" fill="freeze" /><g transform="scale(0.25,0.25)"><animateTransform repeatCount="indefinite" type="scale" attributeName="transform" dur="1.201s" begin="0s" calcMode="spline" values="0.25 0.25; 0.25 0.25; 0 0; 0 0" keyTimes="0; 0.111111; 0.777778; 1" keySplines="0 0 1 1; 0.333 0 0.667 1; 0 0 1 1" fill="freeze" /><g transform="translate(-191.763,-170.375)"><g transform="matrix(1,0,0,1,191.759,171.189)"><path fill="#ff4155" d="M160.743,-137.462C141.103,-158.858,113.323,-170.938,84.281,-170.713C62.508,-170.809,41.347,-163.505,24.267,-150.001C15.009,-142.761,6.837,-134.229,0.003,-124.667C-6.83,-134.23,-15.001,-142.761,-24.26,-150.001C-41.339,-163.506,-62.501,-170.81,-84.275,-170.713C-113.318,-170.938,-141.097,-158.858,-160.737,-137.462C-180.712,-115.05,-191.51,-85.935,-190.982,-55.919C-190.101,-21.319,-176.628,11.769,-153.091,37.143C-123.925,69.317,-92.211,99.086,-58.26,126.162C-45.126,137.36,-30.225,150.053,-14.762,163.544C-6.308,170.939,6.313,170.939,14.768,163.544C30.231,149.952,45.133,137.326,58.284,126.162C92.236,99.093,123.949,69.33,153.114,37.161C176.65,11.78,190.117,-21.315,190.988,-55.919C191.509,-85.948,180.69,-115.071,160.692,-137.479C160.692,-137.479,160.743,-137.462,160.743,-137.462Z" /></g></g></g></g></g></g><g visibility="hidden"><animate repeatCount="indefinite" begin="0s" calcMode="discrete" dur="1.201s" values="hidden; visible; visible; visible" keyTimes="0; 0.110981; 0.999832; 1" attributeName="visibility" /><g transform="translate(540,500)"><animateTransform repeatCount="indefinite" type="translate" attributeName="transform" dur="1.201s" begin="0s" calcMode="spline" values="540 500; 540 500; 540 818; 540 818" keyTimes="0; 0.111111; 0.777778; 1" keySplines="0 0 1 1; 0.333 0 0.667 1; 0 0 1 1" fill="freeze" /><g transform="rotate(1)"><animateTransform repeatCount="indefinite" type="rotate" attributeName="transform" dur="1.201s" begin="0s" calcMode="spline" values="1; 1; 433; 433" keyTimes="0; 0.111111; 0.777778; 1" keySplines="0 0 1 1; 0.333 0 0.667 1; 0 0 1 1" fill="freeze" /><g transform="scale(0.25,0.25)"><animateTransform repeatCount="indefinite" type="scale" attributeName="transform" dur="1.201s" begin="0s" calcMode="spline" values="0.25 0.25; 0.25 0.25; 0.25 0.25; 0 0; 0 0" keyTimes="0; 0.111111; 0.388889; 0.777778; 1" keySplines="0 0 1 1; 0.333 0 0.667 1; 0.333 0 0.667 1; 0 0 1 1" fill="freeze" /><g transform="translate(-191.763,-170.375)"><g transform="matrix(1,0,0,1,191.759,171.189)"><path fill="#ff4155" d="M160.743,-137.462C141.103,-158.858,113.323,-170.938,84.281,-170.713C62.508,-170.809,41.347,-163.505,24.267,-150.001C15.009,-142.761,6.837,-134.229,0.003,-124.667C-6.83,-134.23,-15.001,-142.761,-24.26,-150.001C-41.339,-163.506,-62.501,-170.81,-84.275,-170.713C-113.318,-170.938,-141.097,-158.858,-160.737,-137.462C-180.712,-115.05,-191.51,-85.935,-190.982,-55.919C-190.101,-21.319,-176.628,11.769,-153.091,37.143C-123.925,69.317,-92.211,99.086,-58.26,126.162C-45.126,137.36,-30.225,150.053,-14.762,163.544C-6.308,170.939,6.313,170.939,14.768,163.544C30.231,149.952,45.133,137.326,58.284,126.162C92.236,99.093,123.949,69.33,153.114,37.161C176.65,11.78,190.117,-21.315,190.988,-55.919C191.509,-85.948,180.69,-115.071,160.692,-137.479C160.692,-137.479,160.743,-137.462,160.743,-137.462Z" /></g></g></g></g></g></g><g visibility="hidden"><animate repeatCount="indefinite" begin="0s" calcMode="discrete" dur="1.201s" values="hidden; visible; visible; visible" keyTimes="0; 0.110981; 0.999832; 1" attributeName="visibility" /><g transform="translate(540,500)"><animateTransform repeatCount="indefinite" type="translate" attributeName="transform" dur="1.201s" begin="0s" calcMode="spline" values="540 500; 540 500; 540 610; 540 610" keyTimes="0; 0.111111; 0.777778; 1" keySplines="0 0 1 1; 0.333 0 0.667 1; 0 0 1 1" fill="freeze" /><g transform="rotate(292)"><animateTransform repeatCount="indefinite" type="rotate" attributeName="transform" dur="1.201s" begin="0s" calcMode="spline" values="292; 292; 385; 385" keyTimes="0; 0.111111; 0.777778; 1" keySplines="0 0 1 1; 0.333 0 0.667 1; 0 0 1 1" fill="freeze" /><g transform="scale(0.25,0.25)"><animateTransform repeatCount="indefinite" type="scale" attributeName="transform" dur="1.201s" begin="0s" calcMode="spline" values="0.25 0.25; 0.25 0.25; 0 0; 0 0" keyTimes="0; 0.111111; 0.777778; 1" keySplines="0 0 1 1; 0.333 0 0.667 1; 0 0 1 1" fill="freeze" /><g transform="translate(-191.763,-170.375)"><g transform="matrix(1,0,0,1,191.759,171.189)"><path fill="#ff4155" d="M160.743,-137.462C141.103,-158.858,113.323,-170.938,84.281,-170.713C62.508,-170.809,41.347,-163.505,24.267,-150.001C15.009,-142.761,6.837,-134.229,0.003,-124.667C-6.83,-134.23,-15.001,-142.761,-24.26,-150.001C-41.339,-163.506,-62.501,-170.81,-84.275,-170.713C-113.318,-170.938,-141.097,-158.858,-160.737,-137.462C-180.712,-115.05,-191.51,-85.935,-190.982,-55.919C-190.101,-21.319,-176.628,11.769,-153.091,37.143C-123.925,69.317,-92.211,99.086,-58.26,126.162C-45.126,137.36,-30.225,150.053,-14.762,163.544C-6.308,170.939,6.313,170.939,14.768,163.544C30.231,149.952,45.133,137.326,58.284,126.162C92.236,99.093,123.949,69.33,153.114,37.161C176.65,11.78,190.117,-21.315,190.988,-55.919C191.509,-85.948,180.69,-115.071,160.692,-137.479C160.692,-137.479,160.743,-137.462,160.743,-137.462Z" /></g></g></g></g></g></g><g visibility="hidden"><animate repeatCount="indefinite" begin="0s" calcMode="discrete" dur="1.201s" values="hidden; visible; visible; visible" keyTimes="0; 0.110981; 0.999832; 1" attributeName="visibility" /><g transform="translate(540,500)"><animateTransform repeatCount="indefinite" type="translate" attributeName="transform" dur="1.201s" begin="0s" calcMode="spline" values="540 500; 540 500; 86 588; 86 588" keyTimes="0; 0.111111; 0.777778; 1" keySplines="0 0 1 1; 0.333 0 0.667 1; 0 0 1 1" fill="freeze" /><g transform="rotate(1)"><animateTransform repeatCount="indefinite" type="rotate" attributeName="transform" dur="1.201s" begin="0s" calcMode="spline" values="1; 1; 361; 361" keyTimes="0; 0.111111; 0.777778; 1" keySplines="0 0 1 1; 0.333 0 0.667 1; 0 0 1 1" fill="freeze" /><g transform="scale(0.25,0.25)"><animateTransform repeatCount="indefinite" type="scale" attributeName="transform" dur="1.201s" begin="0s" calcMode="spline" values="0.25 0.25; 0.25 0.25; 0.25 0.25; 0 0; 0 0" keyTimes="0; 0.111111; 0.277778; 0.777778; 1" keySplines="0 0 1 1; 0.333 0 0.667 1; 0.333 0 0.667 1; 0 0 1 1" fill="freeze" /><g transform="translate(-191.763,-170.375)"><g transform="matrix(1,0,0,1,191.759,171.189)"><path fill="#ff4155" d="M160.743,-137.462C141.103,-158.858,113.323,-170.938,84.281,-170.713C62.508,-170.809,41.347,-163.505,24.267,-150.001C15.009,-142.761,6.837,-134.229,0.003,-124.667C-6.83,-134.23,-15.001,-142.761,-24.26,-150.001C-41.339,-163.506,-62.501,-170.81,-84.275,-170.713C-113.318,-170.938,-141.097,-158.858,-160.737,-137.462C-180.712,-115.05,-191.51,-85.935,-190.982,-55.919C-190.101,-21.319,-176.628,11.769,-153.091,37.143C-123.925,69.317,-92.211,99.086,-58.26,126.162C-45.126,137.36,-30.225,150.053,-14.762,163.544C-6.308,170.939,6.313,170.939,14.768,163.544C30.231,149.952,45.133,137.326,58.284,126.162C92.236,99.093,123.949,69.33,153.114,37.161C176.65,11.78,190.117,-21.315,190.988,-55.919C191.509,-85.948,180.69,-115.071,160.692,-137.479C160.692,-137.479,160.743,-137.462,160.743,-137.462Z" /></g></g></g></g></g></g><g visibility="hidden"><animate repeatCount="indefinite" begin="0s" calcMode="discrete" dur="1.201s" values="hidden; visible; visible; visible" keyTimes="0; 0.110981; 0.999832; 1" attributeName="visibility" /><g transform="translate(540,500)"><animateTransform repeatCount="indefinite" type="translate" attributeName="transform" dur="1.201s" begin="0s" calcMode="spline" values="540 500; 540 500; 10 426; 10 426" keyTimes="0; 0.111111; 0.777778; 1" keySplines="0 0 1 1; 0.333 0 0.667 1; 0 0 1 1" fill="freeze" /><g transform="rotate(1)"><animateTransform repeatCount="indefinite" type="rotate" attributeName="transform" dur="1.201s" begin="0s" calcMode="spline" values="1; 1; 361; 361" keyTimes="0; 0.111111; 0.777778; 1" keySplines="0 0 1 1; 0.333 0 0.667 1; 0 0 1 1" fill="freeze" /><g transform="scale(0.25,0.25)"><animateTransform repeatCount="indefinite" type="scale" attributeName="transform" dur="1.201s" begin="0s" calcMode="spline" values="0.25 0.25; 0.25 0.25; 0 0; 0 0" keyTimes="0; 0.111111; 0.777778; 1" keySplines="0 0 1 1; 0.333 0 0.667 1; 0 0 1 1" fill="freeze" /><g transform="translate(-191.763,-170.375)"><g transform="matrix(1,0,0,1,191.759,171.189)"><path fill="#ff4155" d="M160.743,-137.462C141.103,-158.858,113.323,-170.938,84.281,-170.713C62.508,-170.809,41.347,-163.505,24.267,-150.001C15.009,-142.761,6.837,-134.229,0.003,-124.667C-6.83,-134.23,-15.001,-142.761,-24.26,-150.001C-41.339,-163.506,-62.501,-170.81,-84.275,-170.713C-113.318,-170.938,-141.097,-158.858,-160.737,-137.462C-180.712,-115.05,-191.51,-85.935,-190.982,-55.919C-190.101,-21.319,-176.628,11.769,-153.091,37.143C-123.925,69.317,-92.211,99.086,-58.26,126.162C-45.126,137.36,-30.225,150.053,-14.762,163.544C-6.308,170.939,6.313,170.939,14.768,163.544C30.231,149.952,45.133,137.326,58.284,126.162C92.236,99.093,123.949,69.33,153.114,37.161C176.65,11.78,190.117,-21.315,190.988,-55.919C191.509,-85.948,180.69,-115.071,160.692,-137.479C160.692,-137.479,160.743,-137.462,160.743,-137.462Z" /></g></g></g></g></g></g><g visibility="hidden"><animate repeatCount="indefinite" begin="0s" calcMode="discrete" dur="1.201s" values="hidden; visible; visible; visible" keyTimes="0; 0.110981; 0.999832; 1" attributeName="visibility" /><g transform="translate(540,500)"><animateTransform repeatCount="indefinite" type="translate" attributeName="transform" dur="1.201s" begin="0s" calcMode="spline" values="540 500; 540 500; 938 448; 938 448" keyTimes="0; 0.111111; 0.777778; 1" keySplines="0 0 1 1; 0.333 0 0.667 1; 0 0 1 1" fill="freeze" /><g transform="rotate(1)"><animateTransform repeatCount="indefinite" type="rotate" attributeName="transform" dur="1.201s" begin="0s" calcMode="spline" values="1; 1; 139; 139" keyTimes="0; 0.111111; 0.777778; 1" keySplines="0 0 1 1; 0.333 0 0.667 1; 0 0 1 1" fill="freeze" /><g transform="scale(0.25,0.25)"><animateTransform repeatCount="indefinite" type="scale" attributeName="transform" dur="1.201s" begin="0s" calcMode="spline" values="0.25 0.25; 0.25 0.25; 0 0; 0 0" keyTimes="0; 0.111111; 0.777778; 1" keySplines="0 0 1 1; 0.333 0 0.667 1; 0 0 1 1" fill="freeze" /><g transform="translate(-191.763,-170.375)"><g transform="matrix(1,0,0,1,191.759,171.189)"><path fill="#ff4155" d="M160.743,-137.462C141.103,-158.858,113.323,-170.938,84.281,-170.713C62.508,-170.809,41.347,-163.505,24.267,-150.001C15.009,-142.761,6.837,-134.229,0.003,-124.667C-6.83,-134.23,-15.001,-142.761,-24.26,-150.001C-41.339,-163.506,-62.501,-170.81,-84.275,-170.713C-113.318,-170.938,-141.097,-158.858,-160.737,-137.462C-180.712,-115.05,-191.51,-85.935,-190.982,-55.919C-190.101,-21.319,-176.628,11.769,-153.091,37.143C-123.925,69.317,-92.211,99.086,-58.26,126.162C-45.126,137.36,-30.225,150.053,-14.762,163.544C-6.308,170.939,6.313,170.939,14.768,163.544C30.231,149.952,45.133,137.326,58.284,126.162C92.236,99.093,123.949,69.33,153.114,37.161C176.65,11.78,190.117,-21.315,190.988,-55.919C191.509,-85.948,180.69,-115.071,160.692,-137.479C160.692,-137.479,160.743,-137.462,160.743,-137.462Z" /></g></g></g></g></g></g><g visibility="hidden"><animate repeatCount="indefinite" begin="0s" calcMode="discrete" dur="1.201s" values="hidden; visible; visible; visible" keyTimes="0; 0.110981; 0.999832; 1" attributeName="visibility" /><g transform="translate(540,500)"><animateTransform repeatCount="indefinite" type="translate" attributeName="transform" dur="1.201s" begin="0s" calcMode="spline" values="540 500; 540 500; 196 264; 196 264" keyTimes="0; 0.111111; 0.777778; 1" keySplines="0 0 1 1; 0.333 0 0.667 1; 0 0 1 1" fill="freeze" /><g transform="rotate(181)"><animateTransform repeatCount="indefinite" type="rotate" attributeName="transform" dur="1.201s" begin="0s" calcMode="spline" values="181; 181; 541; 541" keyTimes="0; 0.111111; 0.777778; 1" keySplines="0 0 1 1; 0.333 0 0.667 1; 0 0 1 1" fill="freeze" /><g transform="scale(0.25,0.25)"><animateTransform repeatCount="indefinite" type="scale" attributeName="transform" dur="1.201s" begin="0s" calcMode="spline" values="0.25 0.25; 0.25 0.25; 0 0; 0 0" keyTimes="0; 0.111111; 0.777778; 1" keySplines="0 0 1 1; 0.333 0 0.667 1; 0 0 1 1" fill="freeze" /><g transform="translate(-191.763,-170.375)"><g transform="matrix(1,0,0,1,191.759,171.189)"><path fill="#ff4155" d="M160.743,-137.462C141.103,-158.858,113.323,-170.938,84.281,-170.713C62.508,-170.809,41.347,-163.505,24.267,-150.001C15.009,-142.761,6.837,-134.229,0.003,-124.667C-6.83,-134.23,-15.001,-142.761,-24.26,-150.001C-41.339,-163.506,-62.501,-170.81,-84.275,-170.713C-113.318,-170.938,-141.097,-158.858,-160.737,-137.462C-180.712,-115.05,-191.51,-85.935,-190.982,-55.919C-190.101,-21.319,-176.628,11.769,-153.091,37.143C-123.925,69.317,-92.211,99.086,-58.26,126.162C-45.126,137.36,-30.225,150.053,-14.762,163.544C-6.308,170.939,6.313,170.939,14.768,163.544C30.231,149.952,45.133,137.326,58.284,126.162C92.236,99.093,123.949,69.33,153.114,37.161C176.65,11.78,190.117,-21.315,190.988,-55.919C191.509,-85.948,180.69,-115.071,160.692,-137.479C160.692,-137.479,160.743,-137.462,160.743,-137.462Z" /></g></g></g></g></g></g><g visibility="hidden"><animate repeatCount="indefinite" begin="0s" calcMode="discrete" dur="1.201s" values="hidden; visible; visible; visible" keyTimes="0; 0.110981; 0.999832; 1" attributeName="visibility" /><g transform="translate(540,500)"><animateTransform repeatCount="indefinite" type="translate" attributeName="transform" dur="1.201s" begin="0s" calcMode="spline" values="540 500; 540 500; 614 296; 614 296" keyTimes="0; 0.111111; 0.777778; 1" keySplines="0 0 1 1; 0.333 0 0.667 1; 0 0 1 1" fill="freeze" /><g transform="rotate(181)"><g transform="scale(0.25,0.25)"><animateTransform repeatCount="indefinite" type="scale" attributeName="transform" dur="1.201s" begin="0s" calcMode="spline" values="0.25 0.25; 0.25 0.25; 0 0; 0 0" keyTimes="0; 0.111111; 0.777778; 1" keySplines="0 0 1 1; 0.333 0 0.667 1; 0 0 1 1" fill="freeze" /><g transform="translate(-191.763,-170.375)"><g transform="matrix(1,0,0,1,191.759,171.189)"><path fill="#ff4155" d="M160.743,-137.462C141.103,-158.858,113.323,-170.938,84.281,-170.713C62.508,-170.809,41.347,-163.505,24.267,-150.001C15.009,-142.761,6.837,-134.229,0.003,-124.667C-6.83,-134.23,-15.001,-142.761,-24.26,-150.001C-41.339,-163.506,-62.501,-170.81,-84.275,-170.713C-113.318,-170.938,-141.097,-158.858,-160.737,-137.462C-180.712,-115.05,-191.51,-85.935,-190.982,-55.919C-190.101,-21.319,-176.628,11.769,-153.091,37.143C-123.925,69.317,-92.211,99.086,-58.26,126.162C-45.126,137.36,-30.225,150.053,-14.762,163.544C-6.308,170.939,6.313,170.939,14.768,163.544C30.231,149.952,45.133,137.326,58.284,126.162C92.236,99.093,123.949,69.33,153.114,37.161C176.65,11.78,190.117,-21.315,190.988,-55.919C191.509,-85.948,180.69,-115.071,160.692,-137.479C160.692,-137.479,160.743,-137.462,160.743,-137.462Z" /></g></g></g></g></g></g><g visibility="hidden"><animate repeatCount="indefinite" begin="0s" calcMode="discrete" dur="1.201s" values="hidden; visible; visible; visible" keyTimes="0; 0.110981; 0.999832; 1" attributeName="visibility" /><g transform="translate(540,500)"><animateTransform repeatCount="indefinite" type="translate" attributeName="transform" dur="1.201s" begin="0s" calcMode="spline" values="540 500; 540 500; 312 102; 312 102" keyTimes="0; 0.111111; 0.777778; 1" keySplines="0 0 1 1; 0.333 0 0.667 1; 0 0 1 1" fill="freeze" /><g transform="rotate(64)"><animateTransform repeatCount="indefinite" type="rotate" attributeName="transform" dur="1.201s" begin="0s" calcMode="spline" values="64; 64; 361; 361" keyTimes="0; 0.111111; 0.777778; 1" keySplines="0 0 1 1; 0.333 0 0.667 1; 0 0 1 1" fill="freeze" /><g transform="scale(0.25,0.25)"><animateTransform repeatCount="indefinite" type="scale" attributeName="transform" dur="1.201s" begin="0s" calcMode="spline" values="0.25 0.25; 0.25 0.25; 0.25 0.25; 0 0; 0 0" keyTimes="0; 0.111111; 0.444445; 0.777778; 1" keySplines="0 0 1 1; 0.333 0 0.667 1; 0.333 0 0.667 1; 0 0 1 1" fill="freeze" /><g transform="translate(-191.763,-170.375)"><g transform="matrix(1,0,0,1,191.759,171.189)"><path fill="#ff4155" d="M160.743,-137.462C141.103,-158.858,113.323,-170.938,84.281,-170.713C62.508,-170.809,41.347,-163.505,24.267,-150.001C15.009,-142.761,6.837,-134.229,0.003,-124.667C-6.83,-134.23,-15.001,-142.761,-24.26,-150.001C-41.339,-163.506,-62.501,-170.81,-84.275,-170.713C-113.318,-170.938,-141.097,-158.858,-160.737,-137.462C-180.712,-115.05,-191.51,-85.935,-190.982,-55.919C-190.101,-21.319,-176.628,11.769,-153.091,37.143C-123.925,69.317,-92.211,99.086,-58.26,126.162C-45.126,137.36,-30.225,150.053,-14.762,163.544C-6.308,170.939,6.313,170.939,14.768,163.544C30.231,149.952,45.133,137.326,58.284,126.162C92.236,99.093,123.949,69.33,153.114,37.161C176.65,11.78,190.117,-21.315,190.988,-55.919C191.509,-85.948,180.69,-115.071,160.692,-137.479C160.692,-137.479,160.743,-137.462,160.743,-137.462Z" /></g></g></g></g></g></g><g visibility="hidden"><animate repeatCount="indefinite" begin="0s" calcMode="discrete" dur="1.201s" values="hidden; visible; visible; visible" keyTimes="0; 0.110981; 0.999832; 1" attributeName="visibility" /><g transform="translate(540,500)"><animateTransform repeatCount="indefinite" type="translate" attributeName="transform" dur="1.201s" begin="0s" calcMode="spline" values="540 500; 540 500; 794 148; 794 148" keyTimes="0; 0.111111; 0.777778; 1" keySplines="0 0 1 1; 0.333 0 0.667 1; 0 0 1 1" fill="freeze" /><g transform="rotate(1)"><animateTransform repeatCount="indefinite" type="rotate" attributeName="transform" dur="1.201s" begin="0s" calcMode="spline" values="1; 1; 361; 361" keyTimes="0; 0.111111; 0.777778; 1" keySplines="0 0 1 1; 0.333 0 0.667 1; 0 0 1 1" fill="freeze" /><g transform="scale(0.25,0.25)"><animateTransform repeatCount="indefinite" type="scale" attributeName="transform" dur="1.201s" begin="0s" calcMode="spline" values="0.25 0.25; 0.25 0.25; 0 0; 0 0" keyTimes="0; 0.111111; 0.777778; 1" keySplines="0 0 1 1; 0.333 0 0.667 1; 0 0 1 1" fill="freeze" /><g transform="translate(-191.763,-170.375)"><g transform="matrix(1,0,0,1,191.759,171.189)"><path fill="#ff4155" d="M160.743,-137.462C141.103,-158.858,113.323,-170.938,84.281,-170.713C62.508,-170.809,41.347,-163.505,24.267,-150.001C15.009,-142.761,6.837,-134.229,0.003,-124.667C-6.83,-134.23,-15.001,-142.761,-24.26,-150.001C-41.339,-163.506,-62.501,-170.81,-84.275,-170.713C-113.318,-170.938,-141.097,-158.858,-160.737,-137.462C-180.712,-115.05,-191.51,-85.935,-190.982,-55.919C-190.101,-21.319,-176.628,11.769,-153.091,37.143C-123.925,69.317,-92.211,99.086,-58.26,126.162C-45.126,137.36,-30.225,150.053,-14.762,163.544C-6.308,170.939,6.313,170.939,14.768,163.544C30.231,149.952,45.133,137.326,58.284,126.162C92.236,99.093,123.949,69.33,153.114,37.161C176.65,11.78,190.117,-21.315,190.988,-55.919C191.509,-85.948,180.69,-115.071,160.692,-137.479C160.692,-137.479,160.743,-137.462,160.743,-137.462Z" /></g></g></g></g></g></g></g></g><g id="i2"><g transform="translate(540,500) rotate(1)"><g transform="scale(0,0)"><animateTransform repeatCount="indefinite" type="scale" attributeName="transform" dur="1.201s" begin="0s" calcMode="spline" values="0 0; 0.115 0.115; 0.23 0.23; 0.345 0.345; 0.46 0.46; 0.575 0.575; 0.69 0.69; 0.821 0.821; 0.914 0.914; 0.958 0.958; 0.952 0.952; 0.904 0.904; 0.825 0.825; 0.734 0.734; 0.647 0.647; 0.578 0.578; 0.536 0.536; 0.525 0.525; 0.543 0.543; 0.583 0.583; 0.636 0.636; 0.691 0.691; 0.739 0.739; 0.773 0.773; 0.789 0.789; 0.786 0.786; 0.768 0.768; 0.739 0.739; 0.706 0.706; 0.674 0.674; 0.649 0.649; 0.633 0.633; 0.629 0.629; 0.636 0.636; 0.651 0.651; 0.67 0.67; 0.67 0.67" keyTimes="0; 0.027777; 0.055556; 0.083333; 0.111111; 0.138889; 0.166667; 0.194445; 0.222222; 0.25; 0.277778; 0.305556; 0.333333; 0.361112; 0.388889; 0.416666; 0.444445; 0.472222; 0.5; 0.527778; 0.555556; 0.583334; 0.611111; 0.638889; 0.666667; 0.694445; 0.722222; 0.750001; 0.777778; 0.805555; 0.833334; 0.861111; 0.88889; 0.916667; 0.944445; 0.972223; 1" keySplines="0.167 0.167 0.833 0.833; 0.167 0.167 0.833 0.833; 0.167 0.167 0.833 0.833; 0.167 0.167 0.833 0.833; 0.167 0.167 0.833 0.833; 0.167 0.167 0.833 0.822; 0.167 0.156 0.833 0.858; 0.167 0.201 0.833 0.877; 0.167 0.259 0.833 0.928; 0.167 0 0.833 0.239; 0.167 0.094 0.833 0.783; 0.167 0.135 0.833 0.82; 0.167 0.155 0.833 0.837; 0.167 0.171 0.833 0.851; 0.167 0.188 0.833 0.866; 0.167 0.221 0.833 0.895; 0.167 0.398 0.833 1; 0.167 0.031 0.833 0.729; 0.167 0.12 0.833 0.807; 0.167 0.146 0.833 0.829; 0.167 0.163 0.833 0.844; 0.167 0.179 0.833 0.858; 0.167 0.201 0.833 0.878; 0.167 0.261 0.833 0.93; 0.167 0 0.833 0.304; 0.167 0.095 0.833 0.784; 0.167 0.136 0.833 0.82; 0.167 0.155 0.833 0.837; 0.167 0.171 0.833 0.851; 0.167 0.189 0.833 0.866; 0.167 0.222 0.833 0.895; 0.167 0.408 0.833 1; 0.167 0.034 0.833 0.731; 0.167 0.121 0.833 0.807; 0.167 0.147 0.833 0.833; 0 0 1 1" fill="freeze" /><g transform="translate(-191.763,-170.375)"><g id="i3" transform="matrix(1,0,0,1,191.759,171.189)"><path fill="#ff4155" d="M160.743,-137.462C141.103,-158.858,113.323,-170.938,84.281,-170.713C62.508,-170.809,41.347,-163.505,24.267,-150.001C15.009,-142.761,6.837,-134.229,0.003,-124.667C-6.83,-134.23,-15.001,-142.761,-24.26,-150.001C-41.339,-163.506,-62.501,-170.81,-84.275,-170.713C-113.318,-170.938,-141.097,-158.858,-160.737,-137.462C-180.712,-115.05,-191.51,-85.935,-190.982,-55.919C-190.101,-21.319,-176.628,11.769,-153.091,37.143C-123.925,69.317,-92.211,99.086,-58.26,126.162C-45.126,137.36,-30.225,150.053,-14.762,163.544C-6.308,170.939,6.313,170.939,14.768,163.544C30.231,149.952,45.133,137.326,58.284,126.162C92.236,99.093,123.949,69.33,153.114,37.161C176.65,11.78,190.117,-21.315,190.988,-55.919C191.509,-85.948,180.69,-115.071,160.692,-137.479C160.692,-137.479,160.743,-137.462,160.743,-137.462Z" /></g></g></g></g></g></svg>