<svg fill="none" height="100%" width="100%" viewBox="0 0 500 500" xmlns:xlink="http://www.w3.org/1999/xlink" xmlns="http://www.w3.org/2000/svg"><defs><clipPath id="i0"><rect height="800" width="800" y="0" x="0" /></clipPath><g id="i1"><g transform="matrix(1,0,0,1,309.5,276.5)" id="i2"><g id="i3" transform="matrix(1,0,0,1,90.5,135)"><path fill="#16171b" d="M64,132.5C64,132.5,-64,132.5,-64,132.5C-77.255,132.5,-88,121.755,-88,108.5C-88,108.5,-88,-108.5,-88,-108.5C-88,-121.755,-77.255,-132.5,-64,-132.5C-64,-132.5,64,-132.5,64,-132.5C77.255,-132.5,88,-121.755,88,-108.5C88,-108.5,88,108.5,88,108.5C88,121.755,77.255,132.5,64,132.5Z"><animate repeatCount="indefinite" attributeName="fill" dur="1.667s" begin="0s" fill="freeze" values="#16171b; #16171b; #9fa8b7; #9fa8b7" keyTimes="0; 0.17; 0.6; 1" keySplines="0 0 1 1; 0.333 0 0.667 1; 0 0 1 1" calcMode="spline" /></path></g></g><g transform="matrix(1,0,0,1,345.25,476.75)" id="i4"><g id="i3" transform="matrix(1,0,0,1,54.75,17.25)"><path fill="#ffffff" d="M46.5,17C46.5,17,-46.5,17,-46.5,17C-50.918,17,-54.5,13.418,-54.5,9C-54.5,9,-54.5,-9,-54.5,-9C-54.5,-13.418,-50.918,-17,-46.5,-17C-46.5,-17,46.5,-17,46.5,-17C50.918,-17,54.5,-13.418,54.5,-9C54.5,-9,54.5,9,54.5,9C54.5,13.418,50.918,17,46.5,17Z"><animate repeatCount="indefinite" attributeName="fill" dur="1.667s" begin="0s" fill="freeze" values="#ffffff; #ffffff; #ced5dd; #ced5dd" keyTimes="0; 0.17; 0.6; 1" keySplines="0 0 1 1; 0.625 0 0.411 1; 0 0 1 1" calcMode="spline" /></path></g></g><g transform="matrix(1,0,0,1,344.75,437.692)" id="i5"><g id="i6" transform="matrix(1,0,0,1,8.436,8.036)"><path fill="#ffffff" d="M0,-7.786C0,-7.786,1.932,-1.837,1.932,-1.837C1.932,-1.837,8.186,-1.837,8.186,-1.837C8.186,-1.837,3.126,1.839,3.126,1.839C3.126,1.839,5.06,7.786,5.06,7.786C5.06,7.786,0,4.111,0,4.111C0,4.111,-5.06,7.786,-5.06,7.786C-5.06,7.786,-3.126,1.839,-3.126,1.839C-3.126,1.839,-8.186,-1.837,-8.186,-1.837C-8.186,-1.837,-1.932,-1.837,-1.932,-1.837C-1.932,-1.837,0,-7.786,0,-7.786Z"><animate repeatCount="indefinite" attributeName="fill" dur="1.667s" begin="0s" fill="freeze" values="#ffffff; #ffffff; #ced5dd; #ced5dd" keyTimes="0; 0.17; 0.6; 1" keySplines="0 0 1 1; 0.625 0 0.411 1; 0 0 1 1" calcMode="spline" /></path></g><g id="i7" transform="matrix(1,0,0,1,31.843,8.036)"><path fill="#ffffff" d="M0.001,-7.786C0.001,-7.786,1.932,-1.837,1.932,-1.837C1.932,-1.837,8.186,-1.837,8.186,-1.837C8.186,-1.837,3.128,1.839,3.128,1.839C3.128,1.839,5.06,7.786,5.06,7.786C5.06,7.786,0.001,4.111,0.001,4.111C0.001,4.111,-5.06,7.786,-5.06,7.786C-5.06,7.786,-3.126,1.839,-3.126,1.839C-3.126,1.839,-8.186,-1.837,-8.186,-1.837C-8.186,-1.837,-1.932,-1.837,-1.932,-1.837C-1.932,-1.837,0.001,-7.786,0.001,-7.786Z"><animate repeatCount="indefinite" attributeName="fill" dur="1.667s" begin="0s" fill="freeze" values="#ffffff; #ffffff; #ced5dd; #ced5dd" keyTimes="0; 0.17; 0.6; 1" keySplines="0 0 1 1; 0.625 0 0.411 1; 0 0 1 1" calcMode="spline" /></path></g><g id="i8" transform="matrix(1,0,0,1,55.25,8.036)"><path fill="#ffffff" d="M0,-7.786C0,-7.786,1.932,-1.837,1.932,-1.837C1.932,-1.837,8.186,-1.837,8.186,-1.837C8.186,-1.837,3.126,1.839,3.126,1.839C3.126,1.839,5.06,7.786,5.06,7.786C5.06,7.786,0,4.111,0,4.111C0,4.111,-5.061,7.786,-5.061,7.786C-5.061,7.786,-3.128,1.839,-3.128,1.839C-3.128,1.839,-8.186,-1.837,-8.186,-1.837C-8.186,-1.837,-1.934,-1.837,-1.934,-1.837C-1.934,-1.837,0,-7.786,0,-7.786Z"><animate repeatCount="indefinite" attributeName="fill" dur="1.667s" begin="0s" fill="freeze" values="#ffffff; #ffffff; #ced5dd; #ced5dd" keyTimes="0; 0.17; 0.6; 1" keySplines="0 0 1 1; 0.625 0 0.411 1; 0 0 1 1" calcMode="spline" /></path></g><g id="i9" transform="matrix(1,0,0,1,78.657,8.036)"><path fill="#ffffff" d="M0.001,-7.786C0.001,-7.786,1.934,-1.837,1.934,-1.837C1.934,-1.837,8.186,-1.837,8.186,-1.837C8.186,-1.837,3.128,1.839,3.128,1.839C3.128,1.839,5.06,7.786,5.06,7.786C5.06,7.786,0.001,4.111,0.001,4.111C0.001,4.111,-5.06,7.786,-5.06,7.786C-5.06,7.786,-3.126,1.839,-3.126,1.839C-3.126,1.839,-8.186,-1.837,-8.186,-1.837C-8.186,-1.837,-1.932,-1.837,-1.932,-1.837C-1.932,-1.837,0.001,-7.786,0.001,-7.786Z"><animate repeatCount="indefinite" attributeName="fill" dur="1.667s" begin="0s" fill="freeze" values="#ffffff; #ffffff; #ced5dd; #ced5dd" keyTimes="0; 0.17; 0.6; 1" keySplines="0 0 1 1; 0.625 0 0.411 1; 0 0 1 1" calcMode="spline" /></path></g><g id="i3" transform="matrix(1,0,0,1,102.064,8.036)"><path fill="#ffffff" d="M0,-7.786C0,-7.786,1.932,-1.837,1.932,-1.837C1.932,-1.837,8.186,-1.837,8.186,-1.837C8.186,-1.837,3.126,1.839,3.126,1.839C3.126,1.839,5.06,7.786,5.06,7.786C5.06,7.786,0,4.111,0,4.111C0,4.111,-5.061,7.786,-5.061,7.786C-5.061,7.786,-3.128,1.839,-3.128,1.839C-3.128,1.839,-8.186,-1.837,-8.186,-1.837C-8.186,-1.837,-1.934,-1.837,-1.934,-1.837C-1.934,-1.837,0,-7.786,0,-7.786Z"><animate repeatCount="indefinite" attributeName="fill" dur="1.667s" begin="0s" fill="freeze" values="#ffffff; #ffffff; #ced5dd; #ced5dd" keyTimes="0; 0.17; 0.6; 1" keySplines="0 0 1 1; 0.625 0 0.411 1; 0 0 1 1" calcMode="spline" /></path></g></g><g transform="matrix(1,0,0,1,351.75,315.75)" id="i10"><g id="i8" transform="matrix(1,0,0,1,48.25,48.25)"><path stroke-width="1" stroke="#16171b" fill="#ffffff" d="M48,0C48,12.45,43.27,23.79,35.49,32.31C26.72,41.95,14.06,48,0,48C-14.06,48,-26.72,41.95,-35.49,32.31C-43.27,23.79,-48,12.45,-48,0C-48,-26.51,-26.51,-48,0,-48C26.51,-48,48,-26.51,48,0Z"><animate repeatCount="indefinite" attributeName="fill" dur="1.667s" begin="0s" fill="freeze" values="#ffffff; #ffffff; #ced5dd; #ced5dd" keyTimes="0; 0.17; 0.6; 1" keySplines="0 0 1 1; 0.625 0 0.411 1; 0 0 1 1" calcMode="spline" /><animate repeatCount="indefinite" attributeName="stroke" dur="1.667s" begin="0s" fill="freeze" values="#16171b; #16171b; #9fa8b7; #9fa8b7" keyTimes="0; 0.17; 0.6; 1" keySplines="0 0 1 1; 0.333 0 0.667 1; 0 0 1 1" calcMode="spline" /></path></g><g id="i9" transform="matrix(1,0,0,1,48.25,44.75)"><path fill="#4e5463" d="M15.5,0C15.5,8.561,8.561,15.5,0,15.5C-8.561,15.5,-15.5,8.561,-15.5,0C-15.5,-8.561,-8.561,-15.5,0,-15.5C8.561,-15.5,15.5,-8.561,15.5,0Z"><animate repeatCount="indefinite" attributeName="fill" dur="1.667s" begin="0s" fill="freeze" values="#4e5463; #4e5463; #7f8793; #7f8793" keyTimes="0; 0.17; 0.6; 1" keySplines="0 0 1 1; 0.625 0 0.411 1; 0 0 1 1" calcMode="spline" /></path></g><g id="i3" transform="matrix(1,0,0,1,48.25,80.75)"><path fill="#4e5463" d="M35.49,-0.19C26.719,9.45,14.059,15.5,0,15.5C-14.06,15.5,-26.72,9.45,-35.49,-0.19C-29.67,-9.19,-15.97,-15.5,0,-15.5C15.969,-15.5,29.67,-9.19,35.49,-0.19Z"><animate repeatCount="indefinite" attributeName="fill" dur="1.667s" begin="0s" fill="freeze" values="#4e5463; #4e5463; #7f8793; #7f8793" keyTimes="0; 0.17; 0.6; 1" keySplines="0 0 1 1; 0.625 0 0.411 1; 0 0 1 1" calcMode="spline" /></path></g></g></g><g id="i11"><g transform="matrix(1,0,0,1,309.5,276.5)" id="i2"><g id="i3" transform="matrix(1,0,0,1,90.5,135)"><path fill="#9fa8b7" d="M64,132.5C64,132.5,-64,132.5,-64,132.5C-77.255,132.5,-88,121.755,-88,108.5C-88,108.5,-88,-108.5,-88,-108.5C-88,-121.755,-77.255,-132.5,-64,-132.5C-64,-132.5,64,-132.5,64,-132.5C77.255,-132.5,88,-121.755,88,-108.5C88,-108.5,88,108.5,88,108.5C88,121.755,77.255,132.5,64,132.5Z" /></g></g><g transform="matrix(1,0,0,1,345.25,476.75)" id="i4"><g id="i3" transform="matrix(1,0,0,1,54.75,17.25)"><path fill="#ced5dd" d="M46.5,17C46.5,17,-46.5,17,-46.5,17C-50.918,17,-54.5,13.418,-54.5,9C-54.5,9,-54.5,-9,-54.5,-9C-54.5,-13.418,-50.918,-17,-46.5,-17C-46.5,-17,46.5,-17,46.5,-17C50.918,-17,54.5,-13.418,54.5,-9C54.5,-9,54.5,9,54.5,9C54.5,13.418,50.918,17,46.5,17Z" /></g></g><g transform="matrix(1,0,0,1,344.75,437.692)" id="i5"><g id="i6" transform="matrix(1,0,0,1,8.436,8.036)"><path fill="#ced5dd" d="M0,-7.786C0,-7.786,1.932,-1.837,1.932,-1.837C1.932,-1.837,8.186,-1.837,8.186,-1.837C8.186,-1.837,3.126,1.839,3.126,1.839C3.126,1.839,5.06,7.786,5.06,7.786C5.06,7.786,0,4.111,0,4.111C0,4.111,-5.06,7.786,-5.06,7.786C-5.06,7.786,-3.126,1.839,-3.126,1.839C-3.126,1.839,-8.186,-1.837,-8.186,-1.837C-8.186,-1.837,-1.932,-1.837,-1.932,-1.837C-1.932,-1.837,0,-7.786,0,-7.786Z" /></g><g id="i7" transform="matrix(1,0,0,1,31.843,8.036)"><path fill="#ced5dd" d="M0.001,-7.786C0.001,-7.786,1.932,-1.837,1.932,-1.837C1.932,-1.837,8.186,-1.837,8.186,-1.837C8.186,-1.837,3.128,1.839,3.128,1.839C3.128,1.839,5.06,7.786,5.06,7.786C5.06,7.786,0.001,4.111,0.001,4.111C0.001,4.111,-5.06,7.786,-5.06,7.786C-5.06,7.786,-3.126,1.839,-3.126,1.839C-3.126,1.839,-8.186,-1.837,-8.186,-1.837C-8.186,-1.837,-1.932,-1.837,-1.932,-1.837C-1.932,-1.837,0.001,-7.786,0.001,-7.786Z" /></g><g id="i8" transform="matrix(1,0,0,1,55.25,8.036)"><path fill="#ced5dd" d="M0,-7.786C0,-7.786,1.932,-1.837,1.932,-1.837C1.932,-1.837,8.186,-1.837,8.186,-1.837C8.186,-1.837,3.126,1.839,3.126,1.839C3.126,1.839,5.06,7.786,5.06,7.786C5.06,7.786,0,4.111,0,4.111C0,4.111,-5.061,7.786,-5.061,7.786C-5.061,7.786,-3.128,1.839,-3.128,1.839C-3.128,1.839,-8.186,-1.837,-8.186,-1.837C-8.186,-1.837,-1.934,-1.837,-1.934,-1.837C-1.934,-1.837,0,-7.786,0,-7.786Z" /></g><g id="i9" transform="matrix(1,0,0,1,78.657,8.036)"><path fill="#ced5dd" d="M0.001,-7.786C0.001,-7.786,1.934,-1.837,1.934,-1.837C1.934,-1.837,8.186,-1.837,8.186,-1.837C8.186,-1.837,3.128,1.839,3.128,1.839C3.128,1.839,5.06,7.786,5.06,7.786C5.06,7.786,0.001,4.111,0.001,4.111C0.001,4.111,-5.06,7.786,-5.06,7.786C-5.06,7.786,-3.126,1.839,-3.126,1.839C-3.126,1.839,-8.186,-1.837,-8.186,-1.837C-8.186,-1.837,-1.932,-1.837,-1.932,-1.837C-1.932,-1.837,0.001,-7.786,0.001,-7.786Z" /></g><g id="i3" transform="matrix(1,0,0,1,102.064,8.036)"><path fill="#ced5dd" d="M0,-7.786C0,-7.786,1.932,-1.837,1.932,-1.837C1.932,-1.837,8.186,-1.837,8.186,-1.837C8.186,-1.837,3.126,1.839,3.126,1.839C3.126,1.839,5.06,7.786,5.06,7.786C5.06,7.786,0,4.111,0,4.111C0,4.111,-5.061,7.786,-5.061,7.786C-5.061,7.786,-3.128,1.839,-3.128,1.839C-3.128,1.839,-8.186,-1.837,-8.186,-1.837C-8.186,-1.837,-1.934,-1.837,-1.934,-1.837C-1.934,-1.837,0,-7.786,0,-7.786Z" /></g></g><g transform="matrix(1,0,0,1,351.75,315.75)" id="i10"><g id="i8" transform="matrix(1,0,0,1,48.25,48.25)"><path stroke-width="1" stroke="#9fa8b7" fill="#ced5dd" d="M48,0C48,12.45,43.27,23.79,35.49,32.31C26.72,41.95,14.06,48,0,48C-14.06,48,-26.72,41.95,-35.49,32.31C-43.27,23.79,-48,12.45,-48,0C-48,-26.51,-26.51,-48,0,-48C26.51,-48,48,-26.51,48,0Z" /></g><g id="i9" transform="matrix(1,0,0,1,48.25,44.75)"><path fill="#7f8793" d="M15.5,0C15.5,8.561,8.561,15.5,0,15.5C-8.561,15.5,-15.5,8.561,-15.5,0C-15.5,-8.561,-8.561,-15.5,0,-15.5C8.561,-15.5,15.5,-8.561,15.5,0Z" /></g><g id="i3" transform="matrix(1,0,0,1,48.25,80.75)"><path fill="#7f8793" d="M35.49,-0.19C26.719,9.45,14.059,15.5,0,15.5C-14.06,15.5,-26.72,9.45,-35.49,-0.19C-29.67,-9.19,-15.97,-15.5,0,-15.5C15.969,-15.5,29.67,-9.19,35.49,-0.19Z" /></g></g></g><g id="i12"><g transform="matrix(1,0,0,1,309.5,276.5)" id="i2"><g id="i3" transform="matrix(1,0,0,1,90.5,135)"><path fill="#9fa8b7" d="M64,132.5C64,132.5,-64,132.5,-64,132.5C-77.255,132.5,-88,121.755,-88,108.5C-88,108.5,-88,-108.5,-88,-108.5C-88,-121.755,-77.255,-132.5,-64,-132.5C-64,-132.5,64,-132.5,64,-132.5C77.255,-132.5,88,-121.755,88,-108.5C88,-108.5,88,108.5,88,108.5C88,121.755,77.255,132.5,64,132.5Z"><animate repeatCount="indefinite" attributeName="fill" dur="1.667s" begin="0s" fill="freeze" values="#9fa8b7; #9fa8b7; #16171b; #16171b" keyTimes="0; 0.17; 0.6; 1" keySplines="0 0 1 1; 0.333 0 0.667 1; 0 0 1 1" calcMode="spline" /></path></g></g><g id="i4"><g transform="translate(400,494)"><g transform="scale(1,1)"><animateTransform repeatCount="indefinite" type="scale" attributeName="transform" dur="1.667s" begin="0s" calcMode="spline" values="1 1; 1 1; 1.04 1.04; 0.963 0.963; 1.06 1.06; 1 1; 1 1" keyTimes="0; 0.37; 0.55; 0.68; 0.81; 0.98; 1" keySplines="0 0 1 1; 0.755 0 0.826 1; 0.461 0 0.667 1; 0.333 0 0.646 1; 0.197 0 0.25 1; 0 0 1 1" fill="freeze" /><g transform="translate(-54.75,-17.25)"><g id="i3" transform="matrix(1,0,0,1,54.75,17.25)"><path fill="#ced5dd" d="M46.5,17C46.5,17,-46.5,17,-46.5,17C-50.918,17,-54.5,13.418,-54.5,9C-54.5,9,-54.5,-9,-54.5,-9C-54.5,-13.418,-50.918,-17,-46.5,-17C-46.5,-17,46.5,-17,46.5,-17C50.918,-17,54.5,-13.418,54.5,-9C54.5,-9,54.5,9,54.5,9C54.5,13.418,50.918,17,46.5,17Z"><animate repeatCount="indefinite" attributeName="fill" dur="1.667s" begin="0s" fill="freeze" values="#ced5dd; #ced5dd; #ffffff; #ffffff" keyTimes="0; 0.17; 0.6; 1" keySplines="0 0 1 1; 0.544 0 0.44 1; 0 0 1 1" calcMode="spline" /></path></g></g></g></g></g><g transform="matrix(1,0,0,1,344.75,437.692)" id="i5"><g><g transform="translate(8.436,8.036)"><g id="i6" transform="scale(1,1)"><animateTransform repeatCount="indefinite" type="scale" attributeName="transform" dur="1.667s" begin="0s" calcMode="spline" values="1 1; 1 1; 0 0; 1.5 1.5; 1 1; 1 1" keyTimes="0; 0.26; 0.3; 0.45; 0.6; 1" keySplines="0 0 1 1; 0.167 0 0.833 1; 0.333 0 0.667 1; 0.568 0 0.343 1; 0 0 1 1" fill="freeze" /><path fill="#ced5dd" d="M0,-7.786C0,-7.786,1.932,-1.837,1.932,-1.837C1.932,-1.837,8.186,-1.837,8.186,-1.837C8.186,-1.837,3.126,1.839,3.126,1.839C3.126,1.839,5.06,7.786,5.06,7.786C5.06,7.786,0,4.111,0,4.111C0,4.111,-5.06,7.786,-5.06,7.786C-5.06,7.786,-3.126,1.839,-3.126,1.839C-3.126,1.839,-8.186,-1.837,-8.186,-1.837C-8.186,-1.837,-1.932,-1.837,-1.932,-1.837C-1.932,-1.837,0,-7.786,0,-7.786Z"><animate repeatCount="indefinite" attributeName="fill" dur="1.667s" begin="0s" fill="freeze" values="#ced5dd; #ced5dd; #ffffff; #ffffff" keyTimes="0; 0.17; 0.6; 1" keySplines="0 0 1 1; 0.544 0 0.44 1; 0 0 1 1" calcMode="spline" /></path></g></g></g><g><g transform="translate(31.843,8.036)"><g id="i7" transform="scale(1,1)"><animateTransform repeatCount="indefinite" type="scale" attributeName="transform" dur="1.667s" begin="0s" calcMode="spline" values="1 1; 1 1; 0 0; 1.5 1.5; 1 1; 1 1" keyTimes="0; 0.26; 0.33; 0.48; 0.63; 1" keySplines="0 0 1 1; 0.167 0 0.833 1; 0.333 0 0.667 1; 0.568 0 0.343 1; 0 0 1 1" fill="freeze" /><path fill="#ced5dd" d="M0.001,-7.786C0.001,-7.786,1.932,-1.837,1.932,-1.837C1.932,-1.837,8.186,-1.837,8.186,-1.837C8.186,-1.837,3.128,1.839,3.128,1.839C3.128,1.839,5.06,7.786,5.06,7.786C5.06,7.786,0.001,4.111,0.001,4.111C0.001,4.111,-5.06,7.786,-5.06,7.786C-5.06,7.786,-3.126,1.839,-3.126,1.839C-3.126,1.839,-8.186,-1.837,-8.186,-1.837C-8.186,-1.837,-1.932,-1.837,-1.932,-1.837C-1.932,-1.837,0.001,-7.786,0.001,-7.786Z"><animate repeatCount="indefinite" attributeName="fill" dur="1.667s" begin="0s" fill="freeze" values="#ced5dd; #ced5dd; #ffffff; #ffffff" keyTimes="0; 0.17; 0.6; 1" keySplines="0 0 1 1; 0.544 0 0.44 1; 0 0 1 1" calcMode="spline" /></path></g></g></g><g><g transform="translate(55.25,8.036)"><g id="i8" transform="scale(1,1)"><animateTransform repeatCount="indefinite" type="scale" attributeName="transform" dur="1.667s" begin="0s" calcMode="spline" values="1 1; 1 1; 0 0; 1.5 1.5; 1 1; 1 1" keyTimes="0; 0.26; 0.36; 0.51; 0.66; 1" keySplines="0 0 1 1; 0.167 0 0.833 1; 0.333 0 0.667 1; 0.568 0 0.343 1; 0 0 1 1" fill="freeze" /><path fill="#ced5dd" d="M0,-7.786C0,-7.786,1.932,-1.837,1.932,-1.837C1.932,-1.837,8.186,-1.837,8.186,-1.837C8.186,-1.837,3.126,1.839,3.126,1.839C3.126,1.839,5.06,7.786,5.06,7.786C5.06,7.786,0,4.111,0,4.111C0,4.111,-5.061,7.786,-5.061,7.786C-5.061,7.786,-3.128,1.839,-3.128,1.839C-3.128,1.839,-8.186,-1.837,-8.186,-1.837C-8.186,-1.837,-1.934,-1.837,-1.934,-1.837C-1.934,-1.837,0,-7.786,0,-7.786Z"><animate repeatCount="indefinite" attributeName="fill" dur="1.667s" begin="0s" fill="freeze" values="#ced5dd; #ced5dd; #ffffff; #ffffff" keyTimes="0; 0.17; 0.6; 1" keySplines="0 0 1 1; 0.544 0 0.44 1; 0 0 1 1" calcMode="spline" /></path></g></g></g><g><g transform="translate(78.657,8.036)"><g id="i9" transform="scale(1,1)"><animateTransform repeatCount="indefinite" type="scale" attributeName="transform" dur="1.667s" begin="0s" calcMode="spline" values="1 1; 1 1; 0 0; 1.5 1.5; 1 1; 1 1" keyTimes="0; 0.26; 0.39; 0.54; 0.69; 1" keySplines="0 0 1 1; 0.167 0 0.833 1; 0.333 0 0.667 1; 0.568 0 0.343 1; 0 0 1 1" fill="freeze" /><path fill="#ced5dd" d="M0.001,-7.786C0.001,-7.786,1.934,-1.837,1.934,-1.837C1.934,-1.837,8.186,-1.837,8.186,-1.837C8.186,-1.837,3.128,1.839,3.128,1.839C3.128,1.839,5.06,7.786,5.06,7.786C5.06,7.786,0.001,4.111,0.001,4.111C0.001,4.111,-5.06,7.786,-5.06,7.786C-5.06,7.786,-3.126,1.839,-3.126,1.839C-3.126,1.839,-8.186,-1.837,-8.186,-1.837C-8.186,-1.837,-1.932,-1.837,-1.932,-1.837C-1.932,-1.837,0.001,-7.786,0.001,-7.786Z"><animate repeatCount="indefinite" attributeName="fill" dur="1.667s" begin="0s" fill="freeze" values="#ced5dd; #ced5dd; #ffffff; #ffffff" keyTimes="0; 0.17; 0.6; 1" keySplines="0 0 1 1; 0.544 0 0.44 1; 0 0 1 1" calcMode="spline" /></path></g></g></g><g><g transform="translate(102.064,8.036)"><g id="i3" transform="scale(1,1)"><animateTransform repeatCount="indefinite" type="scale" attributeName="transform" dur="1.667s" begin="0s" calcMode="spline" values="1 1; 1 1; 0 0; 1.5 1.5; 1 1; 1 1" keyTimes="0; 0.26; 0.42; 0.57; 0.72; 1" keySplines="0 0 1 1; 0.167 0 0.833 1; 0.333 0 0.667 1; 0.568 0 0.343 1; 0 0 1 1" fill="freeze" /><path fill="#ced5dd" d="M0,-7.786C0,-7.786,1.932,-1.837,1.932,-1.837C1.932,-1.837,8.186,-1.837,8.186,-1.837C8.186,-1.837,3.126,1.839,3.126,1.839C3.126,1.839,5.06,7.786,5.06,7.786C5.06,7.786,0,4.111,0,4.111C0,4.111,-5.061,7.786,-5.061,7.786C-5.061,7.786,-3.128,1.839,-3.128,1.839C-3.128,1.839,-8.186,-1.837,-8.186,-1.837C-8.186,-1.837,-1.934,-1.837,-1.934,-1.837C-1.934,-1.837,0,-7.786,0,-7.786Z"><animate repeatCount="indefinite" attributeName="fill" dur="1.667s" begin="0s" fill="freeze" values="#ced5dd; #ced5dd; #ffffff; #ffffff" keyTimes="0; 0.17; 0.6; 1" keySplines="0 0 1 1; 0.544 0 0.44 1; 0 0 1 1" calcMode="spline" /></path></g></g></g></g><g transform="matrix(1,0,0,1,351.75,315.75)" id="i10"><g id="i8" transform="matrix(1,0,0,1,48.25,48.25)"><path stroke-width="1" stroke="#9fa8b7" fill="#ced5dd" d="M48,0C48,12.45,43.27,23.79,35.49,32.31C26.72,41.95,14.06,48,0,48C-14.06,48,-26.72,41.95,-35.49,32.31C-43.27,23.79,-48,12.45,-48,0C-48,-26.51,-26.51,-48,0,-48C26.51,-48,48,-26.51,48,0Z"><animate repeatCount="indefinite" attributeName="fill" dur="1.667s" begin="0s" fill="freeze" values="#ced5dd; #ced5dd; #ffffff; #ffffff" keyTimes="0; 0.17; 0.6; 1" keySplines="0 0 1 1; 0.544 0 0.44 1; 0 0 1 1" calcMode="spline" /><animate repeatCount="indefinite" attributeName="stroke" dur="1.667s" begin="0s" fill="freeze" values="#9fa8b7; #9fa8b7; #16171b; #16171b" keyTimes="0; 0.17; 0.6; 1" keySplines="0 0 1 1; 0.333 0 0.667 1; 0 0 1 1" calcMode="spline" /></path></g><g id="i9" transform="matrix(1,0,0,1,48.25,44.75)"><path fill="#7f8793" d="M15.5,0C15.5,8.561,8.561,15.5,0,15.5C-8.561,15.5,-15.5,8.561,-15.5,0C-15.5,-8.561,-8.561,-15.5,0,-15.5C8.561,-15.5,15.5,-8.561,15.5,0Z"><animate repeatCount="indefinite" attributeName="fill" dur="1.667s" begin="0s" fill="freeze" values="#7f8793; #7f8793; #4e5463; #4e5463" keyTimes="0; 0.17; 0.6; 1" keySplines="0 0 1 1; 0.544 0 0.44 1; 0 0 1 1" calcMode="spline" /></path></g><g id="i3" transform="matrix(1,0,0,1,48.25,80.75)"><path fill="#7f8793" d="M35.49,-0.19C26.719,9.45,14.059,15.5,0,15.5C-14.06,15.5,-26.72,9.45,-35.49,-0.19C-29.67,-9.19,-15.97,-15.5,0,-15.5C15.969,-15.5,29.67,-9.19,35.49,-0.19Z"><animate repeatCount="indefinite" attributeName="fill" dur="1.667s" begin="0s" fill="freeze" values="#7f8793; #7f8793; #4e5463; #4e5463" keyTimes="0; 0.17; 0.6; 1" keySplines="0 0 1 1; 0.544 0 0.44 1; 0 0 1 1" calcMode="spline" /></path></g></g></g><g id="i13"><g opacity="0" id="i14"><animate repeatCount="indefinite" attributeName="opacity" dur="1.667s" begin="0s" fill="freeze" values="0; 0; 1; 1" keyTimes="0; 0.39; 0.4; 1" keySplines="0 0 1 1; 0.333 0 0.667 1; 0 0 1 1" calcMode="spline" /><g transform="translate(400,400)"><animateTransform repeatCount="indefinite" type="translate" attributeName="transform" dur="1.667s" begin="0s" calcMode="spline" values="400 400; 400 400; 199.668 423; 308 412; 290 412; 290 412" keyTimes="0; 0.17; 0.4; 0.6; 0.81; 1" keySplines="0 0 1 1; 0.333 0 0.667 1; 0.333 0 0.667 1; 0.333 0 0.484 1; 0 0 1 1" fill="freeze" /><g transform="rotate(0)"><animateTransform repeatCount="indefinite" type="rotate" attributeName="transform" dur="1.667s" begin="0s" calcMode="spline" values="0; 0; -24; -9; -15; -15" keyTimes="0; 0.17; 0.4; 0.6; 0.81; 1" keySplines="0 0 1 1; 0.333 0 0.667 1; 0.333 0 0.667 1; 0.333 0 0.484 1; 0 0 1 1" fill="freeze" /><g transform="scale(1,1)"><animateTransform repeatCount="indefinite" type="scale" attributeName="transform" dur="1.667s" begin="0s" calcMode="spline" values="1 1; 1 1; 0.85 0.85; 0.85 0.85" keyTimes="0; 0.17; 0.6; 1" keySplines="0 0 1 1; 0.333 0 0.667 1; 0 0 1 1" fill="freeze" /><g transform="translate(-400,-400)"><g clip-path="url(#i0)"><g transform="matrix(1,0,0,1,309.5,276.5)"><g transform="matrix(1,0,0,1,90.5,135)"><path fill="#16171b" d="M64,132.5C64,132.5,-64,132.5,-64,132.5C-77.255,132.5,-88,121.755,-88,108.5C-88,108.5,-88,-108.5,-88,-108.5C-88,-121.755,-77.255,-132.5,-64,-132.5C-64,-132.5,64,-132.5,64,-132.5C77.255,-132.5,88,-121.755,88,-108.5C88,-108.5,88,108.5,88,108.5C88,121.755,77.255,132.5,64,132.5Z"><animate repeatCount="indefinite" attributeName="fill" dur="1.667s" begin="0s" fill="freeze" values="#16171b; #16171b; #9fa8b7; #9fa8b7" keyTimes="0; 0.17; 0.6; 1" keySplines="0 0 1 1; 0.333 0 0.667 1; 0 0 1 1" calcMode="spline" /></path></g></g><g transform="matrix(1,0,0,1,345.25,476.75)"><g transform="matrix(1,0,0,1,54.75,17.25)"><path fill="#ffffff" d="M46.5,17C46.5,17,-46.5,17,-46.5,17C-50.918,17,-54.5,13.418,-54.5,9C-54.5,9,-54.5,-9,-54.5,-9C-54.5,-13.418,-50.918,-17,-46.5,-17C-46.5,-17,46.5,-17,46.5,-17C50.918,-17,54.5,-13.418,54.5,-9C54.5,-9,54.5,9,54.5,9C54.5,13.418,50.918,17,46.5,17Z"><animate repeatCount="indefinite" attributeName="fill" dur="1.667s" begin="0s" fill="freeze" values="#ffffff; #ffffff; #ced5dd; #ced5dd" keyTimes="0; 0.17; 0.6; 1" keySplines="0 0 1 1; 0.625 0 0.411 1; 0 0 1 1" calcMode="spline" /></path></g></g><g transform="matrix(1,0,0,1,344.75,437.692)"><g transform="matrix(1,0,0,1,8.436,8.036)"><path fill="#ffffff" d="M0,-7.786C0,-7.786,1.932,-1.837,1.932,-1.837C1.932,-1.837,8.186,-1.837,8.186,-1.837C8.186,-1.837,3.126,1.839,3.126,1.839C3.126,1.839,5.06,7.786,5.06,7.786C5.06,7.786,0,4.111,0,4.111C0,4.111,-5.06,7.786,-5.06,7.786C-5.06,7.786,-3.126,1.839,-3.126,1.839C-3.126,1.839,-8.186,-1.837,-8.186,-1.837C-8.186,-1.837,-1.932,-1.837,-1.932,-1.837C-1.932,-1.837,0,-7.786,0,-7.786Z"><animate repeatCount="indefinite" attributeName="fill" dur="1.667s" begin="0s" fill="freeze" values="#ffffff; #ffffff; #ced5dd; #ced5dd" keyTimes="0; 0.17; 0.6; 1" keySplines="0 0 1 1; 0.625 0 0.411 1; 0 0 1 1" calcMode="spline" /></path></g><g transform="matrix(1,0,0,1,31.843,8.036)"><path fill="#ffffff" d="M0.001,-7.786C0.001,-7.786,1.932,-1.837,1.932,-1.837C1.932,-1.837,8.186,-1.837,8.186,-1.837C8.186,-1.837,3.128,1.839,3.128,1.839C3.128,1.839,5.06,7.786,5.06,7.786C5.06,7.786,0.001,4.111,0.001,4.111C0.001,4.111,-5.06,7.786,-5.06,7.786C-5.06,7.786,-3.126,1.839,-3.126,1.839C-3.126,1.839,-8.186,-1.837,-8.186,-1.837C-8.186,-1.837,-1.932,-1.837,-1.932,-1.837C-1.932,-1.837,0.001,-7.786,0.001,-7.786Z"><animate repeatCount="indefinite" attributeName="fill" dur="1.667s" begin="0s" fill="freeze" values="#ffffff; #ffffff; #ced5dd; #ced5dd" keyTimes="0; 0.17; 0.6; 1" keySplines="0 0 1 1; 0.625 0 0.411 1; 0 0 1 1" calcMode="spline" /></path></g><g transform="matrix(1,0,0,1,55.25,8.036)"><path fill="#ffffff" d="M0,-7.786C0,-7.786,1.932,-1.837,1.932,-1.837C1.932,-1.837,8.186,-1.837,8.186,-1.837C8.186,-1.837,3.126,1.839,3.126,1.839C3.126,1.839,5.06,7.786,5.06,7.786C5.06,7.786,0,4.111,0,4.111C0,4.111,-5.061,7.786,-5.061,7.786C-5.061,7.786,-3.128,1.839,-3.128,1.839C-3.128,1.839,-8.186,-1.837,-8.186,-1.837C-8.186,-1.837,-1.934,-1.837,-1.934,-1.837C-1.934,-1.837,0,-7.786,0,-7.786Z"><animate repeatCount="indefinite" attributeName="fill" dur="1.667s" begin="0s" fill="freeze" values="#ffffff; #ffffff; #ced5dd; #ced5dd" keyTimes="0; 0.17; 0.6; 1" keySplines="0 0 1 1; 0.625 0 0.411 1; 0 0 1 1" calcMode="spline" /></path></g><g transform="matrix(1,0,0,1,78.657,8.036)"><path fill="#ffffff" d="M0.001,-7.786C0.001,-7.786,1.934,-1.837,1.934,-1.837C1.934,-1.837,8.186,-1.837,8.186,-1.837C8.186,-1.837,3.128,1.839,3.128,1.839C3.128,1.839,5.06,7.786,5.06,7.786C5.06,7.786,0.001,4.111,0.001,4.111C0.001,4.111,-5.06,7.786,-5.06,7.786C-5.06,7.786,-3.126,1.839,-3.126,1.839C-3.126,1.839,-8.186,-1.837,-8.186,-1.837C-8.186,-1.837,-1.932,-1.837,-1.932,-1.837C-1.932,-1.837,0.001,-7.786,0.001,-7.786Z"><animate repeatCount="indefinite" attributeName="fill" dur="1.667s" begin="0s" fill="freeze" values="#ffffff; #ffffff; #ced5dd; #ced5dd" keyTimes="0; 0.17; 0.6; 1" keySplines="0 0 1 1; 0.625 0 0.411 1; 0 0 1 1" calcMode="spline" /></path></g><g transform="matrix(1,0,0,1,102.064,8.036)"><path fill="#ffffff" d="M0,-7.786C0,-7.786,1.932,-1.837,1.932,-1.837C1.932,-1.837,8.186,-1.837,8.186,-1.837C8.186,-1.837,3.126,1.839,3.126,1.839C3.126,1.839,5.06,7.786,5.06,7.786C5.06,7.786,0,4.111,0,4.111C0,4.111,-5.061,7.786,-5.061,7.786C-5.061,7.786,-3.128,1.839,-3.128,1.839C-3.128,1.839,-8.186,-1.837,-8.186,-1.837C-8.186,-1.837,-1.934,-1.837,-1.934,-1.837C-1.934,-1.837,0,-7.786,0,-7.786Z"><animate repeatCount="indefinite" attributeName="fill" dur="1.667s" begin="0s" fill="freeze" values="#ffffff; #ffffff; #ced5dd; #ced5dd" keyTimes="0; 0.17; 0.6; 1" keySplines="0 0 1 1; 0.625 0 0.411 1; 0 0 1 1" calcMode="spline" /></path></g></g><g transform="matrix(1,0,0,1,351.75,315.75)"><g transform="matrix(1,0,0,1,48.25,48.25)"><path stroke-width="1" stroke="#16171b" fill="#ffffff" d="M48,0C48,12.45,43.27,23.79,35.49,32.31C26.72,41.95,14.06,48,0,48C-14.06,48,-26.72,41.95,-35.49,32.31C-43.27,23.79,-48,12.45,-48,0C-48,-26.51,-26.51,-48,0,-48C26.51,-48,48,-26.51,48,0Z"><animate repeatCount="indefinite" attributeName="fill" dur="1.667s" begin="0s" fill="freeze" values="#ffffff; #ffffff; #ced5dd; #ced5dd" keyTimes="0; 0.17; 0.6; 1" keySplines="0 0 1 1; 0.625 0 0.411 1; 0 0 1 1" calcMode="spline" /><animate repeatCount="indefinite" attributeName="stroke" dur="1.667s" begin="0s" fill="freeze" values="#16171b; #16171b; #9fa8b7; #9fa8b7" keyTimes="0; 0.17; 0.6; 1" keySplines="0 0 1 1; 0.333 0 0.667 1; 0 0 1 1" calcMode="spline" /></path></g><g transform="matrix(1,0,0,1,48.25,44.75)"><path fill="#4e5463" d="M15.5,0C15.5,8.561,8.561,15.5,0,15.5C-8.561,15.5,-15.5,8.561,-15.5,0C-15.5,-8.561,-8.561,-15.5,0,-15.5C8.561,-15.5,15.5,-8.561,15.5,0Z"><animate repeatCount="indefinite" attributeName="fill" dur="1.667s" begin="0s" fill="freeze" values="#4e5463; #4e5463; #7f8793; #7f8793" keyTimes="0; 0.17; 0.6; 1" keySplines="0 0 1 1; 0.625 0 0.411 1; 0 0 1 1" calcMode="spline" /></path></g><g transform="matrix(1,0,0,1,48.25,80.75)"><path fill="#4e5463" d="M35.49,-0.19C26.719,9.45,14.059,15.5,0,15.5C-14.06,15.5,-26.72,9.45,-35.49,-0.19C-29.67,-9.19,-15.97,-15.5,0,-15.5C15.969,-15.5,29.67,-9.19,35.49,-0.19Z"><animate repeatCount="indefinite" attributeName="fill" dur="1.667s" begin="0s" fill="freeze" values="#4e5463; #4e5463; #7f8793; #7f8793" keyTimes="0; 0.17; 0.6; 1" keySplines="0 0 1 1; 0.625 0 0.411 1; 0 0 1 1" calcMode="spline" /></path></g></g></g></g></g></g></g></g><g id="i15"><g transform="translate(290,412)"><animateTransform repeatCount="indefinite" type="translate" attributeName="transform" dur="1.667s" begin="0s" calcMode="spline" values="290 412; 290 412; 510 412; 510 412" keyTimes="0; 0.17; 0.6; 1" keySplines="0 0 1 1; 0.333 0 0.44 0.89; 0 0 1 1" fill="freeze" /><g transform="rotate(-15)"><animateTransform repeatCount="indefinite" type="rotate" attributeName="transform" dur="1.667s" begin="0s" calcMode="spline" values="-15; -15; 15; 15" keyTimes="0; 0.17; 0.6; 1" keySplines="0 0 1 1; 0.333 0 0.44 0.197; 0 0 1 1" fill="freeze" /><g transform="scale(0.85,0.85) translate(-400,-400)"><g clip-path="url(#i0)"><g transform="matrix(1,0,0,1,309.5,276.5)"><g transform="matrix(1,0,0,1,90.5,135)"><path fill="#9fa8b7" d="M64,132.5C64,132.5,-64,132.5,-64,132.5C-77.255,132.5,-88,121.755,-88,108.5C-88,108.5,-88,-108.5,-88,-108.5C-88,-121.755,-77.255,-132.5,-64,-132.5C-64,-132.5,64,-132.5,64,-132.5C77.255,-132.5,88,-121.755,88,-108.5C88,-108.5,88,108.5,88,108.5C88,121.755,77.255,132.5,64,132.5Z" /></g></g><g transform="matrix(1,0,0,1,345.25,476.75)"><g transform="matrix(1,0,0,1,54.75,17.25)"><path fill="#ced5dd" d="M46.5,17C46.5,17,-46.5,17,-46.5,17C-50.918,17,-54.5,13.418,-54.5,9C-54.5,9,-54.5,-9,-54.5,-9C-54.5,-13.418,-50.918,-17,-46.5,-17C-46.5,-17,46.5,-17,46.5,-17C50.918,-17,54.5,-13.418,54.5,-9C54.5,-9,54.5,9,54.5,9C54.5,13.418,50.918,17,46.5,17Z" /></g></g><g transform="matrix(1,0,0,1,344.75,437.692)"><g transform="matrix(1,0,0,1,8.436,8.036)"><path fill="#ced5dd" d="M0,-7.786C0,-7.786,1.932,-1.837,1.932,-1.837C1.932,-1.837,8.186,-1.837,8.186,-1.837C8.186,-1.837,3.126,1.839,3.126,1.839C3.126,1.839,5.06,7.786,5.06,7.786C5.06,7.786,0,4.111,0,4.111C0,4.111,-5.06,7.786,-5.06,7.786C-5.06,7.786,-3.126,1.839,-3.126,1.839C-3.126,1.839,-8.186,-1.837,-8.186,-1.837C-8.186,-1.837,-1.932,-1.837,-1.932,-1.837C-1.932,-1.837,0,-7.786,0,-7.786Z" /></g><g transform="matrix(1,0,0,1,31.843,8.036)"><path fill="#ced5dd" d="M0.001,-7.786C0.001,-7.786,1.932,-1.837,1.932,-1.837C1.932,-1.837,8.186,-1.837,8.186,-1.837C8.186,-1.837,3.128,1.839,3.128,1.839C3.128,1.839,5.06,7.786,5.06,7.786C5.06,7.786,0.001,4.111,0.001,4.111C0.001,4.111,-5.06,7.786,-5.06,7.786C-5.06,7.786,-3.126,1.839,-3.126,1.839C-3.126,1.839,-8.186,-1.837,-8.186,-1.837C-8.186,-1.837,-1.932,-1.837,-1.932,-1.837C-1.932,-1.837,0.001,-7.786,0.001,-7.786Z" /></g><g transform="matrix(1,0,0,1,55.25,8.036)"><path fill="#ced5dd" d="M0,-7.786C0,-7.786,1.932,-1.837,1.932,-1.837C1.932,-1.837,8.186,-1.837,8.186,-1.837C8.186,-1.837,3.126,1.839,3.126,1.839C3.126,1.839,5.06,7.786,5.06,7.786C5.06,7.786,0,4.111,0,4.111C0,4.111,-5.061,7.786,-5.061,7.786C-5.061,7.786,-3.128,1.839,-3.128,1.839C-3.128,1.839,-8.186,-1.837,-8.186,-1.837C-8.186,-1.837,-1.934,-1.837,-1.934,-1.837C-1.934,-1.837,0,-7.786,0,-7.786Z" /></g><g transform="matrix(1,0,0,1,78.657,8.036)"><path fill="#ced5dd" d="M0.001,-7.786C0.001,-7.786,1.934,-1.837,1.934,-1.837C1.934,-1.837,8.186,-1.837,8.186,-1.837C8.186,-1.837,3.128,1.839,3.128,1.839C3.128,1.839,5.06,7.786,5.06,7.786C5.06,7.786,0.001,4.111,0.001,4.111C0.001,4.111,-5.06,7.786,-5.06,7.786C-5.06,7.786,-3.126,1.839,-3.126,1.839C-3.126,1.839,-8.186,-1.837,-8.186,-1.837C-8.186,-1.837,-1.932,-1.837,-1.932,-1.837C-1.932,-1.837,0.001,-7.786,0.001,-7.786Z" /></g><g transform="matrix(1,0,0,1,102.064,8.036)"><path fill="#ced5dd" d="M0,-7.786C0,-7.786,1.932,-1.837,1.932,-1.837C1.932,-1.837,8.186,-1.837,8.186,-1.837C8.186,-1.837,3.126,1.839,3.126,1.839C3.126,1.839,5.06,7.786,5.06,7.786C5.06,7.786,0,4.111,0,4.111C0,4.111,-5.061,7.786,-5.061,7.786C-5.061,7.786,-3.128,1.839,-3.128,1.839C-3.128,1.839,-8.186,-1.837,-8.186,-1.837C-8.186,-1.837,-1.934,-1.837,-1.934,-1.837C-1.934,-1.837,0,-7.786,0,-7.786Z" /></g></g><g transform="matrix(1,0,0,1,351.75,315.75)"><g transform="matrix(1,0,0,1,48.25,48.25)"><path stroke-width="1" stroke="#9fa8b7" fill="#ced5dd" d="M48,0C48,12.45,43.27,23.79,35.49,32.31C26.72,41.95,14.06,48,0,48C-14.06,48,-26.72,41.95,-35.49,32.31C-43.27,23.79,-48,12.45,-48,0C-48,-26.51,-26.51,-48,0,-48C26.51,-48,48,-26.51,48,0Z" /></g><g transform="matrix(1,0,0,1,48.25,44.75)"><path fill="#7f8793" d="M15.5,0C15.5,8.561,8.561,15.5,0,15.5C-8.561,15.5,-15.5,8.561,-15.5,0C-15.5,-8.561,-8.561,-15.5,0,-15.5C8.561,-15.5,15.5,-8.561,15.5,0Z" /></g><g transform="matrix(1,0,0,1,48.25,80.75)"><path fill="#7f8793" d="M35.49,-0.19C26.719,9.45,14.059,15.5,0,15.5C-14.06,15.5,-26.72,9.45,-35.49,-0.19C-29.67,-9.19,-15.97,-15.5,0,-15.5C15.969,-15.5,29.67,-9.19,35.49,-0.19Z" /></g></g></g></g></g></g></g><g id="i16"><g transform="translate(510,412)"><animateTransform repeatCount="indefinite" type="translate" attributeName="transform" dur="1.667s" begin="0s" calcMode="spline" values="510 412; 510 412; 400 400; 400 400" keyTimes="0; 0.17; 0.4; 1" keySplines="0 0 1 1; 0.333 0 0.667 1; 0 0 1 1" fill="freeze" /><g transform="rotate(15)"><animateTransform repeatCount="indefinite" type="rotate" attributeName="transform" dur="1.667s" begin="0s" calcMode="spline" values="15; 15; 0; 0" keyTimes="0; 0.17; 0.4; 1" keySplines="0 0 1 1; 0.333 0 0.667 1; 0 0 1 1" fill="freeze" /><g transform="scale(0.85,0.85)"><animateTransform repeatCount="indefinite" type="scale" attributeName="transform" dur="1.667s" begin="0s" calcMode="spline" values="0.85 0.85; 0.85 0.85; 1.09 1.09; 1 1; 1 1" keyTimes="0; 0.17; 0.4; 0.6; 1" keySplines="0 0 1 1; 0.333 0 0.667 1; 0.269 0 0.432 1; 0 0 1 1" fill="freeze" /><g transform="translate(-400,-400)"><g clip-path="url(#i0)"><g transform="matrix(1,0,0,1,309.5,276.5)"><g transform="matrix(1,0,0,1,90.5,135)"><path fill="#9fa8b7" d="M64,132.5C64,132.5,-64,132.5,-64,132.5C-77.255,132.5,-88,121.755,-88,108.5C-88,108.5,-88,-108.5,-88,-108.5C-88,-121.755,-77.255,-132.5,-64,-132.5C-64,-132.5,64,-132.5,64,-132.5C77.255,-132.5,88,-121.755,88,-108.5C88,-108.5,88,108.5,88,108.5C88,121.755,77.255,132.5,64,132.5Z"><animate repeatCount="indefinite" attributeName="fill" dur="1.667s" begin="0s" fill="freeze" values="#9fa8b7; #9fa8b7; #16171b; #16171b" keyTimes="0; 0.17; 0.6; 1" keySplines="0 0 1 1; 0.333 0 0.667 1; 0 0 1 1" calcMode="spline" /></path></g></g><g><g transform="translate(400,494)"><g transform="scale(1,1)"><animateTransform repeatCount="indefinite" type="scale" attributeName="transform" dur="1.667s" begin="0s" calcMode="spline" values="1 1; 1 1; 1.04 1.04; 0.963 0.963; 1.06 1.06; 1 1; 1 1" keyTimes="0; 0.37; 0.55; 0.68; 0.81; 0.98; 1" keySplines="0 0 1 1; 0.755 0 0.826 1; 0.461 0 0.667 1; 0.333 0 0.646 1; 0.197 0 0.25 1; 0 0 1 1" fill="freeze" /><g transform="translate(-54.75,-17.25)"><g transform="matrix(1,0,0,1,54.75,17.25)"><path fill="#ced5dd" d="M46.5,17C46.5,17,-46.5,17,-46.5,17C-50.918,17,-54.5,13.418,-54.5,9C-54.5,9,-54.5,-9,-54.5,-9C-54.5,-13.418,-50.918,-17,-46.5,-17C-46.5,-17,46.5,-17,46.5,-17C50.918,-17,54.5,-13.418,54.5,-9C54.5,-9,54.5,9,54.5,9C54.5,13.418,50.918,17,46.5,17Z"><animate repeatCount="indefinite" attributeName="fill" dur="1.667s" begin="0s" fill="freeze" values="#ced5dd; #ced5dd; #ffffff; #ffffff" keyTimes="0; 0.17; 0.6; 1" keySplines="0 0 1 1; 0.544 0 0.44 1; 0 0 1 1" calcMode="spline" /></path></g></g></g></g></g><g transform="matrix(1,0,0,1,344.75,437.692)"><g><g transform="translate(8.436,8.036)"><g transform="scale(1,1)"><animateTransform repeatCount="indefinite" type="scale" attributeName="transform" dur="1.667s" begin="0s" calcMode="spline" values="1 1; 1 1; 0 0; 1.5 1.5; 1 1; 1 1" keyTimes="0; 0.26; 0.3; 0.45; 0.6; 1" keySplines="0 0 1 1; 0.167 0 0.833 1; 0.333 0 0.667 1; 0.568 0 0.343 1; 0 0 1 1" fill="freeze" /><path fill="#ced5dd" d="M0,-7.786C0,-7.786,1.932,-1.837,1.932,-1.837C1.932,-1.837,8.186,-1.837,8.186,-1.837C8.186,-1.837,3.126,1.839,3.126,1.839C3.126,1.839,5.06,7.786,5.06,7.786C5.06,7.786,0,4.111,0,4.111C0,4.111,-5.06,7.786,-5.06,7.786C-5.06,7.786,-3.126,1.839,-3.126,1.839C-3.126,1.839,-8.186,-1.837,-8.186,-1.837C-8.186,-1.837,-1.932,-1.837,-1.932,-1.837C-1.932,-1.837,0,-7.786,0,-7.786Z"><animate repeatCount="indefinite" attributeName="fill" dur="1.667s" begin="0s" fill="freeze" values="#ced5dd; #ced5dd; #ffffff; #ffffff" keyTimes="0; 0.17; 0.6; 1" keySplines="0 0 1 1; 0.544 0 0.44 1; 0 0 1 1" calcMode="spline" /></path></g></g></g><g><g transform="translate(31.843,8.036)"><g transform="scale(1,1)"><animateTransform repeatCount="indefinite" type="scale" attributeName="transform" dur="1.667s" begin="0s" calcMode="spline" values="1 1; 1 1; 0 0; 1.5 1.5; 1 1; 1 1" keyTimes="0; 0.26; 0.33; 0.48; 0.63; 1" keySplines="0 0 1 1; 0.167 0 0.833 1; 0.333 0 0.667 1; 0.568 0 0.343 1; 0 0 1 1" fill="freeze" /><path fill="#ced5dd" d="M0.001,-7.786C0.001,-7.786,1.932,-1.837,1.932,-1.837C1.932,-1.837,8.186,-1.837,8.186,-1.837C8.186,-1.837,3.128,1.839,3.128,1.839C3.128,1.839,5.06,7.786,5.06,7.786C5.06,7.786,0.001,4.111,0.001,4.111C0.001,4.111,-5.06,7.786,-5.06,7.786C-5.06,7.786,-3.126,1.839,-3.126,1.839C-3.126,1.839,-8.186,-1.837,-8.186,-1.837C-8.186,-1.837,-1.932,-1.837,-1.932,-1.837C-1.932,-1.837,0.001,-7.786,0.001,-7.786Z"><animate repeatCount="indefinite" attributeName="fill" dur="1.667s" begin="0s" fill="freeze" values="#ced5dd; #ced5dd; #ffffff; #ffffff" keyTimes="0; 0.17; 0.6; 1" keySplines="0 0 1 1; 0.544 0 0.44 1; 0 0 1 1" calcMode="spline" /></path></g></g></g><g><g transform="translate(55.25,8.036)"><g transform="scale(1,1)"><animateTransform repeatCount="indefinite" type="scale" attributeName="transform" dur="1.667s" begin="0s" calcMode="spline" values="1 1; 1 1; 0 0; 1.5 1.5; 1 1; 1 1" keyTimes="0; 0.26; 0.36; 0.51; 0.66; 1" keySplines="0 0 1 1; 0.167 0 0.833 1; 0.333 0 0.667 1; 0.568 0 0.343 1; 0 0 1 1" fill="freeze" /><path fill="#ced5dd" d="M0,-7.786C0,-7.786,1.932,-1.837,1.932,-1.837C1.932,-1.837,8.186,-1.837,8.186,-1.837C8.186,-1.837,3.126,1.839,3.126,1.839C3.126,1.839,5.06,7.786,5.06,7.786C5.06,7.786,0,4.111,0,4.111C0,4.111,-5.061,7.786,-5.061,7.786C-5.061,7.786,-3.128,1.839,-3.128,1.839C-3.128,1.839,-8.186,-1.837,-8.186,-1.837C-8.186,-1.837,-1.934,-1.837,-1.934,-1.837C-1.934,-1.837,0,-7.786,0,-7.786Z"><animate repeatCount="indefinite" attributeName="fill" dur="1.667s" begin="0s" fill="freeze" values="#ced5dd; #ced5dd; #ffffff; #ffffff" keyTimes="0; 0.17; 0.6; 1" keySplines="0 0 1 1; 0.544 0 0.44 1; 0 0 1 1" calcMode="spline" /></path></g></g></g><g><g transform="translate(78.657,8.036)"><g transform="scale(1,1)"><animateTransform repeatCount="indefinite" type="scale" attributeName="transform" dur="1.667s" begin="0s" calcMode="spline" values="1 1; 1 1; 0 0; 1.5 1.5; 1 1; 1 1" keyTimes="0; 0.26; 0.39; 0.54; 0.69; 1" keySplines="0 0 1 1; 0.167 0 0.833 1; 0.333 0 0.667 1; 0.568 0 0.343 1; 0 0 1 1" fill="freeze" /><path fill="#ced5dd" d="M0.001,-7.786C0.001,-7.786,1.934,-1.837,1.934,-1.837C1.934,-1.837,8.186,-1.837,8.186,-1.837C8.186,-1.837,3.128,1.839,3.128,1.839C3.128,1.839,5.06,7.786,5.06,7.786C5.06,7.786,0.001,4.111,0.001,4.111C0.001,4.111,-5.06,7.786,-5.06,7.786C-5.06,7.786,-3.126,1.839,-3.126,1.839C-3.126,1.839,-8.186,-1.837,-8.186,-1.837C-8.186,-1.837,-1.932,-1.837,-1.932,-1.837C-1.932,-1.837,0.001,-7.786,0.001,-7.786Z"><animate repeatCount="indefinite" attributeName="fill" dur="1.667s" begin="0s" fill="freeze" values="#ced5dd; #ced5dd; #ffffff; #ffffff" keyTimes="0; 0.17; 0.6; 1" keySplines="0 0 1 1; 0.544 0 0.44 1; 0 0 1 1" calcMode="spline" /></path></g></g></g><g><g transform="translate(102.064,8.036)"><g transform="scale(1,1)"><animateTransform repeatCount="indefinite" type="scale" attributeName="transform" dur="1.667s" begin="0s" calcMode="spline" values="1 1; 1 1; 0 0; 1.5 1.5; 1 1; 1 1" keyTimes="0; 0.26; 0.42; 0.57; 0.72; 1" keySplines="0 0 1 1; 0.167 0 0.833 1; 0.333 0 0.667 1; 0.568 0 0.343 1; 0 0 1 1" fill="freeze" /><path fill="#ced5dd" d="M0,-7.786C0,-7.786,1.932,-1.837,1.932,-1.837C1.932,-1.837,8.186,-1.837,8.186,-1.837C8.186,-1.837,3.126,1.839,3.126,1.839C3.126,1.839,5.06,7.786,5.06,7.786C5.06,7.786,0,4.111,0,4.111C0,4.111,-5.061,7.786,-5.061,7.786C-5.061,7.786,-3.128,1.839,-3.128,1.839C-3.128,1.839,-8.186,-1.837,-8.186,-1.837C-8.186,-1.837,-1.934,-1.837,-1.934,-1.837C-1.934,-1.837,0,-7.786,0,-7.786Z"><animate repeatCount="indefinite" attributeName="fill" dur="1.667s" begin="0s" fill="freeze" values="#ced5dd; #ced5dd; #ffffff; #ffffff" keyTimes="0; 0.17; 0.6; 1" keySplines="0 0 1 1; 0.544 0 0.44 1; 0 0 1 1" calcMode="spline" /></path></g></g></g></g><g transform="matrix(1,0,0,1,351.75,315.75)"><g transform="matrix(1,0,0,1,48.25,48.25)"><path stroke-width="1" stroke="#9fa8b7" fill="#ced5dd" d="M48,0C48,12.45,43.27,23.79,35.49,32.31C26.72,41.95,14.06,48,0,48C-14.06,48,-26.72,41.95,-35.49,32.31C-43.27,23.79,-48,12.45,-48,0C-48,-26.51,-26.51,-48,0,-48C26.51,-48,48,-26.51,48,0Z"><animate repeatCount="indefinite" attributeName="fill" dur="1.667s" begin="0s" fill="freeze" values="#ced5dd; #ced5dd; #ffffff; #ffffff" keyTimes="0; 0.17; 0.6; 1" keySplines="0 0 1 1; 0.544 0 0.44 1; 0 0 1 1" calcMode="spline" /><animate repeatCount="indefinite" attributeName="stroke" dur="1.667s" begin="0s" fill="freeze" values="#9fa8b7; #9fa8b7; #16171b; #16171b" keyTimes="0; 0.17; 0.6; 1" keySplines="0 0 1 1; 0.333 0 0.667 1; 0 0 1 1" calcMode="spline" /></path></g><g transform="matrix(1,0,0,1,48.25,44.75)"><path fill="#7f8793" d="M15.5,0C15.5,8.561,8.561,15.5,0,15.5C-8.561,15.5,-15.5,8.561,-15.5,0C-15.5,-8.561,-8.561,-15.5,0,-15.5C8.561,-15.5,15.5,-8.561,15.5,0Z"><animate repeatCount="indefinite" attributeName="fill" dur="1.667s" begin="0s" fill="freeze" values="#7f8793; #7f8793; #4e5463; #4e5463" keyTimes="0; 0.17; 0.6; 1" keySplines="0 0 1 1; 0.544 0 0.44 1; 0 0 1 1" calcMode="spline" /></path></g><g transform="matrix(1,0,0,1,48.25,80.75)"><path fill="#7f8793" d="M35.49,-0.19C26.719,9.45,14.059,15.5,0,15.5C-14.06,15.5,-26.72,9.45,-35.49,-0.19C-29.67,-9.19,-15.97,-15.5,0,-15.5C15.969,-15.5,29.67,-9.19,35.49,-0.19Z"><animate repeatCount="indefinite" attributeName="fill" dur="1.667s" begin="0s" fill="freeze" values="#7f8793; #7f8793; #4e5463; #4e5463" keyTimes="0; 0.17; 0.6; 1" keySplines="0 0 1 1; 0.544 0 0.44 1; 0 0 1 1" calcMode="spline" /></path></g></g></g></g></g></g></g></g><g id="i14"><animate repeatCount="indefinite" attributeName="opacity" dur="1.667s" begin="0s" fill="freeze" values="1; 1; 0; 0" keyTimes="0; 0.39; 0.4; 1" keySplines="0 0 1 1; 0.333 0 0.667 1; 0 0 1 1" calcMode="spline" /><g transform="translate(400,400)"><animateTransform repeatCount="indefinite" type="translate" attributeName="transform" dur="1.667s" begin="0s" calcMode="spline" values="400 400; 427.81 391.257; 199.668 423; 290 412; 290 412" keyTimes="0; 0.17; 0.4; 0.6; 1" keySplines="0.636 0 0.667 1; 0.333 0 0.667 1; 0.333 0 0.667 1; 0 0 1 1" fill="freeze" /><g transform="rotate(0)"><animateTransform repeatCount="indefinite" type="rotate" attributeName="transform" dur="1.667s" begin="0s" calcMode="spline" values="0; 8; -24; -15; -15" keyTimes="0; 0.17; 0.4; 0.6; 1" keySplines="0.506 0 0.583 1; 0.417 0 0.667 1; 0.333 0 0.667 1; 0 0 1 1" fill="freeze" /><g transform="scale(1,1)"><animateTransform repeatCount="indefinite" type="scale" attributeName="transform" dur="1.667s" begin="0s" calcMode="spline" values="1 1; 1.1 1.1; 0.85 0.85; 0.85 0.85" keyTimes="0; 0.17; 0.6; 1" keySplines="0.466 0 0.667 1; 0.333 0 0.667 1; 0 0 1 1" fill="freeze" /><g transform="translate(-400,-400)"><g clip-path="url(#i0)"><g transform="matrix(1,0,0,1,309.5,276.5)"><g transform="matrix(1,0,0,1,90.5,135)"><path fill="#16171b" d="M64,132.5C64,132.5,-64,132.5,-64,132.5C-77.255,132.5,-88,121.755,-88,108.5C-88,108.5,-88,-108.5,-88,-108.5C-88,-121.755,-77.255,-132.5,-64,-132.5C-64,-132.5,64,-132.5,64,-132.5C77.255,-132.5,88,-121.755,88,-108.5C88,-108.5,88,108.5,88,108.5C88,121.755,77.255,132.5,64,132.5Z"><animate repeatCount="indefinite" attributeName="fill" dur="1.667s" begin="0s" fill="freeze" values="#16171b; #16171b; #9fa8b7; #9fa8b7" keyTimes="0; 0.17; 0.6; 1" keySplines="0 0 1 1; 0.333 0 0.667 1; 0 0 1 1" calcMode="spline" /></path></g></g><g transform="matrix(1,0,0,1,345.25,476.75)"><g transform="matrix(1,0,0,1,54.75,17.25)"><path fill="#ffffff" d="M46.5,17C46.5,17,-46.5,17,-46.5,17C-50.918,17,-54.5,13.418,-54.5,9C-54.5,9,-54.5,-9,-54.5,-9C-54.5,-13.418,-50.918,-17,-46.5,-17C-46.5,-17,46.5,-17,46.5,-17C50.918,-17,54.5,-13.418,54.5,-9C54.5,-9,54.5,9,54.5,9C54.5,13.418,50.918,17,46.5,17Z"><animate repeatCount="indefinite" attributeName="fill" dur="1.667s" begin="0s" fill="freeze" values="#ffffff; #ffffff; #ced5dd; #ced5dd" keyTimes="0; 0.17; 0.6; 1" keySplines="0 0 1 1; 0.625 0 0.411 1; 0 0 1 1" calcMode="spline" /></path></g></g><g transform="matrix(1,0,0,1,344.75,437.692)"><g transform="matrix(1,0,0,1,8.436,8.036)"><path fill="#ffffff" d="M0,-7.786C0,-7.786,1.932,-1.837,1.932,-1.837C1.932,-1.837,8.186,-1.837,8.186,-1.837C8.186,-1.837,3.126,1.839,3.126,1.839C3.126,1.839,5.06,7.786,5.06,7.786C5.06,7.786,0,4.111,0,4.111C0,4.111,-5.06,7.786,-5.06,7.786C-5.06,7.786,-3.126,1.839,-3.126,1.839C-3.126,1.839,-8.186,-1.837,-8.186,-1.837C-8.186,-1.837,-1.932,-1.837,-1.932,-1.837C-1.932,-1.837,0,-7.786,0,-7.786Z"><animate repeatCount="indefinite" attributeName="fill" dur="1.667s" begin="0s" fill="freeze" values="#ffffff; #ffffff; #ced5dd; #ced5dd" keyTimes="0; 0.17; 0.6; 1" keySplines="0 0 1 1; 0.625 0 0.411 1; 0 0 1 1" calcMode="spline" /></path></g><g transform="matrix(1,0,0,1,31.843,8.036)"><path fill="#ffffff" d="M0.001,-7.786C0.001,-7.786,1.932,-1.837,1.932,-1.837C1.932,-1.837,8.186,-1.837,8.186,-1.837C8.186,-1.837,3.128,1.839,3.128,1.839C3.128,1.839,5.06,7.786,5.06,7.786C5.06,7.786,0.001,4.111,0.001,4.111C0.001,4.111,-5.06,7.786,-5.06,7.786C-5.06,7.786,-3.126,1.839,-3.126,1.839C-3.126,1.839,-8.186,-1.837,-8.186,-1.837C-8.186,-1.837,-1.932,-1.837,-1.932,-1.837C-1.932,-1.837,0.001,-7.786,0.001,-7.786Z"><animate repeatCount="indefinite" attributeName="fill" dur="1.667s" begin="0s" fill="freeze" values="#ffffff; #ffffff; #ced5dd; #ced5dd" keyTimes="0; 0.17; 0.6; 1" keySplines="0 0 1 1; 0.625 0 0.411 1; 0 0 1 1" calcMode="spline" /></path></g><g transform="matrix(1,0,0,1,55.25,8.036)"><path fill="#ffffff" d="M0,-7.786C0,-7.786,1.932,-1.837,1.932,-1.837C1.932,-1.837,8.186,-1.837,8.186,-1.837C8.186,-1.837,3.126,1.839,3.126,1.839C3.126,1.839,5.06,7.786,5.06,7.786C5.06,7.786,0,4.111,0,4.111C0,4.111,-5.061,7.786,-5.061,7.786C-5.061,7.786,-3.128,1.839,-3.128,1.839C-3.128,1.839,-8.186,-1.837,-8.186,-1.837C-8.186,-1.837,-1.934,-1.837,-1.934,-1.837C-1.934,-1.837,0,-7.786,0,-7.786Z"><animate repeatCount="indefinite" attributeName="fill" dur="1.667s" begin="0s" fill="freeze" values="#ffffff; #ffffff; #ced5dd; #ced5dd" keyTimes="0; 0.17; 0.6; 1" keySplines="0 0 1 1; 0.625 0 0.411 1; 0 0 1 1" calcMode="spline" /></path></g><g transform="matrix(1,0,0,1,78.657,8.036)"><path fill="#ffffff" d="M0.001,-7.786C0.001,-7.786,1.934,-1.837,1.934,-1.837C1.934,-1.837,8.186,-1.837,8.186,-1.837C8.186,-1.837,3.128,1.839,3.128,1.839C3.128,1.839,5.06,7.786,5.06,7.786C5.06,7.786,0.001,4.111,0.001,4.111C0.001,4.111,-5.06,7.786,-5.06,7.786C-5.06,7.786,-3.126,1.839,-3.126,1.839C-3.126,1.839,-8.186,-1.837,-8.186,-1.837C-8.186,-1.837,-1.932,-1.837,-1.932,-1.837C-1.932,-1.837,0.001,-7.786,0.001,-7.786Z"><animate repeatCount="indefinite" attributeName="fill" dur="1.667s" begin="0s" fill="freeze" values="#ffffff; #ffffff; #ced5dd; #ced5dd" keyTimes="0; 0.17; 0.6; 1" keySplines="0 0 1 1; 0.625 0 0.411 1; 0 0 1 1" calcMode="spline" /></path></g><g transform="matrix(1,0,0,1,102.064,8.036)"><path fill="#ffffff" d="M0,-7.786C0,-7.786,1.932,-1.837,1.932,-1.837C1.932,-1.837,8.186,-1.837,8.186,-1.837C8.186,-1.837,3.126,1.839,3.126,1.839C3.126,1.839,5.06,7.786,5.06,7.786C5.06,7.786,0,4.111,0,4.111C0,4.111,-5.061,7.786,-5.061,7.786C-5.061,7.786,-3.128,1.839,-3.128,1.839C-3.128,1.839,-8.186,-1.837,-8.186,-1.837C-8.186,-1.837,-1.934,-1.837,-1.934,-1.837C-1.934,-1.837,0,-7.786,0,-7.786Z"><animate repeatCount="indefinite" attributeName="fill" dur="1.667s" begin="0s" fill="freeze" values="#ffffff; #ffffff; #ced5dd; #ced5dd" keyTimes="0; 0.17; 0.6; 1" keySplines="0 0 1 1; 0.625 0 0.411 1; 0 0 1 1" calcMode="spline" /></path></g></g><g transform="matrix(1,0,0,1,351.75,315.75)"><g transform="matrix(1,0,0,1,48.25,48.25)"><path stroke-width="1" stroke="#16171b" fill="#ffffff" d="M48,0C48,12.45,43.27,23.79,35.49,32.31C26.72,41.95,14.06,48,0,48C-14.06,48,-26.72,41.95,-35.49,32.31C-43.27,23.79,-48,12.45,-48,0C-48,-26.51,-26.51,-48,0,-48C26.51,-48,48,-26.51,48,0Z"><animate repeatCount="indefinite" attributeName="fill" dur="1.667s" begin="0s" fill="freeze" values="#ffffff; #ffffff; #ced5dd; #ced5dd" keyTimes="0; 0.17; 0.6; 1" keySplines="0 0 1 1; 0.625 0 0.411 1; 0 0 1 1" calcMode="spline" /><animate repeatCount="indefinite" attributeName="stroke" dur="1.667s" begin="0s" fill="freeze" values="#16171b; #16171b; #9fa8b7; #9fa8b7" keyTimes="0; 0.17; 0.6; 1" keySplines="0 0 1 1; 0.333 0 0.667 1; 0 0 1 1" calcMode="spline" /></path></g><g transform="matrix(1,0,0,1,48.25,44.75)"><path fill="#4e5463" d="M15.5,0C15.5,8.561,8.561,15.5,0,15.5C-8.561,15.5,-15.5,8.561,-15.5,0C-15.5,-8.561,-8.561,-15.5,0,-15.5C8.561,-15.5,15.5,-8.561,15.5,0Z"><animate repeatCount="indefinite" attributeName="fill" dur="1.667s" begin="0s" fill="freeze" values="#4e5463; #4e5463; #7f8793; #7f8793" keyTimes="0; 0.17; 0.6; 1" keySplines="0 0 1 1; 0.625 0 0.411 1; 0 0 1 1" calcMode="spline" /></path></g><g transform="matrix(1,0,0,1,48.25,80.75)"><path fill="#4e5463" d="M35.49,-0.19C26.719,9.45,14.059,15.5,0,15.5C-14.06,15.5,-26.72,9.45,-35.49,-0.19C-29.67,-9.19,-15.97,-15.5,0,-15.5C15.969,-15.5,29.67,-9.19,35.49,-0.19Z"><animate repeatCount="indefinite" attributeName="fill" dur="1.667s" begin="0s" fill="freeze" values="#4e5463; #4e5463; #7f8793; #7f8793" keyTimes="0; 0.17; 0.6; 1" keySplines="0 0 1 1; 0.625 0 0.411 1; 0 0 1 1" calcMode="spline" /></path></g></g></g></g></g></g></g></g></g><clipPath id="i17"><path d="M659.698,360.712C659.698,378.538,589.282,433.331,584.732,449.711C562.255,530.622,488.05,590,399.974,590C311.898,590,237.742,530.608,215.215,449.711C210.655,433.334,178.802,371.436,178.802,353.61C178.802,247.707,294.071,206.5,399.974,206.5C505.877,206.5,659.698,254.809,659.698,360.712Z"><animate repeatCount="indefinite" begin="0s" keySplines="0 0 1 1; 0 0 1 1; 0 0 1 1; 0 0 1 1" calcMode="spline" fill="freeze" dur="1.667s" keyTimes="0; 0.07; 0.41; 0.49; 1" values="M659.698,360.712C659.698,378.538,589.282,433.331,584.732,449.711C562.255,530.622,488.05,590,399.974,590C311.898,590,237.742,530.608,215.215,449.711C210.655,433.334,178.802,371.436,178.802,353.61C178.802,247.707,294.071,206.5,399.974,206.5C505.877,206.5,659.698,254.809,659.698,360.712Z; M658,360.959C658,378.667,588.048,433.1,583.528,449.372C561.199,529.75,487.483,588.737,399.987,588.737C312.491,588.737,238.824,529.736,216.445,449.372C211.915,433.103,209.5,415.958,209.5,398.25C209.5,293.045,294.782,207.763,399.987,207.763C505.192,207.763,658,255.754,658,360.959Z; M658,360.959C658,378.667,588.048,433.1,583.528,449.372C561.199,529.75,487.483,588.737,399.987,588.737C312.491,588.737,238.824,529.736,216.445,449.372C211.915,433.103,209.5,415.958,209.5,398.25C209.5,293.045,294.782,207.763,399.987,207.763C505.192,207.763,658,255.754,658,360.959Z; M659,360.854C659,378.612,588.852,433.199,584.319,449.516C561.927,530.12,488.003,589.271,400.262,589.271C312.521,589.271,238.647,530.106,216.205,449.516C211.662,433.201,195.416,397.211,188.016,381.068C139.25,274.692,294.762,207.229,400.262,207.229C505.762,207.229,659,255.354,659,360.854Z; M659,360.854C659,378.612,588.852,433.199,584.319,449.516C561.927,530.12,488.003,589.271,400.262,589.271C312.521,589.271,238.647,530.106,216.205,449.516C211.662,433.201,195.416,397.211,188.016,381.068C139.25,274.692,294.762,207.229,400.262,207.229C505.762,207.229,659,255.354,659,360.854Z" attributeName="d" /></path></clipPath></defs><g transform="matrix(1,0,0,1,60.75,60.75)" id="i18"><g id="i3" transform="matrix(1,0,0,1,189.25,189.25)"><path fill="#e8eaf0" d="M189,0C189,17.57,186.604,34.581,182.109,50.723C159.954,130.474,86.813,189,0,189C-86.813,189,-159.954,130.474,-182.109,50.723C-186.604,34.581,-189,17.57,-189,0C-189,-104.384,-104.384,-189,0,-189C104.384,-189,189,-104.384,189,0Z" /></g></g><g transform="matrix(1,0,0,1,-150,-150)" id="i19"><g clip-path="url(#i17)" id="i20"><g clip-path="url(#i0)"><g opacity="0"><animate repeatCount="indefinite" attributeName="opacity" dur="1.667s" begin="0s" fill="freeze" values="0; 0; 1; 1" keyTimes="0; 0.39; 0.4; 1" keySplines="0 0 1 1; 0.333 0 0.667 1; 0 0 1 1" calcMode="spline" /><g transform="translate(400,400)"><animateTransform repeatCount="indefinite" type="translate" attributeName="transform" dur="1.667s" begin="0s" calcMode="spline" values="400 400; 400 400; 199.668 423; 308 412; 290 412; 290 412" keyTimes="0; 0.17; 0.4; 0.6; 0.81; 1" keySplines="0 0 1 1; 0.333 0 0.667 1; 0.333 0 0.667 1; 0.333 0 0.484 1; 0 0 1 1" fill="freeze" /><g transform="rotate(0)"><animateTransform repeatCount="indefinite" type="rotate" attributeName="transform" dur="1.667s" begin="0s" calcMode="spline" values="0; 0; -24; -9; -15; -15" keyTimes="0; 0.17; 0.4; 0.6; 0.81; 1" keySplines="0 0 1 1; 0.333 0 0.667 1; 0.333 0 0.667 1; 0.333 0 0.484 1; 0 0 1 1" fill="freeze" /><g transform="scale(1,1)"><animateTransform repeatCount="indefinite" type="scale" attributeName="transform" dur="1.667s" begin="0s" calcMode="spline" values="1 1; 1 1; 0.85 0.85; 0.85 0.85" keyTimes="0; 0.17; 0.6; 1" keySplines="0 0 1 1; 0.333 0 0.667 1; 0 0 1 1" fill="freeze" /><g transform="translate(-400,-400)"><g clip-path="url(#i0)"><g transform="matrix(1,0,0,1,309.5,276.5)"><g transform="matrix(1,0,0,1,90.5,135)"><path fill="#16171b" d="M64,132.5C64,132.5,-64,132.5,-64,132.5C-77.255,132.5,-88,121.755,-88,108.5C-88,108.5,-88,-108.5,-88,-108.5C-88,-121.755,-77.255,-132.5,-64,-132.5C-64,-132.5,64,-132.5,64,-132.5C77.255,-132.5,88,-121.755,88,-108.5C88,-108.5,88,108.5,88,108.5C88,121.755,77.255,132.5,64,132.5Z"><animate repeatCount="indefinite" attributeName="fill" dur="1.667s" begin="0s" fill="freeze" values="#16171b; #16171b; #9fa8b7; #9fa8b7" keyTimes="0; 0.17; 0.6; 1" keySplines="0 0 1 1; 0.333 0 0.667 1; 0 0 1 1" calcMode="spline" /></path></g></g><g transform="matrix(1,0,0,1,345.25,476.75)"><g transform="matrix(1,0,0,1,54.75,17.25)"><path fill="#ffffff" d="M46.5,17C46.5,17,-46.5,17,-46.5,17C-50.918,17,-54.5,13.418,-54.5,9C-54.5,9,-54.5,-9,-54.5,-9C-54.5,-13.418,-50.918,-17,-46.5,-17C-46.5,-17,46.5,-17,46.5,-17C50.918,-17,54.5,-13.418,54.5,-9C54.5,-9,54.5,9,54.5,9C54.5,13.418,50.918,17,46.5,17Z"><animate repeatCount="indefinite" attributeName="fill" dur="1.667s" begin="0s" fill="freeze" values="#ffffff; #ffffff; #ced5dd; #ced5dd" keyTimes="0; 0.17; 0.6; 1" keySplines="0 0 1 1; 0.625 0 0.411 1; 0 0 1 1" calcMode="spline" /></path></g></g><g transform="matrix(1,0,0,1,344.75,437.692)"><g transform="matrix(1,0,0,1,8.436,8.036)"><path fill="#ffffff" d="M0,-7.786C0,-7.786,1.932,-1.837,1.932,-1.837C1.932,-1.837,8.186,-1.837,8.186,-1.837C8.186,-1.837,3.126,1.839,3.126,1.839C3.126,1.839,5.06,7.786,5.06,7.786C5.06,7.786,0,4.111,0,4.111C0,4.111,-5.06,7.786,-5.06,7.786C-5.06,7.786,-3.126,1.839,-3.126,1.839C-3.126,1.839,-8.186,-1.837,-8.186,-1.837C-8.186,-1.837,-1.932,-1.837,-1.932,-1.837C-1.932,-1.837,0,-7.786,0,-7.786Z"><animate repeatCount="indefinite" attributeName="fill" dur="1.667s" begin="0s" fill="freeze" values="#ffffff; #ffffff; #ced5dd; #ced5dd" keyTimes="0; 0.17; 0.6; 1" keySplines="0 0 1 1; 0.625 0 0.411 1; 0 0 1 1" calcMode="spline" /></path></g><g transform="matrix(1,0,0,1,31.843,8.036)"><path fill="#ffffff" d="M0.001,-7.786C0.001,-7.786,1.932,-1.837,1.932,-1.837C1.932,-1.837,8.186,-1.837,8.186,-1.837C8.186,-1.837,3.128,1.839,3.128,1.839C3.128,1.839,5.06,7.786,5.06,7.786C5.06,7.786,0.001,4.111,0.001,4.111C0.001,4.111,-5.06,7.786,-5.06,7.786C-5.06,7.786,-3.126,1.839,-3.126,1.839C-3.126,1.839,-8.186,-1.837,-8.186,-1.837C-8.186,-1.837,-1.932,-1.837,-1.932,-1.837C-1.932,-1.837,0.001,-7.786,0.001,-7.786Z"><animate repeatCount="indefinite" attributeName="fill" dur="1.667s" begin="0s" fill="freeze" values="#ffffff; #ffffff; #ced5dd; #ced5dd" keyTimes="0; 0.17; 0.6; 1" keySplines="0 0 1 1; 0.625 0 0.411 1; 0 0 1 1" calcMode="spline" /></path></g><g transform="matrix(1,0,0,1,55.25,8.036)"><path fill="#ffffff" d="M0,-7.786C0,-7.786,1.932,-1.837,1.932,-1.837C1.932,-1.837,8.186,-1.837,8.186,-1.837C8.186,-1.837,3.126,1.839,3.126,1.839C3.126,1.839,5.06,7.786,5.06,7.786C5.06,7.786,0,4.111,0,4.111C0,4.111,-5.061,7.786,-5.061,7.786C-5.061,7.786,-3.128,1.839,-3.128,1.839C-3.128,1.839,-8.186,-1.837,-8.186,-1.837C-8.186,-1.837,-1.934,-1.837,-1.934,-1.837C-1.934,-1.837,0,-7.786,0,-7.786Z"><animate repeatCount="indefinite" attributeName="fill" dur="1.667s" begin="0s" fill="freeze" values="#ffffff; #ffffff; #ced5dd; #ced5dd" keyTimes="0; 0.17; 0.6; 1" keySplines="0 0 1 1; 0.625 0 0.411 1; 0 0 1 1" calcMode="spline" /></path></g><g transform="matrix(1,0,0,1,78.657,8.036)"><path fill="#ffffff" d="M0.001,-7.786C0.001,-7.786,1.934,-1.837,1.934,-1.837C1.934,-1.837,8.186,-1.837,8.186,-1.837C8.186,-1.837,3.128,1.839,3.128,1.839C3.128,1.839,5.06,7.786,5.06,7.786C5.06,7.786,0.001,4.111,0.001,4.111C0.001,4.111,-5.06,7.786,-5.06,7.786C-5.06,7.786,-3.126,1.839,-3.126,1.839C-3.126,1.839,-8.186,-1.837,-8.186,-1.837C-8.186,-1.837,-1.932,-1.837,-1.932,-1.837C-1.932,-1.837,0.001,-7.786,0.001,-7.786Z"><animate repeatCount="indefinite" attributeName="fill" dur="1.667s" begin="0s" fill="freeze" values="#ffffff; #ffffff; #ced5dd; #ced5dd" keyTimes="0; 0.17; 0.6; 1" keySplines="0 0 1 1; 0.625 0 0.411 1; 0 0 1 1" calcMode="spline" /></path></g><g transform="matrix(1,0,0,1,102.064,8.036)"><path fill="#ffffff" d="M0,-7.786C0,-7.786,1.932,-1.837,1.932,-1.837C1.932,-1.837,8.186,-1.837,8.186,-1.837C8.186,-1.837,3.126,1.839,3.126,1.839C3.126,1.839,5.06,7.786,5.06,7.786C5.06,7.786,0,4.111,0,4.111C0,4.111,-5.061,7.786,-5.061,7.786C-5.061,7.786,-3.128,1.839,-3.128,1.839C-3.128,1.839,-8.186,-1.837,-8.186,-1.837C-8.186,-1.837,-1.934,-1.837,-1.934,-1.837C-1.934,-1.837,0,-7.786,0,-7.786Z"><animate repeatCount="indefinite" attributeName="fill" dur="1.667s" begin="0s" fill="freeze" values="#ffffff; #ffffff; #ced5dd; #ced5dd" keyTimes="0; 0.17; 0.6; 1" keySplines="0 0 1 1; 0.625 0 0.411 1; 0 0 1 1" calcMode="spline" /></path></g></g><g transform="matrix(1,0,0,1,351.75,315.75)"><g transform="matrix(1,0,0,1,48.25,48.25)"><path stroke-width="1" stroke="#16171b" fill="#ffffff" d="M48,0C48,12.45,43.27,23.79,35.49,32.31C26.72,41.95,14.06,48,0,48C-14.06,48,-26.72,41.95,-35.49,32.31C-43.27,23.79,-48,12.45,-48,0C-48,-26.51,-26.51,-48,0,-48C26.51,-48,48,-26.51,48,0Z"><animate repeatCount="indefinite" attributeName="fill" dur="1.667s" begin="0s" fill="freeze" values="#ffffff; #ffffff; #ced5dd; #ced5dd" keyTimes="0; 0.17; 0.6; 1" keySplines="0 0 1 1; 0.625 0 0.411 1; 0 0 1 1" calcMode="spline" /><animate repeatCount="indefinite" attributeName="stroke" dur="1.667s" begin="0s" fill="freeze" values="#16171b; #16171b; #9fa8b7; #9fa8b7" keyTimes="0; 0.17; 0.6; 1" keySplines="0 0 1 1; 0.333 0 0.667 1; 0 0 1 1" calcMode="spline" /></path></g><g transform="matrix(1,0,0,1,48.25,44.75)"><path fill="#4e5463" d="M15.5,0C15.5,8.561,8.561,15.5,0,15.5C-8.561,15.5,-15.5,8.561,-15.5,0C-15.5,-8.561,-8.561,-15.5,0,-15.5C8.561,-15.5,15.5,-8.561,15.5,0Z"><animate repeatCount="indefinite" attributeName="fill" dur="1.667s" begin="0s" fill="freeze" values="#4e5463; #4e5463; #7f8793; #7f8793" keyTimes="0; 0.17; 0.6; 1" keySplines="0 0 1 1; 0.625 0 0.411 1; 0 0 1 1" calcMode="spline" /></path></g><g transform="matrix(1,0,0,1,48.25,80.75)"><path fill="#4e5463" d="M35.49,-0.19C26.719,9.45,14.059,15.5,0,15.5C-14.06,15.5,-26.72,9.45,-35.49,-0.19C-29.67,-9.19,-15.97,-15.5,0,-15.5C15.969,-15.5,29.67,-9.19,35.49,-0.19Z"><animate repeatCount="indefinite" attributeName="fill" dur="1.667s" begin="0s" fill="freeze" values="#4e5463; #4e5463; #7f8793; #7f8793" keyTimes="0; 0.17; 0.6; 1" keySplines="0 0 1 1; 0.625 0 0.411 1; 0 0 1 1" calcMode="spline" /></path></g></g></g></g></g></g></g></g><g><g transform="translate(290,412)"><animateTransform repeatCount="indefinite" type="translate" attributeName="transform" dur="1.667s" begin="0s" calcMode="spline" values="290 412; 290 412; 510 412; 510 412" keyTimes="0; 0.17; 0.6; 1" keySplines="0 0 1 1; 0.333 0 0.44 0.89; 0 0 1 1" fill="freeze" /><g transform="rotate(-15)"><animateTransform repeatCount="indefinite" type="rotate" attributeName="transform" dur="1.667s" begin="0s" calcMode="spline" values="-15; -15; 15; 15" keyTimes="0; 0.17; 0.6; 1" keySplines="0 0 1 1; 0.333 0 0.44 0.197; 0 0 1 1" fill="freeze" /><g transform="scale(0.85,0.85) translate(-400,-400)"><g clip-path="url(#i0)"><g transform="matrix(1,0,0,1,309.5,276.5)"><g transform="matrix(1,0,0,1,90.5,135)"><path fill="#9fa8b7" d="M64,132.5C64,132.5,-64,132.5,-64,132.5C-77.255,132.5,-88,121.755,-88,108.5C-88,108.5,-88,-108.5,-88,-108.5C-88,-121.755,-77.255,-132.5,-64,-132.5C-64,-132.5,64,-132.5,64,-132.5C77.255,-132.5,88,-121.755,88,-108.5C88,-108.5,88,108.5,88,108.5C88,121.755,77.255,132.5,64,132.5Z" /></g></g><g transform="matrix(1,0,0,1,345.25,476.75)"><g transform="matrix(1,0,0,1,54.75,17.25)"><path fill="#ced5dd" d="M46.5,17C46.5,17,-46.5,17,-46.5,17C-50.918,17,-54.5,13.418,-54.5,9C-54.5,9,-54.5,-9,-54.5,-9C-54.5,-13.418,-50.918,-17,-46.5,-17C-46.5,-17,46.5,-17,46.5,-17C50.918,-17,54.5,-13.418,54.5,-9C54.5,-9,54.5,9,54.5,9C54.5,13.418,50.918,17,46.5,17Z" /></g></g><g transform="matrix(1,0,0,1,344.75,437.692)"><g transform="matrix(1,0,0,1,8.436,8.036)"><path fill="#ced5dd" d="M0,-7.786C0,-7.786,1.932,-1.837,1.932,-1.837C1.932,-1.837,8.186,-1.837,8.186,-1.837C8.186,-1.837,3.126,1.839,3.126,1.839C3.126,1.839,5.06,7.786,5.06,7.786C5.06,7.786,0,4.111,0,4.111C0,4.111,-5.06,7.786,-5.06,7.786C-5.06,7.786,-3.126,1.839,-3.126,1.839C-3.126,1.839,-8.186,-1.837,-8.186,-1.837C-8.186,-1.837,-1.932,-1.837,-1.932,-1.837C-1.932,-1.837,0,-7.786,0,-7.786Z" /></g><g transform="matrix(1,0,0,1,31.843,8.036)"><path fill="#ced5dd" d="M0.001,-7.786C0.001,-7.786,1.932,-1.837,1.932,-1.837C1.932,-1.837,8.186,-1.837,8.186,-1.837C8.186,-1.837,3.128,1.839,3.128,1.839C3.128,1.839,5.06,7.786,5.06,7.786C5.06,7.786,0.001,4.111,0.001,4.111C0.001,4.111,-5.06,7.786,-5.06,7.786C-5.06,7.786,-3.126,1.839,-3.126,1.839C-3.126,1.839,-8.186,-1.837,-8.186,-1.837C-8.186,-1.837,-1.932,-1.837,-1.932,-1.837C-1.932,-1.837,0.001,-7.786,0.001,-7.786Z" /></g><g transform="matrix(1,0,0,1,55.25,8.036)"><path fill="#ced5dd" d="M0,-7.786C0,-7.786,1.932,-1.837,1.932,-1.837C1.932,-1.837,8.186,-1.837,8.186,-1.837C8.186,-1.837,3.126,1.839,3.126,1.839C3.126,1.839,5.06,7.786,5.06,7.786C5.06,7.786,0,4.111,0,4.111C0,4.111,-5.061,7.786,-5.061,7.786C-5.061,7.786,-3.128,1.839,-3.128,1.839C-3.128,1.839,-8.186,-1.837,-8.186,-1.837C-8.186,-1.837,-1.934,-1.837,-1.934,-1.837C-1.934,-1.837,0,-7.786,0,-7.786Z" /></g><g transform="matrix(1,0,0,1,78.657,8.036)"><path fill="#ced5dd" d="M0.001,-7.786C0.001,-7.786,1.934,-1.837,1.934,-1.837C1.934,-1.837,8.186,-1.837,8.186,-1.837C8.186,-1.837,3.128,1.839,3.128,1.839C3.128,1.839,5.06,7.786,5.06,7.786C5.06,7.786,0.001,4.111,0.001,4.111C0.001,4.111,-5.06,7.786,-5.06,7.786C-5.06,7.786,-3.126,1.839,-3.126,1.839C-3.126,1.839,-8.186,-1.837,-8.186,-1.837C-8.186,-1.837,-1.932,-1.837,-1.932,-1.837C-1.932,-1.837,0.001,-7.786,0.001,-7.786Z" /></g><g transform="matrix(1,0,0,1,102.064,8.036)"><path fill="#ced5dd" d="M0,-7.786C0,-7.786,1.932,-1.837,1.932,-1.837C1.932,-1.837,8.186,-1.837,8.186,-1.837C8.186,-1.837,3.126,1.839,3.126,1.839C3.126,1.839,5.06,7.786,5.06,7.786C5.06,7.786,0,4.111,0,4.111C0,4.111,-5.061,7.786,-5.061,7.786C-5.061,7.786,-3.128,1.839,-3.128,1.839C-3.128,1.839,-8.186,-1.837,-8.186,-1.837C-8.186,-1.837,-1.934,-1.837,-1.934,-1.837C-1.934,-1.837,0,-7.786,0,-7.786Z" /></g></g><g transform="matrix(1,0,0,1,351.75,315.75)"><g transform="matrix(1,0,0,1,48.25,48.25)"><path stroke-width="1" stroke="#9fa8b7" fill="#ced5dd" d="M48,0C48,12.45,43.27,23.79,35.49,32.31C26.72,41.95,14.06,48,0,48C-14.06,48,-26.72,41.95,-35.49,32.31C-43.27,23.79,-48,12.45,-48,0C-48,-26.51,-26.51,-48,0,-48C26.51,-48,48,-26.51,48,0Z" /></g><g transform="matrix(1,0,0,1,48.25,44.75)"><path fill="#7f8793" d="M15.5,0C15.5,8.561,8.561,15.5,0,15.5C-8.561,15.5,-15.5,8.561,-15.5,0C-15.5,-8.561,-8.561,-15.5,0,-15.5C8.561,-15.5,15.5,-8.561,15.5,0Z" /></g><g transform="matrix(1,0,0,1,48.25,80.75)"><path fill="#7f8793" d="M35.49,-0.19C26.719,9.45,14.059,15.5,0,15.5C-14.06,15.5,-26.72,9.45,-35.49,-0.19C-29.67,-9.19,-15.97,-15.5,0,-15.5C15.969,-15.5,29.67,-9.19,35.49,-0.19Z" /></g></g></g></g></g></g></g><g><g transform="translate(510,412)"><animateTransform repeatCount="indefinite" type="translate" attributeName="transform" dur="1.667s" begin="0s" calcMode="spline" values="510 412; 510 412; 400 400; 400 400" keyTimes="0; 0.17; 0.4; 1" keySplines="0 0 1 1; 0.333 0 0.667 1; 0 0 1 1" fill="freeze" /><g transform="rotate(15)"><animateTransform repeatCount="indefinite" type="rotate" attributeName="transform" dur="1.667s" begin="0s" calcMode="spline" values="15; 15; 0; 0" keyTimes="0; 0.17; 0.4; 1" keySplines="0 0 1 1; 0.333 0 0.667 1; 0 0 1 1" fill="freeze" /><g transform="scale(0.85,0.85)"><animateTransform repeatCount="indefinite" type="scale" attributeName="transform" dur="1.667s" begin="0s" calcMode="spline" values="0.85 0.85; 0.85 0.85; 1.09 1.09; 1 1; 1 1" keyTimes="0; 0.17; 0.4; 0.6; 1" keySplines="0 0 1 1; 0.333 0 0.667 1; 0.269 0 0.432 1; 0 0 1 1" fill="freeze" /><g transform="translate(-400,-400)"><g clip-path="url(#i0)"><g transform="matrix(1,0,0,1,309.5,276.5)"><g transform="matrix(1,0,0,1,90.5,135)"><path fill="#9fa8b7" d="M64,132.5C64,132.5,-64,132.5,-64,132.5C-77.255,132.5,-88,121.755,-88,108.5C-88,108.5,-88,-108.5,-88,-108.5C-88,-121.755,-77.255,-132.5,-64,-132.5C-64,-132.5,64,-132.5,64,-132.5C77.255,-132.5,88,-121.755,88,-108.5C88,-108.5,88,108.5,88,108.5C88,121.755,77.255,132.5,64,132.5Z"><animate repeatCount="indefinite" attributeName="fill" dur="1.667s" begin="0s" fill="freeze" values="#9fa8b7; #9fa8b7; #16171b; #16171b" keyTimes="0; 0.17; 0.6; 1" keySplines="0 0 1 1; 0.333 0 0.667 1; 0 0 1 1" calcMode="spline" /></path></g></g><g><g transform="translate(400,494)"><g transform="scale(1,1)"><animateTransform repeatCount="indefinite" type="scale" attributeName="transform" dur="1.667s" begin="0s" calcMode="spline" values="1 1; 1 1; 1.04 1.04; 0.963 0.963; 1.06 1.06; 1 1; 1 1" keyTimes="0; 0.37; 0.55; 0.68; 0.81; 0.98; 1" keySplines="0 0 1 1; 0.755 0 0.826 1; 0.461 0 0.667 1; 0.333 0 0.646 1; 0.197 0 0.25 1; 0 0 1 1" fill="freeze" /><g transform="translate(-54.75,-17.25)"><g transform="matrix(1,0,0,1,54.75,17.25)"><path fill="#ced5dd" d="M46.5,17C46.5,17,-46.5,17,-46.5,17C-50.918,17,-54.5,13.418,-54.5,9C-54.5,9,-54.5,-9,-54.5,-9C-54.5,-13.418,-50.918,-17,-46.5,-17C-46.5,-17,46.5,-17,46.5,-17C50.918,-17,54.5,-13.418,54.5,-9C54.5,-9,54.5,9,54.5,9C54.5,13.418,50.918,17,46.5,17Z"><animate repeatCount="indefinite" attributeName="fill" dur="1.667s" begin="0s" fill="freeze" values="#ced5dd; #ced5dd; #ffffff; #ffffff" keyTimes="0; 0.17; 0.6; 1" keySplines="0 0 1 1; 0.544 0 0.44 1; 0 0 1 1" calcMode="spline" /></path></g></g></g></g></g><g transform="matrix(1,0,0,1,344.75,437.692)"><g><g transform="translate(8.436,8.036)"><g transform="scale(1,1)"><animateTransform repeatCount="indefinite" type="scale" attributeName="transform" dur="1.667s" begin="0s" calcMode="spline" values="1 1; 1 1; 0 0; 1.5 1.5; 1 1; 1 1" keyTimes="0; 0.26; 0.3; 0.45; 0.6; 1" keySplines="0 0 1 1; 0.167 0 0.833 1; 0.333 0 0.667 1; 0.568 0 0.343 1; 0 0 1 1" fill="freeze" /><path fill="#ced5dd" d="M0,-7.786C0,-7.786,1.932,-1.837,1.932,-1.837C1.932,-1.837,8.186,-1.837,8.186,-1.837C8.186,-1.837,3.126,1.839,3.126,1.839C3.126,1.839,5.06,7.786,5.06,7.786C5.06,7.786,0,4.111,0,4.111C0,4.111,-5.06,7.786,-5.06,7.786C-5.06,7.786,-3.126,1.839,-3.126,1.839C-3.126,1.839,-8.186,-1.837,-8.186,-1.837C-8.186,-1.837,-1.932,-1.837,-1.932,-1.837C-1.932,-1.837,0,-7.786,0,-7.786Z"><animate repeatCount="indefinite" attributeName="fill" dur="1.667s" begin="0s" fill="freeze" values="#ced5dd; #ced5dd; #ffffff; #ffffff" keyTimes="0; 0.17; 0.6; 1" keySplines="0 0 1 1; 0.544 0 0.44 1; 0 0 1 1" calcMode="spline" /></path></g></g></g><g><g transform="translate(31.843,8.036)"><g transform="scale(1,1)"><animateTransform repeatCount="indefinite" type="scale" attributeName="transform" dur="1.667s" begin="0s" calcMode="spline" values="1 1; 1 1; 0 0; 1.5 1.5; 1 1; 1 1" keyTimes="0; 0.26; 0.33; 0.48; 0.63; 1" keySplines="0 0 1 1; 0.167 0 0.833 1; 0.333 0 0.667 1; 0.568 0 0.343 1; 0 0 1 1" fill="freeze" /><path fill="#ced5dd" d="M0.001,-7.786C0.001,-7.786,1.932,-1.837,1.932,-1.837C1.932,-1.837,8.186,-1.837,8.186,-1.837C8.186,-1.837,3.128,1.839,3.128,1.839C3.128,1.839,5.06,7.786,5.06,7.786C5.06,7.786,0.001,4.111,0.001,4.111C0.001,4.111,-5.06,7.786,-5.06,7.786C-5.06,7.786,-3.126,1.839,-3.126,1.839C-3.126,1.839,-8.186,-1.837,-8.186,-1.837C-8.186,-1.837,-1.932,-1.837,-1.932,-1.837C-1.932,-1.837,0.001,-7.786,0.001,-7.786Z"><animate repeatCount="indefinite" attributeName="fill" dur="1.667s" begin="0s" fill="freeze" values="#ced5dd; #ced5dd; #ffffff; #ffffff" keyTimes="0; 0.17; 0.6; 1" keySplines="0 0 1 1; 0.544 0 0.44 1; 0 0 1 1" calcMode="spline" /></path></g></g></g><g><g transform="translate(55.25,8.036)"><g transform="scale(1,1)"><animateTransform repeatCount="indefinite" type="scale" attributeName="transform" dur="1.667s" begin="0s" calcMode="spline" values="1 1; 1 1; 0 0; 1.5 1.5; 1 1; 1 1" keyTimes="0; 0.26; 0.36; 0.51; 0.66; 1" keySplines="0 0 1 1; 0.167 0 0.833 1; 0.333 0 0.667 1; 0.568 0 0.343 1; 0 0 1 1" fill="freeze" /><path fill="#ced5dd" d="M0,-7.786C0,-7.786,1.932,-1.837,1.932,-1.837C1.932,-1.837,8.186,-1.837,8.186,-1.837C8.186,-1.837,3.126,1.839,3.126,1.839C3.126,1.839,5.06,7.786,5.06,7.786C5.06,7.786,0,4.111,0,4.111C0,4.111,-5.061,7.786,-5.061,7.786C-5.061,7.786,-3.128,1.839,-3.128,1.839C-3.128,1.839,-8.186,-1.837,-8.186,-1.837C-8.186,-1.837,-1.934,-1.837,-1.934,-1.837C-1.934,-1.837,0,-7.786,0,-7.786Z"><animate repeatCount="indefinite" attributeName="fill" dur="1.667s" begin="0s" fill="freeze" values="#ced5dd; #ced5dd; #ffffff; #ffffff" keyTimes="0; 0.17; 0.6; 1" keySplines="0 0 1 1; 0.544 0 0.44 1; 0 0 1 1" calcMode="spline" /></path></g></g></g><g><g transform="translate(78.657,8.036)"><g transform="scale(1,1)"><animateTransform repeatCount="indefinite" type="scale" attributeName="transform" dur="1.667s" begin="0s" calcMode="spline" values="1 1; 1 1; 0 0; 1.5 1.5; 1 1; 1 1" keyTimes="0; 0.26; 0.39; 0.54; 0.69; 1" keySplines="0 0 1 1; 0.167 0 0.833 1; 0.333 0 0.667 1; 0.568 0 0.343 1; 0 0 1 1" fill="freeze" /><path fill="#ced5dd" d="M0.001,-7.786C0.001,-7.786,1.934,-1.837,1.934,-1.837C1.934,-1.837,8.186,-1.837,8.186,-1.837C8.186,-1.837,3.128,1.839,3.128,1.839C3.128,1.839,5.06,7.786,5.06,7.786C5.06,7.786,0.001,4.111,0.001,4.111C0.001,4.111,-5.06,7.786,-5.06,7.786C-5.06,7.786,-3.126,1.839,-3.126,1.839C-3.126,1.839,-8.186,-1.837,-8.186,-1.837C-8.186,-1.837,-1.932,-1.837,-1.932,-1.837C-1.932,-1.837,0.001,-7.786,0.001,-7.786Z"><animate repeatCount="indefinite" attributeName="fill" dur="1.667s" begin="0s" fill="freeze" values="#ced5dd; #ced5dd; #ffffff; #ffffff" keyTimes="0; 0.17; 0.6; 1" keySplines="0 0 1 1; 0.544 0 0.44 1; 0 0 1 1" calcMode="spline" /></path></g></g></g><g><g transform="translate(102.064,8.036)"><g transform="scale(1,1)"><animateTransform repeatCount="indefinite" type="scale" attributeName="transform" dur="1.667s" begin="0s" calcMode="spline" values="1 1; 1 1; 0 0; 1.5 1.5; 1 1; 1 1" keyTimes="0; 0.26; 0.42; 0.57; 0.72; 1" keySplines="0 0 1 1; 0.167 0 0.833 1; 0.333 0 0.667 1; 0.568 0 0.343 1; 0 0 1 1" fill="freeze" /><path fill="#ced5dd" d="M0,-7.786C0,-7.786,1.932,-1.837,1.932,-1.837C1.932,-1.837,8.186,-1.837,8.186,-1.837C8.186,-1.837,3.126,1.839,3.126,1.839C3.126,1.839,5.06,7.786,5.06,7.786C5.06,7.786,0,4.111,0,4.111C0,4.111,-5.061,7.786,-5.061,7.786C-5.061,7.786,-3.128,1.839,-3.128,1.839C-3.128,1.839,-8.186,-1.837,-8.186,-1.837C-8.186,-1.837,-1.934,-1.837,-1.934,-1.837C-1.934,-1.837,0,-7.786,0,-7.786Z"><animate repeatCount="indefinite" attributeName="fill" dur="1.667s" begin="0s" fill="freeze" values="#ced5dd; #ced5dd; #ffffff; #ffffff" keyTimes="0; 0.17; 0.6; 1" keySplines="0 0 1 1; 0.544 0 0.44 1; 0 0 1 1" calcMode="spline" /></path></g></g></g></g><g transform="matrix(1,0,0,1,351.75,315.75)"><g transform="matrix(1,0,0,1,48.25,48.25)"><path stroke-width="1" stroke="#9fa8b7" fill="#ced5dd" d="M48,0C48,12.45,43.27,23.79,35.49,32.31C26.72,41.95,14.06,48,0,48C-14.06,48,-26.72,41.95,-35.49,32.31C-43.27,23.79,-48,12.45,-48,0C-48,-26.51,-26.51,-48,0,-48C26.51,-48,48,-26.51,48,0Z"><animate repeatCount="indefinite" attributeName="fill" dur="1.667s" begin="0s" fill="freeze" values="#ced5dd; #ced5dd; #ffffff; #ffffff" keyTimes="0; 0.17; 0.6; 1" keySplines="0 0 1 1; 0.544 0 0.44 1; 0 0 1 1" calcMode="spline" /><animate repeatCount="indefinite" attributeName="stroke" dur="1.667s" begin="0s" fill="freeze" values="#9fa8b7; #9fa8b7; #16171b; #16171b" keyTimes="0; 0.17; 0.6; 1" keySplines="0 0 1 1; 0.333 0 0.667 1; 0 0 1 1" calcMode="spline" /></path></g><g transform="matrix(1,0,0,1,48.25,44.75)"><path fill="#7f8793" d="M15.5,0C15.5,8.561,8.561,15.5,0,15.5C-8.561,15.5,-15.5,8.561,-15.5,0C-15.5,-8.561,-8.561,-15.5,0,-15.5C8.561,-15.5,15.5,-8.561,15.5,0Z"><animate repeatCount="indefinite" attributeName="fill" dur="1.667s" begin="0s" fill="freeze" values="#7f8793; #7f8793; #4e5463; #4e5463" keyTimes="0; 0.17; 0.6; 1" keySplines="0 0 1 1; 0.544 0 0.44 1; 0 0 1 1" calcMode="spline" /></path></g><g transform="matrix(1,0,0,1,48.25,80.75)"><path fill="#7f8793" d="M35.49,-0.19C26.719,9.45,14.059,15.5,0,15.5C-14.06,15.5,-26.72,9.45,-35.49,-0.19C-29.67,-9.19,-15.97,-15.5,0,-15.5C15.969,-15.5,29.67,-9.19,35.49,-0.19Z"><animate repeatCount="indefinite" attributeName="fill" dur="1.667s" begin="0s" fill="freeze" values="#7f8793; #7f8793; #4e5463; #4e5463" keyTimes="0; 0.17; 0.6; 1" keySplines="0 0 1 1; 0.544 0 0.44 1; 0 0 1 1" calcMode="spline" /></path></g></g></g></g></g></g></g></g><g><animate repeatCount="indefinite" attributeName="opacity" dur="1.667s" begin="0s" fill="freeze" values="1; 1; 0; 0" keyTimes="0; 0.39; 0.4; 1" keySplines="0 0 1 1; 0.333 0 0.667 1; 0 0 1 1" calcMode="spline" /><g transform="translate(400,400)"><animateTransform repeatCount="indefinite" type="translate" attributeName="transform" dur="1.667s" begin="0s" calcMode="spline" values="400 400; 427.81 391.257; 199.668 423; 290 412; 290 412" keyTimes="0; 0.17; 0.4; 0.6; 1" keySplines="0.636 0 0.667 1; 0.333 0 0.667 1; 0.333 0 0.667 1; 0 0 1 1" fill="freeze" /><g transform="rotate(0)"><animateTransform repeatCount="indefinite" type="rotate" attributeName="transform" dur="1.667s" begin="0s" calcMode="spline" values="0; 8; -24; -15; -15" keyTimes="0; 0.17; 0.4; 0.6; 1" keySplines="0.506 0 0.583 1; 0.417 0 0.667 1; 0.333 0 0.667 1; 0 0 1 1" fill="freeze" /><g transform="scale(1,1)"><animateTransform repeatCount="indefinite" type="scale" attributeName="transform" dur="1.667s" begin="0s" calcMode="spline" values="1 1; 1.1 1.1; 0.85 0.85; 0.85 0.85" keyTimes="0; 0.17; 0.6; 1" keySplines="0.466 0 0.667 1; 0.333 0 0.667 1; 0 0 1 1" fill="freeze" /><g transform="translate(-400,-400)"><g clip-path="url(#i0)"><g transform="matrix(1,0,0,1,309.5,276.5)"><g transform="matrix(1,0,0,1,90.5,135)"><path fill="#16171b" d="M64,132.5C64,132.5,-64,132.5,-64,132.5C-77.255,132.5,-88,121.755,-88,108.5C-88,108.5,-88,-108.5,-88,-108.5C-88,-121.755,-77.255,-132.5,-64,-132.5C-64,-132.5,64,-132.5,64,-132.5C77.255,-132.5,88,-121.755,88,-108.5C88,-108.5,88,108.5,88,108.5C88,121.755,77.255,132.5,64,132.5Z"><animate repeatCount="indefinite" attributeName="fill" dur="1.667s" begin="0s" fill="freeze" values="#16171b; #16171b; #9fa8b7; #9fa8b7" keyTimes="0; 0.17; 0.6; 1" keySplines="0 0 1 1; 0.333 0 0.667 1; 0 0 1 1" calcMode="spline" /></path></g></g><g transform="matrix(1,0,0,1,345.25,476.75)"><g transform="matrix(1,0,0,1,54.75,17.25)"><path fill="#ffffff" d="M46.5,17C46.5,17,-46.5,17,-46.5,17C-50.918,17,-54.5,13.418,-54.5,9C-54.5,9,-54.5,-9,-54.5,-9C-54.5,-13.418,-50.918,-17,-46.5,-17C-46.5,-17,46.5,-17,46.5,-17C50.918,-17,54.5,-13.418,54.5,-9C54.5,-9,54.5,9,54.5,9C54.5,13.418,50.918,17,46.5,17Z"><animate repeatCount="indefinite" attributeName="fill" dur="1.667s" begin="0s" fill="freeze" values="#ffffff; #ffffff; #ced5dd; #ced5dd" keyTimes="0; 0.17; 0.6; 1" keySplines="0 0 1 1; 0.625 0 0.411 1; 0 0 1 1" calcMode="spline" /></path></g></g><g transform="matrix(1,0,0,1,344.75,437.692)"><g transform="matrix(1,0,0,1,8.436,8.036)"><path fill="#ffffff" d="M0,-7.786C0,-7.786,1.932,-1.837,1.932,-1.837C1.932,-1.837,8.186,-1.837,8.186,-1.837C8.186,-1.837,3.126,1.839,3.126,1.839C3.126,1.839,5.06,7.786,5.06,7.786C5.06,7.786,0,4.111,0,4.111C0,4.111,-5.06,7.786,-5.06,7.786C-5.06,7.786,-3.126,1.839,-3.126,1.839C-3.126,1.839,-8.186,-1.837,-8.186,-1.837C-8.186,-1.837,-1.932,-1.837,-1.932,-1.837C-1.932,-1.837,0,-7.786,0,-7.786Z"><animate repeatCount="indefinite" attributeName="fill" dur="1.667s" begin="0s" fill="freeze" values="#ffffff; #ffffff; #ced5dd; #ced5dd" keyTimes="0; 0.17; 0.6; 1" keySplines="0 0 1 1; 0.625 0 0.411 1; 0 0 1 1" calcMode="spline" /></path></g><g transform="matrix(1,0,0,1,31.843,8.036)"><path fill="#ffffff" d="M0.001,-7.786C0.001,-7.786,1.932,-1.837,1.932,-1.837C1.932,-1.837,8.186,-1.837,8.186,-1.837C8.186,-1.837,3.128,1.839,3.128,1.839C3.128,1.839,5.06,7.786,5.06,7.786C5.06,7.786,0.001,4.111,0.001,4.111C0.001,4.111,-5.06,7.786,-5.06,7.786C-5.06,7.786,-3.126,1.839,-3.126,1.839C-3.126,1.839,-8.186,-1.837,-8.186,-1.837C-8.186,-1.837,-1.932,-1.837,-1.932,-1.837C-1.932,-1.837,0.001,-7.786,0.001,-7.786Z"><animate repeatCount="indefinite" attributeName="fill" dur="1.667s" begin="0s" fill="freeze" values="#ffffff; #ffffff; #ced5dd; #ced5dd" keyTimes="0; 0.17; 0.6; 1" keySplines="0 0 1 1; 0.625 0 0.411 1; 0 0 1 1" calcMode="spline" /></path></g><g transform="matrix(1,0,0,1,55.25,8.036)"><path fill="#ffffff" d="M0,-7.786C0,-7.786,1.932,-1.837,1.932,-1.837C1.932,-1.837,8.186,-1.837,8.186,-1.837C8.186,-1.837,3.126,1.839,3.126,1.839C3.126,1.839,5.06,7.786,5.06,7.786C5.06,7.786,0,4.111,0,4.111C0,4.111,-5.061,7.786,-5.061,7.786C-5.061,7.786,-3.128,1.839,-3.128,1.839C-3.128,1.839,-8.186,-1.837,-8.186,-1.837C-8.186,-1.837,-1.934,-1.837,-1.934,-1.837C-1.934,-1.837,0,-7.786,0,-7.786Z"><animate repeatCount="indefinite" attributeName="fill" dur="1.667s" begin="0s" fill="freeze" values="#ffffff; #ffffff; #ced5dd; #ced5dd" keyTimes="0; 0.17; 0.6; 1" keySplines="0 0 1 1; 0.625 0 0.411 1; 0 0 1 1" calcMode="spline" /></path></g><g transform="matrix(1,0,0,1,78.657,8.036)"><path fill="#ffffff" d="M0.001,-7.786C0.001,-7.786,1.934,-1.837,1.934,-1.837C1.934,-1.837,8.186,-1.837,8.186,-1.837C8.186,-1.837,3.128,1.839,3.128,1.839C3.128,1.839,5.06,7.786,5.06,7.786C5.06,7.786,0.001,4.111,0.001,4.111C0.001,4.111,-5.06,7.786,-5.06,7.786C-5.06,7.786,-3.126,1.839,-3.126,1.839C-3.126,1.839,-8.186,-1.837,-8.186,-1.837C-8.186,-1.837,-1.932,-1.837,-1.932,-1.837C-1.932,-1.837,0.001,-7.786,0.001,-7.786Z"><animate repeatCount="indefinite" attributeName="fill" dur="1.667s" begin="0s" fill="freeze" values="#ffffff; #ffffff; #ced5dd; #ced5dd" keyTimes="0; 0.17; 0.6; 1" keySplines="0 0 1 1; 0.625 0 0.411 1; 0 0 1 1" calcMode="spline" /></path></g><g transform="matrix(1,0,0,1,102.064,8.036)"><path fill="#ffffff" d="M0,-7.786C0,-7.786,1.932,-1.837,1.932,-1.837C1.932,-1.837,8.186,-1.837,8.186,-1.837C8.186,-1.837,3.126,1.839,3.126,1.839C3.126,1.839,5.06,7.786,5.06,7.786C5.06,7.786,0,4.111,0,4.111C0,4.111,-5.061,7.786,-5.061,7.786C-5.061,7.786,-3.128,1.839,-3.128,1.839C-3.128,1.839,-8.186,-1.837,-8.186,-1.837C-8.186,-1.837,-1.934,-1.837,-1.934,-1.837C-1.934,-1.837,0,-7.786,0,-7.786Z"><animate repeatCount="indefinite" attributeName="fill" dur="1.667s" begin="0s" fill="freeze" values="#ffffff; #ffffff; #ced5dd; #ced5dd" keyTimes="0; 0.17; 0.6; 1" keySplines="0 0 1 1; 0.625 0 0.411 1; 0 0 1 1" calcMode="spline" /></path></g></g><g transform="matrix(1,0,0,1,351.75,315.75)"><g transform="matrix(1,0,0,1,48.25,48.25)"><path stroke-width="1" stroke="#16171b" fill="#ffffff" d="M48,0C48,12.45,43.27,23.79,35.49,32.31C26.72,41.95,14.06,48,0,48C-14.06,48,-26.72,41.95,-35.49,32.31C-43.27,23.79,-48,12.45,-48,0C-48,-26.51,-26.51,-48,0,-48C26.51,-48,48,-26.51,48,0Z"><animate repeatCount="indefinite" attributeName="fill" dur="1.667s" begin="0s" fill="freeze" values="#ffffff; #ffffff; #ced5dd; #ced5dd" keyTimes="0; 0.17; 0.6; 1" keySplines="0 0 1 1; 0.625 0 0.411 1; 0 0 1 1" calcMode="spline" /><animate repeatCount="indefinite" attributeName="stroke" dur="1.667s" begin="0s" fill="freeze" values="#16171b; #16171b; #9fa8b7; #9fa8b7" keyTimes="0; 0.17; 0.6; 1" keySplines="0 0 1 1; 0.333 0 0.667 1; 0 0 1 1" calcMode="spline" /></path></g><g transform="matrix(1,0,0,1,48.25,44.75)"><path fill="#4e5463" d="M15.5,0C15.5,8.561,8.561,15.5,0,15.5C-8.561,15.5,-15.5,8.561,-15.5,0C-15.5,-8.561,-8.561,-15.5,0,-15.5C8.561,-15.5,15.5,-8.561,15.5,0Z"><animate repeatCount="indefinite" attributeName="fill" dur="1.667s" begin="0s" fill="freeze" values="#4e5463; #4e5463; #7f8793; #7f8793" keyTimes="0; 0.17; 0.6; 1" keySplines="0 0 1 1; 0.625 0 0.411 1; 0 0 1 1" calcMode="spline" /></path></g><g transform="matrix(1,0,0,1,48.25,80.75)"><path fill="#4e5463" d="M35.49,-0.19C26.719,9.45,14.059,15.5,0,15.5C-14.06,15.5,-26.72,9.45,-35.49,-0.19C-29.67,-9.19,-15.97,-15.5,0,-15.5C15.969,-15.5,29.67,-9.19,35.49,-0.19Z"><animate repeatCount="indefinite" attributeName="fill" dur="1.667s" begin="0s" fill="freeze" values="#4e5463; #4e5463; #7f8793; #7f8793" keyTimes="0; 0.17; 0.6; 1" keySplines="0 0 1 1; 0.625 0 0.411 1; 0 0 1 1" calcMode="spline" /></path></g></g></g></g></g></g></g></g></g></g></g></svg>