<svg fill="none" height="100%" width="100%" viewBox="0 0 448 450" xmlns:xlink="http://www.w3.org/1999/xlink" xmlns="http://www.w3.org/2000/svg"><defs><clipPath id="i0"><path d="M224.03,93.66C152.177,94.048,94.25,152.544,94.648,224.313C95.046,296.082,153.617,353.949,225.47,353.561C297.323,353.173,355.25,294.677,354.852,222.908C354.454,151.139,295.883,93.272,224.03,93.66Z" /></clipPath><clipPath id="i1"><path d="M224.03,93.66C152.177,94.048,94.25,152.544,94.648,224.313C95.046,296.082,153.617,353.949,225.47,353.561C297.323,353.173,355.25,294.677,354.852,222.908C354.454,151.139,295.883,93.272,224.03,93.66Z" /></clipPath></defs><g transform="matrix(1,0,0,1,0,0)" id="i2"><g id="i3" transform="matrix(1,0,0,1,223.937,225)"><path stroke-linecap="round" stroke-width="0" stroke="#2faa00" fill="#2faa00" d="M129.734,-0.001C129.734,71.649,71.651,129.734,0.001,129.734C-71.65,129.734,-129.734,71.649,-129.734,-0.001C-129.734,-71.651,-71.65,-129.734,0.001,-129.734C71.651,-129.734,129.734,-71.651,129.734,-0.001Z"><animate repeatCount="indefinite" attributeName="fill" dur="7.667s" begin="0s" fill="freeze" values="#2faa00; #2faa00; #f2ffc9; #f2ffc9; #2faa00; #2faa00" keyTimes="0; 0.095652; 0.121739; 0.826087; 0.852174; 1" keySplines="0 0 1 1; 0.333 0 0.667 1; 0.167 0 0.667 1; 0.167 0 0.667 1; 0 0 1 1" calcMode="spline" /><animate repeatCount="indefinite" attributeName="stroke" dur="7.667s" begin="0s" fill="freeze" values="#2faa00; #2faa00; #ffffeb; #ffffeb; #2faa00; #2faa00" keyTimes="0; 0.095652; 0.121739; 0.826087; 0.852174; 1" keySplines="0 0 1 1; 0.333 0 0.667 1; 0.167 0 0.667 1; 0.167 0 0.667 1; 0 0 1 1" calcMode="spline" /><animate repeatCount="indefinite" attributeName="stroke-width" dur="7.667s" begin="0s" fill="freeze" values="0; 0; 10; 10; 0; 0" keyTimes="0; 0.095652; 0.121739; 0.826087; 0.852174; 1" keySplines="0 0 1 1; 0.333 0 0.667 1; 0.167 0 0.833 1; 0.167 0 0.833 1; 0 0 1 1" calcMode="spline" /></path></g></g><g transform="matrix(1,0,0,1,0,0)" visibility="hidden" id="i4"><animate repeatCount="indefinite" begin="0s" calcMode="discrete" dur="7.667s" values="hidden; visible; hidden; hidden" keyTimes="0; 0.122005; 0.843037; 1" attributeName="visibility" /><g stroke-dashoffset="-75" stroke-dasharray="0 100" pathLength="100" id="i3" transform="matrix(1,0,0,1,223.937,225)"><path stroke-linecap="round" stroke-width="10" stroke="#2faa00" d="M129.734,-0.001C129.734,71.649,71.651,129.734,0.001,129.734C-71.65,129.734,-129.734,71.649,-129.734,-0.001C-129.734,-71.651,-71.65,-129.734,0.001,-129.734C71.651,-129.734,129.734,-71.651,129.734,-0.001Z" /><animate repeatCount="indefinite" fill="freeze" begin="0s" dur="7.667s" calcMode="spline" keySplines="0 0 1 1; 0 0 1 1; 0 0 1 1; 0 0 1 1; 0 0 1 1; 0 0 1 1; 0 0 1 1; 0 0 1 1; 0 0 1 1; 0 0 1 1; 0 0 1 1; 0 0 1 1" keyTimes="0; 0.191304; 0.26087; 0.269565; 0.29133; 0.356522; 0.391304; 0.443565; 0.486957; 0.513043; 0.565217; 0.952849; 1" values="0 100; 0 100; 63.165 36.835; 63 37; 63 37; 35 65; 30.877 69.123; 27 73; 13 87; 7.4 92.6; 0 100; 0 100; 0 100" attributeName="stroke-dasharray" /><animate repeatCount="indefinite" fill="freeze" begin="0s" dur="7.667s" calcMode="spline" keySplines="0 0 1 1; 0 0 1 1; 0 0 1 1; 0 0 1 1; 0 0 1 1; 0 0 1 1; 0 0 1 1; 0 0 1 1; 0 0 1 1; 0 0 1 1; 0 0 1 1; 0 0 1 1" keyTimes="0; 0.191304; 0.26087; 0.269565; 0.29133; 0.356522; 0.391304; 0.443565; 0.486957; 0.513043; 0.565217; 0.952849; 1" values="-75; -75; -11.835; -12; -12; -40; -44.123; -48; -62; -67.6; -75; -75; -75" attributeName="stroke-dashoffset" /></g></g><g transform="matrix(1,0,0,1,0,0)" visibility="visible" id="i5"><g clip-path="url(#i0)" id="i6"><animate repeatCount="indefinite" begin="0s" calcMode="discrete" dur="7.667s" values="visible; hidden; hidden" keyTimes="0; 0.783034; 1" attributeName="visibility" /><g><g id="i3" transform="translate(234.811,224.878)"><animateTransform repeatCount="indefinite" type="translate" attributeName="transform" dur="7.667s" begin="0s" calcMode="spline" values="234.811 224.878; 234.811 224.878; 439.553 224.878; 439.553 224.878" keyTimes="0; 0.043478; 0.078261; 1" keySplines="0 0 1 1; 0.333 0 0.667 1; 0 0 1 1" fill="freeze" /><path fill="#f2ffc9" d="M70.132,0.121C70.132,0.016,70.138,-0.087,70.129,-0.193C70.117,-0.327,70.089,-0.457,70.063,-0.587C70.049,-0.658,70.046,-0.73,70.027,-0.801C70.025,-0.809,70.022,-0.815,70.02,-0.822C69.981,-0.967,69.924,-1.106,69.868,-1.245C69.845,-1.303,69.83,-1.366,69.803,-1.422C69.752,-1.534,69.684,-1.637,69.621,-1.743C69.235,-2.394,68.667,-2.907,67.991,-3.215C67.991,-3.215,-64.697,-65.985,-64.697,-65.985C-65.954,-66.579,-67.45,-66.409,-68.543,-65.542C-69.635,-64.673,-70.138,-63.259,-69.841,-61.895C-69.841,-61.895,-57.896,-7.234,-57.896,-7.234C-57.548,-5.643,-56.191,-4.472,-54.566,-4.363C-54.566,-4.363,12.007,0.121,12.007,0.121C12.007,0.121,-54.566,4.605,-54.566,4.605C-56.191,4.714,-57.548,5.884,-57.896,7.477C-57.896,7.477,-69.841,62.136,-69.841,62.136C-70.138,63.498,-69.635,64.913,-68.543,65.783C-67.883,66.308,-67.076,66.579,-66.263,66.579C-65.73,66.579,-65.196,66.463,-64.697,66.227C-64.697,66.227,68.05,3.43,68.05,3.43C68.077,3.417,68.099,3.4,68.126,3.387C68.236,3.331,68.341,3.265,68.445,3.199C68.518,3.152,68.592,3.109,68.661,3.059C68.755,2.989,68.841,2.911,68.928,2.831C68.993,2.773,69.062,2.718,69.122,2.656C69.206,2.569,69.278,2.471,69.353,2.376C69.404,2.311,69.46,2.251,69.506,2.184C69.576,2.081,69.633,1.969,69.693,1.859C69.731,1.789,69.775,1.724,69.808,1.652C69.854,1.553,69.885,1.446,69.922,1.343C69.955,1.25,69.994,1.16,70.02,1.064C70.022,1.057,70.025,1.052,70.027,1.044C70.046,0.973,70.049,0.9,70.063,0.829C70.089,0.699,70.117,0.569,70.129,0.436C70.138,0.33,70.132,0.226,70.132,0.121Z" /></g></g></g></g><g transform="matrix(1,0,0,1,0,0)" id="i7"><g clip-path="url(#i1)" id="i8"><g><g id="i3" transform="translate(7.405,224.878)"><animateTransform repeatCount="indefinite" type="translate" attributeName="transform" dur="7.667s" begin="0s" calcMode="spline" values="7.405 224.878; 7.405 224.878; 234.811 224.878; 234.811 224.878" keyTimes="0; 0.869565; 0.904348; 1" keySplines="0 0 1 1; 0.333 0 0.667 1; 0 0 1 1" fill="freeze" /><path fill="#f2ffc9" d="M70.132,0.121C70.132,0.016,70.138,-0.087,70.129,-0.193C70.117,-0.327,70.089,-0.457,70.063,-0.587C70.049,-0.658,70.046,-0.73,70.027,-0.801C70.025,-0.809,70.022,-0.815,70.02,-0.822C69.981,-0.967,69.924,-1.106,69.868,-1.245C69.845,-1.303,69.83,-1.366,69.803,-1.422C69.752,-1.534,69.684,-1.637,69.621,-1.743C69.235,-2.394,68.667,-2.907,67.991,-3.215C67.991,-3.215,-64.697,-65.985,-64.697,-65.985C-65.954,-66.579,-67.45,-66.409,-68.543,-65.542C-69.635,-64.673,-70.138,-63.259,-69.841,-61.895C-69.841,-61.895,-57.896,-7.234,-57.896,-7.234C-57.548,-5.643,-56.191,-4.472,-54.566,-4.363C-54.566,-4.363,12.007,0.121,12.007,0.121C12.007,0.121,-54.566,4.605,-54.566,4.605C-56.191,4.714,-57.548,5.884,-57.896,7.477C-57.896,7.477,-69.841,62.136,-69.841,62.136C-70.138,63.498,-69.635,64.913,-68.543,65.783C-67.883,66.308,-67.076,66.579,-66.263,66.579C-65.73,66.579,-65.196,66.463,-64.697,66.227C-64.697,66.227,68.05,3.43,68.05,3.43C68.077,3.417,68.099,3.4,68.126,3.387C68.236,3.331,68.341,3.265,68.445,3.199C68.518,3.152,68.592,3.109,68.661,3.059C68.755,2.989,68.841,2.911,68.928,2.831C68.993,2.773,69.062,2.718,69.122,2.656C69.206,2.569,69.278,2.471,69.353,2.376C69.404,2.311,69.46,2.251,69.506,2.184C69.576,2.081,69.633,1.969,69.693,1.859C69.731,1.789,69.775,1.724,69.808,1.652C69.854,1.553,69.885,1.446,69.922,1.343C69.955,1.25,69.994,1.16,70.02,1.064C70.022,1.057,70.025,1.052,70.027,1.044C70.046,0.973,70.049,0.9,70.063,0.829C70.089,0.699,70.117,0.569,70.129,0.436C70.138,0.33,70.132,0.226,70.132,0.121Z" /></g></g></g></g><g transform="matrix(1,0,0,1,222.5,241.5)" visibility="hidden" id="i9"><animate repeatCount="indefinite" begin="0s" calcMode="discrete" dur="7.667s" values="hidden; visible; hidden; hidden" keyTimes="0; 0.330014; 0.783034; 1" attributeName="visibility" /><g id="i10"><path stroke-linejoin="round" stroke-linecap="round" stroke-width="10" stroke="#2faa00" d="M-53,-16"><set fill="freeze" dur="0.067s" begin="4.533333333333333s" to="M-53,-16" attributeName="d" /><set fill="freeze" dur="0.067s" begin="4.6s" to="M-53,-16C-53,-16,-47.961,-10.961,-41.654,-4.654" attributeName="d" /><set fill="freeze" dur="0.067s" begin="4.666666666666667s" to="M-53,-16C-53,-16,-17,20,-17,20C-17,20,-16.147,19.147,-14.625,17.625" attributeName="d" /><set fill="freeze" dur="0.067s" begin="4.733333333333333s" to="M-53,-16C-53,-16,-17,20,-17,20C-17,20,0.021,2.979,17.625,-14.625" attributeName="d" /><set fill="freeze" dur="0.067s" begin="4.8s" to="M-53,-16C-53,-16,-17,20,-17,20C-17,20,24.143,-21.143,44.654,-41.654" attributeName="d" /><set fill="freeze" dur="0.067s" begin="4.866666666666666s" to="M-53,-16C-53,-16,-17,20,-17,20C-17,20,56,-53,56,-53" attributeName="d" /><set fill="freeze" dur="0.067s" begin="4.933333333333334s" to="M-53,-16C-53,-16,-17,20,-17,20C-17,20,56,-53,56,-53" attributeName="d" /><set fill="freeze" dur="0.067s" begin="5s" to="M-53,-16C-53,-16,-17,20,-17,20C-17,20,56,-53,56,-53" attributeName="d" /><set fill="freeze" dur="0.067s" begin="5.066666666666666s" to="M-53,-16C-53,-16,-17,20,-17,20C-17,20,56,-53,56,-53" attributeName="d" /><set fill="freeze" dur="0.067s" begin="5.133333333333334s" to="M-53,-16C-53,-16,-17,20,-17,20C-17,20,56,-53,56,-53" attributeName="d" /><set fill="freeze" dur="0.067s" begin="5.2s" to="M-53,-16C-53,-16,-17,20,-17,20C-17,20,56,-53,56,-53" attributeName="d" /><set fill="freeze" dur="0.067s" begin="5.266666666666667s" to="M-53,-16C-53,-16,-17,20,-17,20C-17,20,56,-53,56,-53" attributeName="d" /><set fill="freeze" dur="0.067s" begin="5.333333333333333s" to="M-53,-16C-53,-16,-17,20,-17,20C-17,20,56,-53,56,-53" attributeName="d" /><set fill="freeze" dur="0.067s" begin="5.4s" to="M-53,-16C-53,-16,-17,20,-17,20C-17,20,56,-53,56,-53" attributeName="d" /><set fill="freeze" dur="0.067s" begin="5.466666666666667s" to="M-53,-16C-53,-16,-17,20,-17,20C-17,20,56,-53,56,-53" attributeName="d" /><set fill="freeze" dur="0.067s" begin="5.533333333333333s" to="M-53,-16C-53,-16,-17,20,-17,20C-17,20,56,-53,56,-53" attributeName="d" /><set fill="freeze" dur="0.067s" begin="5.6s" to="M-53,-16C-53,-16,-17,20,-17,20C-17,20,56,-53,56,-53" attributeName="d" /><set fill="freeze" dur="0.067s" begin="5.666666666666667s" to="M-53,-16C-53,-16,-17,20,-17,20C-17,20,56,-53,56,-53" attributeName="d" /><set fill="freeze" dur="0.067s" begin="5.733333333333333s" to="M-35.957,1.043C-26.65,10.35,-17,20,-17,20C-17,20,56,-53,56,-53M-53,-16" attributeName="d" /><set fill="freeze" dur="0.067s" begin="5.8s" to="M1.5,1.5C23.127,-20.127,56,-53,56,-53M-53,-16" attributeName="d" /><set fill="freeze" dur="0.067s" begin="5.866666666666666s" to="M38.957,-35.957C48.817,-45.817,56,-53,56,-53M-53,-16" attributeName="d" /><set fill="freeze" dur="0.067s" begin="5.933333333333334s" to="M-53,-16" attributeName="d" /></path></g></g></svg>