<?xml version="1.0" standalone="no"?>
<!DOCTYPE svg PUBLIC "-//W3C//DTD SVG 20010904//EN"
 "http://www.w3.org/TR/2001/REC-SVG-20010904/DTD/svg10.dtd">
<svg version="1.0" xmlns="http://www.w3.org/2000/svg"
 width="80.000000pt" height="80.000000pt" viewBox="0 0 80.000000 80.000000"
 preserveAspectRatio="xMidYMid meet">
<metadata>
Created by potrace 1.16, written by Peter Selinger 2001-2019
</metadata>
<g transform="translate(0.000000,80.000000) scale(0.100000,-0.100000)"
fill="#000000" stroke="none">
<path d="M0 400 l0 -400 400 0 400 0 0 400 0 400 -340 0 c-187 0 -340 -2 -340
-4 0 -2 51 -21 113 -42 61 -20 156 -54 210 -76 l99 -38 29 24 c86 72 206 15
216 -103 5 -55 -19 -101 -69 -131 -66 -40 -145 -12 -183 66 l-20 41 -103 -51
c-79 -39 -106 -48 -119 -40 -9 5 -68 87 -132 182 -92 137 -121 172 -138 172
l-23 0 0 -400z m57 210 c-3 -83 -11 -158 -17 -168 -7 -12 -8 23 -4 118 5 145
11 200 21 200 3 0 3 -68 0 -150z m166 -138 c-38 -29 -183 -104 -183 -95 0 5
15 17 32 26 18 9 62 32 97 52 69 38 89 44 54 17z m256 -187 c74 -109 90 -136
74 -120 -17 16 -159 219 -172 246 l-12 24 21 -25 c11 -14 51 -70 89 -125z
m112 -10 c-8 -75 -8 -76 -10 -25 -1 66 13 180 17 135 1 -16 -2 -66 -7 -110z"/>
<path d="M70 792 c0 -10 52 -73 57 -68 3 2 25 -6 49 -19 42 -22 50 -14 13 13
-10 7 -16 18 -13 26 3 8 -14 20 -51 33 -30 12 -55 18 -55 15z"/>
<path d="M511 593 c0 -6 -4 -20 -7 -30 -5 -14 -4 -15 5 -7 7 7 11 20 8 30 -3
11 -5 14 -6 7z"/>
<path d="M709 563 c-13 -16 -12 -17 4 -4 16 13 21 21 13 21 -2 0 -10 -8 -17
-17z"/>
<path d="M599 523 c12 -23 29 -38 37 -31 2 3 -8 15 -22 29 -25 23 -26 23 -15
2z"/>
</g>
</svg>
