<?xml version="1.0" standalone="no"?>
<!DOCTYPE svg PUBLIC "-//W3C//DTD SVG 20010904//EN"
 "http://www.w3.org/TR/2001/REC-SVG-20010904/DTD/svg10.dtd">
<svg version="1.0" xmlns="http://www.w3.org/2000/svg"
 width="230.000000pt" height="20.000000pt" viewBox="0 0 230.000000 20.000000"
 preserveAspectRatio="xMidYMid meet">
<metadata>
Created by potrace 1.16, written by Peter Selinger 2001-2019
</metadata>
<g transform="translate(0.000000,20.000000) scale(0.100000,-0.100000)"
fill="#000000" stroke="none">
<path d="M0 100 l0 -100 55 0 c42 0 55 3 55 15 0 21 38 19 43 -2 4 -17 5 -17
6 0 1 21 41 24 41 2 0 -8 6 -15 14 -15 10 0 16 13 18 37 l3 37 18 -28 c10 -15
16 -31 12 -34 -3 -4 -10 0 -15 8 -8 13 -10 12 -10 -2 0 -12 8 -18 21 -18 18 0
20 4 14 29 -3 17 -2 32 4 36 7 4 11 -7 11 -29 0 -31 3 -36 23 -35 16 1 18 2 5
6 -10 2 -18 12 -18 22 0 14 11 17 75 17 52 1 72 -2 68 -10 -4 -6 1 -5 10 3 9
7 24 11 32 7 9 -3 15 0 15 9 0 32 37 10 41 -25 4 -25 5 -25 122 -28 116 -3
118 -2 107 18 -15 28 4 60 35 60 14 0 25 -4 25 -8 0 -5 -10 -8 -22 -8 -14 1
-24 -6 -26 -18 -5 -24 12 -40 35 -32 13 5 14 9 4 15 -8 5 2 11 30 15 30 5 45
3 51 -6 6 -10 8 -10 8 -1 0 8 17 11 55 10 48 -2 55 0 58 18 4 19 4 19 6 -1 1
-17 6 -20 26 -16 25 4 34 -11 14 -24 -25 -15 21 -24 132 -24 l116 0 18 40 c10
23 23 43 27 47 5 3 0 -13 -11 -36 -12 -22 -21 -42 -21 -44 0 -2 29 -4 64 -5
44 -1 67 2 75 12 8 10 9 16 1 21 -5 3 -10 -1 -10 -10 0 -9 -5 -13 -11 -9 -19
11 9 29 46 29 30 0 34 -2 28 -22 -3 -14 -1 -23 6 -23 6 0 11 16 11 36 0 33 1
34 16 19 9 -9 23 -14 32 -10 8 3 21 0 28 -6 11 -9 14 -7 14 10 0 22 0 22 21 2
13 -12 19 -26 16 -35 -6 -14 8 -16 103 -16 l110 0 0 33 c0 40 15 57 50 57 33
0 60 -28 60 -63 0 -17 5 -27 15 -27 8 0 15 5 15 11 0 5 6 7 13 3 6 -4 4 2 -6
13 -9 11 -14 23 -10 26 10 11 33 8 33 -4 0 -5 -6 -7 -12 -3 -10 5 -10 3 0 -7
9 -10 15 -11 20 -3 4 7 29 11 60 10 28 -1 52 1 52 4 0 12 29 7 34 -5 6 -17 -6
-32 -29 -38 -15 -4 -14 -5 8 -6 17 -1 27 4 27 13 0 8 6 16 14 19 10 4 12 0 9
-14 -5 -16 0 -19 31 -19 l36 0 0 100 0 100 -1150 0 -1150 0 0 -100z m150 -35
c0 -18 -5 -25 -20 -25 -15 0 -20 7 -20 25 0 18 5 25 20 25 15 0 20 -7 20 -25z
m50 0 c0 -18 -5 -25 -20 -25 -15 0 -20 7 -20 25 0 18 5 25 20 25 15 0 20 -7
20 -25z m1219 -50 c0 -5 -6 1 -14 15 -8 14 -14 30 -14 35 0 6 6 -1 14 -15 8
-14 14 -29 14 -35z m-30 7 c0 -14 -2 -13 -8 3 -8 19 -8 19 -19 0 -6 -11 -12
-15 -12 -9 0 14 22 34 32 28 4 -3 8 -13 7 -22z"/>
<path d="M1896 45 c4 -8 18 -16 33 -16 26 -1 26 -1 -4 -9 -16 -4 -23 -8 -15
-9 8 -1 24 -4 36 -7 13 -3 21 -1 21 8 0 7 4 21 8 31 6 15 1 17 -39 17 -36 0
-44 -3 -40 -15z"/>
<path d="M330 32 c0 -14 23 -32 41 -32 22 0 44 26 29 35 -5 3 -10 -2 -11 -12
0 -16 -1 -16 -9 2 -7 17 -9 17 -9 3 -1 -22 -21 -24 -21 -3 0 8 -4 15 -10 15
-5 0 -10 -4 -10 -8z"/>
<path d="M867 34 c-8 -8 1 -24 14 -24 5 0 9 7 9 15 0 15 -12 20 -23 9z"/>
<path d="M920 25 c0 -9 5 -15 11 -13 6 2 11 8 11 13 0 5 -5 11 -11 13 -6 2
-11 -4 -11 -13z"/>
<path d="M980 25 c0 -8 5 -15 10 -15 6 0 10 7 10 15 0 8 -4 15 -10 15 -5 0
-10 -7 -10 -15z"/>
<path d="M1550 24 c0 -8 5 -12 10 -9 6 4 8 11 5 16 -9 14 -15 11 -15 -7z"/>
<path d="M1640 24 c0 -8 5 -12 10 -9 6 3 10 10 10 16 0 5 -4 9 -10 9 -5 0 -10
-7 -10 -16z"/>
<path d="M416 15 c-3 -8 -1 -15 4 -15 6 0 10 7 10 15 0 8 -2 15 -4 15 -2 0 -6
-7 -10 -15z"/>
<path d="M510 15 c0 -8 5 -15 10 -15 6 0 10 7 10 15 0 8 -4 15 -10 15 -5 0
-10 -7 -10 -15z"/>
<path d="M1582 15 c-11 -13 -9 -15 8 -15 11 0 20 7 20 15 0 19 -11 19 -28 0z"/>
<path d="M2070 19 c0 -5 5 -7 10 -4 6 3 10 8 10 11 0 2 -4 4 -10 4 -5 0 -10
-5 -10 -11z"/>
<path d="M2102 15 c-15 -18 -1 -20 16 -3 9 9 12 9 12 0 0 -7 5 -12 11 -12 8 0
8 5 -1 15 -15 18 -21 18 -38 0z"/>
<path d="M2158 23 c6 -2 18 -2 25 0 6 3 1 5 -13 5 -14 0 -19 -2 -12 -5z"/>
<path d="M485 10 c-3 -5 -1 -10 4 -10 6 0 11 5 11 10 0 6 -2 10 -4 10 -3 0 -8
-4 -11 -10z"/>
<path d="M835 10 c-3 -5 1 -10 10 -10 9 0 13 5 10 10 -3 6 -8 10 -10 10 -2 0
-7 -4 -10 -10z"/>
</g>
</svg>
