<svg fill="none" height="100%" width="100%" viewBox="0 0 424 403" xmlns:xlink="http://www.w3.org/1999/xlink" xmlns="http://www.w3.org/2000/svg"><g transform="matrix(1,0,0,1,-34,-74)" id="i0"><g id="i1" transform="matrix(1,0,0,1,249.985,459.474)" opacity="0.58"><path fill="#efb23b" d="M165.931,0C165.931,7.054,91.641,12.772,0,12.772C-91.641,12.772,-165.931,7.054,-165.931,0C-165.931,-7.054,-91.641,-12.772,0,-12.772C91.641,-12.772,165.931,-7.054,165.931,0Z" /></g><g id="i2" transform="matrix(1,0,0,1,250,275.752)"><g id="i2"><path fill="#fddd66" d="M-69.425,-169.871C-47.667,-181.427,-19.911,-183.419,4.249,-178.595C35.993,-172.257,51.75,-172.862,83.494,-166.524C102.205,-162.788,118.608,-138.744,135.855,-130.583C156.579,-120.777,160.814,-111.91,172.609,-92.25C176.396,-85.937,190.572,-66.403,191.423,-59.09C192.869,-46.666,189.863,-39.729,191.348,-27.309C193.045,-13.119,194.469,-4.38,196.187,9.808C198.676,30.36,186.423,41.046,187.414,61.724C187.838,70.564,182.014,82.223,181.1,91.026C180.415,97.617,154.877,114.466,151.068,119.888C134.202,143.897,135.209,149.356,108.464,161.422C97.088,166.554,93.151,177.006,80.828,178.976C70.098,180.691,59.139,179.909,48.317,178.925C26.876,176.975,13.744,183.488,-7.501,179.997C-25.53,177.034,-48.758,179.04,-67.005,179.986C-75.521,180.428,-89.894,177.326,-98.237,175.565C-105.607,174.01,-125.561,165.524,-132.027,161.66C-145.917,153.361,-160.102,138.684,-166.174,123.686C-168.173,118.747,-168.751,97.06,-183.208,76.572C-196.441,57.819,-193.957,58.052,-198.703,17.475C-201.369,-5.322,-196.086,-34.561,-182.861,-53.32C-174.054,-65.812,-170.733,-77.422,-168.926,-92.599C-168.25,-98.272,-169.359,-104.069,-168.457,-109.711C-165.814,-126.232,-148.007,-135.057,-132.45,-141.216C-116.984,-147.339,-101.901,-154.535,-86.053,-159.586C-74.107,-163.394,-78.401,-165.104,-69.425,-169.871Z" /></g></g></g><g transform="matrix(1,0,0,1,212.239,239.956)" id="i3"><g id="i2"><path fill="#62376b" d="M54.781,36.012C52.501,46.182,39.101,49.472,0.121,48.882C-38.849,49.472,-52.259,46.182,-54.529,36.012C-56.789,22.922,-51.269,8.412,-42.589,-7.568C-39.949,-12.428,-37.899,-17.438,-36.309,-22.208C-35.059,-25.978,-34.079,-29.598,-33.349,-32.858C-32.879,-34.858,-32.519,-36.728,-32.209,-38.418C-32.009,-39.598,-31.829,-40.678,-31.679,-41.658C-31.679,-41.658,-31.679,-41.668,-31.679,-41.668C-31.639,-41.888,-31.609,-42.098,-31.589,-42.318C-31.509,-42.808,-31.449,-43.278,-31.389,-43.708C-31.339,-44.148,-31.289,-44.548,-31.249,-44.908C-31.039,-46.678,-30.979,-47.688,-30.979,-47.688C-30.979,-47.688,-26.479,-47.838,-26.479,-47.838C-26.479,-47.838,-24.469,-47.918,-24.469,-47.918C-24.469,-47.918,-19.899,-48.078,-19.899,-48.078C-19.899,-48.078,-4.029,-48.648,-4.029,-48.648C-4.029,-48.838,-4.039,-48.948,-4.039,-48.948C-4.039,-48.948,0.121,-48.788,0.121,-48.788C0.121,-48.788,4.281,-48.948,4.281,-48.948C4.281,-48.948,4.271,-48.838,4.271,-48.648C4.271,-48.648,27.351,-47.818,27.351,-47.818C27.351,-47.818,30.161,-47.718,30.161,-47.718C30.161,-47.718,30.171,-47.718,30.171,-47.718C30.171,-47.718,31.221,-47.688,31.221,-47.688C31.221,-47.688,31.231,-47.468,31.271,-47.088C31.271,-47.088,31.271,-47.068,31.271,-47.068C31.291,-46.878,31.311,-46.628,31.331,-46.338C31.381,-45.788,31.451,-45.068,31.551,-44.188C31.591,-43.838,31.631,-43.458,31.681,-43.048C31.821,-41.828,32.001,-40.398,32.231,-38.788C32.231,-38.788,32.231,-38.778,32.231,-38.778C32.311,-38.248,32.391,-37.688,32.481,-37.118C32.661,-35.928,32.871,-34.658,33.111,-33.308C33.671,-30.098,34.391,-26.478,35.301,-22.598C35.341,-22.478,35.371,-22.338,35.401,-22.208C35.571,-21.488,35.751,-20.758,35.941,-20.018C36.941,-16.058,38.151,-11.848,39.591,-7.568C44.691,7.582,56.951,23.452,54.781,36.012Z" /></g></g><g transform="matrix(1,0,0,1,-34,-74)" id="i4"><g id="i5"><g transform="translate(248.604,189.62)"><animateTransform repeatCount="indefinite" type="translate" attributeName="transform" dur="6s" begin="0s" calcMode="spline" values="248.604 189.62; 248.604 194.12; 248.604 189.62; 248.604 194.12; 248.604 189.62; 248.604 189.62; 248.604 194.12; 248.604 194.12; 248.604 189.62; 248.604 189.62" keyTimes="0; 0.066667; 0.133333; 0.2; 0.266666; 0.427778; 0.494444; 0.755556; 0.822222; 1" keySplines="0.333 0 0.667 1; 0.333 0 0.667 1; 0.333 0 0.667 1; 0.333 0 0.667 1; 0 0 1 1; 0.333 0 0.667 1; 0 0 1 1; 0.333 0 0.667 1; 0 0 1 1" fill="freeze" /><g transform="scale(1,1) translate(-248.604,-189.62)"><g id="i6" transform="matrix(1,0,0,1,202.673,190.951)"><path fill="#62376b" d="M-13.221,24.28C-14.945,19.978,-15.452,15.056,-16.219,7.509C-17.354,-3.648,-17.907,-12.899,-18.417,-18.607C-19.072,-25.937,-15.055,-24.494,-12.183,-23.321C-7.043,-21.222,0.229,-16.293,3.925,-13.63C9.686,-9.479,18.722,2.301,18.483,7.76C12.764,14.957,2.443,22.322,-13.221,24.28Z" /></g><g id="i7" transform="matrix(1,0,0,1,202.674,183.215)" opacity="0.5"><path fill="#62376b" d="M18.481,15.498C18.201,15.844,17.917,16.195,17.619,16.543C15.708,10.558,8.437,1.511,3.533,-2.022C-0.159,-4.687,-7.434,-9.612,-12.572,-11.711C-14.679,-12.568,-17.388,-13.577,-18.439,-11.177C-18.96,-18.157,-15.02,-16.743,-12.183,-15.583C-7.045,-13.484,0.23,-8.559,3.922,-5.894C9.683,-1.741,18.719,10.04,18.481,15.498Z" /></g><g id="i8" transform="matrix(1,0,0,1,204.046,195.633)"><path fill="#a62e3b" d="M-9.649,18.769C-10.907,15.453,-10.464,11.138,-11.175,5.381C-12.227,-3.13,-12.841,-10.176,-13.333,-14.528C-13.964,-20.117,-11.265,-18.912,-9.331,-17.943C-5.871,-16.21,-0.922,-12.266,1.597,-10.143C5.524,-6.833,13.438,2.943,13.427,7.086C9.833,12.402,0.672,17.703,-9.649,18.769Z" /></g><g id="i9" transform="matrix(1,0,0,1,204.009,195.631)" opacity="0.35"><path fill="#a62e3b" d="M13.393,6.383C10.742,2.296,6.865,-2.123,4.471,-4.139C1.953,-6.263,-2.996,-10.203,-6.458,-11.936C-8.388,-12.905,-11.089,-14.112,-10.458,-8.527C-9.969,-4.172,-9.354,2.877,-8.301,11.387C-7.968,14.064,-7.887,16.425,-7.768,18.525C-8.377,18.626,-8.994,18.704,-9.613,18.769C-10.867,15.455,-10.424,11.14,-11.136,5.38C-12.189,-3.13,-12.804,-10.173,-13.299,-14.527C-13.93,-20.112,-11.23,-18.913,-9.294,-17.944C-5.832,-16.211,-0.888,-12.265,1.636,-10.141C5.351,-7.006,12.647,1.929,13.393,6.383Z" /></g><g id="i10" transform="matrix(1,0,0,1,294.581,188.896)"><path fill="#3d243e" d="M-18.442,2.784C-16.22,11.762,11.303,27.744,15.154,24.443C17.941,22.053,18.289,7.716,18.39,4.065C18.699,-7.124,17.274,-14.933,18.267,-19.136C19.26,-23.339,16.01,-27.377,8.9,-22.985C1.79,-18.593,-10.665,-9.179,-18.442,2.784Z" /></g><g id="i11" transform="matrix(1,0,0,1,294.581,188.896)"><path fill="#3d243e" d="M-18.442,2.784C-16.22,11.762,11.303,27.744,15.154,24.443C17.941,22.053,18.289,7.716,18.39,4.065C18.699,-7.124,17.274,-14.933,18.267,-19.136C19.26,-23.339,16.01,-27.377,8.9,-22.985C1.79,-18.593,-10.665,-9.179,-18.442,2.784Z" /></g><g id="i12" transform="matrix(1,0,0,1,294.581,188.896)"><path fill="#62376b" d="M-18.442,2.784C-16.22,11.762,11.303,27.744,15.154,24.443C17.941,22.053,18.289,7.716,18.39,4.065C18.699,-7.124,17.274,-14.933,18.267,-19.136C19.26,-23.339,16.01,-27.377,8.9,-22.985C1.79,-18.593,-10.665,-9.179,-18.442,2.784Z" /></g><g id="i13" transform="matrix(1,0,0,1,303.965,188.892)" opacity="0.5"><path fill="#62376b" d="M5.768,24.445C5.359,24.797,4.69,24.927,3.812,24.87C5.57,20.163,5.826,9.48,5.919,6.398C6.226,-4.789,4.803,-12.598,5.792,-16.799C6.788,-21.005,3.536,-25.04,-3.575,-20.653C-5.17,-19.665,-7.036,-18.428,-9.059,-16.962C-5.852,-19.476,-2.871,-21.509,-0.485,-22.982C6.626,-27.375,9.879,-23.334,8.883,-19.134C7.887,-14.928,9.316,-7.118,9.003,4.068C8.902,7.72,8.558,22.055,5.768,24.445Z" /></g><g id="i1" transform="matrix(1,0,0,1,292.927,192.432)"><path fill="#a62e3b" d="M-13.85,4.133C-12.526,9.483,5.598,21.181,7.893,19.214C9.554,17.79,12.849,6.039,13.662,-2.183C14.318,-8.82,12.997,-13.505,13.589,-16.009C14.181,-18.513,12.245,-20.919,8.008,-18.302C3.771,-15.685,-9.216,-2.996,-13.85,4.133Z" /></g><g id="i2" transform="matrix(1,0,0,1,292.928,192.426)" opacity="0.35"><path fill="#a62e3b" d="M13.662,-2.176C12.848,6.047,9.554,17.795,7.891,19.218C7.763,19.334,7.579,19.402,7.349,19.428C8.793,14.911,10.28,8.367,10.788,3.211C11.444,-3.427,10.127,-8.11,10.714,-10.615C11.307,-13.12,9.37,-15.527,5.134,-12.907C1.677,-10.774,-7.628,-1.913,-13.448,5.148C-13.633,4.792,-13.771,4.453,-13.85,4.139C-9.219,-2.992,3.767,-15.681,8.008,-18.294C12.244,-20.914,14.181,-18.506,13.588,-16.001C12.995,-13.496,14.318,-8.814,13.662,-2.176Z" /></g></g></g></g></g><g transform="matrix(1,0,0,1,-34,-74)" id="i4"><g id="i13" transform="matrix(1,0,0,1,249.985,234.314)"><path fill="#62376b" d="M68.525,4.754C68.775,11.914,66.815,18.234,63.375,23.674C61.205,27.124,58.435,30.224,55.275,32.964C54.655,33.494,54.035,34.014,53.385,34.514C52.745,35.024,52.095,35.514,51.425,35.984C50.925,36.334,50.415,36.694,49.895,37.034C49.375,37.374,48.855,37.714,48.325,38.034C46.685,39.054,44.995,39.994,43.255,40.854C43.165,40.894,43.065,40.944,42.965,40.984C42.775,41.074,42.575,41.154,42.355,41.244C42.355,41.244,42.345,41.244,42.345,41.244C42.205,41.294,42.065,41.354,41.915,41.404C41.785,41.454,41.655,41.494,41.515,41.544C41.105,41.684,40.655,41.824,40.165,41.964C39.845,42.054,39.505,42.144,39.145,42.234C38.885,42.304,38.605,42.374,38.325,42.444C38.155,42.484,37.965,42.524,37.785,42.574C37.785,42.574,37.775,42.564,37.765,42.574C37.275,42.684,36.755,42.804,36.215,42.914C35.585,43.044,34.915,43.174,34.215,43.304C33.325,43.484,32.395,43.644,31.425,43.804C31.425,43.804,31.415,43.804,31.415,43.804C31.125,43.854,30.825,43.894,30.525,43.944C30.005,44.024,29.475,44.104,28.935,44.184C28.895,44.194,28.855,44.194,28.815,44.204C28.785,44.204,28.745,44.214,28.705,44.224C28.705,44.224,28.675,44.224,28.675,44.224C28.225,44.294,27.755,44.354,27.285,44.424C26.725,44.504,26.155,44.574,25.585,44.654C25.585,44.654,25.375,44.684,25.375,44.684C25.355,44.684,25.325,44.694,25.305,44.694C24.465,44.794,23.615,44.904,22.745,45.004C22.245,45.064,21.745,45.124,21.235,45.184C20.755,45.234,20.265,45.284,19.775,45.334C19.395,45.374,19.015,45.414,18.635,45.454C17.895,45.524,17.145,45.604,16.395,45.674C15.745,45.734,15.105,45.784,14.445,45.844C14.125,45.874,13.795,45.904,13.465,45.924C12.485,46.004,11.495,46.084,10.495,46.154C9.825,46.204,9.155,46.254,8.485,46.294C7.575,46.354,6.665,46.414,5.745,46.464C5.335,46.484,4.915,46.504,4.505,46.534C4.145,46.544,3.785,46.564,3.415,46.584C2.815,46.614,2.215,46.634,1.605,46.664C1.115,46.684,0.635,46.704,0.135,46.724C-0.465,46.744,-1.065,46.764,-1.665,46.774C-2.085,46.794,-2.505,46.804,-2.935,46.814C-3.455,46.824,-3.975,46.834,-4.495,46.844C-13.445,47.004,-21.975,46.674,-28.465,45.614C-28.795,45.564,-29.115,45.504,-29.445,45.454C-29.755,45.414,-30.065,45.374,-30.375,45.324C-31.175,45.214,-31.975,45.114,-32.775,45.014C-32.805,45.014,-32.835,45.014,-32.855,45.004C-32.975,44.984,-33.095,44.974,-33.215,44.954C-33.735,44.894,-34.255,44.834,-34.775,44.774C-34.775,44.774,-34.785,44.774,-34.785,44.774C-35.335,44.704,-35.885,44.644,-36.435,44.574C-36.965,44.514,-37.495,44.444,-38.035,44.374C-38.515,44.304,-38.985,44.244,-39.455,44.174C-39.515,44.164,-39.575,44.154,-39.635,44.144C-40.165,44.064,-40.695,43.984,-41.225,43.884C-41.755,43.804,-42.285,43.704,-42.815,43.594C-43.325,43.484,-43.825,43.374,-44.335,43.254C-44.365,43.244,-44.405,43.244,-44.435,43.234C-44.875,43.124,-45.315,43.014,-45.755,42.884C-45.815,42.874,-45.885,42.854,-45.945,42.834C-49.255,41.884,-52.295,40.474,-55.065,38.674C-55.525,38.374,-55.985,38.064,-56.425,37.744C-56.865,37.424,-57.285,37.094,-57.705,36.764C-57.715,36.754,-57.735,36.744,-57.745,36.734C-58.245,36.354,-58.735,35.944,-59.205,35.514C-59.295,35.434,-59.385,35.354,-59.475,35.264C-61.345,33.594,-63.045,31.704,-64.595,29.634C-65.535,28.374,-66.275,26.994,-66.835,25.534C-69.275,19.264,-68.595,11.494,-67.895,5.194C-67.565,2.144,-67.105,-0.866,-66.655,-3.896C-65.765,-9.766,-63.955,-15.496,-61.075,-20.596C-59.815,-22.866,-58.325,-25.006,-56.635,-26.976C-56.635,-26.976,-56.625,-26.976,-56.625,-26.976C-55.955,-27.766,-55.255,-28.516,-54.505,-29.236C-52.695,-31.016,-50.685,-32.606,-48.455,-33.986C-45.295,-35.946,-41.775,-37.726,-37.965,-39.276C-37.475,-39.476,-36.985,-39.676,-36.485,-39.866C-36.485,-39.866,-36.485,-39.866,-36.475,-39.866C-35.355,-40.306,-34.205,-40.726,-33.035,-41.126C-32.305,-41.376,-31.555,-41.626,-30.795,-41.856C-30.795,-41.856,-30.785,-41.866,-30.785,-41.856C-25.085,-43.656,-18.955,-44.996,-12.605,-45.846C-12.605,-45.846,-12.595,-45.846,-12.595,-45.846C-7.105,-46.576,-1.465,-46.936,4.205,-46.876C6.905,-46.846,9.615,-46.796,12.315,-46.676C17.535,-46.446,22.725,-45.976,27.745,-44.966C27.745,-44.966,27.755,-44.966,27.755,-44.966C29.705,-44.566,31.645,-44.086,33.535,-43.496C33.535,-43.496,33.545,-43.496,33.545,-43.496C34.065,-43.346,34.585,-43.176,35.095,-43.006C40.235,-41.256,45.075,-38.726,49.445,-35.036C50.555,-34.086,51.635,-33.066,52.695,-31.966C53.005,-31.646,53.305,-31.316,53.605,-30.986C53.625,-30.976,53.635,-30.946,53.655,-30.936C53.765,-30.816,53.865,-30.696,53.965,-30.566C54.095,-30.426,54.225,-30.276,54.345,-30.126C54.665,-29.766,54.965,-29.396,55.275,-29.006C55.275,-29.006,55.275,-28.996,55.275,-28.996C55.275,-28.996,55.285,-28.996,55.285,-28.996C55.295,-28.986,55.305,-28.976,55.305,-28.966C55.635,-28.556,55.955,-28.146,56.275,-27.706C56.445,-27.476,56.605,-27.256,56.775,-27.016C56.785,-27.006,56.795,-26.996,56.805,-26.986C56.855,-26.916,56.915,-26.836,56.965,-26.766C57.165,-26.486,57.345,-26.196,57.545,-25.906C57.735,-25.636,57.925,-25.346,58.105,-25.056C58.215,-24.896,58.325,-24.726,58.425,-24.556C58.515,-24.416,58.605,-24.276,58.705,-24.126C58.805,-23.956,58.905,-23.786,59.005,-23.606C59.245,-23.206,59.485,-22.816,59.715,-22.406C59.715,-22.406,59.715,-22.396,59.715,-22.396C59.885,-22.096,60.045,-21.806,60.205,-21.516C61.125,-19.856,61.955,-18.236,62.715,-16.656C63.305,-15.416,63.845,-14.196,64.335,-13.006C64.585,-12.406,64.815,-11.816,65.045,-11.226C65.275,-10.646,65.485,-10.056,65.685,-9.486C65.885,-8.906,66.075,-8.326,66.255,-7.766C66.475,-7.066,66.675,-6.366,66.865,-5.676C67.055,-4.986,67.235,-4.306,67.385,-3.626C67.695,-2.286,67.935,-0.966,68.125,0.314C68.165,0.594,68.205,0.864,68.235,1.154C68.235,1.154,68.235,1.164,68.235,1.164C68.275,1.434,68.305,1.724,68.325,2.004C68.335,2.074,68.345,2.154,68.355,2.234C68.365,2.314,68.375,2.394,68.385,2.474C68.385,2.594,68.395,2.704,68.405,2.814C68.415,2.934,68.425,3.054,68.435,3.164C68.475,3.704,68.505,4.234,68.525,4.754Z" /></g><g><g id="i1" transform="translate(248.65,186.64)"><animateTransform repeatCount="indefinite" type="translate" attributeName="transform" dur="6s" begin="0s" calcMode="spline" values="248.65 186.64; 248.65 189.64; 248.65 186.64; 248.65 189.64; 248.65 186.64; 248.65 186.64; 248.65 189.64; 248.65 189.64; 248.65 186.64; 248.65 186.64" keyTimes="0; 0.066667; 0.133333; 0.2; 0.266666; 0.427778; 0.494444; 0.755556; 0.822222; 1" keySplines="0.333 0 0.667 1; 0.333 0 0.667 1; 0.333 0 0.667 1; 0.333 0 0.667 1; 0 0 1 1; 0.333 0 0.667 1; 0 0 1 1; 0.333 0 0.667 1; 0 0 1 1" fill="freeze" /><path fill="#62376b" d="M-13.879,4.938C-10.713,0.404,-2.761,-6.121,-0.586,-4.421C0,-3.873,-2.779,-1.342,-3.16,0.492C-0.202,-1.626,6.586,-6.476,6.524,-4.457C6.586,-3.439,5.139,-1.502,4.447,-0.024C6.034,-1.507,13.448,-5.844,13.747,-3.711C14.023,-1.577,13.865,0.613,13.284,2.685C7.869,3.359,2.456,4.034,-2.959,4.708C-2.959,4.708,-13.879,4.938,-13.879,4.938Z" /></g></g><g id="i2" transform="matrix(1,0,0,1,255.386,243.272)" opacity="0.5"><path fill="#3d1a44" d="M63.124,-4.204C63.374,2.956,61.414,9.276,57.974,14.716C55.804,18.166,53.034,21.266,49.874,24.006C49.254,24.536,48.634,25.056,47.984,25.556C47.344,26.056,46.684,26.546,46.014,27.016C45.514,27.376,45.004,27.726,44.494,28.076C43.974,28.416,43.454,28.756,42.924,29.076C41.284,30.086,39.594,31.026,37.854,31.886C37.764,31.936,37.664,31.976,37.564,32.026C37.374,32.116,37.174,32.196,36.954,32.286C36.954,32.286,36.944,32.286,36.944,32.286C36.804,32.336,36.664,32.396,36.514,32.446C36.384,32.496,36.254,32.536,36.114,32.586C35.704,32.726,35.254,32.866,34.764,33.006C34.444,33.096,34.104,33.186,33.744,33.276C33.484,33.346,33.204,33.416,32.924,33.486C32.754,33.526,32.564,33.566,32.384,33.616C32.384,33.616,32.374,33.606,32.364,33.616C31.874,33.726,31.354,33.846,30.814,33.956C30.184,34.086,29.514,34.216,28.814,34.346C27.654,34.566,26.424,34.776,25.124,34.986C24.604,35.066,24.074,35.146,23.534,35.226C23.494,35.236,23.454,35.236,23.414,35.246C23.374,35.256,23.334,35.256,23.294,35.256C23.294,35.256,23.284,35.266,23.274,35.266C22.824,35.336,22.354,35.396,21.884,35.466C21.324,35.546,20.754,35.616,20.184,35.696C20.184,35.696,19.974,35.726,19.974,35.726C19.974,35.726,19.904,35.726,19.904,35.726C19.904,35.726,19.904,35.736,19.904,35.736C19.064,35.836,18.214,35.946,17.344,36.046C16.844,36.106,16.344,36.166,15.834,36.226C15.354,36.276,14.864,36.326,14.374,36.376C13.994,36.416,13.614,36.456,13.234,36.496C12.494,36.566,11.744,36.646,10.994,36.716C10.344,36.776,9.704,36.826,9.044,36.886C8.724,36.916,8.394,36.946,8.064,36.966C7.084,37.046,6.094,37.126,5.094,37.196C4.424,37.246,3.754,37.296,3.084,37.336C2.174,37.396,1.264,37.456,0.344,37.506C-0.066,37.526,-0.486,37.546,-0.896,37.576C-1.256,37.586,-1.616,37.606,-1.986,37.626C-2.586,37.656,-3.186,37.676,-3.796,37.706C-4.286,37.726,-4.766,37.746,-5.266,37.766C-5.866,37.786,-6.466,37.806,-7.066,37.816C-7.486,37.836,-7.906,37.846,-8.336,37.856C-8.856,37.866,-9.376,37.876,-9.896,37.886C-18.846,38.046,-27.376,37.716,-33.866,36.656C-34.506,36.556,-35.136,36.456,-35.776,36.366C-36.576,36.256,-37.376,36.156,-38.176,36.056C-38.206,36.056,-38.236,36.056,-38.256,36.046C-38.896,35.976,-39.536,35.896,-40.176,35.816C-40.176,35.816,-40.186,35.816,-40.186,35.816C-40.736,35.746,-41.286,35.686,-41.836,35.616C-42.366,35.556,-42.896,35.486,-43.436,35.416C-43.916,35.346,-44.386,35.286,-44.856,35.216C-44.916,35.206,-44.976,35.196,-45.036,35.186C-45.566,35.106,-46.096,35.026,-46.626,34.926C-47.156,34.846,-47.686,34.746,-48.216,34.636C-48.726,34.526,-49.226,34.416,-49.736,34.296C-49.766,34.286,-49.806,34.286,-49.836,34.276C-50.276,34.166,-50.716,34.056,-51.156,33.926C-51.216,33.916,-51.286,33.896,-51.346,33.876C-54.656,32.926,-57.696,31.516,-60.466,29.716C-60.926,29.416,-61.386,29.106,-61.826,28.786C-62.276,28.466,-62.716,28.136,-63.146,27.786C-63.136,27.796,-63.116,27.796,-63.106,27.806C-61.446,28.716,-58.586,29.636,-54.826,30.476C-54.816,30.476,-54.816,30.476,-54.806,30.476C-52.356,31.036,-49.516,31.556,-46.376,32.026C-45.336,32.186,-44.276,32.336,-43.176,32.486C-43.176,32.486,-43.166,32.486,-43.166,32.486C-41.526,32.706,-39.826,32.906,-38.066,33.096C-37.936,33.106,-37.816,33.116,-37.696,33.126C-37.696,33.126,-37.696,33.136,-37.696,33.136C-36.306,33.276,-34.876,33.416,-33.426,33.536C-17.106,34.936,2.844,34.946,19.404,31.886C19.404,31.886,20.184,31.736,20.184,31.736C21.674,31.456,23.124,31.146,24.544,30.806C25.064,30.686,25.574,30.566,26.084,30.426C26.374,30.356,26.674,30.276,26.964,30.196C31.594,28.976,35.814,27.446,39.424,25.556C41.854,24.296,44.014,22.876,45.834,21.276C45.834,21.276,45.844,21.276,45.844,21.276C47.514,19.806,48.974,18.256,50.244,16.646C61.934,1.816,57.424,-18.344,53.434,-29.554C53.434,-29.554,53.434,-29.564,53.434,-29.564C53.244,-30.084,53.054,-30.584,52.874,-31.064C51.384,-35.014,50.084,-37.574,49.904,-37.924C50.234,-37.514,50.554,-37.104,50.874,-36.664C51.044,-36.434,51.204,-36.214,51.374,-35.974C51.384,-35.964,51.394,-35.954,51.404,-35.944C51.454,-35.874,51.514,-35.794,51.564,-35.724C51.764,-35.444,51.944,-35.154,52.144,-34.864C52.334,-34.594,52.524,-34.304,52.704,-34.014C52.814,-33.854,52.924,-33.684,53.024,-33.514C53.114,-33.374,53.204,-33.234,53.304,-33.084C53.404,-32.914,53.504,-32.744,53.604,-32.564C53.844,-32.164,54.084,-31.774,54.314,-31.364C54.314,-31.364,54.314,-31.354,54.314,-31.354C54.484,-31.054,54.644,-30.764,54.804,-30.474C55.724,-28.814,56.554,-27.194,57.314,-25.614C57.904,-24.374,58.444,-23.154,58.934,-21.964C59.184,-21.364,59.414,-20.774,59.644,-20.184C59.874,-19.604,60.084,-19.014,60.284,-18.444C60.484,-17.864,60.674,-17.284,60.844,-16.724C61.074,-16.024,61.274,-15.324,61.464,-14.634C61.654,-13.944,61.834,-13.264,61.984,-12.584C62.294,-11.244,62.534,-9.924,62.724,-8.644C62.764,-8.364,62.804,-8.094,62.834,-7.804C62.834,-7.804,62.834,-7.794,62.834,-7.794C62.874,-7.524,62.904,-7.234,62.924,-6.954C62.934,-6.884,62.944,-6.804,62.954,-6.724C62.964,-6.644,62.974,-6.564,62.974,-6.484C62.984,-6.364,62.994,-6.254,63.004,-6.144C63.014,-6.024,63.024,-5.904,63.034,-5.794C63.074,-5.254,63.104,-4.724,63.124,-4.204Z" /></g></g><g id="i14"><g transform="translate(216.238,193.669)"><animateTransform repeatCount="indefinite" type="translate" attributeName="transform" dur="6s" begin="0s" calcMode="spline" values="216.238 193.669; 216.238 183.669; 216.238 193.669; 216.238 183.669; 216.238 193.669; 216.238 193.669; 216.238 183.669; 216.238 183.669; 216.238 193.669; 216.238 193.669" keyTimes="0; 0.066667; 0.133333; 0.2; 0.266666; 0.427778; 0.494444; 0.755556; 0.822222; 1" keySplines="0.333 0 0.667 1; 0.333 0 0.667 1; 0.333 0 0.667 1; 0.333 0 0.667 1; 0 0 1 1; 0.333 0 0.667 1; 0 0 1 1; 0.333 0 0.667 1; 0 0 1 1" fill="freeze" /><g transform="scale(1,1) translate(-50,-50)"><g transform="matrix(1,0,0,1,-200.238,-217.669)" id="i15"><g id="i1" transform="matrix(1,0,0,1,0,0)"><g id="i11" transform="matrix(1,0,0,1,212.127,246.575)"><path fill="#f8bb3b" d="M22.864,-7.435C20.984,23.979,-26.24,19.232,-22.671,-13.735C-22.671,-13.735,22.864,-7.435,22.864,-7.435Z" /></g><g id="i12" transform="matrix(1,0,0,1,212.045,247.32)" opacity="0.9"><path fill="#f8bb3b" d="M22.781,-6.35C19.266,22.572,-24.688,17.989,-22.717,-12.99C-20.929,12.978,16.104,16.969,22.781,-6.35Z" /></g><g id="i13" transform="matrix(1,0,0,1,212.127,243.387)"><path fill="#1e121f" d="M16.467,-5.355C15.113,17.27,-18.9,13.852,-16.329,-9.892C-16.329,-9.892,16.467,-5.355,16.467,-5.355Z" /></g><g id="i1" transform="matrix(1,0,0,1,199.562,242.848)"><path fill="#ffffff" d="M2.024,-3.406C-4.019,-1.245,-6.526,3.115,-3.902,3.728C-1.278,4.341,2.905,-0.203,3.835,-1.092C5.729,-2.903,5.22,-4.549,2.024,-3.406Z" /></g><g id="i2" transform="matrix(1,0,0,1,201.745,248.204)"><path fill="#ffffff" d="M1.384,-2.329C-2.748,-0.852,-4.462,2.13,-2.668,2.549C-0.874,2.968,1.986,-0.139,2.622,-0.747C3.917,-1.985,3.569,-3.11,1.384,-2.329Z" /></g></g><g id="i2" transform="matrix(1,0,0,1,0,0)"><g id="i11" transform="matrix(1,0,0,1,279.741,246.339)"><path fill="#f8bb3b" d="M-22.864,-7.435C-20.984,23.979,26.24,19.232,22.671,-13.735C22.671,-13.735,-22.864,-7.435,-22.864,-7.435Z" /></g><g id="i12" transform="matrix(1,0,0,1,280.009,247.276)" opacity="0.9"><path fill="#f8bb3b" d="M-22.596,-4.266C-14.735,17.473,21.15,12.944,22.554,-12.798C24.092,16.997,-17.128,22.007,-22.596,-4.266Z" /></g><g id="i13" transform="matrix(1,0,0,1,279.741,243.15)"><path fill="#1e121f" d="M-16.467,-5.355C-15.113,17.27,18.9,13.852,16.329,-9.892C16.329,-9.892,-16.467,-5.355,-16.467,-5.355Z" /></g><g id="i1" transform="matrix(1,0,0,1,292.306,242.611)"><path fill="#ffffff" d="M-2.024,-3.407C4.019,-1.246,6.526,3.115,3.902,3.728C1.278,4.341,-2.905,-0.202,-3.835,-1.092C-5.729,-2.903,-5.22,-4.55,-2.024,-3.407Z" /></g><g id="i2" transform="matrix(1,0,0,1,290.123,247.968)"><path fill="#ffffff" d="M-1.384,-2.329C2.748,-0.852,4.462,2.13,2.668,2.549C0.874,2.968,-1.986,-0.139,-2.622,-0.747C-3.917,-1.985,-3.569,-3.11,-1.384,-2.329Z" /></g></g></g></g></g></g><g id="i14"><g transform="translate(216.238,193.669)"><animateTransform repeatCount="indefinite" type="translate" attributeName="transform" dur="6s" begin="0s" calcMode="spline" values="216.238 193.669; 216.238 183.669; 216.238 193.669; 216.238 183.669; 216.238 193.669; 216.238 193.669; 216.238 183.669; 216.238 183.669; 216.238 193.669; 216.238 193.669" keyTimes="0; 0.066667; 0.133333; 0.2; 0.266666; 0.427778; 0.494444; 0.755556; 0.822222; 1" keySplines="0.333 0 0.667 1; 0.333 0 0.667 1; 0.333 0 0.667 1; 0.333 0 0.667 1; 0 0 1 1; 0.333 0 0.667 1; 0 0 1 1; 0.333 0 0.667 1; 0 0 1 1" fill="freeze" /><g transform="scale(1,1) translate(-50,-50)"><g id="i10"><g transform="translate(11.992,16.656)"><animateTransform repeatCount="indefinite" type="translate" attributeName="transform" dur="6s" begin="0s" calcMode="spline" values="11.992 16.656; 11.992 16.656; 11.992 19.906; 11.992 19.906; 11.992 16.656; 11.992 16.656" keyTimes="0; 0.294444; 0.361111; 0.888889; 0.933333; 1" keySplines="0 0 1 1; 0.333 0 0.667 1; 0 0 1 1; 0.333 0 0.667 1; 0 0 1 1" fill="freeze" /><g transform="scale(1,1) translate(-212.23,-234.325)"><g id="i16"><path fill="#62376b" d="M191.625,215.875C191.625,215.875,189.375,231.625,189.375,231.625C189.375,231.625,233.5,237.625,233.5,237.625C233.5,237.625,232.375,221.5,232.375,221.5C232.375,221.5,191.625,215.875,191.625,215.875Z" /></g><g id="i1" transform="matrix(1,0,0,1,0,0)"><g id="i10" transform="matrix(1,0,0,1,212.23,234.325)"><path fill="#1e121f" d="M24.529,1.573C24.529,1.573,24.254,-1.419,24.254,-1.419C24.159,-3.009,23.113,-3.174,22.543,-1.536C22.543,-1.536,22.371,-0.793,22.371,-0.793C21.972,1.392,21.188,1.997,18.902,1.57C18.902,1.57,-23.143,-4.638,-23.143,-4.638C-24.91,-5.006,-24.911,-1.76,-23.58,-1.585C-23.58,-1.585,21.33,4.629,21.33,4.629C23.132,4.878,24.541,3.922,24.529,1.573Z" /></g></g></g></g></g></g></g></g><g id="i14"><g transform="translate(216.238,193.669)"><animateTransform repeatCount="indefinite" type="translate" attributeName="transform" dur="6s" begin="0s" calcMode="spline" values="216.238 193.669; 216.238 183.669; 216.238 193.669; 216.238 183.669; 216.238 193.669; 216.238 193.669; 216.238 183.669; 216.238 183.669; 216.238 193.669; 216.238 193.669" keyTimes="0; 0.066667; 0.133333; 0.2; 0.266666; 0.427778; 0.494444; 0.755556; 0.822222; 1" keySplines="0.333 0 0.667 1; 0.333 0 0.667 1; 0.333 0 0.667 1; 0.333 0 0.667 1; 0 0 1 1; 0.333 0 0.667 1; 0 0 1 1; 0.333 0 0.667 1; 0 0 1 1" fill="freeze" /><g transform="scale(1,1) translate(-50,-50)"><g id="i10"><g transform="translate(79.93,16.342)"><animateTransform repeatCount="indefinite" type="translate" attributeName="transform" dur="6s" begin="0s" calcMode="spline" values="79.93 16.342; 79.93 16.342; 79.93 19.592; 79.93 19.592; 79.93 16.342; 79.93 16.342" keyTimes="0; 0.294444; 0.361111; 0.888889; 0.933333; 1" keySplines="0 0 1 1; 0.333 0 0.667 1; 0 0 1 1; 0.333 0 0.667 1; 0 0 1 1" fill="freeze" /><g transform="scale(1,1) translate(-280.168,-234.011)"><g id="i16"><path fill="#62376b" d="M300.875,212.25C300.875,212.25,259.875,216.125,259.875,216.125C259.875,216.125,257.75,237,257.75,237C257.75,237,303.375,231.25,303.375,231.25C303.375,231.25,300.875,212.25,300.875,212.25Z" /></g><g id="i2" transform="matrix(1,0,0,1,0,0)"><g id="i10" transform="matrix(1,0,0,1,280.168,234.011)"><path fill="#1e121f" d="M23.565,-1.59C23.565,-1.59,-21.329,4.622,-21.329,4.622C-24.143,4.981,-25.225,4.067,-25.079,1.04C-25.049,0.425,-24.853,-1.413,-24.853,-1.413C-24.748,-3.245,-23.386,-2.476,-23.166,-1.528C-23.166,-1.528,-23.166,-1.528,-23.166,-1.528C-22.755,1.76,-20.745,1.829,-18.684,1.525C-18.684,1.525,23.323,-4.677,23.323,-4.677C25.568,-4.965,25.706,-1.82,23.565,-1.59Z" /></g></g></g></g></g></g></g></g><g id="i14"><g transform="translate(216.238,193.669)"><animateTransform repeatCount="indefinite" type="translate" attributeName="transform" dur="6s" begin="0s" calcMode="spline" values="216.238 193.669; 216.238 183.669; 216.238 193.669; 216.238 183.669; 216.238 193.669; 216.238 193.669; 216.238 183.669; 216.238 183.669; 216.238 193.669; 216.238 193.669" keyTimes="0; 0.066667; 0.133333; 0.2; 0.266666; 0.427778; 0.494444; 0.755556; 0.822222; 1" keySplines="0.333 0 0.667 1; 0.333 0 0.667 1; 0.333 0 0.667 1; 0.333 0 0.667 1; 0 0 1 1; 0.333 0 0.667 1; 0 0 1 1; 0.333 0 0.667 1; 0 0 1 1" fill="freeze" /><g transform="scale(1,1) translate(-50,-50)"><g opacity="0.5" id="i17"><g transform="translate(30.872,51.822)"><g transform="rotate(0)"><animateTransform repeatCount="indefinite" type="rotate" attributeName="transform" dur="6s" begin="0s" calcMode="spline" values="0; 0; 7; -10; 7; -10; 0; 0" keyTimes="0; 0.533333; 0.57; 0.606667; 0.643333; 0.68; 0.716667; 1" keySplines="0 0 1 1; 0.333 0 0.667 1; 0.333 0 0.667 1; 0.333 0 0.667 1; 0.333 0 0.667 1; 0.333 0 0.667 1; 0 0 1 1" fill="freeze" /><g transform="scale(1,1) translate(-35.33,0)"><g id="i2"><path stroke-linejoin="round" stroke-linecap="round" stroke-width="0.678" stroke="#1e121f" d="M33.9,-6.403C25.63,-4.753,20.21,-8.003,11.83,-8.853C9.18,-9.123,6.5,-9.233,3.87,-9.603C2.13,-9.853,0.42,-10.203,-1.24,-10.793C-2.06,-11.093,-2.87,-11.443,-3.74,-11.513C-4.6,-11.583,-5.56,-11.323,-6.05,-10.613C-6.22,-10.373,-6.33,-10.083,-6.54,-9.893C-6.83,-9.623,-7.23,-9.573,-7.63,-9.643C-7.83,-9.673,-8.02,-9.743,-8.19,-9.833C-8.7,-10.113,-9.13,-10.533,-9.63,-10.823C-10.93,-11.563,-12.74,-11.193,-13.65,-10.013C-14.25,-9.233,-14.53,-8.113,-15.42,-7.673C-16.72,-7.023,-18.12,-8.313,-18.99,-9.483C-19.86,-10.643,-21.17,-11.983,-22.53,-11.453C-23.18,-11.193,-23.59,-10.553,-24.11,-10.073C-25.84,-8.433,-28.57,-8.663,-30.93,-9.003C-31.87,-9.133,-32.82,-9.273,-33.66,-9.703C-34.5,-10.133,-35.22,-10.913,-35.32,-11.853C-35.49,-13.583,-33.65,-14.783,-32,-15.343C-31.34,-15.573,-30.63,-15.773,-29.93,-15.683C-29.24,-15.583,-28.55,-15.103,-28.41,-14.413C-28.16,-13.203,-29.59,-12.343,-30.81,-12.143M33.9,-1.993C27,-2.333,13.12,-1.143,6.68,1.357C6.42,1.457,6.18,1.557,5.92,1.657C5.92,1.657,5.91,1.657,5.91,1.657C5.05,1.957,4.17,2.217,3.28,2.097C1.92,1.927,0.85,0.947,-0.27,0.087C-0.47,-0.063,-0.67,-0.213,-0.88,-0.353C-1.12,-0.513,-1.38,-0.673,-1.67,-0.723C-2.46,-0.873,-3.16,-0.233,-3.8,0.267C-5.74,1.777,-8.46,2.207,-10.78,1.387C-12.12,0.917,-13.39,0.037,-14.81,0.107C-16.36,0.177,-17.71,1.377,-19.27,1.357C-20.4,1.337,-21.41,0.677,-22.42,0.177C-25.08,-1.123,-28.22,-1.413,-31.06,-0.593C-31.61,-0.443,-32.17,-0.223,-32.5,0.237C-33.11,1.057,-32.64,2.317,-31.79,2.877C-30.93,3.447,-29.85,3.497,-28.83,3.487M-19.68,12.807C-20.32,12.547,-21.06,12.427,-21.69,12.697C-22.33,12.977,-22.77,13.747,-22.51,14.377C-22.23,15.067,-21.37,15.267,-20.63,15.367C-17.97,15.737,-15.09,16.077,-12.73,14.807C-12.25,14.557,-11.79,14.227,-11.52,13.757C-11.2,13.217,-11.15,12.547,-10.82,12.017C-9.94,10.627,-7.87,11.007,-6.26,10.697C-5.37,10.527,-4.54,10.107,-3.64,10.037C-2.35,9.937,-1.08,10.567,0.21,10.447C1.84,10.277,3.16,8.947,4.78,8.727C5.99,8.557,7.19,9.037,8.41,9.107C10.17,9.217,11.83,8.497,13.45,7.707C13.92,7.467,14.39,7.237,14.86,7.007C15.45,6.727,16.13,6.457,16.88,6.217C16.89,6.217,16.89,6.217,16.89,6.217C17.32,6.077,17.76,5.937,18.23,5.807C20.9,5.067,24.18,4.487,27.29,3.987C27.98,3.877,28.66,3.777,29.32,3.667C29.74,3.607,30.14,3.547,30.54,3.477C30.54,3.477,30.55,3.477,30.55,3.477C32.38,3.207,34.03,2.937,35.33,2.677" /></g></g></g></g></g></g></g></g><g id="i14"><g transform="translate(216.238,193.669)"><animateTransform repeatCount="indefinite" type="translate" attributeName="transform" dur="6s" begin="0s" calcMode="spline" values="216.238 193.669; 216.238 183.669; 216.238 193.669; 216.238 183.669; 216.238 193.669; 216.238 193.669; 216.238 183.669; 216.238 183.669; 216.238 193.669; 216.238 193.669" keyTimes="0; 0.066667; 0.133333; 0.2; 0.266666; 0.427778; 0.494444; 0.755556; 0.822222; 1" keySplines="0.333 0 0.667 1; 0.333 0 0.667 1; 0.333 0 0.667 1; 0.333 0 0.667 1; 0 0 1 1; 0.333 0 0.667 1; 0 0 1 1; 0.333 0 0.667 1; 0 0 1 1" fill="freeze" /><g transform="scale(1,1) translate(-50,-50)"><g opacity="0.5" id="i17"><g transform="translate(79.132,51.822)"><g transform="rotate(0)"><animateTransform repeatCount="indefinite" type="rotate" attributeName="transform" dur="6s" begin="0s" calcMode="spline" values="0; 0; -11; 10; -11; 10; 0; 0" keyTimes="0; 0.533333; 0.57; 0.606667; 0.643333; 0.68; 0.716667; 1" keySplines="0 0 1 1; 0.333 0 0.667 1; 0.333 0 0.667 1; 0.333 0 0.667 1; 0.333 0 0.667 1; 0.333 0 0.667 1; 0 0 1 1" fill="freeze" /><g transform="scale(1,1) translate(35.326,0)"><g id="i2"><path stroke-linejoin="round" stroke-linecap="round" stroke-width="0.678" stroke="#1e121f" d="M30.814,-12.143C29.594,-12.343,28.164,-13.203,28.404,-14.413C28.544,-15.103,29.234,-15.583,29.934,-15.683C30.634,-15.773,31.334,-15.573,32.004,-15.343C33.644,-14.783,35.494,-13.583,35.314,-11.853C35.224,-10.913,34.504,-10.133,33.664,-9.703C32.824,-9.273,31.864,-9.133,30.934,-9.003C28.564,-8.663,25.844,-8.433,24.104,-10.073C23.594,-10.553,23.184,-11.193,22.524,-11.453C21.174,-11.983,19.864,-10.643,18.994,-9.483C18.124,-8.313,16.724,-7.023,15.414,-7.673C14.524,-8.113,14.254,-9.233,13.644,-10.013C12.744,-11.193,10.924,-11.563,9.634,-10.823C9.124,-10.533,8.704,-10.113,8.184,-9.833C7.674,-9.563,6.974,-9.493,6.544,-9.893C6.334,-10.083,6.224,-10.373,6.054,-10.613C5.554,-11.323,4.604,-11.583,3.734,-11.513C3.714,-11.513,3.684,-11.513,3.664,-11.503C2.834,-11.423,2.044,-11.083,1.244,-10.793C-0.476,-10.183,-2.256,-9.823,-4.066,-9.573C-5.506,-9.383,-6.966,-9.263,-8.426,-9.153C-9.566,-9.053,-10.706,-8.973,-11.826,-8.853C-20.216,-8.003,-25.636,-4.753,-33.896,-6.403M28.834,3.487C29.854,3.497,30.934,3.447,31.784,2.877C32.634,2.317,33.114,1.057,32.504,0.237C32.174,-0.223,31.604,-0.443,31.064,-0.593C28.224,-1.413,25.074,-1.123,22.424,0.177C21.404,0.677,20.404,1.337,19.264,1.357C17.714,1.377,16.364,0.177,14.814,0.107C13.394,0.037,12.124,0.917,10.784,1.387C8.464,2.207,5.744,1.777,3.794,0.267C3.154,-0.233,2.464,-0.873,1.664,-0.723C1.374,-0.673,1.124,-0.513,0.874,-0.353C-0.466,0.567,-1.666,1.897,-3.276,2.097C-4.446,2.247,-5.586,1.777,-6.676,1.357C-7.176,1.167,-7.706,0.977,-8.286,0.807C-8.286,0.807,-8.296,0.797,-8.296,0.797C-9.326,0.487,-10.466,0.197,-11.696,-0.063C-12.706,-0.283,-13.776,-0.483,-14.886,-0.663C-21.456,-1.763,-29.256,-2.223,-33.896,-1.993M-35.326,2.677C-35.286,2.687,-35.256,2.687,-35.216,2.697C-34.486,2.847,-33.636,2.997,-32.706,3.147C-32.696,3.147,-32.696,3.147,-32.686,3.147C-32.106,3.237,-31.486,3.337,-30.846,3.437C-29.736,3.607,-28.556,3.787,-27.346,3.977C-26.496,4.117,-25.616,4.267,-24.746,4.417C-24.736,4.417,-24.736,4.417,-24.726,4.417C-22.086,4.877,-19.486,5.407,-17.366,6.067C-17.366,6.067,-17.356,6.067,-17.356,6.067C-16.416,6.357,-15.566,6.667,-14.856,7.007C-12.796,7.997,-10.696,9.247,-8.406,9.107C-7.186,9.037,-5.986,8.557,-4.776,8.727C-3.156,8.947,-1.836,10.277,-0.206,10.447C1.084,10.567,2.354,9.937,3.644,10.037C4.544,10.107,5.374,10.527,6.254,10.697C7.874,11.007,9.944,10.627,10.814,12.017C11.154,12.547,11.204,13.217,11.524,13.757C11.794,14.227,12.254,14.557,12.724,14.807C15.094,16.077,17.974,15.737,20.634,15.367C21.364,15.267,22.224,15.067,22.514,14.377C22.774,13.747,22.324,12.977,21.694,12.697C21.064,12.427,20.324,12.547,19.684,12.807" /></g></g></g></g></g></g></g></g><g transform="matrix(1,0,0,1,-34,-74)" id="i18"><g id="i9" transform="matrix(1,0,0,1,0,0)"><g id="i1" transform="matrix(1,0,0,1,0,0)"><g id="i11" transform="matrix(1,0,0,1,0,0)"><g id="i10" transform="matrix(1,0,0,1,89.303,422.307)"><path stroke-linejoin="round" stroke-linecap="round" stroke-width="0.629" stroke="#298e44" d="M0.096,1.691C0.096,1.691,0.496,-0.484,-0.209,-1.691" /></g><g id="i11" transform="matrix(1,0,0,1,87.873,422.793)"><path stroke-linejoin="round" stroke-linecap="round" stroke-width="0.629" stroke="#ffffff" d="M0.898,1.444C0.898,1.444,0.556,-1.168,-0.898,-1.444" /></g><g id="i12" transform="matrix(1,0,0,1,86.912,423.292)"><path stroke-linejoin="round" stroke-linecap="round" stroke-width="0.629" stroke="#344ea1" d="M1.092,1.016C1.092,1.016,0.369,-1.188,-1.092,-1.005" /></g><g id="i13" transform="matrix(1,0,0,1,91.022,422.627)"><path stroke-linejoin="round" stroke-linecap="round" stroke-width="0.629" stroke="#d12026" d="M-0.592,1.793C-0.592,1.793,-0.828,-0.981,0.606,-1.793" /></g><g id="i1" transform="matrix(1,0,0,1,152.798,436.819)"><g id="i2"><path fill="#2b232d" d="M-61.716,-13.781C-61.716,-13.781,-65.605,-12.849,-65.605,-12.849C-65.454,-12.218,-61.764,2.668,-48.597,9.944C-39.958,14.716,-29.377,15.039,-17.147,10.9C19.363,-1.456,64.257,8.66,64.706,8.764C64.706,8.764,65.605,4.866,65.605,4.866C63.727,4.431,19.176,-5.616,-18.429,7.111C-29.535,10.869,-39.022,10.651,-46.63,6.461C-58.247,0.063,-61.682,-13.643,-61.716,-13.781Z" /></g></g><g id="i2" transform="matrix(1,0,0,1,89.162,423.232)"><path fill="#2b232d" d="M-1.969,0.738C-1.969,0.738,-1.966,0.281,-2.466,-0.094C-1.445,0.114,-1.424,0.322,-1.424,0.322C-1.424,0.322,-1.024,-0.925,-1.024,-0.925C-1.024,-0.925,-0.607,0.06,-0.607,0.06C-0.607,0.06,0.239,-1.353,1.055,-1.594C0.951,-1.219,1.055,-0.344,1.055,-0.344C1.055,-0.344,2.466,-1.449,2.466,-1.449C2.466,-1.449,1.891,-1.149,1.921,-0.195C1.951,0.759,1.514,1.239,1.253,1.322C0.992,1.405,-0.591,1.614,-0.695,1.593C-0.799,1.572,-1.969,0.738,-1.969,0.738Z" /></g></g><g id="i12" transform="matrix(1,0,0,1,152.243,436.539)" opacity="0.5"><path fill="#160e18" d="M-15.555,10.138C-27.785,14.278,-38.365,13.958,-47.005,9.178C-57.555,3.348,-62.025,-7.382,-63.455,-11.732C-63.605,-12.192,-63.725,-12.572,-63.805,-12.872C-63.925,-13.282,-63.985,-13.542,-64.005,-13.612C-64.005,-13.612,-64.005,-13.822,-64.155,-14.062C-64.155,-14.062,-64.505,-12.982,-64.505,-12.982C-64.505,-12.982,-64.515,-13.042,-64.665,-13.122C-64.795,-13.202,-65.055,-13.302,-65.545,-13.402C-65.065,-13.032,-65.055,-12.602,-65.055,-12.572C-64.895,-11.942,-61.205,2.948,-48.045,10.228C-39.405,14.998,-28.825,15.318,-16.595,11.178C19.915,-1.172,64.815,8.938,65.265,9.048C65.265,9.048,65.545,7.838,65.545,7.838C59.485,6.568,18.345,-1.342,-15.555,10.138Z" /></g><g id="i13" transform="matrix(1,0,0,1,82.592,416.284)"><path stroke-linejoin="round" stroke-linecap="round" stroke-width="0.629" stroke="#ffffff" d="M-2.167,-1.75C-2.167,-1.75,0.334,-1.167,2.167,1.75" /></g><g id="i1" transform="matrix(1,0,0,1,86.165,414.888)"><path stroke-linejoin="round" stroke-linecap="round" stroke-width="0.629" stroke="#ffffff" d="M-0.531,-2.771C-0.531,-2.771,-0.531,1.104,0.531,2.771" /></g><g id="i2" transform="matrix(1,0,0,1,89.968,414.914)"><path stroke-linejoin="round" stroke-linecap="round" stroke-width="0.629" stroke="#ffffff" d="M1.197,-2.609C1.197,-2.609,-1.246,-0.11,-1.196,2.609" /></g></g><g id="i2" transform="matrix(1,0,0,1,0,0)"><g id="i1" transform="matrix(1,0,0,1,371.227,416.5)"><g id="i2"><path fill="#2b232d" d="M-29.223,31.046C-29.223,31.046,-29.272,27.046,-29.272,27.046C-2.739,26.729,16.266,19.276,22.871,6.599C26.774,-0.892,25.857,-9.819,20.355,-17.893C7.425,-36.864,-23.635,-20.15,-23.947,-19.978C-23.947,-19.978,-25.869,-23.486,-25.869,-23.486C-24.464,-24.255,8.713,-42.083,23.659,-20.145C30.018,-10.815,31.024,-0.394,26.419,8.446C22.124,16.689,9.185,30.586,-29.223,31.046Z" /></g></g><g id="i2" transform="matrix(1,0,0,1,0,0)"><g id="i1" transform="matrix(1,0,0,1,368.708,437.994)"><path fill="#160e18" d="M26.755,-9.555C20.815,-1.395,6.675,9.155,-26.705,9.555C-26.705,9.555,-26.755,5.555,-26.755,5.555C-26.355,5.555,-25.955,5.545,-25.565,5.535C-25.565,5.535,-25.535,8.055,-25.535,8.055C5.825,7.675,20.205,-1.655,26.755,-9.555Z" /></g><g id="i2" transform="matrix(1,0,0,1,371.501,407.068)"><path fill="#160e18" d="M-24.218,-10.549C-24.218,-10.549,-26.148,-14.059,-26.148,-14.059C-25.988,-14.139,-25.448,-14.429,-24.588,-14.849C-24.588,-14.849,-23.058,-12.049,-23.058,-12.049C-22.738,-12.219,8.322,-28.929,21.242,-9.959C26.752,-1.889,27.662,7.041,23.762,14.531C22.942,16.101,21.932,17.601,20.742,19.011C21.442,18.051,22.052,17.061,22.592,16.031C26.502,8.541,25.582,-0.389,20.082,-8.459C7.152,-27.429,-23.908,-10.719,-24.218,-10.549Z" /></g></g></g></g><g id="i10" transform="matrix(1,0,0,1,247.159,455.064)"><path fill="#5c290d" d="M116.424,6.84C116.424,6.84,-116.424,6.84,-116.424,6.84C-123.979,6.84,-130.104,0.715,-130.104,-6.84C-130.104,-6.84,-130.104,-6.84,-130.104,-6.84C-130.104,-6.84,130.104,-6.84,130.104,-6.84C130.104,-6.84,130.104,-6.84,130.104,-6.84C130.104,0.715,123.979,6.84,116.424,6.84Z" /></g><g id="i11" transform="matrix(1,0,0,1,0,0)"><g id="i12" transform="matrix(1,0,0,1,247.16,373.683)"><path fill="#5c290d" d="M122.54,-60.193C122.54,-60.193,122.54,60.183,122.54,60.183C122.54,70.986,113.782,79.745,102.978,79.745C102.978,79.745,-102.988,79.745,-102.988,79.745C-113.786,79.745,-122.54,70.991,-122.54,60.193C-122.54,60.193,-122.54,-60.193,-122.54,-60.193C-122.54,-70.991,-113.786,-79.745,-102.988,-79.745C-102.988,-79.745,102.988,-79.745,102.988,-79.745C113.786,-79.745,122.54,-70.991,122.54,-60.193Z" /></g><g id="i13" transform="matrix(1,0,0,1,247.159,373.681)"><path fill="#ffc23c" d="M101.019,74.543C101.019,74.543,-101.019,74.543,-101.019,74.543C-108.493,74.543,-114.552,68.484,-114.552,61.01C-114.552,61.01,-114.552,-61.01,-114.552,-61.01C-114.552,-68.484,-108.493,-74.543,-101.019,-74.543C-101.019,-74.543,101.019,-74.543,101.019,-74.543C108.493,-74.543,114.552,-68.484,114.552,-61.01C114.552,-61.01,114.552,61.01,114.552,61.01C114.552,68.484,108.493,74.543,101.019,74.543Z" /></g><g id="i1" transform="matrix(1,0,0,1,248.5,372.34)"><path fill="#ffd37d" d="M113.21,-63.747C113.21,-63.747,113.21,62.355,113.21,62.355C113.21,66.795,111.07,70.725,107.78,73.205C109.46,70.945,110.45,68.145,110.45,65.115C110.45,65.115,110.45,-60.987,110.45,-60.987C110.45,-66.21,106.215,-70.445,100.992,-70.445C100.992,-70.445,-105.12,-70.445,-105.12,-70.445C-108.15,-70.445,-110.95,-69.445,-113.21,-67.765C-110.73,-71.065,-106.8,-73.205,-102.36,-73.205C-102.36,-73.205,103.752,-73.205,103.752,-73.205C108.975,-73.205,113.21,-68.97,113.21,-63.747Z" /></g><g id="i2" transform="matrix(1,0,0,1,247.875,448.974)"><g id="i2"><path fill="#e17126" d="M124.375,-0.745C103.645,-0.165,82.915,0.225,62.185,0.425C51.825,0.565,41.455,0.585,31.095,0.675C31.095,0.675,0.005,0.745,0.005,0.745C0.005,0.745,-31.095,0.665,-31.095,0.665C-41.455,0.585,-51.825,0.555,-62.185,0.415C-82.915,0.215,-103.645,-0.165,-124.375,-0.745C-124.375,-0.745,124.375,-0.745,124.375,-0.745Z" /></g></g></g><g id="i12" transform="matrix(1,0,0,1,0,0)"><g id="i1" transform="matrix(1,0,0,1,245.531,375.31)"><path fill="#e26525" d="M79.742,-61.384C79.742,-61.384,-79.742,-61.384,-79.742,-61.384C-84.15,-61.384,-87.715,-57.809,-87.715,-53.401C-87.715,-53.401,-87.715,53.411,-87.715,53.411C-87.715,57.819,-84.15,61.384,-79.742,61.384C-79.742,61.384,79.742,61.384,79.742,61.384C84.14,61.384,87.715,57.819,87.715,53.411C87.715,53.411,87.715,-53.401,87.715,-53.401C87.715,-57.809,84.14,-61.384,79.742,-61.384Z" /></g><g id="i2" transform="matrix(1,0,0,1,0,0)"><g id="i13" transform="matrix(1,0,0,1,168.691,323.66)"><path fill="#000000" d="M2.061,0C2.061,1.138,1.138,2.061,0,2.061C-1.138,2.061,-2.061,1.138,-2.061,0C-2.061,-1.138,-1.138,-2.061,0,-2.061C1.138,-2.061,2.061,-1.138,2.061,0Z" /></g><g id="i1" transform="matrix(1,0,0,1,178.423,323.66)"><path fill="#000000" d="M2.061,0C2.061,1.138,1.138,2.061,0,2.061C-1.138,2.061,-2.061,1.138,-2.061,0C-2.061,-1.138,-1.138,-2.061,0,-2.061C1.138,-2.061,2.061,-1.138,2.061,0Z" /></g><g id="i2" transform="matrix(1,0,0,1,188.156,323.66)"><path fill="#000000" d="M2.061,0C2.061,1.138,1.138,2.061,0,2.061C-1.138,2.061,-2.061,1.138,-2.061,0C-2.061,-1.138,-1.138,-2.061,0,-2.061C1.138,-2.061,2.061,-1.138,2.061,0Z" /></g></g></g><g id="i13" transform="matrix(1,0,0,1,0,0)"><g id="i13" transform="matrix(1,0,0,1,248.788,372.053)"><path fill="#ffffff" d="M87.715,-53.401C87.715,-53.401,87.715,53.411,87.715,53.411C87.715,57.819,84.14,61.384,79.742,61.384C79.742,61.384,-79.742,61.384,-79.742,61.384C-84.15,61.384,-87.715,57.819,-87.715,53.411C-87.715,53.411,-87.715,-53.401,-87.715,-53.401C-87.715,-57.809,-84.15,-61.384,-79.742,-61.384C-79.742,-61.384,79.742,-61.384,79.742,-61.384C84.14,-61.384,87.715,-57.809,87.715,-53.401Z" /></g><g id="i1" transform="matrix(1,0,0,1,248.788,320.403)"><path fill="#e26525" d="M87.715,-1.751C87.715,-1.751,87.715,9.734,87.715,9.734C87.715,9.734,-87.715,9.734,-87.715,9.734C-87.715,9.734,-87.715,-1.751,-87.715,-1.751C-87.715,-6.159,-84.15,-9.734,-79.742,-9.734C-79.742,-9.734,79.742,-9.734,79.742,-9.734C84.14,-9.734,87.715,-6.159,87.715,-1.751Z" /></g><g id="i2" transform="matrix(1,0,0,1,0,0)"><g id="i13" transform="matrix(1,0,0,1,171.948,320.403)"><path fill="#ffffff" d="M2.061,0C2.061,1.138,1.138,2.061,0,2.061C-1.138,2.061,-2.061,1.138,-2.061,0C-2.061,-1.138,-1.138,-2.061,0,-2.061C1.138,-2.061,2.061,-1.138,2.061,0Z" /></g><g id="i1" transform="matrix(1,0,0,1,181.68,320.403)"><path fill="#ffffff" d="M2.061,0C2.061,1.138,1.138,2.061,0,2.061C-1.138,2.061,-2.061,1.138,-2.061,0C-2.061,-1.138,-1.138,-2.061,0,-2.061C1.138,-2.061,2.061,-1.138,2.061,0Z" /></g><g id="i2" transform="matrix(1,0,0,1,191.412,320.403)"><path fill="#ffffff" d="M2.061,0C2.061,1.138,1.138,2.061,0,2.061C-1.138,2.061,-2.061,1.138,-2.061,0C-2.061,-1.138,-1.138,-2.061,0,-2.061C1.138,-2.061,2.061,-1.138,2.061,0Z" /></g></g></g><g id="i1" transform="matrix(1,0,0,1,0,0)"><g id="i13" transform="matrix(1,0,0,1,213.574,367.112)"><path fill="#e26525" d="M-13.562,9.542C-13.562,9.542,-13.562,6.2,-13.562,6.2C-13.562,6.2,3.439,-17.341,3.439,-17.341C3.439,-17.341,8.719,-17.341,8.719,-17.341C8.719,-17.341,8.719,5.716,8.719,5.716C8.719,5.716,13.562,5.716,13.562,5.716C13.562,5.716,13.562,9.542,13.562,9.542C13.562,9.542,8.719,9.542,8.719,9.542C8.719,9.542,8.719,17.341,8.719,17.341C8.719,17.341,4.359,17.341,4.359,17.341C4.359,17.341,4.359,9.542,4.359,9.542C4.359,9.542,-13.562,9.542,-13.562,9.542ZM4.553,-12.739C4.553,-12.739,-8.477,5.716,-8.477,5.716C-8.477,5.716,4.553,5.716,4.553,5.716C4.553,5.716,4.553,-12.739,4.553,-12.739Z" /></g><g id="i1" transform="matrix(1,0,0,1,243.726,366.676)"><path fill="#e26525" d="M-9.469,-13.102C-7.661,-16.218,-4.497,-17.777,0.024,-17.777C4.512,-17.777,7.66,-16.218,9.47,-13.102C11.278,-9.986,12.182,-5.651,12.182,-0.097C12.182,5.554,11.278,9.947,9.47,13.079C7.66,16.212,4.512,17.777,0.024,17.777C-4.497,17.777,-7.661,16.212,-9.469,13.079C-11.278,9.947,-12.182,5.554,-12.182,-0.097C-12.182,-5.651,-11.278,-9.986,-9.469,-13.102ZM7.266,-7.242C6.894,-9.195,6.135,-10.769,4.989,-11.964C3.843,-13.158,2.187,-13.756,0.024,-13.756C-2.172,-13.756,-3.843,-13.158,-4.989,-11.964C-6.136,-10.769,-6.895,-9.195,-7.266,-7.242C-7.638,-5.288,-7.823,-2.906,-7.823,-0.097C-7.823,2.809,-7.638,5.248,-7.266,7.217C-6.895,9.187,-6.136,10.77,-4.989,11.964C-3.843,13.159,-2.172,13.756,0.024,13.756C2.187,13.756,3.843,13.159,4.989,11.964C6.135,10.77,6.894,9.187,7.266,7.217C7.637,5.248,7.823,2.809,7.823,-0.097C7.823,-2.906,7.637,-5.288,7.266,-7.242Z" /></g><g id="i2" transform="matrix(1,0,0,1,274.46,367.112)"><path fill="#e26525" d="M-13.562,9.542C-13.562,9.542,-13.562,6.2,-13.562,6.2C-13.562,6.2,3.439,-17.341,3.439,-17.341C3.439,-17.341,8.719,-17.341,8.719,-17.341C8.719,-17.341,8.719,5.716,8.719,5.716C8.719,5.716,13.562,5.716,13.562,5.716C13.562,5.716,13.562,9.542,13.562,9.542C13.562,9.542,8.719,9.542,8.719,9.542C8.719,9.542,8.719,17.341,8.719,17.341C8.719,17.341,4.359,17.341,4.359,17.341C4.359,17.341,4.359,9.542,4.359,9.542C4.359,9.542,-13.562,9.542,-13.562,9.542ZM4.554,-12.739C4.554,-12.739,-8.477,5.716,-8.477,5.716C-8.477,5.716,4.554,5.716,4.554,5.716C4.554,5.716,4.554,-12.739,4.554,-12.739Z" /></g></g><g id="i2" transform="matrix(1,0,0,1,0,0)"><g id="i11" transform="matrix(1,0,0,1,206.302,404.89)"><path fill="#e26525" d="M-3.002,-8.523C-3.002,-8.523,-3.002,-1.275,-3.002,-1.275C-3.002,-1.275,4.899,-1.275,4.899,-1.275C4.899,-1.275,4.899,1.058,4.899,1.058C4.899,1.058,-3.002,1.058,-3.002,1.058C-3.002,1.058,-3.002,8.523,-3.002,8.523C-3.002,8.523,5.833,8.523,5.833,8.523C5.833,8.523,5.833,10.856,5.833,10.856C5.833,10.856,-5.833,10.856,-5.833,10.856C-5.833,10.856,-5.833,-10.856,-5.833,-10.856C-5.833,-10.856,5.833,-10.856,5.833,-10.856C5.833,-10.856,5.833,-8.523,5.833,-8.523C5.833,-8.523,-3.002,-8.523,-3.002,-8.523Z" /></g><g id="i12" transform="matrix(1,0,0,1,223.83,404.905)"><path fill="#e26525" d="M4.012,10.841C4.012,10.841,-1.151,1.976,-1.151,1.976C-1.151,1.976,-4.573,1.976,-4.573,1.976C-4.573,1.976,-4.573,10.841,-4.573,10.841C-4.573,10.841,-7.404,10.841,-7.404,10.841C-7.404,10.841,-7.404,-10.841,-7.404,-10.841C-7.404,-10.841,-0.405,-10.841,-0.405,-10.841C1.233,-10.841,2.617,-10.562,3.748,-10.001C4.878,-9.441,5.723,-8.683,6.283,-7.73C6.843,-6.776,7.123,-5.688,7.123,-4.464C7.123,-2.971,6.692,-1.654,5.832,-0.514C4.971,0.627,3.681,1.384,1.96,1.758C1.96,1.758,7.404,10.841,7.404,10.841C7.404,10.841,4.012,10.841,4.012,10.841ZM-4.573,-0.296C-4.573,-0.296,-0.405,-0.296,-0.405,-0.296C1.129,-0.296,2.281,-0.674,3.048,-1.431C3.815,-2.188,4.199,-3.199,4.199,-4.464C4.199,-5.75,3.821,-6.745,3.064,-7.45C2.307,-8.155,1.15,-8.508,-0.405,-8.508C-0.405,-8.508,-4.573,-8.508,-4.573,-8.508C-4.573,-8.508,-4.573,-0.296,-4.573,-0.296Z" /></g><g id="i13" transform="matrix(1,0,0,1,242.743,404.905)"><path fill="#e26525" d="M4.012,10.841C4.012,10.841,-1.151,1.976,-1.151,1.976C-1.151,1.976,-4.573,1.976,-4.573,1.976C-4.573,1.976,-4.573,10.841,-4.573,10.841C-4.573,10.841,-7.404,10.841,-7.404,10.841C-7.404,10.841,-7.404,-10.841,-7.404,-10.841C-7.404,-10.841,-0.405,-10.841,-0.405,-10.841C1.233,-10.841,2.617,-10.562,3.748,-10.001C4.878,-9.441,5.723,-8.683,6.283,-7.73C6.843,-6.776,7.123,-5.688,7.123,-4.464C7.123,-2.971,6.692,-1.654,5.832,-0.514C4.971,0.627,3.681,1.384,1.96,1.758C1.96,1.758,7.404,10.841,7.404,10.841C7.404,10.841,4.012,10.841,4.012,10.841ZM-4.573,-0.296C-4.573,-0.296,-0.405,-0.296,-0.405,-0.296C1.129,-0.296,2.281,-0.674,3.048,-1.431C3.815,-2.188,4.199,-3.199,4.199,-4.464C4.199,-5.75,3.821,-6.745,3.064,-7.45C2.307,-8.155,1.15,-8.508,-0.405,-8.508C-0.405,-8.508,-4.573,-8.508,-4.573,-8.508C-4.573,-8.508,-4.573,-0.296,-4.573,-0.296Z" /></g><g id="i1" transform="matrix(1,0,0,1,264.083,404.89)"><path fill="#e26525" d="M-5.507,9.659C-7.166,8.716,-8.477,7.398,-9.441,5.708C-10.406,4.019,-10.888,2.115,-10.888,0C-10.888,-2.115,-10.406,-4.018,-9.441,-5.708C-8.477,-7.398,-7.166,-8.715,-5.507,-9.659C-3.848,-10.602,-2.012,-11.074,0,-11.074C2.032,-11.074,3.877,-10.602,5.537,-9.659C7.195,-8.715,8.502,-7.404,9.456,-5.724C10.41,-4.044,10.888,-2.136,10.888,0C10.888,2.136,10.41,4.044,9.456,5.724C8.502,7.404,7.195,8.716,5.537,9.659C3.877,10.602,2.032,11.074,0,11.074C-2.012,11.074,-3.848,10.602,-5.507,9.659ZM4.09,7.559C5.304,6.855,6.257,5.849,6.952,4.542C7.646,3.235,7.994,1.722,7.994,0C7.994,-1.742,7.646,-3.261,6.952,-4.558C6.257,-5.854,5.308,-6.854,4.105,-7.56C2.903,-8.264,1.534,-8.617,0,-8.617C-1.535,-8.617,-2.904,-8.264,-4.106,-7.56C-5.309,-6.854,-6.259,-5.854,-6.953,-4.558C-7.647,-3.261,-7.995,-1.742,-7.995,0C-7.995,1.722,-7.647,3.235,-6.953,4.542C-6.259,5.849,-5.304,6.855,-4.091,7.559C-2.878,8.265,-1.515,8.617,0,8.617C1.514,8.617,2.877,8.265,4.09,7.559Z" /></g><g id="i2" transform="matrix(1,0,0,1,286.106,404.905)"><path fill="#e26525" d="M4.013,10.841C4.013,10.841,-1.151,1.976,-1.151,1.976C-1.151,1.976,-4.573,1.976,-4.573,1.976C-4.573,1.976,-4.573,10.841,-4.573,10.841C-4.573,10.841,-7.403,10.841,-7.403,10.841C-7.403,10.841,-7.403,-10.841,-7.403,-10.841C-7.403,-10.841,-0.404,-10.841,-0.404,-10.841C1.234,-10.841,2.618,-10.562,3.748,-10.001C4.879,-9.441,5.723,-8.683,6.284,-7.73C6.844,-6.776,7.124,-5.688,7.124,-4.464C7.124,-2.971,6.693,-1.654,5.833,-0.514C4.972,0.627,3.681,1.384,1.96,1.758C1.96,1.758,7.403,10.841,7.403,10.841C7.403,10.841,4.013,10.841,4.013,10.841ZM-4.573,-0.296C-4.573,-0.296,-0.404,-0.296,-0.404,-0.296C1.13,-0.296,2.281,-0.674,3.049,-1.431C3.816,-2.188,4.199,-3.199,4.199,-4.464C4.199,-5.75,3.821,-6.745,3.064,-7.45C2.306,-8.155,1.152,-8.508,-0.404,-8.508C-0.404,-8.508,-4.573,-8.508,-4.573,-8.508C-4.573,-8.508,-4.573,-0.296,-4.573,-0.296Z" /></g></g></g><g id="i14"><g transform="translate(216.238,193.669)"><animateTransform repeatCount="indefinite" type="translate" attributeName="transform" dur="6s" begin="0s" calcMode="spline" values="216.238 193.669; 216.238 183.669; 216.238 193.669; 216.238 183.669; 216.238 193.669; 216.238 193.669; 216.238 183.669; 216.238 183.669; 216.238 193.669; 216.238 193.669" keyTimes="0; 0.066667; 0.133333; 0.2; 0.266666; 0.427778; 0.494444; 0.755556; 0.822222; 1" keySplines="0.333 0 0.667 1; 0.333 0 0.667 1; 0.333 0 0.667 1; 0.333 0 0.667 1; 0 0 1 1; 0.333 0 0.667 1; 0 0 1 1; 0.333 0 0.667 1; 0 0 1 1" fill="freeze" /><g transform="scale(1,1) translate(-50,-50)"><g transform="matrix(1,0,0,1,-200.238,-217.668)" id="i19"><g id="i1" transform="matrix(1,0,0,1,243.854,247.635)" opacity="0.65"><path fill="#a62e3b" d="M2.386,-0.623C0.957,-1.047,-1.253,-0.747,-2.485,0.12C-2.737,0.297,-2.651,0.803,-2.31,0.812C-1.564,0.832,-0.863,0.545,-0.133,0.404C0.663,0.251,1.462,0.226,2.268,0.169C2.658,0.142,2.787,-0.504,2.386,-0.623Z" /></g><g id="i2" transform="matrix(1,0,0,1,0,0)"><g id="i8" transform="matrix(1,0,0,1,191.028,332.341)"><path stroke-linejoin="round" stroke-linecap="round" stroke-width="0.629" stroke="#298e44" d="M0.634,-1.575C0.634,-1.575,-0.71,0.179,-0.631,1.575" /></g><g id="i9" transform="matrix(1,0,0,1,192.314,332.532)"><path stroke-linejoin="round" stroke-linecap="round" stroke-width="0.629" stroke="#ffffff" d="M0.017,-1.694C0.017,-1.694,-0.866,0.787,0.303,1.694" /></g><g id="i10" transform="matrix(1,0,0,1,193.538,332.52)"><path stroke-linejoin="round" stroke-linecap="round" stroke-width="0.629" stroke="#344ea1" d="M-0.492,-1.396C-0.492,-1.396,-0.85,0.895,0.534,1.396" /></g><g id="i11" transform="matrix(1,0,0,1,189.587,331.246)"><path stroke-linejoin="round" stroke-linecap="round" stroke-width="0.629" stroke="#d12026" d="M1.348,-1.325C1.348,-1.325,0.299,1.253,-1.348,1.325" /></g><g id="i12" transform="matrix(1,0,0,1,237.228,294.287)"><path fill="#2b232d" d="M45.327,-19.913C35.753,-32.651,17.491,-43.247,0.014,-36.411C-3.439,-35.06,-6.841,-33.084,-10.097,-30.537C-21.757,-21.417,-28.962,-8.037,-33.936,2.602C-38.94,13.303,-43.675,23.841,-46.819,34.922C-46.821,34.923,-46.831,34.927,-46.831,34.927C-46.831,34.927,-47.643,36.503,-48.502,36.837C-48.502,36.837,-48.12,37.123,-47.07,36.55C-46.497,36.216,-46.211,37.457,-46.211,37.791C-46.211,38.125,-45.307,37.457,-45.307,37.457C-45.307,37.457,-44.826,36.789,-44.349,38.555C-44.206,37.744,-44.063,37.409,-43.824,37.648C-43.585,37.887,-42.631,38.555,-42.631,38.555C-42.631,38.555,-43.395,38.053,-43.042,35.611C-39.974,24.927,-35.357,14.656,-30.477,4.218C-25.683,-6.035,-18.766,-18.909,-7.744,-27.53C-4.78,-29.848,-1.702,-31.64,1.405,-32.855C17.025,-38.968,33.54,-29.241,42.274,-17.619C43.303,-16.249,44.309,-14.78,45.262,-13.253C45.262,-13.253,48.502,-15.274,48.502,-15.274C47.491,-16.895,46.422,-18.456,45.327,-19.913Z" /></g><g id="i13" transform="matrix(1,0,0,1,239.73,295.29)" opacity="0.5"><path fill="#160e18" d="M45.999,-16.274C45.999,-16.274,42.76,-14.251,42.76,-14.251C41.803,-15.778,40.805,-17.247,39.773,-18.623C31.037,-30.245,14.523,-39.971,-1.094,-33.854C-4.207,-32.646,-7.278,-30.85,-10.249,-28.534C-21.267,-19.916,-28.182,-7.035,-32.982,3.22C-37.858,13.651,-42.473,23.922,-45.544,34.604C-45.846,36.693,-45.334,37.365,-45.175,37.524C-45.301,37.432,-45.678,37.164,-45.972,36.937C-45.989,36.66,-46.005,36.375,-45.997,36.098C-45.972,34.529,-45.586,33.018,-45.158,31.516C-44.764,30.19,-44.344,28.881,-43.908,27.572C-43.027,24.945,-42.061,22.344,-41.046,19.768C-40.014,17.167,-38.931,14.59,-37.807,12.031C-36.674,9.438,-35.499,6.861,-34.316,4.302C-33.871,3.345,-33.427,2.39,-32.982,1.433C-28.182,-8.822,-21.267,-21.695,-10.249,-30.313C-7.278,-32.637,-4.207,-34.424,-1.094,-35.641C14.523,-41.75,31.037,-32.024,39.773,-20.402C40.805,-19.034,41.803,-17.566,42.76,-16.039C42.76,-16.039,45.185,-17.549,45.185,-17.549C45.462,-17.129,45.73,-16.702,45.999,-16.274Z" /></g><g id="i1" transform="matrix(1,0,0,1,0,0)"><g id="i1" transform="matrix(1,0,0,1,0,0)"><g id="i1" transform="matrix(1,0,0,1,252.917,259.262)"><path fill="#ffffff" d="M2.269,-2.217C2.269,-2.217,2.228,1.897,1.262,2.191C0.058,2.558,-2.269,-1.092,-2.269,-1.092C-2.269,-1.092,2.269,-2.217,2.269,-2.217Z" /></g><g id="i2" transform="matrix(1,0,0,1,239.731,259.962)"><path fill="#ffffff" d="M-2.335,-2.063C-2.335,-2.063,-1.488,1.962,-0.483,2.061C0.77,2.185,2.335,-1.851,2.335,-1.851C2.335,-1.851,-2.335,-2.063,-2.335,-2.063Z" /></g></g><g id="i2" transform="matrix(1,0,0,1,245.826,257.268)"><path fill="#62376b" d="M-10.9,-1.729C-10.9,-1.729,-7.409,5.94,0.006,-0.012C3.959,4.502,11.169,1.536,10.892,-2.265" /></g></g><g id="i2" transform="matrix(1,0,0,1,0,0)"><g id="i11" transform="matrix(1,0,0,1,289.987,296.747)"><path fill="#ffffff" d="M2.373,3.441C2.373,3.441,2.114,3.602,2.114,3.602C1.548,3.956,0.803,3.783,0.449,3.217C0.449,3.217,-2.851,-2.067,-2.851,-2.067C-3.023,-2.343,-2.94,-2.707,-2.664,-2.879C-2.664,-2.879,-1.355,-3.696,-1.355,-3.696C-1.079,-3.868,-0.715,-3.785,-0.543,-3.509C-0.543,-3.509,2.757,1.776,2.757,1.776C3.11,2.342,2.939,3.087,2.373,3.441Z" /></g><g id="i12" transform="matrix(1,0,0,1,278.346,285.388)" opacity="0.5"><path fill="#62376b" d="M3.834,8.55C3.834,8.55,-0.106,8.55,-0.106,8.55C-0.106,8.55,-2.296,5.04,-2.296,5.04C-5.136,0.48,-3.926,-5.46,0.374,-8.55C0.554,-7.36,0.764,-6.09,1.004,-4.74C1.564,-1.53,2.284,2.09,3.194,5.97C3.234,6.09,3.264,6.23,3.294,6.36C3.464,7.08,3.644,7.81,3.834,8.55Z" /></g><g id="i13" transform="matrix(1,0,0,1,297.085,292.503)"><path fill="#ffffff" d="M2.256,3.324C2.256,3.324,1.997,3.485,1.997,3.485C1.431,3.839,0.686,3.666,0.332,3.1C0.332,3.1,-2.64,-1.659,-2.64,-1.659C-2.994,-2.225,-2.822,-2.97,-2.256,-3.324C-2.256,-3.324,-1.997,-3.485,-1.997,-3.485C-1.431,-3.839,-0.686,-3.666,-0.332,-3.1C-0.332,-3.1,2.64,1.659,2.64,1.659C2.993,2.225,2.822,2.97,2.256,3.324Z" /></g><g id="i1" transform="matrix(1,0,0,1,287.983,286.482)"><path fill="#6bb0a0" d="M11.508,3.556C11.508,3.556,-2.709,12.435,-2.709,12.435C-3.531,12.949,-4.614,12.699,-5.128,11.876C-5.128,11.876,-10.793,2.806,-10.793,2.806C-13.759,-1.942,-12.314,-8.195,-7.566,-11.161C-7.566,-11.161,-7.566,-11.161,-7.566,-11.161C-2.818,-14.127,3.436,-12.682,6.402,-7.934C6.402,-7.934,12.067,1.136,12.067,1.136C12.581,1.959,12.331,3.042,11.508,3.556Z" /></g><g id="i2" transform="matrix(1,0,0,1,281.032,286.916)" opacity="0.3"><path fill="#583a2a" d="M0.745,-12.29C-3.001,-9.103,-3.927,-3.559,-1.237,0.748C-1.237,0.748,5.354,11.301,5.354,11.301C5.354,11.301,4.179,12.034,4.179,12.034C3.39,12.527,2.351,12.287,1.858,11.498C1.858,11.498,-3.813,2.418,-3.813,2.418C-6.777,-2.328,-5.336,-8.666,-0.582,-11.616C-0.149,-11.885,0.288,-12.118,0.745,-12.29Z" /></g></g></g></g></g></g></g><g id="i14"><g transform="translate(216.238,193.669)"><animateTransform repeatCount="indefinite" type="translate" attributeName="transform" dur="6s" begin="0s" calcMode="spline" values="216.238 193.669; 216.238 183.669; 216.238 193.669; 216.238 183.669; 216.238 193.669; 216.238 193.669; 216.238 183.669; 216.238 183.669; 216.238 193.669; 216.238 193.669" keyTimes="0; 0.066667; 0.133333; 0.2; 0.266666; 0.427778; 0.494444; 0.755556; 0.822222; 1" keySplines="0.333 0 0.667 1; 0.333 0 0.667 1; 0.333 0 0.667 1; 0.333 0 0.667 1; 0 0 1 1; 0.333 0 0.667 1; 0 0 1 1; 0.333 0 0.667 1; 0 0 1 1" fill="freeze" /><g transform="scale(1,1) translate(-50,-50)"><g transform="matrix(1,0,0,1,-200.238,-217.668)" opacity="0.65" id="i20"><g id="i13" transform="matrix(1,0,0,1,245.447,249.947)"><path fill="#a62e3b" d="M4.888,-2.649C4.341,-3.982,-4.028,-3.982,-4.888,-2.298C-5.557,-0.987,-2.11,3.617,-0.005,3.609C1.612,3.603,5.605,-0.902,4.888,-2.649Z" /></g><g id="i1" transform="matrix(1,0,0,1,245.525,250.107)" opacity="0.28"><path fill="#a62e3b" d="M-0.08,3.448C-1.746,3.454,-4.254,0.573,-4.895,-1.282C-3.839,0.158,-2.307,1.507,-1.166,1.501C0.134,1.495,2.953,-1.403,3.655,-3.448C4.271,-3.289,4.699,-3.076,4.809,-2.807C5.529,-1.062,1.537,3.442,-0.08,3.448Z" /></g><g id="i2" transform="matrix(1,0,0,1,243.854,247.635)" opacity="0.65"><path fill="#a62e3b" d="M2.386,-0.623C0.957,-1.047,-1.253,-0.747,-2.485,0.12C-2.737,0.297,-2.651,0.803,-2.31,0.812C-1.564,0.832,-0.863,0.545,-0.133,0.404C0.663,0.251,1.462,0.226,2.268,0.169C2.658,0.142,2.787,-0.504,2.386,-0.623Z" /></g></g></g></g></g><g opacity="0" id="i14"><g transform="translate(216.238,193.669)"><animateTransform repeatCount="indefinite" type="translate" attributeName="transform" dur="6s" begin="0s" calcMode="spline" values="216.238 193.669; 216.238 183.669; 216.238 193.669; 216.238 183.669; 216.238 193.669; 216.238 193.669; 216.238 183.669; 216.238 183.669; 216.238 193.669; 216.238 193.669" keyTimes="0; 0.066667; 0.133333; 0.2; 0.266666; 0.427778; 0.494444; 0.755556; 0.822222; 1" keySplines="0.333 0 0.667 1; 0.333 0 0.667 1; 0.333 0 0.667 1; 0.333 0 0.667 1; 0 0 1 1; 0.333 0 0.667 1; 0 0 1 1; 0.333 0 0.667 1; 0 0 1 1" fill="freeze" /><g transform="scale(1,1) translate(-50,-50)" /></g></g><g id="i21"><g transform="translate(77.035,185.533)"><animateTransform repeatCount="indefinite" type="translate" attributeName="transform" dur="6s" begin="0s" calcMode="spline" values="77.035 185.533; 77.035 165.533; 77.035 185.533; 77.035 165.533; 77.035 185.533; 77.035 165.533; 77.035 185.533" keyTimes="0; 0.166667; 0.333333; 0.5; 0.666667; 0.833333; 1" keySplines="0.333 0 0.667 1; 0.333 0 0.667 1; 0.333 0 0.667 1; 0.333 0 0.667 1; 0.333 0 0.667 1; 0.333 0 0.667 1" fill="freeze" /><g transform="scale(1,1) translate(-111.035,-259.533)"><g id="i1" transform="matrix(1,0,0,1,111.035,259.533)"><path fill="#62376b" d="M-19.182,17.964C-18.513,14.561,-13.627,6.502,-10.571,4.804C-7.515,3.106,-0.49,0.889,1.289,-0.706C5.536,-4.515,7.949,-10.875,2.22,-11.104C-3.147,-11.318,-5.006,-16.735,-5.209,-18.67C-5.412,-20.605,-6.936,-27.946,3.89,-34.255C0.803,-27.185,0.115,-22.529,2.075,-18.038C4.035,-13.547,17.54,-12.186,15.086,-7.939C13.965,-6,14.87,3.25,13.248,4.804C10.091,7.828,4.653,10.016,1.432,11.696C-0.142,12.517,-0.01,16.059,0,16.676C0.03,18.557,1.275,24.179,4.671,24.302C8.067,24.425,10.541,22.109,10.884,20.197C11.227,18.286,10.475,15.289,7.151,14.59C9.936,10.647,18.297,13.255,19,15.393C19.703,17.531,19.137,26.322,15.425,29.429C11.713,32.536,7.592,31.546,2.752,32.016C-2.016,32.479,-4.383,35.698,-8.621,33.488C-12.859,31.278,-20.096,22.615,-19.182,17.964Z" /></g><g id="i2" transform="matrix(1,0,0,1,0,0)"><g id="i1" transform="matrix(1,0,0,1,111.035,278.903)"><path fill="#83539b" d="M-19.182,-1.407C-18.513,-4.81,-13.627,-12.868,-10.571,-14.566C-10.379,-14.673,-10.159,-14.78,-9.919,-14.885C-10.061,-14.095,-10.47,-13.337,-10.986,-12.702C-11.724,-11.794,-12.652,-11.05,-13.4,-10.15C-15.28,-7.888,-15.875,-4.745,-15.373,-1.859C-14.872,1.027,-13.364,3.671,-11.458,5.913C-9.747,7.925,-7.39,9.769,-4.738,9.578C-7.61,5.682,-8.544,0.456,-7.198,-4.178C-6.29,-1.706,-5.373,0.785,-3.986,3.028C-2.599,5.271,-0.691,7.279,1.736,8.353C5.971,10.228,11.3,8.796,14.4,5.383C16.997,2.523,18.05,-1.481,17.653,-5.319C18.354,-4.893,18.852,-4.426,19,-3.977C19.703,-1.839,19.137,6.951,15.425,10.058C11.713,13.165,7.592,12.175,2.752,12.645C-2.016,13.108,-4.383,16.327,-8.621,14.117C-12.859,11.907,-20.096,3.244,-19.182,-1.407Z" /></g><g id="i2" transform="matrix(1,0,0,1,121.063,256.693)"><path fill="#83539b" d="M3.22,7.645C1.108,9.668,-2.022,11.313,-4.829,12.686C-3.705,11.782,-2.602,10.851,-1.545,9.871C-0.155,8.581,1.228,7.138,1.704,5.312C2.29,3.061,1.389,0.642,1.899,-1.626C2.119,-2.605,2.594,-3.51,2.87,-4.475C3.146,-5.44,3.195,-6.549,2.621,-7.375C1.853,-8.479,0.326,-8.67,-0.959,-9.096C-2.718,-9.679,-4.257,-10.888,-5.231,-12.449C-5.277,-12.523,-5.312,-12.607,-5.355,-12.686C-0.919,-9.995,6.986,-8.435,5.058,-5.099C3.937,-3.16,4.842,6.091,3.22,7.645Z" /></g></g></g></g></g><g id="i22"><g transform="translate(339.706,106.241)"><animateTransform repeatCount="indefinite" type="translate" attributeName="transform" dur="6s" begin="0s" calcMode="spline" values="339.706 106.241; 339.706 126.241; 339.706 106.241; 339.706 126.241; 339.706 106.241; 339.706 126.241; 339.706 106.241" keyTimes="0; 0.166667; 0.333333; 0.5; 0.666667; 0.833333; 1" keySplines="0.333 0 0.667 1; 0.333 0 0.667 1; 0.333 0 0.667 1; 0.333 0 0.667 1; 0.333 0 0.667 1; 0.333 0 0.667 1" fill="freeze" /><g transform="scale(1,1) translate(-373.706,-180.241)"><g id="i1" transform="matrix(1,0,0,1,373.706,180.241)"><path fill="#62376b" d="M21.472,20.334C20.723,16.482,15.254,7.36,11.833,5.438C8.412,3.516,-2.363,1.77,-4.354,-0.036C-9.109,-4.347,-11.789,-13.073,-5.376,-13.331C0.632,-13.573,5.604,-18.943,5.831,-21.133C6.058,-23.323,7.971,-28.757,-4.354,-38.775C-0.898,-30.773,-0.128,-25.502,-2.322,-20.418C-4.516,-15.335,-19.635,-13.794,-16.887,-8.987C-15.632,-6.792,-16.646,3.679,-14.83,5.438C-9.569,10.533,1.35,13.53,1.317,15.659C1.284,17.788,-1.427,27.369,-5.229,27.509C-9.031,27.648,-11.8,25.026,-12.184,22.862C-12.568,20.698,-11.726,17.307,-8.005,16.515C-11.122,12.052,-20.481,15.004,-21.268,17.424C-22.055,19.844,-21.422,29.795,-17.267,33.312C-13.112,36.829,-8.499,35.708,-3.081,36.24C2.257,36.764,4.906,40.407,9.65,37.906C14.394,35.404,22.495,25.599,21.472,20.334Z" /></g><g id="i2" transform="matrix(1,0,0,1,0,0)"><g id="i1" transform="matrix(1,0,0,1,373.706,202.168)"><path fill="#83539b" d="M21.472,-1.592C20.723,-5.444,15.254,-14.566,11.833,-16.488C11.618,-16.609,11.373,-16.729,11.104,-16.849C11.263,-15.955,11.721,-15.096,12.298,-14.378C13.125,-13.35,14.162,-12.509,15,-11.49C17.105,-8.929,17.77,-5.371,17.209,-2.104C16.648,1.163,14.959,4.156,12.826,6.693C10.911,8.971,8.271,11.057,5.303,10.842C8.518,6.432,9.565,0.516,8.058,-4.729C7.042,-1.931,6.015,0.888,4.462,3.428C2.909,5.968,0.774,8.239,-1.943,9.455C-6.683,11.577,-12.65,9.957,-16.12,6.093C-19.027,2.856,-20.205,-1.676,-19.761,-6.02C-20.546,-5.538,-21.103,-5.01,-21.268,-4.502C-22.055,-2.082,-21.422,7.868,-17.267,11.385C-13.112,14.902,-8.499,13.782,-3.081,14.314C2.257,14.838,4.906,18.481,9.65,15.98C14.394,13.478,22.495,3.673,21.472,-1.592Z" /></g><g id="i2" transform="matrix(1,0,0,1,362.481,177.026)"><path fill="#83539b" d="M-3.604,8.653C-1.24,10.943,2.263,12.806,5.405,14.36C4.147,13.337,2.912,12.283,1.729,11.173C0.172,9.713,-1.376,8.08,-1.908,6.013C-2.564,3.465,-1.554,0.727,-2.126,-1.841C-2.373,-2.949,-2.903,-3.973,-3.212,-5.065C-3.521,-6.157,-3.577,-7.412,-2.934,-8.347C-2.075,-9.597,-0.365,-9.814,1.074,-10.296C3.043,-10.956,4.766,-12.323,5.855,-14.091C5.907,-14.175,5.947,-14.271,5.995,-14.36C1.029,-11.314,-7.82,-9.548,-5.662,-5.772C-4.407,-3.577,-5.42,6.894,-3.604,8.653Z" /></g></g></g></g></g></svg>