<svg fill="none" height="100%" width="100%" viewBox="0 0 1000 1000" xmlns:xlink="http://www.w3.org/1999/xlink" xmlns="http://www.w3.org/2000/svg"><defs><clipPath id="i0"><rect height="1000" width="1000" y="0" x="0" /></clipPath><g id="i1"><g id="i2"><g transform="translate(-203.8,344.2)"><animateTransform repeatCount="indefinite" type="translate" attributeName="transform" dur="0.533s" begin="0s" calcMode="spline" values="-203.8 344.2; -203.8 344.2; 1207.2 368.2" keyTimes="0; 0.624999; 1" keySplines="0 0 1 1; 0.333 0 0.667 1" fill="freeze" /><g transform="scale(1,1) translate(447.8,315.8)"><g id="i3"><path stroke-linejoin="round" stroke-linecap="round" stroke-width="25" stroke="#3d125e" d="M-620.6,-315.8C-620.6,-315.8,-275,-315.8,-275,-315.8" /></g></g></g></g><g visibility="hidden" id="i4"><animate repeatCount="indefinite" begin="0s" calcMode="discrete" dur="0.533s" values="hidden; visible; visible; visible" keyTimes="0; 0.374766; 0.999375; 1" attributeName="visibility" /><g transform="translate(-101.612,740.2)"><animateTransform repeatCount="indefinite" type="translate" attributeName="transform" dur="0.533s" begin="0s" calcMode="spline" values="-101.612 740.2; -101.612 740.2; 1806.388 748.2" keyTimes="0; 0.999999; 1" keySplines="0 0 1 1; 0.333 0 0.667 1" fill="freeze" /><g transform="scale(1,1) translate(447.8,315.8)"><g id="i3"><path stroke-linejoin="round" stroke-linecap="round" stroke-width="25" stroke="#3d125e" d="M-620.6,-315.8C-620.6,-315.8,-275,-315.8,-275,-315.8" /></g></g></g></g></g><filter id="i5"><feColorMatrix values="0 0 0 0 1 0 0 0 0 1 0 0 0 0 1 0 0 0 1 0" type="matrix" /></filter><mask height="20000" width="20000" y="-10000" x="-10000" maskContentUnits="userSpaceOnUse" maskUnits="userSpaceOnUse" style="mask-type: alpha" mask-type="alpha" id="i6"><g filter="url(#i5)"><g transform="translate(492.108,663.44)"><animateTransform repeatCount="indefinite" type="translate" attributeName="transform" dur="0.533s" begin="0s" calcMode="spline" values="492.108 663.44; 492.108 663.44; 492.108 685.44; 492.108 663.44" keyTimes="0; 0.624999; 1; 1" keySplines="0 0 1 1; 0.333 0 0.667 1; 0.333 0 0.667 1" fill="freeze" /><g transform="scale(1,1) translate(7.892,-129.44)"><g id="i7"><g transform="translate(-24.174,-21.385)"><animateTransform repeatCount="indefinite" type="translate" attributeName="transform" dur="0.533s" begin="0s" calcMode="spline" values="-24.174 -21.385; -24.174 -21.385; -24.174 -11.985; -24.174 -21.385" keyTimes="0; 0.624999; 1; 1" keySplines="0 0 1 1; 0.333 0 0.667 1; 0.333 0 0.667 1" fill="freeze" /><g transform="scale(1,1) translate(24.174,21.385)"><g transform="matrix(1,0,0,1,0,-0.2)" id="i8"><g id="i3"><path fill="#fe0000" d="M-99.147,-63.927C-99.147,-63.927,-99.147,-85.627,-99.147,-85.627C-99.147,-85.627,-5.137,-85.277,-5.137,-85.277C-4.717,-85.27,-4.507,-85.057,-4.507,-84.637C-4.507,-84.637,-4.497,-64.667,-4.497,-64.667C-4.497,-64.347,-4.654,-64.187,-4.967,-64.187C-4.967,-64.187,-99.147,-63.927,-99.147,-63.927Z" /></g></g></g></g></g></g></g></g></mask></defs><g transform="matrix(1,0,0,1,0,0)" id="i9"><g clip-path="url(#i0)"><g><g transform="translate(-203.8,344.2)"><animateTransform repeatCount="indefinite" type="translate" attributeName="transform" dur="0.533s" begin="0s" calcMode="spline" values="-203.8 344.2; -203.8 344.2; 1207.2 368.2" keyTimes="0; 0.624999; 1" keySplines="0 0 1 1; 0.333 0 0.667 1" fill="freeze" /><g transform="scale(1,1) translate(447.8,315.8)"><g><path stroke-linejoin="round" stroke-linecap="round" stroke-width="25" stroke="#3d125e" d="M-620.6,-315.8C-620.6,-315.8,-275,-315.8,-275,-315.8" /></g></g></g></g><g visibility="hidden"><animate repeatCount="indefinite" begin="0s" calcMode="discrete" dur="0.533s" values="hidden; visible; visible; visible" keyTimes="0; 0.374766; 0.999375; 1" attributeName="visibility" /><g transform="translate(-101.612,740.2)"><animateTransform repeatCount="indefinite" type="translate" attributeName="transform" dur="0.533s" begin="0s" calcMode="spline" values="-101.612 740.2; -101.612 740.2; 1806.388 748.2" keyTimes="0; 0.999999; 1" keySplines="0 0 1 1; 0.333 0 0.667 1" fill="freeze" /><g transform="scale(1,1) translate(447.8,315.8)"><g><path stroke-linejoin="round" stroke-linecap="round" stroke-width="25" stroke="#3d125e" d="M-620.6,-315.8C-620.6,-315.8,-275,-315.8,-275,-315.8" /></g></g></g></g></g></g><g id="i10"><g transform="translate(492.108,663.44)"><animateTransform repeatCount="indefinite" type="translate" attributeName="transform" dur="0.533s" begin="0s" calcMode="spline" values="492.108 663.44; 492.108 663.44; 492.108 685.44; 492.108 663.44" keyTimes="0; 0.624999; 1; 1" keySplines="0 0 1 1; 0.333 0 0.667 1; 0.333 0 0.667 1" fill="freeze" /><g transform="scale(1,1) translate(7.892,-129.44)"><g transform="matrix(1,0,0,1,0,0)" id="i11"><g id="i3"><path stroke-linejoin="round" stroke-linecap="round" stroke-width="30" stroke="#fbb016" d="M106.2,175.394"><set fill="freeze" dur="0.033s" begin="0.3333333333333333s" to="M106.2,175.394" attributeName="d" /><set fill="freeze" dur="0.033s" begin="0.36666666666666664s" to="M113.293,175.394C142.509,175.394,252,175.394,252,175.394M106.2,175.394C106.2,175.394,107.46,175.394,109.747,175.394" attributeName="d" /><set fill="freeze" dur="0.033s" begin="0.4s" to="M131.79,175.394C173.611,175.394,252,175.394,252,175.394M106.2,175.394C106.2,175.394,111.056,175.394,118.995,175.394" attributeName="d" /><set fill="freeze" dur="0.033s" begin="0.43333333333333335s" to="M157.532,175.394C199.52,175.394,252,175.394,252,175.394M106.2,175.394C106.2,175.394,116.61,175.394,131.866,175.394" attributeName="d" /><set fill="freeze" dur="0.033s" begin="0.4666666666666667s" to="M186.375,175.394C220.245,175.394,252,175.394,252,175.394M106.2,175.394C106.2,175.394,123.554,175.394,146.288,175.394" attributeName="d" /><set fill="freeze" dur="0.033s" begin="0.5s" to="M214.186,175.394C235.793,175.394,252,175.394,252,175.394M106.2,175.394C106.2,175.394,131.028,175.394,160.193,175.394" attributeName="d" /><set fill="freeze" dur="0.033s" begin="0.5333333333333333s" to="M236.824,175.394C246.162,175.394,252,175.394,252,175.394M106.2,175.394C106.2,175.394,137.759,175.394,171.512,175.394" attributeName="d" /><set fill="freeze" dur="0.033s" begin="0.5666666666666667s" to="M250.139,175.394C251.351,175.394,252,175.394,252,175.394M106.2,175.394C106.2,175.394,142.032,175.394,178.169,175.394" attributeName="d" /><set fill="freeze" dur="0.033s" begin="0.6s" to="M106.2,175.394C106.2,175.394,143.273,175.394,180.031,175.394" attributeName="d" /><set fill="freeze" dur="0.033s" begin="0.6333333333333333s" to="M106.2,175.394C106.2,175.394,147.893,175.394,186.688,175.394" attributeName="d" /><set fill="freeze" dur="0.033s" begin="0.6666666666666666s" to="M106.2,175.394C106.2,175.394,156.496,175.394,198.007,175.394" attributeName="d" /><set fill="freeze" dur="0.033s" begin="0.7s" to="M106.2,175.394C106.2,175.394,168.751,175.394,211.912,175.394" attributeName="d" /><set fill="freeze" dur="0.033s" begin="0.7333333333333333s" to="M106.2,175.394C106.2,175.394,184.494,175.394,226.334,175.394" attributeName="d" /><set fill="freeze" dur="0.033s" begin="0.7666666666666667s" to="M106.2,175.394C106.2,175.394,203.641,175.394,239.205,175.394" attributeName="d" /><set fill="freeze" dur="0.033s" begin="0.8s" to="M106.2,175.394C106.201,175.394,226.149,175.394,248.453,175.394" attributeName="d" /><set fill="freeze" dur="0.033s" begin="0.8333333333333334s" to="M106.2,175.394" attributeName="d" /></path></g></g></g></g></g><g id="i10"><g transform="translate(492.108,663.44)"><animateTransform repeatCount="indefinite" type="translate" attributeName="transform" dur="0.533s" begin="0s" calcMode="spline" values="492.108 663.44; 492.108 663.44; 492.108 685.44; 492.108 663.44" keyTimes="0; 0.624999; 1; 1" keySplines="0 0 1 1; 0.333 0 0.667 1; 0.333 0 0.667 1" fill="freeze" /><g transform="scale(1,1) translate(7.892,-129.44)"><g transform="matrix(1,0,0,1,0,0)" id="i12"><g><g transform="translate(94.867,176.067)"><g transform="scale(1.5,1.5)"><animateTransform repeatCount="indefinite" type="scale" attributeName="transform" dur="0.533s" begin="0s" calcMode="spline" values="1 1; 1.5 1.5; 1 1" keyTimes="0; 0.625; 1" keySplines="0.333 0 0.667 1; 0.333 0 0.667 1" fill="freeze" /><g id="i13" transform="translate(-94.867,-176.067)"><g id="i14"><path fill="#fbb016" d="M130.733,176.067C130.733,195.876,114.676,211.933,94.867,211.933C75.058,211.933,59,195.876,59,176.067C59,156.258,75.058,140.2,94.867,140.2C114.676,140.2,130.733,156.258,130.733,176.067Z" /></g></g></g></g></g><g><g transform="translate(94.867,176.067)"><g transform="scale(0.9,0.9)"><animateTransform repeatCount="indefinite" type="scale" attributeName="transform" dur="0.533s" begin="0s" calcMode="spline" values="0.9 0.9; 0.9 0.9; 1.5 1.5; 0.9 0.9" keyTimes="0; 0.624999; 1; 1" keySplines="0 0 1 1; 0.333 0 0.667 1; 0.333 0 0.667 1" fill="freeze" /><g id="i15" transform="translate(-94.867,-176.067)"><g id="i3"><path fill="#fff001" d="M118.467,176.067C118.467,189.101,107.901,199.667,94.867,199.667C81.833,199.667,71.267,189.101,71.267,176.067C71.267,163.033,81.833,152.467,94.867,152.467C107.901,152.467,118.467,163.033,118.467,176.067Z" /></g></g></g></g></g></g></g></g></g><g id="i10"><g transform="translate(492.108,663.44)"><animateTransform repeatCount="indefinite" type="translate" attributeName="transform" dur="0.533s" begin="0s" calcMode="spline" values="492.108 663.44; 492.108 663.44; 492.108 685.44; 492.108 663.44" keyTimes="0; 0.624999; 1; 1" keySplines="0 0 1 1; 0.333 0 0.667 1; 0.333 0 0.667 1" fill="freeze" /><g transform="scale(1,1) translate(7.892,-129.44)"><g transform="matrix(1,0,0,1,0,0)" id="i16"><g id="i3"><path stroke-linejoin="round" stroke-linecap="round" stroke-width="15" stroke="#fff001" d="M117,175.381C117,175.381,251.467,175.406,251.467,175.406"><set fill="freeze" dur="0.033s" begin="0.3333333333333333s" to="M117,175.381C117,175.381,251.467,175.406,251.467,175.406" attributeName="d" /><set fill="freeze" dur="0.033s" begin="0.36666666666666664s" to="M118.716,175.381C133.228,175.384,235.239,175.403,249.751,175.406" attributeName="d" /><set fill="freeze" dur="0.033s" begin="0.4s" to="M123.542,175.382C146.338,175.386,222.129,175.401,244.925,175.405" attributeName="d" /><set fill="freeze" dur="0.033s" begin="0.43333333333333335s" to="M130.997,175.384C156.815,175.388,211.652,175.399,237.47,175.403" attributeName="d" /><set fill="freeze" dur="0.033s" begin="0.4666666666666667s" to="M140.601,175.385C165.139,175.39,203.328,175.397,227.866,175.402" attributeName="d" /><set fill="freeze" dur="0.033s" begin="0.5s" to="M151.875,175.387C171.789,175.391,196.678,175.396,216.592,175.4" attributeName="d" /><set fill="freeze" dur="0.033s" begin="0.5333333333333333s" to="M164.342,175.39C177.245,175.392,191.222,175.395,204.125,175.397" attributeName="d" /><set fill="freeze" dur="0.033s" begin="0.5666666666666667s" to="M177.524,175.392C181.984,175.393,186.483,175.394,190.943,175.395" attributeName="d" /><set fill="freeze" dur="0.033s" begin="0.6s" to="M190.943,175.395C222.181,175.401,251.467,175.406,251.467,175.406M117,175.381C117,175.381,146.286,175.386,177.524,175.392" attributeName="d" /><set fill="freeze" dur="0.033s" begin="0.6333333333333333s" to="M204.125,175.397C229.947,175.402,251.467,175.406,251.467,175.406M117,175.381C117,175.381,138.52,175.385,164.342,175.39" attributeName="d" /><set fill="freeze" dur="0.033s" begin="0.6666666666666666s" to="M216.592,175.4C236.52,175.403,251.467,175.406,251.467,175.406M117,175.381C117,175.381,131.947,175.384,151.875,175.387" attributeName="d" /><set fill="freeze" dur="0.033s" begin="0.7s" to="M227.866,175.402C241.898,175.404,251.467,175.406,251.467,175.406M117,175.381C117,175.381,126.569,175.383,140.601,175.385" attributeName="d" /><set fill="freeze" dur="0.033s" begin="0.7333333333333333s" to="M237.47,175.403C246.083,175.405,251.467,175.406,251.467,175.406M117,175.381C117,175.381,122.384,175.382,130.997,175.384" attributeName="d" /><set fill="freeze" dur="0.033s" begin="0.7666666666666667s" to="M244.925,175.405C249.073,175.406,251.467,175.406,251.467,175.406M117,175.381C117,175.381,119.394,175.381,123.542,175.382" attributeName="d" /><set fill="freeze" dur="0.033s" begin="0.8s" to="M249.751,175.406C250.868,175.406,251.467,175.406,251.467,175.406M117,175.381C117,175.381,117.599,175.381,118.716,175.381" attributeName="d" /><set fill="freeze" dur="0.033s" begin="0.8333333333333334s" to="M117,175.381" attributeName="d" /></path></g></g></g></g></g><g id="i10"><g transform="translate(492.108,663.44)"><animateTransform repeatCount="indefinite" type="translate" attributeName="transform" dur="0.533s" begin="0s" calcMode="spline" values="492.108 663.44; 492.108 663.44; 492.108 685.44; 492.108 663.44" keyTimes="0; 0.624999; 1; 1" keySplines="0 0 1 1; 0.333 0 0.667 1; 0.333 0 0.667 1" fill="freeze" /><g transform="scale(1,1) translate(7.892,-129.44)"><g id="i17"><g transform="translate(0,0)"><animateTransform repeatCount="indefinite" type="translate" attributeName="transform" dur="0.533s" begin="0s" calcMode="spline" values="0 0; 0 0; 0 7.5; 0 0" keyTimes="0; 0.624999; 1; 1" keySplines="0 0 1 1; 0.333 0 0.667 1; 0.333 0 0.667 1" fill="freeze" /><g transform="scale(1,1) translate(0,0)"><g id="i18"><path fill="#000000" d="M57.767,35.347C57.767,21.777,57.767,8.247,57.757,-5.233C57.747,-9.513,57.297,-12.813,56.407,-15.133C50.707,-29.973,36.057,-28.003,23.217,-27.863C22.867,-27.853,22.667,-28.033,22.627,-28.383C22.627,-28.383,22.327,-31.063,22.327,-31.063C20.977,-23.303,16.567,-18.363,9.097,-16.233C9.097,-16.233,9.237,-2.643,9.237,-2.643C9.237,-2.643,9.247,32.347,9.247,32.347C9.247,32.347,9.247,35.377,9.247,35.377C9.247,35.377,-18.873,35.357,-18.873,35.357C-18.873,35.357,-17.983,58.667,-17.983,58.667C-17.983,58.667,-17.763,58.827,-17.763,58.827C-17.123,71.387,-9.143,79.097,3.607,79.137C15.197,79.177,26.757,79.177,38.307,79.117C42.537,79.087,46.567,77.827,50.417,75.347C50.417,75.347,56.45,75.15,56.45,75.15C56.45,75.15,56.237,56.847,56.237,56.847C56.237,56.837,57.767,35.347,57.767,35.347ZM36.677,-2.573C36.677,-2.573,36.657,32.297,36.657,32.297C36.657,32.297,36.657,35.397,36.657,35.397C36.657,35.397,22.597,35.347,22.597,35.347C22.597,35.347,22.597,32.327,22.597,32.327C22.597,32.327,22.577,-2.703,22.577,-2.703C22.577,-2.703,22.577,-15.363,22.577,-15.363C22.577,-15.673,22.727,-15.833,23.037,-15.853C36.117,-16.703,37.577,-15.133,36.677,-2.573Z" /></g><g id="i19"><path fill="#f78f1e" d="M9.237,-2.643C9.237,-2.643,-26.723,-2.633,-26.723,-2.633C-26.723,-2.633,-26.683,-15.933,-26.683,-15.933C-26.683,-15.933,9.097,-16.233,9.097,-16.233C9.097,-16.233,9.237,-2.643,9.237,-2.643Z" /></g><g id="i13"><path fill="#000000" d="M-40.093,-15.923C-40.093,-15.923,-26.683,-15.933,-26.683,-15.933C-26.683,-15.933,-26.723,-2.633,-26.723,-2.633C-26.723,-2.633,-26.723,35.357,-26.723,35.357C-26.723,35.357,-40.043,35.357,-40.043,35.357C-40.043,35.357,-40.093,-15.923,-40.093,-15.923Z" /></g><g id="i15"><path fill="#f78f1e" d="M36.677,-2.573C36.677,-2.573,22.577,-2.703,22.577,-2.703C22.577,-2.703,22.577,-15.363,22.577,-15.363C22.577,-15.673,22.727,-15.833,23.037,-15.853C36.117,-16.703,37.577,-15.133,36.677,-2.573Z" /></g><g id="i14"><path fill="#fec93d" d="M36.677,-2.573C36.677,-2.573,36.657,32.297,36.657,32.297C36.657,32.297,36.657,35.397,36.657,35.397C36.657,35.397,22.597,35.347,22.597,35.347C22.597,35.347,22.597,32.327,22.597,32.327C22.597,32.327,22.577,-2.703,22.577,-2.703C22.577,-2.703,36.677,-2.573,36.677,-2.573Z" /></g><g id="i3"><path fill="#fec93d" d="M9.247,32.347C9.247,32.347,9.247,35.377,9.247,35.377C9.247,35.377,-18.873,35.357,-18.873,35.357C-18.873,35.357,-26.723,35.357,-26.723,35.357C-26.723,35.357,-26.723,-2.633,-26.723,-2.633C-26.723,-2.633,9.237,-2.643,9.237,-2.643C9.237,-2.643,9.247,32.347,9.247,32.347Z" /></g></g></g></g></g></g></g><g id="i10"><g transform="translate(492.108,663.44)"><animateTransform repeatCount="indefinite" type="translate" attributeName="transform" dur="0.533s" begin="0s" calcMode="spline" values="492.108 663.44; 492.108 663.44; 492.108 685.44; 492.108 663.44" keyTimes="0; 0.624999; 1; 1" keySplines="0 0 1 1; 0.333 0 0.667 1; 0.333 0 0.667 1" fill="freeze" /><g transform="scale(1,1) translate(7.892,-129.44)"><g id="i20"><g transform="translate(0,-5.8)"><animateTransform repeatCount="indefinite" type="translate" attributeName="transform" dur="0.533s" begin="0s" calcMode="spline" values="0 -5.8; 0 -5.8; 0 0.1; 0 -5.8" keyTimes="0; 0.624999; 1; 1" keySplines="0 0 1 1; 0.333 0 0.667 1; 0.333 0 0.667 1" fill="freeze" /><g transform="scale(1,1) translate(0,0)"><g id="i3"><path fill="#00acec" d="M-38.593,34.29C-38.593,34.29,-25.273,34.29,-25.273,34.29C-25.273,34.29,10.697,34.31,10.697,34.31C10.697,34.31,24.047,34.28,24.047,34.28C24.047,34.28,38.107,34.33,38.107,34.33C38.107,34.33,59.217,34.28,59.217,34.28C66.257,34.2,74.727,32.63,78.207,40.86C78.847,42.367,79.137,44.667,79.077,47.76C78.937,55.047,78.907,68.867,78.987,76.22C78.987,76.22,57.047,76.16,57.047,76.16C57.047,76.16,57.287,56.31,57.287,56.31C57.287,56.09,57.18,55.98,56.967,55.98C56.967,55.98,-16.743,56,-16.743,56C-16.743,56,-44.723,55.99,-44.723,55.99C-45.103,55.99,-45.293,56.18,-45.293,56.56C-45.293,56.56,-45.353,76.23,-45.353,76.23C-45.353,76.23,-66.913,76.23,-66.913,76.23C-66.853,69.037,-66.88,55.383,-66.993,48.27C-67.053,44.45,-66.64,41.673,-65.753,39.94C-63.043,34.64,-58.373,34.06,-52.413,34.22C-47.8,34.34,-43.193,34.363,-38.593,34.29Z" /></g></g></g></g></g></g></g><g id="i10"><g transform="translate(492.108,663.44)"><animateTransform repeatCount="indefinite" type="translate" attributeName="transform" dur="0.533s" begin="0s" calcMode="spline" values="492.108 663.44; 492.108 663.44; 492.108 685.44; 492.108 663.44" keyTimes="0; 0.624999; 1; 1" keySplines="0 0 1 1; 0.333 0 0.667 1; 0.333 0 0.667 1" fill="freeze" /><g transform="scale(1,1) translate(7.892,-129.44)"><g id="i15"><g id="i21"><path fill="#fec93d" d="M-68.38,69.73C-68.38,69.73,-46.82,69.73,-46.82,69.73C-46.82,69.73,-38.5,69.76,-38.5,69.76C-38.16,69.76,-37.99,69.927,-37.99,70.26C-37.99,70.26,-38,83.03,-38,83.03C-38,83.45,-38.207,83.657,-38.62,83.65C-38.62,83.65,-42.93,83.62,-42.93,83.62C-42.93,83.62,-70.51,83.65,-70.51,83.65C-70.51,83.65,-75.31,83.65,-75.31,83.65C-75.603,83.65,-75.75,83.503,-75.75,83.21C-75.75,83.21,-75.75,70.27,-75.75,70.27C-75.75,69.937,-75.587,69.767,-75.26,69.76C-75.26,69.76,-68.38,69.73,-68.38,69.73Z" /></g><g id="i18"><path fill="#fbb016" d="M-42.93,83.62C-42.93,83.62,-43.17,88.57,-43.17,88.57C-43.33,88.863,-43.773,89.003,-44.5,88.99C-48.48,88.943,-55.867,88.967,-66.66,89.06C-66.66,89.06,-70.68,88.91,-70.68,88.91C-70.68,88.91,-70.51,83.65,-70.51,83.65C-70.51,83.65,-42.93,83.62,-42.93,83.62Z" /></g><g id="i19"><path fill="#ed2860" d="M-43.17,88.57C-42.99,89.023,-42.677,89.123,-42.23,88.87C-31.99,89.79,-25.35,94.687,-22.31,103.56C-20.61,108.53,-21.32,119.485,-21.11,125.145C-21.11,125.145,-114.5,125.145,-114.5,125.145C-114.65,118.935,-115.11,107.41,-112.91,101.94C-108.37,90.62,-97.28,88.03,-85.68,89.13C-85.68,89.13,-85.71,104.87,-85.71,104.87C-85.71,105.217,-85.54,105.39,-85.2,105.39C-85.2,105.39,-78.54,105.42,-78.54,105.42C-78.227,105.42,-78.07,105.263,-78.07,104.95C-78.07,104.95,-78.05,89.03,-78.05,89.03C-78.05,89.03,-74.37,89.06,-74.37,89.06C-74.37,89.06,-74.38,104.79,-74.38,104.79C-74.38,105.203,-74.173,105.41,-73.76,105.41C-73.76,105.41,-67.54,105.4,-67.54,105.4C-67.007,105.4,-66.74,105.133,-66.74,104.6C-66.74,104.6,-66.66,89.06,-66.66,89.06C-55.867,88.967,-48.48,88.943,-44.5,88.99C-43.773,89.003,-43.33,88.863,-43.17,88.57Z" /></g><g id="i13"><path fill="#002439" d="M-78.05,89.03C-78.05,89.03,-78.07,104.95,-78.07,104.95C-78.07,105.263,-78.227,105.42,-78.54,105.42C-78.54,105.42,-85.2,105.39,-85.2,105.39C-85.54,105.39,-85.71,105.217,-85.71,104.87C-85.71,104.87,-85.68,89.13,-85.68,89.13C-85.68,89.13,-78.05,89.03,-78.05,89.03Z" /></g><g id="i15"><path fill="#002439" d="M-74.37,89.06C-74.37,89.06,-70.68,88.91,-70.68,88.91C-70.68,88.91,-66.66,89.06,-66.66,89.06C-66.66,89.06,-66.74,104.6,-66.74,104.6C-66.74,105.133,-67.007,105.4,-67.54,105.4C-67.54,105.4,-73.76,105.41,-73.76,105.41C-74.173,105.41,-74.38,105.203,-74.38,104.79C-74.38,104.79,-74.37,89.06,-74.37,89.06Z" /></g><g id="i14"><path fill="#ffffff" d="M-37.94,104.1C-37.94,108.038,-41.132,111.23,-45.07,111.23C-49.008,111.23,-52.2,108.038,-52.2,104.1C-52.2,100.162,-49.008,96.97,-45.07,96.97C-45.07,96.97,-45.07,96.97,-45.07,96.97C-41.132,96.97,-37.94,100.162,-37.94,104.1C-37.94,104.1,-37.94,104.1,-37.94,104.1Z" /></g><g id="i3"><path d="M-114.5,120.77C-114.5,120.77,-21.11,120.77,-21.11,120.77C-21.11,120.77,-16.32,120.79,-16.32,120.79C-15.973,120.79,-15.8,120.967,-15.8,121.32C-15.8,121.32,-15.92,134.54,-15.92,134.54C-15.92,134.54,-120.44,134.58,-120.44,134.58C-120.44,134.58,-120.44,121.33,-120.44,121.33C-120.44,120.977,-120.26,120.797,-119.9,120.79C-119.9,120.79,-114.5,120.77,-114.5,120.77Z" fill="#fec93d"><animate repeatCount="indefinite" attributeName="d" dur="0.533s" begin="0s" calcMode="spline" values="M-114.5,120.77C-114.5,120.77,-21.11,120.77,-21.11,120.77C-21.11,120.77,-16.32,120.79,-16.32,120.79C-15.973,120.79,-15.8,120.967,-15.8,121.32C-15.8,121.32,-15.92,134.54,-15.92,134.54C-15.92,134.54,-120.44,134.58,-120.44,134.58C-120.44,134.58,-120.44,121.33,-120.44,121.33C-120.44,120.977,-120.26,120.797,-119.9,120.79C-119.9,120.79,-114.5,120.77,-114.5,120.77Z; M-114.5,120.77C-114.5,120.77,-21.11,120.77,-21.11,120.77C-21.11,120.77,-16.32,120.79,-16.32,120.79C-15.973,120.79,-15.8,120.967,-15.8,121.32C-15.8,121.32,-15.92,134.54,-15.92,134.54C-15.92,134.54,-120.44,134.58,-120.44,134.58C-120.44,134.58,-120.44,121.33,-120.44,121.33C-120.44,120.977,-120.26,120.797,-119.9,120.79C-119.9,120.79,-114.5,120.77,-114.5,120.77Z; M-114.5,125.145C-114.5,125.145,-21.11,125.145,-21.11,125.145C-21.11,125.145,-16.32,125.165,-16.32,125.165C-15.973,125.165,-15.8,125.342,-15.8,125.695C-15.8,125.695,-15.92,134.54,-15.92,134.54C-15.92,134.54,-120.44,134.58,-120.44,134.58C-120.44,134.58,-120.44,125.705,-120.44,125.705C-120.44,125.352,-120.26,125.172,-119.9,125.165C-119.9,125.165,-114.5,125.145,-114.5,125.145Z; M-114.5,120.77C-114.5,120.77,-21.11,120.77,-21.11,120.77C-21.11,120.77,-16.32,120.79,-16.32,120.79C-15.973,120.79,-15.8,120.967,-15.8,121.32C-15.8,121.32,-15.92,134.54,-15.92,134.54C-15.92,134.54,-120.44,134.58,-120.44,134.58C-120.44,134.58,-120.44,121.33,-120.44,121.33C-120.44,120.977,-120.26,120.797,-119.9,120.79C-119.9,120.79,-114.5,120.77,-114.5,120.77Z" keyTimes="0; 0.625; 1; 1" keySplines="0 0 1 1; 0.333 0 0.667 1; 0.333 0 0.667 1" fill="freeze" /></path></g></g><g id="i14"><g id="i21"><path fill="#fec93d" d="M55.58,69.66C55.58,69.66,77.52,69.72,77.52,69.72C77.52,69.72,87.27,69.76,87.27,69.76C87.617,69.76,87.79,69.93,87.79,70.27C87.79,70.27,87.79,83.22,87.79,83.22C87.79,83.533,87.633,83.687,87.32,83.68C87.32,83.68,82.53,83.61,82.53,83.61C82.53,83.61,55.29,83.61,55.29,83.61C55.29,83.61,50.68,83.62,50.68,83.62C50.293,83.62,50.097,83.427,50.09,83.04C50.09,83.04,50,74.81,50,74.81C50,74.81,50.06,70.31,50.06,70.31C50.06,69.963,50.233,69.787,50.58,69.78C50.58,69.78,55.58,69.66,55.58,69.66Z" /></g><g id="i18"><path fill="#fbb016" d="M82.53,83.61C82.53,83.61,82.68,88.8,82.68,88.8C82.68,88.8,78.84,88.98,78.84,88.98C78.84,88.98,55.28,88.93,55.28,88.93C55.28,88.93,55.29,83.61,55.29,83.61C55.29,83.61,82.53,83.61,82.53,83.61Z" /></g><g id="i19"><path fill="#002439" d="M82.68,88.8C82.68,88.8,86.39,89.09,86.39,89.09C86.39,89.09,86.4,104.8,86.4,104.8C86.4,105.207,86.193,105.41,85.78,105.41C85.78,105.41,79.27,105.4,79.27,105.4C78.97,105.393,78.82,105.24,78.82,104.94C78.82,104.94,78.84,88.98,78.84,88.98C78.84,88.98,82.68,88.8,82.68,88.8Z" /></g><g id="i13"><path fill="#ed2860" d="M90.15,88.92C90.15,88.92,90.15,104.81,90.15,104.81C90.15,105.217,90.353,105.42,90.76,105.42C90.76,105.42,97.22,105.39,97.22,105.39C97.56,105.39,97.73,105.217,97.73,104.87C97.73,104.87,97.73,89.04,97.73,89.04C103.957,88.707,108.133,88.843,110.26,89.45C119.2,92.023,124.577,97.867,126.39,106.98C126.85,109.28,126.873,118.19,126.46,125.083C126.46,125.083,33.46,125.083,33.46,125.083C32.74,117.773,32.65,105.5,36.33,99.25C40.237,92.603,46.553,89.163,55.28,88.93C55.28,88.93,78.84,88.98,78.84,88.98C78.84,88.98,78.82,104.94,78.82,104.94C78.82,105.24,78.97,105.393,79.27,105.4C79.27,105.4,85.78,105.41,85.78,105.41C86.193,105.41,86.4,105.207,86.4,104.8C86.4,104.8,86.39,89.09,86.39,89.09C86.39,89.09,90.15,88.92,90.15,88.92Z" /></g><g id="i15"><path fill="#002439" d="M90.15,88.92C90.15,88.92,97.73,89.04,97.73,89.04C97.73,89.04,97.73,104.87,97.73,104.87C97.73,105.217,97.56,105.39,97.22,105.39C97.22,105.39,90.76,105.42,90.76,105.42C90.353,105.42,90.15,105.217,90.15,104.81C90.15,104.81,90.15,88.92,90.15,88.92Z" /></g><g id="i14"><path fill="#ffffff" d="M64.25,104.09C64.25,108.028,61.058,111.22,57.12,111.22C53.182,111.22,49.99,108.028,49.99,104.09C49.99,100.152,53.182,96.96,57.12,96.96C57.12,96.96,57.12,96.96,57.12,96.96C61.058,96.96,64.25,100.152,64.25,104.09C64.25,104.09,64.25,104.09,64.25,104.09Z" /></g><g id="i3"><path d="M33.46,120.77C33.46,120.77,126.46,120.77,126.46,120.77C126.46,120.77,131.8,120.79,131.8,120.79C132.18,120.79,132.367,120.98,132.36,121.36C132.36,121.36,132.19,134.56,132.19,134.56C132.19,134.56,27.77,134.53,27.77,134.53C27.77,134.53,27.8,121.33,27.8,121.33C27.807,120.977,27.983,120.8,28.33,120.8C28.33,120.8,33.46,120.77,33.46,120.77Z" fill="#fec93d"><animate repeatCount="indefinite" attributeName="d" dur="0.533s" begin="0s" calcMode="spline" values="M33.46,120.77C33.46,120.77,126.46,120.77,126.46,120.77C126.46,120.77,131.8,120.79,131.8,120.79C132.18,120.79,132.367,120.98,132.36,121.36C132.36,121.36,132.19,134.56,132.19,134.56C132.19,134.56,27.77,134.53,27.77,134.53C27.77,134.53,27.8,121.33,27.8,121.33C27.807,120.977,27.983,120.8,28.33,120.8C28.33,120.8,33.46,120.77,33.46,120.77Z; M33.46,120.77C33.46,120.77,126.46,120.77,126.46,120.77C126.46,120.77,131.8,120.79,131.8,120.79C132.18,120.79,132.367,120.98,132.36,121.36C132.36,121.36,132.19,134.56,132.19,134.56C132.19,134.56,27.77,134.53,27.77,134.53C27.77,134.53,27.8,121.33,27.8,121.33C27.807,120.977,27.983,120.8,28.33,120.8C28.33,120.8,33.46,120.77,33.46,120.77Z; M33.46,125.083C33.46,125.083,126.46,125.083,126.46,125.083C126.46,125.083,131.8,125.102,131.8,125.102C132.18,125.102,132.367,125.292,132.36,125.672C132.36,125.672,132.19,134.56,132.19,134.56C132.19,134.56,27.77,134.53,27.77,134.53C27.77,134.53,27.8,125.643,27.8,125.643C27.807,125.29,27.983,125.112,28.33,125.112C28.33,125.112,33.46,125.083,33.46,125.083Z; M33.46,120.77C33.46,120.77,126.46,120.77,126.46,120.77C126.46,120.77,131.8,120.79,131.8,120.79C132.18,120.79,132.367,120.98,132.36,121.36C132.36,121.36,132.19,134.56,132.19,134.56C132.19,134.56,27.77,134.53,27.77,134.53C27.77,134.53,27.8,121.33,27.8,121.33C27.807,120.977,27.983,120.8,28.33,120.8C28.33,120.8,33.46,120.77,33.46,120.77Z" keyTimes="0; 0.625; 1; 1" keySplines="0 0 1 1; 0.333 0 0.667 1; 0.333 0 0.667 1" fill="freeze" /></path></g></g><g id="i3"><g id="i14"><path fill="#ed4042" d="M78.94,161.19C78.94,161.19,78.93,189.22,78.93,189.22C78.93,189.22,62.59,189.17,62.59,189.17C62.59,189.17,46.24,189.14,46.24,189.14C46.24,189.14,46.22,161.72,46.22,161.72C46.22,161.36,46.403,161.18,46.77,161.18C46.77,161.18,78.94,161.19,78.94,161.19Z" /></g><g id="i3"><g id="i13"><path fill="#000000" d="M27.77,134.53C27.77,134.53,132.19,134.56,132.19,134.56C132.19,134.56,182.94,134.73,182.94,134.73C183.293,134.73,183.47,134.91,183.47,135.27C183.47,135.27,183.46,145.12,183.46,145.12C183.46,145.507,183.267,145.7,182.88,145.7C182.88,145.7,158.75,145.71,158.75,145.71C158.437,145.717,158.28,145.877,158.28,146.19C158.28,146.19,158.36,156.58,158.36,156.58C158.36,156.58,158.23,160.63,158.23,160.63C158.217,160.99,158.03,161.17,157.67,161.17C157.67,161.17,115.31,161.2,115.31,161.2C115.31,161.2,78.94,161.19,78.94,161.19C78.94,161.19,46.77,161.18,46.77,161.18C46.403,161.18,46.22,161.36,46.22,161.72C46.22,161.72,46.24,189.14,46.24,189.14C6.567,189.167,-33.133,189.17,-72.86,189.15C-78.407,189.15,-82.443,188.663,-84.97,187.69C-96.09,183.42,-98.08,173.31,-97.3,161.8C-97.28,161.433,-97.453,161.25,-97.82,161.25C-116.14,161.19,-134.45,161.193,-152.75,161.26C-159.803,161.28,-164.563,160.767,-167.03,159.72C-172.263,157.487,-175.32,152.983,-176.2,146.21C-176.24,145.877,-176.427,145.713,-176.76,145.72C-182.553,145.733,-188.343,145.713,-194.13,145.66C-197.49,145.62,-199.66,142.53,-199.19,139.32C-198.61,135.37,-195.36,134.69,-191.68,134.71C-167.947,134.843,-144.2,134.8,-120.44,134.58C-120.44,134.58,-15.92,134.54,-15.92,134.54C-15.92,134.54,27.77,134.53,27.77,134.53Z" /></g><g id="i15"><path fill="#364e5b" d="M-7.71,175.09C-7.71,178.348,-10.352,180.99,-13.61,180.99C-13.61,180.99,-72.85,180.99,-72.85,180.99C-76.108,180.99,-78.75,178.348,-78.75,175.09C-78.75,175.09,-78.75,174.85,-78.75,174.85C-78.75,171.592,-76.108,168.95,-72.85,168.95C-72.85,168.95,-13.61,168.95,-13.61,168.95C-10.352,168.95,-7.71,171.592,-7.71,174.85C-7.71,174.85,-7.71,175.09,-7.71,175.09Z" /></g><g id="i14"><path fill="#5c2381" d="M-28.2,148.333C-28.2,148.333,-111.4,148.333,-111.4,148.333C-111.4,148.333,-111.4,147.4,-111.4,147.4C-111.4,147.4,-28.2,147.4,-28.2,147.4C-28.2,147.4,-28.2,148.333,-28.2,148.333Z" /></g><g id="i3"><path fill="#5c2381" d="M113.6,148.933C113.6,148.933,30.4,148.933,30.4,148.933C30.4,148.933,30.4,148,30.4,148C30.4,148,113.6,148,113.6,148C113.6,148,113.6,148.933,113.6,148.933Z" /></g></g></g></g></g></g><g id="i10"><g transform="translate(492.108,663.44)"><animateTransform repeatCount="indefinite" type="translate" attributeName="transform" dur="0.533s" begin="0s" calcMode="spline" values="492.108 663.44; 492.108 663.44; 492.108 685.44; 492.108 663.44" keyTimes="0; 0.624999; 1; 1" keySplines="0 0 1 1; 0.333 0 0.667 1; 0.333 0 0.667 1" fill="freeze" /><g transform="scale(1,1) translate(7.892,-129.44)"><g id="i7"><g transform="translate(-24.174,-21.385)"><animateTransform repeatCount="indefinite" type="translate" attributeName="transform" dur="0.533s" begin="0s" calcMode="spline" values="-24.174 -21.385; -24.174 -21.385; -24.174 -11.985; -24.174 -21.385" keyTimes="0; 0.624999; 1; 1" keySplines="0 0 1 1; 0.333 0 0.667 1; 0.333 0 0.667 1" fill="freeze" /><g transform="scale(1,1) translate(24.174,21.385)"><g id="i13"><path fill="#ed927d" d="M22.6,-112.93C22.6,-112.93,22.45,-95.03,22.45,-95.03C22.45,-95.03,-6.57,-95.14,-6.57,-95.14C-6.57,-95.14,-98.79,-95.21,-98.79,-95.21C-98.79,-95.21,-98.83,-113,-98.83,-113C-98.83,-113,22.6,-112.93,22.6,-112.93Z" /></g><g id="i15"><path fill="#f6c09c" d="M-98.467,-95.14C-98.467,-95.14,22.45,-95.03,22.45,-95.03C22.45,-95.03,22.33,-75.8,22.33,-75.8C22.33,-75.447,22.507,-75.267,22.86,-75.26C27.27,-75.21,32.65,-75.63,36.35,-74.81C51.58,-71.42,52.91,-49.11,37.84,-44.44C33.72,-43.16,27.67,-43.66,22.77,-43.61C22.397,-43.603,22.213,-43.417,22.22,-43.05C22.22,-43.05,22.31,-31.13,22.31,-31.13C20.963,-23.37,16.553,-18.427,9.08,-16.3C9.08,-16.3,-26.7,-16,-26.7,-16C-26.7,-16,-40.11,-15.99,-40.11,-15.99C-50.91,-16,-64.57,-15,-73.54,-17.18C-82.421,-19.338,-89.451,-25.436,-94.009,-33.096C-96.466,-37.225,-97.695,-41.969,-97.773,-46.773C-97.773,-46.773,-98.557,-95.057,-98.557,-95.057" /></g><g id="i14"><path fill="#ed927d" d="M38.07,-59.42C38.07,-56.504,35.706,-54.14,32.79,-54.14C29.874,-54.14,27.51,-56.504,27.51,-59.42C27.51,-62.336,29.874,-64.7,32.79,-64.7C35.706,-64.7,38.07,-62.336,38.07,-59.42Z" /></g><g id="i3"><path fill="#ed927d" d="M-94.14,-54.543C-94.14,-54.543,-12.53,-54.543,-12.53,-54.543C-12.53,-54.543,-12.56,-41.653,-12.56,-41.653C-12.567,-41.28,-12.753,-41.093,-13.12,-41.093C-13.12,-41.093,-93.18,-41.103,-93.18,-41.103C-94.153,-45.436,-94.473,-49.916,-94.14,-54.543Z" /></g></g></g></g></g></g></g><g id="i10"><g transform="translate(492.108,663.44)"><animateTransform repeatCount="indefinite" type="translate" attributeName="transform" dur="0.533s" begin="0s" calcMode="spline" values="492.108 663.44; 492.108 663.44; 492.108 685.44; 492.108 663.44" keyTimes="0; 0.624999; 1; 1" keySplines="0 0 1 1; 0.333 0 0.667 1; 0.333 0 0.667 1" fill="freeze" /><g transform="scale(1,1) translate(7.892,-129.44)"><g id="i7"><g transform="translate(-24.174,-21.385)"><animateTransform repeatCount="indefinite" type="translate" attributeName="transform" dur="0.533s" begin="0s" calcMode="spline" values="-24.174 -21.385; -24.174 -21.385; -24.174 -11.985; -24.174 -21.385" keyTimes="0; 0.624999; 1; 1" keySplines="0 0 1 1; 0.333 0 0.667 1; 0.333 0 0.667 1" fill="freeze" /><g transform="scale(1,1) translate(24.174,21.385)"><g transform="matrix(1,0,0,1,0,0)" id="i22"><g id="i23"><g transform="translate(-89.558,-183.695)"><g transform="rotate(20)"><animateTransform repeatCount="indefinite" type="rotate" attributeName="transform" dur="0.533s" begin="0s" calcMode="spline" values="-30; 20; -30" keyTimes="0; 0.625; 1" keySplines="0.333 0 0.667 1; 0.333 0 0.667 1" fill="freeze" /><g transform="scale(1,1) translate(89.558,183.695)"><g id="i3"><path fill="#cf3638" d="M-70.279,-174.086C-70.279,-174.086,-114.042,-169.982,-114.042,-169.982C-114.415,-169.982,-114.602,-170.169,-114.602,-170.542C-114.602,-170.542,-107.063,-210.16,-107.063,-210.16C-100.27,-223.073,-85.773,-229.557,-71.573,-229.61C-71.193,-229.61,-71.003,-229.423,-71.003,-229.05C-71.003,-229.05,-70.279,-174.086,-70.279,-174.086Z" /></g></g></g></g></g></g></g></g></g></g></g></g><g id="i10"><g transform="translate(492.108,663.44)"><animateTransform repeatCount="indefinite" type="translate" attributeName="transform" dur="0.533s" begin="0s" calcMode="spline" values="492.108 663.44; 492.108 663.44; 492.108 685.44; 492.108 663.44" keyTimes="0; 0.624999; 1; 1" keySplines="0 0 1 1; 0.333 0 0.667 1; 0.333 0 0.667 1" fill="freeze" /><g transform="scale(1,1) translate(7.892,-129.44)"><g id="i7"><g transform="translate(-24.174,-21.385)"><animateTransform repeatCount="indefinite" type="translate" attributeName="transform" dur="0.533s" begin="0s" calcMode="spline" values="-24.174 -21.385; -24.174 -21.385; -24.174 -11.985; -24.174 -21.385" keyTimes="0; 0.624999; 1; 1" keySplines="0 0 1 1; 0.333 0 0.667 1; 0.333 0 0.667 1" fill="freeze" /><g transform="scale(1,1) translate(24.174,21.385)"><g transform="matrix(1,0,0,1,0,0)" id="i22"><g id="i24"><g transform="translate(-139.416,-181.74)"><g transform="rotate(-30)"><animateTransform repeatCount="indefinite" type="rotate" attributeName="transform" dur="0.533s" begin="0s" calcMode="spline" values="-30; -30; 20; -30" keyTimes="0; 0.624999; 1; 1" keySplines="0 0 1 1; 0.333 0 0.667 1; 0.333 0 0.667 1" fill="freeze" /><g transform="scale(1,1) translate(141.666,184.49)"><g id="i3"><path d="M-108.642,-171.931C-112.47,-171.976,-119.067,-174.052,-131.589,-175.607C-141.066,-176.784,-150.862,-175.154,-159.652,-179.118C-161.94,-180.15,-165.517,-180.392,-165.347,-183.373C-165.164,-186.578,-165.389,-206.57,-144.428,-229.244C-134.842,-239.614,-120.61,-240.293,-106.64,-239.843C-106.39,-239.838,-106.19,-239.633,-106.19,-239.383C-106.19,-239.383,-106.13,-198.893,-106.13,-198.893C-106.13,-198.893,-108.687,-172.251,-108.687,-172.251C-108.687,-172.069,-108.642,-171.931,-108.553,-171.838" fill="#ed4042"><animate repeatCount="indefinite" attributeName="d" dur="0.533s" begin="0s" calcMode="spline" values="M-108.642,-171.931C-112.47,-171.976,-119.067,-174.052,-131.589,-175.607C-141.066,-176.784,-150.862,-175.154,-159.652,-179.118C-161.94,-180.15,-165.517,-180.392,-165.347,-183.373C-165.164,-186.578,-165.389,-206.57,-144.428,-229.244C-134.842,-239.614,-120.61,-240.293,-106.64,-239.843C-106.39,-239.838,-106.19,-239.633,-106.19,-239.383C-106.19,-239.383,-106.13,-198.893,-106.13,-198.893C-106.13,-198.893,-108.687,-172.251,-108.687,-172.251C-108.687,-172.069,-108.642,-171.931,-108.553,-171.838; M-108.642,-171.931C-112.47,-171.976,-119.067,-174.052,-131.589,-175.607C-141.066,-176.784,-150.862,-175.154,-159.652,-179.118C-161.94,-180.15,-165.517,-180.392,-165.347,-183.373C-165.164,-186.578,-165.389,-206.57,-144.428,-229.244C-134.842,-239.614,-120.61,-240.293,-106.64,-239.843C-106.39,-239.838,-106.19,-239.633,-106.19,-239.383C-106.19,-239.383,-106.13,-198.893,-106.13,-198.893C-106.13,-198.893,-108.687,-172.251,-108.687,-172.251C-108.687,-172.069,-108.642,-171.931,-108.553,-171.838; M-108.642,-171.931C-112.47,-171.976,-119.067,-174.052,-131.589,-175.607C-141.066,-176.784,-150.679,-171.362,-159.469,-175.326C-161.757,-176.358,-165.334,-176.601,-165.164,-179.582C-164.981,-182.787,-165.688,-198.473,-154.377,-217.109C-141.602,-238.158,-120.61,-240.293,-106.64,-239.843C-106.39,-239.838,-106.19,-239.633,-106.19,-239.383C-106.19,-239.383,-106.13,-198.893,-106.13,-198.893C-106.13,-198.893,-108.687,-172.251,-108.687,-172.251C-108.687,-172.069,-108.642,-171.931,-108.553,-171.838; M-108.642,-171.931C-112.47,-171.976,-119.067,-174.052,-131.589,-175.607C-141.066,-176.784,-150.862,-175.154,-159.652,-179.118C-161.94,-180.15,-165.517,-180.392,-165.347,-183.373C-165.164,-186.578,-165.389,-206.57,-144.428,-229.244C-134.842,-239.614,-120.61,-240.293,-106.64,-239.843C-106.39,-239.838,-106.19,-239.633,-106.19,-239.383C-106.19,-239.383,-106.13,-198.893,-106.13,-198.893C-106.13,-198.893,-108.687,-172.251,-108.687,-172.251C-108.687,-172.069,-108.642,-171.931,-108.553,-171.838" keyTimes="0; 0.625; 1; 1" keySplines="0 0 1 1; 0.333 0 0.667 1; 0.333 0 0.667 1" fill="freeze" /></path></g></g></g></g></g></g></g></g></g></g></g></g><g id="i10"><g transform="translate(492.108,663.44)"><animateTransform repeatCount="indefinite" type="translate" attributeName="transform" dur="0.533s" begin="0s" calcMode="spline" values="492.108 663.44; 492.108 663.44; 492.108 685.44; 492.108 663.44" keyTimes="0; 0.624999; 1; 1" keySplines="0 0 1 1; 0.333 0 0.667 1; 0.333 0 0.667 1" fill="freeze" /><g transform="scale(1,1) translate(7.892,-129.44)"><g id="i7"><g transform="translate(-24.174,-21.385)"><animateTransform repeatCount="indefinite" type="translate" attributeName="transform" dur="0.533s" begin="0s" calcMode="spline" values="-24.174 -21.385; -24.174 -21.385; -24.174 -11.985; -24.174 -21.385" keyTimes="0; 0.624999; 1; 1" keySplines="0 0 1 1; 0.333 0 0.667 1; 0.333 0 0.667 1" fill="freeze" /><g transform="scale(1,1) translate(24.174,21.385)"><g transform="matrix(1,0,0,1,0,0)" id="i22"><g id="i25"><g transform="translate(-5.007,-128.51)"><g transform="rotate(-30)"><animateTransform repeatCount="indefinite" type="rotate" attributeName="transform" dur="0.533s" begin="0s" calcMode="spline" values="-30; -30; 30; -30" keyTimes="0; 0.624999; 1; 1" keySplines="0 0 1 1; 0.333 0 0.667 1; 0.333 0 0.667 1" fill="freeze" /><g transform="scale(1,1) translate(5.007,128.51)"><g id="i3"><path fill="#cf3638" d="M-6.787,-153.52C-6.787,-153.52,-6.666,-153.579,-6.647,-153.7C-4.207,-163.027,1.146,-169.113,9.413,-171.96C12.166,-172.907,16.196,-173.39,21.503,-173.41C32.083,-173.437,42.653,-173.42,53.213,-173.36C53.593,-173.353,53.78,-173.163,53.773,-172.79C53.773,-172.79,53.443,-153.38,53.443,-153.38C49.063,-141.087,41.456,-133.267,30.623,-129.92C27.796,-129.047,23.92,-128.61,18.993,-128.61C10.457,-128.606,1.92,-128.602,-6.617,-128.599" /></g></g></g></g></g></g></g></g></g></g></g></g><g id="i10"><g transform="translate(492.108,663.44)"><animateTransform repeatCount="indefinite" type="translate" attributeName="transform" dur="0.533s" begin="0s" calcMode="spline" values="492.108 663.44; 492.108 663.44; 492.108 685.44; 492.108 663.44" keyTimes="0; 0.624999; 1; 1" keySplines="0 0 1 1; 0.333 0 0.667 1; 0.333 0 0.667 1" fill="freeze" /><g transform="scale(1,1) translate(7.892,-129.44)"><g id="i7"><g transform="translate(-24.174,-21.385)"><animateTransform repeatCount="indefinite" type="translate" attributeName="transform" dur="0.533s" begin="0s" calcMode="spline" values="-24.174 -21.385; -24.174 -21.385; -24.174 -11.985; -24.174 -21.385" keyTimes="0; 0.624999; 1; 1" keySplines="0 0 1 1; 0.333 0 0.667 1; 0.333 0 0.667 1" fill="freeze" /><g transform="scale(1,1) translate(24.174,21.385)"><g transform="matrix(1,0,0,1,0,0)" id="i22"><g id="i14"><path fill="#ed4042" d="M-6.787,-153.52C-6.787,-153.52,-6.666,-153.579,-6.647,-153.7C-4.207,-163.027,1.146,-169.113,9.413,-171.96C12.166,-172.907,16.196,-173.39,21.503,-173.41C32.083,-173.437,42.653,-173.42,53.213,-173.36C53.593,-173.353,53.78,-173.163,53.773,-172.79C53.773,-172.79,53.443,-153.38,53.443,-153.38C49.063,-141.087,41.456,-133.267,30.623,-129.92C27.796,-129.047,23.92,-128.61,18.993,-128.61C10.457,-128.606,1.92,-128.602,-6.617,-128.599" /></g><g id="i3"><g id="i14"><g id="i3"><path fill="#ed4042" d="M-6.5,-129.2C-6.5,-129.2,-7.2,-129.2,-7.2,-129.2C-36.81,-129.19,-66.41,-129.18,-96.03,-129.19C-102.86,-129.2,-108.31,-129.63,-112.39,-130.49C-131.52,-134.53,-146.07,-145.09,-156.03,-162.16C-159,-167.26,-160.89,-173.72,-162.94,-179.55C-162.95,-179.6,-162.99,-179.62,-163.04,-179.62C-163.04,-179.62,-163.75,-182.33,-164.28,-183.46C-164.28,-183.46,-139.09,-174.8,-139.09,-174.8C-139.09,-174.8,-138.8,-176.8,-138.8,-176.8C-138.8,-176.8,-106.167,-186.733,-106.167,-186.733C-106.167,-186.733,-74.1,-186.78,-74.1,-186.78C-63.7,-186.74,-53.24,-186.73,-42.73,-186.75C-35.07,-186.76,-29.79,-186.33,-26.88,-185.46C-13.47,-181.44,-5.42,-168.23,-6.8,-154.26C-6.8,-154.26,-6.8,-154.16,-6.8,-154.16C-6.8,-154.16,-6.5,-129.2,-6.5,-129.2Z" /></g></g><g id="i3"><g id="i13"><path fill="#cf3638" d="M-164.28,-183.46C-163.753,-182.333,-162.953,-179.597,-162.94,-179.55C-160.89,-173.72,-159,-167.26,-156.03,-162.16C-146.07,-145.087,-131.523,-134.53,-112.39,-130.49C-108.31,-129.63,-102.857,-129.197,-96.03,-129.19C-57.637,-129.183,-19.257,-129.19,19.11,-129.21C24.037,-129.21,27.913,-129.647,30.74,-130.52C41.573,-133.867,49.18,-141.687,53.56,-153.98C54.267,-147.84,54.4,-143.68,53.96,-141.5C50.5,-124.287,40.047,-114.763,22.6,-112.93C22.6,-112.93,-98.83,-113,-98.83,-113C-137.77,-113.42,-166.86,-144.5,-164.28,-183.46Z" /></g><g id="i15"><path fill="#cf3638" d="M-34.26,-172.22C-34.26,-169.47,-36.49,-167.24,-39.24,-167.24C-39.24,-167.24,-52.82,-167.24,-52.82,-167.24C-55.57,-167.24,-57.8,-169.47,-57.8,-172.22C-57.8,-172.22,-57.8,-172.72,-57.8,-172.72C-57.8,-175.47,-55.57,-177.7,-52.82,-177.7C-52.82,-177.7,-39.24,-177.7,-39.24,-177.7C-36.49,-177.7,-34.26,-175.47,-34.26,-172.72C-34.26,-172.72,-34.26,-172.22,-34.26,-172.22Z" /></g><g id="i14"><path fill="#cf3638" d="M37.92,-155.71C37.92,-152.601,35.399,-150.08,32.29,-150.08C32.29,-150.08,32.29,-150.08,32.29,-150.08C32.29,-150.08,18.77,-150.08,18.77,-150.08C15.661,-150.08,13.14,-152.601,13.14,-155.71C13.14,-155.71,13.14,-156.29,13.14,-156.29C13.14,-159.399,15.661,-161.92,18.77,-161.92C18.77,-161.92,32.29,-161.92,32.29,-161.92C35.399,-161.92,37.92,-159.399,37.92,-156.29C37.92,-156.29,37.92,-156.29,37.92,-156.29C37.92,-156.29,37.92,-155.71,37.92,-155.71Z" /></g><g id="i3"><path fill="#cf3638" d="M-42.17,-151.74C-42.17,-148.708,-44.628,-146.25,-47.66,-146.25C-47.66,-146.25,-107.42,-146.25,-107.42,-146.25C-110.452,-146.25,-112.91,-148.708,-112.91,-151.74C-112.91,-151.74,-112.91,-152.4,-112.91,-152.4C-112.91,-155.432,-110.452,-157.89,-107.42,-157.89C-107.42,-157.89,-47.66,-157.89,-47.66,-157.89C-44.628,-157.89,-42.17,-155.432,-42.17,-152.4C-42.17,-152.4,-42.17,-151.74,-42.17,-151.74Z" /></g></g></g></g></g></g></g></g></g></g><g id="i10"><g transform="translate(492.108,663.44)"><animateTransform repeatCount="indefinite" type="translate" attributeName="transform" dur="0.533s" begin="0s" calcMode="spline" values="492.108 663.44; 492.108 663.44; 492.108 685.44; 492.108 663.44" keyTimes="0; 0.624999; 1; 1" keySplines="0 0 1 1; 0.333 0 0.667 1; 0.333 0 0.667 1" fill="freeze" /><g transform="scale(1,1) translate(7.892,-129.44)"><g id="i7"><g transform="translate(-24.174,-21.385)"><animateTransform repeatCount="indefinite" type="translate" attributeName="transform" dur="0.533s" begin="0s" calcMode="spline" values="-24.174 -21.385; -24.174 -21.385; -24.174 -11.985; -24.174 -21.385" keyTimes="0; 0.624999; 1; 1" keySplines="0 0 1 1; 0.333 0 0.667 1; 0.333 0 0.667 1" fill="freeze" /><g transform="scale(1,1) translate(24.174,21.385)"><g id="i26"><g transform="translate(0,0)"><animateTransform repeatCount="indefinite" type="translate" attributeName="transform" dur="0.533s" begin="0s" calcMode="spline" values="0 0; 0 0; 1.5 0; 0 0" keyTimes="0; 0.624999; 1; 1" keySplines="0 0 1 1; 0.333 0 0.667 1; 0.333 0 0.667 1" fill="freeze" /><g transform="scale(1,1) translate(0,0)"><g id="i14"><path fill="#000000" d="M-86.257,-95.077C-86.257,-95.077,5.963,-95.007,5.963,-95.007C5.963,-95.007,5.953,-54.977,5.953,-54.977C5.953,-54.604,5.763,-54.417,5.383,-54.417C5.383,-54.417,-4.497,-54.377,-4.497,-54.377C-4.497,-54.377,-86.107,-54.377,-86.107,-54.377C-86.107,-54.377,-98.527,-54.437,-98.527,-54.437C-98.927,-54.437,-99.127,-54.637,-99.127,-55.037C-99.127,-55.037,-99.147,-63.927,-99.147,-63.927C-99.147,-63.927,-4.967,-64.187,-4.967,-64.187C-4.654,-64.187,-4.497,-64.347,-4.497,-64.667C-4.497,-64.667,-4.507,-84.637,-4.507,-84.637C-4.507,-85.057,-4.717,-85.27,-5.137,-85.277C-5.137,-85.277,-99.147,-85.627,-99.147,-85.627C-99.147,-85.627,-99.137,-94.467,-99.137,-94.467C-99.137,-94.86,-98.944,-95.057,-98.557,-95.057C-98.557,-95.057,-86.257,-95.077,-86.257,-95.077Z" /></g><g id="i3"><path fill="#fec93d" d="M-99.147,-63.927C-99.147,-63.927,-99.147,-85.627,-99.147,-85.627C-99.147,-85.627,-5.137,-85.277,-5.137,-85.277C-4.717,-85.27,-4.507,-85.057,-4.507,-84.637C-4.507,-84.637,-4.497,-64.667,-4.497,-64.667C-4.497,-64.347,-4.654,-64.187,-4.967,-64.187C-4.967,-64.187,-99.147,-63.927,-99.147,-63.927Z" /></g></g></g></g></g></g></g></g></g></g><g id="i10"><g transform="translate(492.108,663.44)"><animateTransform repeatCount="indefinite" type="translate" attributeName="transform" dur="0.533s" begin="0s" calcMode="spline" values="492.108 663.44; 492.108 663.44; 492.108 685.44; 492.108 663.44" keyTimes="0; 0.624999; 1; 1" keySplines="0 0 1 1; 0.333 0 0.667 1; 0.333 0 0.667 1" fill="freeze" /><g transform="scale(1,1) translate(7.892,-129.44)"><g id="i17"><g transform="translate(0,0)"><animateTransform repeatCount="indefinite" type="translate" attributeName="transform" dur="0.533s" begin="0s" calcMode="spline" values="0 0; 0 0; 0 7.5; 0 0" keyTimes="0; 0.624999; 1; 1" keySplines="0 0 1 1; 0.333 0 0.667 1; 0.333 0 0.667 1" fill="freeze" /><g transform="scale(1,1) translate(0,0)"><g id="i27"><g transform="translate(-129.176,17.032)"><animateTransform repeatCount="indefinite" type="translate" attributeName="transform" dur="0.533s" begin="0s" calcMode="spline" values="-129.176 17.032; -129.176 17.032; -129.176 31.732; -129.176 17.032" keyTimes="0; 0.624999; 1; 1" keySplines="0 0 1 1; 0.333 0 0.667 1; 0.333 0 0.667 1" fill="freeze" /><g transform="scale(1,1) translate(129.176,-17.032)"><g id="i14"><path fill="#f6c09c" d="M-124.8,39.88C-130.873,35.127,-134.457,29.19,-135.55,22.07C-135.61,21.71,-135.82,21.53,-136.18,21.53C-136.18,21.53,-166.31,21.44,-166.31,21.44C-177.46,18.2,-175.93,3.23,-164.12,2.95C-158.333,2.81,-152.607,2.813,-146.94,2.96C-145.96,2.987,-145.867,2.713,-146.66,2.14C-150.633,-0.76,-152.763,-4.697,-153.05,-9.67C-153.07,-10.037,-152.897,-10.22,-152.53,-10.22C-140.483,-10.24,-128.477,-10.24,-116.51,-10.22C-114.263,-10.22,-111.793,-9.19,-109.1,-7.13C-108.852,-6.94,-108.553,-6.826,-108.24,-6.8C-84.73,-4.77,-75.99,24.22,-94.33,38.95C-100.47,43.877,-108.097,45.4,-117.21,43.52C-118.883,43.173,-121.413,41.96,-124.8,39.88Z" /></g><g id="i3"><path fill="#ed927d" d="M-124.8,39.88C-134.36,40.04,-140.593,40.087,-143.5,40.02C-148.88,39.893,-152.08,37.16,-153.1,31.82C-153.167,31.48,-153.37,31.307,-153.71,31.3C-155.85,31.24,-158.11,31.49,-160.02,30.77C-164.067,29.25,-166.163,26.14,-166.31,21.44C-166.31,21.44,-136.18,21.53,-136.18,21.53C-135.82,21.53,-135.61,21.71,-135.55,22.07C-134.457,29.19,-130.873,35.127,-124.8,39.88Z" /></g></g></g></g></g></g></g></g></g></g><g id="i10"><g transform="translate(492.108,663.44)"><animateTransform repeatCount="indefinite" type="translate" attributeName="transform" dur="0.533s" begin="0s" calcMode="spline" values="492.108 663.44; 492.108 663.44; 492.108 685.44; 492.108 663.44" keyTimes="0; 0.624999; 1; 1" keySplines="0 0 1 1; 0.333 0 0.667 1; 0.333 0 0.667 1" fill="freeze" /><g transform="scale(1,1) translate(7.892,-129.44)"><g id="i17"><g transform="translate(0,0)"><animateTransform repeatCount="indefinite" type="translate" attributeName="transform" dur="0.533s" begin="0s" calcMode="spline" values="0 0; 0 0; 0 7.5; 0 0" keyTimes="0; 0.624999; 1; 1" keySplines="0 0 1 1; 0.333 0 0.667 1; 0.333 0 0.667 1" fill="freeze" /><g transform="scale(1,1) translate(0,0)"><g id="i27"><g transform="translate(-129.176,17.032)"><animateTransform repeatCount="indefinite" type="translate" attributeName="transform" dur="0.533s" begin="0s" calcMode="spline" values="-129.176 17.032; -129.176 17.032; -129.176 31.732; -129.176 17.032" keyTimes="0; 0.624999; 1; 1" keySplines="0 0 1 1; 0.333 0 0.667 1; 0.333 0 0.667 1" fill="freeze" /><g transform="scale(1,1) translate(129.176,-17.032)"><g transform="matrix(1,0,0,1,0,0)" id="i27"><g id="i14"><path fill="#f6c09c" d="M175.12,27.17C175.12,27.17,145.16,27.24,145.16,27.24C144.8,27.24,144.593,27.417,144.54,27.77C143.38,35.05,139.743,41.02,133.63,45.68C123.45,51.52,113.963,51.573,105.17,45.84C96.36,40.08,91.75,29.78,94.02,19.42C96.473,8.273,103.447,1.513,114.94,-0.86C116.413,-1.167,117.857,-1.717,119.27,-2.51C121.89,-3.983,124.217,-4.707,126.25,-4.68C137.997,-4.54,149.74,-4.503,161.48,-4.57C161.88,-4.577,162.067,-4.38,162.04,-3.98C161.693,1.28,159.34,5.35,154.98,8.23C154.627,8.463,154.663,8.577,155.09,8.57C161.35,8.53,167.57,8.517,173.75,8.53C184.59,8.55,186.36,23.88,175.12,27.17Z" /></g><g id="i3"><path fill="#ed927d" d="M175.12,27.17C175.26,34.93,169.53,37.32,162.77,36.9C162.417,36.873,162.203,37.037,162.13,37.39C161.037,42.95,157.577,45.733,151.75,45.74C145.803,45.747,139.763,45.727,133.63,45.68C139.743,41.02,143.38,35.05,144.54,27.77C144.593,27.417,144.8,27.24,145.16,27.24C145.16,27.24,175.12,27.17,175.12,27.17Z" /></g></g></g></g></g></g></g></g></g></g></g><g mask="url(#i6)" id="i10"><g transform="translate(492.108,663.44)"><animateTransform repeatCount="indefinite" type="translate" attributeName="transform" dur="0.533s" begin="0s" calcMode="spline" values="492.108 663.44; 492.108 663.44; 492.108 685.44; 492.108 663.44" keyTimes="0; 0.624999; 1; 1" keySplines="0 0 1 1; 0.333 0 0.667 1; 0.333 0 0.667 1" fill="freeze" /><g transform="scale(1,1) translate(7.892,-129.44)"><g id="i7"><g transform="translate(-24.174,-21.385)"><animateTransform repeatCount="indefinite" type="translate" attributeName="transform" dur="0.533s" begin="0s" calcMode="spline" values="-24.174 -21.385; -24.174 -21.385; -24.174 -11.985; -24.174 -21.385" keyTimes="0; 0.624999; 1; 1" keySplines="0 0 1 1; 0.333 0 0.667 1; 0.333 0 0.667 1" fill="freeze" /><g transform="scale(1,1) translate(24.174,21.385)"><g transform="matrix(1,0,0,1,0,-0.2)" id="i8"><g opacity="0.95" id="i28"><g transform="translate(-41,-33.8)"><animateTransform repeatCount="indefinite" type="translate" attributeName="transform" dur="0.533s" begin="0s" calcMode="spline" values="-41 -33.8; -41 -33.8; 123 -33.8" keyTimes="0; 0.624999; 1" keySplines="0 0 1 1; 0.333 0 0.667 1" fill="freeze" /><g transform="scale(1,1) translate(0,0)"><g id="i14" transform="matrix(1,0,0,1,0,0)" opacity="0.4"><path fill="#ffffff" d="M-93.933,-16.067C-93.933,-16.067,-101.933,-16.067,-101.933,-16.067C-101.933,-16.067,-101.933,-124.6,-101.933,-124.6C-101.933,-124.6,-93.933,-124.6,-93.933,-124.6C-93.933,-124.6,-93.933,-16.067,-93.933,-16.067Z" /></g><g id="i3" transform="matrix(1,0,0,1,0,0)" opacity="0.4"><path fill="#ffffff" d="M-59,-16.6C-59,-16.6,-80.333,-16.6,-80.333,-16.6C-80.333,-16.6,-80.333,-125.133,-80.333,-125.133C-80.333,-125.133,-59,-125.133,-59,-125.133C-59,-125.133,-59,-16.6,-59,-16.6Z" /></g></g></g></g></g></g></g></g></g></g></g><g display="none" id="i10"><g transform="translate(492.108,663.44)"><animateTransform repeatCount="indefinite" type="translate" attributeName="transform" dur="0.533s" begin="0s" calcMode="spline" values="492.108 663.44; 492.108 663.44; 492.108 685.44; 492.108 663.44" keyTimes="0; 0.624999; 1; 1" keySplines="0 0 1 1; 0.333 0 0.667 1; 0.333 0 0.667 1" fill="freeze" /><g transform="scale(1,1) translate(7.892,-129.44)"><g id="i7"><g transform="translate(-24.174,-21.385)"><animateTransform repeatCount="indefinite" type="translate" attributeName="transform" dur="0.533s" begin="0s" calcMode="spline" values="-24.174 -21.385; -24.174 -21.385; -24.174 -11.985; -24.174 -21.385" keyTimes="0; 0.624999; 1; 1" keySplines="0 0 1 1; 0.333 0 0.667 1; 0.333 0 0.667 1" fill="freeze" /><g transform="scale(1,1) translate(24.174,21.385)"><g transform="matrix(1,0,0,1,0,-0.2)" id="i8"><g id="i3"><path fill="#fe0000" d="M-99.147,-63.927C-99.147,-63.927,-99.147,-85.627,-99.147,-85.627C-99.147,-85.627,-5.137,-85.277,-5.137,-85.277C-4.717,-85.27,-4.507,-85.057,-4.507,-84.637C-4.507,-84.637,-4.497,-64.667,-4.497,-64.667C-4.497,-64.347,-4.654,-64.187,-4.967,-64.187C-4.967,-64.187,-99.147,-63.927,-99.147,-63.927Z" /></g></g></g></g></g></g></g></g></svg>