<svg fill="none" height="100%" width="100%" viewBox="0 0 1500 1500" xmlns:xlink="http://www.w3.org/1999/xlink" xmlns="http://www.w3.org/2000/svg"><g transform="matrix(0.4,0,0,0.4,750,750)" id="i0"><g transform="matrix(1,0,0,1,0.333,574.017)" id="i1"><g id="i2"><path fill="#ef962b" d="M866.861,-88.453C866.861,-88.453,890.694,67.005,890.694,67.005C892.768,80.534,880.02,91.597,866.918,87.639C866.918,87.639,797.257,66.597,797.257,66.597C797.257,66.597,-797.556,66.597,-797.556,66.597C-797.556,66.597,-866.903,87.608,-866.903,87.608C-880.008,91.579,-892.769,80.513,-890.694,66.978C-890.694,66.978,-866.865,-88.453,-866.865,-88.453" /></g></g></g><g transform="matrix(0.4,0,0,0.4,750,750)" id="i0"><g transform="matrix(1,0,0,1,0.333,574.017)" opacity="0.35" id="i3"><g id="i2"><path fill="#371a45" d="M866.861,-88.453C866.861,-88.453,890.694,67.005,890.694,67.005C892.768,80.534,880.02,91.597,866.918,87.639C866.918,87.639,797.257,66.597,797.257,66.597C797.257,66.597,-797.556,66.597,-797.556,66.597C-797.556,66.597,-866.903,87.608,-866.903,87.608C-880.008,91.579,-892.769,80.513,-890.694,66.978C-890.694,66.978,-866.865,-88.453,-866.865,-88.453" /></g></g></g><g transform="matrix(0.4,0,0,0.4,750,750)" id="i0"><g transform="matrix(1,0,0,1,0.331,574.016)" id="i4"><g id="i2"><path fill="#371a45" d="M872.368,103.861C869.067,103.861,865.732,103.377,862.461,102.391C862.461,102.391,794.985,82.01,794.985,82.01C794.985,82.01,-795.269,82.01,-795.269,82.01C-795.269,82.01,-862.432,102.357,-862.432,102.357C-873.682,105.775,-885.708,103.201,-894.585,95.501C-903.467,87.796,-907.705,76.263,-905.923,64.647C-905.923,64.647,-882.095,-90.783,-882.095,-90.783C-880.806,-99.191,-872.939,-104.972,-864.531,-103.678C-856.118,-102.389,-850.347,-94.528,-851.636,-86.115C-851.636,-86.115,-875.464,69.315,-875.464,69.315C-875.684,70.755,-875.005,71.688,-874.395,72.215C-873.79,72.742,-872.773,73.295,-871.367,72.865C-871.367,72.865,-802.022,51.854,-802.022,51.854C-800.572,51.415,-799.068,51.19,-797.554,51.19C-797.554,51.19,797.261,51.19,797.261,51.19C798.77,51.19,800.274,51.414,801.719,51.849C801.719,51.849,871.372,72.889,871.372,72.889C872.768,73.314,873.789,72.771,874.394,72.244C875.004,71.717,875.684,70.784,875.464,69.339C875.464,69.339,851.636,-86.115,851.636,-86.115C850.347,-94.528,856.118,-102.389,864.531,-103.678C872.934,-104.977,880.811,-99.196,882.095,-90.783C882.095,-90.783,905.923,64.671,905.923,64.671C907.705,76.287,903.472,87.821,894.595,95.521C888.301,100.985,880.43,103.861,872.368,103.861Z" /></g></g></g><g transform="matrix(0.4,0,0,0.4,750,750)" id="i0"><g id="i5"><g transform="translate(-3.337,244.695)"><animateTransform repeatCount="indefinite" type="translate" attributeName="transform" dur="6.375s" begin="0s" calcMode="spline" values="-3.337 244.695; -3.337 324.695; -3.337 324.695; -3.337 244.695; -3.337 244.695; -3.337 244.695" keyTimes="0; 0.156863; 0.470588; 0.627451; 0.941176; 1" keySplines="0.333 0 0 1; 0 0 1 1; 0.333 0 0 1; 0 0 1 1; 0 0 1 1" fill="freeze" /><g transform="scale(1,1) translate(72,-392)"><g transform="matrix(1,0,0,1,-850.654,-597.618)" id="i6"><g id="i7" transform="matrix(1,0,0,1,844.065,941.607)"><g id="i2"><path fill="#ffffff" d="M423.17,451.666C423.17,451.666,-308.574,536.532,-308.574,536.532C-386.12,545.546,-456.271,489.957,-465.247,412.41C-465.247,412.41,-528.078,-129.184,-528.078,-129.184C-528.078,-129.184,-539.673,-229.228,-539.673,-229.228C-539.673,-229.228,-547.301,-294.987,-547.301,-294.987C-553.002,-344.335,-532.585,-390.677,-497.028,-420.186C-476.688,-437.059,-451.378,-448.424,-423.141,-451.698C-423.141,-451.698,-263.194,-470.228,-263.194,-470.228C-263.194,-470.228,252.243,-529.977,252.243,-529.977C252.243,-529.977,308.564,-536.525,308.564,-536.525C325.051,-538.451,341.231,-537.45,356.563,-533.906C413.192,-520.885,458.225,-473.425,465.275,-412.405C465.275,-412.405,473.943,-337.67,473.943,-337.67C473.943,-337.67,499.406,-118.051,499.406,-118.051C499.406,-118.051,547.291,294.992,547.291,294.992C556.305,372.539,500.717,442.69,423.17,451.666Z" /></g></g><g id="i2" transform="matrix(1,0,0,1,844.078,941.606)"><g id="i2"><path fill="#371a45" d="M-324.977,552.901C-403.41,552.901,-471.33,493.941,-480.583,414.185C-480.583,414.185,-562.614,-293.203,-562.614,-293.203C-572.565,-379.077,-510.807,-457.031,-424.943,-466.987C-424.943,-466.987,306.785,-551.845,306.785,-551.845C392.674,-561.816,470.619,-500.043,480.57,-414.174C480.57,-414.174,562.601,293.209,562.601,293.209C567.425,334.806,555.76,375.787,529.759,408.614C503.758,441.436,466.532,462.169,424.94,466.993C424.94,466.993,-306.799,551.846,-306.799,551.846C-312.907,552.554,-318.971,552.901,-324.977,552.901ZM325.086,-522.084C320.193,-522.084,315.271,-521.801,310.335,-521.23C310.335,-521.23,-421.393,-436.371,-421.393,-436.371C-490.377,-428.378,-539.997,-365.741,-531.999,-296.752C-531.999,-296.752,-449.968,410.63,-449.968,410.63C-441.965,479.614,-379.308,529.263,-310.353,521.231C-310.353,521.231,421.385,436.378,421.385,436.378C490.374,428.38,539.989,365.747,531.986,296.763C531.986,296.763,449.954,-410.624,449.954,-410.624C446.082,-444.042,429.427,-473.954,403.055,-494.843C380.58,-512.646,353.333,-522.084,325.086,-522.084ZM423.162,451.685C423.162,451.685,423.211,451.685,423.211,451.685C423.211,451.685,423.162,451.685,423.162,451.685Z" /></g></g></g></g></g></g></g><g transform="matrix(0.4,0,0,0.4,750,750)" id="i0"><g id="i5"><g transform="translate(-3.337,244.695)"><animateTransform repeatCount="indefinite" type="translate" attributeName="transform" dur="6.375s" begin="0s" calcMode="spline" values="-3.337 244.695; -3.337 324.695; -3.337 324.695; -3.337 244.695; -3.337 244.695; -3.337 244.695" keyTimes="0; 0.156863; 0.470588; 0.627451; 0.941176; 1" keySplines="0.333 0 0 1; 0 0 1 1; 0.333 0 0 1; 0 0 1 1; 0 0 1 1" fill="freeze" /><g transform="scale(1,1) translate(72,-392)"><g transform="matrix(1,0,0,1,0.013,0.122)" id="i8"><g id="i2"><path fill="#ffffff" d="M600.284,226.972C600.284,226.972,492.805,225.816,492.805,225.816C492.805,225.816,-534.68,214.683,-534.68,214.683C-534.68,214.683,-600.284,213.99,-600.284,213.99C-600.284,213.99,-586.878,173.155,-546.275,114.639C-519.27,75.653,-480.169,28.81,-424.966,-18.959C-383.13,-55.209,-331.972,-91.998,-269.796,-126.361C-244.525,-140.306,-217.443,-153.866,-188.435,-166.81C-24.674,-239.888,118.401,-246.475,245.642,-186.11C269.757,-174.707,293.256,-160.878,316.254,-144.621C369.339,-107.177,419.572,-56.904,467.341,6.197C513.838,67.603,558.024,141.181,600.284,226.972Z" /></g></g></g></g></g></g><g transform="matrix(0.4,0,0,0.4,750,750)" id="i0"><g id="i5"><g transform="translate(-3.337,244.695)"><animateTransform repeatCount="indefinite" type="translate" attributeName="transform" dur="6.375s" begin="0s" calcMode="spline" values="-3.337 244.695; -3.337 324.695; -3.337 324.695; -3.337 244.695; -3.337 244.695; -3.337 244.695" keyTimes="0; 0.156863; 0.470588; 0.627451; 0.941176; 1" keySplines="0.333 0 0 1; 0 0 1 1; 0.333 0 0 1; 0 0 1 1; 0 0 1 1" fill="freeze" /><g transform="scale(1,1) translate(72,-392)"><g id="i2"><path fill="#371a45" d="M600.278,242.504C600.224,242.504,600.166,242.504,600.112,242.504C600.112,242.504,-600.445,229.506,-600.445,229.506C-605.357,229.452,-609.951,227.06,-612.808,223.066C-615.669,219.067,-616.451,213.949,-614.918,209.281C-611.73,199.589,-532.984,-29.805,-194.703,-180.762C-21.402,-258.091,128.124,-262.735,262.436,-194.957C394.238,-128.448,509.267,7.382,614.101,220.287C616.469,225.092,616.171,230.776,613.315,235.307C610.493,239.789,605.566,242.504,600.278,242.504ZM-577.252,198.935C-577.252,198.935,575.195,211.41,575.195,211.41C476.538,17.655,369.545,-106.387,248.554,-167.442C123.041,-230.782,-17.842,-225.929,-182.144,-152.618C-450.191,-33.004,-550.069,140.546,-577.252,198.935Z" /></g></g></g></g></g><g transform="matrix(0.4,0,0,0.4,750,750)" id="i0"><g transform="matrix(1,0,0,1,0,1502.7)" opacity="0.35" id="i9"><g id="i2"><path fill="#371a45" d="M1192.363,-19.1C1192.363,23.35,658.513,57.7,0,57.7C-658.551,57.7,-1192.363,23.35,-1192.363,-19.1C-1192.363,-33.2,-1133.487,-46.4,-1030.765,-57.7C-1030.765,-57.7,1030.765,-57.7,1030.765,-57.7C1133.524,-46.35,1192.363,-33.2,1192.363,-19.1Z" /></g></g></g><g transform="matrix(0.4,0,0,0.4,750,750)" id="i0"><g transform="matrix(1,0,0,1,265.93,18.886)" id="i10"><g id="i2"><path fill="#ffffff" d="M87.375,-62.936C87.375,-62.936,-45.019,-62.936,-76.546,-9.176C-105.089,39.495,-68.182,57.861,-68.182,57.861C-68.182,57.861,60.48,62.936,60.48,62.936C60.48,62.936,87.375,-62.936,87.375,-62.936Z" /></g></g></g><g transform="matrix(0.4,0,0,0.4,750,750)" id="i0"><g transform="matrix(1,0,0,1,265.937,18.892)" id="i11"><g id="i2"><path fill="#ffffff" d="M87.382,-62.947C87.382,-62.947,80.756,-31.936,80.756,-31.936C80.756,-31.936,60.454,62.947,60.454,62.947C60.454,62.947,-68.174,57.861,-68.174,57.861C-68.174,57.861,-79.306,52.314,-84.623,39.255C-88.976,28.545,-89.439,12.751,-76.572,-9.168C-45.022,-62.946,87.382,-62.947,87.382,-62.947Z" /></g></g></g><g transform="matrix(0.4,0,0,0.4,750,750)" id="i0"><g transform="matrix(1,0,0,1,264.004,34.397)" opacity="0.35" id="i12"><g id="i2"><path fill="#371a45" d="M82.69,-47.441C82.69,-47.441,62.388,47.441,62.388,47.441C62.388,47.441,-66.24,42.356,-66.24,42.356C-66.24,42.356,-77.373,36.809,-82.69,23.75C-80.995,18.395,-78.375,12.539,-74.638,6.183C-47.325,-40.353,55.532,-46.632,82.69,-47.441Z" /></g></g></g><g transform="matrix(0.4,0,0,0.4,750,750)" id="i0"><g transform="matrix(1,0,0,1,265.916,18.887)" id="i13"><g id="i2"><path fill="#371a45" d="M60.498,78.345C60.298,78.345,60.093,78.34,59.888,78.33C59.888,78.33,-68.774,73.257,-68.774,73.257C-70.952,73.174,-73.086,72.627,-75.034,71.655C-76.977,70.688,-94.224,61.587,-100.547,40.332C-105.659,23.154,-102.051,3.877,-89.824,-16.973C-54.844,-76.621,72.935,-78.345,87.388,-78.345C92.041,-78.345,96.44,-76.24,99.37,-72.627C102.295,-69.009,103.428,-64.263,102.456,-59.717C102.456,-59.717,75.562,66.152,75.562,66.152C74.039,73.286,67.739,78.345,60.498,78.345ZM-63.369,42.632C-63.369,42.632,48.135,47.026,48.135,47.026C48.135,47.026,68.199,-46.87,68.199,-46.87C26.246,-44.306,-44.433,-33.452,-63.242,-1.382C-70.864,11.616,-73.549,23.003,-71.01,31.543C-69.34,37.144,-65.688,40.786,-63.369,42.632Z" /></g></g></g><g transform="matrix(0.4,0,0,0.4,750,750)" id="i0"><g transform="matrix(1,0,0,1,-257.815,18.886)" id="i14"><g id="i2"><path fill="#ffffff" d="M-87.375,-62.936C-87.375,-62.936,45.019,-62.936,76.546,-9.176C105.089,39.495,68.182,57.861,68.182,57.861C68.182,57.861,-60.48,62.936,-60.48,62.936C-60.48,62.936,-87.375,-62.936,-87.375,-62.936Z" /></g></g></g><g transform="matrix(0.4,0,0,0.4,750,750)" id="i0"><g transform="matrix(1,0,0,1,-257.808,18.892)" id="i15"><g id="i2"><path fill="#ffffff" d="M84.634,39.178C79.357,52.276,68.185,57.861,68.185,57.861C68.185,57.861,-60.482,62.947,-60.482,62.947C-60.482,62.947,-80.783,-32.09,-80.783,-32.09C-80.783,-32.09,-87.371,-62.947,-87.371,-62.947C-87.371,-62.947,44.994,-62.946,76.545,-9.168C89.373,12.713,88.988,28.468,84.634,39.178Z" /></g></g></g><g transform="matrix(0.4,0,0,0.4,750,750)" id="i0"><g transform="matrix(1,0,0,1,-255.883,34.32)" opacity="0.35" id="i16"><g id="i2"><path fill="#371a45" d="M82.709,23.749C77.432,36.847,66.26,42.433,66.26,42.433C66.26,42.433,-62.407,47.518,-62.407,47.518C-62.407,47.518,-82.709,-47.518,-82.709,-47.518C-55.627,-46.709,47.306,-40.469,74.619,6.067C78.394,12.5,81.014,18.356,82.709,23.749Z" /></g></g></g><g transform="matrix(0.4,0,0,0.4,750,750)" id="i0"><g transform="matrix(1,0,0,1,-257.804,18.887)" id="i17"><g id="i2"><path fill="#371a45" d="M-60.498,78.345C-67.739,78.345,-74.039,73.286,-75.562,66.152C-75.562,66.152,-102.456,-59.717,-102.456,-59.717C-103.428,-64.263,-102.295,-69.009,-99.37,-72.627C-96.44,-76.24,-92.041,-78.345,-87.388,-78.345C-72.935,-78.345,54.849,-76.621,89.824,-16.968C102.051,3.877,105.659,23.154,100.547,40.332C94.224,61.587,76.977,70.688,75.034,71.655C73.086,72.627,70.952,73.174,68.774,73.257C68.774,73.257,-59.888,78.33,-59.888,78.33C-60.093,78.34,-60.298,78.345,-60.498,78.345ZM68.169,57.861C68.169,57.861,68.217,57.861,68.217,57.861C68.217,57.861,68.169,57.861,68.169,57.861ZM-68.199,-46.87C-68.199,-46.87,-48.135,47.026,-48.135,47.026C-48.135,47.026,63.374,42.627,63.374,42.627C65.737,40.757,69.492,37.012,71.113,31.177C73.476,22.686,70.752,11.431,63.242,-1.377C44.433,-33.452,-26.246,-44.311,-68.199,-46.87Z" /></g></g></g><g transform="matrix(0.4,0,0,0.4,750,750)" id="i0"><g transform="matrix(1,0,0,1,0.193,831.456)" id="i18"><g id="i2"><path fill="#371a45" d="M824.039,-613.082C824.039,-613.082,795.226,-156.327,795.226,-156.327C795.226,-156.327,750.55,552.591,750.55,552.591C748.407,586.597,720.201,613.082,686.127,613.082C686.127,613.082,-686.127,613.082,-686.127,613.082C-720.201,613.082,-748.407,586.597,-750.55,552.591C-750.55,552.591,-795.226,-156.327,-795.226,-156.327C-795.226,-156.327,-824.039,-613.082,-824.039,-613.082C-824.039,-613.082,824.039,-613.082,824.039,-613.082Z" /></g></g></g><g transform="matrix(0.4,0,0,0.4,750,750)" id="i0"><g transform="matrix(1,0,0,1,0.193,831.456)" opacity="0.35" id="i19"><g id="i2"><path fill="#371a45" d="M824.039,-613.082C824.039,-613.082,795.226,-156.327,795.226,-156.327C795.226,-156.327,750.428,554.525,750.428,554.525C748.354,587.444,721.049,613.082,688.065,613.082C688.065,613.082,-683.49,613.082,-683.49,613.082C-719.047,613.082,-748.48,585.445,-750.718,549.959C-750.718,549.959,-750.718,549.959,-750.718,549.959C-750.718,549.959,226.621,549.959,226.621,549.959C466.461,549.959,664.996,363.541,680.08,124.176C680.08,124.176,690.34,-38.635,690.34,-38.635C694.358,-102.401,643.724,-156.327,579.831,-156.327C579.831,-156.327,-795.226,-156.327,-795.226,-156.327C-795.226,-156.327,-824.039,-613.082,-824.039,-613.082C-824.039,-613.082,824.039,-613.082,824.039,-613.082Z" /></g></g></g><g transform="matrix(0.4,0,0,0.4,750,750)" id="i0"><g transform="matrix(1,0,0,1,88.74,357.227)" id="i20"><g id="i2"><path fill="#f9a528" d="M-6.569,-22.579C-6.569,-22.579,6.569,-22.579,6.569,-22.579C3.824,-7.575,1.445,7.539,-0.531,22.579C-3.312,8.417,-5.288,-6.697,-6.569,-22.579Z" /></g></g></g><g transform="matrix(0.4,0,0,0.4,750,750)" id="i0"><g transform="matrix(1,0,0,1,0.184,759.744)" id="i21"><g id="i2"><path fill="#371a45" d="M697.759,700.188C697.759,700.188,-697.759,700.188,-697.759,700.188C-733.321,700.188,-762.983,672.39,-765.298,636.907C-765.298,636.907,-851.426,-683.777,-851.426,-683.777C-851.704,-688.025,-850.21,-692.205,-847.295,-695.315C-844.38,-698.42,-840.313,-700.188,-836.05,-700.188C-836.05,-700.188,836.05,-700.188,836.05,-700.188C840.313,-700.188,844.38,-698.42,847.295,-695.315C850.21,-692.205,851.704,-688.025,851.426,-683.777C851.426,-683.777,765.298,636.907,765.298,636.907C762.984,672.39,733.321,700.188,697.759,700.188ZM-819.604,-669.368C-819.604,-669.368,-734.546,634.905,-734.546,634.905C-733.286,654.231,-717.129,669.368,-697.759,669.368C-697.759,669.368,697.759,669.368,697.759,669.368C717.129,669.368,733.286,654.231,734.546,634.905C734.546,634.905,819.604,-669.368,819.604,-669.368C819.604,-669.368,-819.604,-669.368,-819.604,-669.368Z" /></g></g></g><g transform="matrix(0.4,0,0,0.4,750,750)" id="i0"><g transform="matrix(1,0,0,1,-0.007,257.195)" id="i22"><g id="i2"><path fill="#ef962b" d="M907.633,228.364C907.633,228.364,-907.607,228.364,-907.607,228.364C-923.709,228.364,-935.652,213.417,-932.146,197.738C-932.146,197.738,-843.62,-195.427,-843.62,-195.427C-839.305,-214.689,-822.202,-228.364,-802.439,-228.364C-802.439,-228.364,802.465,-228.364,802.465,-228.364C822.228,-228.364,839.331,-214.689,843.646,-195.427C843.646,-195.427,932.134,197.738,932.134,197.738C935.678,213.417,923.735,228.364,907.633,228.364Z" /></g></g></g><g transform="matrix(0.4,0,0,0.4,750,750)" id="i0"><g transform="matrix(1,0,0,1,-1.23,253.64)" opacity="0.3" id="i23"><g id="i2"><path fill="#ffffff" d="M835.128,-210.786C827.323,-219.486,816.02,-224.825,803.689,-224.825C803.689,-224.825,83.401,-224.825,83.401,-224.825C83.401,-224.825,80.068,-224.825,80.068,-224.825C80.068,-224.825,-801.219,-224.825,-801.219,-224.825C-820.967,-224.825,-838.077,-211.138,-842.414,-191.872C-842.414,-191.872,-845.328,-178.926,-845.328,-178.926C-845.328,-178.926,770.041,-178.926,770.041,-178.926C792.417,-178.926,811.794,-163.392,816.659,-141.551C816.659,-141.551,856.327,36.521,856.327,36.521C873.412,113.218,815.058,186.002,736.481,186.002C736.481,186.002,-927.467,186.002,-927.467,186.002C-927.467,186.002,-930.906,201.285,-930.906,201.285C-932.93,210.275,-929.868,218.998,-923.872,224.825C-923.872,224.825,926.339,224.825,926.339,224.825C928.474,222.749,930.236,220.315,931.528,217.624C931.528,217.624,835.128,-210.786,835.128,-210.786Z" /></g></g></g><g transform="matrix(0.4,0,0,0.4,750,750)" id="i0"><g transform="matrix(1,0,0,1,0.004,257.188)" id="i24"><g id="i2"><path fill="#371a45" d="M907.632,243.784C907.632,243.784,82.168,243.784,82.168,243.784C81.606,243.784,81.05,243.755,80.498,243.696C79.951,243.755,79.395,243.784,78.833,243.784C78.833,243.784,-907.632,243.784,-907.632,243.784C-920.01,243.784,-931.548,238.237,-939.282,228.569C-947.016,218.901,-949.893,206.431,-947.173,194.356C-947.173,194.356,-858.682,-198.804,-858.682,-198.804C-852.72,-225.288,-829.6,-243.784,-802.456,-243.784C-802.456,-243.784,802.456,-243.784,802.456,-243.784C829.6,-243.784,852.72,-225.288,858.682,-198.804C858.682,-198.804,947.173,194.356,947.173,194.356C949.893,206.431,947.016,218.901,939.282,228.569C931.548,238.237,920.01,243.784,907.632,243.784ZM-802.456,-212.964C-815.083,-212.964,-825.84,-204.36,-828.613,-192.036C-828.613,-192.036,-917.105,201.123,-917.105,201.123C-917.998,205.083,-916.304,207.959,-915.215,209.321C-914.126,210.678,-911.694,212.964,-907.632,212.964C-907.632,212.964,78.833,212.964,78.833,212.964C79.395,212.964,79.951,212.993,80.498,213.052C81.05,212.993,81.606,212.964,82.168,212.964C82.168,212.964,907.632,212.964,907.632,212.964C911.694,212.964,914.126,210.678,915.215,209.321C916.304,207.959,917.998,205.083,917.104,201.123C917.104,201.123,828.613,-192.036,828.613,-192.036C825.84,-204.36,815.083,-212.964,802.456,-212.964C802.456,-212.964,-802.456,-212.964,-802.456,-212.964Z" /></g></g></g><g transform="matrix(0.4,0,0,0.4,750,750)" id="i0"><g transform="matrix(1,0,0,1,-467.287,141.24)" opacity="0.35" id="i25"><g id="i2"><path fill="#371a45" d="M-27.477,111.601C-236.001,101.893,-236.386,-72.807,-233.728,-112.409C-233.728,-112.409,233.516,-112.409,233.516,-112.409C242.839,58.941,160.977,120.346,-27.477,111.601Z" /></g></g></g><g transform="matrix(0.4,0,0,0.4,750,750)" id="i0"><g transform="matrix(1,0,0,1,472.156,141.24)" opacity="0.35" id="i26"><g id="i2"><path fill="#371a45" d="M27.477,111.601C236.001,101.893,236.386,-72.807,233.728,-112.409C233.728,-112.409,-233.516,-112.409,-233.516,-112.409C-242.839,58.941,-160.977,120.346,27.477,111.601Z" /></g></g></g><g transform="matrix(0.4,0,0,0.4,750,750)" id="i0"><g transform="matrix(1,0,0,1,-485.826,81.821)" id="i27"><g id="i2"><path fill="#ffffff" d="M-205.909,-53.006C-205.909,-53.006,-232.18,131.966,-24.275,141.101C144.808,148.531,216.793,95.47,205.91,-53.006C198.891,-148.767,6.793,-141.658,6.793,-141.658C6.793,-141.658,-192.89,-138.007,-205.909,-53.006Z" /></g></g></g><g transform="matrix(0.4,0,0,0.4,750,750)" id="i0"><g transform="matrix(1,0,0,1,-485.849,81.801)" id="i28"><g id="i2"><path fill="#371a45" d="M5.262,157.203C-4.425,157.203,-14.484,156.973,-24.933,156.514C-94.65,153.453,-147.243,131.134,-181.242,90.177C-232.35,28.624,-221.622,-51.761,-221.139,-55.155C-221.134,-55.209,-221.125,-55.262,-221.115,-55.321C-206.554,-150.409,-15.237,-156.65,6.531,-157.045C14.715,-157.377,213.289,-163.436,221.297,-54.115C226.575,17.867,212.865,69.615,179.383,104.088C144.427,140.084,88.67,157.203,5.262,157.203ZM-190.636,-50.78C-190.968,-48.173,-199.176,20.558,-157.35,70.709C-129.127,104.557,-84.118,123.067,-23.581,125.723C67.386,129.737,124.838,116.026,157.279,82.618C184.271,54.82,195.16,10.835,190.565,-51.86C184.808,-130.444,9.192,-126.327,7.376,-126.239C-41.306,-125.321,-181.442,-109.491,-190.636,-50.78Z" /></g></g></g><g transform="matrix(0.4,0,0,0.4,750,750)" id="i0"><g transform="matrix(1,0,0,1,-485.826,116.655)" opacity="0.35" id="i29"><g id="i2"><path fill="#371a45" d="M-24.25,106.268C144.796,113.699,216.776,60.623,205.929,-87.837C205.484,-93.941,204.26,-99.628,202.424,-104.935C184.179,-15.464,111.087,17.366,-24.25,11.414C-141.398,6.296,-184.174,-54.703,-199.248,-106.945C-202.586,-101.106,-204.866,-94.737,-205.923,-87.837C-205.923,-87.837,-232.178,97.131,-24.25,106.268Z" /></g></g></g><g transform="matrix(0.4,0,0,0.4,750,750)" id="i0"><g transform="matrix(1,0,0,1,493.941,81.821)" id="i30"><g id="i2"><path fill="#ffffff" d="M205.909,-53.006C205.909,-53.006,232.18,131.966,24.275,141.101C-144.808,148.531,-216.793,95.47,-205.91,-53.006C-198.891,-148.767,-6.793,-141.658,-6.793,-141.658C-6.793,-141.658,192.89,-138.007,205.909,-53.006Z" /></g></g></g><g transform="matrix(0.4,0,0,0.4,750,750)" id="i0"><g transform="matrix(1,0,0,1,493.964,81.809)" id="i31"><g id="i2"><path fill="#371a45" d="M-5.265,157.195C-88.683,157.195,-144.425,140.081,-179.386,104.08C-212.867,69.607,-226.578,17.859,-221.3,-54.123C-213.287,-163.434,-14.693,-157.341,-6.246,-157.048C15.233,-156.657,206.551,-150.417,221.117,-55.329C221.127,-55.275,221.137,-55.217,221.142,-55.163C221.625,-51.769,232.352,28.611,181.244,90.169C147.24,131.126,94.648,153.445,24.926,156.507C14.491,156.966,4.418,157.195,-5.265,157.195ZM-12.789,-126.296C-43.219,-126.296,-185.391,-122.443,-190.567,-51.867C-195.162,10.823,-184.273,54.812,-157.276,82.61C-124.84,116.018,-67.35,129.715,23.573,125.716C84.115,123.06,129.126,104.549,157.353,70.701C199.189,20.535,190.966,-48.215,190.634,-50.793C181.44,-109.504,41.303,-125.329,-7.105,-126.242C-7.31,-126.247,-9.332,-126.296,-12.789,-126.296Z" /></g></g></g><g transform="matrix(0.4,0,0,0.4,750,750)" id="i0"><g transform="matrix(1,0,0,1,493.941,116.655)" opacity="0.35" id="i32"><g id="i2"><path fill="#371a45" d="M24.25,106.268C-144.796,113.699,-216.776,60.623,-205.929,-87.837C-205.484,-93.941,-204.26,-99.628,-202.424,-104.935C-184.179,-15.464,-111.087,17.366,24.25,11.414C141.398,6.296,184.174,-54.703,199.248,-106.945C202.586,-101.106,204.866,-94.737,205.923,-87.837C205.923,-87.837,232.178,97.131,24.25,106.268Z" /></g></g></g><g transform="matrix(0.4,0,0,0.4,750,750)" id="i0"><g transform="matrix(1,0,0,1,-750,-750)" opacity="0.3" id="i33"><g id="i2" transform="matrix(1,0,0,1,635.844,1078.382)"><g id="i2"><path fill="#ffffff" d="M-212.46,36.507C-212.46,36.507,-265.018,19.121,-224.396,-13.043C-183.774,-45.207,170.071,-57.819,217.37,-30.429C280.738,6.267,199.314,25.089,104.27,33.202C9.226,41.315,-126.161,54.355,-212.46,36.507Z" /></g></g></g></g><g transform="matrix(0.4,0,0,0.4,750,750)" id="i0"><g transform="matrix(1,0,0,1,-750,-750)" opacity="0.3" id="i34"><g id="i2" transform="matrix(1,0,0,1,1039.956,1071.863)"><g id="i2"><path fill="#ffffff" d="M34.977,43.198C34.977,43.198,-106.285,43.468,-90.637,0.133C-69.348,-58.827,17.759,-45.602,57.145,-31.127C107.999,-12.437,104.892,48,34.977,43.198Z" /></g></g></g></g><g transform="matrix(0.4,0,0,0.4,750,750)" id="i0"><g transform="matrix(1,0,0,1,-0.162,1445)" id="i35"><g id="i2"><path fill="#371a45" d="M-1018.588,-5.417C-976.139,-13.752,-933.693,-15.969,-891.244,-16.877C-848.795,-18.039,-806.349,-17.425,-763.9,-16.79C-721.451,-16.297,-679.006,-16.172,-636.557,-16.25C-636.557,-16.25,-509.213,-16.25,-509.213,-16.25C-509.213,-16.25,0.162,-16.25,0.162,-16.25C0.162,-16.25,509.537,-16.25,509.537,-16.25C509.537,-16.25,764.225,-16.25,764.225,-16.25C764.225,-16.25,827.896,-16.267,827.896,-16.267C849.119,-16.255,870.345,-17.002,891.568,-17.344C934.017,-17.535,976.463,-17.048,1018.912,-5.417C1021.903,-4.597,1023.663,-1.507,1022.845,1.484C1022.303,3.464,1020.755,4.907,1018.912,5.417C976.463,17.048,934.017,17.534,891.568,17.344C870.345,17.002,849.119,16.255,827.896,16.267C827.896,16.267,764.225,16.25,764.225,16.25C764.225,16.25,509.537,16.25,509.537,16.25C509.537,16.25,0.162,16.25,0.162,16.25C0.162,16.25,-509.213,16.25,-509.213,16.25C-509.213,16.25,-636.557,16.25,-636.557,16.25C-679.006,16.172,-721.451,16.297,-763.9,16.79C-806.349,17.425,-848.795,18.039,-891.244,16.877C-933.693,15.969,-976.139,13.752,-1018.588,5.417C-1021.579,4.829,-1023.529,1.929,-1022.941,-1.064C-1022.497,-3.327,-1020.719,-4.995,-1018.588,-5.417Z" /></g></g></g><g transform="matrix(0.4,0,0,0.4,750,750)" id="i0"><g transform="matrix(1,0,0,1,-750,-750)" id="i36"><g id="i37" transform="matrix(1,0,0,1,365.533,1886.014)"><g id="i2"><path fill="#fff2bd" d="M30.115,0C30.115,0,10.597,3.014,10.597,3.014C6.686,3.618,3.618,6.685,3.014,10.596C3.014,10.596,0,30.115,0,30.115C0,30.115,-3.014,10.596,-3.014,10.596C-3.618,6.685,-6.686,3.618,-10.597,3.014C-10.597,3.014,-30.115,0,-30.115,0C-30.115,0,-10.597,-3.014,-10.597,-3.014C-6.686,-3.618,-3.618,-6.686,-3.014,-10.597C-3.014,-10.597,0,-30.115,0,-30.115C0,-30.115,3.014,-10.597,3.014,-10.597C3.618,-6.686,6.686,-3.618,10.597,-3.014C10.597,-3.014,30.115,0,30.115,0Z" /></g></g><g id="i38" transform="matrix(1,0,0,1,247.145,2039.12)"><g id="i2"><path fill="#fff2bd" d="M28.256,0C28.256,0,9.942,2.827,9.942,2.827C6.273,3.394,3.394,6.273,2.828,9.942C2.828,9.942,0,28.256,0,28.256C0,28.256,-2.828,9.942,-2.828,9.942C-3.394,6.273,-6.273,3.394,-9.942,2.827C-9.942,2.827,-28.256,0,-28.256,0C-28.256,0,-9.942,-2.828,-9.942,-2.828C-6.273,-3.395,-3.395,-6.274,-2.828,-9.943C-2.828,-9.943,0,-28.256,0,-28.256C0,-28.256,2.828,-9.943,2.828,-9.943C3.395,-6.274,6.273,-3.395,9.942,-2.828C9.942,-2.828,28.256,0,28.256,0Z" /></g></g><g id="i39" transform="matrix(1,0,0,1,182.421,1814.701)"><g id="i2"><path fill="#fff2bd" d="M21.072,0C21.072,0,7.415,2.109,7.415,2.109C4.679,2.532,2.532,4.678,2.109,7.414C2.109,7.414,0,21.072,0,21.072C0,21.072,-2.109,7.414,-2.109,7.414C-2.532,4.678,-4.679,2.532,-7.415,2.109C-7.415,2.109,-21.072,0,-21.072,0C-21.072,0,-7.415,-2.109,-7.415,-2.109C-4.679,-2.532,-2.532,-4.679,-2.109,-7.415C-2.109,-7.415,0,-21.072,0,-21.072C0,-21.072,2.109,-7.415,2.109,-7.415C2.532,-4.679,4.679,-2.532,7.415,-2.109C7.415,-2.109,21.072,0,21.072,0Z" /></g></g><g id="i40" transform="matrix(1,0,0,1,1339.888,1926.01)"><g id="i2"><path fill="#fff2bd" d="M-30.115,0C-30.115,0,-10.597,3.014,-10.597,3.014C-6.686,3.618,-3.618,6.685,-3.014,10.596C-3.014,10.596,0,30.115,0,30.115C0,30.115,3.014,10.596,3.014,10.596C3.618,6.685,6.686,3.618,10.597,3.014C10.597,3.014,30.115,0,30.115,0C30.115,0,10.597,-3.014,10.597,-3.014C6.686,-3.618,3.618,-6.686,3.014,-10.597C3.014,-10.597,0,-30.115,0,-30.115C0,-30.115,-3.014,-10.597,-3.014,-10.597C-3.618,-6.686,-6.686,-3.618,-10.597,-3.014C-10.597,-3.014,-30.115,0,-30.115,0Z" /></g></g><g id="i41" transform="matrix(1,0,0,1,1125.612,2046.597)"><g id="i2"><path fill="#fff2bd" d="M-28.256,0C-28.256,0,-9.942,2.827,-9.942,2.827C-6.273,3.393,-3.395,6.273,-2.828,9.942C-2.828,9.942,0,28.255,0,28.255C0,28.255,2.828,9.942,2.828,9.942C3.394,6.273,6.273,3.393,9.942,2.827C9.942,2.827,28.256,0,28.256,0C28.256,0,9.942,-2.828,9.942,-2.828C6.273,-3.394,3.394,-6.274,2.828,-9.943C2.828,-9.943,0,-28.255,0,-28.255C0,-28.255,-2.828,-9.943,-2.828,-9.943C-3.395,-6.274,-6.273,-3.394,-9.942,-2.828C-9.942,-2.828,-28.256,0,-28.256,0Z" /></g></g><g id="i42" transform="matrix(1,0,0,1,1215.303,1774.685)"><g id="i2"><path fill="#fff2bd" d="M-21.072,0C-21.072,0,-7.415,2.109,-7.415,2.109C-4.679,2.532,-2.532,4.678,-2.109,7.414C-2.109,7.414,0,21.072,0,21.072C0,21.072,2.109,7.414,2.109,7.414C2.532,4.678,4.679,2.532,7.415,2.109C7.415,2.109,21.072,0,21.072,0C21.072,0,7.415,-2.109,7.415,-2.109C4.679,-2.532,2.532,-4.679,2.109,-7.415C2.109,-7.415,0,-21.072,0,-21.072C0,-21.072,-2.109,-7.415,-2.109,-7.415C-2.532,-4.679,-4.679,-2.532,-7.415,-2.109C-7.415,-2.109,-21.072,0,-21.072,0Z" /></g></g><g id="i43" transform="matrix(1,0,0,1,194.956,1371.193)"><g id="i2"><path fill="#fff2bd" d="M21.275,0C21.275,0,7.486,2.129,7.486,2.129C4.723,2.555,2.556,4.723,2.129,7.486C2.129,7.486,0,21.275,0,21.275C0,21.275,-2.129,7.486,-2.129,7.486C-2.556,4.723,-4.723,2.555,-7.486,2.129C-7.486,2.129,-21.275,0,-21.275,0C-21.275,0,-7.486,-2.129,-7.486,-2.129C-4.723,-2.556,-2.556,-4.723,-2.129,-7.486C-2.129,-7.486,0,-21.275,0,-21.275C0,-21.275,2.129,-7.486,2.129,-7.486C2.556,-4.723,4.723,-2.556,7.486,-2.129C7.486,-2.129,21.275,0,21.275,0Z" /></g></g><g id="i44" transform="matrix(1,0,0,1,110.93,1499.67)"><g id="i2"><path fill="#fff2bd" d="M22.081,0C22.081,0,7.77,2.21,7.77,2.21C4.903,2.653,2.653,4.903,2.21,7.77C2.21,7.77,0,22.081,0,22.081C0,22.081,-2.21,7.77,-2.21,7.77C-2.653,4.903,-4.903,2.653,-7.77,2.21C-7.77,2.21,-22.081,0,-22.081,0C-22.081,0,-7.77,-2.21,-7.77,-2.21C-4.903,-2.653,-2.653,-4.903,-2.21,-7.77C-2.21,-7.77,0,-22.081,0,-22.081C0,-22.081,2.21,-7.77,2.21,-7.77C2.653,-4.903,4.903,-2.653,7.77,-2.21C7.77,-2.21,22.081,0,22.081,0Z" /></g></g><g id="i45" transform="matrix(1,0,0,1,1303.315,1343.657)"><g id="i2"><path fill="#fff2bd" d="M-21.275,0C-21.275,0,-7.486,2.129,-7.486,2.129C-4.723,2.556,-2.556,4.723,-2.129,7.486C-2.129,7.486,0,21.275,0,21.275C0,21.275,2.129,7.486,2.129,7.486C2.556,4.723,4.723,2.556,7.486,2.129C7.486,2.129,21.275,0,21.275,0C21.275,0,7.486,-2.129,7.486,-2.129C4.723,-2.556,2.556,-4.723,2.129,-7.486C2.129,-7.486,0,-21.275,0,-21.275C0,-21.275,-2.129,-7.486,-2.129,-7.486C-2.556,-4.723,-4.723,-2.556,-7.486,-2.129C-7.486,-2.129,-21.275,0,-21.275,0Z" /></g></g><g id="i46" transform="matrix(1,0,0,1,1387.342,1472.114)"><g id="i2"><path fill="#fff2bd" d="M-22.081,0C-22.081,0,-7.77,2.21,-7.77,2.21C-4.903,2.653,-2.653,4.903,-2.21,7.77C-2.21,7.77,0,22.081,0,22.081C0,22.081,2.21,7.77,2.21,7.77C2.653,4.903,4.903,2.653,7.77,2.21C7.77,2.21,22.081,0,22.081,0C22.081,0,7.77,-2.21,7.77,-2.21C4.903,-2.653,2.653,-4.903,2.21,-7.77C2.21,-7.77,0,-22.081,0,-22.081C0,-22.081,-2.21,-7.77,-2.21,-7.77C-2.653,-4.903,-4.903,-2.653,-7.77,-2.21C-7.77,-2.21,-22.081,0,-22.081,0Z" /></g></g><g id="i7" transform="matrix(1,0,0,1,688.709,2066.088)"><g id="i2"><path fill="#fff2bd" d="M-26.294,0C-26.294,0,-9.252,2.631,-9.252,2.631C-5.837,3.158,-3.158,5.838,-2.631,9.252C-2.631,9.252,0,26.294,0,26.294C0,26.294,2.632,9.252,2.632,9.252C3.159,5.838,5.838,3.158,9.252,2.631C9.252,2.631,26.294,0,26.294,0C26.294,0,9.252,-2.632,9.252,-2.632C5.838,-3.159,3.158,-5.837,2.631,-9.252C2.631,-9.252,0,-26.294,0,-26.294C0,-26.294,-2.631,-9.252,-2.631,-9.252C-3.158,-5.837,-5.838,-3.159,-9.252,-2.632C-9.252,-2.632,-26.294,0,-26.294,0Z" /></g></g><g id="i2" transform="matrix(1,0,0,1,838.709,1971.088)"><g id="i2"><path fill="#fff2bd" d="M-26.294,0C-26.294,0,-9.252,2.631,-9.252,2.631C-5.837,3.158,-3.158,5.838,-2.631,9.252C-2.631,9.252,0,26.294,0,26.294C0,26.294,2.632,9.252,2.632,9.252C3.159,5.838,5.838,3.158,9.252,2.631C9.252,2.631,26.294,0,26.294,0C26.294,0,9.252,-2.632,9.252,-2.632C5.838,-3.159,3.158,-5.837,2.631,-9.252C2.631,-9.252,0,-26.294,0,-26.294C0,-26.294,-2.631,-9.252,-2.631,-9.252C-3.158,-5.837,-5.838,-3.159,-9.252,-2.632C-9.252,-2.632,-26.294,0,-26.294,0Z" /></g></g></g></g><g transform="matrix(0.4,0,0,0.4,750,750)" id="i0"><g id="i5"><g transform="translate(-3.337,244.695)"><animateTransform repeatCount="indefinite" type="translate" attributeName="transform" dur="6.375s" begin="0s" calcMode="spline" values="-3.337 244.695; -3.337 324.695; -3.337 324.695; -3.337 244.695; -3.337 244.695; -3.337 244.695" keyTimes="0; 0.156863; 0.470588; 0.627451; 0.941176; 1" keySplines="0.333 0 0 1; 0 0 1 1; 0.333 0 0 1; 0 0 1 1; 0 0 1 1" fill="freeze" /><g transform="scale(1,1) translate(72,-392)"><g id="i47"><g transform="translate(-60.654,0.382)"><g transform="rotate(0)"><animateTransform repeatCount="indefinite" type="rotate" attributeName="transform" dur="6.375s" begin="0s" calcMode="spline" values="0; 24; 24; 0; 0; 0" keyTimes="0; 0.156863; 0.470588; 0.627451; 0.941176; 1" keySplines="0.333 0 0 1; 0.333 0 0.667 1; 0.333 0 0 1; 0.333 0 0.667 1; 0 0 1 1" fill="freeze" /><g transform="scale(1,1) translate(0,0)"><g transform="matrix(1,0,0,1,-790,-598)" id="i48"><g id="i7" transform="matrix(1,0,0,1,1241.46,-210.463)"><path fill="#ffffff" d="M36.591,170.196C36.591,170.196,36.591,170.196,36.591,170.196C30.647,172.72,23.782,169.948,21.258,164.004C21.258,164.004,-110.406,-146.003,-110.406,-146.003C-112.931,-151.947,-110.159,-158.811,-104.215,-161.336C-104.215,-161.336,-104.214,-161.336,-104.214,-161.336C-41.856,-187.82,30.165,-158.739,56.649,-96.381C56.649,-96.381,101.547,9.333,101.547,9.333C128.031,71.691,98.949,143.712,36.591,170.196Z" /></g><g id="i2" transform="matrix(1,0,0,1,1241.445,-210.448)"><path fill="#371a45" d="M32.035,173.886C30.204,173.886,28.373,173.534,26.62,172.826C23.041,171.381,20.234,168.627,18.725,165.072C18.725,165.072,-112.94,-144.933,-112.94,-144.933C-116.055,-152.277,-112.623,-160.782,-105.284,-163.902C-41.622,-190.945,32.172,-161.144,59.213,-97.482C59.213,-97.482,104.11,8.231,104.11,8.231C131.146,71.898,101.351,145.687,37.689,172.728C35.868,173.499,33.954,173.886,32.035,173.886ZM-56.412,-168.346C-72.017,-168.346,-87.872,-165.28,-103.116,-158.805C-107.647,-156.881,-109.767,-151.632,-107.843,-147.101C-107.843,-147.101,23.822,162.904,23.822,162.904C24.755,165.101,26.483,166.8,28.695,167.694C30.902,168.583,33.324,168.569,35.521,167.631C35.521,167.631,35.521,167.631,35.521,167.631C65.003,155.111,87.841,131.859,99.833,102.162C111.825,72.465,111.533,39.876,99.013,10.399C99.013,10.399,54.115,-95.314,54.115,-95.314C34.745,-140.919,-9.723,-168.346,-56.412,-168.346Z" /></g></g></g></g></g></g></g></g></g></g><g transform="matrix(0.4,0,0,0.4,750,750)" id="i0"><g id="i5"><g transform="translate(-3.337,244.695)"><animateTransform repeatCount="indefinite" type="translate" attributeName="transform" dur="6.375s" begin="0s" calcMode="spline" values="-3.337 244.695; -3.337 324.695; -3.337 324.695; -3.337 244.695; -3.337 244.695; -3.337 244.695" keyTimes="0; 0.156863; 0.470588; 0.627451; 0.941176; 1" keySplines="0.333 0 0 1; 0 0 1 1; 0.333 0 0 1; 0 0 1 1; 0 0 1 1" fill="freeze" /><g transform="scale(1,1) translate(72,-392)"><g id="i47"><g transform="translate(-60.654,0.382)"><g transform="rotate(0)"><animateTransform repeatCount="indefinite" type="rotate" attributeName="transform" dur="6.375s" begin="0s" calcMode="spline" values="0; 24; 24; 0; 0; 0" keyTimes="0; 0.156863; 0.470588; 0.627451; 0.941176; 1" keySplines="0.333 0 0 1; 0.333 0 0.667 1; 0.333 0 0 1; 0.333 0 0.667 1; 0 0 1 1" fill="freeze" /><g transform="scale(1,1) translate(0,0)"><g transform="matrix(1,0,0,1,500.243,-743.006)" opacity="0.35" id="i49"><g id="i2"><path fill="#371a45" d="M31.71,-105.695C31.71,-105.695,52.778,-56.119,52.778,-56.119C79.245,6.221,50.173,78.25,-12.189,104.763C-18.128,107.293,-25.004,104.489,-27.534,98.55C-27.534,98.55,-62.562,16.15,-62.562,16.15C-59.298,19.198,-54.435,20.195,-50.058,18.376C-50.058,18.376,-42.715,15.233,-42.715,15.233C6.568,-5.685,35.082,-55.083,31.71,-105.695Z" /></g></g></g></g></g></g></g></g></g></g><g transform="matrix(0.4,0,0,0.4,750,750)" id="i0"><g id="i5"><g transform="translate(-3.337,244.695)"><animateTransform repeatCount="indefinite" type="translate" attributeName="transform" dur="6.375s" begin="0s" calcMode="spline" values="-3.337 244.695; -3.337 324.695; -3.337 324.695; -3.337 244.695; -3.337 244.695; -3.337 244.695" keyTimes="0; 0.156863; 0.470588; 0.627451; 0.941176; 1" keySplines="0.333 0 0 1; 0 0 1 1; 0.333 0 0 1; 0 0 1 1; 0 0 1 1" fill="freeze" /><g transform="scale(1,1) translate(72,-392)"><g id="i47"><g transform="translate(-60.654,0.382)"><g transform="rotate(0)"><animateTransform repeatCount="indefinite" type="rotate" attributeName="transform" dur="6.375s" begin="0s" calcMode="spline" values="0; 24; 24; 0; 0; 0" keyTimes="0; 0.156863; 0.470588; 0.627451; 0.941176; 1" keySplines="0.333 0 0 1; 0.333 0 0.667 1; 0.333 0 0 1; 0.333 0 0.667 1; 0 0 1 1" fill="freeze" /><g transform="scale(1,1) translate(0,0)"><g transform="matrix(1,0,0,1,451.483,-808.444)" id="i50"><g id="i2"><path fill="#371a45" d="M31.998,186.528C28.565,186.528,25.132,185.869,21.851,184.546C15.137,181.836,9.883,176.67,7.051,170.005C7.051,170.005,-124.614,-139.995,-124.614,-139.995C-130.454,-153.755,-124.013,-169.698,-110.263,-175.54C-40.185,-205.308,41.045,-172.498,70.811,-102.427C70.811,-102.427,115.709,3.286,115.709,3.286C130.123,37.236,130.46,74.766,116.651,108.965C102.842,143.164,76.538,169.941,42.593,184.36C42.593,184.36,42.593,184.36,42.593,184.36C39.185,185.805,35.592,186.528,31.998,186.528ZM30.543,155.991C30.543,155.991,30.543,155.991,30.543,155.991C30.543,155.991,30.543,155.991,30.543,155.991ZM-94.77,-148.57C-94.77,-148.57,33.941,154.482,33.941,154.482C58.668,142.978,77.813,122.841,88.072,97.426C98.8,70.859,98.54,41.704,87.339,15.337C87.339,15.337,42.442,-90.376,42.442,-90.376C19.815,-143.672,-41.142,-169.2,-94.77,-148.57Z" /></g></g></g></g></g></g></g></g></g></g><g transform="matrix(0.4,0,0,0.4,750,750)" id="i0"><g id="i5"><g transform="translate(-3.337,244.695)"><animateTransform repeatCount="indefinite" type="translate" attributeName="transform" dur="6.375s" begin="0s" calcMode="spline" values="-3.337 244.695; -3.337 324.695; -3.337 324.695; -3.337 244.695; -3.337 244.695; -3.337 244.695" keyTimes="0; 0.156863; 0.470588; 0.627451; 0.941176; 1" keySplines="0.333 0 0 1; 0 0 1 1; 0.333 0 0 1; 0 0 1 1; 0 0 1 1" fill="freeze" /><g transform="scale(1,1) translate(72,-392)"><g id="i47"><g transform="translate(-60.654,0.382)"><g transform="rotate(0)"><animateTransform repeatCount="indefinite" type="rotate" attributeName="transform" dur="6.375s" begin="0s" calcMode="spline" values="0; 24; 24; 0; 0; 0" keyTimes="0; 0.156863; 0.470588; 0.627451; 0.941176; 1" keySplines="0.333 0 0 1; 0.333 0 0.667 1; 0.333 0 0 1; 0.333 0 0.667 1; 0 0 1 1" fill="freeze" /><g transform="scale(1,1) translate(0,0)"><g transform="matrix(1,0,0,1,-790,-598)" id="i51"><g id="i7" transform="matrix(1,0,0,1,150.575,232.988)"><path fill="#ffffff" d="M-36.591,-170.196C-36.591,-170.196,-36.591,-170.196,-36.591,-170.196C-30.647,-172.72,-23.782,-169.948,-21.258,-164.004C-21.258,-164.004,110.406,146.003,110.406,146.003C112.93,151.947,110.159,158.812,104.215,161.336C104.215,161.336,104.214,161.336,104.214,161.336C41.856,187.82,-30.165,158.739,-56.649,96.381C-56.649,96.381,-101.547,-9.333,-101.547,-9.333C-128.031,-71.691,-98.949,-143.712,-36.591,-170.196Z" /></g><g id="i2" transform="matrix(1,0,0,1,150.558,233.008)"><path fill="#371a45" d="M56.292,173.911C40.394,173.911,24.49,170.85,9.309,164.722C-21.76,152.178,-46.081,128.287,-59.182,97.447C-59.182,97.447,-104.08,-8.271,-104.08,-8.271C-117.176,-39.111,-117.483,-73.203,-104.934,-104.272C-92.39,-135.341,-68.499,-159.662,-37.659,-172.763C-37.659,-172.763,-37.659,-172.763,-37.659,-172.763C-30.315,-175.873,-21.809,-172.446,-18.689,-165.107C-18.689,-165.107,112.971,144.898,112.971,144.898C114.48,148.457,114.514,152.388,113.069,155.967C111.624,159.546,108.87,162.354,105.315,163.863C89.544,170.562,72.923,173.911,56.292,173.911ZM-35.491,-167.666C-64.973,-155.146,-87.81,-131.894,-99.802,-102.197C-111.794,-72.505,-111.502,-39.912,-98.982,-10.439C-98.982,-10.439,-54.084,95.279,-54.084,95.279C-41.564,124.761,-18.313,147.598,11.384,159.585C41.081,171.577,73.674,171.28,103.147,158.765C105.344,157.832,107.044,156.104,107.937,153.897C108.831,151.685,108.807,149.258,107.874,147.066C107.874,147.066,-23.787,-162.939,-23.787,-162.939C-25.711,-167.47,-30.97,-169.595,-35.491,-167.666C-35.491,-167.666,-35.491,-167.666,-35.491,-167.666Z" /></g></g></g></g></g></g></g></g></g></g><g transform="matrix(0.4,0,0,0.4,750,750)" id="i0"><g id="i5"><g transform="translate(-3.337,244.695)"><animateTransform repeatCount="indefinite" type="translate" attributeName="transform" dur="6.375s" begin="0s" calcMode="spline" values="-3.337 244.695; -3.337 324.695; -3.337 324.695; -3.337 244.695; -3.337 244.695; -3.337 244.695" keyTimes="0; 0.156863; 0.470588; 0.627451; 0.941176; 1" keySplines="0.333 0 0 1; 0 0 1 1; 0.333 0 0 1; 0 0 1 1; 0 0 1 1" fill="freeze" /><g transform="scale(1,1) translate(72,-392)"><g id="i47"><g transform="translate(-60.654,0.382)"><g transform="rotate(0)"><animateTransform repeatCount="indefinite" type="rotate" attributeName="transform" dur="6.375s" begin="0s" calcMode="spline" values="0; 24; 24; 0; 0; 0" keyTimes="0; 0.156863; 0.470588; 0.627451; 0.941176; 1" keySplines="0.333 0 0 1; 0.333 0 0.667 1; 0.333 0 0 1; 0.333 0 0.667 1; 0 0 1 1" fill="freeze" /><g transform="scale(1,1) translate(0,0)"><g transform="matrix(1,0,0,1,-621.524,-253.522)" opacity="0.35" id="i52"><g id="i2"><path fill="#371a45" d="M56.003,-51.5C56.003,-51.5,92.52,34.506,92.52,34.506C95.05,40.445,92.244,47.321,86.306,49.852C53.571,63.738,18.149,62.349,-11.941,48.835C-39.115,36.631,-61.951,14.51,-74.53,-15.095C-74.53,-15.095,-93.451,-59.639,-93.451,-59.639C-59.152,-28.076,-8.15,-17.598,37.573,-37.008C37.573,-37.008,48.885,-41.815,48.885,-41.815C53.011,-43.578,55.552,-47.352,56.003,-51.5Z" /></g></g></g></g></g></g></g></g></g></g><g transform="matrix(0.4,0,0,0.4,750,750)" id="i0"><g id="i5"><g transform="translate(-3.337,244.695)"><animateTransform repeatCount="indefinite" type="translate" attributeName="transform" dur="6.375s" begin="0s" calcMode="spline" values="-3.337 244.695; -3.337 324.695; -3.337 324.695; -3.337 244.695; -3.337 244.695; -3.337 244.695" keyTimes="0; 0.156863; 0.470588; 0.627451; 0.941176; 1" keySplines="0.333 0 0 1; 0 0 1 1; 0.333 0 0 1; 0 0 1 1; 0 0 1 1" fill="freeze" /><g transform="scale(1,1) translate(72,-392)"><g id="i47"><g transform="translate(-60.654,0.382)"><g transform="rotate(0)"><animateTransform repeatCount="indefinite" type="rotate" attributeName="transform" dur="6.375s" begin="0s" calcMode="spline" values="0; 24; 24; 0; 0; 0" keyTimes="0; 0.156863; 0.470588; 0.627451; 0.941176; 1" keySplines="0.333 0 0 1; 0.333 0 0.667 1; 0.333 0 0 1; 0.333 0 0.667 1; 0 0 1 1" fill="freeze" /><g transform="scale(1,1) translate(0,0)"><g transform="matrix(1,0,0,1,-639.45,-364.988)" id="i53"><g id="i2"><path fill="#371a45" d="M56.299,186.554C38.804,186.554,21.299,183.184,4.585,176.436C-29.614,162.627,-56.391,136.329,-70.81,102.384C-70.81,102.384,-115.708,-3.334,-115.708,-3.334C-130.127,-37.279,-130.459,-74.809,-116.65,-109.008C-102.841,-143.207,-76.537,-169.984,-42.592,-184.403C-42.587,-184.403,-42.588,-184.403,-42.588,-184.403C-28.848,-190.233,-12.895,-183.798,-7.05,-170.058C-7.05,-170.058,124.615,139.952,124.615,139.952C130.455,153.712,124.014,169.654,110.259,175.494C92.905,182.867,74.605,186.554,56.299,186.554ZM-33.935,-154.525C-58.667,-143.021,-77.812,-122.885,-88.071,-97.47C-98.798,-70.903,-98.54,-41.752,-87.339,-15.385C-87.339,-15.385,-42.441,90.333,-42.441,90.333C-31.245,116.705,-10.444,137.135,16.123,147.862C41.533,158.121,69.322,158.331,94.771,148.521C94.771,148.521,-33.935,-154.525,-33.935,-154.525ZM-30.547,-156.034C-30.547,-156.034,-30.551,-156.034,-30.551,-156.034C-30.546,-156.034,-30.547,-156.034,-30.547,-156.034C-30.547,-156.034,-30.547,-156.034,-30.547,-156.034Z" /></g></g></g></g></g></g></g></g></g></g><g transform="matrix(0.4,0,0,0.4,750,750)" id="i0"><g id="i5"><g transform="translate(-3.337,244.695)"><animateTransform repeatCount="indefinite" type="translate" attributeName="transform" dur="6.375s" begin="0s" calcMode="spline" values="-3.337 244.695; -3.337 324.695; -3.337 324.695; -3.337 244.695; -3.337 244.695; -3.337 244.695" keyTimes="0; 0.156863; 0.470588; 0.627451; 0.941176; 1" keySplines="0.333 0 0 1; 0 0 1 1; 0.333 0 0 1; 0 0 1 1; 0 0 1 1" fill="freeze" /><g transform="scale(1,1) translate(72,-392)"><g id="i47"><g transform="translate(-60.654,0.382)"><g transform="rotate(0)"><animateTransform repeatCount="indefinite" type="rotate" attributeName="transform" dur="6.375s" begin="0s" calcMode="spline" values="0; 24; 24; 0; 0; 0" keyTimes="0; 0.156863; 0.470588; 0.627451; 0.941176; 1" keySplines="0.333 0 0 1; 0.333 0 0.667 1; 0.333 0 0 1; 0.333 0 0.667 1; 0 0 1 1" fill="freeze" /><g transform="scale(1,1) translate(0,0)"><g transform="matrix(1,0,0,1,-790,-598)" id="i54"><g id="i7" transform="matrix(1,0,0,1,696.082,11.235)"><path fill="#ffffff" d="M542.861,-186.33C645.768,113.484,486.144,439.954,186.33,542.861C-113.484,645.768,-439.954,486.144,-542.861,186.33C-645.768,-113.484,-486.144,-439.954,-186.33,-542.861C113.484,-645.768,439.954,-486.144,542.861,-186.33Z" /></g><g id="i2" transform="matrix(1,0,0,1,696.082,11.363)"><path fill="#371a45" d="M-0.488,576.889C-87.095,576.889,-173.232,557.133,-253.325,517.973C-391.714,450.307,-495.468,332.802,-545.478,187.099C-648.715,-113.677,-488.007,-442.369,-187.231,-545.606C113.536,-648.846,442.237,-488.138,545.479,-187.359C648.716,113.417,488.003,442.114,187.227,545.351C125.85,566.42,62.554,576.889,-0.488,576.889ZM-0.483,-571.351C-61.86,-571.351,-124.218,-561.383,-185.434,-540.372C-483.32,-438.123,-642.485,-112.589,-540.244,185.302C-437.998,483.188,-112.48,642.367,185.43,540.116C483.321,437.865,642.49,112.329,540.244,-185.562C459.004,-422.232,236.797,-571.351,-0.483,-571.351Z" /></g></g></g></g></g></g></g></g></g></g><g transform="matrix(0.4,0,0,0.4,750,750)" id="i0"><g id="i5"><g transform="translate(-3.337,244.695)"><animateTransform repeatCount="indefinite" type="translate" attributeName="transform" dur="6.375s" begin="0s" calcMode="spline" values="-3.337 244.695; -3.337 324.695; -3.337 324.695; -3.337 244.695; -3.337 244.695; -3.337 244.695" keyTimes="0; 0.156863; 0.470588; 0.627451; 0.941176; 1" keySplines="0.333 0 0 1; 0 0 1 1; 0.333 0 0 1; 0 0 1 1; 0 0 1 1" fill="freeze" /><g transform="scale(1,1) translate(72,-392)"><g id="i47"><g transform="translate(-60.654,0.382)"><g transform="rotate(0)"><animateTransform repeatCount="indefinite" type="rotate" attributeName="transform" dur="6.375s" begin="0s" calcMode="spline" values="0; 24; 24; 0; 0; 0" keyTimes="0; 0.156863; 0.470588; 0.627451; 0.941176; 1" keySplines="0.333 0 0 1; 0.333 0 0.667 1; 0.333 0 0 1; 0.333 0 0.667 1; 0 0 1 1" fill="freeze" /><g transform="scale(1,1) translate(0,0)"><g transform="matrix(1,0,0,1,-82.425,-429.557)" opacity="0.35" id="i55"><g id="i2"><path fill="#371a45" d="M500.372,-416.898C512.254,-393.539,522.614,-369.055,531.38,-343.536C634.243,-43.717,474.63,282.743,174.836,385.675C-124.983,488.539,-451.441,328.925,-554.374,29.131C-557.339,20.511,-560.1,11.814,-562.604,3.175C-435.302,254.873,-138.722,380.502,135.599,286.355C426.773,186.388,585.677,-124.4,500.372,-416.898Z" /></g></g></g></g></g></g></g></g></g></g><g transform="matrix(0.4,0,0,0.4,750,750)" id="i0"><g id="i5"><g transform="translate(-3.337,244.695)"><animateTransform repeatCount="indefinite" type="translate" attributeName="transform" dur="6.375s" begin="0s" calcMode="spline" values="-3.337 244.695; -3.337 324.695; -3.337 324.695; -3.337 244.695; -3.337 244.695; -3.337 244.695" keyTimes="0; 0.156863; 0.470588; 0.627451; 0.941176; 1" keySplines="0.333 0 0 1; 0 0 1 1; 0.333 0 0 1; 0 0 1 1; 0 0 1 1" fill="freeze" /><g transform="scale(1,1) translate(72,-392)"><g id="i47"><g transform="translate(-60.654,0.382)"><g transform="rotate(0)"><animateTransform repeatCount="indefinite" type="rotate" attributeName="transform" dur="6.375s" begin="0s" calcMode="spline" values="0; 24; 24; 0; 0; 0" keyTimes="0; 0.156863; 0.470588; 0.627451; 0.941176; 1" keySplines="0.333 0 0 1; 0.333 0 0.667 1; 0.333 0 0 1; 0.333 0 0.667 1; 0 0 1 1" fill="freeze" /><g transform="scale(1,1) translate(0,0)"><g transform="matrix(1,0,0,1,-93.917,-586.764)" id="i56"><g id="i2"><path fill="#371a45" d="M0.498,589.404C-244.356,589.404,-473.614,435.552,-557.437,191.333C-662.935,-116.04,-498.701,-451.933,-191.338,-557.436C116.04,-662.939,451.929,-498.704,557.437,-191.338C557.437,-191.338,557.437,-191.338,557.437,-191.333C662.935,116.035,498.701,451.934,191.333,557.437C128.184,579.112,63.808,589.404,0.498,589.404ZM-0.474,-558.581C-60.494,-558.581,-121.47,-548.833,-181.328,-528.286C-472.627,-428.301,-628.266,-109.971,-528.286,181.323C-479.853,322.436,-379.365,436.241,-245.337,501.773C-111.318,567.3,40.205,576.724,181.323,528.286C472.622,428.301,628.266,109.966,528.286,-181.333C448.848,-412.764,231.557,-558.581,-0.474,-558.581Z" /></g></g></g></g></g></g></g></g></g></g><g transform="matrix(0.4,0,0,0.4,750,750)" id="i0"><g id="i5"><g transform="translate(-3.337,244.695)"><animateTransform repeatCount="indefinite" type="translate" attributeName="transform" dur="6.375s" begin="0s" calcMode="spline" values="-3.337 244.695; -3.337 324.695; -3.337 324.695; -3.337 244.695; -3.337 244.695; -3.337 244.695" keyTimes="0; 0.156863; 0.470588; 0.627451; 0.941176; 1" keySplines="0.333 0 0 1; 0 0 1 1; 0.333 0 0 1; 0 0 1 1; 0 0 1 1" fill="freeze" /><g transform="scale(1,1) translate(72,-392)"><g id="i47"><g transform="translate(-60.654,0.382)"><g transform="rotate(0)"><animateTransform repeatCount="indefinite" type="rotate" attributeName="transform" dur="6.375s" begin="0s" calcMode="spline" values="0; 24; 24; 0; 0; 0" keyTimes="0; 0.156863; 0.470588; 0.627451; 0.941176; 1" keySplines="0.333 0 0 1; 0.333 0 0.667 1; 0.333 0 0 1; 0.333 0 0.667 1; 0 0 1 1" fill="freeze" /><g transform="scale(1,1) translate(0,0)"><g transform="matrix(1,0,0,1,-82.724,-542.667)" id="i57"><g id="i2"><path fill="#371a45" d="M534.717,-215.889C572.78,-110.222,573.816,0.234,544.391,102.533C522.331,179.227,379.902,350.848,157.379,433.27C-48.948,509.693,-277.039,467.17,-342.938,422.16C-430.838,362.123,-500.477,276.378,-538.539,170.711C-639.263,-108.914,-440.776,-311.375,-144.392,-418.136C151.992,-524.897,433.993,-495.514,534.717,-215.889Z" /></g></g></g></g></g></g></g></g></g></g><g transform="matrix(0.4,0,0,0.4,750,750)" id="i0"><g id="i5"><g transform="translate(-3.337,244.695)"><animateTransform repeatCount="indefinite" type="translate" attributeName="transform" dur="6.375s" begin="0s" calcMode="spline" values="-3.337 244.695; -3.337 324.695; -3.337 324.695; -3.337 244.695; -3.337 244.695; -3.337 244.695" keyTimes="0; 0.156863; 0.470588; 0.627451; 0.941176; 1" keySplines="0.333 0 0 1; 0 0 1 1; 0.333 0 0 1; 0 0 1 1; 0 0 1 1" fill="freeze" /><g transform="scale(1,1) translate(72,-392)"><g id="i47"><g transform="translate(-60.654,0.382)"><g transform="rotate(0)"><animateTransform repeatCount="indefinite" type="rotate" attributeName="transform" dur="6.375s" begin="0s" calcMode="spline" values="0; 24; 24; 0; 0; 0" keyTimes="0; 0.156863; 0.470588; 0.627451; 0.941176; 1" keySplines="0.333 0 0 1; 0.333 0 0.667 1; 0.333 0 0 1; 0.333 0 0.667 1; 0 0 1 1" fill="freeze" /><g transform="scale(1,1) translate(0,0)"><g transform="matrix(1,0,0,1,-82.846,-542.472)" id="i58"><g id="i2"><path fill="#371a45" d="M-88.591,490.873C-208.947,490.873,-309.695,463.252,-351.506,434.692C-445.329,370.61,-514.972,281.063,-552.912,175.736C-602.385,38.402,-585.451,-87.33,-502.59,-197.97C-430.349,-294.425,-308.249,-375.64,-149.494,-432.828C9.271,-490.016,155.1,-505.318,272.268,-477.083C406.648,-444.698,499.866,-358.644,549.334,-221.305C549.334,-221.305,549.334,-221.309,549.334,-221.309C587.278,-115.982,590.73,-2.598,559.324,106.596C537.537,182.343,398.875,360.102,162.854,447.524C78.03,478.945,-9.519,490.868,-88.591,490.873ZM148.851,-460.086C62.122,-460.086,-35.398,-441.17,-139.045,-403.834C-296.037,-347.281,-647.805,-178.624,-523.918,165.297C-488.191,264.482,-422.561,348.837,-334.123,409.242C-271.345,452.123,-49.011,493.124,152.151,418.627C375.091,336.049,510.057,166.395,529.705,98.08C559.309,-4.845,556.072,-111.676,520.34,-210.86C520.34,-210.86,520.34,-210.865,520.34,-210.865C474.608,-337.828,388.714,-417.32,265.047,-447.122C229.114,-455.782,190.204,-460.086,148.851,-460.086Z" /></g></g></g></g></g></g></g></g></g></g><g transform="matrix(0.4,0,0,0.4,750,750)" id="i0"><g id="i5"><g transform="translate(-3.337,244.695)"><animateTransform repeatCount="indefinite" type="translate" attributeName="transform" dur="6.375s" begin="0s" calcMode="spline" values="-3.337 244.695; -3.337 324.695; -3.337 324.695; -3.337 244.695; -3.337 244.695; -3.337 244.695" keyTimes="0; 0.156863; 0.470588; 0.627451; 0.941176; 1" keySplines="0.333 0 0 1; 0 0 1 1; 0.333 0 0 1; 0 0 1 1; 0 0 1 1" fill="freeze" /><g transform="scale(1,1) translate(72,-392)"><g id="i47"><g transform="translate(-60.654,0.382)"><g transform="rotate(0)"><animateTransform repeatCount="indefinite" type="rotate" attributeName="transform" dur="6.375s" begin="0s" calcMode="spline" values="0; 24; 24; 0; 0; 0" keyTimes="0; 0.156863; 0.470588; 0.627451; 0.941176; 1" keySplines="0.333 0 0 1; 0.333 0 0.667 1; 0.333 0 0 1; 0.333 0 0.667 1; 0 0 1 1" fill="freeze" /><g transform="scale(1,1) translate(0,0)"><g transform="matrix(1,0,0,1,263.903,-733.719)" opacity="0.7" id="i59"><g id="i2"><path fill="#ffffff" d="M-72.582,12.197C-63.286,67.517,-23.254,106.902,16.832,100.166C56.918,93.43,81.879,43.123,72.583,-12.197C63.287,-67.517,23.254,-106.902,-16.832,-100.166C-56.918,-93.43,-81.878,-43.123,-72.582,12.197Z" /></g></g></g></g></g></g></g></g></g></g><g transform="matrix(0.4,0,0,0.4,750,750)" id="i0"><g id="i5"><g transform="translate(-3.337,244.695)"><animateTransform repeatCount="indefinite" type="translate" attributeName="transform" dur="6.375s" begin="0s" calcMode="spline" values="-3.337 244.695; -3.337 324.695; -3.337 324.695; -3.337 244.695; -3.337 244.695; -3.337 244.695" keyTimes="0; 0.156863; 0.470588; 0.627451; 0.941176; 1" keySplines="0.333 0 0 1; 0 0 1 1; 0.333 0 0 1; 0 0 1 1; 0 0 1 1" fill="freeze" /><g transform="scale(1,1) translate(72,-392)"><g id="i47"><g transform="translate(-60.654,0.382)"><g transform="rotate(0)"><animateTransform repeatCount="indefinite" type="rotate" attributeName="transform" dur="6.375s" begin="0s" calcMode="spline" values="0; 24; 24; 0; 0; 0" keyTimes="0; 0.156863; 0.470588; 0.627451; 0.941176; 1" keySplines="0.333 0 0 1; 0.333 0 0.667 1; 0.333 0 0 1; 0.333 0 0.667 1; 0 0 1 1" fill="freeze" /><g transform="scale(1,1) translate(0,0)"><g transform="matrix(1,0,0,1,247.264,-513.869)" opacity="0.7" id="i60"><g id="i2"><path fill="#ffffff" d="M-39.992,1.115C-39.275,26.853,-20.788,47.218,1.299,46.602C23.386,45.986,40.709,24.623,39.992,-1.115C39.275,-26.853,20.788,-47.218,-1.299,-46.602C-23.386,-45.986,-40.709,-24.623,-39.992,1.115Z" /></g></g></g></g></g></g></g></g></g></g><g transform="matrix(0.4,0,0,0.4,750,750)" id="i0"><g id="i5"><g transform="translate(-3.337,244.695)"><animateTransform repeatCount="indefinite" type="translate" attributeName="transform" dur="6.375s" begin="0s" calcMode="spline" values="-3.337 244.695; -3.337 324.695; -3.337 324.695; -3.337 244.695; -3.337 244.695; -3.337 244.695" keyTimes="0; 0.156863; 0.470588; 0.627451; 0.941176; 1" keySplines="0.333 0 0 1; 0 0 1 1; 0.333 0 0 1; 0 0 1 1; 0 0 1 1" fill="freeze" /><g transform="scale(1,1) translate(72,-392)"><g id="i47"><g transform="translate(-60.654,0.382)"><g transform="rotate(0)"><animateTransform repeatCount="indefinite" type="rotate" attributeName="transform" dur="6.375s" begin="0s" calcMode="spline" values="0; 24; 24; 0; 0; 0" keyTimes="0; 0.156863; 0.470588; 0.627451; 0.941176; 1" keySplines="0.333 0 0 1; 0.333 0 0.667 1; 0.333 0 0 1; 0.333 0 0.667 1; 0 0 1 1" fill="freeze" /><g transform="scale(1,1) translate(0,0)"><g transform="matrix(1,0,0,1,160.962,-524.616)" opacity="0.35" id="i61"><g id="i2"><path fill="#111a28" d="M92.692,-457.21C180.842,-418.241,250.549,-346.256,291.018,-233.954C329.089,-128.266,330.104,-17.808,300.72,84.478C278.646,161.176,136.197,332.798,-86.313,415.241C-164.875,444.365,-246.577,456.203,-321.324,457.21C-49.966,350.038,123.182,139.999,150.534,44.88C187.886,-84.958,186.558,-225.161,138.241,-359.237C125.355,-395.081,110.046,-427.664,92.692,-457.21Z" /></g></g></g></g></g></g></g></g></g></g><g transform="matrix(0.4,0,0,0.4,750,750)" id="i0"><g id="i5"><g transform="translate(-3.337,244.695)"><animateTransform repeatCount="indefinite" type="translate" attributeName="transform" dur="6.375s" begin="0s" calcMode="spline" values="-3.337 244.695; -3.337 324.695; -3.337 324.695; -3.337 244.695; -3.337 244.695; -3.337 244.695" keyTimes="0; 0.156863; 0.470588; 0.627451; 0.941176; 1" keySplines="0.333 0 0 1; 0 0 1 1; 0.333 0 0 1; 0 0 1 1; 0 0 1 1" fill="freeze" /><g transform="scale(1,1) translate(72,-392)"><g id="i47"><g transform="translate(-60.654,0.382)"><g transform="rotate(0)"><animateTransform repeatCount="indefinite" type="rotate" attributeName="transform" dur="6.375s" begin="0s" calcMode="spline" values="0; 24; 24; 0; 0; 0" keyTimes="0; 0.156863; 0.470588; 0.627451; 0.941176; 1" keySplines="0.333 0 0 1; 0.333 0 0.667 1; 0.333 0 0 1; 0.333 0 0.667 1; 0 0 1 1" fill="freeze" /><g transform="scale(1,1) translate(0,0)"><g transform="matrix(1,0,0,1,-174.633,-846.787)" id="i62"><g id="i2"><path fill="#371a45" d="M-492.097,237.235C-494.192,237.235,-496.316,236.81,-498.347,235.902C-505.515,232.718,-509.05,224.739,-506.862,217.42C-462.15,43.939,-306.95,-102.213,-80.964,-183.622C143.611,-264.513,355.531,-253.447,500.511,-153.276C506.302,-149.482,509.026,-142.104,506.643,-135.285C503.826,-127.248,495.086,-123.019,487.054,-125.812C485.75,-126.271,484.417,-126.935,483.279,-127.721C346.59,-222.355,144.739,-232.16,-70.52,-154.628C-286.956,-76.657,-435.158,61.912,-477.131,225.56C-477.185,225.76,-477.238,225.96,-477.297,226.16C-477.487,226.785,-477.746,227.488,-478.01,228.084C-480.564,233.826,-486.194,237.235,-492.097,237.235Z" /></g></g></g></g></g></g></g></g></g></g><g transform="matrix(0.4,0,0,0.4,750,750)" id="i0"><g id="i5"><g transform="translate(-3.337,244.695)"><animateTransform repeatCount="indefinite" type="translate" attributeName="transform" dur="6.375s" begin="0s" calcMode="spline" values="-3.337 244.695; -3.337 324.695; -3.337 324.695; -3.337 244.695; -3.337 244.695; -3.337 244.695" keyTimes="0; 0.156863; 0.470588; 0.627451; 0.941176; 1" keySplines="0.333 0 0 1; 0 0 1 1; 0.333 0 0 1; 0 0 1 1; 0 0 1 1" fill="freeze" /><g transform="scale(1,1) translate(72,-392)"><g id="i47"><g transform="translate(-60.654,0.382)"><g transform="rotate(0)"><animateTransform repeatCount="indefinite" type="rotate" attributeName="transform" dur="6.375s" begin="0s" calcMode="spline" values="0; 24; 24; 0; 0; 0" keyTimes="0; 0.156863; 0.470588; 0.627451; 0.941176; 1" keySplines="0.333 0 0 1; 0.333 0 0.667 1; 0.333 0 0 1; 0.333 0 0.667 1; 0 0 1 1" fill="freeze" /><g transform="scale(1,1) translate(0,0)"><g transform="matrix(1,0,0,1,-373.347,-566.348)" opacity="0.7" id="i63"><g id="i2"><path fill="#ffffff" d="M-67.48,317.329C-67.48,317.329,-253.45,72.674,-144.381,-90.804C-35.312,-254.282,178.735,-330.884,178.674,-315.365C178.674,-315.365,-37.466,-172.746,-62.684,47.823C-82.13,217.909,-67.48,317.329,-67.48,317.329Z" /></g></g></g></g></g></g></g></g></g></g><g transform="matrix(0.4,0,0,0.4,750,750)" id="i0"><g id="i5"><g transform="translate(-3.337,244.695)"><animateTransform repeatCount="indefinite" type="translate" attributeName="transform" dur="6.375s" begin="0s" calcMode="spline" values="-3.337 244.695; -3.337 324.695; -3.337 324.695; -3.337 244.695; -3.337 244.695; -3.337 244.695" keyTimes="0; 0.156863; 0.470588; 0.627451; 0.941176; 1" keySplines="0.333 0 0 1; 0 0 1 1; 0.333 0 0 1; 0 0 1 1; 0 0 1 1" fill="freeze" /><g transform="scale(1,1) translate(72,-392)"><g opacity="0" id="i47"><g transform="translate(-60.654,0.382)"><g transform="rotate(0)"><animateTransform repeatCount="indefinite" type="rotate" attributeName="transform" dur="6.375s" begin="0s" calcMode="spline" values="0; 24; 24; 0; 0; 0" keyTimes="0; 0.156863; 0.470588; 0.627451; 0.941176; 1" keySplines="0.333 0 0 1; 0.333 0 0.667 1; 0.333 0 0 1; 0.333 0 0.667 1; 0 0 1 1" fill="freeze" /><g transform="scale(1,1) translate(0,0)" /></g></g></g></g></g></g></g><g transform="matrix(0.4,0,0,0.4,750,750)" id="i0"><g transform="matrix(1,0,0,1,-4,772)" id="i64"><text fill="#ffffff" dominant-baseline="middle" text-anchor="middle" font-weight="700" font-size="196" font-family="Poppins-Bold, Arial, sans-serif">FREEconsultation</text></g></g><g transform="matrix(0.4,0,0,0.4,750,750)" opacity="0" id="i0" /></svg>