<svg fill="none" height="100%" width="100%" viewBox="0 0 256 256" xmlns:xlink="http://www.w3.org/1999/xlink" xmlns="http://www.w3.org/2000/svg"><g id="i0"><g transform="translate(48.6,127.969)"><animateTransform repeatCount="indefinite" type="translate" attributeName="transform" dur="1.335s" begin="0s" calcMode="spline" values="48.6 127.969; 48.6 88; 48.6 128; 48.6 128" keyTimes="0; 0.25; 0.5; 1" keySplines="0.333 0 0.667 1; 0.333 0 0.667 1; 0 0 1 1" fill="freeze" /><g transform="scale(0.75,0.75) translate(70,0.5)"><g id="i1" transform="matrix(1,0,0,1,-70.125,-0.5)"><ellipse ry="17.25" rx="16.875" cy="0" cx="0" fill="#e53935" /></g></g></g></g><g id="i2"><g transform="translate(88.6,127.969)"><animateTransform repeatCount="indefinite" type="translate" attributeName="transform" dur="1.335s" begin="0s" calcMode="spline" values="88.6 127.969; 88.6 127.969; 88.6 88; 88.6 128; 88.6 128" keyTimes="0; 0.125; 0.375; 0.625; 1" keySplines="0 0 1 1; 0.333 0 0.667 1; 0.333 0 0.667 1; 0 0 1 1" fill="freeze" /><g transform="scale(0.75,0.75) translate(70,0.5)"><g id="i1" transform="matrix(1,0,0,1,-70.125,-0.5)"><ellipse ry="17.25" rx="16.875" cy="0" cx="0" fill="#1e88e5" /></g></g></g></g><g id="i3"><g transform="translate(128.594,127.969)"><animateTransform repeatCount="indefinite" type="translate" attributeName="transform" dur="1.335s" begin="0s" calcMode="spline" values="128.594 127.969; 128.594 127.969; 128.594 88; 128.594 128; 128.594 128" keyTimes="0; 0.25; 0.5; 0.75; 1" keySplines="0 0 1 1; 0.333 0 0.667 1; 0.333 0 0.667 1; 0 0 1 1" fill="freeze" /><g transform="scale(0.75,0.75) translate(70,0.5)"><g id="i1" transform="matrix(1,0,0,1,-70.125,-0.5)"><ellipse ry="17.25" rx="16.875" cy="0" cx="0" fill="#43a047" /></g></g></g></g><g id="i4"><g transform="translate(168.6,128)"><animateTransform repeatCount="indefinite" type="translate" attributeName="transform" dur="1.335s" begin="0s" calcMode="spline" values="168.6 128; 168.6 128; 168.6 88; 168.6 128; 168.6 128" keyTimes="0; 0.375; 0.625; 0.875; 1" keySplines="0 0 1 1; 0.333 0 0.667 1; 0.333 0 0.667 1; 0 0 1 1" fill="freeze" /><g transform="scale(0.75,0.75) translate(70,0.5)"><g id="i1" transform="matrix(1,0,0,1,-70.125,-0.5)"><ellipse ry="17.25" rx="16.875" cy="0" cx="0" fill="#fdd835" /></g></g></g></g><g id="i5"><g transform="translate(208.6,127.969)"><animateTransform repeatCount="indefinite" type="translate" attributeName="transform" dur="1.335s" begin="0s" calcMode="spline" values="208.6 127.969; 208.6 127.969; 208.6 88; 208.6 128; 208.6 128" keyTimes="0; 0.5; 0.75; 1; 1" keySplines="0 0 1 1; 0.333 0 0.667 1; 0.333 0 0.667 1; 0 0 1 1" fill="freeze" /><g transform="scale(0.75,0.75) translate(70,0.5)"><g id="i1" transform="matrix(1,0,0,1,-70.125,-0.5)"><ellipse ry="17.25" rx="16.875" cy="0" cx="0" fill="#fb8c00" /></g></g></g></g></svg>