<svg fill="none" height="100%" width="100%" viewBox="0 0 200 200" xmlns:xlink="http://www.w3.org/1999/xlink" xmlns="http://www.w3.org/2000/svg"><g transform="matrix(0.57,0,0,0.57,-42.5,-42.5)" id="i0"><g><g transform="translate(250,277.795)"><g transform="scale(1,1)"><animateTransform repeatCount="indefinite" type="scale" attributeName="transform" dur="3.033s" begin="0s" calcMode="spline" values="1 1; 1 1; 1.05 1.05; 1 1; 1 1" keyTimes="0; 0.681319; 0.725275; 0.769231; 1" keySplines="0 0 1 1; 0.333 0 0.667 1; 0.333 0 0.667 1; 0 0 1 1" fill="freeze" /><g id="i1" transform="translate(-250,-277.795)"><g id="i2" transform="matrix(1,0,0,1,250,284.715)"><path stroke-dasharray="100 0" pathLength="100" d="M-31.016,-53.159C-31.016,-53.159,133.211,-53.159,133.211,-53.159C138.73,-53.159,143.245,-49.295,143.245,-44.572C143.245,-44.572,143.245,44.57,143.245,44.57C143.245,49.293,138.73,53.159,133.211,53.159C133.211,53.159,-133.21,53.159,-133.21,53.159C-138.729,53.159,-143.244,49.293,-143.244,44.57C-143.244,44.57,-143.244,-44.572,-143.244,-44.572C-143.244,-49.295,-138.729,-53.159,-133.21,-53.159C-133.21,-53.159,-112.424,-53.159,-112.424,-53.159" stroke-miterlimit="10" stroke-linecap="round" stroke-width="3" stroke="#a6a6a6"><animate repeatCount="indefinite" attributeName="stroke" dur="3.033s" begin="0s" fill="freeze" values="#a6a6a6; #a6a6a6; #39b54a; #39b54a" keyTimes="0; 0.648352; 0.681319; 1" keySplines="0 0 1 1; 0 0 1 1; 0 0 1 1" calcMode="spline" /><animate repeatCount="indefinite" attributeName="stroke-width" dur="3.033s" begin="0s" fill="freeze" values="3; 3; 6; 6" keyTimes="0; 0.648352; 0.681319; 1" keySplines="0 0 1 1; 0 0 1 1; 0 0 1 1" calcMode="spline" /></path></g><g id="i3" transform="matrix(1,0,0,1,0,0)"><g id="i4" transform="matrix(1,0,0,1,157.891,230.389)"><path fill="#a6a6a6" fill-rule="evenodd" d="M-5.77,2.75C-5.77,2.75,-5.77,12.672,-5.77,12.672C-5.77,12.672,-9.112,12.672,-9.112,12.672C-9.112,12.672,-9.112,-12.672,-9.112,-12.672C-9.112,-12.672,0.235,-12.672,0.235,-12.672C3.008,-12.672,5.181,-11.962,6.753,-10.547C8.325,-9.131,9.112,-7.258,9.112,-4.926C9.112,-2.466,8.342,-0.571,6.805,0.758C5.268,2.087,3.066,2.75,0.2,2.75C0.2,2.75,-5.77,2.75,-5.77,2.75ZM-5.77,0.017C-5.77,0.017,0.235,0.017,0.235,0.017C2.022,0.017,3.391,-0.403,4.343,-1.246C5.294,-2.089,5.77,-3.307,5.77,-4.9C5.77,-6.411,5.294,-7.619,4.343,-8.526C3.391,-9.432,2.085,-9.904,0.426,-9.939C0.426,-9.939,-5.77,-9.939,-5.77,-9.939C-5.77,-9.939,-5.77,0.017,-5.77,0.017Z"><animate repeatCount="indefinite" attributeName="fill" dur="3.033s" begin="0s" fill="freeze" values="#a6a6a6; #a6a6a6; #39b54a; #39b54a" keyTimes="0; 0.648352; 0.681319; 1" keySplines="0 0 1 1; 0 0 1 1; 0 0 1 1" calcMode="spline" /></path></g><g id="i5" transform="matrix(1,0,0,1,176.746,230.389)"><path fill="#a6a6a6" d="M1.671,12.671C1.671,12.671,-1.671,12.671,-1.671,12.671C-1.671,12.671,-1.671,-12.671,-1.671,-12.671C-1.671,-12.671,1.671,-12.671,1.671,-12.671C1.671,-12.671,1.671,12.671,1.671,12.671Z"><animate repeatCount="indefinite" attributeName="fill" dur="3.033s" begin="0s" fill="freeze" values="#a6a6a6; #a6a6a6; #39b54a; #39b54a" keyTimes="0; 0.648352; 0.681319; 1" keySplines="0 0 1 1; 0 0 1 1; 0 0 1 1" calcMode="spline" /></path></g><g id="i1" transform="matrix(1,0,0,1,197.828,230.389)"><path fill="#a6a6a6" d="M9.738,12.671C9.738,12.671,6.379,12.671,6.379,12.671C6.379,12.671,-6.379,-6.858,-6.379,-6.858C-6.379,-6.858,-6.379,12.671,-6.379,12.671C-6.379,12.671,-9.739,12.671,-9.739,12.671C-9.739,12.671,-9.739,-12.671,-9.739,-12.671C-9.739,-12.671,-6.379,-12.671,-6.379,-12.671C-6.379,-12.671,6.414,6.945,6.414,6.945C6.414,6.945,6.414,-12.671,6.414,-12.671C6.414,-12.671,9.738,-12.671,9.738,-12.671C9.738,-12.671,9.738,12.671,9.738,12.671Z"><animate repeatCount="indefinite" attributeName="fill" dur="3.033s" begin="0s" fill="freeze" values="#a6a6a6; #a6a6a6; #39b54a; #39b54a" keyTimes="0; 0.648352; 0.681319; 1" keySplines="0 0 1 1; 0 0 1 1; 0 0 1 1" calcMode="spline" /></path></g></g></g></g></g></g><g opacity="0"><animate repeatCount="indefinite" attributeName="opacity" dur="3.033s" begin="0s" fill="freeze" values="0; 0; 1; 1" keyTimes="0; 0.054945; 0.164835; 1" keySplines="0 0 1 1; 0 0 1 1; 0 0 1 1" calcMode="spline" /><g id="i6" transform="translate(62.339,287.151)"><animateTransform repeatCount="indefinite" type="translate" attributeName="transform" dur="3.033s" begin="0s" calcMode="spline" values="62.339 287.151; 155.339 287.151; 155.339 287.151" keyTimes="0; 0.10989; 1" keySplines="0.333 0 0.091 1; 0 0 1 1" fill="freeze" /><path fill="#231f20" d="M-6.399,2.852C-6.399,2.852,-23.889,-2.353,-23.889,-2.353C-23.889,-2.353,-21.225,-11.09,-21.225,-11.09C-21.225,-11.09,-3.736,-4.611,-3.736,-4.611C-3.736,-4.611,-4.257,-24.511,-4.257,-24.511C-4.257,-24.511,4.604,-24.511,4.604,-24.511C4.604,-24.511,4.025,-4.322,4.025,-4.322C4.025,-4.322,21.225,-10.685,21.225,-10.685C21.225,-10.685,23.889,-1.89,23.889,-1.89C23.889,-1.89,6.109,3.373,6.109,3.373C6.109,3.373,17.576,19.067,17.576,19.067C17.576,19.067,10.395,24.511,10.395,24.511C10.395,24.511,-0.376,7.832,-0.376,7.832C-0.376,7.832,-10.8,24.106,-10.8,24.106C-10.8,24.106,-18.04,18.836,-18.04,18.836C-18.04,18.836,-6.399,2.852,-6.399,2.852Z" /></g></g><g opacity="0"><animate repeatCount="indefinite" attributeName="opacity" dur="3.033s" begin="0s" fill="freeze" values="0; 0; 1; 1" keyTimes="0; 0.21978; 0.32967; 1" keySplines="0 0 1 1; 0 0 1 1; 0 0 1 1" calcMode="spline" /><g id="i7" transform="translate(124.339,287.151)"><animateTransform repeatCount="indefinite" type="translate" attributeName="transform" dur="3.033s" begin="0s" calcMode="spline" values="124.339 287.151; 124.339 287.151; 217.339 287.151; 217.339 287.151" keyTimes="0; 0.164835; 0.274725; 1" keySplines="0 0 1 1; 0.333 0 0.091 1; 0 0 1 1" fill="freeze" /><path fill="#231f20" d="M-6.399,2.852C-6.399,2.852,-23.889,-2.353,-23.889,-2.353C-23.889,-2.353,-21.225,-11.09,-21.225,-11.09C-21.225,-11.09,-3.736,-4.611,-3.736,-4.611C-3.736,-4.611,-4.257,-24.511,-4.257,-24.511C-4.257,-24.511,4.604,-24.511,4.604,-24.511C4.604,-24.511,4.025,-4.322,4.025,-4.322C4.025,-4.322,21.225,-10.685,21.225,-10.685C21.225,-10.685,23.889,-1.89,23.889,-1.89C23.889,-1.89,6.109,3.373,6.109,3.373C6.109,3.373,17.576,19.067,17.576,19.067C17.576,19.067,10.395,24.511,10.395,24.511C10.395,24.511,-0.376,7.832,-0.376,7.832C-0.376,7.832,-10.8,24.106,-10.8,24.106C-10.8,24.106,-18.04,18.836,-18.04,18.836C-18.04,18.836,-6.399,2.852,-6.399,2.852Z" /></g></g><g opacity="0"><animate repeatCount="indefinite" attributeName="opacity" dur="3.033s" begin="0s" fill="freeze" values="0; 0; 1; 1" keyTimes="0; 0.384615; 0.494505; 1" keySplines="0 0 1 1; 0 0 1 1; 0 0 1 1" calcMode="spline" /><g id="i8" transform="translate(188.339,287.151)"><animateTransform repeatCount="indefinite" type="translate" attributeName="transform" dur="3.033s" begin="0s" calcMode="spline" values="188.339 287.151; 188.339 287.151; 281.339 287.151; 281.339 287.151" keyTimes="0; 0.32967; 0.43956; 1" keySplines="0 0 1 1; 0.333 0 0.091 1; 0 0 1 1" fill="freeze" /><path fill="#231f20" d="M-6.4,2.852C-6.4,2.852,-23.889,-2.353,-23.889,-2.353C-23.889,-2.353,-21.225,-11.09,-21.225,-11.09C-21.225,-11.09,-3.736,-4.611,-3.736,-4.611C-3.736,-4.611,-4.257,-24.511,-4.257,-24.511C-4.257,-24.511,4.603,-24.511,4.603,-24.511C4.603,-24.511,4.024,-4.322,4.024,-4.322C4.024,-4.322,21.224,-10.685,21.224,-10.685C21.224,-10.685,23.888,-1.89,23.888,-1.89C23.888,-1.89,6.109,3.373,6.109,3.373C6.109,3.373,17.575,19.067,17.575,19.067C17.575,19.067,10.394,24.511,10.394,24.511C10.394,24.511,-0.377,7.832,-0.377,7.832C-0.377,7.832,-10.801,24.106,-10.801,24.106C-10.801,24.106,-18.04,18.836,-18.04,18.836C-18.04,18.836,-6.4,2.852,-6.4,2.852Z" /></g></g><g opacity="0"><animate repeatCount="indefinite" attributeName="opacity" dur="3.033s" begin="0s" fill="freeze" values="0; 0; 1; 1" keyTimes="0; 0.549451; 0.659341; 1" keySplines="0 0 1 1; 0 0 1 1; 0 0 1 1" calcMode="spline" /><g id="i9" transform="translate(253.339,287.151)"><animateTransform repeatCount="indefinite" type="translate" attributeName="transform" dur="3.033s" begin="0s" calcMode="spline" values="253.339 287.151; 253.339 287.151; 346.339 287.151; 346.339 287.151" keyTimes="0; 0.494505; 0.604395; 1" keySplines="0 0 1 1; 0.333 0 0.091 1; 0 0 1 1" fill="freeze" /><path fill="#231f20" d="M-6.399,2.852C-6.399,2.852,-23.888,-2.353,-23.888,-2.353C-23.888,-2.353,-21.224,-11.09,-21.224,-11.09C-21.224,-11.09,-3.736,-4.611,-3.736,-4.611C-3.736,-4.611,-4.257,-24.511,-4.257,-24.511C-4.257,-24.511,4.604,-24.511,4.604,-24.511C4.604,-24.511,4.025,-4.322,4.025,-4.322C4.025,-4.322,21.225,-10.685,21.225,-10.685C21.225,-10.685,23.889,-1.89,23.889,-1.89C23.889,-1.89,6.109,3.373,6.109,3.373C6.109,3.373,17.576,19.067,17.576,19.067C17.576,19.067,10.395,24.511,10.395,24.511C10.395,24.511,-0.376,7.832,-0.376,7.832C-0.376,7.832,-10.8,24.106,-10.8,24.106C-10.8,24.106,-18.039,18.836,-18.039,18.836C-18.039,18.836,-6.399,2.852,-6.399,2.852Z" /></g></g><g id="i10"><path stroke-miterlimit="10" stroke-linecap="round" stroke-width="18" stroke="#d9d9d9" d="M118.821,179.814C118.821,179.814,381.179,179.814,381.179,179.814" /></g><g id="i5"><path d="M118.821,179.814" stroke-miterlimit="10" stroke-linecap="round" stroke-width="18" stroke="#39b54a"><set fill="freeze" dur="0.033s" begin="0s" to="M118.821,179.814" attributeName="d" /><set fill="freeze" dur="0.033s" begin="0.03333333333333333s" to="M118.821,179.814C118.821,179.814,118.833,179.814,118.856,179.814" attributeName="d" /><set fill="freeze" dur="0.033s" begin="0.06666666666666667s" to="M118.821,179.814C118.821,179.814,118.869,179.814,118.963,179.814" attributeName="d" /><set fill="freeze" dur="0.033s" begin="0.1s" to="M118.821,179.814C118.821,179.814,118.931,179.814,119.146,179.814" attributeName="d" /><set fill="freeze" dur="0.033s" begin="0.13333333333333333s" to="M118.821,179.814C118.821,179.814,119.02,179.814,119.408,179.814" attributeName="d" /><set fill="freeze" dur="0.033s" begin="0.16666666666666666s" to="M118.821,179.814C118.821,179.814,119.139,179.814,119.752,179.814" attributeName="d" /><set fill="freeze" dur="0.033s" begin="0.2s" to="M118.821,179.814C118.821,179.814,119.288,179.814,120.183,179.814" attributeName="d" /><set fill="freeze" dur="0.033s" begin="0.23333333333333334s" to="M118.821,179.814C118.821,179.814,119.47,179.814,120.704,179.814" attributeName="d" /><set fill="freeze" dur="0.033s" begin="0.26666666666666666s" to="M118.821,179.814C118.821,179.814,119.687,179.814,121.321,179.814" attributeName="d" /><set fill="freeze" dur="0.033s" begin="0.3s" to="M118.821,179.814C118.821,179.814,119.942,179.814,122.037,179.814" attributeName="d" /><set fill="freeze" dur="0.033s" begin="0.3333333333333333s" to="M118.821,179.814C118.821,179.814,120.237,179.814,122.86,179.814" attributeName="d" /><set fill="freeze" dur="0.033s" begin="0.36666666666666664s" to="M118.821,179.814C118.821,179.814,120.574,179.814,123.793,179.814" attributeName="d" /><set fill="freeze" dur="0.033s" begin="0.4s" to="M118.821,179.814C118.821,179.814,120.957,179.814,124.845,179.814" attributeName="d" /><set fill="freeze" dur="0.033s" begin="0.43333333333333335s" to="M118.821,179.814C118.821,179.814,121.39,179.814,126.02,179.814" attributeName="d" /><set fill="freeze" dur="0.033s" begin="0.4666666666666667s" to="M118.821,179.814C118.821,179.814,121.876,179.814,127.327,179.814" attributeName="d" /><set fill="freeze" dur="0.033s" begin="0.5s" to="M118.821,179.814C118.821,179.814,122.419,179.814,128.773,179.814" attributeName="d" /><set fill="freeze" dur="0.033s" begin="0.5333333333333333s" to="M118.821,179.814C118.821,179.814,123.025,179.814,130.368,179.814" attributeName="d" /><set fill="freeze" dur="0.033s" begin="0.5666666666666667s" to="M118.821,179.814C118.821,179.814,123.698,179.814,132.121,179.814" attributeName="d" /><set fill="freeze" dur="0.033s" begin="0.6s" to="M118.821,179.814C118.821,179.814,124.444,179.814,134.043,179.814" attributeName="d" /><set fill="freeze" dur="0.033s" begin="0.6333333333333333s" to="M118.821,179.814C118.821,179.814,125.27,179.814,136.145,179.814" attributeName="d" /><set fill="freeze" dur="0.033s" begin="0.6666666666666666s" to="M118.821,179.814C118.821,179.814,126.183,179.814,138.439,179.814" attributeName="d" /><set fill="freeze" dur="0.033s" begin="0.7s" to="M118.821,179.814C118.821,179.814,127.191,179.814,140.942,179.814" attributeName="d" /><set fill="freeze" dur="0.033s" begin="0.7333333333333333s" to="M118.821,179.814C118.821,179.814,128.305,179.814,143.666,179.814" attributeName="d" /><set fill="freeze" dur="0.033s" begin="0.7666666666666667s" to="M118.821,179.814C118.821,179.814,129.534,179.814,146.631,179.814" attributeName="d" /><set fill="freeze" dur="0.033s" begin="0.8s" to="M118.821,179.814C118.821,179.814,130.892,179.814,149.855,179.814" attributeName="d" /><set fill="freeze" dur="0.033s" begin="0.8333333333333334s" to="M118.821,179.814C118.821,179.814,132.391,179.814,153.358,179.814" attributeName="d" /><set fill="freeze" dur="0.033s" begin="0.8666666666666667s" to="M118.821,179.814C118.821,179.814,134.049,179.814,157.167,179.814" attributeName="d" /><set fill="freeze" dur="0.033s" begin="0.9s" to="M118.821,179.814C118.821,179.814,135.883,179.814,161.304,179.814" attributeName="d" /><set fill="freeze" dur="0.033s" begin="0.9333333333333333s" to="M118.821,179.814C118.821,179.814,137.915,179.814,165.8,179.814" attributeName="d" /><set fill="freeze" dur="0.033s" begin="0.9666666666666667s" to="M118.821,179.814C118.821,179.814,140.169,179.814,170.684,179.814" attributeName="d" /><set fill="freeze" dur="0.033s" begin="1s" to="M118.821,179.814C118.821,179.814,142.673,179.814,175.992,179.814" attributeName="d" /><set fill="freeze" dur="0.033s" begin="1.0333333333333334s" to="M118.821,179.814C118.821,179.814,145.457,179.814,181.755,179.814" attributeName="d" /><set fill="freeze" dur="0.033s" begin="1.0666666666666667s" to="M118.821,179.814C118.821,179.814,148.56,179.814,188.013,179.814" attributeName="d" /><set fill="freeze" dur="0.033s" begin="1.1s" to="M118.821,179.814C118.821,179.814,152.02,179.814,194.799,179.814" attributeName="d" /><set fill="freeze" dur="0.033s" begin="1.1333333333333333s" to="M118.821,179.814C118.821,179.814,155.88,179.814,202.142,179.814" attributeName="d" /><set fill="freeze" dur="0.033s" begin="1.1666666666666667s" to="M118.821,179.814C118.821,179.814,160.185,179.814,210.064,179.814" attributeName="d" /><set fill="freeze" dur="0.033s" begin="1.2s" to="M118.821,179.814C118.821,179.814,164.975,179.814,218.566,179.814" attributeName="d" /><set fill="freeze" dur="0.033s" begin="1.2333333333333334s" to="M118.821,179.814C118.821,179.814,170.286,179.814,227.628,179.814" attributeName="d" /><set fill="freeze" dur="0.033s" begin="1.2666666666666666s" to="M118.821,179.814C118.821,179.814,176.137,179.814,237.189,179.814" attributeName="d" /><set fill="freeze" dur="0.033s" begin="1.3s" to="M118.821,179.814C118.821,179.814,182.524,179.814,247.15,179.814" attributeName="d" /><set fill="freeze" dur="0.033s" begin="1.3333333333333333s" to="M118.821,179.814C118.822,179.814,189.414,179.814,257.364,179.814" attributeName="d" /><set fill="freeze" dur="0.033s" begin="1.3666666666666667s" to="M118.821,179.814C118.822,179.814,196.736,179.814,267.645,179.814" attributeName="d" /><set fill="freeze" dur="0.033s" begin="1.4s" to="M118.821,179.814C118.822,179.814,204.394,179.814,277.796,179.814" attributeName="d" /><set fill="freeze" dur="0.033s" begin="1.4333333333333333s" to="M118.821,179.814C118.822,179.814,212.276,179.814,287.631,179.814" attributeName="d" /><set fill="freeze" dur="0.033s" begin="1.4666666666666666s" to="M118.821,179.814C118.822,179.814,220.267,179.814,296.995,179.814" attributeName="d" /><set fill="freeze" dur="0.033s" begin="1.5s" to="M118.821,179.814C118.822,179.814,228.265,179.814,305.779,179.814" attributeName="d" /><set fill="freeze" dur="0.033s" begin="1.5333333333333334s" to="M118.821,179.814C118.822,179.814,236.19,179.814,313.923,179.814" attributeName="d" /><set fill="freeze" dur="0.033s" begin="1.5666666666666667s" to="M118.821,179.814C118.822,179.814,243.982,179.814,321.407,179.814" attributeName="d" /><set fill="freeze" dur="0.033s" begin="1.6s" to="M118.821,179.814C118.822,179.814,251.601,179.814,328.239,179.814" attributeName="d" /><set fill="freeze" dur="0.033s" begin="1.6333333333333333s" to="M118.821,179.814C118.822,179.814,259.024,179.814,334.447,179.814" attributeName="d" /><set fill="freeze" dur="0.033s" begin="1.6666666666666667s" to="M118.821,179.814C118.822,179.814,266.244,179.814,340.07,179.814" attributeName="d" /><set fill="freeze" dur="0.033s" begin="1.7s" to="M118.821,179.814C118.822,179.814,273.253,179.814,345.149,179.814" attributeName="d" /><set fill="freeze" dur="0.033s" begin="1.7333333333333334s" to="M118.821,179.814C118.822,179.814,280.057,179.814,349.73,179.814" attributeName="d" /><set fill="freeze" dur="0.033s" begin="1.7666666666666666s" to="M118.821,179.814C118.822,179.814,286.664,179.814,353.854,179.814" attributeName="d" /><set fill="freeze" dur="0.033s" begin="1.8s" to="M118.821,179.814C118.822,179.814,293.078,179.814,357.559,179.814" attributeName="d" /><set fill="freeze" dur="0.033s" begin="1.8333333333333333s" to="M118.821,179.814C118.822,179.814,299.312,179.814,360.884,179.814" attributeName="d" /><set fill="freeze" dur="0.033s" begin="1.8666666666666667s" to="M118.821,179.814C118.822,179.814,305.374,179.814,363.86,179.814" attributeName="d" /><set fill="freeze" dur="0.033s" begin="1.9s" to="M118.821,179.814C118.822,179.814,311.273,179.814,366.517,179.814" attributeName="d" /><set fill="freeze" dur="0.033s" begin="1.9333333333333333s" to="M118.821,179.814C118.822,179.814,317.021,179.814,368.882,179.814" attributeName="d" /><set fill="freeze" dur="0.033s" begin="1.9666666666666666s" to="M118.821,179.814C118.822,179.814,322.624,179.814,370.978,179.814" attributeName="d" /><set fill="freeze" dur="0.033s" begin="2s" to="M118.821,179.814C118.822,179.814,328.09,179.814,372.827,179.814" attributeName="d" /><set fill="freeze" dur="0.033s" begin="2.033333333333333s" to="M118.821,179.814C118.822,179.814,333.431,179.814,374.449,179.814" attributeName="d" /><set fill="freeze" dur="0.033s" begin="2.066666666666667s" to="M118.821,179.814C118.822,179.814,338.651,179.814,375.86,179.814" attributeName="d" /><set fill="freeze" dur="0.033s" begin="2.1s" to="M118.821,179.814C118.822,179.814,343.756,179.814,377.075,179.814" attributeName="d" /><set fill="freeze" dur="0.033s" begin="2.1333333333333333s" to="M118.821,179.814C118.822,179.814,348.756,179.814,378.109,179.814" attributeName="d" /><set fill="freeze" dur="0.033s" begin="2.1666666666666665s" to="M118.821,179.814C118.822,179.814,353.652,179.814,378.973,179.814" attributeName="d" /><set fill="freeze" dur="0.033s" begin="2.2s" to="M118.821,179.814C118.822,179.814,358.454,179.814,379.681,179.814" attributeName="d" /><set fill="freeze" dur="0.033s" begin="2.2333333333333334s" to="M118.821,179.814C118.822,179.814,363.163,179.814,380.24,179.814" attributeName="d" /><set fill="freeze" dur="0.033s" begin="2.2666666666666666s" to="M118.821,179.814C118.822,179.814,367.786,179.814,380.662,179.814" attributeName="d" /><set fill="freeze" dur="0.033s" begin="2.3s" to="M118.821,179.814C118.822,179.814,372.327,179.814,380.954,179.814" attributeName="d" /><set fill="freeze" dur="0.033s" begin="2.3333333333333335s" to="M118.821,179.814C118.822,179.814,376.791,179.814,381.124,179.814" attributeName="d" /><set fill="freeze" dur="0.033s" begin="2.3666666666666667s" to="M118.821,179.814C118.821,179.814,381.179,179.814,381.179,179.814" attributeName="d" /></path></g></g></svg>